<svg width="20" height="20" viewBox="0 0 20 20" fill="none" xmlns="http://www.w3.org/2000/svg">
<mask id="mask0_1_4991" style="mask-type:alpha" maskUnits="userSpaceOnUse" x="0" y="0" width="20" height="20">
<rect width="20" height="20" fill="#D9D9D9"/>
</mask>
<g mask="url(#mask0_1_4991)">
<path d="M9.54248 15.896C9.38915 15.7433 9.31248 15.587 9.31248 15.427C9.31248 15.2677 9.38215 15.1113 9.52148 14.958L13.8335 10.667H4.31248C4.14582 10.667 3.99315 10.601 3.85448 10.469C3.71582 10.337 3.64648 10.1807 3.64648 10C3.64648 9.81933 3.71582 9.663 3.85448 9.531C3.99315 9.399 4.14582 9.333 4.31248 9.333H13.8335L9.52148 5.062C9.38215 4.90933 9.31248 4.74966 9.31248 4.583C9.31248 4.41633 9.38915 4.25666 9.54248 4.104C9.69515 3.96533 9.84782 3.896 10.0005 3.896C10.1532 3.896 10.3058 3.96533 10.4585 4.104L15.7715 9.438C15.8688 9.52066 15.9382 9.61066 15.9795 9.708C16.0215 9.80533 16.0425 9.90266 16.0425 10C16.0425 10.0973 16.0215 10.1947 15.9795 10.292C15.9382 10.3893 15.8688 10.4793 15.7715 10.562L10.4585 15.896C10.3058 16.0347 10.1532 16.104 10.0005 16.104C9.84782 16.104 9.69515 16.0347 9.54248 15.896Z" fill="#4563FF"/>
</g>
</svg>
