<svg width="111" height="38" viewBox="0 0 111 38" fill="none" xmlns="http://www.w3.org/2000/svg">
<ellipse cx="92.4454" cy="19" rx="18.5548" ry="18.5" fill="#BB0032"/>
<path d="M94.3777 14.3904L89.5611 19.3856L87.1674 16.8804L89.5757 14.3752H84.8028H84.7591L82.3945 16.8804L89.6195 24.396L95.7789 17.928H99.4716L102.873 14.3904H94.3777Z" fill="white"/>
<path d="M90.6133 24.2898L91.2993 23.5761L96.0575 18.6265H102.888L99.4729 22.1641H97.4587L95.4445 24.2898H90.6133Z" fill="white"/>
<ellipse cx="67.8145" cy="19" rx="18.5548" ry="18.5" fill="#D6005E"/>
<path d="M63.3163 26.7083H61.082V17.2013C61.082 13.9638 63.784 11.2916 67.0575 11.2916H74.4358V17.15C74.4358 20.4388 71.7339 23.0597 68.4604 23.0597H64.7193L65.5506 20.85H68.4084C70.4869 20.85 72.1496 19.2055 72.1496 17.15V13.5013H67.0055C64.9271 13.5013 63.2644 15.1458 63.2644 17.2013V26.7083H63.3163Z" fill="white"/>
<ellipse cx="43.1856" cy="19" rx="18.5548" ry="18.5" fill="#EF3124"/>
<path d="M49.3144 25.7234H37.4395V28.2496H49.3144V25.7234Z" fill="white"/>
<path d="M45.5514 11.5974C45.2155 10.5663 44.8208 9.75 43.4855 9.75C42.1502 9.75 41.7303 10.5663 41.3776 11.5974L37.6992 22.2865H40.1347L40.9829 19.7431H45.669L46.4584 22.2865H49.0534L45.5514 11.5974ZM41.6967 17.6036L43.3595 12.534H43.4183L44.9888 17.6036H41.6967Z" fill="white"/>
<ellipse cx="18.5548" cy="19" rx="18.5548" ry="18.5" fill="#FCEC68"/>
<path d="M18.4418 21.2161L13.4061 26.7219L11.417 24.5471L16.4527 19.0414L15.3952 17.8851V15.6278L14.665 14.8294V16.8115L14.0356 17.4997L11.4674 14.7193L10.8379 15.4075C10.8379 14.8845 10.9386 13.3704 12.0968 12.1316C13.3557 10.8102 14.7154 11.4159 15.1938 11.9114L17.762 14.6918L17.1073 15.4075L18.4418 16.8666L19.7763 15.4075L19.1216 14.6918L21.6898 11.8838C22.1682 11.3883 23.5279 10.7827 24.7868 12.1041C25.945 13.3704 26.0457 14.857 26.0457 15.38L25.4162 14.6918L22.848 17.4997L22.2186 16.8115V14.8294L21.4884 15.6278V17.8851L20.4309 19.0414L25.4666 24.5471L23.4775 26.7219L18.4418 21.2161Z" fill="black"/>
</svg>
