<svg width="289" height="72" viewBox="0 0 289 72" fill="none" xmlns="http://www.w3.org/2000/svg">
<circle cx="36" cy="36" r="36" fill="#EF3124"/>
<path d="M47.8913 49.0839H24.8516V53.9997H47.8913V49.0839Z" fill="white"/>
<path d="M40.5904 21.5953C39.9386 19.5888 39.1728 18.0003 36.582 18.0003C33.9913 18.0003 33.1766 19.5888 32.4922 21.5953L25.3555 42.3958H30.0807L31.7264 37.4465H40.8185L42.3501 42.3958H47.385L40.5904 21.5953ZM33.1114 33.283L36.3376 23.4178H36.4517L39.4987 33.283H33.1114Z" fill="white"/>
<circle cx="90.25" cy="36" r="36" fill="#FAEB00"/>
<path d="M90.0305 40.3126L80.2602 51.0265L76.4009 46.7945L86.1712 36.0806L84.1195 33.8306V29.4379L82.7028 27.8844V31.7414L81.4815 33.0807L76.4986 27.6701L75.2773 29.0094C75.2773 27.9915 75.4727 25.0452 77.7199 22.6346C80.1625 20.0632 82.8005 21.2417 83.7286 22.206L88.7115 27.6165L87.4413 29.0094L90.0305 31.8485L92.6196 29.0094L91.3495 27.6165L96.3323 22.1524C97.2605 21.1882 99.8985 20.0096 102.341 22.581C104.588 25.0452 104.784 27.938 104.784 28.9558L103.562 27.6165L98.5795 33.0807L97.3582 31.7414V27.8844L95.9415 29.4379V33.8306L93.8897 36.0806L103.66 46.7945L99.8008 51.0265L90.0305 40.3126Z" fill="black"/>
<circle cx="144.5" cy="36" r="36" fill="#D6005E"/>
<path d="M135.772 50.9999H131.438V32.4999C131.438 26.1999 136.68 20.9999 143.031 20.9999H157.347V32.3999C157.347 38.7999 152.104 43.8999 145.753 43.8999H138.494L140.107 39.5999H145.652C149.685 39.5999 152.911 36.3999 152.911 32.3999V25.2999H142.93C138.898 25.2999 135.672 28.4999 135.672 32.4999V50.9999H135.772Z" fill="white"/>
<g clip-path="url(#clip0_20191_231526)">
<rect x="162.75" width="72.0003" height="71.9998" rx="35.9999" fill="#0E3263"/>
<path fill-rule="evenodd" clip-rule="evenodd" d="M193.441 59.5502C195.96 55.0824 197.348 46.5829 197.881 31.6977H199.717C200.251 46.6046 201.639 55.1042 204.136 59.5502C202.471 60.095 200.657 60.4001 198.799 60.4001C196.942 60.4001 195.149 60.1168 193.441 59.5502ZM198.821 30.608C207.338 30.608 214.596 36.6231 214.596 44.3817C214.596 46.8444 213.806 49.3507 212.291 51.6608C208.256 47.7815 204.691 40.6767 203.325 32.2643C203.175 32.1989 201.959 31.9156 201.019 31.8502C201.019 33.0707 202.023 51.1378 208.277 57.5451C212.91 54.385 216.005 48.9366 216.005 42.8125C216.005 34.4001 210.263 27.3607 202.556 25.6172C202.151 19.9508 202.151 17.6625 202.108 14.8511H200.742C200.742 14.8729 200.806 22.7404 200.827 25.3339C200.358 25.2685 199.888 25.2467 199.376 25.2031C199.376 20.67 199.376 12.4102 199.354 7.59375H198.223C198.202 12.4102 198.202 20.6918 198.202 25.2031C197.689 25.2249 197.22 25.2685 196.75 25.3339C196.771 22.7404 196.835 14.8947 196.835 14.8511H195.448C195.448 17.6625 195.448 19.9508 195.042 25.6172C187.336 27.3607 181.594 34.4001 181.594 42.8125C181.594 48.9584 184.646 54.385 189.321 57.5451C195.576 51.1378 196.579 33.0707 196.579 31.8502C195.64 31.9156 194.423 32.1989 194.274 32.2643C192.886 40.6767 189.343 47.7815 185.308 51.6608C183.771 49.3725 183.003 46.8444 183.003 44.3817C183.045 36.6013 190.261 30.608 198.821 30.608Z" fill="white"/>
</g>
<circle cx="253" cy="36" r="36" fill="#BB0032"/>
<path d="M256.746 27.0295L247.401 36.75L242.756 31.875L247.429 27H238.169H238.084L233.496 31.875L247.514 46.5L259.465 33.9136H266.629L273.228 27.0295H256.746Z" fill="white"/>
<path d="M249.441 46.2929L250.772 44.9042L260.004 35.2725H273.258L266.631 42.1566H262.723L258.815 46.2929H249.441Z" fill="white"/>
<defs>
<clipPath id="clip0_20191_231526">
<rect width="72.0003" height="71.9998" fill="white" transform="translate(162.75)"/>
</clipPath>
</defs>
</svg>
