<svg width="93" height="93" viewBox="0 0 93 93" fill="none" xmlns="http://www.w3.org/2000/svg">
<path d="M53.4304 2.85602H39.0861C37.3329 2.85602 35.8984 4.29045 35.8984 6.04365V65.0148C35.8984 66.768 37.3329 68.2024 39.0861 68.2024H53.4304C55.1836 68.2024 56.618 66.768 56.618 65.0148V6.04365C56.618 4.29045 55.1836 2.85602 53.4304 2.85602ZM46.2582 63.8194C42.7518 63.8194 39.883 60.9506 39.883 57.4442C39.883 53.9378 42.7518 51.0689 46.2582 51.0689C49.7646 51.0689 52.6335 53.9378 52.6335 57.4442C52.6335 60.9506 49.7646 63.8194 46.2582 63.8194Z" fill="#4563FF"/>
<path d="M32.2284 4.88984L18.5735 1.70724C16.9046 1.31826 15.2199 2.36933 14.8298 4.04295L1.70911 60.3375C1.31903 62.0111 2.36537 63.6987 4.03431 64.0877L17.6892 67.2703C19.3582 67.6593 21.0428 66.6082 21.4329 64.9346L34.5536 8.64003C34.9437 6.96641 33.8974 5.27882 32.2284 4.88984ZM11.837 61.4949C8.49909 60.7169 6.40641 57.3418 7.18656 53.9945C7.96671 50.6473 11.336 48.5452 14.6739 49.3231C18.0117 50.1011 20.1044 53.4763 19.3243 56.8235C18.5441 60.1707 15.1748 62.2729 11.837 61.4949Z" fill="#F1F3F8" stroke="#4563FF" stroke-width="1.5"/>
<path d="M75.7429 2.85608H61.3986C59.6454 2.85608 58.2109 4.29051 58.2109 6.04371V65.0149C58.2109 66.7681 59.6454 68.2025 61.3986 68.2025H75.7429C77.4961 68.2025 78.9305 66.7681 78.9305 65.0149V6.04371C78.9305 4.29051 77.4961 2.85608 75.7429 2.85608ZM68.5707 63.8195C65.0643 63.8195 62.1955 60.9506 62.1955 57.4442C62.1955 53.9378 65.0643 51.069 68.5707 51.069C72.0771 51.069 74.946 53.9378 74.946 57.4442C74.946 60.9506 72.0771 63.8195 68.5707 63.8195Z" fill="#FF0029"/>
</svg>
