<svg width="103" height="83" viewBox="0 0 103 83" fill="none" xmlns="http://www.w3.org/2000/svg">
<path d="M98.8916 0.975952H96.1473H14.4986C12.2375 0.975952 10.4004 2.8085 10.4004 5.07411V9.28168H86.2917C89.5648 9.28168 92.2179 11.9348 92.2179 15.2078C92.2179 15.2078 92.2088 57.516 92.2042 72.5867C92.2042 75.568 94.6202 77.9796 97.6015 77.9796C100.583 77.9796 102.999 75.5635 102.999 72.5822V5.06955C102.99 2.81305 101.153 0.975952 98.8916 0.975952Z" fill="#4664FF"/>
<path d="M7.06464 81.2298H96.4538L93.4953 79.6799C90.9699 78.3579 89.3835 75.7413 89.3835 72.8876V16.3156C89.3835 14.0545 87.5509 12.2174 85.2853 12.2174H82.5411H6.09822C3.83716 12.2174 2 14.05 2 16.3156V76.1652C2.00456 78.9596 4.27022 81.2298 7.06464 81.2298Z" stroke="#4664FF" stroke-width="2.05136" stroke-miterlimit="10" stroke-linecap="round" stroke-linejoin="round"/>
<path d="M36.3574 40.3489L56.6157 52.6753" stroke="#4664FF" stroke-width="2.05136" stroke-miterlimit="10" stroke-linecap="round" stroke-linejoin="round"/>
<path d="M31.6976 42.6961C34.9101 42.6961 37.5144 40.0919 37.5144 36.8794C37.5144 33.6669 34.9101 31.0626 31.6976 31.0626C28.4851 31.0626 25.8809 33.6669 25.8809 36.8794C25.8809 40.0919 28.4851 42.6961 31.6976 42.6961Z" stroke="#4664FF" stroke-width="2.05136" stroke-miterlimit="10"/>
<path d="M29.1687 42.1127L19.9648 60.0963" stroke="#4664FF" stroke-width="2.05136" stroke-miterlimit="10" stroke-linecap="round" stroke-linejoin="round"/>
<path d="M58.2734 49.4114L70.8961 30.361" stroke="#4664FF" stroke-width="2.05136" stroke-miterlimit="10" stroke-linecap="round" stroke-linejoin="round"/>
<path d="M56.8617 58.0867C60.0742 58.0867 62.6784 55.4824 62.6784 52.2699C62.6784 49.0574 60.0742 46.4532 56.8617 46.4532C53.6492 46.4532 51.0449 49.0574 51.0449 52.2699C51.0449 55.4824 53.6492 58.0867 56.8617 58.0867Z" fill="#FF0028" stroke="#FF0028" stroke-width="2.05136" stroke-miterlimit="10"/>
<path d="M19.7364 63.985C21.1841 63.985 22.3576 62.8115 22.3576 61.3638C22.3576 59.9162 21.1841 58.7426 19.7364 58.7426C18.2888 58.7426 17.1152 59.9162 17.1152 61.3638C17.1152 62.8115 18.2888 63.985 19.7364 63.985Z" fill="#4664FF" stroke="#4664FF" stroke-width="2.05136" stroke-miterlimit="10"/>
<path d="M70.8966 32.9822C72.3442 32.9822 73.5178 31.8087 73.5178 30.361C73.5178 28.9134 72.3442 27.7398 70.8966 27.7398C69.4489 27.7398 68.2754 28.9134 68.2754 30.361C68.2754 31.8087 69.4489 32.9822 70.8966 32.9822Z" fill="#4664FF" stroke="#4664FF" stroke-width="2.05136" stroke-miterlimit="10"/>
</svg>
