<svg width="256" height="248" viewBox="0 0 256 248" fill="none" xmlns="http://www.w3.org/2000/svg">
<path d="M35.8625 64.2922C44.1392 49.9565 55.8888 37.933 70.03 29.3282C84.1712 20.7234 100.25 15.8138 116.785 15.0513C133.321 14.2887 149.783 17.6977 164.656 24.9645C179.529 32.2313 192.336 43.1224 201.897 56.6355C211.458 70.1486 217.466 85.8495 219.369 102.293C221.272 118.737 219.008 135.395 212.786 150.734C206.563 166.074 196.583 179.602 183.762 190.073C170.942 200.545 155.694 207.623 139.421 210.657L126.758 142.744C131.64 141.833 136.215 139.71 140.061 136.568C143.907 133.427 146.901 129.369 148.768 124.767C150.635 120.165 151.314 115.168 150.743 110.234C150.172 105.301 148.369 100.591 145.501 96.5371C142.633 92.4832 138.791 89.2159 134.329 87.0358C129.867 84.8558 124.929 83.8331 119.968 84.0619C115.007 84.2906 110.184 85.7635 105.941 88.3449C101.699 90.9264 98.1739 94.5334 95.6909 98.8341L35.8625 64.2922Z" fill="white"/>
<path fill-rule="evenodd" clip-rule="evenodd" d="M71.3022 31.4191C58.2094 39.386 47.2187 50.3581 39.2328 63.4119L94.8761 95.5375C97.4394 91.791 100.775 88.6235 104.669 86.2541C109.262 83.4593 114.484 81.8646 119.855 81.617C125.226 81.3693 130.573 82.4765 135.404 84.8368C140.234 87.197 144.394 90.7344 147.499 95.1235C150.605 99.5125 152.556 104.612 153.174 109.953C153.792 115.294 153.057 120.705 151.036 125.687C149.015 130.669 145.773 135.063 141.609 138.464C138.079 141.347 133.982 143.439 129.596 144.609L141.372 207.772C156.34 204.586 170.344 197.873 182.214 188.178C194.717 177.966 204.45 164.774 210.518 149.814C216.585 134.855 218.793 118.61 216.938 102.575C215.082 86.5386 209.223 71.2271 199.899 58.0491C190.575 44.8712 178.086 34.2502 163.582 27.1636C149.078 20.077 133.024 16.7526 116.898 17.4962C100.772 18.2398 85.0927 23.0277 71.3022 31.4191ZM141.821 210.179C157.192 206.917 171.574 200.028 183.762 190.073C196.583 179.602 206.563 166.074 212.786 150.734C219.008 135.395 221.272 118.737 219.369 102.293C217.466 85.8495 211.458 70.1486 201.897 56.6355C192.336 43.1224 179.529 32.2313 164.656 24.9645C149.783 17.6977 133.321 14.2887 116.785 15.0513C100.25 15.8138 84.1712 20.7234 70.03 29.3282C56.5864 37.5085 45.3042 48.7786 37.1125 62.1877C36.6875 62.8835 36.2708 63.585 35.8625 64.2922L95.6909 98.8341C98.1739 94.5334 101.699 90.9264 105.941 88.3449C110.184 85.7635 115.007 84.2906 119.968 84.0619C124.929 83.8331 129.867 84.8558 134.329 87.0358C138.791 89.2159 142.633 92.4832 145.501 96.5371C148.369 100.591 150.172 105.301 150.743 110.234C151.314 115.168 150.635 120.165 148.768 124.767C146.901 129.369 143.907 133.427 140.061 136.568C136.217 139.708 131.646 141.831 126.768 142.742C126.765 142.743 126.761 142.743 126.758 142.744L139.421 210.657C140.223 210.508 141.024 210.348 141.821 210.179Z" fill="#4563FF"/>
<path d="M86.5161 205.984C71.9427 200.491 58.8764 191.626 48.3854 180.115C37.8945 168.604 30.2769 154.773 26.1554 139.754C22.0339 124.734 21.5255 108.953 24.6718 93.6995C27.8181 78.4461 34.5298 64.1538 44.2581 51.9914L98.2073 95.1432C95.2888 98.7919 93.2753 103.08 92.3314 107.656C91.3875 112.232 91.54 116.966 92.7765 121.472C94.0129 125.978 96.2982 130.127 99.4455 133.58C102.593 137.034 106.513 139.693 110.885 141.341L86.5161 205.984Z" fill="#FF0029"/>
<path d="M204.141 59.9503C218.379 81.9132 223.31 108.633 217.848 134.231C212.386 159.83 196.979 182.21 175.016 196.448C153.053 210.687 126.333 215.618 100.735 210.156C75.1367 204.694 52.7566 189.286 38.518 167.323L96.486 129.743C100.758 136.332 107.472 140.954 115.151 142.592C122.831 144.231 130.846 142.752 137.435 138.48C144.024 134.209 148.646 127.495 150.285 119.815C151.924 112.136 150.444 104.12 146.173 97.5309L204.141 59.9503Z" fill="#4563FF"/>
<path fill-rule="evenodd" clip-rule="evenodd" d="M204.141 59.9503C204.252 60.1215 204.362 60.293 204.472 60.4647C218.456 82.3297 223.267 108.832 217.848 134.231C212.386 159.83 196.979 182.21 175.016 196.448C153.053 210.687 126.333 215.618 100.735 210.156C75.3362 204.736 53.1056 189.526 38.8524 167.836C38.7404 167.665 38.629 167.495 38.518 167.323L96.486 129.743C96.4875 129.745 96.489 129.748 96.4906 129.75C100.762 136.335 107.474 140.954 115.151 142.592C122.831 144.231 130.846 142.752 137.435 138.48C144.024 134.209 148.646 127.495 150.285 119.815C151.923 112.138 150.445 104.124 146.176 97.5357C146.175 97.5341 146.174 97.5325 146.173 97.5309L204.141 59.9503ZM147.014 97.7148L203.959 60.7976C217.854 82.5264 222.635 108.863 217.25 134.104C211.822 159.543 196.51 181.785 174.683 195.935C152.856 210.085 126.302 214.985 100.863 209.557C75.6226 204.172 53.5308 189.057 39.3659 167.503L96.3106 130.586C100.682 137.039 107.385 141.561 115.023 143.191C122.862 144.863 131.043 143.354 137.768 138.994C144.493 134.634 149.211 127.781 150.883 119.943C152.513 112.304 151.121 104.34 147.014 97.7148Z" fill="#4563FF"/>
<path d="M228.851 247.146H156.698C146.56 247.146 138.342 238.928 138.342 228.79V159.647V148.455V124.588C138.342 114.45 146.56 106.231 156.698 106.231H228.851C238.989 106.231 247.208 114.45 247.208 124.588V148.455V159.647V228.79C247.208 238.928 238.989 247.146 228.851 247.146Z" fill="white"/>
<path fill-rule="evenodd" clip-rule="evenodd" d="M152.38 118.743H234.187V138.996H152.38V118.743ZM244.76 149.679H140.789V228.79C140.789 237.576 147.912 244.699 156.698 244.699H228.851C237.637 244.699 244.76 237.576 244.76 228.79V149.679ZM244.76 147.231H140.789V124.588C140.789 115.801 147.912 108.679 156.698 108.679H228.851C237.637 108.679 244.76 115.802 244.76 124.588V147.231ZM247.208 124.588C247.208 114.45 238.989 106.231 228.851 106.231H156.698C146.56 106.231 138.342 114.45 138.342 124.588V228.79C138.342 238.928 146.56 247.146 156.698 247.146H228.851C238.989 247.146 247.208 238.928 247.208 228.79V124.588ZM154.827 121.19H231.74V136.548H154.827V121.19Z" fill="#4563FF"/>
<path d="M173.952 168.295C173.952 174.195 169.169 178.978 163.269 178.978C157.369 178.978 152.586 174.195 152.586 168.295C152.586 162.395 157.369 157.612 163.269 157.612C169.169 157.612 173.952 162.395 173.952 168.295Z" fill="#4563FF"/>
<path fill-rule="evenodd" clip-rule="evenodd" d="M163.269 176.531C167.817 176.531 171.505 172.843 171.505 168.295C171.505 163.747 167.817 160.059 163.269 160.059C158.721 160.059 155.033 163.747 155.033 168.295C155.033 172.843 158.721 176.531 163.269 176.531ZM163.269 178.978C169.169 178.978 173.952 174.195 173.952 168.295C173.952 162.395 169.169 157.612 163.269 157.612C157.369 157.612 152.586 162.395 152.586 168.295C152.586 174.195 157.369 178.978 163.269 178.978Z" fill="#4563FF"/>
<path d="M203.46 168.295C203.46 174.195 198.677 178.978 192.777 178.978C186.877 178.978 182.094 174.195 182.094 168.295C182.094 162.395 186.877 157.612 192.777 157.612C198.677 157.612 203.46 162.395 203.46 168.295Z" fill="#4563FF"/>
<path fill-rule="evenodd" clip-rule="evenodd" d="M192.777 176.531C197.325 176.531 201.012 172.843 201.012 168.295C201.012 163.747 197.325 160.059 192.777 160.059C188.228 160.059 184.541 163.747 184.541 168.295C184.541 172.843 188.228 176.531 192.777 176.531ZM192.777 178.978C198.677 178.978 203.46 174.195 203.46 168.295C203.46 162.395 198.677 157.612 192.777 157.612C186.877 157.612 182.094 162.395 182.094 168.295C182.094 174.195 186.877 178.978 192.777 178.978Z" fill="#4563FF"/>
<path d="M232.964 168.295C232.964 174.195 228.181 178.978 222.281 178.978C216.381 178.978 211.598 174.195 211.598 168.295C211.598 162.395 216.381 157.612 222.281 157.612C228.181 157.612 232.964 162.395 232.964 168.295Z" fill="#4563FF"/>
<path fill-rule="evenodd" clip-rule="evenodd" d="M222.281 176.531C226.829 176.531 230.516 172.843 230.516 168.295C230.516 163.747 226.829 160.059 222.281 160.059C217.732 160.059 214.045 163.747 214.045 168.295C214.045 172.843 217.732 176.531 222.281 176.531ZM222.281 178.978C228.181 178.978 232.964 174.195 232.964 168.295C232.964 162.395 228.181 157.612 222.281 157.612C216.381 157.612 211.598 162.395 211.598 168.295C211.598 174.195 216.381 178.978 222.281 178.978Z" fill="#4563FF"/>
<path d="M173.952 221.202C173.952 227.102 169.169 231.885 163.269 231.885C157.369 231.885 152.586 227.102 152.586 221.202C152.586 215.302 157.369 210.519 163.269 210.519C169.169 210.519 173.952 215.302 173.952 221.202Z" fill="#4563FF"/>
<path fill-rule="evenodd" clip-rule="evenodd" d="M163.269 229.437C167.817 229.437 171.505 225.75 171.505 221.202C171.505 216.653 167.817 212.966 163.269 212.966C158.721 212.966 155.033 216.653 155.033 221.202C155.033 225.75 158.721 229.437 163.269 229.437ZM163.269 231.885C169.169 231.885 173.952 227.102 173.952 221.202C173.952 215.302 169.169 210.519 163.269 210.519C157.369 210.519 152.586 215.302 152.586 221.202C152.586 227.102 157.369 231.885 163.269 231.885Z" fill="#4563FF"/>
<path d="M203.46 221.202C203.46 227.102 198.677 231.885 192.777 231.885C186.877 231.885 182.094 227.102 182.094 221.202C182.094 215.302 186.877 210.519 192.777 210.519C198.677 210.519 203.46 215.302 203.46 221.202Z" fill="#4563FF"/>
<path fill-rule="evenodd" clip-rule="evenodd" d="M192.777 229.437C197.325 229.437 201.012 225.75 201.012 221.202C201.012 216.653 197.325 212.966 192.777 212.966C188.228 212.966 184.541 216.653 184.541 221.202C184.541 225.75 188.228 229.437 192.777 229.437ZM192.777 231.885C198.677 231.885 203.46 227.102 203.46 221.202C203.46 215.302 198.677 210.519 192.777 210.519C186.877 210.519 182.094 215.302 182.094 221.202C182.094 227.102 186.877 231.885 192.777 231.885Z" fill="#4563FF"/>
<path d="M232.964 221.202C232.964 227.102 228.181 231.885 222.281 231.885C216.381 231.885 211.598 227.102 211.598 221.202C211.598 215.302 216.381 210.519 222.281 210.519C228.181 210.519 232.964 215.302 232.964 221.202Z" fill="#4563FF"/>
<path fill-rule="evenodd" clip-rule="evenodd" d="M222.281 229.437C226.829 229.437 230.516 225.75 230.516 221.202C230.516 216.653 226.829 212.966 222.281 212.966C217.732 212.966 214.045 216.653 214.045 221.202C214.045 225.75 217.732 229.437 222.281 229.437ZM222.281 231.885C228.181 231.885 232.964 227.102 232.964 221.202C232.964 215.302 228.181 210.519 222.281 210.519C216.381 210.519 211.598 215.302 211.598 221.202C211.598 227.102 216.381 231.885 222.281 231.885Z" fill="#4563FF"/>
<path d="M173.952 194.748C173.952 200.648 169.169 205.431 163.269 205.431C157.369 205.431 152.586 200.648 152.586 194.748C152.586 188.848 157.369 184.065 163.269 184.065C169.169 184.065 173.952 188.848 173.952 194.748Z" fill="#4563FF"/>
<path fill-rule="evenodd" clip-rule="evenodd" d="M163.269 202.984C167.817 202.984 171.505 199.297 171.505 194.748C171.505 190.2 167.817 186.513 163.269 186.513C158.721 186.513 155.033 190.2 155.033 194.748C155.033 199.297 158.721 202.984 163.269 202.984ZM163.269 205.431C169.169 205.431 173.952 200.648 173.952 194.748C173.952 188.848 169.169 184.065 163.269 184.065C157.369 184.065 152.586 188.848 152.586 194.748C152.586 200.648 157.369 205.431 163.269 205.431Z" fill="#4563FF"/>
<path d="M203.46 194.748C203.46 200.648 198.677 205.431 192.777 205.431C186.877 205.431 182.094 200.648 182.094 194.748C182.094 188.848 186.877 184.065 192.777 184.065C198.677 184.065 203.46 188.848 203.46 194.748Z" fill="#4563FF"/>
<path fill-rule="evenodd" clip-rule="evenodd" d="M192.777 202.984C197.325 202.984 201.012 199.297 201.012 194.748C201.012 190.2 197.325 186.513 192.777 186.513C188.228 186.513 184.541 190.2 184.541 194.748C184.541 199.297 188.228 202.984 192.777 202.984ZM192.777 205.431C198.677 205.431 203.46 200.648 203.46 194.748C203.46 188.848 198.677 184.065 192.777 184.065C186.877 184.065 182.094 188.848 182.094 194.748C182.094 200.648 186.877 205.431 192.777 205.431Z" fill="#4563FF"/>
<path d="M232.964 194.748C232.964 200.648 228.181 205.431 222.281 205.431C216.381 205.431 211.598 200.648 211.598 194.748C211.598 188.848 216.381 184.065 222.281 184.065C228.181 184.065 232.964 188.848 232.964 194.748Z" fill="#4563FF"/>
<path fill-rule="evenodd" clip-rule="evenodd" d="M222.281 202.984C226.829 202.984 230.516 199.297 230.516 194.748C230.516 190.2 226.829 186.513 222.281 186.513C217.732 186.513 214.045 190.2 214.045 194.748C214.045 199.297 217.732 202.984 222.281 202.984ZM222.281 205.431C228.181 205.431 232.964 200.648 232.964 194.748C232.964 188.848 228.181 184.065 222.281 184.065C216.381 184.065 211.598 188.848 211.598 194.748C211.598 200.648 216.381 205.431 222.281 205.431Z" fill="#4563FF"/>
</svg>
