<svg width="103" height="92" viewBox="0 0 103 92" fill="none" xmlns="http://www.w3.org/2000/svg">
<path d="M96.536 65.3325H19.5851C16.5799 65.3325 14.1211 62.8737 14.1211 59.8685V17.2496C14.1211 14.2444 16.5799 11.7856 19.5851 11.7856H96.536C99.5412 11.7856 102 14.2444 102 17.2496V59.7775C102 62.8737 99.5412 65.3325 96.536 65.3325Z" fill="#4563FF"/>
<path d="M91.9794 69.8962H15.0284C12.0232 69.8962 9.56445 67.4374 9.56445 64.4322V21.8132C9.56445 18.808 12.0232 16.3492 15.0284 16.3492H91.9794C94.9845 16.3492 97.4433 18.808 97.4433 21.8132V64.3411C97.4433 67.4374 94.9845 69.8962 91.9794 69.8962Z" fill="#F1F3F8"/>
<path d="M64.2028 27.8237C66.7526 27.8237 68.7561 29.8272 68.7561 32.377C68.7561 34.9269 66.7526 36.9303 64.2028 36.9303C61.6529 36.9303 59.6494 34.9269 59.6494 32.377C59.6494 29.8272 61.744 27.8237 64.2028 27.8237ZM64.2028 26.0024C60.6512 26.0024 57.8281 28.8254 57.8281 32.377C57.8281 35.9286 60.6512 38.7516 64.2028 38.7516C67.7543 38.7516 70.5774 35.9286 70.5774 32.377C70.5774 28.8254 67.7543 26.0024 64.2028 26.0024Z" fill="#4563FF"/>
<path d="M81.5055 38.7516C85.0261 38.7516 87.8801 35.8976 87.8801 32.377C87.8801 28.8564 85.0261 26.0024 81.5055 26.0024C77.9849 26.0024 75.1309 28.8564 75.1309 32.377C75.1309 35.8976 77.9849 38.7516 81.5055 38.7516Z" fill="#FF0029"/>
<mask id="mask0_20141_242489" style="mask-type:alpha" maskUnits="userSpaceOnUse" x="0" y="53" width="29" height="29">
<rect x="28.2695" y="81.3586" width="28.2422" height="28.2422" transform="rotate(-180 28.2695 81.3586)" fill="#D9D9D9"/>
</mask>
<g mask="url(#mask0_20141_242489)">
<circle cx="14.1201" cy="67.0932" r="10.5908" fill="white"/>
<path d="M14.1489 61.6479C13.8939 61.6479 13.6829 61.731 13.5158 61.8973C13.3495 62.0644 13.2663 62.2755 13.2663 62.5304L13.2663 67.5611C13.2663 67.7964 13.3495 67.9977 13.5158 68.1648C13.6829 68.3311 13.8939 68.4142 14.1489 68.4142C14.4039 68.4142 14.6145 68.3311 14.7808 68.1648C14.9479 67.9977 15.0315 67.7866 15.0315 67.5317L15.0315 62.501C15.0315 62.2657 14.9479 62.0644 14.7808 61.8973C14.6145 61.731 14.4039 61.6479 14.1489 61.6479ZM14.1489 70.4147C13.8743 70.4147 13.6488 70.5081 13.4723 70.6948C13.2958 70.8807 13.2075 71.111 13.2075 71.3855C13.2075 71.6405 13.2958 71.8613 13.4723 72.0481C13.6488 72.234 13.8743 72.327 14.1489 72.327C14.4235 72.327 14.649 72.234 14.8255 72.0481C15.0021 71.8613 15.0903 71.6405 15.0903 71.3855C15.0903 71.111 15.0021 70.8807 14.8255 70.6948C14.649 70.5081 14.4235 70.4147 14.1489 70.4147ZM14.1489 56.0582C15.6983 56.0582 17.1543 56.3524 18.517 56.9408C19.8805 57.5292 21.0624 58.3235 22.0626 59.3237C23.0629 60.324 23.8572 61.5059 24.4456 62.8693C25.0339 64.232 25.3281 65.6881 25.3281 67.2375C25.3281 68.7869 25.0339 70.2433 24.4456 71.6068C23.8572 72.9695 23.0629 74.1509 22.0626 75.1512C21.0624 76.1514 19.8805 76.9457 18.517 77.5341C17.1543 78.1225 15.6983 78.4167 14.1489 78.4167C12.5995 78.4167 11.1431 78.1225 9.77959 77.5341C8.4169 76.9457 7.23544 76.1514 6.23519 75.1512C5.23494 74.1509 4.44063 72.9695 3.85225 71.6068C3.26387 70.2433 2.96968 68.7869 2.96968 67.2375C2.96968 65.6881 3.26387 64.232 3.85225 62.8693C4.44063 61.5059 5.23494 60.324 6.23519 59.3237C7.23544 58.3235 8.4169 57.5292 9.77959 56.9408C11.1431 56.3524 12.5995 56.0582 14.1489 56.0582ZM14.1489 57.8234C11.5404 57.8234 9.31909 58.7401 7.48491 60.5735C5.65152 62.4076 4.73482 64.629 4.73482 67.2375C4.73482 69.8459 5.65152 72.0673 7.48491 73.9015C9.31909 75.7348 11.5404 76.6515 14.1489 76.6515C16.7574 76.6515 18.9783 75.7348 20.8117 73.9015C22.6459 72.0673 23.563 69.8459 23.563 67.2375C23.563 64.629 22.6459 62.4076 20.8117 60.5735C18.9783 58.7401 16.7574 57.8234 14.1489 57.8234Z" fill="#4563FF"/>
</g>
</svg>
