<svg width="103" height="92" viewBox="0 0 103 92" fill="none" xmlns="http://www.w3.org/2000/svg">
<path d="M95.0354 65.5037H29.6432C27.0895 65.5037 25 63.4142 25 60.8604V24.6432C25 22.0895 27.0895 20 29.6432 20H95.0354C97.5892 20 99.6787 22.0895 99.6787 24.6432V60.7831C99.6787 63.4142 97.5892 65.5037 95.0354 65.5037Z" fill="#4563FF"/>
<path d="M91.1624 69.3819H25.7702C23.2164 69.3819 21.127 67.2924 21.127 64.7386V28.5214C21.127 25.9676 23.2164 23.8782 25.7702 23.8782H91.1624C93.7162 23.8782 95.8056 25.9676 95.8056 28.5214V64.6612C95.8056 67.2924 93.7162 69.3819 91.1624 69.3819Z" fill="#F1F3F8"/>
<path d="M67.5597 33.629C69.7265 33.629 71.429 35.3316 71.429 37.4984C71.429 39.6652 69.7265 41.3678 67.5597 41.3678C65.3928 41.3678 63.6903 39.6652 63.6903 37.4984C63.6903 35.3316 65.4702 33.629 67.5597 33.629ZM67.5597 32.0813C64.5416 32.0813 62.1426 34.4803 62.1426 37.4984C62.1426 40.5165 64.5416 42.9155 67.5597 42.9155C70.5778 42.9155 72.9768 40.5165 72.9768 37.4984C72.9768 34.4803 70.5778 32.0813 67.5597 32.0813Z" fill="#4563FF"/>
<path d="M82.2628 42.9155C85.2546 42.9155 87.6799 40.4902 87.6799 37.4984C87.6799 34.5066 85.2546 32.0813 82.2628 32.0813C79.271 32.0813 76.8457 34.5066 76.8457 37.4984C76.8457 40.4902 79.271 42.9155 82.2628 42.9155Z" fill="#FF0029"/>
<path d="M24.9974 83.0794C20.6637 83.0794 16.5622 81.3769 13.5441 78.2814C13.2346 77.9719 13.2346 77.5075 13.5441 77.198C13.8537 76.8884 14.318 76.8884 14.6275 77.198C17.4134 79.9839 21.128 81.5317 24.9974 81.5317C33.1231 81.5317 39.701 74.9538 39.701 66.8281C39.701 58.7024 33.1231 52.1245 24.9974 52.1245C16.8717 52.1245 10.2938 58.7024 10.2938 66.8281V69.1497C10.2938 69.614 9.98429 69.9236 9.51997 69.9236C9.05564 69.9236 8.74609 69.614 8.74609 69.1497V66.8281C8.74609 57.8512 16.0205 50.5768 24.9974 50.5768C33.9743 50.5768 41.2487 57.8512 41.2487 66.8281C41.2487 75.805 33.8969 83.0794 24.9974 83.0794Z" fill="#4563FF"/>
<path d="M9.51955 71.007L2.78685 64.2743C2.4773 63.9648 2.4773 63.5005 2.78685 63.1909C3.0964 62.8814 3.56072 62.8814 3.87027 63.1909L9.51955 68.8402L15.1688 63.1909C15.4784 62.8814 15.9427 62.8814 16.2522 63.1909C16.5618 63.5005 16.5618 63.9648 16.2522 64.2743L9.51955 71.007Z" fill="#4563FF"/>
</svg>
