<svg width="20" height="20" viewBox="0 0 20 20" fill="none" xmlns="http://www.w3.org/2000/svg">
<mask id="mask0_20103_231889" style="mask-type:alpha" maskUnits="userSpaceOnUse" x="0" y="0" width="20" height="20">
<rect width="20" height="20" fill="#D9D9D9"/>
</mask>
<g mask="url(#mask0_20103_231889)">
</g>
<mask id="mask1_20103_231889" style="mask-type:alpha" maskUnits="userSpaceOnUse" x="0" y="0" width="21" height="21">
<rect x="0.429688" y="0.00708008" width="20" height="20" fill="#D9D9D9"/>
</mask>
<g mask="url(#mask1_20103_231889)">
<path d="M6.20119 12.0491C6.06185 11.9237 5.99219 11.7707 5.99219 11.5901C5.99219 11.4094 6.06185 11.2497 6.20119 11.1111L9.86819 7.46507C9.95085 7.36773 10.0409 7.2984 10.1382 7.25707C10.2355 7.21573 10.3329 7.19507 10.4302 7.19507C10.5275 7.19507 10.6249 7.21573 10.7222 7.25707C10.8195 7.2984 10.9095 7.36773 10.9922 7.46507L14.6802 11.1321C14.8055 11.2707 14.8715 11.4234 14.8782 11.5901C14.8849 11.7567 14.8189 11.9097 14.6802 12.0491C14.5415 12.1877 14.3852 12.2571 14.2112 12.2571C14.0379 12.2571 13.8815 12.1877 13.7422 12.0491L10.4302 8.77807L7.11819 12.0691C6.99285 12.2084 6.84352 12.2781 6.67019 12.2781C6.49619 12.2781 6.33985 12.2017 6.20119 12.0491Z" fill="#4563FF"/>
</g>
</svg>
