<svg width="40" height="40" viewBox="0 0 40 40" fill="none" xmlns="http://www.w3.org/2000/svg">
<path d="M19.9972 0C31.0462 0 40 8.955 40 19.9995C40 31.0445 31.0462 40 19.9972 40C8.9538 40 0 31.045 0 19.9995C0 8.955 8.9538 0 19.9972 0ZM19.9972 1.545C9.80464 1.545 1.54539 9.8065 1.54539 19.9995C1.54539 30.1925 9.80414 38.4545 19.9972 38.4545C30.1924 38.4545 38.4531 30.1925 38.4531 19.9995C38.4531 9.8065 30.1924 1.545 19.9972 1.545ZM21.273 5.6305C21.273 5.6305 21.7324 6.469 23.8795 6.0865C25.6545 5.769 26.6367 6.2315 26.6367 6.826C26.6367 6.826 27.8995 6.977 28.4627 7.3425C29.0269 7.7075 28.4287 8.621 28.4287 8.621C28.3424 8.453 28.2225 8.354 27.881 8.2795C27.881 8.2795 26.5164 7.928 26.041 8.817C25.0039 8.906 24.1076 9.527 23.6857 10.372C23.6633 10.422 23.2682 11.2035 23.5135 12.781C23.6423 13.6095 24.0513 14.312 24.633 14.911C24.8865 15.173 25.2027 15.341 25.5867 15.297C26.1933 15.227 26.6971 14.936 27.1305 14.507C27.3678 14.2715 27.4406 14.003 27.2589 13.694C27.2349 13.653 27.221 13.6065 27.2039 13.56C26.6676 12.262 27.116 11.113 28.0278 10.433C28.6984 9.9345 29.4714 9.8755 30.2573 9.987C35.4402 10.718 35.6139 15.9605 35.6139 17.5775V18.054C35.6189 22.376 35.6844 25.419 35.7173 26.022C35.7692 26.9705 36.0993 27.1695 36.3101 27.319C35.9795 27.5475 33.2817 26.698 32.6341 25.8925C32.5901 25.839 32.5012 25.816 32.4333 25.7975C30.8259 25.424 30.8235 23.743 30.792 23.2335C29.4474 23.2335 28.9265 21.7645 28.7842 21.3825C28.6619 21.0395 28.5805 20.6831 28.5416 20.321C28.5416 21.0365 27.4846 21.6505 26.3472 20.51C26.3472 21.683 24.9515 21.475 24.2575 20.781C24.1965 21.018 23.8115 21.622 23.8115 21.622C24.6085 21.7675 24.967 21.9425 25.344 22.2725C26.2273 23.049 26.3276 24.3445 26.3276 25.013C26.3276 25.013 27.544 26.2015 28.0253 26.6415C28.1676 26.7745 28.3244 26.89 28.4807 27.0085C29.7285 25.6115 30.1434 26.1565 30.1419 26.1605C31.0647 25.788 31.5755 26.447 31.3737 26.783C31.1576 26.5385 30.8096 26.6105 30.5988 26.8C31.8451 27.01 31.5545 27.9245 31.2179 28.1165C31.2179 27.854 31.1366 27.5615 30.7441 27.535C30.7641 27.9385 30.492 28.009 30.2333 28.019C29.6152 28.046 28.584 28.074 28.269 28.3815C28.0887 28.5565 28.1761 29.0705 27.9829 29.2455C27.8863 29.3311 27.7608 29.3769 27.6319 29.3735H27.561C27.531 29.563 27.5874 29.776 27.8276 30.027C26.9298 30.1005 26.2582 29.3105 26.7027 28.8885C26.8888 28.712 27.5155 28.118 27.548 27.8585C27.5888 27.583 27.2983 27.2735 27.0966 27.0945C26.6647 26.7095 26.1988 26.365 25.7405 26.008C25.5994 25.9016 25.4503 25.8064 25.2945 25.723C25.2253 25.685 25.1492 25.661 25.0708 25.6525C24.9922 25.644 24.9128 25.6511 24.8372 25.6735C24.4926 25.781 24.4976 25.7725 24.4082 25.7135C24.0697 25.49 23.4571 24.988 22.1828 24.8465C22.2676 24.9005 22.327 24.9565 22.3765 25.023C22.4439 25.119 22.4933 25.233 22.5652 25.3885C22.6486 25.565 22.712 25.7455 22.7869 25.922C23.6108 27.872 24.4267 29.787 25.2481 31.7375C25.5202 32.3825 25.2776 32.947 24.613 33.2575C24.1286 33.483 23.5773 33.362 23.2528 32.8935C23.3457 33.215 23.3896 33.4935 23.2578 33.761C23.128 34.0295 22.9183 34.221 22.6431 34.3385C22.3705 34.4588 22.068 34.4936 21.7753 34.4385C21.4802 34.3795 21.284 34.1845 21.1332 33.8985C21.1078 34.5345 20.6888 35 19.9972 35C19.3057 35 18.8868 34.5345 18.8613 33.898C18.7101 34.1845 18.5143 34.3795 18.2192 34.4385C17.9264 34.4936 17.6239 34.4588 17.3514 34.3385C17.0818 34.2293 16.8624 34.0234 16.7362 33.761C16.6048 33.493 16.6484 33.216 16.7412 32.8935C16.4166 33.362 15.8653 33.4835 15.3816 33.2575C14.7165 32.947 14.4738 32.3825 14.7464 31.7375C15.5678 29.7875 16.3832 27.8725 17.2075 25.9225C17.2824 25.7455 17.3453 25.565 17.4287 25.3885C17.5006 25.232 17.5486 25.1175 17.6165 25.0235C17.6659 24.957 17.7253 24.9005 17.8113 24.8465C16.537 24.9865 15.9233 25.49 15.5858 25.713C15.4968 25.7725 15.5008 25.781 15.1568 25.6735C15.0812 25.6511 15.0018 25.644 14.9234 25.6526C14.845 25.6613 14.7691 25.6853 14.7 25.7235C14.5436 25.8061 14.3943 25.9014 14.2536 26.0085C13.7952 26.365 13.3298 26.711 12.8979 27.0945C12.6958 27.274 12.4051 27.583 12.4461 27.858C12.477 28.1165 13.1051 28.712 13.2914 28.888C13.7358 29.3105 13.0642 30.102 12.1669 30.027C12.4065 29.776 12.4616 29.563 12.4321 29.374C12.3432 29.3725 12.1724 29.389 12.0116 29.2455C11.8169 29.0705 11.9043 28.5565 11.725 28.3815C11.409 28.074 10.3774 28.046 9.7607 28.019C9.50256 28.009 9.23042 27.939 9.2499 27.535C8.85644 27.56 8.77554 27.8525 8.77554 28.1165C8.4385 27.9245 8.14939 27.0085 9.3952 26.8C9.18549 26.6105 8.83496 26.5385 8.62075 26.783C8.41903 26.447 8.92983 25.788 9.85257 26.1605C9.84958 26.1565 10.266 25.613 11.5133 27.0085C11.6701 26.89 11.8269 26.7745 11.9692 26.6415C12.4185 26.232 13.5081 25.1685 13.6514 25.0285L13.6664 25.0135C13.6664 24.3455 13.7668 23.0505 14.6491 22.2725C15.027 21.9425 15.3856 21.7675 16.1829 21.6225C16.1829 21.6225 15.7975 21.018 15.7371 20.781C15.043 21.477 13.6469 21.683 13.6469 20.51C12.5095 21.649 11.4529 21.0365 11.4529 20.321C11.414 20.6831 11.3326 21.0395 11.2102 21.3825C11.0674 21.7645 10.5466 23.2335 9.20196 23.2335C9.17101 23.7435 9.16801 25.4225 7.5607 25.798C7.49328 25.815 7.40441 25.839 7.36047 25.8925C6.71136 26.6995 4.01503 27.5475 3.68298 27.319C3.8932 27.168 4.22375 26.9705 4.27567 26.022C4.30962 25.397 4.37853 22.1515 4.37853 17.5775V17.519C4.38353 15.838 4.61472 10.709 9.73674 9.987C10.5227 9.8755 11.2961 9.9345 11.9662 10.433C12.8779 11.113 13.3268 12.262 12.7901 13.56C12.7736 13.6065 12.7596 13.653 12.7352 13.694C12.5535 14.003 12.6268 14.2715 12.864 14.507C13.2968 14.936 13.8007 15.227 14.4079 15.297C14.7914 15.341 15.1074 15.173 15.3616 14.9105C15.9428 14.312 16.3382 13.608 16.4805 12.781C16.7502 11.2105 16.3308 10.4215 16.3082 10.372C15.8863 9.527 14.9901 8.906 13.9535 8.817C13.4777 7.928 12.113 8.2795 12.113 8.2795C11.7715 8.3545 11.6516 8.453 11.5637 8.621C11.5637 8.621 10.9671 7.708 11.5303 7.3425C12.0945 6.977 13.3578 6.826 13.3578 6.826C13.3578 6.232 14.34 5.769 16.1141 6.086C18.2601 6.469 18.7215 5.631 18.7215 5.631C18.8104 6.658 18.0259 7.187 17.7748 7.331C18.5887 8.2145 19.7261 9.98 19.9967 12.4845C20.2679 9.9795 21.4053 8.2145 22.2198 7.331C21.967 7.187 21.1841 6.6575 21.273 5.6305Z" fill="#7B7794"/>
</svg>
