<svg width="40" height="40" viewBox="0 0 40 40" fill="none" xmlns="http://www.w3.org/2000/svg">
<g id="licenzia">
<g id="Group 61245953">
<g id="Subtract">
<path fill-rule="evenodd" clip-rule="evenodd" d="M13.5699 12.93C13.5699 9.65541 16.2143 7 19.4812 7C22.7481 7 25.3922 9.6554 25.3955 12.9295V13.4048C25.3955 13.5498 25.3707 13.6889 25.325 13.8183H25.7167C26.4023 13.8183 26.9582 14.3741 26.9582 15.0598V23.4251C26.9582 24.1107 26.4023 24.6666 25.7167 24.6666H13.2415C12.5558 24.6666 12 24.1107 12 23.4251V15.0598C12 14.3741 12.5558 13.8183 13.2415 13.8183H13.6405C13.5948 13.6889 13.5699 13.5498 13.5699 13.4048V12.93ZM24.5679 13.4048C24.5679 13.6279 24.3913 13.8098 24.1702 13.8183H14.7952C14.5742 13.8098 14.3976 13.6279 14.3976 13.4048V12.93C14.3976 10.1099 16.6741 7.82766 19.4812 7.82766C22.2882 7.82766 24.565 10.1099 24.5679 12.9304V13.4048ZM19.4807 15.9174C18.3685 15.9174 17.4702 16.8207 17.4702 17.9333C17.4702 18.5118 17.7147 19.0348 18.1051 19.402C18.3104 19.5951 18.4057 19.7692 18.4057 19.9146V20.9727C18.4057 21.5681 18.8884 22.0507 19.4837 22.0507C20.0791 22.0507 20.5617 21.5681 20.5617 20.9727V19.9122C20.5617 19.7674 20.6563 19.5938 20.8602 19.4009C21.2473 19.0346 21.4912 18.5132 21.4912 17.9333C21.4912 16.8207 20.5929 15.9174 19.4807 15.9174Z" fill="#7B7794"/>
<path d="M25.3955 12.9295H25.5455V12.9294L25.3955 12.9295ZM25.325 13.8183L25.1835 13.7683L25.1129 13.9683H25.325V13.8183ZM13.6405 13.8183V13.9683H13.8525L13.7819 13.7683L13.6405 13.8183ZM24.1702 13.8183V13.9684L24.176 13.9682L24.1702 13.8183ZM14.7952 13.8183L14.7895 13.9683H14.7952V13.8183ZM24.5679 12.9304H24.7179V12.9302L24.5679 12.9304ZM18.1051 19.402L18.0023 19.5112L18.1051 19.402ZM20.8602 19.4009L20.7571 19.2919L20.8602 19.4009ZM19.4812 6.85C16.131 6.85 13.4199 9.57306 13.4199 12.93H13.7199C13.7199 9.73776 16.2976 7.15 19.4812 7.15V6.85ZM25.5455 12.9294C25.5421 9.57304 22.8315 6.85 19.4812 6.85V7.15C22.6648 7.15 25.2423 9.73775 25.2455 12.9297L25.5455 12.9294ZM25.5455 13.4048V12.9295H25.2455V13.4048H25.5455ZM25.4664 13.8682C25.5177 13.7231 25.5455 13.567 25.5455 13.4048H25.2455C25.2455 13.5325 25.2236 13.6548 25.1835 13.7683L25.4664 13.8682ZM25.7167 13.6683H25.325V13.9683H25.7167V13.6683ZM27.1082 15.0598C27.1082 14.2913 26.4852 13.6683 25.7167 13.6683V13.9683C26.3195 13.9683 26.8082 14.457 26.8082 15.0598H27.1082ZM27.1082 23.4251V15.0598H26.8082V23.4251H27.1082ZM25.7167 24.8166C26.4852 24.8166 27.1082 24.1936 27.1082 23.4251H26.8082C26.8082 24.0279 26.3195 24.5166 25.7167 24.5166V24.8166ZM13.2415 24.8166H25.7167V24.5166H13.2415V24.8166ZM11.85 23.4251C11.85 24.1936 12.473 24.8166 13.2415 24.8166V24.5166C12.6387 24.5166 12.15 24.0279 12.15 23.4251H11.85ZM11.85 15.0598V23.4251H12.15V15.0598H11.85ZM13.2415 13.6683C12.473 13.6683 11.85 14.2913 11.85 15.0598H12.15C12.15 14.457 12.6387 13.9683 13.2415 13.9683V13.6683ZM13.6405 13.6683H13.2415V13.9683H13.6405V13.6683ZM13.4199 13.4048C13.4199 13.567 13.4478 13.7231 13.499 13.8682L13.7819 13.7683C13.7418 13.6548 13.7199 13.5325 13.7199 13.4048H13.4199ZM13.4199 12.93V13.4048H13.7199V12.93H13.4199ZM24.176 13.9682C24.4773 13.9566 24.7179 13.7088 24.7179 13.4048H24.4179C24.4179 13.547 24.3053 13.663 24.1645 13.6684L24.176 13.9682ZM14.7952 13.9683H24.1702V13.6683H14.7952V13.9683ZM14.2476 13.4048C14.2476 13.7088 14.4882 13.9566 14.7895 13.9682L14.801 13.6684C14.6602 13.663 14.5476 13.547 14.5476 13.4048H14.2476ZM14.2476 12.93V13.4048H14.5476V12.93H14.2476ZM19.4812 7.67766C16.5907 7.67766 14.2476 10.0275 14.2476 12.93H14.5476C14.5476 10.1922 16.7574 7.97766 19.4812 7.97766V7.67766ZM24.7179 12.9302C24.7149 10.0275 22.3716 7.67766 19.4812 7.67766V7.97766C22.2049 7.97766 24.4151 10.1922 24.4179 12.9305L24.7179 12.9302ZM24.7179 13.4048V12.9304H24.4179V13.4048H24.7179ZM17.6202 17.9333C17.6202 16.903 18.4518 16.0674 19.4807 16.0674V15.7674C18.2851 15.7674 17.3202 16.7383 17.3202 17.9333H17.6202ZM18.2079 19.2927C17.8464 18.9527 17.6202 18.4688 17.6202 17.9333H17.3202C17.3202 18.5549 17.5831 19.1169 18.0023 19.5112L18.2079 19.2927ZM18.5557 19.9146C18.5557 19.7062 18.4227 19.4948 18.2079 19.2927L18.0023 19.5112C18.1982 19.6954 18.2557 19.8323 18.2557 19.9146H18.5557ZM18.5557 20.9727V19.9146H18.2557V20.9727H18.5557ZM19.4837 21.9007C18.9712 21.9007 18.5557 21.4853 18.5557 20.9727H18.2557C18.2557 21.6509 18.8055 22.2007 19.4837 22.2007V21.9007ZM20.4117 20.9727C20.4117 21.4853 19.9962 21.9007 19.4837 21.9007V22.2007C20.1619 22.2007 20.7117 21.6509 20.7117 20.9727H20.4117ZM20.4117 19.9122V20.9727H20.7117V19.9122H20.4117ZM20.7571 19.2919C20.5437 19.4939 20.4117 19.7046 20.4117 19.9122H20.7117C20.7117 19.8301 20.7689 19.6938 20.9633 19.5098L20.7571 19.2919ZM21.3412 17.9333C21.3412 18.4703 21.1156 18.9527 20.7571 19.2919L20.9633 19.5098C21.3791 19.1164 21.6412 18.5561 21.6412 17.9333H21.3412ZM19.4807 16.0674C20.5096 16.0674 21.3412 16.903 21.3412 17.9333H21.6412C21.6412 16.7383 20.6763 15.7674 19.4807 15.7674V16.0674Z" fill="#7B7794"/>
</g>
<g id="Union">
<path d="M2 8.52269C2 21.2003 8.48548 32.9159 19.3502 39.8649C19.477 39.9532 19.6276 40 19.7798 40C19.9137 40 20.0558 39.9628 20.1776 39.8842C22.3818 38.4741 24.448 36.8407 26.3072 35.0253C26.3125 35.0201 26.3178 35.0148 26.323 35.0094C31.6789 29.776 35.3037 23.1806 36.8045 15.9245C36.8099 15.8983 36.8139 15.8721 36.8166 15.846C37.3053 13.4435 37.5556 10.977 37.5556 8.52269V7.96857C37.5556 7.54264 37.2186 7.19942 36.8005 7.19942C33.1471 7.19942 30.1717 4.31717 30.1717 0.769151C30.1717 0.343223 29.8347 0 29.4166 0H10.1389C9.72082 0 9.3839 0.343223 9.3839 0.769151C9.3839 4.31303 6.41248 7.19942 2.75503 7.19942C2.33692 7.19942 2 7.54264 2 7.96857V8.52269ZM35.3112 15.6861C35.3138 15.661 35.3177 15.6357 35.3229 15.6105C35.6995 13.7825 35.9308 11.9196 36.0125 10.0499C36.0458 9.28984 35.4662 8.66607 34.7397 8.4797C31.9222 7.75697 29.6957 5.58998 28.939 2.83851C28.7399 2.11437 28.1342 1.5383 27.3936 1.5383H12.1619C11.4214 1.5383 10.8157 2.11437 10.6165 2.83852C9.85983 5.59007 7.6332 7.75711 4.8156 8.47977C4.0892 8.66608 3.50967 9.29009 3.54238 10.05C4.0203 21.1539 9.70255 31.3512 19.0072 37.7949C19.4758 38.1194 20.0918 38.1196 20.5601 37.7945C22.2362 36.6313 23.8142 35.3293 25.2639 33.913C25.2792 33.898 25.295 33.8838 25.3111 33.8705C30.4119 28.8754 33.8687 22.5922 35.3112 15.6861Z" fill="#7B7794"/>
<path d="M2 8.52269C2 21.2003 8.48548 32.9159 19.3502 39.8649C19.477 39.9532 19.6276 40 19.7798 40C19.9137 40 20.0558 39.9628 20.1776 39.8842C22.3818 38.4741 24.448 36.8407 26.3072 35.0253C26.3125 35.0201 26.3178 35.0148 26.323 35.0094C31.6789 29.776 35.3037 23.1806 36.8045 15.9245C36.8099 15.8983 36.8139 15.8721 36.8166 15.846C37.3053 13.4435 37.5556 10.977 37.5556 8.52269V7.96857C37.5556 7.54264 37.2186 7.19942 36.8005 7.19942C33.1471 7.19942 30.1717 4.31717 30.1717 0.769151C30.1717 0.343223 29.8347 0 29.4166 0H10.1389C9.72082 0 9.3839 0.343223 9.3839 0.769151C9.3839 4.31303 6.41248 7.19942 2.75503 7.19942C2.33692 7.19942 2 7.54264 2 7.96857V8.52269ZM35.3112 15.6861C35.3138 15.661 35.3177 15.6357 35.3229 15.6105C35.6995 13.7825 35.9308 11.9196 36.0125 10.0499C36.0458 9.28984 35.4662 8.66607 34.7397 8.4797C31.9222 7.75697 29.6957 5.58998 28.939 2.83851C28.7399 2.11437 28.1342 1.5383 27.3936 1.5383H12.1619C11.4214 1.5383 10.8157 2.11437 10.6165 2.83852C9.85983 5.59007 7.6332 7.75711 4.8156 8.47977C4.0892 8.66608 3.50967 9.29009 3.54238 10.05C4.0203 21.1539 9.70255 31.3512 19.0072 37.7949C19.4758 38.1194 20.0918 38.1196 20.5601 37.7945C22.2362 36.6313 23.8142 35.3293 25.2639 33.913C25.2792 33.898 25.295 33.8838 25.3111 33.8705C30.4119 28.8754 33.8687 22.5922 35.3112 15.6861Z" stroke="#7B7794"/>
</g>
</g>
</g>
</svg>
