<svg width="40" height="40" viewBox="0 0 40 40" fill="none" xmlns="http://www.w3.org/2000/svg">
<path d="M7.07689 40C6.22293 40 5.49661 39.7007 4.89794 39.1021C4.29931 38.5034 4 37.7771 4 36.9231V3.07689C4 2.22293 4.29931 1.49661 4.89794 0.897944C5.49661 0.299315 6.22293 0 7.07689 0H24.3761C24.8085 0 25.2121 0.0854633 25.5871 0.256389C25.9621 0.427352 26.2977 0.646722 26.594 0.9145L34.1966 8.51711C34.4644 8.81341 34.6838 9.14904 34.8547 9.524C35.0256 9.89896 35.1111 10.3026 35.1111 10.7351V36.9231C35.1111 37.7771 34.8118 38.5034 34.2132 39.1021C33.6145 39.7007 32.8882 40 32.0342 40H7.07689ZM33.4017 9.47439H25.5513C25.136 9.47439 24.7758 9.32178 24.4706 9.01656C24.1654 8.71137 24.0128 8.35115 24.0128 7.93589V1.70939H7.07689C6.73504 1.70939 6.42165 1.85183 6.13672 2.13672C5.85183 2.42165 5.70939 2.73504 5.70939 3.07689V36.9231C5.70939 37.265 5.85183 37.5784 6.13672 37.8633C6.42165 38.1482 6.73504 38.2906 7.07689 38.2906H32.0342C32.3761 38.2906 32.6895 38.1482 32.9744 37.8633C33.2593 37.5784 33.4017 37.265 33.4017 36.9231V9.47439Z" fill="#7B7794"/>
<path d="M10.4453 14.4333H28.6675C29.1646 14.4333 29.5675 14.8363 29.5675 15.3333V26.8889C29.5675 27.3859 29.1646 27.7889 28.6675 27.7889H10.4453C9.94826 27.7889 9.54531 27.3859 9.54531 26.8889V15.3333C9.54531 14.8363 9.94826 14.4333 10.4453 14.4333ZM10.4453 13.2333C9.28551 13.2333 8.34531 14.1735 8.34531 15.3333V26.8889C8.34531 28.0487 9.28551 28.9889 10.4453 28.9889H28.6675C29.8273 28.9889 30.7675 28.0487 30.7675 26.8889V15.3333C30.7675 14.1735 29.8273 13.2333 28.6675 13.2333H10.4453Z" fill="#7B7794" stroke="#7B7794" stroke-width="0.2"/>
<path d="M16.2227 17.7778H17.5938V24.4445H16.2227V17.7778Z" fill="#7B7794"/>
<path d="M24.0004 17.7778V19.001H21.9576V24.4445H20.5865V19.001H18.5436V17.7778H24.0004Z" fill="#7B7794"/>
</svg>
