<svg width="741" height="460" viewBox="0 0 741 460" fill="none" xmlns="http://www.w3.org/2000/svg">
<g clip-path="url(#clip0_10133_117067)">
<path d="M466.82 59.1027C628.121 105.268 722.047 274.517 675.881 435.817C629.716 597.118 460.467 691.044 299.167 644.878C137.866 598.713 43.9401 429.465 90.1056 268.164C136.271 106.863 305.52 12.9373 466.82 59.1027ZM468.035 54.8579C303.763 7.84212 132.877 102.677 85.8608 266.949C38.845 431.221 133.68 602.107 297.952 649.123C462.224 696.139 633.11 601.304 680.126 437.032C727.142 272.76 632.307 101.874 468.035 54.8579Z" fill="#344CCC"/>
<path d="M462.446 74.3821C615.681 118.239 704.457 278.206 660.6 431.442C616.742 584.678 456.775 673.453 303.54 629.596C150.304 585.739 61.5289 425.771 105.386 272.536C149.243 119.3 309.21 30.525 462.446 74.3821ZM463.053 72.2598C308.544 28.0382 147.485 117.419 103.264 271.928C59.0421 426.437 148.423 587.496 302.932 631.718C457.441 675.94 618.5 586.558 662.722 432.049C706.943 277.54 617.562 116.481 463.053 72.2598Z" fill="#344CCC"/>
<path d="M434.744 171.164C534.495 199.714 592.366 303.993 563.816 403.745C535.267 503.496 430.988 561.367 331.236 532.817C231.484 504.268 173.614 399.989 202.163 300.237C230.713 200.485 334.992 142.615 434.744 171.164ZM435.351 169.042C334.326 140.128 228.955 198.604 200.041 299.629C171.127 400.655 229.603 506.025 330.629 534.94C431.654 563.854 537.025 505.377 565.939 404.352C594.853 303.327 536.376 197.956 435.351 169.042Z" fill="#344CCC"/>
<path d="M172.924 448.923C182.205 443.773 193 444.566 198.757 454.939C204.211 464.767 199.597 474.468 190.194 480.043C180.791 485.619 170.118 484.401 164.361 474.027C158.604 463.654 163.218 453.953 172.924 448.923ZM174.923 453.17C167.826 457.108 163.517 464.142 167.758 471.785C172 479.429 180.248 479.493 187.346 475.554C194.443 471.615 198.752 464.582 194.511 456.939C190.39 448.871 182.021 449.231 174.923 453.17Z" fill="#344CCC"/>
<path d="M160.141 424.6C157.718 417.018 159.844 411.197 166.88 409.077C173.491 406.836 179.069 409.811 181.492 417.393L186.761 432.678L150.67 444.852L142.494 420.468L146.619 418.893L153.342 438.727L163.957 435.336L160.141 424.6ZM177.67 419.513C175.732 413.448 172.458 412.051 168.333 413.626C164.208 415.201 162.509 417.93 164.447 423.995L167.96 434.186L181.183 429.704L177.67 419.513Z" fill="#344CCC"/>
<path d="M133.9 373.463L171.261 368.083L171.744 372.813L154.52 375.231L157.664 396.338L174.888 393.92L175.371 398.651L138.01 404.031L137.527 399.3L153.357 396.942L150.213 375.836L134.383 378.194L133.9 373.463Z" fill="#344CCC"/>
<path d="M153.029 324.284C163.945 324.653 172.19 331.146 172.124 342.608C171.634 353.949 162.656 359.646 151.739 359.277C140.823 358.908 132.578 352.415 132.644 340.953C133.134 329.612 142.113 323.915 153.029 324.284ZM152.966 329.318C145.264 328.951 137.439 332.222 137.132 341.319C136.824 350.416 143.979 354.3 151.681 354.668C159.383 355.035 167.208 351.764 167.515 342.667C167.823 333.57 160.789 329.261 152.966 329.318Z" fill="#344CCC"/>
<path d="M614.319 313.943C615.771 321.707 612.372 327.164 605.579 328.434C598.786 329.705 593.875 326.003 592.545 317.815L589.762 301.863L627.063 295.088L631.661 320.744L627.355 321.348L623.665 300.545L612.99 302.541L614.319 313.943ZM596.124 316.543C597.091 322.79 600.244 324.611 604.55 324.006C608.856 323.402 611.102 320.371 610.134 314.123L608.138 303.449L594.127 305.868L596.124 316.543Z" fill="#344CCC"/>
<path d="M599.317 364.76L595.133 364.94L595.084 337.831L632.807 337.606L633.098 363.866L628.913 364.046L628.681 342.395L617.097 342.753L617.15 360.22L612.965 360.4L612.912 342.933L600.055 342.928L599.317 364.76Z" fill="#344CCC"/>
<path d="M625.99 390.305C627.023 385.09 625.084 382.238 621.385 380.721L622.297 375.93C628.24 377.631 631.694 383.212 630.356 391.095C628.897 399.403 623.619 403.404 618.404 402.37C614.037 401.58 612.28 399.699 611.614 397.212L610.34 396.848C608.641 399.576 605.789 401.515 600.453 400.907C594.692 400.176 589.964 394.231 591.666 385.074C592.944 375.795 598.344 371.37 605.197 371.495L604.285 376.285C599.554 376.769 596.763 380.103 596.032 385.864C595.302 391.625 597.423 395.447 601.789 396.237C605.731 396.906 609.007 395.088 609.859 388.903L610.71 382.717L615.077 383.507L614.225 389.693C613.191 394.908 615.798 397.032 619.316 397.58C622.833 398.127 625.078 395.096 625.99 390.305Z" fill="#344CCC"/>
<path d="M595.342 444.45C584.851 440.988 578.608 432.313 582.616 421.519C586.199 410.604 596.693 407.637 607.062 411.524C617.431 415.41 623.795 423.661 619.787 434.454C615.901 444.823 605.408 447.79 595.342 444.45ZM596.678 439.78C604.197 442.392 612.385 441.061 615.239 432.693C618.094 424.325 612.517 418.137 604.998 415.525C597.479 412.914 589.291 414.245 586.436 422.613C583.582 430.981 589.159 437.169 596.678 439.78Z" fill="#344CCC"/>
<path d="M591.56 489.753L558.88 470.756L561.369 466.875L590.593 483.506L600.851 465.316L571.626 448.686L574.115 444.806L606.795 463.803L591.56 489.753Z" fill="#344CCC"/>
<path d="M279.202 141.798C286.3 137.859 292.243 139.56 295.454 145.99C298.665 152.42 296.54 158.241 289.139 161.634L274.641 168.965L257.676 135.177L280.788 123.422L282.908 127.244L264.043 137L269.072 146.705L279.202 141.798ZM286.776 158.661C292.66 155.753 293.207 152.235 291.086 148.414C288.965 144.592 285.691 143.195 280.231 146.225L270.647 150.83L277.191 163.266L286.776 158.661Z" fill="#344CCC"/>
<path d="M307.215 153.031L296.982 116.577L301.531 115.124L305.346 129.074L315.293 126.41C323.3 124.109 329.302 127.205 330.997 134.12C333.117 141.156 329.718 146.612 321.712 148.913L307.215 153.031ZM319.591 145.091C326.081 143.275 327.477 140.001 326.448 135.573C325.419 131.145 322.266 129.324 315.776 131.141L306.799 133.623L310.917 148.12L319.591 145.091ZM333.436 106.344L343.669 142.798L339.119 144.251L328.887 107.798L333.436 106.344Z" fill="#344CCC"/>
<path d="M382.607 128.684C381.633 135.294 376.84 140.811 368.47 141.171C357.189 142.075 350.279 134.127 349.799 122.968C348.895 111.687 354.66 102.775 365.819 102.295C373.34 101.691 379.1 105.636 381.038 111.702L375.882 112.063C374.186 108.363 371.155 106.118 365.999 106.479C357.084 107.142 354.048 114.54 354.53 122.485C355.011 130.43 359.496 137.224 368.29 136.986C373.445 136.624 376.661 133.411 377.876 129.167L382.607 128.684Z" fill="#344CCC"/>
<path d="M419.497 108.929L407.004 107.649L403.835 141.186L399.348 140.82L402.517 107.284L390.024 106.004L390.268 101.941L419.863 104.441L419.497 108.929Z" fill="#344CCC"/>
<path d="M447.395 110.944C455.582 112.828 458.612 118.288 457.092 125.201C455.148 131.992 449.689 135.022 441.927 133.26L431.193 130.647L427.487 145.201L422.818 143.865L432.417 107.117L447.395 110.944ZM441.99 128.226C448.357 130.049 451.33 127.685 452.12 123.318C452.91 118.952 451.517 115.798 445.453 114.522L435.144 112.03L431.681 125.735L441.99 128.226Z" fill="#344CCC"/>
<path d="M495.582 149.537C490.969 159.238 481.99 164.935 471.44 160.078C460.89 155.222 459.318 144.668 463.507 134.846C468.12 125.144 477.099 119.447 487.649 124.304C498.2 129.16 500.196 139.835 495.582 149.537ZM491.035 147.776C494.495 140.5 494.013 132.555 486.01 128.427C477.885 124.724 471.393 129.755 467.933 137.031C464.473 144.307 464.954 152.252 472.958 156.38C481.083 160.083 487.696 154.628 491.035 147.776Z" fill="#344CCC"/>
<path d="M311.527 277.586L326.808 281.96L316.118 319.313L340.737 326.36L368.832 293.987L384.537 298.482L351.528 336.796L359.812 389.684L344.107 385.189L336.849 339.943L312.23 332.897L300.81 372.797L285.529 368.424L311.527 277.586Z" fill="#344CCC"/>
<path d="M418.499 308.203L398.21 379.09L401.181 379.941L459.248 319.866L480.896 326.062L454.777 417.324L440.344 413.193L460.754 341.881L457.783 341.031L399.716 401.106L378.068 394.91L404.066 304.072L418.499 308.203Z" fill="#344CCC"/>
</g>
<defs>
<clipPath id="clip0_10133_117067">
<rect width="618.126" height="618.126" fill="white" transform="translate(170.898 -30.1855) rotate(15.9715)"/>
</clipPath>
</defs>
</svg>
