<svg width="416" height="252" viewBox="0 0 416 252" fill="none" xmlns="http://www.w3.org/2000/svg">
<rect y="130.982" width="288.161" height="537.552" rx="54.4887" fill="#344CCC"/>
<rect x="127.838" width="288.161" height="537.552" rx="54.4887" fill="white"/>
<rect x="135.698" y="7.85988" width="272.443" height="521.834" rx="46.6297" fill="white" stroke="#4563FF" stroke-width="5.2393"/>
<g clip-path="url(#clip0)">
<path d="M386.661 25.4258H157.18V516.821H386.661V25.4258Z" fill="white"/>
<path d="M371.977 251.848H176.153C173.45 251.848 171.258 254.039 171.258 256.743V341.804C171.258 344.508 173.45 346.7 176.153 346.7H371.977C374.681 346.7 376.873 344.508 376.873 341.804V256.743C376.873 254.039 374.681 251.848 371.977 251.848Z" fill="white"/>
<path d="M371.973 252.463H176.149C173.783 252.463 171.865 254.381 171.865 256.747V341.808C171.865 344.173 173.783 346.091 176.149 346.091H371.973C374.339 346.091 376.256 344.173 376.256 341.808V256.747C376.256 254.381 374.339 252.463 371.973 252.463Z" fill="white" stroke="#ECEEF6" stroke-width="1.2239"/>
<path d="M172.411 237.426H171.471L173.409 241.097L172.66 242.669H173.556L176.068 237.426H175.164L173.953 239.966H173.747L172.411 237.426ZM180.622 241.083C180.482 241.641 180.049 241.964 179.41 241.964C178.896 241.964 178.507 241.788 178.235 241.428C177.971 241.068 177.839 240.605 177.839 240.047C177.839 239.496 177.971 239.034 178.243 238.674C178.514 238.314 178.904 238.131 179.418 238.131C180.02 238.131 180.402 238.38 180.563 238.88H181.488C181.393 238.41 181.158 238.035 180.791 237.756C180.424 237.47 179.968 237.33 179.418 237.33C178.646 237.33 178.037 237.58 177.596 238.086C177.163 238.586 176.943 239.239 176.943 240.047C176.943 240.855 177.163 241.508 177.596 242.015C178.03 242.515 178.639 242.764 179.41 242.764C180.578 242.764 181.364 242.103 181.547 241.083H180.622ZM182.438 242.669H182.607C183.232 242.669 183.613 242.529 183.907 242.081C184.208 241.633 184.326 240.84 184.326 239.577V238.226H186.257V242.669H187.138V237.426H183.503V239.474C183.503 240.804 183.364 241.442 183.121 241.648C183.004 241.751 182.828 241.802 182.6 241.802H182.438V242.669ZM189.231 237.426H188.291L190.23 241.097L189.481 242.669H190.377L192.888 237.426H191.985L190.773 239.966H190.568L189.231 237.426ZM197.778 237.426H194.092V242.669H194.973V238.226H197.778V237.426ZM199.135 242.669H200.383L202.549 238.586H202.726V242.669H203.563V237.426H202.314L200.148 241.508H199.972V237.426H199.135V242.669Z" fill="#7B7794"/>
<path d="M386.661 25.4258H157.18V79.2774H386.661V25.4258Z" fill="white"/>
<path d="M386.661 25.4258H157.18V79.2774H386.661V25.4258Z" fill="white"/>
<path d="M179.152 42.7213C180.797 42.7213 181.774 41.435 181.774 39.2567C181.774 37.1188 180.734 35.9355 179.188 35.9355C177.78 35.9355 176.785 36.8813 176.785 38.208C176.785 39.4495 177.682 40.3549 178.914 40.3549C179.672 40.3549 180.286 40.0053 180.59 39.3912H180.667C180.653 40.8882 180.111 41.7532 179.165 41.7532C178.609 41.7532 178.166 41.4529 178.027 40.9689H176.875C177.063 42.0266 177.968 42.7213 179.152 42.7213ZM179.192 39.4405C178.439 39.4405 177.919 38.9206 177.919 38.1721C177.919 37.4505 178.466 36.8992 179.196 36.8992C179.927 36.8992 180.474 37.4594 180.474 38.1945C180.474 38.9161 179.94 39.4405 179.192 39.4405ZM183.703 41.6726C184.129 41.6726 184.42 41.3678 184.42 40.9644C184.42 40.5566 184.129 40.2562 183.703 40.2562C183.282 40.2562 182.986 40.5566 182.986 40.9644C182.986 41.3678 183.282 41.6726 183.703 41.6726ZM183.703 38.4007C184.129 38.4007 184.42 38.1004 184.42 37.697C184.42 37.2891 184.129 36.9888 183.703 36.9888C183.282 36.9888 182.986 37.2891 182.986 37.697C182.986 38.1004 183.282 38.4007 183.703 38.4007ZM188.788 42.5645H189.895V41.3319H190.769V40.3549H189.895V36.0969H188.263C187.385 37.4326 186.466 38.9071 185.628 40.3683V41.3319H188.788V42.5645ZM186.699 40.319C187.331 39.2299 188.08 38.0421 188.743 37.0381H188.806V40.3817H186.699V40.319ZM193.317 42.5645H194.473V36.0969H193.321L191.632 37.2801V38.3917L193.241 37.2622H193.317V42.5645Z" fill="#333333"/>
<path fill-rule="evenodd" clip-rule="evenodd" d="M364.989 35.9297H374.06C374.823 35.9297 375.1 36.0092 375.38 36.1585C375.659 36.3079 375.878 36.527 376.027 36.8062C376.176 37.0855 376.256 37.3624 376.256 38.1262V40.7705C376.256 41.5343 376.176 41.8113 376.027 42.0905C375.878 42.3697 375.659 42.5889 375.38 42.7382C375.1 42.8876 374.823 42.9671 374.06 42.9671H364.989C364.226 42.9671 363.949 42.8876 363.669 42.7382C363.39 42.5889 363.171 42.3697 363.022 42.0905C362.873 41.8113 362.793 41.5343 362.793 40.7705V38.1262C362.793 37.3624 362.873 37.0855 363.022 36.8062C363.171 36.527 363.39 36.3079 363.669 36.1585C363.949 36.0092 364.226 35.9297 364.989 35.9297ZM364.989 36.5416C364.385 36.5416 364.175 36.5823 363.958 36.6982C363.786 36.7905 363.654 36.9222 363.562 37.0948C363.446 37.3114 363.405 37.5222 363.405 38.1262V40.7705C363.405 41.3745 363.446 41.5854 363.562 41.8019C363.654 41.9745 363.786 42.1063 363.958 42.1986C364.175 42.3144 364.385 42.3552 364.989 42.3552H374.06C374.664 42.3552 374.874 42.3144 375.091 42.1986C375.263 42.1063 375.395 41.9745 375.487 41.8019C375.603 41.5854 375.644 41.3745 375.644 40.7705V38.1262C375.644 37.5222 375.603 37.3114 375.487 37.0948C375.395 36.9222 375.263 36.7905 375.091 36.6982C374.874 36.5823 374.664 36.5416 374.06 36.5416H364.989ZM377.786 39.4117C377.786 40.1684 376.868 40.6356 376.868 40.6356V38.1878C376.868 38.1878 377.786 38.6549 377.786 39.4117Z" fill="black" fill-opacity="0.36"/>
<path d="M374.059 37.0996H365.003C364.462 37.0996 364.023 37.538 364.023 38.0787V40.8121C364.023 41.3529 364.462 41.7912 365.003 41.7912H374.059C374.6 41.7912 375.039 41.3529 375.039 40.8121V38.0787C375.039 37.538 374.6 37.0996 374.059 37.0996Z" fill="#333333"/>
<path fill-rule="evenodd" clip-rule="evenodd" d="M345.43 36.7883C345.416 36.8593 345.416 36.9446 345.416 37.1152V41.8272C345.416 41.9978 345.416 42.0831 345.43 42.154C345.488 42.4453 345.715 42.673 346.007 42.731C346.078 42.7451 346.163 42.7451 346.334 42.7451C346.504 42.7451 346.589 42.7451 346.66 42.731C346.952 42.673 347.179 42.4453 347.237 42.154C347.251 42.0831 347.251 41.9978 347.251 41.8272V37.1152C347.251 36.9446 347.251 36.8593 347.237 36.7883C347.179 36.497 346.952 36.2693 346.66 36.2113C346.589 36.1973 346.504 36.1973 346.334 36.1973C346.163 36.1973 346.078 36.1973 346.007 36.2113C345.715 36.2693 345.488 36.497 345.43 36.7883ZM342.539 38.5839C342.539 38.4133 342.539 38.328 342.554 38.257C342.612 37.9657 342.839 37.738 343.131 37.68C343.202 37.6659 343.287 37.6659 343.457 37.6659C343.628 37.6659 343.713 37.6659 343.784 37.68C344.075 37.738 344.303 37.9657 344.361 38.257C344.375 38.328 344.375 38.4133 344.375 38.5839V41.8272C344.375 41.9978 344.375 42.0831 344.361 42.154C344.303 42.4453 344.075 42.673 343.784 42.731C343.713 42.7451 343.628 42.7451 343.457 42.7451C343.287 42.7451 343.202 42.7451 343.131 42.731C342.839 42.673 342.612 42.4453 342.554 42.154C342.539 42.0831 342.539 41.9978 342.539 41.8272V38.5839ZM339.739 39.6645C339.724 39.7354 339.724 39.8207 339.724 39.9914V41.8272C339.724 41.9978 339.724 42.0831 339.739 42.154C339.797 42.4453 340.024 42.673 340.316 42.731C340.387 42.7451 340.472 42.7451 340.642 42.7451C340.813 42.7451 340.898 42.7451 340.969 42.731C341.26 42.673 341.488 42.4453 341.546 42.154C341.56 42.0831 341.56 41.9978 341.56 41.8272V39.9914C341.56 39.8207 341.56 39.7354 341.546 39.6645C341.488 39.3732 341.26 39.1455 340.969 39.0875C340.898 39.0734 340.813 39.0734 340.642 39.0734C340.472 39.0734 340.387 39.0734 340.316 39.0875C340.024 39.1455 339.797 39.3732 339.739 39.6645ZM336.801 40.8884C336.787 40.9593 336.787 41.0446 336.787 41.2153V41.8272C336.787 41.9978 336.787 42.0831 336.801 42.154C336.859 42.4453 337.087 42.673 337.378 42.731C337.449 42.7451 337.534 42.7451 337.705 42.7451C337.876 42.7451 337.961 42.7451 338.032 42.731C338.323 42.673 338.551 42.4453 338.609 42.154C338.623 42.0831 338.623 41.9978 338.623 41.8272V41.2153C338.623 41.0446 338.623 40.9593 338.609 40.8884C338.551 40.5971 338.323 40.3694 338.032 40.3114C337.961 40.2973 337.876 40.2973 337.705 40.2973C337.534 40.2973 337.449 40.2973 337.378 40.3114C337.087 40.3694 336.859 40.5971 336.801 40.8884Z" fill="#333333"/>
<path fill-rule="evenodd" clip-rule="evenodd" d="M355.023 37.4775C356.39 37.4775 357.705 38.003 358.696 38.9451C358.771 39.0178 358.89 39.0169 358.964 38.943L359.677 38.2231C359.714 38.1857 359.735 38.1349 359.735 38.0821C359.735 38.0293 359.713 37.9788 359.675 37.9418C357.074 35.4491 352.971 35.4491 350.37 37.9418C350.333 37.9787 350.311 38.0293 350.311 38.082C350.311 38.1348 350.331 38.1856 350.368 38.2231L351.082 38.943C351.155 39.017 351.274 39.0179 351.349 38.9451C352.34 38.0029 353.655 37.4775 355.023 37.4775ZM355.023 39.8196C355.774 39.8196 356.499 40.0989 357.055 40.6031C357.131 40.6747 357.249 40.6731 357.323 40.5996L358.035 39.8797C358.073 39.842 358.094 39.7908 358.093 39.7375C358.093 39.6843 358.071 39.6335 358.033 39.5965C356.336 38.019 353.711 38.019 352.015 39.5965C351.976 39.6335 351.954 39.6843 351.954 39.7376C351.954 39.7908 351.974 39.842 352.012 39.8797L352.724 40.5996C352.798 40.6731 352.916 40.6747 352.991 40.6031C353.548 40.0992 354.272 39.82 355.023 39.8196ZM356.392 41.5378C356.43 41.5004 356.451 41.4489 356.45 41.3955C356.449 41.3422 356.426 41.2916 356.387 41.2558C355.599 40.59 354.447 40.59 353.659 41.2558C353.62 41.2916 353.597 41.3421 353.595 41.3955C353.594 41.4489 353.615 41.5004 353.654 41.5378L354.886 42.7815C354.922 42.8181 354.972 42.8387 355.023 42.8387C355.075 42.8387 355.124 42.8181 355.16 42.7815L356.392 41.5378Z" fill="#333333"/>
<path d="M177.479 75.6065H178.618L177.231 72.2836L178.535 69.0525H177.397L176.314 71.7788H174.79V69.0525H173.707V71.7788H172.183L171.1 69.0525H169.962L171.265 72.2836L169.879 75.6065H171.017L172.183 72.7793H173.707V75.6065H174.79V72.7793H176.314L177.479 75.6065ZM183.845 70.9343H182.78L181.596 73.7523H181.357L180.054 70.9343H178.962L180.944 75.1476L179.981 77.4424H181.036L183.845 70.9343ZM187.016 71.6962C187.833 71.6962 188.291 72.3204 188.291 73.2658C188.291 74.2113 187.833 74.8446 187.016 74.8446C186.162 74.8446 185.721 74.1562 185.721 73.2658C185.721 72.3754 186.162 71.6962 187.016 71.6962ZM184.712 77.4424H185.749V75.1567H185.969C186.254 75.5331 186.703 75.7258 187.309 75.7258C187.924 75.7258 188.42 75.4964 188.778 75.0374C189.145 74.5784 189.329 73.991 189.329 73.2658C189.329 72.5498 189.145 71.9624 188.778 71.5034C188.42 71.0444 187.924 70.815 187.309 70.815C186.694 70.815 186.235 71.0077 185.932 71.3841H185.712V70.9343H184.712V77.4424ZM194.367 75.6065V72.5039C194.367 71.3749 193.605 70.815 192.348 70.815C191.237 70.815 190.466 71.3565 190.42 72.2286H191.448C191.494 71.8339 191.806 71.6319 192.385 71.6319C193.045 71.6319 193.367 71.944 193.367 72.4856V72.6233H191.99C191.366 72.6233 190.898 72.7793 190.595 73.0914C190.292 73.4035 190.136 73.7707 190.136 74.1929C190.136 74.6243 190.283 74.9823 190.585 75.2852C190.888 75.579 191.292 75.7258 191.806 75.7258C192.44 75.7258 192.899 75.5423 193.183 75.1751H193.403V75.6065H194.367ZM192.128 74.8814C191.531 74.8814 191.182 74.606 191.182 74.1287C191.182 73.6422 191.522 73.3576 192.173 73.3576H193.367V73.7156C193.367 74.0369 193.247 74.3122 193.009 74.5417C192.77 74.7712 192.476 74.8814 192.128 74.8814ZM199.189 73.0272C199.483 72.8803 199.712 72.5315 199.712 72.1184C199.712 71.3841 199.18 70.9343 198.234 70.9343H195.737V75.6065H198.317C199.382 75.6065 199.969 75.1659 199.969 74.3214C199.969 73.7431 199.657 73.3576 199.189 73.2383V73.0272ZM196.756 74.8171V73.5779H198.124C198.656 73.5779 198.923 73.789 198.923 74.2021C198.923 74.6152 198.656 74.8171 198.124 74.8171H196.756ZM198.014 71.7237C198.454 71.7237 198.675 71.9073 198.675 72.2745C198.675 72.5957 198.464 72.8252 198.014 72.8252H196.756V71.7237H198.014ZM200.785 75.6065C201.437 75.6065 201.905 75.4046 202.19 74.9915C202.483 74.5784 202.63 73.8625 202.63 72.8527V71.8155H204.42V75.6065H205.457V70.9343H201.676V72.8252C201.676 74.1837 201.419 74.6243 200.785 74.6243H200.62V75.6065H200.785ZM211.093 73.0088C211.084 72.3754 210.882 71.8522 210.496 71.4391C210.12 71.0261 209.587 70.815 208.917 70.815C208.211 70.815 207.641 71.0353 207.228 71.4759C206.815 71.9073 206.613 72.4948 206.613 73.2383C206.613 73.9818 206.825 74.5784 207.238 75.0374C207.651 75.4964 208.22 75.7258 208.945 75.7258C210.12 75.7258 210.845 75.1384 211.029 74.248H209.973C209.835 74.6427 209.496 74.8446 208.954 74.8446C208.11 74.8446 207.669 74.349 207.641 73.3576H211.093V73.0088ZM208.908 71.6411C209.56 71.6411 209.955 72.0358 210.028 72.5865H207.687C207.807 72.0083 208.22 71.6411 208.908 71.6411ZM215.692 73.0272C215.985 72.8803 216.215 72.5315 216.215 72.1184C216.215 71.3841 215.683 70.9343 214.737 70.9343H212.24V75.6065H214.82C215.884 75.6065 216.472 75.1659 216.472 74.3214C216.472 73.7431 216.16 73.3576 215.692 73.2383V73.0272ZM213.259 74.8171V73.5779H214.627C215.159 73.5779 215.426 73.789 215.426 74.2021C215.426 74.6152 215.159 74.8171 214.627 74.8171H213.259ZM214.517 71.7237C214.957 71.7237 215.178 71.9073 215.178 72.2745C215.178 72.5957 214.967 72.8252 214.517 72.8252H213.259V71.7237H214.517ZM225.763 75.6065L223.579 69.0525H221.816L219.641 75.6065H220.742L221.339 73.7248H224.028L224.634 75.6065H225.763ZM222.872 70.1265L223.707 72.7426H221.651L222.477 70.1265H222.872ZM230.987 70.9343H229.95V72.7701H227.692V70.9343H226.654V75.6065H227.692V73.6513H229.95V75.6065H230.987V70.9343ZM236.751 70.9343H233.015V72.2469C233.015 73.1373 232.85 73.9634 232.528 74.7253H231.868V76.9191H232.859V75.6065H236.604V76.9191H237.595V74.7253H236.751V70.9343ZM233.538 74.7253C233.823 74.0093 233.96 73.1832 233.96 72.2561V71.8155H235.714V74.7253H233.538ZM240.854 71.6962C241.671 71.6962 242.13 72.3204 242.13 73.2658C242.13 74.2113 241.671 74.8446 240.854 74.8446C240 74.8446 239.56 74.1562 239.56 73.2658C239.56 72.3754 240 71.6962 240.854 71.6962ZM238.55 77.4424H239.587V75.1567H239.808C240.092 75.5331 240.542 75.7258 241.148 75.7258C241.763 75.7258 242.258 75.4964 242.616 75.0374C242.984 74.5784 243.167 73.991 243.167 73.2658C243.167 72.5498 242.984 71.9624 242.616 71.5034C242.258 71.0444 241.763 70.815 241.148 70.815C240.533 70.815 240.074 71.0077 239.771 71.3841H239.551V70.9343H238.55V77.4424ZM248.527 73.0088C248.517 72.3754 248.316 71.8522 247.93 71.4391C247.554 71.0261 247.021 70.815 246.351 70.815C245.644 70.815 245.075 71.0353 244.662 71.4759C244.249 71.9073 244.047 72.4948 244.047 73.2383C244.047 73.9818 244.258 74.5784 244.671 75.0374C245.084 75.4964 245.654 75.7258 246.379 75.7258C247.554 75.7258 248.279 75.1384 248.462 74.248H247.407C247.269 74.6427 246.929 74.8446 246.388 74.8446C245.543 74.8446 245.103 74.349 245.075 73.3576H248.527V73.0088ZM246.342 71.6411C246.994 71.6411 247.388 72.0358 247.462 72.5865H245.121C245.24 72.0083 245.654 71.6411 246.342 71.6411ZM252.796 72.5223H253.016V75.6065H254.026V70.9343H252.823L250.905 74.0185H250.684V70.9343H249.675V75.6065H250.85L252.796 72.5223ZM252.575 68.9883C252.548 69.4289 252.3 69.6492 251.841 69.6492C251.382 69.6492 251.134 69.4289 251.107 68.9883H250.29C250.336 69.842 250.896 70.3468 251.841 70.3468C252.786 70.3468 253.346 69.842 253.392 68.9883H252.575ZM262.5 72.0633C262.959 71.8155 263.188 71.3749 263.188 70.7507C263.188 70.2642 263.005 69.8603 262.628 69.539C262.261 69.2178 261.738 69.0525 261.059 69.0525H258.094V75.6065H261.141C262.601 75.6065 263.381 74.8446 263.381 73.734C263.381 73.0822 263.014 72.5131 262.5 72.2836V72.0633ZM259.195 71.7421V70.0072H260.958C261.692 70.0072 262.059 70.2917 262.059 70.87C262.059 71.4483 261.692 71.7421 260.958 71.7421H259.195ZM259.195 74.6519V72.6783H260.995C261.83 72.6783 262.252 73.0088 262.252 73.6605C262.252 74.3214 261.83 74.6519 260.995 74.6519H259.195ZM264.215 75.6065C264.867 75.6065 265.335 75.4046 265.62 74.9915C265.913 74.5784 266.06 73.8625 266.06 72.8527V71.8155H267.85V75.6065H268.887V70.9343H265.106V72.8252C265.106 74.1837 264.849 74.6243 264.215 74.6243H264.05V75.6065H264.215ZM274.202 75.6065V72.5039C274.202 71.3749 273.44 70.815 272.182 70.815C271.071 70.815 270.3 71.3565 270.255 72.2286H271.283C271.329 71.8339 271.641 71.6319 272.219 71.6319C272.88 71.6319 273.201 71.944 273.201 72.4856V72.6233H271.824C271.2 72.6233 270.732 72.7793 270.429 73.0914C270.126 73.4035 269.97 73.7707 269.97 74.1929C269.97 74.6243 270.117 74.9823 270.42 75.2852C270.723 75.579 271.127 75.7258 271.641 75.7258C272.274 75.7258 272.733 75.5423 273.017 75.1751H273.238V75.6065H274.202ZM271.962 74.8814C271.365 74.8814 271.016 74.606 271.016 74.1287C271.016 73.6422 271.356 73.3576 272.008 73.3576H273.201V73.7156C273.201 74.0369 273.082 74.3122 272.843 74.5417C272.604 74.7712 272.311 74.8814 271.962 74.8814ZM279.904 70.9343H276.168V72.2469C276.168 73.1373 276.003 73.9634 275.682 74.7253H275.021V76.9191H276.012V75.6065H279.757V76.9191H280.749V74.7253H279.904V70.9343ZM276.692 74.7253C276.976 74.0093 277.114 73.1832 277.114 72.2561V71.8155H278.867V74.7253H276.692ZM284.824 72.5223H285.044V75.6065H286.054V70.9343H284.851L282.933 74.0185H282.713V70.9343H281.703V75.6065H282.878L284.824 72.5223ZM288.495 75.6065V72.2469H288.715L289.624 74.0002H290.597L291.506 72.2469H291.726V75.6065H292.736V70.9343H291.267L290.23 72.9813H290.009L288.963 70.9343H287.485V75.6065H288.495ZM297.284 72.5223H297.505V75.6065H298.514V70.9343H297.312L295.393 74.0185H295.173V70.9343H294.163V75.6065H295.338L297.284 72.5223ZM302.249 71.6962C303.066 71.6962 303.525 72.3204 303.525 73.2658C303.525 74.2113 303.066 74.8446 302.249 74.8446C301.395 74.8446 300.955 74.1562 300.955 73.2658C300.955 72.3754 301.395 71.6962 302.249 71.6962ZM299.945 77.4424H300.982V75.1567H301.203C301.487 75.5331 301.937 75.7258 302.543 75.7258C303.158 75.7258 303.654 75.4964 304.012 75.0374C304.379 74.5784 304.562 73.991 304.562 73.2658C304.562 72.5498 304.379 71.9624 304.012 71.5034C303.654 71.0444 303.158 70.815 302.543 70.815C301.928 70.815 301.469 71.0077 301.166 71.3841H300.946V70.9343H299.945V77.4424ZM310.161 73.2658C310.161 72.5407 309.95 71.9532 309.518 71.5034C309.096 71.0444 308.527 70.815 307.802 70.815C307.077 70.815 306.508 71.0444 306.076 71.5034C305.654 71.9532 305.443 72.5407 305.443 73.2658C305.443 73.991 305.654 74.5876 306.076 75.0466C306.508 75.4964 307.077 75.7258 307.802 75.7258C308.527 75.7258 309.096 75.4964 309.518 75.0466C309.95 74.5876 310.161 73.991 310.161 73.2658ZM309.124 73.2658C309.124 74.1562 308.656 74.8446 307.802 74.8446C306.948 74.8446 306.48 74.1562 306.48 73.2658C306.48 72.3846 306.948 71.6962 307.802 71.6962C308.656 71.6962 309.124 72.3846 309.124 73.2658ZM314.772 73.0272C315.066 72.8803 315.295 72.5315 315.295 72.1184C315.295 71.3841 314.763 70.9343 313.817 70.9343H311.321V75.6065H313.9C314.965 75.6065 315.552 75.1659 315.552 74.3214C315.552 73.7431 315.24 73.3576 314.772 73.2383V73.0272ZM312.34 74.8171V73.5779H313.707C314.24 73.5779 314.506 73.789 314.506 74.2021C314.506 74.6152 314.24 74.8171 313.707 74.8171H312.34ZM313.597 71.7237C314.038 71.7237 314.258 71.9073 314.258 72.2745C314.258 72.5957 314.047 72.8252 313.597 72.8252H312.34V71.7237H313.597ZM319.829 72.5223H320.049V75.6065H321.059V70.9343H319.857L317.938 74.0185H317.718V70.9343H316.708V75.6065H317.883L319.829 72.5223ZM322.224 72.4213C322.224 72.8986 322.279 73.3209 322.664 73.6513C322.912 73.8349 323.371 73.9726 323.995 73.9726C324.473 73.9726 324.913 73.9267 325.308 73.8441V75.6065H326.354V70.9343H325.308V72.9813C324.959 73.0547 324.62 73.0914 324.289 73.0914C323.812 73.0914 323.518 73.0088 323.399 72.8344C323.279 72.6508 323.261 72.5315 323.261 72.2836V70.9343H322.224V72.4213Z" fill="#7B7794"/>
<path d="M370.139 84.4766H173.703C171.168 84.4766 169.113 86.5314 169.113 89.0662V211.456C169.113 213.991 171.168 216.046 173.703 216.046H370.139C372.674 216.046 374.728 213.991 374.728 211.456V89.0662C374.728 86.5314 372.674 84.4766 370.139 84.4766Z" fill="#ECEEF6"/>
<path d="M370.139 84.4766H173.703C171.168 84.4766 169.113 86.5314 169.113 89.0662V211.456C169.113 213.991 171.168 216.046 173.703 216.046H370.139C372.674 216.046 374.728 213.991 374.728 211.456V89.0662C374.728 86.5314 372.674 84.4766 370.139 84.4766Z" fill="url(#paint0_linear)" fill-opacity="0.4"/>
<path d="M370.139 84.4766H173.703C171.168 84.4766 169.113 86.5314 169.113 89.0662V211.456C169.113 213.991 171.168 216.046 173.703 216.046H370.139C372.674 216.046 374.728 213.991 374.728 211.456V89.0662C374.728 86.5314 372.674 84.4766 370.139 84.4766Z" stroke="#ECEEF6" stroke-width="0.61195"/>
<path d="M181.056 109.873V102.885H181.35L183.186 106.715H184.679L186.527 102.885H186.821V109.873H188.216V101.135H185.878L184.091 104.941H183.798L181.986 101.135H179.661V109.873H181.056ZM196.047 106.752C196.047 105.785 195.765 105.002 195.19 104.402C194.627 103.79 193.868 103.484 192.901 103.484C191.934 103.484 191.176 103.79 190.6 104.402C190.037 105.002 189.756 105.785 189.756 106.752C189.756 107.719 190.037 108.515 190.6 109.127C191.176 109.726 191.934 110.032 192.901 110.032C193.868 110.032 194.627 109.726 195.19 109.127C195.765 108.515 196.047 107.719 196.047 106.752ZM194.664 106.752C194.664 107.939 194.04 108.857 192.901 108.857C191.763 108.857 191.139 107.939 191.139 106.752C191.139 105.577 191.763 104.659 192.901 104.659C194.04 104.659 194.664 105.577 194.664 106.752ZM201.653 105.761H201.947V109.873H203.293V103.643H201.69L199.132 107.756H198.838V103.643H197.492V109.873H199.059L201.653 105.761ZM201.36 101.049C201.323 101.636 200.993 101.93 200.381 101.93C199.769 101.93 199.438 101.636 199.401 101.049H198.312C198.373 102.187 199.12 102.86 200.381 102.86C201.641 102.86 202.388 102.187 202.449 101.049H201.36ZM214.134 103.643H208.406V109.873H209.789V104.818H212.751V109.873H214.134V103.643ZM221.548 106.41C221.535 105.565 221.266 104.867 220.752 104.317C220.25 103.766 219.54 103.484 218.647 103.484C217.705 103.484 216.946 103.778 216.395 104.366C215.844 104.941 215.575 105.724 215.575 106.715C215.575 107.707 215.857 108.502 216.407 109.114C216.958 109.726 217.717 110.032 218.684 110.032C220.25 110.032 221.217 109.249 221.462 108.062H220.055C219.871 108.588 219.418 108.857 218.696 108.857C217.57 108.857 216.983 108.196 216.946 106.875H221.548V106.41ZM218.635 104.586C219.504 104.586 220.03 105.112 220.128 105.847H217.007C217.166 105.075 217.717 104.586 218.635 104.586ZM226.049 104.659C227.138 104.659 227.75 105.492 227.75 106.752C227.75 108.013 227.138 108.857 226.049 108.857C224.91 108.857 224.323 107.939 224.323 106.752C224.323 105.565 224.91 104.659 226.049 104.659ZM222.977 112.321H224.36V109.273H224.653C225.033 109.775 225.632 110.032 226.44 110.032C227.26 110.032 227.921 109.726 228.398 109.114C228.888 108.502 229.133 107.719 229.133 106.752C229.133 105.798 228.888 105.014 228.398 104.402C227.921 103.79 227.26 103.484 226.44 103.484C225.62 103.484 225.008 103.741 224.604 104.243H224.311V103.643H222.977V112.321ZM234.661 107.878C234.514 108.527 234.061 108.857 233.302 108.857C232.139 108.857 231.589 107.976 231.589 106.74C231.589 105.528 232.139 104.659 233.302 104.659C233.987 104.659 234.428 104.953 234.612 105.541H235.982C235.799 104.304 234.771 103.484 233.29 103.484C232.335 103.484 231.576 103.79 231.026 104.39C230.475 104.99 230.206 105.785 230.206 106.752C230.206 107.731 230.475 108.527 231.026 109.127C231.576 109.726 232.335 110.032 233.29 110.032C234.771 110.032 235.835 109.188 236.031 107.878H234.661ZM243.351 106.752C243.351 105.785 243.07 105.002 242.495 104.402C241.932 103.79 241.173 103.484 240.206 103.484C239.239 103.484 238.48 103.79 237.905 104.402C237.342 105.002 237.061 105.785 237.061 106.752C237.061 107.719 237.342 108.515 237.905 109.127C238.48 109.726 239.239 110.032 240.206 110.032C241.173 110.032 241.932 109.726 242.495 109.127C243.07 108.515 243.351 107.719 243.351 106.752ZM241.968 106.752C241.968 107.939 241.344 108.857 240.206 108.857C239.068 108.857 238.444 107.939 238.444 106.752C238.444 105.577 239.068 104.659 240.206 104.659C241.344 104.659 241.968 105.577 241.968 106.752ZM250.574 103.643H249.191V106.091H246.18V103.643H244.797V109.873H246.18V107.266H249.191V109.873H250.574V103.643ZM257.558 109.873V105.736C257.558 104.231 256.543 103.484 254.866 103.484C253.385 103.484 252.357 104.206 252.296 105.369H253.666C253.728 104.843 254.144 104.574 254.915 104.574C255.796 104.574 256.224 104.99 256.224 105.712V105.895H254.389C253.556 105.895 252.932 106.104 252.528 106.52C252.124 106.936 251.916 107.425 251.916 107.988C251.916 108.564 252.112 109.041 252.516 109.445C252.92 109.836 253.458 110.032 254.144 110.032C254.988 110.032 255.6 109.787 255.98 109.298H256.273V109.873H257.558ZM254.572 108.906C253.777 108.906 253.312 108.539 253.312 107.903C253.312 107.254 253.764 106.875 254.633 106.875H256.224V107.352C256.224 107.78 256.065 108.147 255.747 108.453C255.429 108.759 255.037 108.906 254.572 108.906ZM258.831 109.873C259.7 109.873 260.324 109.604 260.704 109.053C261.096 108.502 261.291 107.548 261.291 106.201V104.818H263.678V109.873H265.061V103.643H260.018V106.165C260.018 107.976 259.676 108.564 258.831 108.564H258.611V109.873H258.831ZM266.869 103.643V109.873H269.928C271.483 109.873 272.352 109.053 272.352 107.695C272.352 106.361 271.483 105.577 269.928 105.577H268.252V103.643H266.869ZM268.252 108.698V106.691H269.733C270.626 106.691 270.969 107.021 270.969 107.695C270.969 108.343 270.626 108.698 269.733 108.698H268.252ZM279.453 103.643H278.07V106.091H275.059V103.643H273.676V109.873H275.059V107.266H278.07V109.873H279.453V103.643ZM281.26 109.873H284.198C285.752 109.873 286.621 109.053 286.621 107.695C286.621 106.361 285.752 105.577 284.198 105.577H282.643V103.643H281.26V109.873ZM284.002 106.691C284.895 106.691 285.238 107.021 285.238 107.695C285.238 108.343 284.895 108.698 284.002 108.698H282.643V106.691H284.002ZM287.588 109.873H288.971V103.643H287.588V109.873ZM294.942 105.761H295.236V109.873H296.582V103.643H294.979L292.421 107.756H292.127V103.643H290.781V109.873H292.347L294.942 105.761ZM294.648 101.049C294.611 101.636 294.281 101.93 293.669 101.93C293.057 101.93 292.727 101.636 292.69 101.049H291.601C291.662 102.187 292.408 102.86 293.669 102.86C294.93 102.86 295.676 102.187 295.737 101.049H294.648ZM185.315 124.56L183.7 121.329L185.23 118.33H183.81L182.562 120.778H180.934V118.33H179.551V124.56H180.934V121.953H182.537L183.859 124.56H185.315ZM189.693 119.346C190.782 119.346 191.394 120.178 191.394 121.439C191.394 122.7 190.782 123.544 189.693 123.544C188.555 123.544 187.967 122.626 187.967 121.439C187.967 120.252 188.555 119.346 189.693 119.346ZM186.621 127.008H188.004V123.96H188.298C188.677 124.462 189.277 124.719 190.085 124.719C190.905 124.719 191.566 124.413 192.043 123.801C192.533 123.189 192.777 122.406 192.777 121.439C192.777 120.484 192.533 119.701 192.043 119.089C191.566 118.477 190.905 118.171 190.085 118.171C189.265 118.171 188.653 118.428 188.249 118.93H187.955V118.33H186.621V127.008ZM199.823 121.096C199.811 120.252 199.541 119.554 199.027 119.003C198.525 118.453 197.816 118.171 196.922 118.171C195.98 118.171 195.221 118.465 194.67 119.052C194.119 119.628 193.85 120.411 193.85 121.402C193.85 122.394 194.132 123.189 194.682 123.801C195.233 124.413 195.992 124.719 196.959 124.719C198.525 124.719 199.492 123.936 199.737 122.749H198.33C198.146 123.275 197.693 123.544 196.971 123.544C195.845 123.544 195.258 122.883 195.221 121.561H199.823V121.096ZM196.91 119.273C197.779 119.273 198.305 119.799 198.403 120.533H195.282C195.441 119.762 195.992 119.273 196.91 119.273ZM207.029 118.33H202.047V120.08C202.047 121.268 201.827 122.369 201.399 123.385H200.517V126.31H201.839V124.56H206.833V126.31H208.155V123.385H207.029V118.33ZM202.745 123.385C203.124 122.43 203.308 121.329 203.308 120.093V119.505H205.646V123.385H202.745ZM213.487 120.448H213.781V124.56H215.127V118.33H213.524L210.966 122.443H210.672V118.33H209.326V124.56H210.893L213.487 120.448ZM218.452 119.505V124.56H219.835V119.505H221.928V118.33H216.347V119.505H218.452ZM228.921 118.33H227.538V120.778H224.527V118.33H223.144V124.56H224.527V121.953H227.538V124.56H228.921V118.33ZM230.728 124.56H233.665C235.22 124.56 236.089 123.74 236.089 122.381C236.089 121.047 235.22 120.264 233.665 120.264H232.111V118.33H230.728V124.56ZM233.47 121.378C234.363 121.378 234.706 121.708 234.706 122.381C234.706 123.03 234.363 123.385 233.47 123.385H232.111V121.378H233.47ZM237.056 124.56H238.439V118.33H237.056V124.56ZM244.41 120.448H244.704V124.56H246.05V118.33H244.447L241.889 122.443H241.595V118.33H240.249V124.56H241.815L244.41 120.448ZM244.116 115.736C244.08 116.323 243.749 116.617 243.137 116.617C242.525 116.617 242.195 116.323 242.158 115.736H241.069C241.13 116.874 241.877 117.547 243.137 117.547C244.398 117.547 245.144 116.874 245.206 115.736H244.116ZM254.234 119.346C255.324 119.346 255.936 120.178 255.936 121.439C255.936 122.7 255.324 123.544 254.234 123.544C253.096 123.544 252.509 122.626 252.509 121.439C252.509 120.252 253.096 119.346 254.234 119.346ZM251.162 127.008H252.545V123.96H252.839C253.218 124.462 253.818 124.719 254.626 124.719C255.446 124.719 256.107 124.413 256.584 123.801C257.074 123.189 257.319 122.406 257.319 121.439C257.319 120.484 257.074 119.701 256.584 119.089C256.107 118.477 255.446 118.171 254.626 118.171C253.806 118.171 253.194 118.428 252.79 118.93H252.496V118.33H251.162V127.008ZM264.364 121.096C264.352 120.252 264.082 119.554 263.568 119.003C263.067 118.453 262.357 118.171 261.463 118.171C260.521 118.171 259.762 118.465 259.211 119.052C258.661 119.628 258.391 120.411 258.391 121.402C258.391 122.394 258.673 123.189 259.224 123.801C259.774 124.413 260.533 124.719 261.5 124.719C263.067 124.719 264.033 123.936 264.278 122.749H262.871C262.687 123.275 262.234 123.544 261.512 123.544C260.386 123.544 259.799 122.883 259.762 121.561H264.364V121.096ZM261.451 119.273C262.32 119.273 262.846 119.799 262.944 120.533H259.823C259.982 119.762 260.533 119.273 261.451 119.273ZM269.954 120.448H270.248V124.56H271.594V118.33H269.991L267.433 122.443H267.139V118.33H265.793V124.56H267.359L269.954 120.448ZM269.66 115.736C269.624 116.323 269.293 116.617 268.681 116.617C268.069 116.617 267.739 116.323 267.702 115.736H266.613C266.674 116.874 267.421 117.547 268.681 117.547C269.942 117.547 270.688 116.874 270.75 115.736H269.66ZM274.919 119.505V124.56H276.302V119.505H278.395V118.33H272.814V119.505H274.919ZM283.772 120.448H284.066V124.56H285.412V118.33H283.809L281.251 122.443H280.957V118.33H279.611V124.56H281.177L283.772 120.448ZM292.996 118.33H291.613V120.778H288.602V118.33H287.219V124.56H288.602V121.953H291.613V124.56H292.996V118.33ZM296.187 124.56V119.505H299.662V118.33H294.804V124.56H296.187Z" fill="black"/>
<path d="M182.604 137.355V138.027H178.84C178.835 137.858 178.862 137.696 178.922 137.541C179.018 137.285 179.171 137.032 179.38 136.784C179.593 136.535 179.898 136.248 180.297 135.922C180.916 135.414 181.334 135.012 181.552 134.717C181.769 134.419 181.878 134.138 181.878 133.874C181.878 133.597 181.778 133.364 181.579 133.175C181.382 132.984 181.125 132.887 180.806 132.887C180.469 132.887 180.2 132.988 179.998 133.19C179.796 133.392 179.694 133.672 179.691 134.029L178.973 133.956C179.022 133.42 179.207 133.012 179.528 132.732C179.849 132.45 180.28 132.309 180.822 132.309C181.368 132.309 181.8 132.46 182.119 132.763C182.437 133.066 182.597 133.442 182.597 133.89C182.597 134.118 182.55 134.341 182.457 134.562C182.364 134.782 182.208 135.013 181.991 135.257C181.776 135.501 181.417 135.835 180.915 136.259C180.495 136.611 180.226 136.851 180.107 136.978C179.988 137.102 179.889 137.227 179.812 137.355H182.604ZM183.257 135.218C183.257 134.545 183.326 134.004 183.463 133.594C183.603 133.182 183.809 132.865 184.081 132.643C184.355 132.42 184.7 132.309 185.114 132.309C185.419 132.309 185.687 132.371 185.918 132.495C186.148 132.617 186.339 132.794 186.489 133.028C186.639 133.258 186.757 133.54 186.842 133.874C186.928 134.206 186.971 134.654 186.971 135.218C186.971 135.886 186.902 136.426 186.765 136.838C186.627 137.247 186.422 137.565 186.147 137.79C185.875 138.013 185.531 138.124 185.114 138.124C184.565 138.124 184.134 137.927 183.82 137.533C183.445 137.059 183.257 136.287 183.257 135.218ZM183.976 135.218C183.976 136.153 184.084 136.776 184.302 137.087C184.522 137.395 184.793 137.549 185.114 137.549C185.435 137.549 185.704 137.393 185.922 137.083C186.142 136.772 186.252 136.15 186.252 135.218C186.252 134.281 186.142 133.658 185.922 133.35C185.704 133.042 185.432 132.887 185.106 132.887C184.785 132.887 184.529 133.023 184.337 133.296C184.096 133.643 183.976 134.283 183.976 135.218ZM191.259 137.355V138.027H187.495C187.49 137.858 187.517 137.696 187.577 137.541C187.672 137.285 187.825 137.032 188.035 136.784C188.247 136.535 188.553 136.248 188.952 135.922C189.571 135.414 189.989 135.012 190.206 134.717C190.424 134.419 190.533 134.138 190.533 133.874C190.533 133.597 190.433 133.364 190.234 133.175C190.037 132.984 189.779 132.887 189.461 132.887C189.124 132.887 188.855 132.988 188.653 133.19C188.451 133.392 188.348 133.672 188.346 134.029L187.627 133.956C187.676 133.42 187.861 133.012 188.183 132.732C188.504 132.45 188.935 132.309 189.476 132.309C190.023 132.309 190.455 132.46 190.773 132.763C191.092 133.066 191.251 133.442 191.251 133.89C191.251 134.118 191.205 134.341 191.111 134.562C191.018 134.782 190.863 135.013 190.645 135.257C190.43 135.501 190.072 135.835 189.569 136.259C189.15 136.611 188.88 136.851 188.761 136.978C188.642 137.102 188.544 137.227 188.466 137.355H191.259ZM191.912 135.218C191.912 134.545 191.98 134.004 192.118 133.594C192.257 133.182 192.463 132.865 192.735 132.643C193.01 132.42 193.354 132.309 193.768 132.309C194.074 132.309 194.342 132.371 194.573 132.495C194.803 132.617 194.993 132.794 195.144 133.028C195.294 133.258 195.412 133.54 195.497 133.874C195.582 134.206 195.625 134.654 195.625 135.218C195.625 135.886 195.557 136.426 195.419 136.838C195.282 137.247 195.076 137.565 194.802 137.79C194.53 138.013 194.185 138.124 193.768 138.124C193.219 138.124 192.788 137.927 192.475 137.533C192.099 137.059 191.912 136.287 191.912 135.218ZM192.63 135.218C192.63 136.153 192.739 136.776 192.957 137.087C193.177 137.395 193.447 137.549 193.768 137.549C194.09 137.549 194.359 137.393 194.576 137.083C194.797 136.772 194.907 136.15 194.907 135.218C194.907 134.281 194.797 133.658 194.576 133.35C194.359 133.042 194.087 132.887 193.761 132.887C193.44 132.887 193.183 133.023 192.992 133.296C192.751 133.643 192.63 134.283 192.63 135.218ZM196.161 136.317V135.614H198.309V136.317H196.161ZM198.787 135.218C198.787 134.545 198.856 134.004 198.993 133.594C199.133 133.182 199.339 132.865 199.611 132.643C199.885 132.42 200.23 132.309 200.644 132.309C200.95 132.309 201.218 132.371 201.448 132.495C201.678 132.617 201.869 132.794 202.019 133.028C202.169 133.258 202.287 133.54 202.373 133.874C202.458 134.206 202.501 134.654 202.501 135.218C202.501 135.886 202.432 136.426 202.295 136.838C202.158 137.247 201.952 137.565 201.677 137.79C201.405 138.013 201.061 138.124 200.644 138.124C200.095 138.124 199.664 137.927 199.35 137.533C198.975 137.059 198.787 136.287 198.787 135.218ZM199.506 135.218C199.506 136.153 199.615 136.776 199.832 137.087C200.052 137.395 200.323 137.549 200.644 137.549C200.965 137.549 201.234 137.393 201.452 137.083C201.672 136.772 201.782 136.15 201.782 135.218C201.782 134.281 201.672 133.658 201.452 133.35C201.234 133.042 200.963 132.887 200.636 132.887C200.315 132.887 200.059 133.023 199.867 133.296C199.626 133.643 199.506 134.283 199.506 135.218ZM203.114 136.535L203.849 136.473C203.903 136.83 204.029 137.1 204.225 137.281C204.425 137.459 204.664 137.549 204.944 137.549C205.281 137.549 205.566 137.422 205.799 137.168C206.032 136.914 206.148 136.578 206.148 136.158C206.148 135.759 206.036 135.445 205.81 135.214C205.588 134.984 205.295 134.868 204.932 134.868C204.707 134.868 204.504 134.92 204.323 135.024C204.141 135.125 203.999 135.257 203.895 135.42L203.239 135.335L203.79 132.41H206.622V133.078H204.35L204.043 134.608C204.385 134.37 204.743 134.251 205.119 134.251C205.616 134.251 206.036 134.423 206.377 134.767C206.719 135.112 206.89 135.555 206.89 136.096C206.89 136.611 206.74 137.057 206.44 137.432C206.074 137.893 205.576 138.124 204.944 138.124C204.426 138.124 204.003 137.979 203.674 137.689C203.348 137.399 203.161 137.014 203.114 136.535ZM207.364 136.317V135.614H209.512V136.317H207.364ZM212.624 138.027H211.924V133.571C211.756 133.732 211.535 133.892 211.26 134.053C210.988 134.214 210.744 134.334 210.526 134.414V133.738C210.917 133.555 211.259 133.332 211.552 133.07C211.844 132.809 212.051 132.555 212.173 132.309H212.624V138.027ZM216.361 138.027H215.661V133.571C215.493 133.732 215.272 133.892 214.997 134.053C214.725 134.214 214.48 134.334 214.263 134.414V133.738C214.654 133.555 214.996 133.332 215.288 133.07C215.581 132.809 215.788 132.555 215.91 132.309H216.361V138.027ZM222.801 138.027H222.102V133.571C221.934 133.732 221.712 133.892 221.437 134.053C221.166 134.214 220.921 134.334 220.704 134.414V133.738C221.095 133.555 221.436 133.332 221.729 133.07C222.022 132.809 222.229 132.555 222.35 132.309H222.801V138.027ZM224.599 136.71L225.272 136.648C225.329 136.964 225.437 137.193 225.598 137.335C225.758 137.478 225.965 137.549 226.215 137.549C226.43 137.549 226.618 137.5 226.778 137.401C226.942 137.303 227.075 137.172 227.179 137.009C227.283 136.843 227.369 136.62 227.439 136.341C227.509 136.061 227.544 135.777 227.544 135.486C227.544 135.455 227.543 135.409 227.54 135.346C227.4 135.569 227.209 135.75 226.965 135.89C226.725 136.027 226.463 136.096 226.181 136.096C225.709 136.096 225.31 135.925 224.984 135.583C224.658 135.242 224.495 134.791 224.495 134.231C224.495 133.654 224.664 133.189 225.004 132.837C225.345 132.485 225.772 132.309 226.285 132.309C226.655 132.309 226.994 132.408 227.299 132.608C227.608 132.807 227.84 133.092 227.999 133.463C228.159 133.83 228.239 134.364 228.239 135.063C228.239 135.791 228.16 136.371 228.002 136.803C227.844 137.233 227.609 137.56 227.295 137.786C226.985 138.011 226.619 138.124 226.2 138.124C225.755 138.124 225.391 138.001 225.108 137.755C224.826 137.506 224.657 137.158 224.599 136.71ZM227.463 134.196C227.463 133.795 227.355 133.477 227.14 133.241C226.928 133.006 226.671 132.887 226.371 132.887C226.06 132.887 225.789 133.014 225.559 133.268C225.329 133.522 225.213 133.851 225.213 134.255C225.213 134.617 225.322 134.912 225.54 135.141C225.76 135.366 226.03 135.478 226.351 135.478C226.675 135.478 226.941 135.366 227.147 135.141C227.357 134.912 227.463 134.598 227.463 134.196ZM229.21 134.698V133.901H230.006V134.698H229.21ZM229.21 138.027V137.231H230.006V138.027H229.21ZM233.569 138.027H232.87V133.571C232.701 133.732 232.48 133.892 232.205 134.053C231.933 134.214 231.689 134.334 231.471 134.414V133.738C231.862 133.555 232.204 133.332 232.496 133.07C232.789 132.809 232.996 132.555 233.118 132.309H233.569V138.027ZM237.306 138.027H236.606V133.571C236.438 133.732 236.217 133.892 235.942 134.053C235.67 134.214 235.425 134.334 235.208 134.414V133.738C235.599 133.555 235.941 133.332 236.234 133.07C236.526 132.809 236.733 132.555 236.855 132.309H237.306V138.027ZM239.388 134.698V133.901H240.184V134.698H239.388ZM239.388 138.027V137.231H240.184V138.027H239.388ZM241.116 136.523L241.815 136.43C241.896 136.827 242.032 137.112 242.223 137.289C242.417 137.462 242.653 137.549 242.93 137.549C243.259 137.549 243.536 137.435 243.762 137.207C243.989 136.979 244.103 136.697 244.103 136.36C244.103 136.039 243.999 135.775 243.789 135.568C243.579 135.358 243.312 135.253 242.988 135.253C242.857 135.253 242.692 135.279 242.495 135.331L242.573 134.717C242.619 134.722 242.657 134.725 242.685 134.725C242.983 134.725 243.251 134.647 243.49 134.492C243.728 134.337 243.847 134.097 243.847 133.773C243.847 133.517 243.76 133.304 243.587 133.136C243.413 132.968 243.189 132.884 242.915 132.884C242.643 132.884 242.416 132.969 242.235 133.14C242.054 133.311 241.937 133.567 241.886 133.909L241.186 133.785C241.272 133.316 241.466 132.954 241.769 132.697C242.072 132.438 242.449 132.309 242.899 132.309C243.21 132.309 243.496 132.376 243.758 132.511C244.019 132.643 244.219 132.824 244.356 133.055C244.496 133.285 244.566 133.53 244.566 133.789C244.566 134.035 244.5 134.259 244.368 134.461C244.235 134.663 244.04 134.823 243.781 134.942C244.117 135.02 244.379 135.182 244.566 135.428C244.752 135.671 244.846 135.977 244.846 136.344C244.846 136.842 244.664 137.264 244.302 137.611C243.939 137.956 243.48 138.128 242.927 138.128C242.427 138.128 242.011 137.979 241.679 137.681C241.351 137.383 241.163 136.997 241.116 136.523ZM246.516 134.939C246.226 134.832 246.011 134.681 245.871 134.484C245.731 134.287 245.661 134.051 245.661 133.777C245.661 133.363 245.81 133.014 246.108 132.732C246.405 132.45 246.802 132.309 247.296 132.309C247.794 132.309 248.194 132.454 248.496 132.744C248.8 133.031 248.951 133.382 248.951 133.796C248.951 134.061 248.881 134.291 248.741 134.488C248.604 134.682 248.394 134.832 248.112 134.939C248.462 135.053 248.727 135.236 248.908 135.49C249.093 135.744 249.184 136.047 249.184 136.399C249.184 136.886 249.012 137.295 248.668 137.626C248.323 137.958 247.87 138.124 247.308 138.124C246.746 138.124 246.293 137.958 245.948 137.626C245.604 137.292 245.432 136.877 245.432 136.38C245.432 136.009 245.525 135.7 245.712 135.452C245.901 135.2 246.169 135.029 246.516 134.939ZM246.376 133.754C246.376 134.023 246.462 134.243 246.636 134.414C246.809 134.585 247.035 134.671 247.312 134.671C247.581 134.671 247.801 134.586 247.972 134.418C248.146 134.247 248.233 134.039 248.233 133.793C248.233 133.536 248.143 133.321 247.965 133.148C247.788 132.972 247.568 132.884 247.304 132.884C247.038 132.884 246.816 132.969 246.64 133.14C246.464 133.311 246.376 133.515 246.376 133.754ZM246.15 136.384C246.15 136.583 246.197 136.776 246.29 136.962C246.386 137.149 246.527 137.294 246.714 137.398C246.901 137.499 247.101 137.549 247.316 137.549C247.65 137.549 247.926 137.442 248.143 137.226C248.361 137.011 248.47 136.738 248.47 136.407C248.47 136.07 248.357 135.792 248.132 135.572C247.909 135.352 247.629 135.242 247.293 135.242C246.964 135.242 246.691 135.35 246.473 135.568C246.258 135.785 246.15 136.057 246.15 136.384Z" fill="#7B7794"/>
<path d="M292.049 158.122V155.393H281.882V157.616H289.408V158.144L282.961 170.797H285.645L292.049 158.122ZM296.836 159.838C297.012 158.144 298.112 157.374 299.609 157.374C301.193 157.374 302.271 158.232 302.271 159.926C302.271 161.555 300.973 162.787 299.829 163.689L294.305 168.046V170.797H305.286V168.552H298.156V168.024L301.721 165.142C303.481 163.733 304.846 161.995 304.846 159.904C304.846 156.758 302.667 155.085 299.675 155.085C296.616 155.085 294.459 156.67 294.283 159.838H296.836ZM313.246 155.085C309.901 155.085 307.392 157.506 307.392 163.095C307.392 168.662 309.901 171.083 313.246 171.083C316.568 171.083 319.099 168.662 319.099 163.095C319.099 157.506 316.568 155.085 313.246 155.085ZM313.246 168.794C310.781 168.794 309.967 166.22 309.967 163.095C309.967 159.948 310.781 157.374 313.246 157.374C315.71 157.374 316.524 159.948 316.524 163.095C316.524 166.22 315.71 168.794 313.246 168.794Z" fill="#333333"/>
<path d="M324.311 162.2H325.903C326.295 162.2 326.585 162.233 326.775 162.3C326.966 162.364 327.13 162.483 327.266 162.657C327.404 162.831 327.473 163.039 327.473 163.282C327.473 163.477 327.432 163.647 327.35 163.793C327.271 163.936 327.151 164.056 326.989 164.153C327.181 164.217 327.34 164.338 327.465 164.514C327.593 164.688 327.657 164.895 327.657 165.136C327.632 165.522 327.493 165.809 327.243 165.995C326.992 166.182 326.627 166.275 326.149 166.275H324.311V162.2ZM325.002 163.915H325.738C326.033 163.915 326.235 163.9 326.345 163.869C326.455 163.839 326.553 163.777 326.64 163.685C326.727 163.591 326.771 163.478 326.771 163.347C326.771 163.133 326.694 162.983 326.54 162.899C326.39 162.814 326.13 162.772 325.761 162.772H325.002V163.915ZM325.002 165.707H325.911C326.303 165.707 326.571 165.663 326.717 165.573C326.863 165.481 326.94 165.324 326.947 165.101C326.947 164.971 326.905 164.85 326.821 164.74C326.736 164.628 326.626 164.558 326.491 164.529C326.355 164.499 326.138 164.483 325.838 164.483H325.002V165.707ZM332.362 162.2H333.052V166.275H332.362V162.2ZM328.498 162.2H329.188V163.793H330.063C330.634 163.793 331.072 163.904 331.379 164.126C331.689 164.346 331.844 164.651 331.844 165.04C331.844 165.38 331.715 165.672 331.456 165.915C331.2 166.155 330.79 166.275 330.224 166.275H328.498V162.2ZM329.188 165.707H329.914C330.351 165.707 330.663 165.654 330.85 165.546C331.037 165.439 331.13 165.271 331.13 165.044C331.13 164.867 331.061 164.71 330.923 164.572C330.785 164.433 330.479 164.364 330.006 164.364H329.188V165.707ZM336.79 164.783L337.469 164.871C337.395 165.339 337.205 165.706 336.898 165.972C336.593 166.236 336.218 166.367 335.773 166.367C335.215 166.367 334.767 166.186 334.426 165.823C334.089 165.457 333.92 164.934 333.92 164.253C333.92 163.813 333.993 163.428 334.138 163.098C334.284 162.768 334.506 162.521 334.802 162.357C335.102 162.191 335.427 162.108 335.777 162.108C336.22 162.108 336.582 162.221 336.863 162.446C337.144 162.668 337.325 162.985 337.404 163.397L336.733 163.501C336.669 163.227 336.555 163.021 336.391 162.883C336.23 162.745 336.034 162.676 335.804 162.676C335.456 162.676 335.173 162.801 334.956 163.052C334.738 163.3 334.63 163.694 334.63 164.234C334.63 164.781 334.735 165.179 334.944 165.427C335.154 165.675 335.428 165.8 335.766 165.8C336.037 165.8 336.263 165.716 336.445 165.55C336.626 165.384 336.741 165.128 336.79 164.783ZM337.895 164.238C337.895 163.483 338.105 162.924 338.525 162.561C338.875 162.259 339.302 162.108 339.806 162.108C340.367 162.108 340.824 162.292 341.18 162.661C341.536 163.026 341.713 163.533 341.713 164.18C341.713 164.705 341.634 165.118 341.476 165.42C341.319 165.719 341.091 165.952 340.789 166.118C340.489 166.284 340.162 166.367 339.806 166.367C339.236 166.367 338.774 166.185 338.421 165.819C338.07 165.453 337.895 164.926 337.895 164.238ZM338.605 164.238C338.605 164.76 338.719 165.151 338.947 165.412C339.174 165.67 339.461 165.8 339.806 165.8C340.149 165.8 340.434 165.669 340.662 165.408C340.89 165.147 341.004 164.749 341.004 164.215C341.004 163.711 340.888 163.33 340.658 163.071C340.43 162.81 340.147 162.68 339.806 162.68C339.461 162.68 339.174 162.809 338.947 163.067C338.719 163.326 338.605 163.716 338.605 164.238ZM342.523 162.2H343.214V163.961C343.434 163.961 343.587 163.919 343.674 163.835C343.764 163.75 343.894 163.505 344.066 163.098C344.201 162.776 344.311 162.563 344.396 162.461C344.48 162.359 344.577 162.29 344.687 162.254C344.797 162.218 344.974 162.2 345.217 162.2H345.355V162.772L345.163 162.768C344.982 162.768 344.865 162.795 344.814 162.849C344.76 162.905 344.678 163.072 344.568 163.351C344.464 163.617 344.368 163.802 344.281 163.904C344.194 164.006 344.059 164.1 343.878 164.184C344.174 164.263 344.466 164.54 344.753 165.013L345.509 166.275H344.749L344.012 165.013C343.861 164.76 343.729 164.593 343.617 164.514C343.504 164.432 343.37 164.391 343.214 164.391V166.275H342.523V162.2ZM345.965 162.2H346.656V165.308L348.571 162.2H349.315V166.275H348.625V163.186L346.71 166.275H345.965V162.2ZM350.355 162.2H351.046V165.308L352.961 162.2H353.705V166.275H353.015V163.186L351.1 166.275H350.355V162.2ZM352.754 160.657H353.226C353.187 160.977 353.07 161.223 352.873 161.394C352.678 161.566 352.418 161.651 352.094 161.651C351.766 161.651 351.504 161.567 351.307 161.398C351.112 161.227 350.996 160.98 350.958 160.657H351.43C351.465 160.831 351.536 160.962 351.641 161.049C351.748 161.133 351.891 161.176 352.071 161.176C352.278 161.176 352.434 161.135 352.539 161.053C352.646 160.968 352.718 160.837 352.754 160.657Z" fill="#7B7794"/>
<path d="M282.451 186.184V180.558H284.561C284.991 180.558 285.335 180.616 285.593 180.731C285.854 180.843 286.058 181.018 286.204 181.256C286.352 181.492 286.426 181.739 286.426 181.997C286.426 182.237 286.361 182.464 286.23 182.676C286.1 182.889 285.903 183.06 285.639 183.19C285.98 183.29 286.241 183.46 286.422 183.701C286.606 183.941 286.699 184.225 286.699 184.553C286.699 184.816 286.642 185.062 286.53 185.289C286.42 185.515 286.283 185.689 286.119 185.811C285.955 185.934 285.749 186.028 285.501 186.091C285.256 186.153 284.954 186.184 284.596 186.184H282.451ZM283.195 182.922H284.412C284.742 182.922 284.978 182.9 285.121 182.857C285.311 182.8 285.453 182.707 285.547 182.576C285.645 182.446 285.693 182.282 285.693 182.085C285.693 181.899 285.648 181.735 285.559 181.594C285.469 181.451 285.341 181.354 285.175 181.302C285.009 181.249 284.724 181.222 284.319 181.222H283.195V182.922ZM283.195 185.52H284.596C284.836 185.52 285.005 185.511 285.102 185.493C285.274 185.462 285.417 185.411 285.532 185.339C285.647 185.268 285.742 185.164 285.816 185.029C285.89 184.89 285.927 184.732 285.927 184.553C285.927 184.343 285.874 184.161 285.766 184.008C285.659 183.852 285.509 183.743 285.317 183.682C285.128 183.618 284.854 183.586 284.496 183.586H283.195V185.52ZM290.425 184.871L291.138 184.959C291.026 185.376 290.817 185.7 290.513 185.93C290.208 186.161 289.82 186.276 289.346 186.276C288.75 186.276 288.277 186.093 287.927 185.727C287.579 185.359 287.405 184.843 287.405 184.18C287.405 183.495 287.581 182.963 287.934 182.584C288.287 182.206 288.745 182.016 289.308 182.016C289.853 182.016 290.298 182.202 290.643 182.573C290.989 182.944 291.161 183.465 291.161 184.138C291.161 184.179 291.16 184.241 291.158 184.322H288.118C288.144 184.77 288.271 185.113 288.498 185.351C288.726 185.589 289.01 185.708 289.35 185.708C289.603 185.708 289.82 185.641 289.999 185.508C290.178 185.375 290.32 185.163 290.425 184.871ZM288.157 183.755H290.432C290.402 183.412 290.315 183.155 290.171 182.983C289.951 182.717 289.666 182.584 289.316 182.584C288.998 182.584 288.731 182.69 288.514 182.903C288.299 183.115 288.18 183.399 288.157 183.755ZM292.01 187.745V182.108H292.639V182.638C292.787 182.431 292.955 182.276 293.142 182.174C293.328 182.069 293.555 182.016 293.821 182.016C294.169 182.016 294.476 182.106 294.742 182.285C295.008 182.464 295.209 182.717 295.344 183.045C295.48 183.37 295.548 183.726 295.548 184.115C295.548 184.532 295.472 184.908 295.321 185.243C295.173 185.576 294.955 185.832 294.669 186.011C294.385 186.187 294.086 186.276 293.771 186.276C293.541 186.276 293.333 186.227 293.149 186.13C292.968 186.033 292.818 185.91 292.7 185.761V187.745H292.01ZM292.635 184.169C292.635 184.693 292.741 185.081 292.953 185.332C293.166 185.582 293.423 185.708 293.725 185.708C294.032 185.708 294.294 185.579 294.511 185.32C294.731 185.059 294.841 184.656 294.841 184.111C294.841 183.592 294.734 183.203 294.519 182.945C294.307 182.686 294.052 182.557 293.756 182.557C293.461 182.557 293.2 182.695 292.973 182.972C292.748 183.245 292.635 183.645 292.635 184.169ZM296.127 184.146C296.127 183.391 296.337 182.832 296.756 182.469C297.107 182.167 297.534 182.016 298.038 182.016C298.598 182.016 299.056 182.2 299.412 182.569C299.767 182.935 299.945 183.441 299.945 184.088C299.945 184.613 299.866 185.026 299.707 185.328C299.551 185.627 299.322 185.86 299.02 186.026C298.721 186.193 298.394 186.276 298.038 186.276C297.468 186.276 297.006 186.093 296.653 185.727C296.302 185.361 296.127 184.834 296.127 184.146ZM296.837 184.146C296.837 184.668 296.951 185.059 297.178 185.32C297.406 185.579 297.693 185.708 298.038 185.708C298.381 185.708 298.666 185.577 298.894 185.316C299.121 185.055 299.235 184.658 299.235 184.123C299.235 183.619 299.12 183.238 298.89 182.979C298.662 182.718 298.378 182.588 298.038 182.588C297.693 182.588 297.406 182.717 297.178 182.976C296.951 183.234 296.837 183.624 296.837 184.146ZM303.967 182.108V186.184H303.28V184.595H302.881C302.638 184.595 302.456 184.627 302.336 184.691C302.218 184.752 302.046 184.953 301.818 185.293L301.215 186.184H300.36L301.104 185.086C301.332 184.751 301.558 184.562 301.783 184.518C301.389 184.464 301.096 184.322 300.905 184.092C300.715 183.862 300.621 183.597 300.621 183.298C300.621 182.945 300.745 182.658 300.993 182.438C301.244 182.218 301.605 182.108 302.079 182.108H303.967ZM303.28 182.68H302.298C301.886 182.68 301.62 182.744 301.499 182.872C301.382 183 301.323 183.15 301.323 183.321C301.323 183.564 301.41 183.743 301.584 183.858C301.76 183.971 302.071 184.027 302.516 184.027H303.28V182.68ZM304.646 182.108H307.958V182.68H306.645V186.184H305.958V182.68H304.646V182.108ZM308.621 182.108H309.312V183.804H311.227V182.108H311.918V186.184H311.227V184.376H309.312V186.184H308.621V182.108ZM312.704 184.146C312.704 183.391 312.914 182.832 313.334 182.469C313.684 182.167 314.112 182.016 314.615 182.016C315.176 182.016 315.634 182.2 315.989 182.569C316.345 182.935 316.523 183.441 316.523 184.088C316.523 184.613 316.443 185.026 316.285 185.328C316.129 185.627 315.9 185.86 315.598 186.026C315.299 186.193 314.971 186.276 314.615 186.276C314.045 186.276 313.583 186.093 313.23 185.727C312.88 185.361 312.704 184.834 312.704 184.146ZM313.414 184.146C313.414 184.668 313.528 185.059 313.756 185.32C313.984 185.579 314.27 185.708 314.615 185.708C314.958 185.708 315.244 185.577 315.471 185.316C315.699 185.055 315.813 184.658 315.813 184.123C315.813 183.619 315.698 183.238 315.467 182.979C315.24 182.718 314.956 182.588 314.615 182.588C314.27 182.588 313.984 182.717 313.756 182.976C313.528 183.234 313.414 183.624 313.414 184.146ZM319.995 184.691L320.675 184.779C320.601 185.247 320.41 185.614 320.103 185.88C319.798 186.144 319.424 186.276 318.979 186.276C318.421 186.276 317.972 186.094 317.632 185.731C317.294 185.365 317.125 184.842 317.125 184.161C317.125 183.721 317.198 183.336 317.344 183.006C317.49 182.676 317.711 182.429 318.008 182.266C318.307 182.099 318.632 182.016 318.982 182.016C319.425 182.016 319.787 182.129 320.068 182.354C320.35 182.576 320.53 182.894 320.609 183.306L319.938 183.409C319.874 183.135 319.76 182.93 319.596 182.791C319.435 182.653 319.24 182.584 319.009 182.584C318.661 182.584 318.379 182.709 318.161 182.96C317.944 183.208 317.835 183.602 317.835 184.142C317.835 184.69 317.94 185.087 318.15 185.336C318.359 185.584 318.633 185.708 318.971 185.708C319.242 185.708 319.468 185.625 319.65 185.458C319.832 185.292 319.947 185.036 319.995 184.691ZM320.893 182.108H324.205V182.68H322.893V186.184H322.206V182.68H320.893V182.108ZM324.854 182.108H325.544V183.701H326.419C326.99 183.701 327.428 183.812 327.735 184.035C328.045 184.255 328.2 184.559 328.2 184.948C328.2 185.288 328.071 185.58 327.812 185.823C327.556 186.063 327.146 186.184 326.58 186.184H324.854V182.108ZM325.544 185.616H326.27C326.707 185.616 327.019 185.562 327.206 185.454C327.393 185.347 327.486 185.179 327.486 184.952C327.486 184.775 327.417 184.618 327.279 184.48C327.141 184.342 326.835 184.273 326.362 184.273H325.544V185.616ZM330.894 184.146C330.894 183.391 331.103 182.832 331.523 182.469C331.873 182.167 332.301 182.016 332.805 182.016C333.365 182.016 333.823 182.2 334.178 182.569C334.534 182.935 334.712 183.441 334.712 184.088C334.712 184.613 334.632 185.026 334.474 185.328C334.318 185.627 334.089 185.86 333.787 186.026C333.488 186.193 333.16 186.276 332.805 186.276C332.234 186.276 331.772 186.093 331.419 185.727C331.069 185.361 330.894 184.834 330.894 184.146ZM331.604 184.146C331.604 184.668 331.717 185.059 331.945 185.32C332.173 185.579 332.459 185.708 332.805 185.708C333.147 185.708 333.433 185.577 333.66 185.316C333.888 185.055 334.002 184.658 334.002 184.123C334.002 183.619 333.887 183.238 333.657 182.979C333.429 182.718 333.145 182.588 332.805 182.588C332.459 182.588 332.173 182.717 331.945 182.976C331.717 183.234 331.604 183.624 331.604 184.146ZM335.894 182.108H338.733V185.616H339.175V187.339H338.607V186.184H335.399V187.339H334.831V185.616H335.195C335.681 184.956 335.914 183.787 335.894 182.108ZM336.469 182.68C336.418 184.003 336.213 184.981 335.855 185.616H338.046V182.68H336.469ZM339.681 184.146C339.681 183.391 339.891 182.832 340.311 182.469C340.661 182.167 341.088 182.016 341.592 182.016C342.152 182.016 342.61 182.2 342.966 182.569C343.322 182.935 343.499 183.441 343.499 184.088C343.499 184.613 343.42 185.026 343.261 185.328C343.105 185.627 342.876 185.86 342.575 186.026C342.275 186.193 341.948 186.276 341.592 186.276C341.022 186.276 340.56 186.093 340.207 185.727C339.856 185.361 339.681 184.834 339.681 184.146ZM340.391 184.146C340.391 184.668 340.505 185.059 340.733 185.32C340.96 185.579 341.247 185.708 341.592 185.708C341.935 185.708 342.22 185.577 342.448 185.316C342.676 185.055 342.789 184.658 342.789 184.123C342.789 183.619 342.674 183.238 342.444 182.979C342.216 182.718 341.932 182.588 341.592 182.588C341.247 182.588 340.96 182.717 340.733 182.976C340.505 183.234 340.391 183.624 340.391 184.146ZM347.298 180.424L347.909 180.431C347.88 180.705 347.819 180.896 347.724 181.003C347.632 181.111 347.512 181.18 347.364 181.21C347.218 181.241 346.93 181.256 346.5 181.256C345.93 181.256 345.541 181.311 345.334 181.421C345.126 181.531 344.977 181.708 344.885 181.951C344.795 182.191 344.745 182.502 344.735 182.883C344.909 182.625 345.112 182.432 345.345 182.304C345.578 182.174 345.84 182.108 346.132 182.108C346.667 182.108 347.109 182.292 347.46 182.661C347.81 183.027 347.985 183.523 347.985 184.15C347.985 184.626 347.897 185.016 347.721 185.32C347.544 185.625 347.334 185.86 347.091 186.026C346.851 186.193 346.522 186.276 346.105 186.276C345.621 186.276 345.245 186.166 344.977 185.946C344.708 185.723 344.502 185.439 344.359 185.094C344.216 184.748 344.144 184.147 344.144 183.29C344.144 182.213 344.326 181.488 344.689 181.114C345.055 180.741 345.616 180.554 346.374 180.554C346.844 180.554 347.112 180.546 347.176 180.531C347.24 180.516 347.28 180.48 347.298 180.424ZM347.264 184.131C347.264 183.706 347.163 183.358 346.961 183.087C346.761 182.816 346.478 182.68 346.113 182.68C345.731 182.68 345.437 182.823 345.23 183.11C345.023 183.396 344.919 183.779 344.919 184.257C344.919 184.731 345.033 185.093 345.261 185.343C345.491 185.594 345.774 185.719 346.109 185.719C346.452 185.719 346.729 185.575 346.942 185.286C347.156 184.994 347.264 184.609 347.264 184.131ZM348.818 187.745V182.108H349.447V182.638C349.596 182.431 349.763 182.276 349.95 182.174C350.137 182.069 350.363 182.016 350.629 182.016C350.977 182.016 351.284 182.106 351.55 182.285C351.816 182.464 352.017 182.717 352.153 183.045C352.288 183.37 352.356 183.726 352.356 184.115C352.356 184.532 352.281 184.908 352.13 185.243C351.981 185.576 351.764 185.832 351.477 186.011C351.193 186.187 350.894 186.276 350.579 186.276C350.349 186.276 350.142 186.227 349.958 186.13C349.776 186.033 349.626 185.91 349.509 185.761V187.745H348.818ZM349.443 184.169C349.443 184.693 349.55 185.081 349.762 185.332C349.974 185.582 350.231 185.708 350.533 185.708C350.84 185.708 351.103 185.579 351.32 185.32C351.54 185.059 351.65 184.656 351.65 184.111C351.65 183.592 351.543 183.203 351.328 182.945C351.115 182.686 350.861 182.557 350.564 182.557C350.27 182.557 350.009 182.695 349.781 182.972C349.556 183.245 349.443 183.645 349.443 184.169ZM355.982 184.871L356.696 184.959C356.584 185.376 356.375 185.7 356.071 185.93C355.766 186.161 355.377 186.276 354.904 186.276C354.308 186.276 353.835 186.093 353.484 185.727C353.136 185.359 352.962 184.843 352.962 184.18C352.962 183.495 353.139 182.963 353.492 182.584C353.845 182.206 354.303 182.016 354.866 182.016C355.411 182.016 355.856 182.202 356.201 182.573C356.546 182.944 356.719 183.465 356.719 184.138C356.719 184.179 356.718 184.241 356.715 184.322H353.676C353.702 184.77 353.828 185.113 354.056 185.351C354.284 185.589 354.568 185.708 354.908 185.708C355.161 185.708 355.377 185.641 355.556 185.508C355.735 185.375 355.877 185.163 355.982 184.871ZM353.714 183.755H355.99C355.959 183.412 355.872 183.155 355.729 182.983C355.509 182.717 355.224 182.584 354.873 182.584C354.556 182.584 354.289 182.69 354.071 182.903C353.856 183.115 353.738 183.399 353.714 183.755ZM357.571 182.108H358.262V183.804H360.177V182.108H360.867V186.184H360.177V184.376H358.262V186.184H357.571V182.108ZM361.911 182.108H362.602V185.217L364.517 182.108H365.261V186.184H364.57V183.095L362.656 186.184H361.911V182.108ZM369.509 182.108V186.184H368.822V184.595H368.423C368.18 184.595 367.998 184.627 367.878 184.691C367.761 184.752 367.588 184.953 367.36 185.293L366.758 186.184H365.902L366.646 185.086C366.874 184.751 367.101 184.562 367.326 184.518C366.932 184.464 366.639 184.322 366.447 184.092C366.258 183.862 366.163 183.597 366.163 183.298C366.163 182.945 366.287 182.658 366.535 182.438C366.786 182.218 367.148 182.108 367.621 182.108H369.509ZM368.822 182.68H367.84C367.428 182.68 367.162 182.744 367.042 182.872C366.924 183 366.865 183.15 366.865 183.321C366.865 183.564 366.952 183.743 367.126 183.858C367.303 183.971 367.613 184.027 368.059 184.027H368.822V182.68ZM282.397 191.108H283.088V192.804H285.002V191.108H285.693V195.184H285.002V193.376H283.088V195.184H282.397V191.108ZM286.48 193.146C286.48 192.391 286.69 191.832 287.109 191.469C287.46 191.167 287.887 191.016 288.391 191.016C288.951 191.016 289.409 191.2 289.765 191.569C290.12 191.935 290.298 192.441 290.298 193.088C290.298 193.613 290.219 194.026 290.06 194.328C289.904 194.627 289.675 194.86 289.373 195.026C289.074 195.193 288.746 195.276 288.391 195.276C287.82 195.276 287.359 195.093 287.006 194.727C286.655 194.361 286.48 193.834 286.48 193.146ZM287.19 193.146C287.19 193.668 287.304 194.059 287.531 194.32C287.759 194.579 288.045 194.708 288.391 194.708C288.734 194.708 289.019 194.577 289.247 194.316C289.474 194.055 289.588 193.658 289.588 193.123C289.588 192.619 289.473 192.238 289.243 191.979C289.015 191.718 288.731 191.588 288.391 191.588C288.045 191.588 287.759 191.717 287.531 191.976C287.304 192.234 287.19 192.624 287.19 193.146ZM291.115 191.108H292.708C293.099 191.108 293.39 191.142 293.579 191.208C293.771 191.272 293.935 191.391 294.07 191.565C294.208 191.739 294.277 191.947 294.277 192.19C294.277 192.385 294.236 192.555 294.155 192.701C294.075 192.844 293.955 192.964 293.794 193.062C293.986 193.125 294.144 193.246 294.27 193.422C294.398 193.596 294.462 193.803 294.462 194.044C294.436 194.43 294.298 194.717 294.047 194.903C293.796 195.09 293.432 195.184 292.953 195.184H291.115V191.108ZM291.806 192.824H292.543C292.837 192.824 293.039 192.808 293.149 192.778C293.259 192.747 293.358 192.685 293.445 192.593C293.532 192.499 293.575 192.386 293.575 192.256C293.575 192.041 293.498 191.891 293.345 191.807C293.194 191.722 292.934 191.68 292.566 191.68H291.806V192.824ZM291.806 194.616H292.716C293.107 194.616 293.376 194.571 293.521 194.481C293.667 194.389 293.744 194.232 293.752 194.009C293.752 193.879 293.709 193.759 293.625 193.649C293.541 193.536 293.431 193.466 293.295 193.438C293.159 193.407 292.942 193.392 292.643 193.392H291.806V194.616ZM294.937 193.146C294.937 192.391 295.147 191.832 295.567 191.469C295.917 191.167 296.344 191.016 296.848 191.016C297.409 191.016 297.867 191.2 298.222 191.569C298.578 191.935 298.756 192.441 298.756 193.088C298.756 193.613 298.676 194.026 298.518 194.328C298.362 194.627 298.133 194.86 297.831 195.026C297.531 195.193 297.204 195.276 296.848 195.276C296.278 195.276 295.816 195.093 295.463 194.727C295.113 194.361 294.937 193.834 294.937 193.146ZM295.647 193.146C295.647 193.668 295.761 194.059 295.989 194.32C296.217 194.579 296.503 194.708 296.848 194.708C297.191 194.708 297.476 194.577 297.704 194.316C297.932 194.055 298.046 193.658 298.046 193.123C298.046 192.619 297.931 192.238 297.7 191.979C297.473 191.718 297.189 191.588 296.848 191.588C296.503 191.588 296.217 191.717 295.989 191.976C295.761 192.234 295.647 192.624 295.647 193.146ZM299.573 191.108H301.918V191.68H300.264V195.184H299.573V191.108ZM302.006 193.146C302.006 192.391 302.216 191.832 302.635 191.469C302.986 191.167 303.413 191.016 303.917 191.016C304.477 191.016 304.935 191.2 305.291 191.569C305.646 191.935 305.824 192.441 305.824 193.088C305.824 193.613 305.745 194.026 305.586 194.328C305.43 194.627 305.201 194.86 304.899 195.026C304.6 195.193 304.272 195.276 303.917 195.276C303.346 195.276 302.885 195.093 302.532 194.727C302.181 194.361 302.006 193.834 302.006 193.146ZM302.716 193.146C302.716 193.668 302.83 194.059 303.057 194.32C303.285 194.579 303.572 194.708 303.917 194.708C304.26 194.708 304.545 194.577 304.773 194.316C305 194.055 305.114 193.658 305.114 193.123C305.114 192.619 304.999 192.238 304.769 191.979C304.541 191.718 304.257 191.588 303.917 191.588C303.572 191.588 303.285 191.717 303.057 191.976C302.83 192.234 302.716 192.624 302.716 193.146ZM308.821 191.108H309.512V192.87C309.732 192.87 309.885 192.827 309.972 192.743C310.062 192.659 310.192 192.413 310.364 192.006C310.499 191.684 310.609 191.472 310.694 191.369C310.778 191.267 310.875 191.198 310.985 191.162C311.095 191.126 311.272 191.108 311.515 191.108H311.653V191.68L311.461 191.676C311.28 191.676 311.163 191.703 311.112 191.757C311.058 191.813 310.976 191.981 310.866 192.26C310.761 192.526 310.666 192.71 310.579 192.812C310.492 192.914 310.357 193.008 310.176 193.092C310.472 193.172 310.764 193.448 311.051 193.921L311.807 195.184H311.047L310.31 193.921C310.159 193.668 310.027 193.502 309.915 193.422C309.802 193.34 309.668 193.299 309.512 193.299V195.184H308.821V191.108ZM312.263 196.745V191.108H312.892V191.638C313.041 191.431 313.208 191.276 313.395 191.174C313.582 191.069 313.808 191.016 314.074 191.016C314.422 191.016 314.729 191.106 314.995 191.285C315.261 191.464 315.462 191.717 315.598 192.045C315.733 192.37 315.801 192.726 315.801 193.115C315.801 193.532 315.726 193.908 315.575 194.243C315.426 194.576 315.209 194.832 314.922 195.011C314.639 195.187 314.339 195.276 314.025 195.276C313.794 195.276 313.587 195.227 313.403 195.13C313.221 195.033 313.072 194.91 312.954 194.761V196.745H312.263ZM312.889 193.169C312.889 193.693 312.995 194.081 313.207 194.332C313.419 194.582 313.677 194.708 313.978 194.708C314.285 194.708 314.548 194.579 314.765 194.32C314.985 194.059 315.095 193.656 315.095 193.111C315.095 192.592 314.988 192.203 314.773 191.945C314.56 191.686 314.306 191.557 314.009 191.557C313.715 191.557 313.454 191.695 313.226 191.972C313.001 192.245 312.889 192.645 312.889 193.169ZM319.428 193.871L320.141 193.959C320.029 194.376 319.82 194.7 319.516 194.93C319.211 195.161 318.823 195.276 318.349 195.276C317.753 195.276 317.28 195.093 316.929 194.727C316.581 194.359 316.408 193.843 316.408 193.18C316.408 192.495 316.584 191.963 316.937 191.584C317.29 191.206 317.748 191.016 318.311 191.016C318.856 191.016 319.301 191.202 319.646 191.573C319.992 191.944 320.164 192.465 320.164 193.138C320.164 193.179 320.163 193.241 320.16 193.322H317.121C317.147 193.77 317.273 194.113 317.501 194.351C317.729 194.589 318.013 194.708 318.353 194.708C318.606 194.708 318.823 194.641 319.002 194.508C319.181 194.375 319.323 194.163 319.428 193.871ZM317.16 192.755H319.435C319.405 192.412 319.318 192.155 319.174 191.983C318.954 191.717 318.669 191.584 318.319 191.584C318.001 191.584 317.734 191.69 317.517 191.903C317.302 192.115 317.183 192.399 317.16 192.755ZM321.381 191.108H324.22V194.616H324.662V196.339H324.094V195.184H320.886V196.339H320.318V194.616H320.682C321.168 193.956 321.401 192.787 321.381 191.108ZM321.956 191.68C321.905 193.003 321.701 193.981 321.342 194.616H323.534V191.68H321.956ZM325.425 191.108H326.116V194.217L328.031 191.108H328.775V195.184H328.085V192.095L326.17 195.184H325.425V191.108ZM329.443 191.108H332.755V191.68H331.442V195.184H330.755V191.68H329.443V191.108ZM335.982 194.681C335.726 194.898 335.479 195.052 335.241 195.141C335.006 195.231 334.753 195.276 334.482 195.276C334.034 195.276 333.69 195.167 333.449 194.95C333.209 194.73 333.089 194.449 333.089 194.109C333.089 193.91 333.133 193.728 333.223 193.564C333.315 193.398 333.434 193.265 333.58 193.165C333.728 193.065 333.894 192.99 334.079 192.939C334.214 192.903 334.419 192.868 334.693 192.835C335.25 192.769 335.661 192.689 335.924 192.597C335.927 192.503 335.928 192.442 335.928 192.417C335.928 192.135 335.863 191.937 335.733 191.822C335.556 191.666 335.294 191.588 334.946 191.588C334.621 191.588 334.381 191.646 334.224 191.761C334.071 191.873 333.957 192.074 333.883 192.363L333.208 192.271C333.269 191.982 333.37 191.749 333.511 191.573C333.651 191.394 333.855 191.257 334.121 191.162C334.387 191.065 334.695 191.016 335.046 191.016C335.394 191.016 335.676 191.057 335.894 191.139C336.111 191.221 336.271 191.324 336.373 191.45C336.476 191.573 336.547 191.729 336.588 191.918C336.611 192.036 336.623 192.248 336.623 192.555V193.476C336.623 194.118 336.637 194.525 336.665 194.696C336.696 194.865 336.755 195.028 336.842 195.184H336.12C336.048 195.04 336.002 194.873 335.982 194.681ZM335.924 193.138C335.674 193.241 335.298 193.328 334.796 193.399C334.512 193.44 334.311 193.486 334.194 193.537C334.076 193.589 333.985 193.664 333.921 193.764C333.857 193.861 333.825 193.97 333.825 194.09C333.825 194.274 333.894 194.428 334.033 194.55C334.173 194.673 334.378 194.735 334.647 194.735C334.913 194.735 335.149 194.677 335.356 194.562C335.564 194.444 335.716 194.284 335.813 194.082C335.887 193.926 335.924 193.696 335.924 193.392V193.138ZM339.739 190.295V189.631H343.38V190.168C343.022 190.549 342.667 191.056 342.314 191.688C341.963 192.32 341.692 192.969 341.5 193.637C341.362 194.108 341.274 194.623 341.235 195.184H340.525C340.533 194.741 340.62 194.206 340.786 193.58C340.953 192.953 341.191 192.349 341.5 191.768C341.812 191.185 342.144 190.694 342.494 190.295H339.739ZM344.067 193.71L344.793 193.649C344.846 194.002 344.97 194.268 345.165 194.447C345.362 194.623 345.598 194.712 345.875 194.712C346.207 194.712 346.489 194.586 346.719 194.336C346.949 194.085 347.064 193.752 347.064 193.338C347.064 192.944 346.953 192.633 346.73 192.405C346.51 192.178 346.221 192.064 345.863 192.064C345.641 192.064 345.44 192.115 345.261 192.217C345.082 192.317 344.941 192.448 344.839 192.609L344.19 192.524L344.735 189.635H347.532V190.295H345.288L344.984 191.807C345.322 191.571 345.676 191.454 346.047 191.454C346.539 191.454 346.953 191.624 347.291 191.964C347.628 192.304 347.797 192.742 347.797 193.276C347.797 193.786 347.649 194.226 347.352 194.596C346.991 195.052 346.499 195.28 345.875 195.28C345.363 195.28 344.945 195.136 344.62 194.85C344.298 194.563 344.113 194.183 344.067 193.71ZM348.572 190.909C348.572 190.507 348.673 190.166 348.876 189.884C349.078 189.603 349.371 189.462 349.754 189.462C350.107 189.462 350.399 189.589 350.629 189.842C350.862 190.093 350.978 190.462 350.978 190.951C350.978 191.427 350.861 191.794 350.625 192.052C350.393 192.308 350.105 192.436 349.762 192.436C349.422 192.436 349.138 192.309 348.91 192.056C348.685 191.803 348.572 191.42 348.572 190.909ZM349.773 189.938C349.602 189.938 349.459 190.012 349.344 190.16C349.231 190.309 349.175 190.581 349.175 190.978C349.175 191.339 349.232 191.593 349.348 191.741C349.463 191.887 349.605 191.96 349.773 191.96C349.947 191.96 350.091 191.886 350.203 191.738C350.318 191.589 350.376 191.318 350.376 190.924C350.376 190.561 350.318 190.306 350.203 190.16C350.088 190.012 349.945 189.938 349.773 189.938ZM349.777 195.391L352.855 189.462H353.415L350.349 195.391H349.777ZM352.21 193.864C352.21 193.459 352.311 193.118 352.513 192.839C352.715 192.558 353.01 192.417 353.396 192.417C353.749 192.417 354.041 192.543 354.271 192.797C354.504 193.047 354.62 193.417 354.62 193.906C354.62 194.382 354.502 194.749 354.267 195.007C354.034 195.263 353.745 195.391 353.4 195.391C353.06 195.391 352.776 195.264 352.548 195.011C352.323 194.755 352.21 194.373 352.21 193.864ZM353.415 192.893C353.241 192.893 353.097 192.967 352.982 193.115C352.869 193.264 352.813 193.536 352.813 193.933C352.813 194.291 352.87 194.544 352.985 194.692C353.101 194.841 353.242 194.915 353.411 194.915C353.588 194.915 353.732 194.841 353.845 194.692C353.96 194.544 354.018 194.273 354.018 193.879C354.018 193.516 353.96 193.261 353.845 193.115C353.73 192.967 353.587 192.893 353.415 192.893Z" fill="#7B7794"/>
<path d="M176.939 200.808V201.366H179.187V201.528L177.931 202.614V203.297C178.048 203.268 178.195 203.253 178.379 203.253C179.135 203.253 179.539 203.672 179.539 204.347C179.539 205.052 179.076 205.471 178.371 205.471C177.755 205.471 177.277 205.096 177.218 204.509H176.572C176.631 205.383 177.329 206.044 178.371 206.044C179.422 206.044 180.185 205.412 180.185 204.347C180.185 203.356 179.539 202.805 178.658 202.783V202.629L179.943 201.528V200.808H176.939ZM182.89 200.705C181.804 200.705 181.003 201.528 181.003 203.378C181.003 205.229 181.804 206.044 182.89 206.044C183.977 206.044 184.785 205.229 184.785 203.378C184.785 201.528 183.977 200.705 182.89 200.705ZM181.649 203.378C181.649 202.1 182.039 201.278 182.89 201.278C183.14 201.278 183.36 201.351 183.544 201.498L181.914 204.832C181.73 204.472 181.649 203.973 181.649 203.378ZM182.89 205.471C182.641 205.471 182.428 205.405 182.252 205.265L183.874 201.931C184.051 202.291 184.139 202.776 184.139 203.378C184.139 204.648 183.75 205.471 182.89 205.471ZM187.314 200.705C186.227 200.705 185.427 201.528 185.427 203.378C185.427 205.229 186.227 206.044 187.314 206.044C188.401 206.044 189.209 205.229 189.209 203.378C189.209 201.528 188.401 200.705 187.314 200.705ZM186.073 203.378C186.073 202.1 186.462 201.278 187.314 201.278C187.564 201.278 187.784 201.351 187.968 201.498L186.337 204.832C186.154 204.472 186.073 203.973 186.073 203.378ZM187.314 205.471C187.064 205.471 186.851 205.405 186.675 205.265L188.298 201.931C188.474 202.291 188.562 202.776 188.562 203.378C188.562 204.648 188.173 205.471 187.314 205.471Z" fill="#333333"/>
<path d="M263.359 203.158C263.623 203.04 264.005 202.651 264.005 202.078C264.005 201.263 263.3 200.705 262.301 200.705C261.303 200.705 260.598 201.263 260.598 202.078C260.598 202.666 260.972 203.04 261.244 203.158V203.319C260.899 203.437 260.443 203.87 260.443 204.546C260.443 205.398 261.17 206.044 262.301 206.044C263.432 206.044 264.159 205.398 264.159 204.546C264.159 203.863 263.696 203.437 263.359 203.319V203.158ZM262.301 201.263C262.889 201.263 263.373 201.557 263.373 202.108C263.373 202.658 262.889 202.959 262.301 202.959C261.714 202.959 261.229 202.658 261.229 202.108C261.229 201.557 261.714 201.263 262.301 201.263ZM262.301 205.471C261.545 205.471 261.082 205.082 261.082 204.487C261.082 203.877 261.545 203.518 262.301 203.518C263.058 203.518 263.52 203.877 263.52 204.487C263.52 205.082 263.058 205.471 262.301 205.471ZM266.872 202.49C266.395 202.49 266.116 202.636 265.881 202.849H265.719L265.836 201.366H268.252V200.808H265.315L265.087 203.518H265.734C265.954 203.194 266.292 203.033 266.754 203.033C267.445 203.033 267.878 203.532 267.878 204.237C267.878 205.001 267.415 205.471 266.732 205.471C266.108 205.471 265.69 205.148 265.609 204.509H264.97C265.029 205.375 265.631 206.044 266.762 206.044C267.805 206.044 268.524 205.324 268.524 204.208C268.524 203.253 267.9 202.49 266.872 202.49ZM271.148 200.705C270.061 200.705 269.261 201.528 269.261 203.378C269.261 205.229 270.061 206.044 271.148 206.044C272.235 206.044 273.043 205.229 273.043 203.378C273.043 201.528 272.235 200.705 271.148 200.705ZM269.907 203.378C269.907 202.1 270.296 201.278 271.148 201.278C271.398 201.278 271.618 201.351 271.802 201.498L270.172 204.832C269.988 204.472 269.907 203.973 269.907 203.378ZM271.148 205.471C270.899 205.471 270.686 205.405 270.509 205.265L272.132 201.931C272.308 202.291 272.397 202.776 272.397 203.378C272.397 204.648 272.007 205.471 271.148 205.471Z" fill="#333333"/>
<path d="M358.122 108.855L358.122 108.855C357.992 108.727 357.793 108.727 357.663 108.855C357.533 108.984 357.532 109.185 357.663 109.314C358.485 110.153 359.601 110.615 360.778 110.615C363.199 110.615 365.2 108.642 365.2 106.208C365.2 103.774 363.221 101.803 360.78 101.803C358.338 101.803 356.359 103.774 356.359 106.208V106.82C356.359 106.909 356.389 106.993 356.451 107.054C356.513 107.116 356.597 107.146 356.686 107.146C356.775 107.146 356.859 107.116 356.921 107.054C356.982 106.993 357.012 106.909 357.012 106.82V106.208C357.012 104.135 358.698 102.455 360.778 102.455C362.861 102.455 364.544 104.135 364.544 106.208C364.544 108.282 362.86 109.962 360.778 109.962C359.788 109.962 358.836 109.567 358.122 108.855Z" fill="#4563FF" stroke="#4664FF" stroke-width="0.24478"/>
<path d="M356.597 107.395L356.684 107.481L356.77 107.395L358.55 105.62C358.681 105.491 358.68 105.289 358.55 105.16C358.42 105.032 358.221 105.032 358.092 105.16L358.091 105.161L356.684 106.564L355.275 105.161L355.275 105.16C355.145 105.032 354.947 105.032 354.817 105.16C354.686 105.289 354.686 105.491 354.817 105.62L356.597 107.395Z" fill="#4563FF" stroke="#4664FF" stroke-width="0.24478"/>
<path fill-rule="evenodd" clip-rule="evenodd" d="M224.577 182.287C216.96 182.287 210.786 188.462 210.786 196.079H177.334C177.334 169.987 198.485 148.836 224.577 148.836C237.691 148.836 249.584 154.202 258.125 162.816C266.573 171.336 271.82 183.111 271.82 196.079H238.368C238.368 192.287 236.86 188.879 234.371 186.369C231.853 183.83 228.411 182.287 224.577 182.287Z" fill="#4563FF"/>
<path fill-rule="evenodd" clip-rule="evenodd" d="M214.783 186.369C212.294 188.879 210.786 192.287 210.786 196.079H177.334C177.334 183.111 182.581 171.336 191.029 162.816L214.783 186.369Z" fill="#FF0029"/>
<path d="M258.108 168.33C261.188 168.33 263.684 165.834 263.684 162.755C263.684 159.676 261.188 157.18 258.108 157.18C255.029 157.18 252.533 159.676 252.533 162.755C252.533 165.834 255.029 168.33 258.108 168.33Z" fill="white" stroke="black" stroke-width="1.17374"/>
</g>
<mask id="path-32-inside-1" fill="white">
<path fill-rule="evenodd" clip-rule="evenodd" d="M211.668 26.2207H200.351C184.506 26.2207 176.584 26.2207 170.532 29.3044C165.208 32.0168 160.88 36.345 158.168 41.6685C155.084 47.7205 155.084 55.6431 155.084 71.4882V466.061C155.084 481.906 155.084 489.828 158.168 495.88C160.88 501.204 165.208 505.532 170.532 508.245C176.584 511.328 184.506 511.328 200.352 511.328H343.489C359.334 511.328 367.257 511.328 373.309 508.245C378.632 505.532 382.96 501.204 385.673 495.88C388.757 489.828 388.757 481.906 388.757 466.061V71.4882C388.757 55.6431 388.757 47.7205 385.673 41.6685C382.96 36.345 378.632 32.0168 373.309 29.3044C367.257 26.2207 359.334 26.2207 343.489 26.2207H331.123C331.12 29.7741 331.085 31.6771 330.661 33.2623C329.403 37.9689 325.727 41.645 321.02 42.9035C319.291 43.3658 317.184 43.3658 312.97 43.3658H229.821C225.607 43.3658 223.5 43.3658 221.771 42.9035C217.064 41.645 213.388 37.9689 212.13 33.2623C211.706 31.6771 211.671 29.7741 211.668 26.2207Z"/>
</mask>
<path d="M211.668 26.2207L213.763 26.219C213.763 25.0622 212.825 24.125 211.668 24.125V26.2207ZM170.532 29.3044L169.58 27.4371L170.532 29.3044ZM158.168 41.6685L156.3 40.7171L158.168 41.6685ZM158.168 495.88L156.3 496.832L156.3 496.832L158.168 495.88ZM170.532 508.245L171.483 506.377L171.483 506.377L170.532 508.245ZM373.309 508.245L372.357 506.377L372.357 506.377L373.309 508.245ZM385.673 495.88L383.806 494.929L383.806 494.929L385.673 495.88ZM385.673 41.6685L383.806 42.6199L383.806 42.6199L385.673 41.6685ZM373.309 29.3044L374.26 27.4371L374.26 27.4371L373.309 29.3044ZM331.123 26.2207V24.125C329.966 24.125 329.028 25.0622 329.027 26.219L331.123 26.2207ZM330.661 33.2623L328.637 32.721L328.637 32.721L330.661 33.2623ZM321.02 42.9035L320.479 40.8789L320.479 40.8789L321.02 42.9035ZM221.771 42.9035L222.312 40.8789L222.312 40.8789L221.771 42.9035ZM212.13 33.2623L210.105 33.8037L210.105 33.8037L212.13 33.2623ZM200.351 28.3164H211.668V24.125H200.351V28.3164ZM171.483 31.1717C174.165 29.8055 177.352 29.0698 181.94 28.6949C186.553 28.3181 192.394 28.3164 200.351 28.3164V24.125C192.464 24.125 186.421 24.1234 181.599 24.5174C176.751 24.9135 172.951 25.7196 169.58 27.4371L171.483 31.1717ZM160.035 42.6199C162.546 37.6908 166.554 33.6832 171.483 31.1717L169.58 27.4371C163.863 30.3505 159.214 34.9992 156.3 40.7171L160.035 42.6199ZM157.18 71.4882C157.18 63.5311 157.181 57.6893 157.558 53.0766C157.933 48.4884 158.669 45.3013 160.035 42.6199L156.3 40.7171C154.583 44.0878 153.777 47.8879 153.381 52.7353C152.987 57.5582 152.988 63.6002 152.988 71.4882H157.18ZM157.18 466.061V71.4882H152.988V466.061H157.18ZM160.035 494.929C158.669 492.248 157.933 489.061 157.558 484.472C157.181 479.86 157.18 474.018 157.18 466.061H152.988C152.988 473.949 152.987 479.991 153.381 484.814C153.777 489.661 154.583 493.461 156.3 496.832L160.035 494.929ZM171.483 506.377C166.554 503.866 162.546 499.858 160.035 494.929L156.3 496.832C159.214 502.55 163.863 507.199 169.58 510.112L171.483 506.377ZM200.352 509.233C192.394 509.233 186.553 509.231 181.94 508.854C177.352 508.479 174.165 507.744 171.483 506.377L169.58 510.112C172.951 511.829 176.751 512.636 181.599 513.032C186.422 513.426 192.464 513.424 200.352 513.424V509.233ZM343.489 509.233H200.352V513.424H343.489V509.233ZM372.357 506.377C369.676 507.744 366.489 508.479 361.901 508.854C357.288 509.231 351.446 509.233 343.489 509.233V513.424C351.377 513.424 357.419 513.426 362.242 513.032C367.089 512.636 370.889 511.829 374.26 510.112L372.357 506.377ZM383.806 494.929C381.294 499.858 377.286 503.866 372.357 506.377L374.26 510.112C379.978 507.199 384.627 502.55 387.54 496.832L383.806 494.929ZM386.661 466.061C386.661 474.018 386.659 479.86 386.282 484.472C385.907 489.061 385.172 492.248 383.806 494.929L387.54 496.832C389.258 493.461 390.064 489.661 390.46 484.814C390.854 479.991 390.852 473.949 390.852 466.061H386.661ZM386.661 71.4882V466.061H390.852V71.4882H386.661ZM383.806 42.6199C385.172 45.3013 385.907 48.4884 386.282 53.0766C386.659 57.6893 386.661 63.5311 386.661 71.4882H390.852C390.852 63.6002 390.854 57.5582 390.46 52.7353C390.064 47.8879 389.258 44.0878 387.54 40.7171L383.806 42.6199ZM372.357 31.1717C377.286 33.6832 381.294 37.6908 383.806 42.6199L387.54 40.7171C384.627 34.9992 379.978 30.3505 374.26 27.4371L372.357 31.1717ZM343.489 28.3164C351.446 28.3164 357.288 28.3181 361.901 28.6949C366.489 29.0698 369.676 29.8055 372.357 31.1717L374.26 27.4371C370.889 25.7196 367.089 24.9135 362.242 24.5174C357.419 24.1234 351.377 24.125 343.489 24.125V28.3164ZM331.123 28.3164H343.489V24.125H331.123V28.3164ZM329.027 26.219C329.024 29.8641 328.974 31.4579 328.637 32.721L332.686 33.8037C333.196 31.8963 333.216 29.6841 333.219 26.2224L329.027 26.219ZM328.637 32.721C327.572 36.7034 324.461 39.814 320.479 40.8789L321.561 44.9281C326.992 43.476 331.234 39.2343 332.686 33.8037L328.637 32.721ZM320.479 40.8789C319.083 41.2521 317.319 41.2701 312.97 41.2701V45.4615C317.049 45.4615 319.499 45.4794 321.561 44.9281L320.479 40.8789ZM312.97 41.2701H229.821V45.4615H312.97V41.2701ZM229.821 41.2701C225.472 41.2701 223.708 41.2521 222.312 40.8789L221.23 44.9281C223.292 45.4794 225.742 45.4615 229.821 45.4615V41.2701ZM222.312 40.8789C218.33 39.814 215.219 36.7034 214.154 32.721L210.105 33.8037C211.557 39.2343 215.799 43.476 221.23 44.9281L222.312 40.8789ZM214.154 32.721C213.817 31.4579 213.766 29.8641 213.763 26.219L209.572 26.2224C209.575 29.6841 209.595 31.8963 210.105 33.8037L214.154 32.721Z" fill="#4563FF" mask="url(#path-32-inside-1)"/>
<defs>
<linearGradient id="paint0_linear" x1="271.921" y1="84.1706" x2="271.921" y2="216.352" gradientUnits="userSpaceOnUse">
<stop stop-color="white"/>
<stop offset="1" stop-color="white" stop-opacity="0"/>
</linearGradient>
<clipPath id="clip0">
<rect x="155.084" y="26.2207" width="233.673" height="485.108" rx="31.4358" fill="white"/>
</clipPath>
</defs>
</svg>
