<svg width="99" height="96" viewBox="0 0 99 96" fill="none" xmlns="http://www.w3.org/2000/svg">
<path d="M17.9998 73.3933C21.608 73.3933 24.5452 76.2246 24.5452 79.7117C24.5452 83.1988 21.608 86.0301 17.9998 86.0301C14.3916 86.0301 11.4544 83.1988 11.4544 79.7117C11.4544 76.2326 14.3916 73.3933 17.9998 73.3933ZM17.9998 70.1941C12.5753 70.1941 8.18164 74.457 8.18164 79.7117C8.18164 84.9664 12.5753 89.2293 17.9998 89.2293C23.4243 89.2293 27.818 84.9664 27.818 79.7117C27.818 74.457 23.4243 70.1941 17.9998 70.1941Z" fill="#4563FF"/>
<path d="M33.5449 95.9759H66.2721V0H33.5449V95.9759ZM49.9085 89.5775C44.484 89.5775 40.0904 85.2826 40.0904 79.9799C40.0904 74.6773 44.484 70.3823 49.9085 70.3823C55.3331 70.3823 59.7267 74.6773 59.7267 79.9799C59.7267 85.2826 55.3331 89.5775 49.9085 89.5775Z" fill="#4563FF"/>
<path d="M90.8169 0H66.2715V95.9759H90.8169C95.3332 95.9759 98.9987 92.3928 98.9987 87.9779V7.99799C98.9987 3.5831 95.3332 0 90.8169 0ZM82.6351 89.5775C77.2106 89.5775 72.8169 85.2826 72.8169 79.9799C72.8169 74.6773 77.2106 70.3823 82.6351 70.3823C88.0596 70.3823 92.4533 74.6773 92.4533 79.9799C92.4533 85.2826 88.0596 89.5775 82.6351 89.5775Z" fill="#FF0029"/>
<path d="M35.1818 3.1992V92.7767H8.1818C5.47363 92.7767 3.27272 90.6253 3.27272 87.9779V7.99799C3.27272 5.35066 5.47363 3.1992 8.1818 3.1992H35.1818ZM38.4545 0H8.1818C3.66545 0 0 3.5831 0 7.99799V87.9779C0 92.3928 3.66545 95.9759 8.1818 95.9759H38.4545V0Z" fill="#4563FF"/>
</svg>
