<svg width="75" height="87" viewBox="0 0 75 87" fill="none" xmlns="http://www.w3.org/2000/svg">
<path d="M11.2602 16.0873C11.2602 13.4428 13.4043 11.2943 16.0532 11.2943H62.4822L67.7542 16.1046L74.0011 21.8079V80.4115C74.0011 83.0561 71.8569 85.2045 69.2081 85.2045H16.0489C13.4043 85.2045 11.2559 83.0604 11.2559 80.4115V16.0873H11.2602Z" stroke="#4664FF" stroke-width="1.94137" stroke-miterlimit="10" stroke-linecap="round" stroke-linejoin="round"/>
<path d="M19.502 59.3323H65.3831" stroke="#4664FF" stroke-width="1.94137" stroke-miterlimit="10" stroke-linecap="round" stroke-linejoin="round"/>
<path d="M19.502 67.0768H65.3831" stroke="#4664FF" stroke-width="1.94137" stroke-miterlimit="10" stroke-linecap="round" stroke-linejoin="round"/>
<path d="M19.502 74.8162H65.3831" stroke="#4664FF" stroke-width="1.94137" stroke-miterlimit="10" stroke-linecap="round" stroke-linejoin="round"/>
<line x1="29.1325" y1="36.0316" x2="39.0631" y2="45.9622" stroke="#FF0028" stroke-width="3.01578" stroke-linecap="round"/>
<line x1="39.0625" y1="45.9622" x2="55.0247" y2="30" stroke="#FF0028" stroke-width="3.01578" stroke-linecap="round"/>
<path d="M62.4766 11.2986V19.4178C62.4766 20.7423 63.5508 21.8122 64.8709 21.8122H73.9954L62.4766 11.2986Z" fill="#4664FF" stroke="#4664FF" stroke-width="1.94137" stroke-miterlimit="10" stroke-linecap="round" stroke-linejoin="round"/>
<path d="M8.09769 75.0622V13.8528C8.09769 10.6733 10.6732 8.09769 13.8528 8.09769H63.4527V3.8353C63.4527 1.71704 61.7357 0 59.6174 0H3.8353C1.71704 0 0 1.71704 0 3.8353V71.2269C0 73.3451 1.71704 75.0622 3.8353 75.0622H8.09769Z" fill="#4664FF"/>
</svg>
