<svg width="162" height="137" viewBox="0 0 162 137" fill="none" xmlns="http://www.w3.org/2000/svg">
<path d="M103.208 4.90393H65.7906C64.2529 4.90393 63 6.18548 63 7.7583V134.05C63 135.622 64.2529 136.904 65.7906 136.904H103.208C104.745 136.904 105.998 135.622 105.998 134.05V7.7583C106.055 6.18548 104.802 4.90393 103.208 4.90393ZM84.5275 128.166C77.4086 128.166 71.5996 122.283 71.5996 114.943C71.5996 107.661 77.3517 101.719 84.5275 101.719C91.6464 101.719 97.4555 107.603 97.4555 114.943C97.3985 122.224 91.6464 128.166 84.5275 128.166Z" fill="#4563FF"/>
<path d="M154.274 4.90393H117.726C116.224 4.90393 115 6.18548 115 7.7583V134.05C115 135.622 116.224 136.904 117.726 136.904H154.274C155.776 136.904 157 135.622 157 134.05V7.7583C157 6.18548 155.776 4.90393 154.274 4.90393ZM135.972 128.166C129.019 128.166 123.344 122.283 123.344 114.943C123.344 107.661 128.963 101.719 135.972 101.719C142.981 101.719 148.6 107.603 148.6 114.943C148.6 122.224 142.981 128.166 135.972 128.166Z" fill="#FF0026"/>
<path d="M60.4227 8.35399L60.434 8.35598L60.4454 8.35771C61.369 8.49762 62.0748 9.43985 61.9249 10.5107L41.1811 134.024C41.1807 134.026 41.1804 134.028 41.1801 134.03C40.9859 135.086 40.0638 135.71 39.1287 135.532L39.1152 135.53L2.49458 129.116C2.49271 129.115 2.49085 129.115 2.48898 129.115C1.49992 128.924 0.847659 127.994 1.03115 126.981L1.03124 126.981L1.03342 126.968L21.7226 3.44273C21.723 3.44076 21.7234 3.4388 21.7237 3.43683C21.9179 2.38097 22.84 1.75764 23.775 1.93469L23.775 1.93478L23.7886 1.93716L60.4227 8.35399Z" stroke="#4563FF" stroke-width="2"/>
<path d="M36.3045 111.311C36.3045 118.124 30.9098 123.608 24.3017 123.608C17.6936 123.608 12.2988 118.124 12.2988 111.311C12.2988 104.499 17.6936 99.0153 24.3017 99.0153C30.9098 99.0153 36.3045 104.499 36.3045 111.311Z" stroke="#4563FF" stroke-width="2"/>
</svg>
