<svg width="34" height="44" viewBox="0 0 34 44" fill="none" xmlns="http://www.w3.org/2000/svg">
<path fill-rule="evenodd" clip-rule="evenodd" d="M3.51724 1.22222C2.22223 1.22222 1.17241 2.31664 1.17241 3.66667V40.3333C1.17241 41.6834 2.22223 42.7778 3.51724 42.7778H30.4828C31.7778 42.7778 32.8276 41.6834 32.8276 40.3333V12.7618L22.8936 1.22222H3.51724ZM0 3.66667C0 1.64162 1.57472 0 3.51724 0H23.1552C23.3216 0 23.4803 0.0737854 23.5915 0.202944L33.8501 12.1196C33.9466 12.2317 34 12.3771 34 12.5278V40.3333C34 42.3584 32.4253 44 30.4828 44H3.51724C1.57472 44 0 42.3584 0 40.3333V3.66667Z" fill="#7B7794"/>
<path d="M5.8623 20.7778V29.3334H7.43656V26.0861H9.98159C12.0806 26.0861 13.2613 25.0916 13.2613 23.414C13.2613 21.7724 12.0806 20.7778 9.98159 20.7778H5.8623ZM7.43656 24.816V22.048H9.74545C11.1492 22.048 11.6608 22.5513 11.6608 23.426C11.6608 24.2887 11.1492 24.816 9.74545 24.816H7.43656Z" fill="#7B7794"/>
<path d="M15.0608 20.7778V29.3334H18.7734C21.6464 29.3334 23.1026 27.6199 23.1026 25.0556C23.1026 22.4794 21.6464 20.7778 18.7734 20.7778H15.0608ZM16.6351 28.0273V22.0839H18.6422C20.7412 22.0839 21.5021 23.414 21.5021 25.0556C21.5021 26.6852 20.7412 28.0273 18.6422 28.0273H16.6351Z" fill="#7B7794"/>
<path d="M31.6554 22.0839V20.7778H24.9255V29.3334H26.4997V25.7147H30.619V24.4325H26.4997V22.0839H31.6554Z" fill="#7B7794"/>
<path fill-rule="evenodd" clip-rule="evenodd" d="M19.9312 8.92217V1.22217H20.9733V8.92217C20.9733 10.1372 21.9065 11.1222 23.0576 11.1222H29.3105V12.2222H23.0576C21.3309 12.2222 19.9312 10.7447 19.9312 8.92217Z" fill="#7B7794"/>
</svg>
