<svg width="103" height="92" viewBox="0 0 103 92" fill="none" xmlns="http://www.w3.org/2000/svg">
<g filter="url(#filter0_i_20191_231496)">
<path d="M43.9009 52.7554L29.6426 28.1794C37.5829 24.0796 46.5779 22.3494 55.5216 23.2194C62.1409 23.8634 68.5049 25.9096 74.1924 29.18L59.7788 53.6108C57.6256 52.363 55.2124 51.5827 52.7017 51.3384C49.6836 51.0448 46.65 51.538 43.9009 52.7554Z" fill="white"/>
</g>
<path d="M33.75 68.335C33.75 68.4059 33.75 68.4767 33.75 68.5475H5C5 51.7594 14.2 36.9547 27.9281 29.0919L42.3031 53.672C37.2 56.6471 33.75 62.1015 33.75 68.335Z" fill="#FD2232"/>
<path d="M96.9272 65.8557V66.139C96.999 66.8474 96.999 67.6266 96.999 68.335V68.5475H68.2491V67.3433C68.1772 67.2016 68.1772 66.9891 68.1772 66.8474C68.1772 66.7412 68.1592 66.6526 68.1413 66.5641C68.1233 66.4755 68.1053 66.387 68.1053 66.2807C68.1053 66.1637 68.0835 66.0682 68.0639 65.9823C68.048 65.9122 68.0334 65.8486 68.0334 65.7849C68.0334 65.5724 68.0334 65.3599 67.9616 65.1473C67.9256 65.0411 67.9077 64.9348 67.8897 64.8286C67.8717 64.7223 67.8538 64.6161 67.8178 64.5098C67.7789 64.4331 67.7611 64.3357 67.7415 64.2287C67.7249 64.1381 67.707 64.0406 67.6741 63.9431C67.6381 63.8723 67.6202 63.8015 67.6022 63.7306C67.5842 63.6598 67.5662 63.589 67.5303 63.5181C67.4944 63.4473 67.4764 63.3587 67.4584 63.2702C67.4405 63.1817 67.4225 63.0931 67.3866 63.0223C67.3506 62.9514 67.3327 62.8806 67.3147 62.8098C67.2967 62.7389 67.2788 62.6681 67.2428 62.5973C67.2069 62.491 67.1709 62.4025 67.135 62.3139C67.0991 62.2254 67.0631 62.1368 67.0272 62.0306C67.0272 61.9951 67.0092 61.9774 66.9913 61.9597C66.9733 61.942 66.9553 61.9243 66.9553 61.8889L55.5272 66.7766C55.2397 68.9725 53.371 70.7434 50.9991 70.7434C48.4835 70.7434 46.471 68.76 46.471 66.2807C46.471 63.8015 48.4835 61.8181 50.9991 61.8181C52.0053 61.8181 52.9397 62.1722 53.7303 62.7389L85.5709 51.7594L85.2834 50.9802L64.1522 57.4971C64.1522 57.4617 64.1342 57.4439 64.1163 57.4262C64.0983 57.4085 64.0803 57.3908 64.0803 57.3554C64.0444 57.2846 63.9905 57.2314 63.9366 57.1783C63.8827 57.1252 63.8288 57.0721 63.7928 57.0012C63.6491 56.7887 63.5053 56.6471 63.3616 56.5054L63.0022 56.1512C62.904 56.006 62.7722 55.8938 62.6527 55.7922C62.5973 55.7451 62.5446 55.7002 62.4991 55.6553C62.449 55.5566 62.3639 55.4922 62.2926 55.4383C62.2617 55.4149 62.2333 55.3934 62.2116 55.372C61.9959 55.3012 61.8522 55.1595 61.7084 55.0178C61.6725 54.9824 61.6186 54.947 61.5647 54.9116C61.5108 54.8761 61.4569 54.8407 61.4209 54.8053C61.3131 54.7345 61.1873 54.6459 61.0616 54.5574C60.9358 54.4688 60.81 54.3803 60.7022 54.3095C60.6663 54.3095 60.6483 54.2917 60.6303 54.274C60.6124 54.2563 60.5944 54.2386 60.5584 54.2386C60.4147 54.1678 60.2889 54.0792 60.1631 53.9907C60.0373 53.9022 59.9116 53.8136 59.7678 53.7428C57.2522 52.1844 54.2335 51.3344 50.9991 51.3344C48.5004 51.3344 46.0725 51.8236 43.927 52.802L43.2244 51.5911C45.5812 50.5445 48.2195 49.9176 50.9991 49.9176C54.4491 49.9176 57.6116 50.8385 60.4147 52.4677L73.3522 30.3669C66.8116 26.6126 59.1209 24.4167 50.9991 24.4167C43.5704 24.4167 36.4966 26.2357 30.3422 29.387L29.6387 28.1744C36.0047 24.8867 43.2892 23 50.9991 23C59.4084 23 67.3147 25.2667 74.0709 29.0919C74.2063 29.1364 74.3133 29.2087 74.4098 29.274C74.467 29.3127 74.5205 29.3489 74.5741 29.3752C74.7178 29.5169 74.8616 29.5877 75.0053 29.5169C75.5084 29.8002 76.0834 30.1544 76.5866 30.5086C76.6584 30.5086 76.7303 30.5794 76.8022 30.6503C77.0178 30.8274 77.2514 30.9867 77.485 31.1461C77.7186 31.3055 77.9522 31.4649 78.1678 31.642C78.2397 31.6774 78.3116 31.7305 78.3834 31.7836C78.4553 31.8368 78.5272 31.8899 78.5991 31.9253C78.8506 32.1378 79.1022 32.3326 79.3538 32.5274C79.6053 32.7222 79.8569 32.917 80.1084 33.1295L80.2522 33.2712C80.4678 33.4837 80.7014 33.6785 80.935 33.8733C81.1686 34.0681 81.4022 34.2629 81.6178 34.4754L81.9053 34.7588C82.4084 35.1837 82.8396 35.6087 83.3427 36.1045L83.4147 36.1755C83.9178 36.6713 84.349 37.0963 84.7803 37.5922C84.8805 37.6416 84.9458 37.7254 85.0005 37.7956C85.0243 37.8261 85.046 37.8541 85.0678 37.8755C86.0022 38.8672 86.8647 39.9298 87.6553 40.9923C87.7272 41.134 87.799 41.2048 87.8709 41.2757C88.6616 42.3382 89.4522 43.4716 90.1709 44.6049C90.1984 44.6591 90.2153 44.7028 90.2298 44.7402C90.2533 44.8007 90.2702 44.8445 90.3147 44.8883C91.0334 46.0925 91.7522 47.2967 92.3272 48.5009C92.3546 48.555 92.3716 48.5988 92.3861 48.6362C92.4095 48.6967 92.4265 48.7405 92.4709 48.7843C93.1178 50.0593 93.6209 51.3344 94.124 52.6094C94.124 52.6924 94.1487 52.7511 94.1691 52.7997C94.1836 52.8341 94.1959 52.8634 94.1959 52.8927C94.699 54.1678 95.1303 55.5137 95.4897 56.8596C95.4897 56.895 95.5076 56.9481 95.5256 57.0012C95.5436 57.0543 95.5615 57.1075 95.5615 57.1429C95.9209 58.5596 96.2084 59.9055 96.424 61.3222C96.4959 61.393 96.4959 61.5347 96.4959 61.6056C96.7115 62.9514 96.8553 64.439 96.9272 65.8557Z" fill="#6FE566"/>
<defs>
<filter id="filter0_i_20191_231496" x="29.6426" y="23" width="44.5488" height="30.6108" filterUnits="userSpaceOnUse" color-interpolation-filters="sRGB">
<feFlood flood-opacity="0" result="BackgroundImageFix"/>
<feBlend mode="normal" in="SourceGraphic" in2="BackgroundImageFix" result="shape"/>
<feColorMatrix in="SourceAlpha" type="matrix" values="0 0 0 0 0 0 0 0 0 0 0 0 0 0 0 0 0 0 127 0" result="hardAlpha"/>
<feOffset/>
<feGaussianBlur stdDeviation="7.5"/>
<feComposite in2="hardAlpha" operator="arithmetic" k2="-1" k3="1"/>
<feColorMatrix type="matrix" values="0 0 0 0 0.886275 0 0 0 0 0.894118 0 0 0 0 0.92549 0 0 0 1 0"/>
<feBlend mode="normal" in2="shape" result="effect1_innerShadow_20191_231496"/>
</filter>
</defs>
</svg>
