<svg width="92" height="92" viewBox="0 0 92 92" fill="none" xmlns="http://www.w3.org/2000/svg">
<rect x="4" y="12.5238" width="76" height="40.7143" rx="6" fill="#F1F3F8"/>
<path d="M23.7274 39.3976C20.3098 39.3976 17.5137 36.6015 17.5137 33.184C17.5137 29.7664 20.3098 26.9703 23.7274 26.9703C27.1449 26.9703 29.941 29.7664 29.941 33.184C29.941 36.6015 27.1449 39.3976 23.7274 39.3976ZM23.7274 28.5237C21.1642 28.5237 19.0671 30.6208 19.0671 33.184C19.0671 35.7471 21.1642 37.8442 23.7274 37.8442C26.2905 37.8442 28.3876 35.7471 28.3876 33.184C28.3876 30.6208 26.2905 28.5237 23.7274 28.5237Z" fill="#4563FF"/>
<path d="M41.8247 39.786C45.4709 39.786 48.4267 36.8302 48.4267 33.184C48.4267 29.5378 45.4709 26.582 41.8247 26.582C38.1785 26.582 35.2227 29.5378 35.2227 33.184C35.2227 36.8302 38.1785 39.786 41.8247 39.786Z" fill="#4563FF"/>
<path d="M59.9243 39.786C63.5705 39.786 66.5263 36.8302 66.5263 33.184C66.5263 29.5378 63.5705 26.582 59.9243 26.582C56.2781 26.582 53.3223 29.5378 53.3223 33.184C53.3223 36.8302 56.2781 39.786 59.9243 39.786Z" fill="#FF0029"/>
<path d="M13.5 60.0239L71.4048 60.4762C71.4048 60.4762 60.5476 45.5477 41.5476 45.5477C23.4524 45.5477 13.5 60.0239 13.5 60.0239Z" fill="white"/>
<path d="M75.4573 12.5238H8.66026C6.09712 12.5238 4 14.6209 4 17.1841V49.1845C4 51.7476 6.09712 53.8448 8.66026 53.8448H17.4371C15.573 55.3982 13.7866 57.1846 12.2332 59.1264C10.8351 60.9128 10.8351 63.476 12.2332 65.2624C19.5343 74.3499 30.4082 79.4762 41.9811 79.4762C53.5541 79.4762 64.4281 74.2722 71.7291 65.2624C73.1272 63.476 73.1272 60.9128 71.7291 59.1264C70.1757 57.1846 68.3892 55.3982 66.5251 53.8448H75.302C77.8651 53.8448 79.9623 51.7476 79.9623 49.1845V17.1841C80.1176 14.6209 78.0204 12.5238 75.4573 12.5238ZM70.5641 60.1361C71.5738 61.3788 71.5738 63.0876 70.5641 64.3303C63.5737 73.0295 53.1657 78.0004 41.9811 78.0004C30.7965 78.0004 20.3887 73.0295 13.3983 64.3303C12.3885 63.0876 12.3885 61.3788 13.3983 60.1361C20.3887 51.437 30.7965 46.466 41.9811 46.466C53.1657 46.466 63.5737 51.437 70.5641 60.1361ZM78.5641 49.1845C78.5641 50.8933 77.1661 52.2913 75.4573 52.2913H64.6611C58.1368 47.5534 50.2919 44.9126 42.0588 44.9126C33.8257 44.9126 25.9032 47.5534 19.4565 52.2913H8.66026C6.9515 52.2913 5.55342 50.8933 5.55342 49.1845V17.1841C5.55342 15.4753 6.9515 14.0772 8.66026 14.0772H75.4573C77.1661 14.0772 78.5641 15.4753 78.5641 17.1841V49.1845Z" fill="#4563FF"/>
<path d="M42.0592 50.8936C40.6611 50.8936 39.3407 51.1266 38.098 51.5926C40.1951 52.3693 41.6708 54.3111 41.6708 56.7189C41.6708 59.748 39.263 62.1558 36.2338 62.1558C33.9814 62.1558 32.1174 60.8354 31.263 58.8937C30.9523 59.9034 30.7969 60.9908 30.7969 62.1558C30.7969 68.3695 35.8455 73.4181 42.0592 73.4181C48.2728 73.4181 53.3215 68.3695 53.3215 62.1558C53.3215 55.9422 48.2728 50.8936 42.0592 50.8936Z" fill="#4563FF"/>
</svg>
