<svg width="96" height="96" viewBox="0 0 96 96" fill="none" xmlns="http://www.w3.org/2000/svg">
<path d="M71.7148 9H25.7148C22.9534 9 20.7148 11.2386 20.7148 14V74C20.7148 76.7614 22.9534 79 25.7148 79H71.7148C74.4763 79 76.7148 76.7614 76.7148 74V14C76.7148 11.2386 74.4763 9 71.7148 9Z" fill="#4563FF"/>
<path d="M66.7148 14H20.7148C17.9534 14 15.7148 16.2386 15.7148 19V79C15.7148 81.7614 17.9534 84 20.7148 84H66.7148C69.4763 84 71.7148 81.7614 71.7148 79V19C71.7148 16.2386 69.4763 14 66.7148 14Z" fill="#F1F3F8"/>
<line x1="23.7148" y1="25" x2="63.7148" y2="25" stroke="#4563FF" stroke-width="2" stroke-linecap="round"/>
<line x1="23.7148" y1="32" x2="63.7148" y2="32" stroke="#4563FF" stroke-width="2" stroke-linecap="round"/>
<line x1="23.7148" y1="39" x2="63.7148" y2="39" stroke="#4563FF" stroke-width="2" stroke-linecap="round"/>
<line x1="23.7148" y1="46" x2="42.7148" y2="46" stroke="#4563FF" stroke-width="2" stroke-linecap="round"/>
<circle cx="59.7148" cy="77" r="2" fill="#4563FF"/>
<circle cx="65.7148" cy="77" r="2" fill="#FF0029"/>
<circle cx="18.7148" cy="83" r="10" fill="white"/>
<mask id="mask0_20141_240457" style="mask-type:alpha" maskUnits="userSpaceOnUse" x="6" y="71" width="25" height="24">
<rect x="6.71484" y="71" width="24" height="24" fill="#4563FF"/>
</mask>
<g mask="url(#mask0_20141_240457)">
<path d="M18.7148 89.2C19.0815 89.2 19.3982 89.0707 19.6648 88.812C19.9315 88.554 20.0732 88.2333 20.0898 87.85H17.3398C17.3565 88.2333 17.4982 88.554 17.7648 88.812C18.0315 89.0707 18.3482 89.2 18.7148 89.2ZM14.9148 86.575H22.5398C22.7732 86.575 22.9648 86.4957 23.1148 86.337C23.2648 86.179 23.3398 85.9917 23.3398 85.775C23.3398 85.5417 23.2608 85.346 23.1028 85.188C22.9442 85.0293 22.7482 84.95 22.5148 84.95H22.3398V82.3C22.3398 81.3667 22.0938 80.5167 21.6018 79.75C21.1105 78.9833 20.4315 78.5 19.5648 78.3V77.625C19.5648 77.3917 19.4858 77.1917 19.3278 77.025C19.1692 76.8583 18.9648 76.775 18.7148 76.775C18.4648 76.775 18.2605 76.8583 18.1018 77.025C17.9438 77.1917 17.8648 77.3917 17.8648 77.625V78.3C16.9982 78.5 16.3192 78.979 15.8278 79.737C15.3358 80.4957 15.0898 81.3417 15.0898 82.275V84.95H14.8898C14.6732 84.95 14.4898 85.0293 14.3398 85.188C14.1898 85.346 14.1148 85.5417 14.1148 85.775C14.1148 85.9917 14.1942 86.179 14.3528 86.337C14.5108 86.4957 14.6982 86.575 14.9148 86.575ZM18.7148 92.5C17.3982 92.5 16.1608 92.25 15.0028 91.75C13.8442 91.25 12.8398 90.575 11.9898 89.725C11.1398 88.875 10.4648 87.8707 9.96484 86.712C9.46484 85.554 9.21484 84.3167 9.21484 83C9.21484 81.6833 9.46484 80.4457 9.96484 79.287C10.4648 78.129 11.1398 77.125 11.9898 76.275C12.8398 75.425 13.8442 74.75 15.0028 74.25C16.1608 73.75 17.3982 73.5 18.7148 73.5C20.0315 73.5 21.2692 73.75 22.4278 74.25C23.5858 74.75 24.5898 75.425 25.4398 76.275C26.2898 77.125 26.9648 78.129 27.4648 79.287C27.9648 80.4457 28.2148 81.6833 28.2148 83C28.2148 84.3167 27.9648 85.554 27.4648 86.712C26.9648 87.8707 26.2898 88.875 25.4398 89.725C24.5898 90.575 23.5858 91.25 22.4278 91.75C21.2692 92.25 20.0315 92.5 18.7148 92.5ZM18.7148 91C20.9315 91 22.8192 90.221 24.3778 88.663C25.9358 87.1043 26.7148 85.2167 26.7148 83C26.7148 80.7833 25.9358 78.8957 24.3778 77.337C22.8192 75.779 20.9315 75 18.7148 75C16.4982 75 14.6108 75.779 13.0528 77.337C11.4942 78.8957 10.7148 80.7833 10.7148 83C10.7148 85.2167 11.4942 87.1043 13.0528 88.663C14.6108 90.221 16.4982 91 18.7148 91ZM16.7148 84.95V81.875C16.7148 81.325 16.9108 80.854 17.3028 80.462C17.6942 80.0707 18.1648 79.875 18.7148 79.875C19.2648 79.875 19.7358 80.0707 20.1278 80.462C20.5192 80.854 20.7148 81.325 20.7148 81.875V84.95H16.7148Z" fill="#4563FF"/>
</g>
<mask id="mask1_20141_240457" style="mask-type:alpha" maskUnits="userSpaceOnUse" x="6" y="71" width="25" height="24">
<rect x="6.71484" y="71" width="24" height="24" fill="#4563FF"/>
</mask>
<g mask="url(#mask1_20141_240457)">
<path d="M18.7148 89.2C19.0815 89.2 19.3982 89.0707 19.6648 88.812C19.9315 88.554 20.0732 88.2333 20.0898 87.85H17.3398C17.3565 88.2333 17.4982 88.554 17.7648 88.812C18.0315 89.0707 18.3482 89.2 18.7148 89.2ZM14.9148 86.575H22.5398C22.7732 86.575 22.9648 86.4957 23.1148 86.337C23.2648 86.179 23.3398 85.9917 23.3398 85.775C23.3398 85.5417 23.2608 85.346 23.1028 85.188C22.9442 85.0293 22.7482 84.95 22.5148 84.95H22.3398V82.3C22.3398 81.3667 22.0938 80.5167 21.6018 79.75C21.1105 78.9833 20.4315 78.5 19.5648 78.3V77.625C19.5648 77.3917 19.4858 77.1917 19.3278 77.025C19.1692 76.8583 18.9648 76.775 18.7148 76.775C18.4648 76.775 18.2605 76.8583 18.1018 77.025C17.9438 77.1917 17.8648 77.3917 17.8648 77.625V78.3C16.9982 78.5 16.3192 78.979 15.8278 79.737C15.3358 80.4957 15.0898 81.3417 15.0898 82.275V84.95H14.8898C14.6732 84.95 14.4898 85.0293 14.3398 85.188C14.1898 85.346 14.1148 85.5417 14.1148 85.775C14.1148 85.9917 14.1942 86.179 14.3528 86.337C14.5108 86.4957 14.6982 86.575 14.9148 86.575ZM18.7148 92.5C17.3982 92.5 16.1608 92.25 15.0028 91.75C13.8442 91.25 12.8398 90.575 11.9898 89.725C11.1398 88.875 10.4648 87.8707 9.96484 86.712C9.46484 85.554 9.21484 84.3167 9.21484 83C9.21484 81.6833 9.46484 80.4457 9.96484 79.287C10.4648 78.129 11.1398 77.125 11.9898 76.275C12.8398 75.425 13.8442 74.75 15.0028 74.25C16.1608 73.75 17.3982 73.5 18.7148 73.5C20.0315 73.5 21.2692 73.75 22.4278 74.25C23.5858 74.75 24.5898 75.425 25.4398 76.275C26.2898 77.125 26.9648 78.129 27.4648 79.287C27.9648 80.4457 28.2148 81.6833 28.2148 83C28.2148 84.3167 27.9648 85.554 27.4648 86.712C26.9648 87.8707 26.2898 88.875 25.4398 89.725C24.5898 90.575 23.5858 91.25 22.4278 91.75C21.2692 92.25 20.0315 92.5 18.7148 92.5ZM18.7148 91C20.9315 91 22.8192 90.221 24.3778 88.663C25.9358 87.1043 26.7148 85.2167 26.7148 83C26.7148 80.7833 25.9358 78.8957 24.3778 77.337C22.8192 75.779 20.9315 75 18.7148 75C16.4982 75 14.6108 75.779 13.0528 77.337C11.4942 78.8957 10.7148 80.7833 10.7148 83C10.7148 85.2167 11.4942 87.1043 13.0528 88.663C14.6108 90.221 16.4982 91 18.7148 91ZM16.7148 84.95V81.875C16.7148 81.325 16.9108 80.854 17.3028 80.462C17.6942 80.0707 18.1648 79.875 18.7148 79.875C19.2648 79.875 19.7358 80.0707 20.1278 80.462C20.5192 80.854 20.7148 81.325 20.7148 81.875V84.95H16.7148Z" fill="#4563FF"/>
</g>
</svg>
