<svg width="128" height="84" viewBox="0 0 128 84" fill="none" xmlns="http://www.w3.org/2000/svg">
<path d="M63.2112 2.44983H40.2946C39.3528 2.44983 38.5854 3.23474 38.5854 4.19804V81.5472C38.5854 82.5105 39.3528 83.2954 40.2946 83.2954H63.2112C64.153 83.2954 64.9204 82.5105 64.9204 81.5472V4.19804C64.9553 3.23474 64.1879 2.44983 63.2112 2.44983ZM51.7704 77.9438C47.4103 77.9438 43.8524 74.3403 43.8524 69.845C43.8524 65.3852 47.3754 61.7461 51.7704 61.7461C56.1304 61.7461 59.6883 65.3496 59.6883 69.845C59.6534 74.3047 56.1304 77.9438 51.7704 77.9438Z" fill="white"/>
<path d="M94.4877 2.44983H72.1031C71.1832 2.44983 70.4336 3.23474 70.4336 4.19804V81.5472C70.4336 82.5105 71.1832 83.2954 72.1031 83.2954H94.4877C95.4076 83.2954 96.1572 82.5105 96.1572 81.5472V4.19804C96.1572 3.23474 95.4076 2.44983 94.4877 2.44983ZM83.2784 77.9438C79.0195 77.9438 75.5442 74.3403 75.5442 69.845C75.5442 65.3853 78.9854 61.7461 83.2784 61.7461C87.5713 61.7461 91.0125 65.3496 91.0125 69.845C91.0125 74.3047 87.5713 77.9438 83.2784 77.9438Z" fill="#FF0026"/>
<path d="M103.143 3.82666H125.892C126.254 3.82666 126.589 4.13675 126.589 4.56157V81.3224C126.589 81.7472 126.254 82.0573 125.892 82.0573H103.143C102.782 82.0573 102.447 81.7472 102.447 81.3224V4.56157C102.447 4.13674 102.782 3.82666 103.143 3.82666Z" stroke="white" stroke-width="2"/>
<path d="M36.94 4.94464L36.9514 4.94663L36.9628 4.94835C37.2956 4.99877 37.6066 5.35959 37.5438 5.82527L24.8407 81.4628C24.8404 81.4646 24.8401 81.4663 24.8398 81.4681C24.7555 81.9191 24.381 82.1399 24.0371 82.0748L24.0371 82.0747L24.0236 82.0723L1.59995 78.1447C1.59816 78.1443 1.59637 78.144 1.59459 78.1436C1.19697 78.0655 0.938914 77.6957 1.01288 77.2872L1.01296 77.2873L1.01514 77.2742L13.6857 1.62399C13.6861 1.6222 13.6864 1.62041 13.6867 1.61863C13.771 1.16769 14.1455 0.946963 14.4893 1.01207L14.4893 1.01217L14.5028 1.01454L36.94 4.94464Z" stroke="white" stroke-width="2"/>
<path d="M21.8475 67.6209C21.8475 71.5873 18.7088 74.7644 14.8837 74.7644C11.0586 74.7644 7.91992 71.5873 7.91992 67.6209C7.91992 63.6546 11.0586 60.4775 14.8837 60.4775C18.7088 60.4775 21.8475 63.6546 21.8475 67.6209Z" stroke="white" stroke-width="2"/>
<path d="M121.493 69.515C121.493 73.5651 118.341 76.7833 114.531 76.7833C110.722 76.7833 107.569 73.5651 107.569 69.515C107.569 65.4649 110.722 62.2467 114.531 62.2467C118.341 62.2467 121.493 65.4649 121.493 69.515Z" stroke="white" stroke-width="2"/>
</svg>
