<svg width="192" height="228" viewBox="0 0 192 228" fill="none" xmlns="http://www.w3.org/2000/svg">
<g clip-path="url(#clip0_20048_228194)">
<path d="M158.531 -2.62407C213.405 13.0813 245.359 70.6595 229.654 125.534C213.948 180.408 156.37 212.362 101.496 196.656C46.6215 180.951 14.668 123.373 30.3734 68.4983C46.0788 13.6241 103.657 -18.3295 158.531 -2.62407ZM158.944 -4.06812C103.059 -20.0628 44.924 12.1999 28.9293 68.085C12.9346 123.97 45.1973 182.105 101.082 198.1C156.968 214.095 215.103 181.832 231.098 125.947C247.092 70.062 214.83 11.9266 158.944 -4.06812Z" fill="#344CCC"/>
<path d="M157.046 2.57375C209.176 17.4939 239.377 71.9145 224.457 124.045C209.537 176.176 155.117 206.377 102.986 191.457C50.8555 176.537 20.6543 122.116 35.5744 69.9854C50.4945 17.8548 104.915 -12.3464 157.046 2.57375ZM157.252 1.85172C104.689 -13.1924 49.8965 17.215 34.8524 69.7787C19.8082 122.342 50.2156 177.135 102.779 192.179C155.343 207.223 210.135 176.815 225.179 124.252C240.223 71.6879 209.816 16.8959 157.252 1.85172Z" fill="#344CCC"/>
<path d="M147.626 35.4989C181.561 45.2114 201.249 80.687 191.536 114.622C181.824 148.558 146.348 168.245 112.413 158.533C78.4775 148.82 58.79 113.345 68.5025 79.4092C78.2151 45.4738 113.691 25.7863 147.626 35.4989ZM147.833 34.7769C113.464 24.9403 77.6171 44.834 67.7805 79.2026C57.944 113.571 77.8376 149.418 112.206 159.255C146.575 169.091 182.422 149.198 192.258 114.829C202.095 80.4604 182.201 44.6134 147.833 34.7769Z" fill="#344CCC"/>
<path d="M78.4914 155.853L71.6814 158.904L70.444 157.768L83.4654 152.121L84.7029 153.257L80.782 154.947L78.4048 164.89L77.0229 163.714L78.6976 156.225L78.4914 155.853Z" fill="#344CCC"/>
<path d="M69.6079 139.406L73.1374 136.354L74.1891 137.592L71.7536 139.551L78.0636 146.981L80.4991 145.023L81.5508 146.261L78.0213 149.313L77.2171 148.302C75.3393 148.858 72.6773 149.971 69.3749 152.775L67.3522 154.383L62.0938 148.191L70.7627 140.83L69.6079 139.406ZM64.1982 148.481L67.4563 152.382L68.5089 151.434C71.5843 148.877 74.1433 147.578 76.021 147.022L71.8143 142.068L64.1982 148.481Z" fill="#344CCC"/>
<path d="M58.5537 129.992C61.7112 128.24 65.3836 128.51 67.342 132.039C69.1974 135.382 67.6278 138.682 64.429 140.579C61.2301 142.476 57.5991 142.061 55.6406 138.532C53.6822 135.003 55.2517 131.703 58.5537 129.992ZM59.2339 131.437C56.8193 132.777 55.3533 135.169 56.7964 137.77C58.2394 140.37 61.0454 140.392 63.46 139.052C65.8745 137.712 67.3405 135.319 65.8974 132.719C64.4957 129.974 61.6484 130.097 59.2339 131.437Z" fill="#344CCC"/>
<path d="M54.2043 121.717C53.3802 119.138 54.1033 117.158 56.4969 116.437C58.7462 115.674 60.6439 116.686 61.468 119.266L63.2606 124.466L50.9826 128.607L48.201 120.312L49.6043 119.776L51.8914 126.524L55.5025 125.37L54.2043 121.717ZM60.1678 119.987C59.5085 117.924 58.3946 117.449 56.9914 117.984C55.5882 118.52 55.01 119.448 55.6693 121.512L56.8644 124.979L61.3629 123.454L60.1678 119.987Z" fill="#344CCC"/>
<path d="M45.279 104.321L57.9892 102.49L58.1536 104.099L52.2937 104.922L53.3633 112.103L59.2232 111.28L59.3875 112.889L46.6773 114.72L46.5129 113.11L51.8983 112.308L50.8287 105.128L45.4434 105.93L45.279 104.321Z" fill="#344CCC"/>
<path d="M51.7851 87.5901C55.4988 87.7156 58.3037 89.9245 58.2813 93.8239C58.1145 97.6821 55.0601 99.6201 51.3464 99.4946C47.6326 99.3691 44.8277 97.1602 44.8501 93.2607C45.0169 89.4026 48.0713 87.4646 51.7851 87.5901ZM51.7636 89.3025C49.1434 89.1775 46.4814 90.2905 46.3768 93.3852C46.2722 96.48 48.7062 97.8016 51.3264 97.9265C53.9467 98.0515 56.6087 96.9386 56.7133 93.8438C56.8178 90.7491 54.4252 89.2831 51.7636 89.3025Z" fill="#344CCC"/>
<path d="M200.972 143.882L189.854 137.419L190.701 136.099L200.643 141.757L204.133 135.569L194.19 129.911L195.037 128.591L206.155 135.054L200.972 143.882Z" fill="#344CCC"/>
<path d="M186.28 148.27L189.851 143.98L187.748 140.41L188.884 139.172L195.852 150.853L194.139 153.019L181.473 148.144L182.608 146.907L186.28 148.27ZM190.717 145.322L187.683 148.828L193.438 151.1L193.892 150.605L190.717 145.322Z" fill="#344CCC"/>
<path d="M174.227 158.723C173.093 156.68 173.465 154.287 175.715 152.431C178.605 149.977 182.112 150.825 184.566 153.714C187.019 156.604 187.224 160.256 184.19 162.669C182.167 164.277 179.939 164.42 178.124 163.12L179.362 162.068C180.579 162.729 181.817 162.771 183.241 161.616C185.491 159.76 185.039 156.975 183.286 154.91C181.533 152.846 178.872 151.772 176.622 153.628C175.198 154.783 174.929 156.268 175.609 157.713L174.227 158.723Z" fill="#344CCC"/>
<path d="M167.16 173.577L160.831 162.391L162.317 161.567L165.203 166.767L171.518 163.263L168.632 158.062L170.118 157.238L176.447 168.423L174.961 169.248L172.281 164.418L165.966 167.923L168.646 172.752L167.16 173.577Z" fill="#344CCC"/>
<path d="M149.234 173.445C148.039 169.978 149.072 166.368 152.828 165.255C156.625 163.998 159.43 166.207 160.625 169.674C161.82 173.141 160.828 176.607 157.031 177.863C153.275 178.976 150.285 176.87 149.234 173.445ZM150.823 172.806C151.647 175.385 153.73 177.387 156.537 176.316C159.487 175.286 159.943 172.604 158.974 169.983C158.15 167.403 156.067 165.401 153.261 166.473C150.31 167.503 149.813 170.329 150.823 172.806Z" fill="#344CCC"/>
<path d="M94.7063 25.5089C97.1209 24.169 99.1425 24.7476 100.235 26.9351C101.328 29.1226 100.605 31.1029 98.0869 32.2572L93.1547 34.7514L87.3829 23.2567L95.2456 19.2577L95.9671 20.5578L89.549 23.8767L91.26 27.1786L94.7063 25.5089ZM97.2827 31.2458C99.2845 30.2564 99.4707 29.0598 98.7492 27.7597C98.0276 26.4595 96.9137 25.9845 95.0564 27.0152L91.7958 28.5818L94.0221 32.8124L97.2827 31.2458Z" fill="#344CCC"/>
<path d="M104.237 29.3303L100.755 16.9288L102.303 16.4343L103.601 21.1803L106.985 20.274C109.709 19.4913 111.751 20.5444 112.327 22.8968C113.048 25.2904 111.892 27.1468 109.168 27.9296L104.237 29.3303ZM108.447 26.6294C110.655 26.0114 111.13 24.8975 110.78 23.3912C110.43 21.8849 109.357 21.2655 107.149 21.8834L104.095 22.728L105.496 27.6597L108.447 26.6294ZM113.157 13.4476L116.638 25.8491L115.09 26.3436L111.609 13.9421L113.157 13.4476Z" fill="#344CCC"/>
<path d="M129.888 21.0474C129.556 23.2962 127.926 25.173 125.078 25.2955C121.241 25.6032 118.89 22.8993 118.726 19.1029C118.419 15.2652 120.38 12.2332 124.177 12.0699C126.735 11.8647 128.694 13.2067 129.354 15.2702L127.6 15.3932C127.023 14.1344 125.992 13.3705 124.238 13.4935C121.205 13.7191 120.172 16.2357 120.336 18.9386C120.5 21.6415 122.025 23.953 125.017 23.8718C126.771 23.7488 127.865 22.6558 128.278 21.2118L129.888 21.0474Z" fill="#344CCC"/>
<path d="M142.436 14.3266L138.186 13.8914L137.108 25.3005L135.581 25.176L136.659 13.7669L132.409 13.3317L132.492 11.9494L142.56 12.7999L142.436 14.3266Z" fill="#344CCC"/>
<path d="M151.926 15.0125C154.711 15.6534 155.742 17.5107 155.225 19.8625C154.564 22.173 152.707 23.2038 150.066 22.6043L146.415 21.7154L145.154 26.6666L143.565 26.2119L146.831 13.7104L151.926 15.0125ZM150.087 20.8918C152.254 21.5118 153.265 20.7076 153.534 19.2222C153.803 17.7368 153.329 16.6637 151.266 16.2295L147.759 15.382L146.58 20.0443L150.087 20.8918Z" fill="#344CCC"/>
<path d="M168.321 28.1416C166.751 31.442 163.697 33.38 160.107 31.7278C156.518 30.0756 155.983 26.4854 157.408 23.1436C158.978 19.8432 162.032 17.9052 165.622 19.5574C169.211 21.2096 169.89 24.8411 168.321 28.1416ZM166.773 27.5425C167.951 25.0672 167.787 22.3643 165.064 20.9601C162.3 19.7003 160.091 21.4117 158.914 23.8871C157.737 26.3624 157.901 29.0653 160.624 30.4695C163.388 31.7293 165.638 29.8734 166.773 27.5425Z" fill="#344CCC"/>
<path d="M105.708 71.7034L110.907 73.1913L107.27 85.899L115.645 88.2961L125.203 77.2829L130.546 78.8121L119.316 91.8465L122.134 109.839L116.791 108.31L114.323 92.9171L105.947 90.52L102.062 104.094L96.8634 102.606L105.708 71.7034Z" fill="#344CCC"/>
<path d="M142.099 82.1193L135.197 106.235L136.208 106.524L155.962 86.087L163.327 88.1949L154.441 119.242L149.531 117.837L156.475 93.5767L155.464 93.2874L135.71 113.725L128.345 111.617L137.189 80.7141L142.099 82.1193Z" fill="#344CCC"/>
</g>
<defs>
<clipPath id="clip0_20048_228194">
<rect width="210.286" height="210.286" fill="white" transform="translate(57.8633 -33) rotate(15.9715)"/>
</clipPath>
</defs>
</svg>
