<svg width="476" height="320" viewBox="0 0 476 320" fill="none" xmlns="http://www.w3.org/2000/svg">
<path d="M200.586 244.618L211.651 241.682L218.829 268.731L236.656 264.001L242.082 233.608L253.455 230.59L247.183 266.472L271.83 296.124L260.457 299.142L239.266 273.837L221.438 278.567L229.105 307.461L218.039 310.397L200.586 244.618Z" fill="#344CCC"/>
<path d="M278.047 224.065L291.668 275.397L293.819 274.826L307.556 216.236L323.232 212.076L340.767 278.162L330.316 280.935L316.614 229.296L314.463 229.867L300.726 288.457L285.05 292.617L267.597 226.838L278.047 224.065Z" fill="#344CCC"/>
<path d="M215.979 52.1646C332.781 21.1724 453.351 91.1758 484.343 207.979C515.336 324.781 445.332 445.351 328.529 476.343C211.726 507.335 91.1569 437.332 60.1647 320.529C29.1725 203.726 99.1759 83.1568 215.979 52.1646ZM215.163 49.0909C96.2086 80.654 25.5278 202.39 57.0909 321.345C88.654 440.299 210.39 510.98 329.345 479.417C448.299 447.854 518.98 326.118 487.417 207.163C455.854 88.2086 334.118 17.5277 215.163 49.0909Z" fill="#344CCC"/>
<path d="M218.914 63.2297C329.876 33.7871 443.834 99.9516 473.277 210.914C502.719 321.877 436.555 435.835 325.592 465.277C214.63 494.72 100.672 428.555 71.2292 317.593C41.7866 206.63 107.951 92.6723 218.914 63.2297ZM218.506 61.6928C106.621 91.3801 40.005 206.116 69.6923 318C99.3796 429.885 214.115 496.501 326 466.814C437.885 437.127 504.501 322.391 474.814 210.506C445.126 98.6217 330.391 32.0056 218.506 61.6928Z" fill="#344CCC"/>
<path d="M237.51 133.313C309.743 114.146 384.03 157.277 403.196 229.511C422.362 301.744 379.231 376.031 306.998 395.197C234.764 414.363 160.478 371.232 141.312 298.999C122.145 226.765 165.276 152.479 237.51 133.313ZM237.102 131.776C163.947 151.187 120.364 226.251 139.775 299.406C159.186 372.562 234.25 416.145 307.405 396.734C380.561 377.323 424.144 302.258 404.733 229.103C385.322 155.948 310.257 112.365 237.102 131.776Z" fill="#344CCC"/>
<path d="M401.279 155.328C405.043 159.593 404.956 164.223 401.223 167.516C397.491 170.81 393.087 170.333 389.242 165.76L381.632 156.922L402.201 138.961L414.515 153.132L412.075 155.095L402.113 143.591L396.248 148.766L401.279 155.328ZM390.986 163.652C393.89 167.159 396.512 167.121 398.952 165.158C401.393 163.194 401.662 160.49 398.758 156.984L393.582 151.119L385.81 157.787L390.986 163.652Z" fill="#344CCC"/>
<path d="M410.76 192.295L408.238 193.951L398.201 177.202L421.448 163.138L431.322 179.272L428.8 180.928L420.664 167.623L413.632 172.121L420.112 182.904L417.591 184.56L411.11 173.777L403.156 178.52L410.76 192.295Z" fill="#344CCC"/>
<path d="M436.687 198.247C435.401 194.64 433.149 193.593 430.301 194.019L429.097 190.72C433.4 189.578 437.596 191.755 439.679 197.124C441.844 202.801 440.056 207.224 436.449 208.51C433.457 209.633 431.675 209.119 430.345 207.826L429.423 208.071C429.379 210.386 428.332 212.638 424.806 214.231C420.974 215.906 415.855 213.974 413.527 207.683C410.893 201.472 412.599 196.742 416.883 194.29L418.088 197.589C415.34 199.634 414.845 202.727 416.52 206.56C418.195 210.392 420.917 211.973 423.909 210.85C426.594 209.809 427.949 207.475 426.192 203.335L424.436 199.195L427.428 198.072L429.185 202.212C430.471 205.819 432.867 206.17 435.245 205.21C437.622 204.251 437.892 201.547 436.687 198.247Z" fill="#344CCC"/>
<path d="M437.718 243.048C429.952 244.78 422.889 241.719 421.383 233.564C419.57 225.49 424.965 219.782 432.812 218.358C440.66 216.933 447.642 219.687 449.147 227.842C450.572 235.689 445.177 241.398 437.718 243.048ZM436.821 239.667C442.436 238.506 447.009 234.661 445.685 228.432C444.361 222.203 438.627 220.434 433.013 221.594C427.399 222.755 422.826 226.601 424.149 232.83C425.473 239.059 431.207 240.828 436.821 239.667Z" fill="#344CCC"/>
<path d="M452.103 272.464L424.878 272.778L424.985 269.46L449.198 268.957L448.828 253.921L424.614 254.423L424.721 251.105L451.945 250.79L452.103 272.464Z" fill="#344CCC"/>
<path d="M430.153 296.384L431.991 284.71L424.294 280.501L425.015 277.019L450.358 290.694L449.593 296.49L421.277 301.371L421.998 297.89L430.153 296.384ZM435.021 286.209L433.308 295.876L446.237 293.761L446.526 292.369L435.021 286.209Z" fill="#344CCC"/>
<path d="M419.585 328.466C415.307 325.982 413.387 321.227 415.464 315.412C418.054 307.815 425.35 305.551 432.946 308.141C440.543 310.732 444.878 317.149 441.98 324.827C440.048 329.946 436.153 332.625 431.442 332.23L432.552 328.974C435.481 328.855 437.777 327.587 439.113 323.943C441.189 318.128 437.344 313.555 431.918 311.704C426.491 309.854 420.488 310.789 418.412 316.604C417.076 320.249 418.199 323.241 421.003 325.129L419.585 328.466Z" fill="#344CCC"/>
<path d="M130.469 172.57C133.405 167.514 137.708 166.372 142.068 169.163C146.428 171.955 147.262 176.339 143.938 181.17L137.678 191.056L114.712 176.422L124.666 160.62L127.389 162.201L119.322 175.199L126.016 179.345L130.469 172.57ZM141.378 180.204C143.944 176.233 142.984 173.855 140.261 172.275C137.539 170.694 134.998 171.039 132.74 174.928L128.512 181.315L137.15 186.59L141.378 180.204Z" fill="#344CCC"/>
<path d="M151.943 169.175L132.157 150.407L134.434 147.829L141.943 155.049L147.112 149.729C151.215 145.35 156.07 145.049 159.671 148.7C163.579 152.269 163.491 156.899 159.389 161.277L151.943 169.175ZM156.666 159.697C160.01 156.177 159.665 153.637 157.394 151.278C155.123 148.92 152.501 148.957 149.157 152.477L144.522 157.326L152.42 164.772L156.666 159.697ZM150.926 130.621L170.711 149.39L168.434 151.968L148.649 133.2L150.926 130.621Z" fill="#344CCC"/>
<path d="M189.584 126.286C191.422 130.733 190.494 135.915 185.451 139.227C178.808 143.951 171.6 141.586 167.183 134.862C162.46 128.219 162.735 120.578 169.46 116.162C173.889 113.013 178.907 113.326 182.345 116.362L179.29 118.489C176.875 116.827 174.171 116.557 171.116 118.684C165.847 122.385 166.7 128.081 169.931 132.817C173.162 137.553 178.444 140.099 183.794 136.706C186.849 134.579 187.652 131.405 186.837 128.331L189.584 126.286Z" fill="#344CCC"/>
<path d="M205.106 100.451L196.907 104.271L207.327 126.183L204.417 127.613L193.996 105.701L185.798 109.522L184.449 106.919L203.675 97.54L205.106 100.451Z" fill="#344CCC"/>
<path d="M223.103 91.3987C228.861 89.5417 232.751 91.7999 234.363 96.6364C235.668 101.554 233.41 105.444 227.958 107.219L220.356 109.565L223.436 119.935L220.055 120.832L212.426 94.5607L223.103 91.3987ZM226.139 104.083C230.75 102.859 231.716 100.3 230.593 97.3077C229.47 94.3155 227.444 92.879 223.222 94.3282L215.926 96.593L218.844 106.347L226.139 104.083Z" fill="#344CCC"/>
<path d="M267.155 97.4779C267.883 105.181 264.433 112.019 256.115 112.91C247.797 113.801 242.929 107.854 241.894 100.232C241.166 92.5292 244.616 85.6915 252.934 84.8005C261.252 83.9095 266.427 89.7746 267.155 97.4779ZM263.692 98.0676C263.147 92.2902 259.916 87.5541 253.442 87.9558C247.05 88.6648 244.892 94.1726 245.438 99.9501C245.984 105.728 249.215 110.464 255.688 110.062C262.081 109.353 264.157 103.538 263.692 98.0676Z" fill="#344CCC"/>
</svg>
