<svg width="431" height="354" viewBox="0 0 431 354" fill="none" xmlns="http://www.w3.org/2000/svg">
<rect x="108" y="125.499" width="302.052" height="196.167" rx="5.57292" fill="#344CCC"/>
<rect x="90.5" y="105.499" width="302.052" height="196.167" rx="5.57292" fill="white"/>
<rect x="71.5495" y="86.5524" width="304.282" height="198.396" rx="6.68751" fill="white" stroke="#4563FF" stroke-width="2.22917"/>
<rect x="53.7174" y="68.7184" width="304.282" height="198.396" rx="6.68751" fill="white" stroke="#4563FF" stroke-width="2.22917"/>
<rect x="35.8854" y="50.8854" width="304.282" height="198.396" rx="6.68751" fill="white" stroke="#4563FF" stroke-width="2.22917"/>
<path d="M145.863 181.662H144.1V189.604H145.863V186.281H147.673L149.577 189.604H151.45L149.124 185.485L151.34 181.662H149.515L147.705 184.783H145.863V181.662ZM153.243 192.725H155.006V188.824H155.318C155.584 189.199 155.911 189.448 156.317 189.589C156.707 189.745 157.128 189.807 157.565 189.807C158.143 189.807 158.658 189.698 159.095 189.464C159.532 189.246 159.89 188.934 160.187 188.559C160.483 188.185 160.702 187.732 160.858 187.233C161.014 186.733 161.092 186.203 161.092 185.641C161.092 185.11 161.014 184.596 160.873 184.096C160.733 183.597 160.515 183.144 160.234 182.754C159.937 182.364 159.563 182.052 159.126 181.818C158.689 181.584 158.158 181.459 157.565 181.459C157.097 181.459 156.66 181.537 156.286 181.678C155.911 181.834 155.568 182.083 155.272 182.442H154.959V181.662H153.243V192.725ZM154.959 185.641C154.959 185.298 154.991 184.97 155.084 184.642C155.162 184.33 155.287 184.034 155.474 183.784C155.646 183.534 155.865 183.347 156.145 183.191C156.426 183.035 156.754 182.957 157.16 182.957C157.534 182.957 157.862 183.035 158.143 183.176C158.424 183.332 158.642 183.519 158.814 183.769C158.985 184.018 159.11 184.315 159.204 184.627C159.282 184.954 159.329 185.298 159.329 185.641C159.329 185.984 159.282 186.328 159.204 186.64C159.126 186.952 159.001 187.233 158.829 187.482C158.658 187.732 158.439 187.935 158.158 188.091C157.877 188.247 157.55 188.309 157.16 188.309C156.785 188.309 156.457 188.247 156.177 188.091C155.896 187.95 155.662 187.763 155.49 187.514C155.303 187.264 155.178 186.983 155.084 186.655C154.991 186.343 154.959 186 154.959 185.641ZM166.505 181.459C165.897 181.459 165.35 181.568 164.867 181.756C164.367 181.958 163.962 182.239 163.634 182.598C163.291 182.957 163.041 183.394 162.854 183.893C162.666 184.408 162.588 184.97 162.588 185.579C162.588 186.172 162.666 186.733 162.838 187.248C163.01 187.763 163.259 188.216 163.603 188.59C163.93 188.965 164.336 189.261 164.835 189.48C165.335 189.698 165.897 189.807 166.552 189.807C166.958 189.807 167.363 189.761 167.753 189.667C168.144 189.573 168.502 189.433 168.815 189.23C169.127 189.027 169.407 188.762 169.626 188.45C169.844 188.138 170 187.748 170.094 187.311H168.3C168.159 187.701 167.925 187.966 167.613 188.106C167.285 188.247 166.942 188.309 166.568 188.309C166.177 188.309 165.85 188.247 165.569 188.122C165.288 187.997 165.054 187.826 164.882 187.592C164.695 187.373 164.57 187.108 164.477 186.796C164.383 186.484 164.336 186.156 164.336 185.781H170.203V185.189C170.203 184.642 170.11 184.143 169.938 183.691C169.766 183.238 169.517 182.848 169.205 182.505C168.877 182.177 168.487 181.927 168.034 181.74C167.566 181.553 167.067 181.459 166.505 181.459ZM164.414 184.471C164.539 183.94 164.789 183.534 165.132 183.269C165.475 183.004 165.928 182.863 166.49 182.863C166.989 182.863 167.426 183.004 167.785 183.269C168.128 183.55 168.331 183.94 168.393 184.471H164.414ZM172.341 188.106H171.218V191.836H172.903V189.604H179.269V191.836H180.955V188.106H179.519V181.662H173.199V183.893C173.199 185.36 172.903 186.765 172.341 188.106ZM174.058 188.106C174.323 187.436 174.51 186.749 174.635 186.047C174.744 185.345 174.807 184.627 174.807 183.909V183.16H177.756V188.106H174.058ZM182.577 189.604H184.559L187.945 184.393H188.257V189.604H189.973V181.662H187.945L184.606 186.874H184.294V181.662H182.577V189.604ZM191.657 181.662V183.16H194.341V189.604H196.104V183.16H198.772V181.662H191.657ZM200.452 189.604H202.215V186.281H206.054V189.604H207.817V181.662H206.054V184.783H202.215V181.662H200.452V189.604ZM212.013 181.662H210.25V189.604H213.995C214.448 189.604 214.869 189.558 215.243 189.448C215.618 189.339 215.93 189.168 216.211 188.934C216.492 188.715 216.695 188.419 216.851 188.075C217.007 187.732 217.085 187.311 217.085 186.827C217.085 186.359 217.007 185.953 216.851 185.61C216.695 185.267 216.476 184.986 216.195 184.767C215.914 184.549 215.602 184.393 215.228 184.283C214.853 184.19 214.432 184.127 213.995 184.127H212.013V181.662ZM218.317 181.662V189.604H220.081V181.662H218.317ZM213.745 188.106H212.013V185.547H213.745C214.338 185.547 214.76 185.657 214.994 185.875C215.212 186.109 215.321 186.421 215.321 186.827C215.321 187.092 215.275 187.311 215.197 187.467C215.119 187.638 215.009 187.763 214.869 187.857C214.729 187.95 214.557 188.028 214.37 188.06C214.182 188.091 213.964 188.106 213.745 188.106ZM225.966 181.459C225.357 181.459 224.811 181.568 224.327 181.756C223.828 181.958 223.422 182.239 223.094 182.598C222.751 182.957 222.501 183.394 222.314 183.893C222.127 184.408 222.049 184.97 222.049 185.579C222.049 186.172 222.127 186.733 222.299 187.248C222.47 187.763 222.72 188.216 223.063 188.59C223.391 188.965 223.797 189.261 224.296 189.48C224.795 189.698 225.357 189.807 226.012 189.807C226.418 189.807 226.824 189.761 227.214 189.667C227.604 189.573 227.963 189.433 228.275 189.23C228.587 189.027 228.868 188.762 229.086 188.45C229.305 188.138 229.461 187.748 229.555 187.311H227.76C227.62 187.701 227.386 187.966 227.073 188.106C226.746 188.247 226.403 188.309 226.028 188.309C225.638 188.309 225.31 188.247 225.029 188.122C224.748 187.997 224.514 187.826 224.343 187.592C224.156 187.373 224.031 187.108 223.937 186.796C223.843 186.484 223.797 186.156 223.797 185.781H229.664V185.189C229.664 184.642 229.57 184.143 229.399 183.691C229.227 183.238 228.977 182.848 228.665 182.505C228.337 182.177 227.947 181.927 227.495 181.74C227.027 181.553 226.527 181.459 225.966 181.459ZM223.875 184.471C223.999 183.94 224.249 183.534 224.592 183.269C224.936 183.004 225.388 182.863 225.95 182.863C226.449 182.863 226.886 183.004 227.245 183.269C227.588 183.55 227.791 183.94 227.854 184.471H223.875ZM144.1 208.604H146.082L149.468 203.393H149.78V208.604H151.496V200.662H149.468L146.128 205.874H145.816V200.662H144.1V208.604ZM153.461 204.625C153.461 205.218 153.539 205.78 153.71 206.279C153.882 206.794 154.132 207.231 154.475 207.606C154.803 207.98 155.208 208.277 155.708 208.495C156.191 208.714 156.753 208.807 157.393 208.807C157.814 208.807 158.22 208.761 158.626 208.636C159.016 208.526 159.375 208.355 159.687 208.121C159.999 207.902 160.248 207.606 160.467 207.263C160.67 206.919 160.81 206.529 160.888 206.061H159.141C159.047 206.529 158.844 206.841 158.532 207.028C158.22 207.216 157.845 207.309 157.408 207.309C157.018 207.309 156.691 207.247 156.41 207.091C156.129 206.95 155.91 206.748 155.739 206.498C155.552 206.248 155.427 205.967 155.349 205.64C155.255 205.312 155.224 204.969 155.224 204.61C155.224 204.267 155.255 203.939 155.333 203.627C155.411 203.315 155.536 203.018 155.708 202.769C155.879 202.519 156.113 202.332 156.394 202.176C156.675 202.035 157.003 201.957 157.408 201.957C157.814 201.957 158.173 202.051 158.454 202.222C158.735 202.394 158.938 202.675 159.078 203.081H160.826C160.763 202.644 160.623 202.254 160.42 201.926C160.202 201.598 159.952 201.317 159.64 201.099C159.328 200.88 158.985 200.724 158.61 200.615C158.22 200.522 157.814 200.459 157.393 200.459C156.769 200.459 156.223 200.568 155.739 200.771C155.255 200.974 154.849 201.255 154.506 201.629C154.163 202.004 153.913 202.441 153.726 202.94C153.539 203.455 153.461 204.017 153.461 204.625ZM162.049 200.662V202.16H164.732V208.604H166.496V202.16H169.164V200.662H162.049ZM170.299 204.625C170.299 205.218 170.377 205.78 170.564 206.279C170.752 206.794 171.017 207.231 171.36 207.606C171.703 207.98 172.109 208.277 172.609 208.495C173.108 208.714 173.67 208.807 174.309 208.807C174.918 208.807 175.464 208.714 175.963 208.511C176.463 208.308 176.884 208.027 177.227 207.653C177.571 207.278 177.852 206.841 178.039 206.326C178.226 205.827 178.32 205.25 178.32 204.625C178.32 204.032 178.226 203.486 178.039 202.971C177.852 202.472 177.602 202.02 177.259 201.645C176.915 201.271 176.494 200.99 175.995 200.771C175.495 200.568 174.934 200.459 174.309 200.459C173.701 200.459 173.155 200.568 172.655 200.771C172.156 200.974 171.735 201.255 171.391 201.614C171.033 201.988 170.767 202.425 170.58 202.94C170.393 203.455 170.299 204.017 170.299 204.625ZM174.309 207.309C173.919 207.309 173.592 207.247 173.311 207.091C173.03 206.95 172.796 206.763 172.609 206.514C172.421 206.264 172.281 205.983 172.187 205.655C172.094 205.328 172.062 204.984 172.062 204.625C172.062 204.282 172.094 203.954 172.187 203.627C172.281 203.315 172.421 203.034 172.609 202.784C172.796 202.534 173.03 202.347 173.311 202.191C173.592 202.035 173.919 201.957 174.309 201.957C174.684 201.957 175.012 202.035 175.292 202.176C175.573 202.332 175.807 202.519 175.995 202.753C176.182 203.003 176.322 203.283 176.416 203.596C176.51 203.923 176.556 204.267 176.556 204.625C176.556 204.969 176.51 205.312 176.416 205.624C176.322 205.952 176.198 206.233 176.01 206.482C175.823 206.732 175.605 206.935 175.324 207.091C175.043 207.247 174.7 207.309 174.309 207.309ZM180.291 211.725H182.055V207.824H182.367C182.632 208.199 182.96 208.448 183.365 208.589C183.755 208.745 184.177 208.807 184.614 208.807C185.191 208.807 185.706 208.698 186.143 208.464C186.58 208.246 186.939 207.934 187.235 207.559C187.532 207.185 187.75 206.732 187.906 206.233C188.062 205.733 188.14 205.203 188.14 204.641C188.14 204.11 188.062 203.596 187.922 203.096C187.781 202.597 187.563 202.144 187.282 201.754C186.985 201.364 186.611 201.052 186.174 200.818C185.737 200.584 185.207 200.459 184.614 200.459C184.146 200.459 183.709 200.537 183.334 200.678C182.96 200.834 182.616 201.083 182.32 201.442H182.008V200.662H180.291V211.725ZM182.008 204.641C182.008 204.298 182.039 203.97 182.133 203.642C182.211 203.33 182.335 203.034 182.523 202.784C182.694 202.534 182.913 202.347 183.194 202.191C183.475 202.035 183.802 201.957 184.208 201.957C184.582 201.957 184.91 202.035 185.191 202.176C185.472 202.332 185.69 202.519 185.862 202.769C186.034 203.018 186.158 203.315 186.252 203.627C186.33 203.954 186.377 204.298 186.377 204.641C186.377 204.984 186.33 205.328 186.252 205.64C186.174 205.952 186.049 206.233 185.878 206.482C185.706 206.732 185.487 206.935 185.207 207.091C184.926 207.247 184.598 207.309 184.208 207.309C183.833 207.309 183.506 207.247 183.225 207.091C182.944 206.95 182.71 206.763 182.538 206.514C182.351 206.264 182.226 205.983 182.133 205.655C182.039 205.343 182.008 205 182.008 204.641ZM190.105 208.604H192.087L195.473 203.393H195.785V208.604H197.501V200.662H195.473L192.133 205.874H191.821V200.662H190.105V208.604ZM199.934 208.604H201.915L205.302 203.393H205.614V208.604H207.33V200.662H205.302L201.962 205.874H201.65V200.662H199.934V208.604Z" fill="black"/>
<g clip-path="url(#clip0_10133_116455)">
<path d="M172.568 127.243V163.924H166.275V147.897H147.549V163.927H141.256V127.243H147.549V142.142H166.275V127.243H172.568Z" fill="black"/>
<path d="M197.852 141.68C206.034 141.68 210.65 145.79 210.65 152.777C210.65 159.765 206.034 163.927 197.852 163.927H181.016V127.243H207.554V132.842H187.309V141.68H197.852ZM196.751 158.477C202.362 158.477 204.304 156.318 204.304 152.621C204.304 148.973 202.26 146.817 196.751 146.817H187.309V158.48H196.751V158.477Z" fill="black"/>
<path d="M216.85 127.243H223.143V142.246H233.267L240.454 127.243H246.958L238.565 145.071L247.43 163.927H240.925L233.267 147.845H223.143V163.924H216.85V127.243Z" fill="black"/>
<path d="M259.113 127.243V155.808H260.372L275.844 127.243H284.761V163.924H278.781V135.359H277.522L262.05 163.924H253.133V127.243H259.113Z" fill="black"/>
<path d="M92.0776 155.203C93.4454 155.203 94.559 156.285 94.559 157.618C94.559 158.952 93.4454 160.034 92.0776 160.034C90.7097 160.034 89.5962 158.952 89.5962 157.618C89.5962 156.288 90.7097 155.203 92.0776 155.203ZM92.0776 153.979C90.0211 153.979 88.3555 155.609 88.3555 157.618C88.3555 159.628 90.0211 161.257 92.0776 161.257C94.134 161.257 95.7997 159.628 95.7997 157.618C95.7997 155.609 94.134 153.979 92.0776 153.979Z" fill="#4563FF"/>
<path d="M97.9707 163.838H110.378V127.143H97.9707V163.838ZM104.174 161.392C102.118 161.392 100.452 159.75 100.452 157.722C100.452 155.695 102.118 154.053 104.174 154.053C106.231 154.053 107.896 155.695 107.896 157.722C107.896 159.75 106.231 161.392 104.174 161.392Z" fill="#4563FF"/>
<path d="M119.682 127.143H110.377V163.838H119.682C121.394 163.838 122.784 162.468 122.784 160.78V130.201C122.784 128.513 121.394 127.143 119.682 127.143ZM116.58 161.392C114.524 161.392 112.858 159.75 112.858 157.722C112.858 155.695 114.524 154.053 116.58 154.053C118.637 154.053 120.303 155.695 120.303 157.722C120.303 159.75 118.637 161.392 116.58 161.392Z" fill="#FF0029"/>
<path d="M98.5875 128.366V162.615H88.3517C87.3251 162.615 86.4907 161.792 86.4907 160.78V130.201C86.4907 129.188 87.3251 128.366 88.3517 128.366H98.5875ZM99.8282 127.143H88.3517C86.6396 127.143 85.25 128.513 85.25 130.201V160.78C85.25 162.468 86.6396 163.838 88.3517 163.838H99.8282V127.143Z" fill="#4563FF"/>
</g>
<defs>
<clipPath id="clip0_10133_116455">
<rect width="199.511" height="36.7813" fill="white" transform="translate(85.25 127.143)"/>
</clipPath>
</defs>
</svg>
