<svg width="48" height="48" viewBox="0 0 48 48" fill="none" xmlns="http://www.w3.org/2000/svg">
<mask id="mask0_20224_10746" style="mask-type:alpha" maskUnits="userSpaceOnUse" x="0" y="0" width="48" height="48">
<rect width="48" height="48" fill="#D9D9D9"/>
</mask>
<g mask="url(#mask0_20224_10746)">
<path d="M8.7692 38C8.00063 38 7.34695 37.7306 6.80815 37.1918C6.26938 36.653 6 35.9994 6 35.2308V12.7692C6 12.0006 6.26938 11.3469 6.80815 10.8081C7.34695 10.2694 8.00063 10 8.7692 10H39.2308C39.9994 10 40.653 10.2694 41.1918 10.8081C41.7306 11.3469 42 12.0006 42 12.7692V35.2308C42 35.9994 41.7306 36.653 41.1918 37.1918C40.653 37.7306 39.9994 38 39.2308 38H8.7692ZM40.4616 12.7115L24.8 23.1961C24.6667 23.2628 24.5352 23.3211 24.4058 23.3711C24.2763 23.4211 24.141 23.4461 24 23.4461C23.859 23.4461 23.7237 23.4211 23.5943 23.3711C23.4648 23.3211 23.3462 23.2628 23.2385 23.1961L7.53845 12.7115V35.2308C7.53845 35.5898 7.65383 35.8846 7.8846 36.1154C8.11537 36.3462 8.41023 36.4616 8.7692 36.4616H39.2308C39.5898 36.4616 39.8846 36.3462 40.1154 36.1154C40.3462 35.8846 40.4616 35.5898 40.4616 35.2308V12.7115ZM24 21.9384L39.7616 11.5385H8.28845L24 21.9384ZM7.53845 13.1V11.9245V11.9878V11.5385V11.9577V11.8736V13.1Z" fill="#4563FF"/>
</g>
</svg>
