<svg width="48" height="48" viewBox="0 0 48 48" fill="none" xmlns="http://www.w3.org/2000/svg">
<mask id="mask0_20224_10750" style="mask-type:alpha" maskUnits="userSpaceOnUse" x="0" y="0" width="48" height="48">
<rect width="48" height="48" fill="#D9D9D9"/>
</mask>
<g mask="url(#mask0_20224_10750)">
<path d="M5.76908 37C5.54215 37 5.3572 36.9265 5.21423 36.7794C5.0713 36.6324 4.99983 36.4452 4.99983 36.2179C4.99983 35.9905 5.07323 35.8057 5.22003 35.6634C5.36683 35.5211 5.55368 35.45 5.78058 35.45H42.2306C42.4575 35.45 42.6425 35.5216 42.7854 35.6648C42.9284 35.808 42.9998 35.9932 42.9998 36.2206C42.9998 36.4479 42.9264 36.6346 42.7796 36.7807C42.6328 36.9269 42.446 37 42.2191 37H5.76908ZM5.29188 24.4487C5.09938 24.3376 4.98015 24.1876 4.93418 23.9987C4.88818 23.8098 4.91007 23.6333 4.99983 23.4692L6.70753 20.4923H3.33058C3.13145 20.4923 2.96245 20.4294 2.82358 20.3037C2.68468 20.1779 2.61523 19.9991 2.61523 19.7671C2.61523 19.5942 2.68467 19.4378 2.82353 19.298C2.96243 19.1583 3.1353 19.0884 3.34213 19.0884H6.70753L4.99983 16.1884C4.9101 16.0243 4.88628 15.8478 4.92838 15.6589C4.97052 15.4701 5.07502 15.3201 5.24188 15.2089C5.43435 15.1235 5.62418 15.104 5.81138 15.1504C5.99855 15.1969 6.13445 15.3044 6.21908 15.473L7.91523 18.3615L9.57288 15.473C9.68315 15.2634 9.83188 15.1392 10.0191 15.1004C10.2063 15.0617 10.3833 15.0978 10.5501 15.2089C10.7426 15.3201 10.8599 15.4637 10.902 15.6397C10.9442 15.8158 10.9075 15.9987 10.7921 16.1884L9.12293 19.0884H12.4998C12.699 19.0884 12.868 19.1577 13.0069 19.2963C13.1458 19.4348 13.2152 19.5906 13.2152 19.7636C13.2152 19.9955 13.1458 20.175 13.0069 20.3019C12.868 20.4288 12.699 20.4923 12.4998 20.4923H9.12293L10.7921 23.4692C10.9075 23.6333 10.9442 23.8117 10.902 24.0045C10.8599 24.1972 10.7426 24.3453 10.5501 24.4487C10.3833 24.5342 10.2063 24.5537 10.0191 24.5072C9.83188 24.4608 9.68315 24.3404 9.57288 24.1461L7.91523 21.2192L6.21908 24.1461C6.13445 24.3558 6.00047 24.48 5.81713 24.5188C5.6338 24.5575 5.45872 24.5342 5.29188 24.4487ZM21.3649 24.3987C21.1724 24.3132 21.0551 24.1677 21.013 23.9622C20.9709 23.7566 21.0075 23.5718 21.1229 23.4077L22.7921 20.4692H19.4152C19.2161 20.4692 19.0471 20.3999 18.9082 20.2614C18.7693 20.1228 18.6998 19.9504 18.6998 19.7441C18.6998 19.5454 18.7693 19.3763 18.9082 19.2365C19.0471 19.0968 19.2199 19.0269 19.4267 19.0269H22.7921L21.1229 16.1269C21.0075 15.9628 20.9709 15.7863 21.013 15.5974C21.0551 15.4085 21.1724 15.2585 21.3649 15.1474C21.5318 15.062 21.7088 15.0424 21.896 15.0889C22.0832 15.1353 22.2319 15.2557 22.3421 15.45L23.9998 18.3L25.6575 15.45C25.7678 15.2403 25.9082 15.1161 26.0787 15.0773C26.2492 15.0386 26.4307 15.062 26.6232 15.1474C26.8157 15.2585 26.9349 15.4085 26.9809 15.5974C27.0269 15.7863 27.005 15.9628 26.9152 16.1269L25.2075 19.0269H28.5844C28.7836 19.0269 28.9526 19.0962 29.0915 19.2347C29.2304 19.3733 29.2998 19.5419 29.2998 19.7405C29.2998 19.9468 29.2304 20.1198 29.0915 20.2596C28.9526 20.3993 28.7836 20.4692 28.5844 20.4692H25.2075L26.9152 23.4077C27.005 23.5974 27.0288 23.7906 26.9866 23.9872C26.9445 24.1837 26.8272 24.3209 26.6347 24.3987C26.4679 24.5098 26.2889 24.5441 26.0979 24.5014C25.9069 24.4588 25.7563 24.3365 25.646 24.1346L23.9998 21.2192L22.3537 24.1346C22.2434 24.3032 22.0928 24.4172 21.9017 24.4764C21.7107 24.5357 21.5318 24.5098 21.3649 24.3987ZM37.4496 24.3987C37.2571 24.3132 37.1398 24.1677 37.0976 23.9622C37.0555 23.7566 37.0921 23.5718 37.2075 23.4077L38.8767 20.4692H35.4998C35.3007 20.4692 35.1317 20.3999 34.9928 20.2614C34.8539 20.1228 34.7844 19.9504 34.7844 19.7441C34.7844 19.5454 34.8539 19.3763 34.9928 19.2365C35.1317 19.0968 35.3046 19.0269 35.5114 19.0269H38.8767L37.2075 16.1269C37.0921 15.9628 37.0619 15.7863 37.1169 15.5974C37.1718 15.4085 37.2827 15.2585 37.4496 15.1474C37.6164 15.062 37.7934 15.0424 37.9806 15.0889C38.1678 15.1353 38.3165 15.2557 38.4268 15.45L40.0844 18.3L41.7806 15.45C41.8652 15.2403 41.9909 15.1161 42.1575 15.0773C42.3242 15.0386 42.5076 15.062 42.7078 15.1474C42.9003 15.2585 43.0195 15.4085 43.0655 15.5974C43.1115 15.7863 43.0896 15.9628 42.9998 16.1269L41.2921 19.0269H44.6691C44.8682 19.0269 45.0372 19.0962 45.1761 19.2347C45.315 19.3733 45.3844 19.5419 45.3844 19.7405C45.3844 19.9468 45.315 20.1198 45.1761 20.2596C45.0372 20.3993 44.8682 20.4692 44.6691 20.4692H41.2921L42.9998 23.4077C43.0896 23.5974 43.1134 23.7906 43.0713 23.9872C43.0292 24.1837 42.9247 24.3209 42.7578 24.3987C42.5653 24.5098 42.3736 24.5441 42.1825 24.5014C41.9915 24.4588 41.8409 24.3365 41.7306 24.1346L40.0844 21.2192L38.4383 24.1346C38.3537 24.3032 38.2094 24.4172 38.0056 24.4764C37.8018 24.5357 37.6164 24.5098 37.4496 24.3987Z" fill="#4563FF"/>
</g>
</svg>
