<svg width="24" height="24" viewBox="0 0 24 24" fill="none" xmlns="http://www.w3.org/2000/svg">
<mask id="mask0_20014_225873" style="mask-type:alpha" maskUnits="userSpaceOnUse" x="0" y="0" width="24" height="24">
<rect width="24" height="24" fill="#D9D9D9"/>
</mask>
<g mask="url(#mask0_20014_225873)">
<path d="M7.875 16.125C8.025 16.275 8.2 16.35 8.4 16.35C8.6 16.35 8.775 16.275 8.925 16.125L12 13.05L15.1 16.15C15.2333 16.2833 15.4043 16.3457 15.613 16.337C15.821 16.329 15.9917 16.2583 16.125 16.125C16.275 15.975 16.35 15.8 16.35 15.6C16.35 15.4 16.275 15.225 16.125 15.075L13.05 12L16.15 8.9C16.2833 8.76667 16.3457 8.59567 16.337 8.387C16.329 8.179 16.2583 8.00833 16.125 7.875C15.975 7.725 15.8 7.65 15.6 7.65C15.4 7.65 15.225 7.725 15.075 7.875L12 10.95L8.9 7.85C8.76667 7.71667 8.596 7.654 8.388 7.662C8.17933 7.67067 8.00833 7.74167 7.875 7.875C7.725 8.025 7.65 8.2 7.65 8.4C7.65 8.6 7.725 8.775 7.875 8.925L10.95 12L7.85 15.1C7.71667 15.2333 7.65433 15.404 7.663 15.612C7.671 15.8207 7.74167 15.9917 7.875 16.125ZM12 21.5C10.6833 21.5 9.446 21.25 8.288 20.75C7.12933 20.25 6.125 19.575 5.275 18.725C4.425 17.875 3.75 16.8707 3.25 15.712C2.75 14.554 2.5 13.3167 2.5 12C2.5 10.6833 2.75 9.44567 3.25 8.287C3.75 7.129 4.425 6.125 5.275 5.275C6.125 4.425 7.12933 3.75 8.288 3.25C9.446 2.75 10.6833 2.5 12 2.5C13.3167 2.5 14.5543 2.75 15.713 3.25C16.871 3.75 17.875 4.425 18.725 5.275C19.575 6.125 20.25 7.129 20.75 8.287C21.25 9.44567 21.5 10.6833 21.5 12C21.5 13.3167 21.25 14.554 20.75 15.712C20.25 16.8707 19.575 17.875 18.725 18.725C17.875 19.575 16.871 20.25 15.713 20.75C14.5543 21.25 13.3167 21.5 12 21.5ZM12 20C14.2167 20 16.1043 19.221 17.663 17.663C19.221 16.1043 20 14.2167 20 12C20 9.78333 19.221 7.89567 17.663 6.337C16.1043 4.779 14.2167 4 12 4C9.78333 4 7.896 4.779 6.338 6.337C4.77933 7.89567 4 9.78333 4 12C4 14.2167 4.77933 16.1043 6.338 17.663C7.896 19.221 9.78333 20 12 20Z" fill="#FF0029"/>
</g>
</svg>
