<svg width="620" height="404" viewBox="0 0 620 404" fill="none" xmlns="http://www.w3.org/2000/svg">
<path d="M267.168 336.472L281.907 332.561L291.466 368.589L315.211 362.288L322.438 321.807L337.586 317.787L329.232 365.58L362.061 405.074L346.913 409.093L318.688 375.389L294.942 381.69L305.153 420.174L290.415 424.084L267.168 336.472Z" fill="#344CCC"/>
<path d="M370.34 309.096L388.481 377.466L391.347 376.706L409.643 298.667L430.522 293.127L453.878 381.149L439.958 384.842L421.708 316.062L418.842 316.823L400.547 394.862L379.667 400.402L356.42 312.789L370.34 309.096Z" fill="#344CCC"/>
<path d="M287.67 80.1357C443.243 38.8561 603.834 132.096 645.114 287.67C686.393 443.244 593.153 603.834 437.58 645.114C282.006 686.394 121.415 593.154 80.1354 437.58C38.8558 282.006 132.096 121.415 287.67 80.1357ZM286.583 76.0416C128.144 118.082 34.0014 280.227 76.0414 438.666C118.081 597.106 280.226 691.248 438.666 649.208C597.106 607.168 691.248 445.023 649.208 286.584C607.168 128.144 445.023 34.0016 286.583 76.0416Z" fill="#344CCC"/>
<path d="M291.579 94.8736C439.374 55.658 591.158 143.785 630.374 291.58C669.59 439.375 581.463 591.159 433.668 630.375C285.873 669.59 134.088 581.464 94.8728 433.669C55.6572 285.873 143.784 134.089 291.579 94.8736ZM291.036 92.8265C142.013 132.368 53.2843 285.188 92.8258 434.212C132.367 583.235 285.188 671.963 434.211 632.422C583.234 592.88 671.963 440.06 632.421 291.037C592.88 142.013 440.059 53.285 291.036 92.8265Z" fill="#344CCC"/>
<path d="M316.348 188.219C412.558 162.691 511.503 220.139 537.031 316.349C562.559 412.559 505.111 511.504 408.901 537.032C312.691 562.56 213.747 505.113 188.218 408.902C162.69 312.692 220.138 213.748 316.348 188.219ZM315.805 186.172C218.367 212.026 160.317 312.007 186.171 409.446C212.025 506.884 312.006 564.933 409.444 539.079C506.883 513.225 564.932 413.244 539.078 315.806C513.224 218.368 413.243 160.318 315.805 186.172Z" fill="#344CCC"/>
<path d="M534.478 217.542C539.492 223.223 539.375 229.389 534.403 233.776C529.432 238.163 523.567 237.528 518.445 231.437L508.31 219.665L535.706 195.743L552.108 214.617L548.858 217.232L535.589 201.909L527.777 208.802L534.478 217.542ZM520.768 228.63C524.636 233.3 528.129 233.25 531.379 230.635C534.629 228.019 534.988 224.418 531.119 219.748L524.226 211.936L513.874 220.818L520.768 228.63Z" fill="#344CCC"/>
<path d="M547.106 266.78L543.748 268.985L530.379 246.677L561.343 227.944L574.494 249.433L571.136 251.639L560.298 233.918L550.932 239.909L559.564 254.271L556.205 256.477L547.574 242.115L536.979 248.432L547.106 266.78Z" fill="#344CCC"/>
<path d="M581.638 274.708C579.925 269.904 576.925 268.509 573.132 269.077L571.527 264.682C577.259 263.161 582.849 266.06 585.623 273.212C588.506 280.774 586.125 286.664 581.32 288.377C577.335 289.873 574.962 289.188 573.191 287.467L571.963 287.793C571.904 290.876 570.509 293.875 565.813 295.998C560.708 298.229 553.89 295.656 550.79 287.275C547.281 279.004 549.553 272.704 555.26 269.437L556.864 273.832C553.205 276.556 552.545 280.675 554.776 285.78C557.007 290.885 560.633 292.99 564.618 291.494C568.194 290.107 569.999 286.999 567.659 281.485L565.32 275.97L569.305 274.475L571.645 279.989C573.358 284.793 576.549 285.261 579.716 283.983C582.883 282.704 583.242 279.103 581.638 274.708Z" fill="#344CCC"/>
<path d="M583.012 334.379C572.668 336.686 563.26 332.608 561.255 321.747C558.84 310.993 566.025 303.39 576.477 301.493C586.93 299.596 596.229 303.264 598.235 314.126C600.132 324.578 592.946 332.181 583.012 334.379ZM581.817 329.876C589.295 328.33 595.386 323.208 593.623 314.911C591.86 306.614 584.223 304.258 576.745 305.804C569.267 307.35 563.176 312.472 564.939 320.769C566.702 329.066 574.339 331.422 581.817 329.876Z" fill="#344CCC"/>
<path d="M602.172 373.559L565.91 373.978L566.052 369.558L598.303 368.888L597.81 348.861L565.558 349.53L565.7 345.11L601.962 344.691L602.172 373.559Z" fill="#344CCC"/>
<path d="M572.936 405.419L575.383 389.87L565.131 384.264L566.092 379.627L599.848 397.84L598.829 405.56L561.113 412.062L562.074 407.425L572.936 405.419ZM579.419 391.867L577.138 404.742L594.358 401.926L594.743 400.071L579.419 391.867Z" fill="#344CCC"/>
<path d="M173.777 240.507C177.687 233.773 183.419 232.252 189.226 235.97C195.033 239.688 196.144 245.528 191.716 251.962L183.378 265.13L152.789 245.638L166.048 224.591L169.674 226.696L158.93 244.008L167.845 249.531L173.777 240.507ZM188.307 250.675C191.724 245.386 190.446 242.219 186.819 240.114C183.193 238.009 179.809 238.468 176.802 243.649L171.17 252.154L182.676 259.181L188.307 250.675Z" fill="#344CCC"/>
<path d="M202.378 235.986L176.025 210.988L179.058 207.554L189.059 217.17L195.944 210.085C201.408 204.253 207.875 203.851 212.671 208.714C217.877 213.468 217.76 219.634 212.296 225.466L202.378 235.986ZM208.669 223.361C213.123 218.673 212.663 215.29 209.638 212.148C206.614 209.007 203.121 209.057 198.668 213.744L192.494 220.203L203.013 230.12L208.669 223.361ZM201.023 184.634L227.377 209.633L224.344 213.067L197.99 188.069L201.023 184.634Z" fill="#344CCC"/>
<path d="M252.513 178.859C254.962 184.783 253.725 191.685 247.008 196.096C238.16 202.388 228.56 199.239 222.677 190.282C216.385 181.434 216.753 171.257 225.709 165.375C231.608 161.18 238.292 161.598 242.871 165.642L238.802 168.474C235.585 166.26 231.984 165.901 227.915 168.733C220.897 173.663 222.034 181.25 226.337 187.558C230.64 193.866 237.675 197.258 244.802 192.738C248.871 189.905 249.94 185.677 248.854 181.583L252.513 178.859Z" fill="#344CCC"/>
<path d="M273.188 144.448L262.267 149.537L276.146 178.722L272.27 180.627L258.391 151.442L247.47 156.531L245.674 153.063L271.282 140.572L273.188 144.448Z" fill="#344CCC"/>
<path d="M297.159 132.392C304.829 129.919 310.009 132.926 312.157 139.368C313.895 145.919 310.887 151.099 303.626 153.464L293.5 156.589L297.603 170.4L293.099 171.595L282.938 136.604L297.159 132.392ZM301.203 149.286C307.344 147.657 308.631 144.248 307.135 140.262C305.64 136.277 302.941 134.364 297.318 136.294L287.601 139.31L291.486 152.303L301.203 149.286Z" fill="#344CCC"/>
<path d="M355.835 140.489C356.804 150.749 352.209 159.856 341.13 161.043C330.051 162.23 323.567 154.309 322.188 144.158C321.219 133.897 325.814 124.79 336.893 123.603C347.972 122.417 354.865 130.229 355.835 140.489ZM351.223 141.274C350.496 133.579 346.193 127.271 337.57 127.806C329.056 128.75 326.182 136.086 326.909 143.782C327.636 151.477 331.939 157.785 340.562 157.25C349.076 156.305 351.841 148.56 351.223 141.274Z" fill="#344CCC"/>
</svg>
