<svg width="162" height="164" viewBox="0 0 162 164" fill="none" xmlns="http://www.w3.org/2000/svg">
<path d="M76.2559 53.0361L80.4625 51.9199L83.191 62.2029L89.9684 60.4046L92.0309 48.8504L96.3544 47.7032L93.97 61.3441L103.34 72.6165L99.0165 73.7637L90.9606 64.1439L84.1832 65.9422L87.0977 76.9263L82.891 78.0424L76.2559 53.0361Z" fill="#344CCC"/>
<path d="M105.705 45.2232L110.883 64.7374L111.701 64.5204L116.923 42.2467L122.883 40.6654L129.549 65.7886L125.576 66.8427L120.367 47.2116L119.549 47.4287L114.327 69.7024L108.368 71.2837L101.732 46.2773L105.705 45.2232Z" fill="#344CCC"/>
<path d="M82.1064 -20.1279C126.51 -31.9099 172.346 -5.29743 184.128 39.1063C195.91 83.51 169.297 129.346 124.894 141.128C80.4899 152.91 34.6542 126.297 22.8722 81.8935C11.0902 37.4898 37.7027 -8.34593 82.1064 -20.1279ZM81.7963 -21.2964C36.5747 -9.29741 9.70464 36.9819 21.7037 82.2036C33.7027 127.425 79.982 154.295 125.204 142.296C170.425 130.297 197.295 84.0179 185.296 38.7962C173.297 -6.42545 127.018 -33.2955 81.7963 -21.2964Z" fill="#344CCC"/>
<path d="M83.219 -15.9214C125.403 -27.1143 168.725 -1.96123 179.918 40.2223C191.11 82.4058 165.957 125.728 123.774 136.921C81.5903 148.114 38.2682 122.961 27.0753 80.7771C15.8824 38.5936 41.0355 -4.72854 83.219 -15.9214ZM83.064 -16.5057C40.5299 -5.21978 15.2051 38.3981 26.491 80.9322C37.7769 123.466 81.3948 148.791 123.929 137.505C166.463 126.219 191.788 82.6014 180.502 40.0673C169.216 -2.46682 125.598 -27.7916 83.064 -16.5057Z" fill="#344CCC"/>
<path d="M90.2858 10.721C117.746 3.43478 145.987 19.8315 153.273 47.2917C160.559 74.7519 144.162 102.993 116.702 110.279C89.242 117.565 61.0013 101.168 53.7151 73.7082C46.4289 46.2479 62.8256 18.0072 90.2858 10.721ZM90.1307 10.1367C62.32 17.516 45.7516 46.0524 53.1308 73.8632C60.5101 101.674 89.0465 118.242 116.857 110.863C144.668 103.484 161.236 74.9474 153.857 47.1367C146.478 19.3259 117.942 2.7575 90.1307 10.1367Z" fill="#344CCC"/>
<path d="M92.1575 122.418L88.7093 127.335L87.3857 127.061L94.0556 117.786L95.3791 118.061L93.3665 120.846L95.8254 128.699L94.385 128.456L92.4532 122.589L92.1575 122.418Z" fill="#344CCC"/>
<path d="M79.2309 114.715L80.4113 111.15L81.649 111.572L80.7739 113.93L88.2 116.463L89.0752 114.104L90.3129 114.526L89.1325 118.091L88.1595 117.724C87.0912 118.883 85.7105 120.751 84.585 124.051L83.8505 125.997L77.662 123.887L80.6165 115.223L79.2309 114.715ZM79.236 123.219L83.0969 124.571L83.4331 123.481C84.5038 120.445 85.7367 118.492 86.805 117.333L81.8542 115.645L79.236 123.219Z" fill="#344CCC"/>
<path d="M67.7089 112.77C69.1683 110.256 71.8177 108.928 74.627 110.559C77.2884 112.104 77.5652 115.033 76.1368 117.663C74.7084 120.294 72.028 121.505 69.2187 119.874C66.4094 118.243 66.1327 115.315 67.7089 112.77ZM68.7749 113.488C67.6589 115.41 67.6328 117.668 69.7028 118.87C71.7728 120.072 73.7211 118.93 74.8371 117.008C75.9531 115.085 75.9792 112.827 73.9092 111.625C71.8082 110.306 69.8909 111.566 68.7749 113.488Z" fill="#344CCC"/>
<path d="M61.2882 108.845C59.6546 107.402 59.3374 105.735 60.6943 104.249C61.9343 102.795 63.6632 102.711 65.2968 104.154L68.6809 107.008L61.9036 114.935L56.5593 110.35L57.3081 109.4L61.6723 113.121L63.6921 110.834L61.2882 108.845ZM64.6959 105.189C63.389 104.035 62.4232 104.166 61.6744 105.115C60.9256 106.064 60.909 106.944 62.2158 108.098L64.4719 110.001L66.9519 107.092L64.6959 105.189Z" fill="#344CCC"/>
<path d="M47.9407 100.504L55.9699 93.9957L56.7474 95.0402L53.0368 98.026L56.7381 102.547L60.4486 99.5615L61.2261 100.606L53.1968 107.114L52.4194 106.07L55.8104 103.294L52.1091 98.7724L48.7181 101.548L47.9407 100.504Z" fill="#344CCC"/>
<path d="M45.5397 86.2566C48.1581 84.8114 51.0079 85.1809 52.601 87.8852C54.0772 90.6205 52.7657 93.2199 50.1473 94.6651C47.5288 96.1104 44.679 95.7408 43.086 93.0365C41.6097 90.3013 42.9212 87.7019 45.5397 86.2566ZM46.2313 87.449C44.3688 88.4435 42.9881 90.3108 44.1925 92.4928C45.3968 94.6748 47.6242 94.5841 49.4866 93.5896C51.3491 92.5951 52.7298 90.7278 51.5255 88.5458C50.3211 86.3638 48.0627 86.3376 46.2313 87.449Z" fill="#344CCC"/>
<path d="M152.546 19.0893C153.977 20.7109 153.943 22.4708 152.524 23.7229C151.105 24.9749 149.431 24.7937 147.969 23.0553L145.077 19.6953L152.896 12.8675L157.577 18.2545L156.65 19.0009L152.863 14.6274L150.633 16.5949L152.546 19.0893ZM148.632 22.254C149.737 23.587 150.733 23.5727 151.661 22.8262C152.589 22.0798 152.691 21.0519 151.587 19.7189L149.62 17.4892L146.665 20.0243L148.632 22.254Z" fill="#344CCC"/>
<path d="M156.151 33.1426L155.193 33.7722L151.377 27.405L160.215 22.0582L163.968 28.1916L163.01 28.8212L159.917 23.7633L157.243 25.4732L159.707 29.5725L158.748 30.2021L156.285 26.1028L153.261 27.9058L156.151 33.1426Z" fill="#344CCC"/>
<path d="M166.007 35.4056C165.518 34.0344 164.661 33.6362 163.579 33.7984L163.121 32.544C164.757 32.1099 166.352 32.9374 167.144 34.9787C167.967 37.1369 167.287 38.8181 165.916 39.3071C164.779 39.734 164.101 39.5384 163.596 39.0472L163.245 39.1402C163.228 40.0202 162.83 40.8763 161.49 41.4821C160.033 42.1188 158.087 41.3844 157.202 38.9925C156.2 36.6316 156.849 34.8335 158.478 33.901L158.936 35.1554C157.891 35.9329 157.703 37.1086 158.34 38.5656C158.976 40.0227 160.011 40.6236 161.149 40.1967C162.17 39.8008 162.685 38.9137 162.017 37.3398L161.349 35.7658L162.487 35.3389L163.154 36.9128C163.643 38.2841 164.554 38.4176 165.458 38.0527C166.362 37.6878 166.464 36.66 166.007 35.4056Z" fill="#344CCC"/>
<path d="M166.4 52.4373C163.448 53.0956 160.762 51.9319 160.19 48.8317C159.501 45.7626 161.551 43.5924 164.535 43.051C167.518 42.5095 170.172 43.5564 170.745 46.6565C171.286 49.6398 169.235 51.81 166.4 52.4373ZM166.059 51.1519C168.193 50.7107 169.932 49.2488 169.428 46.8807C168.925 44.5127 166.745 43.8403 164.611 44.2815C162.477 44.7227 160.738 46.1846 161.241 48.5527C161.745 50.9207 163.924 51.5932 166.059 51.1519Z" fill="#344CCC"/>
<path d="M171.867 63.62L161.517 63.7396L161.558 62.478L170.763 62.287L170.622 56.5707L161.417 56.7618L161.457 55.5003L171.807 55.3807L171.867 63.62Z" fill="#344CCC"/>
<path d="M163.521 72.713L164.22 68.275L161.294 66.6749L161.568 65.3513L171.202 70.5498L170.911 72.7533L160.147 74.609L160.421 73.2854L163.521 72.713ZM165.371 68.8449L164.721 72.5198L169.636 71.716L169.745 71.1866L165.371 68.8449Z" fill="#344CCC"/>
<path d="M159.507 84.9098C157.88 83.9655 157.15 82.1579 157.94 79.9472C158.925 77.0592 161.698 76.1982 164.586 77.183C167.474 78.1679 169.122 80.6074 168.02 83.5264C167.286 85.4724 165.805 86.4907 164.014 86.3405L164.436 85.1028C165.55 85.0575 166.422 84.5757 166.93 83.1902C167.72 80.9795 166.258 79.241 164.195 78.5376C162.132 77.8342 159.85 78.1895 159.061 80.4002C158.553 81.7858 158.98 82.9233 160.046 83.6411L159.507 84.9098Z" fill="#344CCC"/>
<path d="M160.749 98.0893L151.761 92.9695L152.448 91.7867L156.588 94.1904L159.507 89.1633L155.367 86.7596L156.054 85.5767L165.042 90.6965L164.355 91.8793L160.511 89.6473L157.592 94.6745L161.436 96.9065L160.749 98.0893Z" fill="#344CCC"/>
<path d="M148.305 105.394C146.048 103.491 145.273 100.57 147.41 98.2521C149.516 95.8172 152.365 96.1868 154.622 98.0897C156.878 99.9927 157.622 102.797 155.516 105.232C153.379 107.55 150.444 107.328 148.305 105.394ZM149.139 104.297C150.773 105.74 153.038 106.265 154.536 104.366C156.15 102.437 155.358 100.396 153.608 98.984C151.974 97.5413 149.709 97.0167 148.211 98.915C146.597 100.844 147.42 103.003 149.139 104.297Z" fill="#344CCC"/>
<path d="M49.5978 25.6452C50.7139 23.7231 52.3498 23.289 54.0072 24.3502C55.6646 25.4113 55.9819 27.0783 54.718 28.9146L52.3381 32.673L43.6074 27.1096L47.3918 21.1023L48.4268 21.7032L45.3602 26.6445L47.9048 28.2208L49.5978 25.6452ZM53.745 28.5473C54.7203 27.0378 54.3554 26.1339 53.3204 25.533C52.2854 24.9321 51.3196 25.0633 50.4612 26.5419L48.8539 28.9696L52.1378 30.9751L53.745 28.5473Z" fill="#344CCC"/>
<path d="M57.7568 24.3552L50.2351 17.2203L51.1007 16.2401L53.9553 18.9849L55.9203 16.9625C57.4799 15.2979 59.3257 15.1834 60.6946 16.5713C62.1803 17.9282 62.147 19.6881 60.5874 21.3527L57.7568 24.3552ZM59.5524 20.7518C60.8234 19.4139 60.6923 18.4481 59.8289 17.5514C58.9656 16.6548 57.9688 16.6691 56.6978 18.007L54.9355 19.8505L57.938 22.6811L59.5524 20.7518ZM57.37 9.69853L64.8918 16.8335L64.0261 17.8136L56.5044 10.6787L57.37 9.69853Z" fill="#344CCC"/>
<path d="M72.0712 8.04982C72.7699 9.74058 72.417 11.7104 70.4997 12.9696C67.9743 14.7654 65.2342 13.8664 63.5553 11.31C61.7595 8.78462 61.8644 5.87999 64.4208 4.20105C66.1044 3.00386 68.0122 3.12304 69.319 4.27722L68.1577 5.08569C67.2395 4.45375 66.2117 4.35124 65.0504 5.1597C63.0472 6.56677 63.3716 8.73211 64.5998 10.5326C65.828 12.333 67.836 13.3012 69.8701 12.011C71.0315 11.2025 71.3367 9.99579 71.0267 8.82727L72.0712 8.04982Z" fill="#344CCC"/>
<path d="M77.9669 -1.77187L74.8501 -0.31946L78.8114 8.01036L77.7049 8.55412L73.7436 0.224296L70.6268 1.6767L70.114 0.687044L77.4232 -2.87837L77.9669 -1.77187Z" fill="#344CCC"/>
<path d="M84.8087 -5.2129C86.9979 -5.91886 88.4765 -5.06039 89.0894 -3.22176C89.5855 -1.35213 88.727 0.126442 86.6547 0.801388L83.7644 1.69337L84.9355 5.63533L83.6501 5.97639L80.7499 -4.01087L84.8087 -5.2129ZM85.9631 -0.390969C87.7159 -0.856048 88.0831 -1.82904 87.6562 -2.96655C87.2293 -4.10407 86.459 -4.65015 84.8541 -4.09923L82.0806 -3.23825L83.1897 0.47001L85.9631 -0.390969Z" fill="#344CCC"/>
<path d="M101.56 -2.90229C101.837 0.0261811 100.525 2.6256 97.3632 2.96433C94.201 3.30306 92.3504 1.04237 91.9568 -1.85509C91.6801 -4.78356 92.9916 -7.38298 96.1538 -7.72171C99.316 -8.06044 101.283 -5.83075 101.56 -2.90229ZM100.244 -2.67808C100.036 -4.87443 98.8081 -6.67488 96.347 -6.52218C93.917 -6.25264 93.0967 -4.1588 93.3042 -1.96245C93.5117 0.233901 94.7399 2.03435 97.201 1.88165C99.6311 1.61211 100.42 -0.598583 100.244 -2.67808Z" fill="#344CCC"/>
</svg>
