<svg width="160" height="135" viewBox="0 0 160 135" fill="none" xmlns="http://www.w3.org/2000/svg">
<path d="M92.6467 134.286C74.7555 134.286 57.8228 127.257 45.3628 114.477C44.0849 113.2 44.0849 111.283 45.3628 110.005C46.6408 108.727 48.5576 108.727 49.8355 110.005C61.337 121.506 76.6724 127.896 92.6467 127.896C126.193 127.896 153.349 100.74 153.349 67.1936C153.349 33.6476 126.193 6.49128 92.6467 6.49128C59.1007 6.49128 31.9444 33.6476 31.9444 67.1936V76.7781C31.9444 78.695 30.6665 79.973 28.7495 79.973C26.8326 79.973 25.5547 78.695 25.5547 76.7781V67.1936C25.5547 30.1332 55.5863 0.101562 92.6467 0.101562C129.707 0.101562 159.739 30.1332 159.739 67.1936C159.739 104.254 129.388 134.286 92.6467 134.286Z" fill="#4563FF"/>
<path d="M28.7537 84.4472L0.958457 56.6519C-0.319486 55.374 -0.319486 53.4571 0.958457 52.1792C2.2364 50.9012 4.15329 50.9012 5.43124 52.1792L28.7537 75.5016L52.0762 52.1792C53.3541 50.9012 55.2711 50.9012 56.549 52.1792C57.827 53.4571 57.827 55.374 56.549 56.6519L28.7537 84.4472Z" fill="#4563FF"/>
</svg>
