<svg width="337" height="215" viewBox="0 0 337 215" fill="none" xmlns="http://www.w3.org/2000/svg">
<path d="M320.16 0.0439453H50.195C41.2494 0.0439453 34.2207 7.07263 34.2207 16.0182V20.8105H290.129C304.186 20.8105 315.687 32.312 315.687 46.3694V181.512H320.48C329.425 181.512 336.454 174.483 336.454 165.538V16.0182C336.135 7.07263 328.786 0.0439453 320.16 0.0439453Z" fill="#4563FF"/>
<path d="M289.808 214.738H19.843C9.29994 214.738 0.673828 206.112 0.673828 195.569V46.05C0.673828 35.507 9.29994 26.8809 19.843 26.8809H289.808C300.351 26.8809 308.977 35.507 308.977 46.05V195.25C308.977 206.112 300.351 214.738 289.808 214.738ZM19.843 33.2706C12.8143 33.2706 7.06354 39.0213 7.06354 46.05V195.25C7.06354 202.278 12.8143 208.029 19.843 208.029H289.808C296.837 208.029 302.588 202.278 302.588 195.25V46.05C302.588 39.0213 296.837 33.2706 289.808 33.2706H19.843Z" fill="#4563FF"/>
<path d="M192.364 67.1368C201.31 67.1368 208.338 74.1655 208.338 83.1111C208.338 92.0567 201.31 99.0853 192.364 99.0853C183.418 99.0853 176.39 92.0567 176.39 83.1111C176.39 74.1655 183.738 67.1368 192.364 67.1368ZM192.364 60.7471C179.904 60.7471 170 70.6511 170 83.1111C170 95.571 179.904 105.475 192.364 105.475C204.824 105.475 214.728 95.571 214.728 83.1111C214.728 70.6511 204.824 60.7471 192.364 60.7471Z" fill="#4563FF"/>
<path d="M253.069 105.475C265.42 105.475 275.433 95.4624 275.433 83.1111C275.433 70.7598 265.42 60.7471 253.069 60.7471C240.718 60.7471 230.705 70.7598 230.705 83.1111C230.705 95.4624 240.718 105.475 253.069 105.475Z" fill="#FF0029"/>
</svg>
