<svg width="14" height="14" viewBox="0 0 14 14" fill="none" xmlns="http://www.w3.org/2000/svg">
<path fill-rule="evenodd" clip-rule="evenodd" d="M0.36273 11.6778C-0.0277942 12.0683 -0.0277942 12.7015 0.36273 13.092C0.753254 13.4825 1.38642 13.4825 1.77694 13.092L6.72682 8.14214L11.6764 13.0918C12.067 13.4823 12.7001 13.4823 13.0907 13.0918C13.4812 12.7012 13.4812 12.0681 13.0907 11.6775L8.14103 6.72792L13.0907 1.7783C13.4812 1.38778 13.4812 0.754612 13.0907 0.364088C12.7001 -0.0264362 12.067 -0.0264368 11.6764 0.364088L6.72682 5.31371L1.77694 0.363833C1.38642 -0.0266915 0.753254 -0.0266918 0.36273 0.363833C-0.0277949 0.754357 -0.0277946 1.38752 0.36273 1.77805L5.31261 6.72792L0.36273 11.6778Z" fill="white"/>
</svg>
