<svg width="14" height="15" viewBox="0 0 14 15" fill="none" xmlns="http://www.w3.org/2000/svg">
<path fill-rule="evenodd" clip-rule="evenodd" d="M1.70901 1.27629C1.31849 0.885768 0.685314 0.885768 0.294786 1.27629C-0.095742 1.66681 -0.095742 2.29997 0.294786 2.69049L5.58633 7.98193L0.293995 13.2742C-0.0965342 13.6647 -0.0965333 14.2978 0.293995 14.6884C0.684523 15.0789 1.31769 15.0789 1.70822 14.6884L7.00056 9.39613L12.2929 14.6884C12.6834 15.0789 13.3166 15.0789 13.7071 14.6884C14.0977 14.2978 14.0977 13.6647 13.7071 13.2742L8.41479 7.98193L13.7063 2.69049C14.0969 2.29997 14.0969 1.66681 13.7063 1.27629C13.3158 0.885768 12.6826 0.885768 12.2921 1.27629L7.00056 6.56773L1.70901 1.27629Z" fill="#4563FF"/>
</svg>
