<svg width="516" height="136" viewBox="0 0 516 136" fill="none" xmlns="http://www.w3.org/2000/svg"> 
<path d="M103.906 4H66.4889C64.9512 4 63.6982 5.28155 63.6982 6.85437V133.146C63.6982 134.718 64.9512 136 66.4889 136H103.906C105.443 136 106.696 134.718 106.696 133.146V6.85437C106.753 5.28155 105.5 4 103.906 4ZM85.2258 127.262C78.1069 127.262 72.2979 121.379 72.2979 114.039C72.2979 106.757 78.0499 100.816 85.2258 100.816C92.3447 100.816 98.1537 106.699 98.1537 114.039C98.0967 121.32 92.3447 127.262 85.2258 127.262Z" fill="#4563FF"></path> <path d="M256.906 4H219.489C217.951 4 216.698 5.28155 216.698 6.85437V133.146C216.698 134.718 217.951 136 219.489 136H256.906C258.443 136 259.696 134.718 259.696 133.146V6.85437C259.753 5.28155 258.5 4 256.906 4ZM238.226 127.262C231.107 127.262 225.298 121.379 225.298 114.039C225.298 106.757 231.05 100.816 238.226 100.816C245.345 100.816 251.154 106.699 251.154 114.039C251.097 121.32 245.345 127.262 238.226 127.262Z" fill="#4563FF"></path> <path d="M154.972 4H118.424C116.922 4 115.698 5.28155 115.698 6.85437V133.146C115.698 134.718 116.922 136 118.424 136H154.972C156.474 136 157.698 134.718 157.698 133.146V6.85437C157.698 5.28155 156.474 4 154.972 4ZM136.67 127.262C129.717 127.262 124.043 121.379 124.043 114.039C124.043 106.757 129.661 100.816 136.67 100.816C143.68 100.816 149.298 106.699 149.298 114.039C149.298 121.32 143.68 127.262 136.67 127.262Z" fill="#FF0026"></path> <path d="M307.972 4H271.424C269.922 4 268.698 5.28155 268.698 6.85437V133.146C268.698 134.718 269.922 136 271.424 136H307.972C309.474 136 310.698 134.718 310.698 133.146V6.85437C310.698 5.28155 309.474 4 307.972 4ZM289.67 127.262C282.717 127.262 277.043 121.379 277.043 114.039C277.043 106.757 282.661 100.816 289.67 100.816C296.68 100.816 302.298 106.699 302.298 114.039C302.298 121.32 296.68 127.262 289.67 127.262Z" fill="#FF0026"></path> <path d="M169.105 5.61523H206.248C207.201 5.61523 208.018 6.41819 208.018 7.44789V132.779C208.018 133.808 207.201 134.611 206.248 134.611H169.105C168.152 134.611 167.335 133.808 167.335 132.779V7.44789C167.335 6.41818 168.152 5.61523 169.105 5.61523Z" stroke="#4563FF" stroke-width="2"></path> <path d="M322.105 5.61523H359.248C360.201 5.61523 361.018 6.41819 361.018 7.44789V132.779C361.018 133.808 360.201 134.611 359.248 134.611H322.105C321.152 134.611 320.335 133.808 320.335 132.779V7.44789C320.335 6.41818 321.152 5.61523 322.105 5.61523Z" stroke="#4563FF" stroke-width="2"></path> <path d="M61.1209 7.45006L61.1323 7.45205L61.1437 7.45378C62.0673 7.59369 62.773 8.53592 62.6231 9.60673L41.8793 133.121C41.879 133.122 41.8786 133.124 41.8783 133.126C41.6842 134.182 40.762 134.806 39.827 134.628L39.8134 134.626L3.19282 128.212C3.19095 128.211 3.18909 128.211 3.18722 128.211C2.19816 128.02 1.5459 127.091 1.72939 126.077L1.72948 126.077L1.73166 126.064L22.4209 2.5388C22.4212 2.53683 22.4216 2.53486 22.422 2.5329C22.6162 1.47704 23.5383 0.853708 24.4733 1.03076L24.4733 1.03085L24.4868 1.03323L61.1209 7.45006Z" stroke="#4563FF" stroke-width="2"></path> <path d="M37.0028 110.407C37.0028 117.22 31.608 122.704 24.9999 122.704C18.3918 122.704 12.9971 117.22 12.9971 110.407C12.9971 103.595 18.3918 98.1113 24.9999 98.1113C31.608 98.1113 37.0028 103.595 37.0028 110.407Z" stroke="#4563FF" stroke-width="2"></path> <path d="M199.698 113.5C199.698 120.439 194.29 126 187.698 126C181.106 126 175.698 120.439 175.698 113.5C175.698 106.561 181.106 101 187.698 101C194.29 101 199.698 106.561 199.698 113.5Z" stroke="#4563FF" stroke-width="2"></path> <path d="M352.698 113.5C352.698 120.439 347.29 126 340.698 126C334.106 126 328.698 120.439 328.698 113.5C328.698 106.561 334.106 101 340.698 101C347.29 101 352.698 106.561 352.698 113.5Z" stroke="#4563FF" stroke-width="2"></path> <path d="M409.906 4H372.489C370.951 4 369.698 5.28155 369.698 6.85437V133.146C369.698 134.718 370.951 136 372.489 136H409.906C411.443 136 412.696 134.718 412.696 133.146V6.85437C412.753 5.28155 411.5 4 409.906 4ZM391.226 127.262C384.107 127.262 378.298 121.379 378.298 114.039C378.298 106.757 384.05 100.816 391.226 100.816C398.345 100.816 404.154 106.699 404.154 114.039C404.097 121.32 398.345 127.262 391.226 127.262Z" fill="#4563FF"></path> <path d="M460.972 4H424.424C422.922 4 421.698 5.28155 421.698 6.85437V133.146C421.698 134.718 422.922 136 424.424 136H460.972C462.474 136 463.698 134.718 463.698 133.146V6.85437C463.698 5.28155 462.474 4 460.972 4ZM442.67 127.262C435.717 127.262 430.043 121.379 430.043 114.039C430.043 106.757 435.661 100.816 442.67 100.816C449.68 100.816 455.298 106.699 455.298 114.039C455.298 121.32 449.68 127.262 442.67 127.262Z" fill="#FF0026"></path> <path d="M475.105 5.61523H512.248C513.201 5.61523 514.018 6.41819 514.018 7.44789V132.779C514.018 133.808 513.201 134.611 512.248 134.611H475.105C474.152 134.611 473.335 133.808 473.335 132.779V7.44789C473.335 6.41818 474.152 5.61523 475.105 5.61523Z" stroke="#4563FF" stroke-width="2"></path> <path d="M505.698 113.5C505.698 120.439 500.29 126 493.698 126C487.106 126 481.698 120.439 481.698 113.5C481.698 106.561 487.106 101 493.698 101C500.29 101 505.698 106.561 505.698 113.5Z" stroke="#4563FF" stroke-width="2"></path> </svg>