<svg width="424" height="416" viewBox="0 0 424 416" fill="none" xmlns="http://www.w3.org/2000/svg">
<g clip-path="url(#clip0_10133_117177)">
<g clip-path="url(#clip1_10133_117177)">
<path d="M288.379 87.1553H48.4681C21.6313 87.1553 0 108.817 0 135.692V716.16C0 742.918 21.6313 764.696 48.4681 764.696H288.379C315.1 764.696 336.847 743.034 336.847 716.16V135.692C336.732 108.817 315.1 87.1553 288.379 87.1553Z" fill="#344CCC"/>
<path d="M427.301 48.5364V48.5293L427.301 48.5222C427.178 19.8477 404.088 -3.30129 375.532 -3.30129H135.62C106.956 -3.30129 83.8511 19.843 83.8511 48.5364V629.004C83.8511 657.577 106.951 680.842 135.62 680.842H375.532C404.075 680.842 427.301 657.703 427.301 629.004V48.5364Z" fill="white" stroke="#4563FF" stroke-width="6.60258"/>
<path d="M340.095 22.2863H375.145C389.329 22.2863 400.777 33.8491 400.777 48.0721V628.424C400.777 642.64 389.336 654.094 375.145 654.094H135.234C121.043 654.094 109.602 642.64 109.602 628.424V47.9563C109.602 33.7406 121.043 22.2863 135.234 22.2863H169.011C169.784 22.2863 170.467 22.9676 170.467 23.7459C170.467 34.5515 179.153 43.2532 189.948 43.2532H319.158C329.953 43.2532 338.639 34.5515 338.639 23.7459C338.639 22.9676 339.322 22.2863 340.095 22.2863Z" fill="white" stroke="#4563FF" stroke-width="2.64103"/>
</g>
</g>
<defs>
<clipPath id="clip0_10133_117177">
<rect width="424" height="764.695" fill="white"/>
</clipPath>
<clipPath id="clip1_10133_117177">
<rect width="424" height="764.695" fill="white"/>
</clipPath>
</defs>
</svg>
