<svg width="20" height="20" viewBox="0 0 20 20" fill="none" xmlns="http://www.w3.org/2000/svg">
<mask id="mask0_21392_16390" style="mask-type:alpha" maskUnits="userSpaceOnUse" x="0" y="0" width="20" height="20">
<rect width="20" height="20" fill="#D9D9D9"/>
</mask>
<g mask="url(#mask0_21392_16390)">
</g>
<mask id="mask1_21392_16390" style="mask-type:alpha" maskUnits="userSpaceOnUse" x="0" y="0" width="20" height="20">
<rect width="20" height="20" fill="#D9D9D9"/>
</mask>
<g mask="url(#mask1_21392_16390)">
<path d="M10.0018 13.2082C9.90449 13.2082 9.80716 13.1909 9.70983 13.1562C9.61249 13.1216 9.52249 13.0556 9.43983 12.9582L5.75183 9.29222C5.62649 9.15289 5.56749 8.98956 5.57483 8.80222C5.58149 8.61489 5.64749 8.45856 5.77283 8.33322C5.92549 8.19456 6.08516 8.12856 6.25183 8.13522C6.41849 8.14256 6.57116 8.20856 6.70983 8.33322L10.0018 11.6462L13.3138 8.35422C13.4392 8.21556 13.5852 8.14622 13.7518 8.14622C13.9185 8.14622 14.0782 8.21556 14.2308 8.35422C14.3702 8.49289 14.4398 8.65256 14.4398 8.83322C14.4398 9.01389 14.3702 9.16689 14.2308 9.29222L10.5638 12.9582C10.4812 13.0556 10.3912 13.1216 10.2938 13.1562C10.1965 13.1909 10.0992 13.2082 10.0018 13.2082Z" fill="black"/>
</g>
</svg>
