<svg width="18" height="18" viewBox="0 0 18 18" fill="none" xmlns="http://www.w3.org/2000/svg">
<mask id="mask0_21393_16466" style="mask-type:alpha" maskUnits="userSpaceOnUse" x="0" y="0" width="18" height="18">
<rect width="18" height="18" fill="#D9D9D9"/>
</mask>
<g mask="url(#mask0_21393_16466)">
<path d="M8.58765 14.3063C8.44965 14.1689 8.38065 14.0282 8.38065 13.8842C8.38065 13.7408 8.44335 13.6001 8.56875 13.4621L12.4495 9.60025H3.88065C3.73065 9.60025 3.59325 9.54085 3.46845 9.42205C3.34365 9.30325 3.28125 9.16255 3.28125 8.99995C3.28125 8.83735 3.34365 8.69665 3.46845 8.57785C3.59325 8.45905 3.73065 8.39965 3.88065 8.39965H12.4495L8.56875 4.55575C8.44335 4.41835 8.38065 4.27465 8.38065 4.12465C8.38065 3.97465 8.44965 3.83095 8.58765 3.69355C8.72505 3.56875 8.86245 3.50635 8.99985 3.50635C9.13725 3.50635 9.27465 3.56875 9.41205 3.69355L14.1937 8.49415C14.2814 8.56855 14.3438 8.64955 14.3809 8.73715C14.4187 8.82475 14.4376 8.91235 14.4376 8.99995C14.4376 9.08755 14.4187 9.17515 14.3809 9.26275C14.3438 9.35035 14.2814 9.43135 14.1937 9.50575L9.41205 14.3063C9.27465 14.4311 9.13725 14.4935 8.99985 14.4935C8.86245 14.4935 8.72505 14.4311 8.58765 14.3063Z" fill="#4563FF"/>
</g>
</svg>
