<svg width="54" height="54" viewBox="0 0 54 54" fill="none" xmlns="http://www.w3.org/2000/svg">
<path d="M26.9962 0C41.9123 0 54 12.0893 54 26.9993C54 41.9101 41.9123 54 26.9962 54C12.0876 54 0 41.9108 0 26.9993C0 12.0893 12.0876 0 26.9962 0ZM26.9962 2.08575C13.2363 2.08575 2.08628 13.2388 2.08628 26.9993C2.08628 40.7599 13.2356 51.9136 26.9962 51.9136C40.7597 51.9136 51.9117 40.7599 51.9117 26.9993C51.9117 13.2388 40.7597 2.08575 26.9962 2.08575ZM28.7185 7.60117C28.7185 7.60117 29.3387 8.73315 32.2373 8.21677C34.6336 7.78815 35.9596 8.41253 35.9596 9.2151C35.9596 9.2151 37.6643 9.41895 38.4246 9.91238C39.1863 10.4051 38.3788 11.6384 38.3788 11.6384C38.2623 11.4116 38.1004 11.2779 37.6393 11.1773C37.6393 11.1773 35.7971 10.7028 35.1553 11.9029C33.7552 12.0231 32.5453 12.8614 31.9757 14.0022C31.9454 14.0697 31.4121 15.1247 31.7432 17.2544C31.9171 18.3728 32.4692 19.3212 33.2545 20.1298C33.5968 20.4835 34.0236 20.7104 34.542 20.651C35.361 20.5564 36.0411 20.1636 36.6262 19.5844C36.9465 19.2665 37.0448 18.9041 36.7995 18.4869C36.7671 18.4316 36.7483 18.3688 36.7252 18.306C36.0013 16.5537 36.6066 15.0026 37.8375 14.0846C38.7429 13.4116 39.7864 13.3319 40.8474 13.4825C47.8443 14.4693 48.0788 21.5467 48.0788 23.7296V24.3729C48.0855 30.2076 48.1739 34.3157 48.2184 35.1297C48.2884 36.4102 48.734 36.6788 49.0186 36.8806C48.5723 37.1891 44.9303 36.0423 44.056 34.9549C43.9966 34.8827 43.8766 34.8516 43.785 34.8266C41.615 34.3224 41.6117 32.0531 41.5692 31.3652C39.754 31.3652 39.0508 29.3821 38.8587 28.8664C38.6936 28.4033 38.5837 27.9222 38.5311 27.4333C38.5311 28.3993 37.1042 29.2282 35.5687 27.6885C35.5687 29.2721 33.6845 28.9912 32.7476 28.0543C32.6653 28.3743 32.1455 29.1897 32.1455 29.1897C33.2215 29.3861 33.7055 29.6224 34.2144 30.0679C35.4068 31.1162 35.5423 32.8651 35.5423 33.7676C35.5423 33.7676 37.1844 35.372 37.8342 35.966C38.0263 36.1456 38.2379 36.3015 38.449 36.4615C40.1335 34.5755 40.6936 35.3113 40.6916 35.3167C41.9374 34.8138 42.6269 35.7034 42.3545 36.157C42.0627 35.827 41.5929 35.9242 41.3084 36.18C42.9909 36.4635 42.5986 37.6981 42.1442 37.9573C42.1442 37.6029 42.0344 37.208 41.5046 37.1722C41.5316 37.717 41.1642 37.8121 40.815 37.8256C39.9805 37.8621 38.5884 37.8999 38.1631 38.315C37.9198 38.5513 38.0378 39.2452 37.7769 39.4814C37.6465 39.597 37.4771 39.6588 37.303 39.6542H37.2073C37.1669 39.91 37.243 40.1976 37.5673 40.5364C36.3553 40.6357 35.4485 39.5692 36.0486 38.9995C36.2999 38.7612 37.1459 37.9593 37.1898 37.609C37.2449 37.237 36.8527 36.8192 36.5804 36.5776C35.9974 36.0578 35.3684 35.5928 34.7497 35.1108C34.5592 34.9672 34.3579 34.8386 34.1476 34.7261C34.0542 34.6748 33.9514 34.6423 33.8456 34.6309C33.7395 34.6194 33.6323 34.629 33.5302 34.6592C33.065 34.8043 33.0717 34.7929 32.9511 34.7132C32.4941 34.4115 31.6671 33.7338 29.9468 33.5428C30.0613 33.6157 30.1415 33.6913 30.2083 33.7811C30.2992 33.9107 30.366 34.0646 30.463 34.2745C30.5756 34.5128 30.6612 34.7564 30.7623 34.9947C31.8746 37.6272 32.976 40.2124 34.085 42.8456C34.4523 43.7164 34.1247 44.4785 33.2275 44.8976C32.5736 45.2021 31.8294 45.0387 31.3913 44.4062C31.5167 44.8403 31.5759 45.2162 31.3981 45.5774C31.2228 45.9398 30.9397 46.1983 30.5683 46.357C30.2002 46.5193 29.7918 46.5664 29.3966 46.492C28.9983 46.4123 28.7334 46.1491 28.5298 45.763C28.4955 46.6216 27.9299 47.25 26.9962 47.25C26.0627 47.25 25.4972 46.6216 25.4628 45.7623C25.2586 46.1491 24.9943 46.4123 24.5959 46.492C24.2007 46.5664 23.7922 46.5193 23.4244 46.357C23.0605 46.2095 22.7643 45.9316 22.5939 45.5774C22.4165 45.2155 22.4753 44.8416 22.6006 44.4062C22.1624 45.0387 21.4182 45.2027 20.7651 44.8976C19.8673 44.4785 19.5397 43.7164 19.9077 42.8456C21.0165 40.2131 22.1173 37.6279 23.2301 34.9954C23.3313 34.7564 23.4162 34.5128 23.5288 34.2745C23.6258 34.0632 23.6906 33.9086 23.7823 33.7817C23.849 33.692 23.9292 33.6157 24.0452 33.5428C22.3249 33.7318 21.4964 34.4115 21.0409 34.7126C20.9207 34.7929 20.9261 34.8043 20.4617 34.6592C20.3596 34.629 20.2525 34.6194 20.1466 34.631C20.0407 34.6427 19.9383 34.6751 19.845 34.7267C19.6339 34.8383 19.4323 34.9669 19.2423 35.1115C18.6235 35.5928 17.9953 36.0598 17.4122 36.5776C17.1393 36.8199 16.7469 37.237 16.8022 37.6083C16.8439 37.9573 17.6919 38.7612 17.9434 38.9988C18.5433 39.5692 17.6367 40.6377 16.4253 40.5364C16.7488 40.1976 16.8231 39.9101 16.7834 39.6549C16.6633 39.6529 16.4327 39.6752 16.2157 39.4814C15.9528 39.2452 16.0708 38.5513 15.8288 38.315C15.4021 37.8999 14.0094 37.8621 13.1769 37.8256C12.8285 37.8121 12.4611 37.7177 12.4874 37.1722C11.9562 37.206 11.847 37.6009 11.847 37.9573C11.392 37.6981 11.0017 36.4615 12.6835 36.18C12.4004 35.9242 11.9272 35.827 11.638 36.157C11.3657 35.7034 12.0553 34.8138 13.301 35.3167C13.2969 35.3113 13.8591 34.5775 15.543 36.4615C15.7546 36.3015 15.9663 36.1456 16.1584 35.966C16.765 35.4132 18.236 33.9775 18.4294 33.7885L18.4497 33.7682C18.4497 32.8664 18.5852 31.1182 19.7763 30.0679C20.2865 29.6224 20.7705 29.3861 21.8469 29.1904C21.8469 29.1904 21.3266 28.3743 21.2451 28.0543C20.3081 28.9939 18.4233 29.2721 18.4233 27.6885C16.8878 29.2262 15.4614 28.3993 15.4614 27.4333C15.4089 27.9222 15.299 28.4033 15.1338 28.8664C14.941 29.3821 14.238 31.3652 12.4227 31.3652C12.3809 32.0537 12.3768 34.3204 10.2069 34.8273C10.1159 34.8503 9.99596 34.8827 9.93664 34.9549C9.06033 36.0443 5.42029 37.1891 4.97203 36.8806C5.25582 36.6768 5.70206 36.4102 5.77216 35.1297C5.81799 34.2859 5.91102 29.9045 5.91102 23.7296V23.6507C5.91776 21.3813 6.22987 14.4572 13.1446 13.4825C14.2056 13.3319 15.2497 13.4116 16.1544 14.0846C17.3852 15.0026 17.9912 16.5537 17.2666 18.306C17.2443 18.3688 17.2255 18.4316 17.1925 18.4869C16.9472 18.9041 17.0462 19.2665 17.3664 19.5844C17.9507 20.1636 18.631 20.5564 19.4506 20.651C19.9684 20.7104 20.395 20.4835 20.7381 20.1292C21.5228 19.3212 22.0565 18.3708 22.2487 17.2544C22.6127 15.1342 22.0466 14.069 22.0161 14.0022C21.4465 12.8614 20.2366 12.0231 18.8372 11.9029C18.1949 10.7028 16.3525 11.1773 16.3525 11.1773C15.8915 11.2786 15.7297 11.4116 15.6111 11.6384C15.6111 11.6384 14.8055 10.4058 15.5659 9.91238C16.3276 9.41895 18.0331 9.2151 18.0331 9.2151C18.0331 8.4132 19.359 7.78815 21.754 8.2161C24.6512 8.73315 25.274 7.60185 25.274 7.60185C25.3941 8.9883 24.335 9.70245 23.996 9.89685C25.0948 11.0896 26.6302 13.473 26.9956 16.8541C27.3616 13.4723 28.8972 11.0896 29.9967 9.89685C29.6555 9.70245 28.5986 8.98763 28.7185 7.60117Z" fill="#595959"/>
</svg>
