<svg width="14" height="14" viewBox="0 0 14 14" fill="none" xmlns="http://www.w3.org/2000/svg">
<path fill-rule="evenodd" clip-rule="evenodd" d="M2.05109 0.636643C1.66057 0.246119 1.0274 0.246119 0.636876 0.636643C0.246352 1.02717 0.246352 1.66033 0.636876 2.05086L5.58602 7L0.635667 11.9504C0.245142 12.3409 0.245143 12.974 0.635667 13.3646C1.02619 13.7551 1.65936 13.7551 2.04988 13.3646L7.00023 8.41421L11.9506 13.3646C12.3411 13.7551 12.9743 13.7551 13.3648 13.3646C13.7553 12.974 13.7553 12.3409 13.3648 11.9504L8.41445 7L13.3636 2.05086C13.7541 1.66033 13.7541 1.02717 13.3636 0.636643C12.9731 0.246119 12.3399 0.246119 11.9494 0.636643L7.00023 5.58579L2.05109 0.636643Z" fill="#344CCC"/>
</svg>
