<svg width="146" height="76" viewBox="0 0 146 76" fill="none" xmlns="http://www.w3.org/2000/svg">
<g filter="url(#filter0_i_8917_92355)">
<path d="M61.7343 47.3659L39.1069 8.24477C51.7078 1.71851 65.9826 -1.03571 80.1758 0.349322C90.6803 1.3744 100.78 4.63165 109.806 9.83751L86.9319 48.7275C83.5147 46.7413 79.6852 45.4991 75.7007 45.1103C70.9111 44.6429 66.0969 45.428 61.7343 47.3659Z" fill="white"/>
</g>
<path d="M45.6254 72.1662C45.6254 72.279 45.6254 72.3917 45.6254 72.5045H0.000488281C0.000488281 45.7805 14.6005 22.2137 36.3864 9.69739L59.1989 48.825C51.1004 53.5609 45.6254 62.2434 45.6254 72.1662Z" fill="#FD2232"/>
<path d="M145.886 68.2196V68.6707C146 69.7983 146 71.0386 146 72.1662V72.5045H100.375V70.5876C100.261 70.3621 100.261 70.0238 100.261 69.7983C100.261 69.6291 100.232 69.4882 100.204 69.3472C100.175 69.2063 100.147 69.0653 100.147 68.8962C100.147 68.71 100.112 68.5579 100.081 68.4212C100.056 68.3096 100.033 68.2082 100.033 68.1069C100.033 67.7686 100.033 67.4303 99.9188 67.092C99.8618 66.9229 99.8332 66.7538 99.8047 66.5846C99.7762 66.4155 99.7477 66.2463 99.6907 66.0772C99.6289 65.9551 99.6006 65.8 99.5695 65.6297C99.5432 65.4854 99.5149 65.3303 99.4625 65.1751C99.4055 65.0624 99.377 64.9496 99.3485 64.8368C99.32 64.7241 99.2915 64.6113 99.2344 64.4986C99.1774 64.3858 99.1489 64.2449 99.1204 64.1039C99.0918 63.963 99.0633 63.822 99.0063 63.7093C98.9493 63.5965 98.9207 63.4837 98.8922 63.371C98.8637 63.2582 98.8352 63.1455 98.7782 63.0327C98.7211 62.8636 98.6641 62.7226 98.6071 62.5817C98.5501 62.4407 98.493 62.2998 98.436 62.1306C98.436 62.0742 98.4075 62.0461 98.379 62.0179C98.3504 61.9897 98.3219 61.9615 98.3219 61.9051L80.186 69.6855C79.7298 73.1811 76.7641 76 73.0001 76C69.0079 76 65.8141 72.8428 65.8141 68.8962C65.8141 64.9496 69.0079 61.7923 73.0001 61.7923C74.597 61.7923 76.0798 62.3561 77.3344 63.2582L127.864 45.7805L127.408 44.5401L93.8735 54.914C93.8735 54.8576 93.845 54.8294 93.8165 54.8013C93.7879 54.7731 93.7594 54.7449 93.7594 54.6885C93.7024 54.5757 93.6169 54.4912 93.5313 54.4066C93.4458 54.322 93.3602 54.2375 93.3032 54.1247C93.0751 53.7864 92.847 53.5609 92.6189 53.3354L92.0485 52.7716C91.8926 52.5404 91.6834 52.3619 91.4938 52.2001C91.406 52.1251 91.3223 52.0537 91.2501 51.9823C91.1705 51.825 91.0356 51.7226 90.9224 51.6368C90.8733 51.5995 90.8283 51.5654 90.7938 51.5312C90.4516 51.4185 90.2235 51.1929 89.9954 50.9674C89.9383 50.911 89.8528 50.8547 89.7673 50.7983C89.6817 50.7419 89.5962 50.6855 89.5391 50.6292C89.368 50.5164 89.1684 50.3754 88.9688 50.2345C88.7692 50.0935 88.5696 49.9526 88.3985 49.8398C88.3415 49.8398 88.313 49.8116 88.2844 49.7835C88.2559 49.7553 88.2274 49.7271 88.1704 49.7271C87.9423 49.6143 87.7426 49.4734 87.543 49.3324C87.3434 49.1915 87.1438 49.0505 86.9157 48.9378C82.9235 46.457 78.1329 45.1039 73.0001 45.1039C69.0347 45.1039 65.1819 45.8827 61.7769 47.4402L60.662 45.5126C64.4021 43.8466 68.5889 42.8487 73.0001 42.8487C78.4751 42.8487 83.4938 44.3146 87.9422 46.9081L108.473 11.7271C98.0938 5.75086 85.8891 2.25531 73.0001 2.25531C61.2111 2.25531 49.9853 5.15085 40.2185 10.1672L39.1021 8.23687C49.2047 3.0035 60.7648 0.00012207 73.0001 0.00012207C86.3454 0.00012207 98.8922 3.60843 109.614 9.69744C109.829 9.76822 109.999 9.88343 110.152 9.9873C110.243 10.0489 110.328 10.1065 110.413 10.1485C110.641 10.374 110.869 10.4868 111.097 10.374C111.895 10.825 112.808 11.3888 113.606 11.9526C113.72 11.9526 113.834 12.0654 113.948 12.1782C114.291 12.4601 114.661 12.7138 115.032 12.9675C115.403 13.2212 115.773 13.4749 116.116 13.7568C116.23 13.8132 116.344 13.8977 116.458 13.9823C116.572 14.0669 116.686 14.1514 116.8 14.2078C117.199 14.5461 117.598 14.8562 117.998 15.1663C118.397 15.4764 118.796 15.7865 119.195 16.1247L119.423 16.3503C119.766 16.6885 120.136 16.9986 120.507 17.3087C120.878 17.6188 121.248 17.9289 121.591 18.2672L122.047 18.7182C122.845 19.3947 123.53 20.0712 124.328 20.8605L124.442 20.9734C125.241 21.7627 125.925 22.4393 126.609 23.2286C126.768 23.3072 126.872 23.4406 126.959 23.5524C126.997 23.601 127.031 23.6455 127.066 23.6796C128.548 25.2583 129.917 26.9496 131.172 28.641C131.286 28.8666 131.4 28.9793 131.514 29.0921C132.769 30.7835 134.023 32.5876 135.164 34.3918C135.208 34.4779 135.235 34.5476 135.258 34.6071C135.295 34.7034 135.322 34.7731 135.392 34.8428C136.533 36.7597 137.673 38.6766 138.586 40.5936C138.63 40.6797 138.656 40.7494 138.679 40.8089C138.717 40.9052 138.744 40.9749 138.814 41.0446C139.841 43.0743 140.639 45.1039 141.438 47.1336C141.438 47.2657 141.477 47.3591 141.509 47.4365C141.532 47.4912 141.552 47.5379 141.552 47.5846C142.35 49.6143 143.034 51.7567 143.605 53.8992C143.605 53.9556 143.633 54.0401 143.662 54.1247C143.69 54.2093 143.719 54.2938 143.719 54.3502C144.289 56.6054 144.745 58.7478 145.088 61.003C145.202 61.1158 145.202 61.3413 145.202 61.4541C145.544 63.5965 145.772 65.9644 145.886 68.2196Z" fill="#6FE566"/>
<defs>
<filter id="filter0_i_8917_92355" x="39.1069" y="0" width="70.6987" height="48.7275" filterUnits="userSpaceOnUse" color-interpolation-filters="sRGB">
<feFlood flood-opacity="0" result="BackgroundImageFix"/>
<feBlend mode="normal" in="SourceGraphic" in2="BackgroundImageFix" result="shape"/>
<feColorMatrix in="SourceAlpha" type="matrix" values="0 0 0 0 0 0 0 0 0 0 0 0 0 0 0 0 0 0 127 0" result="hardAlpha"/>
<feOffset/>
<feGaussianBlur stdDeviation="3.27625"/>
<feComposite in2="hardAlpha" operator="arithmetic" k2="-1" k3="1"/>
<feColorMatrix type="matrix" values="0 0 0 0 0.886275 0 0 0 0 0.894118 0 0 0 0 0.92549 0 0 0 1 0"/>
<feBlend mode="normal" in2="shape" result="effect1_innerShadow_8917_92355"/>
</filter>
</defs>
</svg>
