<svg width="83" height="98" viewBox="0 0 83 98" fill="none" xmlns="http://www.w3.org/2000/svg">
<path d="M20.255 57.9171V16.9478C20.255 13.6198 22.9524 10.918 26.2848 10.918C29.6128 10.918 32.3146 13.6154 32.3146 16.9478V42.4507" fill="white"/>
<path d="M20.255 57.9171V16.9478C20.255 13.6198 22.9524 10.918 26.2848 10.918C29.6128 10.918 32.3146 13.6154 32.3146 16.9478V42.4507" stroke="#4664FF" stroke-width="2" stroke-miterlimit="10" stroke-linecap="round"/>
<path d="M44.6807 41.6979V7.18314C44.6807 3.7807 41.9307 1.01322 38.5239 1.00008C35.0952 0.982567 32.3102 3.75881 32.3102 7.18314V38.6108" fill="white"/>
<path d="M44.6807 41.6979V7.18313C44.6807 3.7807 41.9307 1.01322 38.5239 1.00008C35.0952 0.982567 32.3102 3.75881 32.3102 7.18313V38.6108" stroke="#4664FF" stroke-width="2" stroke-miterlimit="10" stroke-linecap="round"/>
<path d="M56.587 41.6977V17.3377C56.587 14.0491 53.9202 11.3867 50.636 11.3867C47.3474 11.3867 44.6851 14.0535 44.6851 17.3377V35.5934" fill="white"/>
<path d="M56.587 41.6977V17.3377C56.587 14.0491 53.9202 11.3867 50.636 11.3867C47.3474 11.3867 44.6851 14.0535 44.6851 17.3377V35.5934" stroke="#4664FF" stroke-width="2" stroke-miterlimit="10" stroke-linecap="round"/>
<path d="M11.2303 89.8661C16.8797 89.8661 21.4595 87.4057 21.4595 84.3706C21.4595 81.3355 16.8797 78.875 11.2303 78.875C5.58086 78.875 1.0011 81.3355 1.0011 84.3706C1.0011 87.4057 5.58086 89.8661 11.2303 89.8661Z" fill="#4664FF" stroke="#4664FF" stroke-width="2" stroke-miterlimit="10" stroke-linecap="round" stroke-linejoin="round"/>
<path d="M21.4595 91.2939C21.4595 94.3285 16.8791 96.7895 11.2303 96.7895C5.58146 96.7895 1.0011 94.3285 1.0011 91.2939" stroke="#4664FF" stroke-width="2" stroke-miterlimit="10" stroke-linecap="round" stroke-linejoin="round"/>
<path d="M67.3419 41.7721C68.6643 41.4349 70.1444 41.251 71.7033 41.251C77.3521 41.251 81.9325 43.7119 81.9325 46.7465C81.9325 49.7811 77.3521 52.2421 71.7033 52.2421C70.1356 52.2421 68.6512 52.0538 67.3243 51.7123" fill="#4664FF"/>
<path d="M67.3419 41.7721C68.6643 41.4349 70.1444 41.251 71.7033 41.251C77.3521 41.251 81.9325 43.7119 81.9325 46.7465C81.9325 49.7811 77.3521 52.2421 71.7033 52.2421C70.1356 52.2421 68.6512 52.0538 67.3243 51.7123" stroke="#4664FF" stroke-width="2" stroke-miterlimit="10" stroke-linecap="round" stroke-linejoin="round"/>
<path d="M81.9282 53.665C81.9282 56.6996 77.3478 59.1606 71.699 59.1606C70.1313 59.1606 68.6469 58.9723 67.3201 58.6308" stroke="#4664FF" stroke-width="2" stroke-miterlimit="10" stroke-linecap="round" stroke-linejoin="round"/>
<path d="M81.9282 60.8555C81.9282 63.8901 77.3478 66.351 71.699 66.351C70.1313 66.351 68.6469 66.1627 67.3201 65.8212" stroke="#4664FF" stroke-width="2" stroke-miterlimit="10" stroke-linecap="round" stroke-linejoin="round"/>
<path d="M81.9281 68.0547C81.9281 71.0893 77.3477 73.5502 71.6989 73.5502C69.8028 73.5502 68.025 73.2744 66.5011 72.7883" stroke="#4664FF" stroke-width="2" stroke-miterlimit="10" stroke-linecap="round" stroke-linejoin="round"/>
<path d="M20.255 57.9171V16.9478C20.255 13.6198 22.9524 10.918 26.2848 10.918C29.6128 10.918 32.3146 13.6154 32.3146 16.9478V42.4507" stroke="#4664FF" stroke-width="1.97052" stroke-miterlimit="10" stroke-linecap="round"/>
<path d="M20.255 39.7533V38.1681C20.255 35.1117 17.7853 32.6244 14.7288 32.6025C11.6416 32.5806 9.12378 35.081 9.12378 38.1681V64.7089C9.12378 78.7171 20.4783 90.0716 34.4865 90.0716H43.8881C56.8279 90.0716 67.3198 79.5797 67.3198 66.64V23.7045C67.3198 20.74 64.9158 18.3359 61.9512 18.3359C58.9867 18.3359 56.5827 20.74 56.5827 23.7045V24.2125" fill="white"/>
<path d="M20.255 39.7533V38.1681C20.255 35.1117 17.7853 32.6244 14.7288 32.6025C11.6416 32.5806 9.12378 35.081 9.12378 38.1681V64.7089C9.12378 78.7171 20.4783 90.0716 34.4865 90.0716H43.8881C56.8279 90.0716 67.3198 79.5797 67.3198 66.64V23.7045C67.3198 20.74 64.9158 18.3359 61.9512 18.3359C58.9867 18.3359 56.5827 20.74 56.5827 23.7045V24.2125" stroke="#4664FF" stroke-width="2" stroke-miterlimit="10" stroke-linecap="round"/>
<path d="M44.6807 41.6979V7.18313C44.6807 3.7807 41.9307 1.01322 38.5239 1.00008C35.0952 0.982567 32.3102 3.75881 32.3102 7.18313V38.6108" stroke="#4664FF" stroke-width="1.97052" stroke-miterlimit="10" stroke-linecap="round"/>
<path d="M56.587 41.6977V17.3377C56.587 14.0491 53.9202 11.3867 50.636 11.3867C47.3474 11.3867 44.6851 14.0535 44.6851 17.3377V17.5698" stroke="#4664FF" stroke-width="1.97052" stroke-miterlimit="10" stroke-linecap="round"/>
<path d="M20.255 39.7533V38.1681C20.255 35.1117 17.7853 32.6244 14.7288 32.6025C11.6416 32.5806 9.12378 35.081 9.12378 38.1681V64.7089C9.12378 78.7171 20.4783 90.0716 34.4865 90.0716H43.8881C56.8279 90.0716 67.3198 79.5797 67.3198 66.64V23.7045C67.3198 20.74 64.9158 18.3359 61.9512 18.3359C58.9867 18.3359 56.5827 20.74 56.5827 23.7045V24.2125" stroke="#4664FF" stroke-width="1.97052" stroke-miterlimit="10" stroke-linecap="round"/>
<path d="M20.255 39.7533V38.1681C20.255 35.1117 17.7853 32.6244 14.7288 32.6025C11.6416 32.5806 9.12378 35.081 9.12378 38.1681V64.7089C9.12378 78.7171 20.4783 90.0716 34.4865 90.0716H43.8881C56.8279 90.0716 67.3198 79.5797 67.3198 66.64V23.7045C67.3198 20.74 64.9158 18.3359 61.9512 18.3359C58.9867 18.3359 56.5827 20.74 56.5827 23.7045V24.2125" stroke="#4664FF" stroke-width="2" stroke-miterlimit="10" stroke-linecap="round"/>
<path d="M32.3143 56.4111L49.0418 73.1387" stroke="#FF0028" stroke-width="3.94104" stroke-miterlimit="10" stroke-linecap="round"/>
<path d="M49.0418 56.4111L32.3143 73.1387" stroke="#FF0028" stroke-width="3.94104" stroke-miterlimit="10" stroke-linecap="round"/>
</svg>
