<svg width="92" height="74" viewBox="0 0 92 74" fill="none" xmlns="http://www.w3.org/2000/svg">
<path d="M88.2995 0H85.8269H12.2626C10.2254 0 8.57019 1.6511 8.57019 3.69238V7.48334H76.9472C79.8961 7.48334 82.2866 9.87374 82.2866 12.8227C82.2866 12.8227 82.2783 50.9418 82.2742 64.5202C82.2742 67.2064 84.451 69.3791 87.1371 69.3791C89.8232 69.3791 92.0001 67.2022 92.0001 64.5161V3.68827C91.9919 1.6552 90.3366 0 88.2995 0Z" fill="#4664FF"/>
<path d="M5.56365 72.3081H86.102L83.4364 70.9116C81.161 69.7205 79.7317 67.363 79.7317 64.7918V13.8213C79.7317 11.7841 78.0806 10.1289 76.0393 10.1289H73.5669H4.69292C2.65574 10.1289 1.00049 11.78 1.00049 13.8213V67.7449C1.0046 70.2626 3.04593 72.3081 5.56365 72.3081Z" stroke="#4664FF" stroke-width="2" stroke-miterlimit="10" stroke-linecap="round" stroke-linejoin="round"/>
<path d="M31.9565 35.4736L50.209 46.5796" stroke="#4664FF" stroke-width="2" stroke-miterlimit="10" stroke-linecap="round" stroke-linejoin="round"/>
<path d="M27.759 37.589C30.6534 37.589 32.9998 35.2427 32.9998 32.3482C32.9998 29.4538 30.6534 27.1074 27.759 27.1074C24.8646 27.1074 22.5182 29.4538 22.5182 32.3482C22.5182 35.2427 24.8646 37.589 27.759 37.589Z" stroke="#4664FF" stroke-width="2" stroke-miterlimit="10"/>
<path d="M25.4795 37.0635L17.187 53.2664" stroke="#4664FF" stroke-width="2" stroke-miterlimit="10" stroke-linecap="round" stroke-linejoin="round"/>
<path d="M51.7041 43.6387L63.077 26.4746" stroke="#4664FF" stroke-width="2" stroke-miterlimit="10" stroke-linecap="round" stroke-linejoin="round"/>
<path d="M50.431 51.4553C53.3254 51.4553 55.6718 49.1089 55.6718 46.2144C55.6718 43.32 53.3254 40.9736 50.431 40.9736C47.5366 40.9736 45.1902 43.32 45.1902 46.2144C45.1902 49.1089 47.5366 51.4553 50.431 51.4553Z" fill="#FF0028" stroke="#FF0028" stroke-width="1.84825" stroke-miterlimit="10"/>
<path d="M16.9815 56.7702C18.2858 56.7702 19.3432 55.7128 19.3432 54.4085C19.3432 53.1042 18.2858 52.0469 16.9815 52.0469C15.6772 52.0469 14.6199 53.1042 14.6199 54.4085C14.6199 55.7128 15.6772 56.7702 16.9815 56.7702Z" fill="#4664FF" stroke="#4664FF" stroke-width="1.84825" stroke-miterlimit="10"/>
<path d="M63.0769 28.8366C64.3812 28.8366 65.4385 27.7792 65.4385 26.4749C65.4385 25.1706 64.3812 24.1133 63.0769 24.1133C61.7726 24.1133 60.7152 25.1706 60.7152 26.4749C60.7152 27.7792 61.7726 28.8366 63.0769 28.8366Z" fill="#4664FF" stroke="#4664FF" stroke-width="1.84825" stroke-miterlimit="10"/>
</svg>
