<svg width="24" height="24" viewBox="0 0 24 24" fill="none" xmlns="http://www.w3.org/2000/svg">
<mask id="mask0_20048_226226" style="mask-type:alpha" maskUnits="userSpaceOnUse" x="-1" y="-1" width="25" height="25">
<rect x="-0.0234375" y="-0.122559" width="24" height="24" fill="#D9D9D9"/>
</mask>
<g mask="url(#mask0_20048_226226)">
<path d="M11.9766 16.6274C12.1932 16.6274 12.3726 16.5568 12.5146 16.4154C12.6559 16.2734 12.7266 16.0941 12.7266 15.8774V11.6024C12.7266 11.4024 12.6559 11.2314 12.5146 11.0894C12.3726 10.9481 12.1932 10.8774 11.9766 10.8774C11.7599 10.8774 11.5809 10.9481 11.4396 11.0894C11.2976 11.2314 11.2266 11.4108 11.2266 11.6274V15.9024C11.2266 16.1024 11.2976 16.2734 11.4396 16.4154C11.5809 16.5568 11.7599 16.6274 11.9766 16.6274ZM11.9766 9.17744C12.2099 9.17744 12.4016 9.09811 12.5516 8.93944C12.7016 8.78144 12.7766 8.58577 12.7766 8.35244C12.7766 8.13578 12.7016 7.94811 12.5516 7.78944C12.4016 7.63144 12.2099 7.55244 11.9766 7.55244C11.7432 7.55244 11.5516 7.63144 11.4016 7.78944C11.2516 7.94811 11.1766 8.13578 11.1766 8.35244C11.1766 8.58577 11.2516 8.78144 11.4016 8.93944C11.5516 9.09811 11.7432 9.17744 11.9766 9.17744ZM11.9766 21.3774C10.6599 21.3774 9.42256 21.1274 8.26456 20.6274C7.1059 20.1274 6.10156 19.4524 5.25156 18.6024C4.40156 17.7524 3.72656 16.7481 3.22656 15.5894C2.72656 14.4314 2.47656 13.1941 2.47656 11.8774C2.47656 10.5608 2.72656 9.32311 3.22656 8.16444C3.72656 7.00644 4.40156 6.00244 5.25156 5.15244C6.10156 4.30244 7.1059 3.62744 8.26456 3.12744C9.42256 2.62744 10.6599 2.37744 11.9766 2.37744C13.2932 2.37744 14.5309 2.62744 15.6896 3.12744C16.8476 3.62744 17.8516 4.30244 18.7016 5.15244C19.5516 6.00244 20.2266 7.00644 20.7266 8.16444C21.2266 9.32311 21.4766 10.5608 21.4766 11.8774C21.4766 13.1941 21.2266 14.4314 20.7266 15.5894C20.2266 16.7481 19.5516 17.7524 18.7016 18.6024C17.8516 19.4524 16.8476 20.1274 15.6896 20.6274C14.5309 21.1274 13.2932 21.3774 11.9766 21.3774ZM11.9766 19.8774C14.1932 19.8774 16.0809 19.0984 17.6396 17.5404C19.1976 15.9818 19.9766 14.0941 19.9766 11.8774C19.9766 9.66077 19.1976 7.77311 17.6396 6.21444C16.0809 4.65644 14.1932 3.87744 11.9766 3.87744C9.7599 3.87744 7.87256 4.65644 6.31456 6.21444C4.7559 7.77311 3.97656 9.66077 3.97656 11.8774C3.97656 14.0941 4.7559 15.9818 6.31456 17.5404C7.87256 19.0984 9.7599 19.8774 11.9766 19.8774Z" fill="#4563FF"/>
</g>
</svg>
