<svg width="630" height="437" viewBox="0 0 630 437" fill="none" xmlns="http://www.w3.org/2000/svg">
<g filter="url(#filter0_f_128_5772)">
<circle cx="418" cy="203" r="170" fill="#4563FF" fill-opacity="0.2"/>
</g>
<ellipse cx="421" cy="206.5" rx="170" ry="171.5" fill="#4563FF"/>
<mask id="mask0_128_5772" style="mask-type:alpha" maskUnits="userSpaceOnUse" x="0" y="32" width="592" height="352">
<path d="M415.403 384C512.935 384 592 305.202 592 208C592 110.798 512.935 32 415.403 32H0V384H415.403Z" fill="#C4C4C4"/>
</mask>
<g mask="url(#mask0_128_5772)">
<g filter="url(#filter1_i_128_5772)">
<circle cx="416.678" cy="209" r="176" fill="#ECEEF6"/>
</g>
<rect x="218.178" y="46.5" width="627" height="194" rx="3.27404" fill="white"/>
<rect x="242.207" y="72.1469" width="240.784" height="35.476" rx="1.88702" fill="white"/>
<path d="M261.864 93.3849L260.099 88.059H261.029L262.519 92.5395H262.953L264.39 88.059H265.33L263.544 93.3849H261.864ZM266.43 85.7025H267.328V93.3849H266.43V85.7025ZM272.453 93.3849V92.8248H272.221C271.893 93.2369 271.323 93.5223 270.562 93.5223C269.336 93.5223 268.649 92.698 268.649 91.7892C268.649 90.9333 269.209 90.0245 270.689 90.0245H272.422V89.8131C272.422 89.1685 272.052 88.7036 271.122 88.7036C270.329 88.7036 269.928 89.01 269.886 89.475H268.987C269.061 88.4922 269.907 87.9216 271.101 87.9216C272.443 87.9216 273.299 88.5662 273.299 89.7603V93.3849H272.453ZM270.784 92.7403C271.671 92.7403 272.422 92.0745 272.422 91.2292V90.7431H270.826C269.949 90.7431 269.547 91.1235 269.547 91.7575C269.547 92.3599 269.991 92.7403 270.784 92.7403ZM278.811 85.7025H279.709V93.3849H278.843V92.8143H278.61C278.315 93.1841 277.797 93.5223 276.951 93.5223C275.482 93.5223 274.616 92.2965 274.616 90.7219C274.616 89.1157 275.482 87.9216 276.951 87.9216C277.797 87.9216 278.283 88.2492 278.579 88.6296H278.811V85.7025ZM277.152 92.7403C278.336 92.7403 278.822 91.7681 278.822 90.7219C278.822 89.6758 278.336 88.7036 277.152 88.7036C276.085 88.7036 275.514 89.5384 275.514 90.7219C275.514 91.9055 276.085 92.7403 277.152 92.7403ZM282.396 86.6746H281.445V85.7025H282.396V86.6746ZM282.364 88.059V93.3849H281.466V88.059H282.364ZM289.718 87.9216C290.944 87.9216 291.472 88.7141 291.472 89.9399V93.3849H290.574V90.0351C290.574 89.158 290.236 88.7247 289.549 88.7247C288.714 88.7247 288.249 89.3693 288.249 90.2675V93.3849H287.351V90.0562C287.351 89.1791 287.002 88.7247 286.337 88.7247C285.449 88.7247 285.026 89.475 285.026 90.4366V93.3849H284.128V88.059H284.995V88.5768H285.227C285.491 88.1646 285.903 87.9216 286.58 87.9216C287.224 87.9216 287.7 88.1541 287.985 88.6296H288.218C288.545 88.1541 289.052 87.9216 289.718 87.9216ZM294.067 86.6746H293.116V85.7025H294.067V86.6746ZM294.036 88.059V93.3849H293.138V88.059H294.036ZM298.843 88.059V88.9043H298.399C297.342 88.9043 296.698 89.549 296.698 90.7219V93.3849H295.8V88.059H296.666V88.693H296.899C297.163 88.3654 297.67 88.059 298.441 88.059H298.843ZM306.424 94.0612L306.73 94.5896C305.959 95.0968 305.061 95.3927 303.972 95.3927C301.383 95.3927 299.756 93.6808 299.756 91.1446C299.756 88.2703 301.753 86.0512 304.723 86.0512C306.952 86.0512 308.886 87.4249 308.886 89.8448C308.886 91.4616 308.062 92.9939 306.54 92.9939C305.938 92.9939 305.558 92.7931 305.378 92.3916H305.177C304.913 92.6769 304.522 92.9939 303.814 92.9939C302.757 92.9939 302.123 92.2753 302.123 91.0812C302.123 89.6863 303 88.4711 304.385 88.4711C304.966 88.4711 305.367 88.7458 305.505 88.9889H305.716L305.801 88.619H306.551L306.107 91.3031C306.107 91.3348 306.054 91.6836 306.054 91.8421C306.054 92.2119 306.287 92.3916 306.657 92.3916C307.449 92.3916 308.21 91.4722 308.21 89.8131C308.21 87.9533 306.794 86.6535 304.628 86.6535C302.25 86.6535 300.432 88.45 300.432 91.1341C300.432 93.0467 301.5 94.7903 304.015 94.7903C304.934 94.7903 305.716 94.5156 306.424 94.0612ZM303.972 92.307C304.807 92.307 305.42 91.5039 305.42 90.3732C305.42 89.327 304.881 89.158 304.395 89.158C303.518 89.158 302.969 90.1407 302.969 91.0706C302.969 91.7787 303.254 92.307 303.972 92.307ZM315.93 87.9216C317.156 87.9216 317.684 88.7141 317.684 89.9399V93.3849H316.786V90.0351C316.786 89.158 316.448 88.7247 315.761 88.7247C314.926 88.7247 314.461 89.3693 314.461 90.2675V93.3849H313.563V90.0562C313.563 89.1791 313.214 88.7247 312.548 88.7247C311.661 88.7247 311.238 89.475 311.238 90.4366V93.3849H310.34V88.059H311.206V88.5768H311.439C311.703 88.1646 312.115 87.9216 312.792 87.9216C313.436 87.9216 313.912 88.1541 314.197 88.6296H314.429C314.757 88.1541 315.264 87.9216 315.93 87.9216ZM322.72 93.3849V92.8248H322.488C322.16 93.2369 321.59 93.5223 320.829 93.5223C319.603 93.5223 318.916 92.698 318.916 91.7892C318.916 90.9333 319.476 90.0245 320.956 90.0245H322.689V89.8131C322.689 89.1685 322.319 88.7036 321.389 88.7036C320.596 88.7036 320.195 89.01 320.153 89.475H319.254C319.328 88.4922 320.174 87.9216 321.368 87.9216C322.71 87.9216 323.566 88.5662 323.566 89.7603V93.3849H322.72ZM321.051 92.7403C321.938 92.7403 322.689 92.0745 322.689 91.2292V90.7431H321.093C320.216 90.7431 319.814 91.1235 319.814 91.7575C319.814 92.3599 320.258 92.7403 321.051 92.7403ZM326.162 86.6746H325.21V85.7025H326.162V86.6746ZM326.13 88.059V93.3849H325.232V88.059H326.13ZM327.894 85.7025H328.792V93.3849H327.894V85.7025ZM331.571 93.3849H330.472V92.1591H331.571V93.3849ZM336.293 88.059V88.9043H335.849C334.792 88.9043 334.148 89.549 334.148 90.7219V93.3849H333.249V88.059H334.116V88.693H334.348C334.613 88.3654 335.12 88.059 335.891 88.059H336.293ZM337.386 88.059H338.284V91.2503C338.284 92.2331 338.738 92.7191 339.637 92.7191C340.577 92.7191 341.222 91.9055 341.222 90.9438V88.059H342.12V93.3849H341.253V92.8143H341.021C340.725 93.2264 340.133 93.5223 339.415 93.5223C338.104 93.5223 337.386 92.7191 337.386 91.4405V88.059Z" fill="black"/>
<rect x="242.207" y="72.1469" width="240.784" height="35.476" rx="1.88702" stroke="#4563FF" stroke-width="0.754808"/>
<path d="M242.185 63.7187H242.902C243.076 64.2999 243.574 64.6697 244.321 64.6697C245.498 64.6697 246.057 63.7639 246.095 62.7148H243.566V62.1109H246.087C245.989 61.1372 245.453 60.3069 244.328 60.3069C243.581 60.3069 243.166 60.6164 242.962 61.1599H242.245C242.479 60.2541 243.242 59.6955 244.321 59.6955C245.921 59.6955 246.804 60.9032 246.804 62.4883C246.804 64.0659 245.921 65.2811 244.321 65.2811C243.166 65.2811 242.389 64.6471 242.185 63.7187ZM247.319 65.183V64.5791H247.447C247.96 64.5791 248.194 64.2017 248.194 62.8506V61.3788H251.108V65.183H250.459V61.9373H248.791V62.8657C248.791 64.6169 248.383 65.183 247.447 65.183H247.319ZM255.64 63.0544V63.2733H252.741C252.764 64.1791 253.171 64.7226 253.956 64.7226C254.492 64.7226 254.809 64.4961 254.923 64.1338H255.572C255.451 64.7829 254.9 65.2811 253.956 65.2811C252.771 65.2811 252.107 64.4131 252.107 63.2431C252.107 62.0732 252.786 61.2806 253.941 61.2806C255.074 61.2806 255.617 62.1185 255.64 63.0544ZM253.926 61.8392C253.239 61.8392 252.862 62.2543 252.779 62.7374H254.975C254.938 62.2543 254.568 61.8392 253.926 61.8392ZM259.265 65.183L258.42 63.5073H257.28V65.183H256.639V61.3788H257.28V62.9488H258.435L259.228 61.3788H259.899L258.971 63.2129L259.952 65.183H259.265ZM260.47 61.9373V61.3788H263.746V61.9373H262.432V65.183H261.791V61.9373H260.47ZM266.419 61.8392C265.573 61.8392 265.226 62.5336 265.226 63.2809C265.226 64.0281 265.573 64.7226 266.419 64.7226C267.181 64.7226 267.589 64.1263 267.589 63.2809C267.589 62.4355 267.181 61.8392 266.419 61.8392ZM264.592 61.3788H265.211V61.7863H265.377C265.588 61.5222 265.958 61.2806 266.562 61.2806C267.611 61.2806 268.23 62.1562 268.23 63.2809C268.23 64.4282 267.611 65.2811 266.562 65.2811C265.958 65.2811 265.603 65.0471 265.4 64.7754H265.234V66.6926H264.592V61.3788ZM270.874 61.2806C272.059 61.2806 272.746 62.1562 272.746 63.2809C272.746 64.4055 272.059 65.2811 270.874 65.2811C269.681 65.2811 269.002 64.4055 269.002 63.2809C269.002 62.1562 269.681 61.2806 270.874 61.2806ZM270.874 64.7226C271.712 64.7226 272.104 64.0281 272.104 63.2809C272.104 62.5336 271.712 61.8392 270.874 61.8392C270.028 61.8392 269.643 62.5336 269.643 63.2809C269.643 64.0281 270.028 64.7226 270.874 64.7226ZM277.136 65.183H276.495V63.5073H274.389V65.183H273.747V61.3788H274.389V62.9488H276.495V61.3788H277.136V65.183ZM281.765 65.183H281.124V63.5073H279.018V65.183H278.376V61.3788H279.018V62.9488H281.124V61.3788H281.765V65.183ZM285.428 65.183V64.7829H285.262C285.028 65.0773 284.62 65.2811 284.077 65.2811C283.201 65.2811 282.711 64.6924 282.711 64.0432C282.711 63.4318 283.111 62.7827 284.168 62.7827H285.405V62.6317C285.405 62.1713 285.141 61.8392 284.477 61.8392C283.911 61.8392 283.624 62.0581 283.594 62.3902H282.952C283.005 61.6882 283.609 61.2806 284.462 61.2806C285.421 61.2806 286.032 61.7411 286.032 62.594V65.183H285.428ZM284.236 64.7226C284.87 64.7226 285.405 64.247 285.405 63.6432V63.296H284.266C283.639 63.296 283.352 63.5677 283.352 64.0206C283.352 64.4508 283.669 64.7226 284.236 64.7226ZM288.437 61.3788H290.332V65.183H289.683V63.6809H288.528C288.445 63.6809 288.377 63.6809 288.294 63.6734L287.72 65.183H287.048L287.69 63.53C287.297 63.3413 287.101 63.0091 287.101 62.5336C287.101 61.809 287.569 61.3788 288.437 61.3788ZM289.683 61.9222H288.505C287.931 61.9222 287.743 62.1562 287.743 62.5412C287.743 62.911 287.931 63.1375 288.505 63.1375H289.683V61.9222ZM297.023 65.183H296.381V61.9373H294.305V65.183H293.664V61.3788H297.023V65.183ZM299.901 61.2806C301.086 61.2806 301.773 62.1562 301.773 63.2809C301.773 64.4055 301.086 65.2811 299.901 65.2811C298.709 65.2811 298.03 64.4055 298.03 63.2809C298.03 62.1562 298.709 61.2806 299.901 61.2806ZM299.901 64.7226C300.739 64.7226 301.132 64.0281 301.132 63.2809C301.132 62.5336 300.739 61.8392 299.901 61.8392C299.056 61.8392 298.671 62.5336 298.671 63.2809C298.671 64.0281 299.056 64.7226 299.901 64.7226ZM302.556 61.3788H303.197V62.4506C303.197 62.8204 303.22 63.2129 304.156 63.2129C304.511 63.2129 304.828 63.1752 305.107 63.1148V61.3788H305.756V65.183H305.107V63.6809C304.782 63.7488 304.345 63.7866 304.02 63.7866C302.639 63.7866 302.556 63.1299 302.556 62.5034V61.3788ZM306.539 61.9373V61.3788H309.815V61.9373H308.502V65.183H307.86V61.9373H306.539ZM313.085 65.183V64.7829H312.919C312.685 65.0773 312.277 65.2811 311.734 65.2811C310.858 65.2811 310.367 64.6924 310.367 64.0432C310.367 63.4318 310.767 62.7827 311.824 62.7827H313.062V62.6317C313.062 62.1713 312.798 61.8392 312.134 61.8392C311.568 61.8392 311.281 62.0581 311.251 62.3902H310.609C310.662 61.6882 311.266 61.2806 312.119 61.2806C313.077 61.2806 313.689 61.7411 313.689 62.594V65.183H313.085ZM311.892 64.7226C312.526 64.7226 313.062 64.247 313.062 63.6432V63.296H311.922C311.296 63.296 311.009 63.5677 311.009 64.0206C311.009 64.4508 311.326 64.7226 311.892 64.7226Z" fill="#4563FF"/>
<path d="M496.134 79.4183H500.452V84.8076H499.772V80.0372H496.813V84.8076H496.134V79.4183ZM502.021 81.4714C502.358 81.094 502.816 80.9053 503.395 80.9053C503.973 80.9053 504.429 81.094 504.761 81.4714C505.098 81.8488 505.267 82.3268 505.267 82.9055C505.267 83.4842 505.098 83.9622 504.761 84.3396C504.429 84.717 503.973 84.9057 503.395 84.9057C502.816 84.9057 502.358 84.717 502.021 84.3396C501.689 83.9622 501.523 83.4842 501.523 82.9055C501.523 82.3268 501.689 81.8488 502.021 81.4714ZM502.481 83.932C502.693 84.2088 502.997 84.3472 503.395 84.3472C503.792 84.3472 504.097 84.2088 504.308 83.932C504.519 83.6502 504.625 83.3081 504.625 82.9055C504.625 82.5029 504.519 82.1633 504.308 81.8865C504.097 81.6047 503.792 81.4638 503.395 81.4638C502.997 81.4638 502.693 81.6047 502.481 81.8865C502.27 82.1633 502.164 82.5029 502.164 82.9055C502.164 83.3081 502.27 83.6502 502.481 83.932ZM508.842 83.6603H509.483C509.408 84.0427 509.229 84.3472 508.947 84.5736C508.671 84.795 508.316 84.9057 507.883 84.9057C507.31 84.9057 506.857 84.7196 506.525 84.3472C506.197 83.9698 506.034 83.4892 506.034 82.9055C506.034 82.3168 506.197 81.8362 506.525 81.4638C506.852 81.0914 507.305 80.9053 507.883 80.9053C508.321 80.9053 508.676 81.016 508.947 81.2374C509.224 81.4538 509.395 81.7431 509.461 82.1054H508.819C508.683 81.6777 508.371 81.4638 507.883 81.4638C507.476 81.4638 507.171 81.5997 506.97 81.8714C506.774 82.1381 506.676 82.4778 506.676 82.8904C506.676 83.3081 506.776 83.6553 506.977 83.932C507.179 84.2088 507.481 84.3472 507.883 84.3472C508.417 84.3472 508.736 84.1182 508.842 83.6603ZM510.01 84.8076V84.2038H510.138C510.405 84.2038 510.596 84.0805 510.712 83.8339C510.827 83.5823 510.885 83.1294 510.885 82.4753V81.0034H513.799V84.8076H513.15V81.5619H511.482V82.4904C511.482 83.3508 511.376 83.9522 511.165 84.2943C510.958 84.6365 510.616 84.8076 510.138 84.8076H510.01ZM518.331 82.6791V82.898H515.432C515.442 83.3559 515.551 83.7131 515.757 83.9698C515.963 84.2214 516.26 84.3472 516.648 84.3472C517.171 84.3472 517.493 84.1509 517.614 83.7584H518.263C518.197 84.1006 518.024 84.3774 517.742 84.5887C517.465 84.8001 517.1 84.9057 516.648 84.9057C516.069 84.9057 515.616 84.717 515.289 84.3396C514.962 83.9622 514.798 83.4716 514.798 82.8678C514.798 82.274 514.962 81.7985 515.289 81.4412C515.616 81.0839 516.064 80.9053 516.632 80.9053C517.171 80.9053 517.586 81.0764 517.878 81.4185C518.17 81.7557 518.321 82.1759 518.331 82.6791ZM516.617 81.4638C516.29 81.4638 516.029 81.5494 515.832 81.7205C515.636 81.8865 515.515 82.1004 515.47 82.362H517.667C517.646 82.1054 517.543 81.8915 517.357 81.7205C517.171 81.5494 516.924 81.4638 516.617 81.4638ZM524.004 83.6603H524.646C524.57 84.0427 524.392 84.3472 524.11 84.5736C523.833 84.795 523.478 84.9057 523.046 84.9057C522.472 84.9057 522.019 84.7196 521.687 84.3472C521.36 83.9698 521.196 83.4892 521.196 82.9055C521.196 82.3168 521.36 81.8362 521.687 81.4638C522.014 81.0914 522.467 80.9053 523.046 80.9053C523.483 80.9053 523.838 81.016 524.11 81.2374C524.387 81.4538 524.558 81.7431 524.623 82.1054H523.982C523.846 81.6777 523.534 81.4638 523.046 81.4638C522.638 81.4638 522.334 81.5997 522.132 81.8714C521.936 82.1381 521.838 82.4778 521.838 82.8904C521.838 83.3081 521.939 83.6553 522.14 83.932C522.341 84.2088 522.643 84.3472 523.046 84.3472C523.579 84.3472 523.899 84.1182 524.004 83.6603ZM525.867 81.4714C526.204 81.094 526.662 80.9053 527.24 80.9053C527.819 80.9053 528.274 81.094 528.607 81.4714C528.944 81.8488 529.112 82.3268 529.112 82.9055C529.112 83.4842 528.944 83.9622 528.607 84.3396C528.274 84.717 527.819 84.9057 527.24 84.9057C526.662 84.9057 526.204 84.717 525.867 84.3396C525.535 83.9622 525.368 83.4842 525.368 82.9055C525.368 82.3268 525.535 81.8488 525.867 81.4714ZM526.327 83.932C526.538 84.2088 526.843 84.3472 527.24 84.3472C527.638 84.3472 527.942 84.2088 528.154 83.932C528.365 83.6502 528.471 83.3081 528.471 82.9055C528.471 82.5029 528.365 82.1633 528.154 81.8865C527.942 81.6047 527.638 81.4638 527.24 81.4638C526.843 81.4638 526.538 81.6047 526.327 81.8865C526.116 82.1633 526.01 82.5029 526.01 82.9055C526.01 83.3081 526.116 83.6502 526.327 83.932ZM532.547 84.8076L531.603 83.215H531.332L530.365 84.8076H529.663L530.848 82.8602L529.784 81.0034H530.463L531.339 82.513H531.611L532.501 81.0034H533.173L532.094 82.8376L533.271 84.8076H532.547ZM535.994 81.4638C535.597 81.4638 535.297 81.6022 535.096 81.879C534.9 82.1557 534.802 82.4979 534.802 82.9055C534.802 83.3131 534.9 83.6553 535.096 83.932C535.297 84.2088 535.597 84.3472 535.994 84.3472C536.367 84.3472 536.654 84.2164 536.855 83.9547C537.061 83.688 537.164 83.3383 537.164 82.9055C537.164 82.4727 537.061 82.1255 536.855 81.8639C536.654 81.5972 536.367 81.4638 535.994 81.4638ZM534.168 81.0034H534.787V81.411H534.953C535.225 81.0738 535.62 80.9053 536.138 80.9053C536.651 80.9053 537.056 81.094 537.353 81.4714C537.655 81.8488 537.806 82.3268 537.806 82.9055C537.806 83.4943 537.655 83.9748 537.353 84.3472C537.056 84.7196 536.651 84.9057 536.138 84.9057C535.614 84.9057 535.227 84.7372 534.975 84.4H534.809V86.3172H534.168V81.0034ZM541.235 84.8076V84.4076H541.068C540.807 84.7397 540.412 84.9057 539.883 84.9057C539.466 84.9057 539.134 84.785 538.887 84.5434C538.641 84.3019 538.517 84.01 538.517 83.6679C538.517 83.3206 538.638 83.0238 538.88 82.7772C539.121 82.5306 539.486 82.4073 539.974 82.4073H541.212V82.2564C541.212 82.0148 541.136 81.8236 540.985 81.6827C540.834 81.5368 540.601 81.4638 540.283 81.4638C539.73 81.4638 539.436 81.6475 539.4 82.0148H538.759C538.784 81.6676 538.932 81.3959 539.204 81.1996C539.481 81.0034 539.836 80.9053 540.268 80.9053C540.756 80.9053 541.139 81.0185 541.416 81.2449C541.697 81.4714 541.838 81.7959 541.838 82.2186V84.8076H541.235ZM540.042 84.3472C540.359 84.3472 540.633 84.244 540.865 84.0377C541.096 83.8264 541.212 83.5697 541.212 83.2678V82.9206H540.072C539.463 82.9206 539.159 83.1621 539.159 83.6452C539.159 83.8616 539.234 84.0327 539.385 84.1585C539.541 84.2843 539.76 84.3472 540.042 84.3472ZM546.402 84.8076H545.761V83.1319H543.655V84.8076H543.013V81.0034H543.655V82.5734H545.761V81.0034H546.402V84.8076ZM550.941 82.6791V82.898H548.042C548.052 83.3559 548.161 83.7131 548.367 83.9698C548.573 84.2214 548.87 84.3472 549.258 84.3472C549.781 84.3472 550.103 84.1509 550.224 83.7584H550.873C550.807 84.1006 550.634 84.3774 550.352 84.5887C550.075 84.8001 549.71 84.9057 549.258 84.9057C548.679 84.9057 548.226 84.717 547.899 84.3396C547.572 83.9622 547.408 83.4716 547.408 82.8678C547.408 82.274 547.572 81.7985 547.899 81.4412C548.226 81.0839 548.674 80.9053 549.242 80.9053C549.781 80.9053 550.196 81.0764 550.488 81.4185C550.78 81.7557 550.931 82.1759 550.941 82.6791ZM549.227 81.4638C548.9 81.4638 548.639 81.5494 548.442 81.7205C548.246 81.8865 548.125 82.1004 548.08 82.362H550.277C550.256 82.1054 550.153 81.8915 549.967 81.7205C549.781 81.5494 549.534 81.4638 549.227 81.4638ZM555.329 84.8076H554.687V83.1319H552.581V84.8076H551.94V81.0034H552.581V82.5734H554.687V81.0034H555.329V84.8076ZM557.475 84.8076H556.569V81.0034H557.195V83.9471H557.361L559.029 81.0034H559.965V84.8076H559.339V81.8639H559.173L557.475 84.8076ZM562.436 81.0034H564.33V84.8076H563.681V83.3055H562.526C562.425 83.3055 562.347 83.303 562.292 83.298L561.718 84.8076H561.047L561.688 83.1546C561.296 82.9684 561.1 82.6363 561.1 82.1582C561.1 81.7909 561.213 81.5066 561.439 81.3053C561.671 81.104 562.003 81.0034 562.436 81.0034ZM563.681 81.5468H562.503C562.227 81.5468 562.03 81.5997 561.915 81.7054C561.799 81.811 561.741 81.9645 561.741 82.1658C561.741 82.362 561.799 82.5105 561.915 82.6111C562.03 82.7118 562.227 82.7621 562.503 82.7621H563.681V81.5468ZM565.901 84.8076H565.524V83.932H566.309V84.951L565.886 85.6756H565.479L565.901 84.951V84.8076ZM572.997 84.8076H572.356V83.1319H570.25V84.8076H569.608V81.0034H570.25V82.5734H572.356V81.0034H572.997V84.8076ZM576.66 84.8076V84.4076H576.494C576.233 84.7397 575.838 84.9057 575.309 84.9057C574.892 84.9057 574.559 84.785 574.313 84.5434C574.066 84.3019 573.943 84.01 573.943 83.6679C573.943 83.3206 574.064 83.0238 574.305 82.7772C574.547 82.5306 574.912 82.4073 575.4 82.4073H576.638V82.2564C576.638 82.0148 576.562 81.8236 576.411 81.6827C576.26 81.5368 576.026 81.4638 575.709 81.4638C575.156 81.4638 574.861 81.6475 574.826 82.0148H574.185C574.21 81.6676 574.358 81.3959 574.63 81.1996C574.907 81.0034 575.261 80.9053 575.694 80.9053C576.182 80.9053 576.565 81.0185 576.842 81.2449C577.123 81.4714 577.264 81.7959 577.264 82.2186V84.8076H576.66ZM575.468 84.3472C575.785 84.3472 576.059 84.244 576.291 84.0377C576.522 83.8264 576.638 83.5697 576.638 83.2678V82.9206H575.498C574.889 82.9206 574.585 83.1621 574.585 83.6452C574.585 83.8616 574.66 84.0327 574.811 84.1585C574.967 84.2843 575.186 84.3472 575.468 84.3472ZM580.298 83.7056H580.925C581.03 84.1333 581.37 84.3472 581.944 84.3472C582.291 84.3472 582.565 84.2365 582.766 84.0151C582.973 83.7937 583.086 83.5043 583.106 83.147H581.393V82.6036H583.099C583.068 82.2564 582.955 81.9796 582.759 81.7733C582.568 81.567 582.296 81.4638 581.944 81.4638C581.4 81.4638 581.071 81.6626 580.955 82.0601H580.328C580.404 81.7079 580.583 81.4286 580.864 81.2223C581.146 81.0109 581.503 80.9053 581.936 80.9053C582.5 80.9053 582.945 81.0914 583.272 81.4638C583.599 81.8312 583.763 82.3117 583.763 82.9055C583.763 83.5043 583.599 83.9874 583.272 84.3547C582.945 84.7221 582.497 84.9057 581.929 84.9057C581.501 84.9057 581.139 84.795 580.842 84.5736C580.55 84.3522 580.369 84.0629 580.298 83.7056ZM584.297 81.5619V81.0034H587.573V81.5619H586.26V84.8076H585.618V81.5619H584.297ZM588.625 81.4714C588.962 81.094 589.42 80.9053 589.999 80.9053C590.577 80.9053 591.033 81.094 591.365 81.4714C591.702 81.8488 591.87 82.3268 591.87 82.9055C591.87 83.4842 591.702 83.9622 591.365 84.3396C591.033 84.717 590.577 84.9057 589.999 84.9057C589.42 84.9057 588.962 84.717 588.625 84.3396C588.293 83.9622 588.127 83.4842 588.127 82.9055C588.127 82.3268 588.293 81.8488 588.625 81.4714ZM589.085 83.932C589.297 84.2088 589.601 84.3472 589.999 84.3472C590.396 84.3472 590.701 84.2088 590.912 83.932C591.123 83.6502 591.229 83.3081 591.229 82.9055C591.229 82.5029 591.123 82.1633 590.912 81.8865C590.701 81.6047 590.396 81.4638 589.999 81.4638C589.601 81.4638 589.297 81.6047 589.085 81.8865C588.874 82.1633 588.768 82.5029 588.768 82.9055C588.768 83.3081 588.874 83.6502 589.085 83.932ZM592.406 81.5619V81.0034H595.681V81.5619H594.368V84.8076H593.726V81.5619H592.406ZM600.749 84.8076V84.4076H600.583C600.322 84.7397 599.927 84.9057 599.398 84.9057C598.981 84.9057 598.648 84.785 598.402 84.5434C598.155 84.3019 598.032 84.01 598.032 83.6679C598.032 83.3206 598.153 83.0238 598.394 82.7772C598.636 82.5306 599.001 82.4073 599.489 82.4073H600.727V82.2564C600.727 82.0148 600.651 81.8236 600.5 81.6827C600.349 81.5368 600.115 81.4638 599.798 81.4638C599.245 81.4638 598.95 81.6475 598.915 82.0148H598.274C598.299 81.6676 598.447 81.3959 598.719 81.1996C598.996 81.0034 599.35 80.9053 599.783 80.9053C600.271 80.9053 600.654 81.0185 600.931 81.2449C601.212 81.4714 601.353 81.7959 601.353 82.2186V84.8076H600.749ZM599.557 84.3472C599.874 84.3472 600.148 84.244 600.38 84.0377C600.611 83.8264 600.727 83.5697 600.727 83.2678V82.9206H599.587C598.978 82.9206 598.674 83.1621 598.674 83.6452C598.674 83.8616 598.749 84.0327 598.9 84.1585C599.056 84.2843 599.275 84.3472 599.557 84.3472ZM605.917 84.2491H606.619V85.887H605.993V84.8076H602.702V85.887H602.075V84.2491H602.581C602.893 83.5848 603.049 82.8501 603.049 82.045V81.0034H605.917V84.2491ZM605.275 84.2491V81.5619H603.645V82.045C603.645 82.9055 603.507 83.6402 603.23 84.2491H605.275ZM609.279 81.4638C608.881 81.4638 608.582 81.6022 608.38 81.879C608.184 82.1557 608.086 82.4979 608.086 82.9055C608.086 83.3131 608.184 83.6553 608.38 83.932C608.582 84.2088 608.881 84.3472 609.279 84.3472C609.651 84.3472 609.938 84.2164 610.139 83.9547C610.345 83.688 610.449 83.3383 610.449 82.9055C610.449 82.4727 610.345 82.1255 610.139 81.8639C609.938 81.5972 609.651 81.4638 609.279 81.4638ZM607.452 81.0034H608.071V81.411H608.237C608.509 81.0738 608.904 80.9053 609.422 80.9053C609.935 80.9053 610.34 81.094 610.637 81.4714C610.939 81.8488 611.09 82.3268 611.09 82.9055C611.09 83.4943 610.939 83.9748 610.637 84.3472C610.34 84.7196 609.935 84.9057 609.422 84.9057C608.899 84.9057 608.511 84.7372 608.26 84.4H608.094V86.3172H607.452V81.0034ZM615.394 82.6791V82.898H612.496C612.506 83.3559 612.614 83.7131 612.82 83.9698C613.027 84.2214 613.324 84.3472 613.711 84.3472C614.234 84.3472 614.556 84.1509 614.677 83.7584H615.326C615.261 84.1006 615.087 84.3774 614.806 84.5887C614.529 84.8001 614.164 84.9057 613.711 84.9057C613.132 84.9057 612.679 84.717 612.352 84.3396C612.025 83.9622 611.862 83.4716 611.862 82.8678C611.862 82.274 612.025 81.7985 612.352 81.4412C612.679 81.0839 613.127 80.9053 613.696 80.9053C614.234 80.9053 614.65 81.0764 614.941 81.4185C615.233 81.7557 615.384 82.1759 615.394 82.6791ZM613.681 81.4638C613.354 81.4638 613.092 81.5494 612.896 81.7205C612.7 81.8865 612.579 82.1004 612.534 82.362H614.73C614.71 82.1054 614.607 81.8915 614.421 81.7205C614.234 81.5494 613.988 81.4638 613.681 81.4638ZM618.967 83.6603H619.609C619.533 84.0427 619.355 84.3472 619.073 84.5736C618.796 84.795 618.441 84.9057 618.008 84.9057C617.435 84.9057 616.982 84.7196 616.65 84.3472C616.323 83.9698 616.159 83.4892 616.159 82.9055C616.159 82.3168 616.323 81.8362 616.65 81.4638C616.977 81.0914 617.43 80.9053 618.008 80.9053C618.446 80.9053 618.801 81.016 619.073 81.2374C619.349 81.4538 619.521 81.7431 619.586 82.1054H618.944C618.809 81.6777 618.497 81.4638 618.008 81.4638C617.601 81.4638 617.296 81.5997 617.095 81.8714C616.899 82.1381 616.801 82.4778 616.801 82.8904C616.801 83.3081 616.901 83.6553 617.103 83.932C617.304 84.2088 617.606 84.3472 618.008 84.3472C618.542 84.3472 618.861 84.1182 618.967 83.6603ZM624.402 81.0411C624.961 81.0411 625.401 81.2248 625.723 81.5921C626.045 81.9544 626.206 82.4149 626.206 82.9734C626.206 83.527 626.035 83.9874 625.693 84.3547C625.356 84.7221 624.9 84.9057 624.327 84.9057C623.723 84.9057 623.255 84.707 622.923 84.3094C622.596 83.9119 622.432 83.3433 622.432 82.6036C622.432 82.3168 622.44 82.0601 622.455 81.8337C622.475 81.6072 622.515 81.3707 622.575 81.1242C622.641 80.8776 622.726 80.6688 622.832 80.4977C622.938 80.3215 623.084 80.1681 623.27 80.0372C623.456 79.9064 623.677 79.8209 623.934 79.7806L624.946 79.6145C625.086 79.5944 625.18 79.5667 625.225 79.5315C625.275 79.4963 625.305 79.4258 625.315 79.3202H625.912C625.902 79.5567 625.844 79.7454 625.738 79.8863C625.632 80.0221 625.441 80.1152 625.164 80.1656L623.994 80.3618C623.677 80.4172 623.443 80.5505 623.293 80.7618C623.147 80.9682 623.051 81.2449 623.006 81.5921H623.172C623.328 81.3858 623.501 81.2424 623.693 81.1619C623.889 81.0814 624.125 81.0411 624.402 81.0411ZM623.391 83.9471C623.607 84.2138 623.914 84.3472 624.312 84.3472C624.709 84.3472 625.013 84.2138 625.225 83.9471C625.441 83.6754 625.549 83.3483 625.549 82.9659C625.549 82.5835 625.441 82.2589 625.225 81.9922C625.013 81.7255 624.709 81.5921 624.312 81.5921C623.914 81.5921 623.607 81.7255 623.391 81.9922C623.179 82.2589 623.074 82.5835 623.074 82.9659C623.074 83.3483 623.179 83.6754 623.391 83.9471ZM628.108 86.3172H627.459L628.244 84.4529L626.621 81.0034H627.308L628.47 83.5093H628.659L629.716 81.0034H630.387L628.108 86.3172ZM634.355 84.2491H635.057V85.887H634.431V84.8076H631.14V85.887H630.513V84.2491H631.019C631.331 83.5848 631.487 82.8501 631.487 82.045V81.0034H634.355V84.2491ZM633.713 84.2491V81.5619H632.083V82.045C632.083 82.9055 631.945 83.6402 631.668 84.2491H633.713ZM639.188 82.6791V82.898H636.29C636.3 83.3559 636.408 83.7131 636.615 83.9698C636.821 84.2214 637.118 84.3472 637.505 84.3472C638.029 84.3472 638.351 84.1509 638.471 83.7584H639.12C639.055 84.1006 638.881 84.3774 638.6 84.5887C638.323 84.8001 637.958 84.9057 637.505 84.9057C636.926 84.9057 636.474 84.717 636.147 84.3396C635.819 83.9622 635.656 83.4716 635.656 82.8678C635.656 82.274 635.819 81.7985 636.147 81.4412C636.474 81.0839 636.921 80.9053 637.49 80.9053C638.029 80.9053 638.444 81.0764 638.736 81.4185C639.027 81.7557 639.178 82.1759 639.188 82.6791ZM637.475 81.4638C637.148 81.4638 636.886 81.5494 636.69 81.7205C636.494 81.8865 636.373 82.1004 636.328 82.362H638.524C638.504 82.1054 638.401 81.8915 638.215 81.7205C638.029 81.5494 637.782 81.4638 637.475 81.4638ZM639.669 81.5619V81.0034H642.945V81.5619H641.632V84.8076H640.99V81.5619H639.669ZM496.33 90.4714C496.668 90.094 497.125 89.9053 497.704 89.9053C498.283 89.9053 498.738 90.094 499.07 90.4714C499.407 90.8488 499.576 91.3268 499.576 91.9055C499.576 92.4842 499.407 92.9622 499.07 93.3396C498.738 93.717 498.283 93.9057 497.704 93.9057C497.125 93.9057 496.668 93.717 496.33 93.3396C495.998 92.9622 495.832 92.4842 495.832 91.9055C495.832 91.3268 495.998 90.8488 496.33 90.4714ZM496.791 92.932C497.002 93.2088 497.307 93.3472 497.704 93.3472C498.102 93.3472 498.406 93.2088 498.617 92.932C498.829 92.6502 498.934 92.3081 498.934 91.9055C498.934 91.5029 498.829 91.1633 498.617 90.8865C498.406 90.6047 498.102 90.4638 497.704 90.4638C497.307 90.4638 497.002 90.6047 496.791 90.8865C496.579 91.1633 496.474 91.5029 496.474 91.9055C496.474 92.3081 496.579 92.6502 496.791 92.932ZM500.111 90.5619V90.0034H503.387V90.5619H502.074V93.8076H501.432V90.5619H500.111ZM507.592 93.8076H506.951V90.5619H504.875V93.8076H504.233V90.0034H507.592V93.8076ZM510.66 90.4638C510.262 90.4638 509.963 90.6022 509.761 90.879C509.565 91.1557 509.467 91.4979 509.467 91.9055C509.467 92.3131 509.565 92.6553 509.761 92.932C509.963 93.2088 510.262 93.3472 510.66 93.3472C511.032 93.3472 511.319 93.2164 511.52 92.9547C511.727 92.688 511.83 92.3383 511.83 91.9055C511.83 91.4727 511.727 91.1255 511.52 90.8639C511.319 90.5972 511.032 90.4638 510.66 90.4638ZM508.833 90.0034H509.452V90.411H509.618C509.89 90.0738 510.285 89.9053 510.803 89.9053C511.316 89.9053 511.721 90.094 512.018 90.4714C512.32 90.8488 512.471 91.3268 512.471 91.9055C512.471 92.4943 512.32 92.9748 512.018 93.3472C511.721 93.7196 511.316 93.9057 510.803 93.9057C510.28 93.9057 509.892 93.7372 509.641 93.4H509.475V95.3172H508.833V90.0034ZM515.9 93.8076V93.4076H515.734C515.472 93.7397 515.077 93.9057 514.549 93.9057C514.131 93.9057 513.799 93.785 513.552 93.5434C513.306 93.3019 513.183 93.01 513.183 92.6679C513.183 92.3206 513.303 92.0238 513.545 91.7772C513.786 91.5306 514.151 91.4073 514.639 91.4073H515.877V91.2564C515.877 91.0148 515.802 90.8236 515.651 90.6827C515.5 90.5368 515.266 90.4638 514.949 90.4638C514.395 90.4638 514.101 90.6475 514.066 91.0148H513.424C513.449 90.6676 513.598 90.3959 513.869 90.1996C514.146 90.0034 514.501 89.9053 514.934 89.9053C515.422 89.9053 515.804 90.0185 516.081 90.2449C516.363 90.4714 516.504 90.7959 516.504 91.2186V93.8076H515.9ZM514.707 93.3472C515.024 93.3472 515.299 93.244 515.53 93.0377C515.761 92.8264 515.877 92.5697 515.877 92.2678V91.9206H514.737C514.129 91.9206 513.824 92.1621 513.824 92.6452C513.824 92.8616 513.9 93.0327 514.051 93.1585C514.207 93.2843 514.425 93.3472 514.707 93.3472ZM520.358 91.7093V91.8753C520.544 91.9206 520.693 92.0212 520.803 92.1772C520.919 92.3332 520.977 92.5295 520.977 92.766C520.977 93.4604 520.529 93.8076 519.633 93.8076H517.678V90.0034H519.565C519.948 90.0034 520.242 90.0889 520.449 90.26C520.66 90.4261 520.766 90.6601 520.766 90.962C520.766 91.1381 520.725 91.2916 520.645 91.4224C520.569 91.5533 520.474 91.6489 520.358 91.7093ZM518.313 93.2642H519.596C520.089 93.2642 520.335 93.0755 520.335 92.698C520.335 92.3156 520.089 92.1244 519.596 92.1244H518.313V93.2642ZM518.313 90.5468V91.5809H519.505C519.721 91.5809 519.877 91.5331 519.973 91.4375C520.074 91.3419 520.124 91.2186 520.124 91.0677C520.124 90.7205 519.918 90.5468 519.505 90.5468H518.313ZM521.546 93.8076V93.2038H521.674C521.941 93.2038 522.132 93.0805 522.248 92.8339C522.363 92.5823 522.421 92.1294 522.421 91.4753V90.0034H525.335V93.8076H524.686V90.5619H523.017V91.4904C523.017 92.3508 522.912 92.9522 522.7 93.2943C522.494 93.6365 522.152 93.8076 521.674 93.8076H521.546ZM529.867 91.6791V91.898H526.968C526.978 92.3559 527.086 92.7131 527.293 92.9698C527.499 93.2214 527.796 93.3472 528.183 93.3472C528.707 93.3472 529.029 93.1509 529.15 92.7584H529.799C529.733 93.1006 529.56 93.3774 529.278 93.5887C529.001 93.8001 528.636 93.9057 528.183 93.9057C527.605 93.9057 527.152 93.717 526.825 93.3396C526.498 92.9622 526.334 92.4716 526.334 91.8678C526.334 91.274 526.498 90.7985 526.825 90.4412C527.152 90.0839 527.6 89.9053 528.168 89.9053C528.707 89.9053 529.122 90.0764 529.414 90.4185C529.706 90.7557 529.857 91.1759 529.867 91.6791ZM528.153 90.4638C527.826 90.4638 527.564 90.5494 527.368 90.7205C527.172 90.8865 527.051 91.1004 527.006 91.362H529.202C529.182 91.1054 529.079 90.8915 528.893 90.7205C528.707 90.5494 528.46 90.4638 528.153 90.4638ZM534.255 93.8076H533.613V92.1319H531.507V93.8076H530.865V90.0034H531.507V91.5734H533.613V90.0034H534.255V93.8076ZM535.759 90.4714C536.096 90.094 536.554 89.9053 537.133 89.9053C537.711 89.9053 538.167 90.094 538.499 90.4714C538.836 90.8488 539.004 91.3268 539.004 91.9055C539.004 92.4842 538.836 92.9622 538.499 93.3396C538.167 93.717 537.711 93.9057 537.133 93.9057C536.554 93.9057 536.096 93.717 535.759 93.3396C535.427 92.9622 535.261 92.4842 535.261 91.9055C535.261 91.3268 535.427 90.8488 535.759 90.4714ZM536.219 92.932C536.431 93.2088 536.735 93.3472 537.133 93.3472C537.53 93.3472 537.834 93.2088 538.046 92.932C538.257 92.6502 538.363 92.3081 538.363 91.9055C538.363 91.5029 538.257 91.1633 538.046 90.8865C537.834 90.6047 537.53 90.4638 537.133 90.4638C536.735 90.4638 536.431 90.6047 536.219 90.8865C536.008 91.1633 535.902 91.5029 535.902 91.9055C535.902 92.3081 536.008 92.6502 536.219 92.932ZM545.465 93.8076H544.824V90.5619H542.748V93.8076H542.107V90.0034H545.465V93.8076ZM547.612 93.8076H546.706V90.0034H547.333V92.9471H547.499L549.167 90.0034H550.103V93.8076H549.476V90.8639H549.31L547.612 93.8076ZM553.916 92.6603H554.558C554.483 93.0427 554.304 93.3472 554.022 93.5736C553.745 93.795 553.391 93.9057 552.958 93.9057C552.384 93.9057 551.931 93.7196 551.599 93.3472C551.272 92.9698 551.109 92.4892 551.109 91.9055C551.109 91.3168 551.272 90.8362 551.599 90.4638C551.926 90.0914 552.379 89.9053 552.958 89.9053C553.396 89.9053 553.75 90.016 554.022 90.2374C554.299 90.4538 554.47 90.7431 554.535 91.1054H553.894C553.758 90.6777 553.446 90.4638 552.958 90.4638C552.55 90.4638 552.246 90.5997 552.045 90.8714C551.848 91.1381 551.75 91.4778 551.75 91.8904C551.75 92.3081 551.851 92.6553 552.052 92.932C552.253 93.2088 552.555 93.3472 552.958 93.3472C553.491 93.3472 553.811 93.1182 553.916 92.6603ZM556.156 90.0034V91.2715H557.281C557.739 91.2715 558.091 91.3822 558.338 91.6036C558.589 91.825 558.715 92.1345 558.715 92.532C558.715 92.9346 558.589 93.2491 558.338 93.4755C558.091 93.6969 557.739 93.8076 557.281 93.8076H555.515V90.0034H556.156ZM556.156 93.2491H557.19C557.507 93.2491 557.734 93.1887 557.87 93.0679C558.006 92.9471 558.073 92.7685 558.073 92.532C558.073 92.2955 558.006 92.1168 557.87 91.9961C557.734 91.8753 557.507 91.8149 557.19 91.8149H556.156V93.2491ZM559.628 93.8076V90.0034H560.647L561.583 91.7394H561.749L562.685 90.0034H563.689V93.8076H563.062V90.7506H562.896L562.013 92.381H561.303L560.42 90.7506H560.254V93.8076H559.628ZM565.192 90.4714C565.529 90.094 565.987 89.9053 566.566 89.9053C567.144 89.9053 567.6 90.094 567.932 90.4714C568.269 90.8488 568.438 91.3268 568.438 91.9055C568.438 92.4842 568.269 92.9622 567.932 93.3396C567.6 93.717 567.144 93.9057 566.566 93.9057C565.987 93.9057 565.529 93.717 565.192 93.3396C564.86 92.9622 564.694 92.4842 564.694 91.9055C564.694 91.3268 564.86 90.8488 565.192 90.4714ZM565.652 92.932C565.864 93.2088 566.168 93.3472 566.566 93.3472C566.963 93.3472 567.268 93.2088 567.479 92.932C567.69 92.6502 567.796 92.3081 567.796 91.9055C567.796 91.5029 567.69 91.1633 567.479 90.8865C567.268 90.6047 566.963 90.4638 566.566 90.4638C566.168 90.4638 565.864 90.6047 565.652 90.8865C565.441 91.1633 565.335 91.5029 565.335 91.9055C565.335 92.3081 565.441 92.6502 565.652 92.932ZM574.929 93.2491H575.631V94.887H575.004V93.8076H571.713V94.887H571.087V93.2491H571.592C571.904 92.5848 572.06 91.8501 572.06 91.045V90.0034H574.929V93.2491ZM574.287 93.2491V90.5619H572.657V91.045C572.657 91.9055 572.518 92.6402 572.242 93.2491H574.287ZM576.262 93.8076V93.2038H576.39C576.657 93.2038 576.848 93.0805 576.964 92.8339C577.08 92.5823 577.137 92.1294 577.137 91.4753V90.0034H580.051V93.8076H579.402V90.5619H577.734V91.4904C577.734 92.3508 577.628 92.9522 577.417 93.2943C577.21 93.6365 576.868 93.8076 576.39 93.8076H576.262ZM582.515 90.0034H584.409V93.8076H583.76V92.3055H582.605C582.505 92.3055 582.427 92.303 582.371 92.298L581.798 93.8076H581.126L581.767 92.1546C581.375 91.9684 581.179 91.6363 581.179 91.1582C581.179 90.7909 581.292 90.5066 581.518 90.3053C581.75 90.104 582.082 90.0034 582.515 90.0034ZM583.76 90.5468H582.583C582.306 90.5468 582.11 90.5997 581.994 90.7054C581.878 90.811 581.82 90.9645 581.82 91.1658C581.82 91.362 581.878 91.5105 581.994 91.6111C582.11 91.7118 582.306 91.7621 582.583 91.7621H583.76V90.5468ZM591.1 93.8076H590.459V90.5619H588.383V93.8076H587.741V90.0034H591.1V93.8076ZM592.605 90.4714C592.942 90.094 593.4 89.9053 593.979 89.9053C594.558 89.9053 595.013 90.094 595.345 90.4714C595.682 90.8488 595.851 91.3268 595.851 91.9055C595.851 92.4842 595.682 92.9622 595.345 93.3396C595.013 93.717 594.558 93.9057 593.979 93.9057C593.4 93.9057 592.942 93.717 592.605 93.3396C592.273 92.9622 592.107 92.4842 592.107 91.9055C592.107 91.3268 592.273 90.8488 592.605 90.4714ZM593.066 92.932C593.277 93.2088 593.581 93.3472 593.979 93.3472C594.376 93.3472 594.681 93.2088 594.892 92.932C595.104 92.6502 595.209 92.3081 595.209 91.9055C595.209 91.5029 595.104 91.1633 594.892 90.8865C594.681 90.6047 594.376 90.4638 593.979 90.4638C593.581 90.4638 593.277 90.6047 593.066 90.8865C592.854 91.1633 592.749 91.5029 592.749 91.9055C592.749 92.3081 592.854 92.6502 593.066 92.932ZM600.241 93.2491H600.943V94.887H600.317V93.8076H597.026V94.887H596.399V93.2491H596.905C597.217 92.5848 597.373 91.8501 597.373 91.045V90.0034H600.241V93.2491ZM599.6 93.2491V90.5619H597.969V91.045C597.969 91.9055 597.831 92.6402 597.554 93.2491H599.6ZM601.384 90.5619V90.0034H604.659V90.5619H603.346V93.8076H602.705V90.5619H601.384ZM608.186 91.7093V91.8753C608.372 91.9206 608.52 92.0212 608.631 92.1772C608.747 92.3332 608.804 92.5295 608.804 92.766C608.804 93.4604 608.357 93.8076 607.461 93.8076H605.506V90.0034H607.393C607.775 90.0034 608.07 90.0889 608.276 90.26C608.487 90.4261 608.593 90.6601 608.593 90.962C608.593 91.1381 608.553 91.2916 608.472 91.4224C608.397 91.5533 608.301 91.6489 608.186 91.7093ZM606.14 93.2642H607.423C607.916 93.2642 608.163 93.0755 608.163 92.698C608.163 92.3156 607.916 92.1244 607.423 92.1244H606.14V93.2642ZM606.14 90.5468V91.5809H607.333C607.549 91.5809 607.705 91.5331 607.801 91.4375C607.901 91.3419 607.952 91.2186 607.952 91.0677C607.952 90.7205 607.745 90.5468 607.333 90.5468H606.14ZM613.102 91.6791V91.898H610.203C610.213 92.3559 610.322 92.7131 610.528 92.9698C610.734 93.2214 611.031 93.3472 611.419 93.3472C611.942 93.3472 612.264 93.1509 612.385 92.7584H613.034C612.968 93.1006 612.795 93.3774 612.513 93.5887C612.236 93.8001 611.872 93.9057 611.419 93.9057C610.84 93.9057 610.387 93.717 610.06 93.3396C609.733 92.9622 609.569 92.4716 609.569 91.8678C609.569 91.274 609.733 90.7985 610.06 90.4412C610.387 90.0839 610.835 89.9053 611.404 89.9053C611.942 89.9053 612.357 90.0764 612.649 90.4185C612.941 90.7557 613.092 91.1759 613.102 91.6791ZM611.388 90.4638C611.061 90.4638 610.8 90.5494 610.603 90.7205C610.407 90.8865 610.286 91.1004 610.241 91.362H612.438C612.417 91.1054 612.314 90.8915 612.128 90.7205C611.942 90.5494 611.695 90.4638 611.388 90.4638ZM615.927 90.4638C615.53 90.4638 615.23 90.6022 615.029 90.879C614.833 91.1557 614.735 91.4979 614.735 91.9055C614.735 92.3131 614.833 92.6553 615.029 92.932C615.23 93.2088 615.53 93.3472 615.927 93.3472C616.3 93.3472 616.587 93.2164 616.788 92.9547C616.994 92.688 617.097 92.3383 617.097 91.9055C617.097 91.4727 616.994 91.1255 616.788 90.8639C616.587 90.5972 616.3 90.4638 615.927 90.4638ZM614.101 90.0034H614.72V90.411H614.886C615.157 90.0738 615.552 89.9053 616.071 89.9053C616.584 89.9053 616.989 90.094 617.286 90.4714C617.588 90.8488 617.739 91.3268 617.739 91.9055C617.739 92.4943 617.588 92.9748 617.286 93.3472C616.989 93.7196 616.584 93.9057 616.071 93.9057C615.547 93.9057 615.16 93.7372 614.908 93.4H614.742V95.3172H614.101V90.0034ZM619.824 92.1395L619.092 93.8076H618.42L619.28 91.8527L618.473 90.0034H619.137L619.824 91.5809H620.798V90.0034H621.417V91.5809H622.39L623.077 90.0034H623.741L622.934 91.8527L623.802 93.8076H623.122L622.39 92.1395H621.417V93.8076H620.798V92.1395H619.824ZM628.097 93.2491H628.799V94.887H628.172V93.8076H624.881V94.887H624.255V93.2491H624.761C625.073 92.5848 625.229 91.8501 625.229 91.045V90.0034H628.097V93.2491ZM627.455 93.2491V90.5619H625.825V91.045C625.825 91.9055 625.687 92.6402 625.41 93.2491H627.455ZM632.93 91.6791V91.898H630.032C630.042 92.3559 630.15 92.7131 630.356 92.9698C630.563 93.2214 630.86 93.3472 631.247 93.3472C631.77 93.3472 632.092 93.1509 632.213 92.7584H632.862C632.797 93.1006 632.623 93.3774 632.342 93.5887C632.065 93.8001 631.7 93.9057 631.247 93.9057C630.668 93.9057 630.215 93.717 629.888 93.3396C629.561 92.9622 629.398 92.4716 629.398 91.8678C629.398 91.274 629.561 90.7985 629.888 90.4412C630.215 90.0839 630.663 89.9053 631.232 89.9053C631.77 89.9053 632.186 90.0764 632.477 90.4185C632.769 90.7557 632.92 91.1759 632.93 91.6791ZM631.217 90.4638C630.89 90.4638 630.628 90.5494 630.432 90.7205C630.236 90.8865 630.115 91.1004 630.07 91.362H632.266C632.246 91.1054 632.143 90.8915 631.957 90.7205C631.77 90.5494 631.524 90.4638 631.217 90.4638ZM637.318 93.8076H636.677V92.1319H634.571V93.8076H633.929V90.0034H634.571V91.5734H636.677V90.0034H637.318V93.8076ZM639.464 93.8076H638.558V90.0034H639.185V92.9471H639.351L641.019 90.0034H641.955V93.8076H641.328V90.8639H641.162L639.464 93.8076ZM644.425 90.0034H646.32V93.8076H645.67V92.3055H644.516C644.415 92.3055 644.337 92.303 644.282 92.298L643.708 93.8076H643.036L643.678 92.1546C643.285 91.9684 643.089 91.6363 643.089 91.1582C643.089 90.7909 643.202 90.5066 643.429 90.3053C643.66 90.104 643.992 90.0034 644.425 90.0034ZM645.67 90.5468H644.493C644.216 90.5468 644.02 90.5997 643.904 90.7054C643.788 90.811 643.731 90.9645 643.731 91.1658C643.731 91.362 643.788 91.5105 643.904 91.6111C644.02 91.7118 644.216 91.7621 644.493 91.7621H645.67V90.5468ZM495.825 101.706H496.451C496.557 102.133 496.896 102.347 497.47 102.347C497.817 102.347 498.092 102.236 498.293 102.015C498.499 101.794 498.612 101.504 498.633 101.147H496.919V100.604H498.625C498.595 100.256 498.482 99.9796 498.285 99.7733C498.094 99.567 497.822 99.4638 497.47 99.4638C496.927 99.4638 496.597 99.6626 496.481 100.06H495.855C495.93 99.7079 496.109 99.4286 496.391 99.2223C496.673 99.0109 497.03 98.9053 497.463 98.9053C498.026 98.9053 498.472 99.0914 498.799 99.4638C499.126 99.8312 499.289 100.312 499.289 100.906C499.289 101.504 499.126 101.987 498.799 102.355C498.472 102.722 498.024 102.906 497.455 102.906C497.027 102.906 496.665 102.795 496.368 102.574C496.076 102.352 495.895 102.063 495.825 101.706ZM499.86 102.808V102.204H499.988C500.255 102.204 500.446 102.08 500.562 101.834C500.677 101.582 500.735 101.129 500.735 100.475V99.0034H503.649V102.808H503V99.5619H501.332V100.49C501.332 101.351 501.226 101.952 501.015 102.294C500.808 102.637 500.466 102.808 499.988 102.808H499.86ZM508.181 100.679V100.898H505.282C505.292 101.356 505.4 101.713 505.607 101.97C505.813 102.221 506.11 102.347 506.497 102.347C507.021 102.347 507.343 102.151 507.464 101.758H508.113C508.047 102.101 507.874 102.377 507.592 102.589C507.315 102.8 506.95 102.906 506.497 102.906C505.919 102.906 505.466 102.717 505.139 102.34C504.812 101.962 504.648 101.472 504.648 100.868C504.648 100.274 504.812 99.7985 505.139 99.4412C505.466 99.0839 505.914 98.9053 506.482 98.9053C507.021 98.9053 507.436 99.0764 507.728 99.4185C508.02 99.7557 508.171 100.176 508.181 100.679ZM506.467 99.4638C506.14 99.4638 505.878 99.5494 505.682 99.7205C505.486 99.8865 505.365 100.1 505.32 100.362H507.516C507.496 100.105 507.393 99.8915 507.207 99.7205C507.021 99.5494 506.774 99.4638 506.467 99.4638ZM511.806 102.808L510.961 101.132H509.821V102.808H509.18V99.0034H509.821V100.573H510.976L511.769 99.0034H512.44L511.512 100.838L512.493 102.808H511.806ZM513.011 99.5619V99.0034H516.287V99.5619H514.973V102.808H514.332V99.5619H513.011ZM518.96 99.4638C518.562 99.4638 518.263 99.6022 518.061 99.879C517.865 100.156 517.767 100.498 517.767 100.906C517.767 101.313 517.865 101.655 518.061 101.932C518.263 102.209 518.562 102.347 518.96 102.347C519.332 102.347 519.619 102.216 519.82 101.955C520.026 101.688 520.13 101.338 520.13 100.906C520.13 100.473 520.026 100.126 519.82 99.8639C519.619 99.5972 519.332 99.4638 518.96 99.4638ZM517.133 99.0034H517.752V99.411H517.918C518.19 99.0738 518.585 98.9053 519.103 98.9053C519.616 98.9053 520.021 99.094 520.318 99.4714C520.62 99.8488 520.771 100.327 520.771 100.906C520.771 101.494 520.62 101.975 520.318 102.347C520.021 102.72 519.616 102.906 519.103 102.906C518.58 102.906 518.192 102.737 517.941 102.4H517.775V104.317H517.133V99.0034ZM522.041 99.4714C522.378 99.094 522.836 98.9053 523.415 98.9053C523.993 98.9053 524.449 99.094 524.781 99.4714C525.118 99.8488 525.287 100.327 525.287 100.906C525.287 101.484 525.118 101.962 524.781 102.34C524.449 102.717 523.993 102.906 523.415 102.906C522.836 102.906 522.378 102.717 522.041 102.34C521.709 101.962 521.543 101.484 521.543 100.906C521.543 100.327 521.709 99.8488 522.041 99.4714ZM522.501 101.932C522.713 102.209 523.017 102.347 523.415 102.347C523.812 102.347 524.117 102.209 524.328 101.932C524.539 101.65 524.645 101.308 524.645 100.906C524.645 100.503 524.539 100.163 524.328 99.8865C524.117 99.6047 523.812 99.4638 523.415 99.4638C523.017 99.4638 522.713 99.6047 522.501 99.8865C522.29 100.163 522.184 100.503 522.184 100.906C522.184 101.308 522.29 101.65 522.501 101.932ZM529.677 102.808H529.035V101.132H526.93V102.808H526.288V99.0034H526.93V100.573H529.035V99.0034H529.677V102.808ZM534.306 102.808H533.665V101.132H531.559V102.808H530.917V99.0034H531.559V100.573H533.665V99.0034H534.306V102.808ZM535.81 99.4714C536.148 99.094 536.605 98.9053 537.184 98.9053C537.763 98.9053 538.218 99.094 538.55 99.4714C538.887 99.8488 539.056 100.327 539.056 100.906C539.056 101.484 538.887 101.962 538.55 102.34C538.218 102.717 537.763 102.906 537.184 102.906C536.605 102.906 536.148 102.717 535.81 102.34C535.478 101.962 535.312 101.484 535.312 100.906C535.312 100.327 535.478 99.8488 535.81 99.4714ZM536.271 101.932C536.482 102.209 536.787 102.347 537.184 102.347C537.582 102.347 537.886 102.209 538.097 101.932C538.309 101.65 538.414 101.308 538.414 100.906C538.414 100.503 538.309 100.163 538.097 99.8865C537.886 99.6047 537.582 99.4638 537.184 99.4638C536.787 99.4638 536.482 99.6047 536.271 99.8865C536.059 100.163 535.954 100.503 535.954 100.906C535.954 101.308 536.059 101.65 536.271 101.932ZM540.963 102.808H540.057V99.0034H540.684V101.947H540.85L542.518 99.0034H543.454V102.808H542.827V99.8639H542.661L540.963 102.808ZM542.397 97.3428H542.918C542.908 97.6951 542.8 97.9668 542.593 98.158C542.387 98.3492 542.103 98.4448 541.741 98.4448C541.383 98.4448 541.101 98.3492 540.895 98.158C540.689 97.9668 540.581 97.6951 540.571 97.3428H541.091C541.101 97.7705 541.318 97.9844 541.741 97.9844C542.153 97.9844 542.372 97.7705 542.397 97.3428ZM550.153 102.808H549.512V99.5619H547.436V102.808H546.795V99.0034H550.153V102.808ZM551.658 99.4714C551.996 99.094 552.453 98.9053 553.032 98.9053C553.611 98.9053 554.066 99.094 554.398 99.4714C554.735 99.8488 554.904 100.327 554.904 100.906C554.904 101.484 554.735 101.962 554.398 102.34C554.066 102.717 553.611 102.906 553.032 102.906C552.453 102.906 551.996 102.717 551.658 102.34C551.326 101.962 551.16 101.484 551.16 100.906C551.16 100.327 551.326 99.8488 551.658 99.4714ZM552.119 101.932C552.33 102.209 552.635 102.347 553.032 102.347C553.43 102.347 553.734 102.209 553.945 101.932C554.157 101.65 554.262 101.308 554.262 100.906C554.262 100.503 554.157 100.163 553.945 99.8865C553.734 99.6047 553.43 99.4638 553.032 99.4638C552.635 99.4638 552.33 99.6047 552.119 99.8865C551.907 100.163 551.802 100.503 551.802 100.906C551.802 101.308 551.907 101.65 552.119 101.932ZM555.686 99.0034H556.328V100.075C556.328 100.196 556.336 100.292 556.351 100.362C556.366 100.427 556.401 100.503 556.456 100.588C556.512 100.674 556.607 100.737 556.743 100.777C556.884 100.817 557.065 100.838 557.287 100.838C557.619 100.838 557.936 100.805 558.238 100.739V99.0034H558.887V102.808H558.238V101.306C557.901 101.376 557.538 101.411 557.151 101.411C556.884 101.411 556.655 101.386 556.464 101.336C556.278 101.28 556.134 101.217 556.034 101.147C555.938 101.072 555.863 100.971 555.807 100.845C555.752 100.719 555.717 100.606 555.702 100.505C555.691 100.405 555.686 100.279 555.686 100.128V99.0034ZM559.67 99.5619V99.0034H562.946V99.5619H561.633V102.808H560.991V99.5619H559.67ZM563.793 99.0034H564.434V100.271H565.483C565.941 100.271 566.293 100.382 566.54 100.604C566.792 100.825 566.917 101.134 566.917 101.532C566.917 101.935 566.792 102.249 566.54 102.476C566.293 102.697 565.941 102.808 565.483 102.808H563.793V99.0034ZM564.434 100.815V102.249H565.393C565.71 102.249 565.936 102.189 566.072 102.068C566.208 101.947 566.276 101.768 566.276 101.532C566.276 101.295 566.208 101.117 566.072 100.996C565.936 100.875 565.71 100.815 565.393 100.815H564.434ZM567.529 99.0034H568.17V102.808H567.529V99.0034Z" fill="#7B7794"/>
<rect x="279.989" y="320.067" width="168.322" height="35.476" rx="3.39663" fill="#4563FF"/>
<path d="M335.992 340.547H337.283C337.075 341.443 336.64 342.159 335.979 342.693C335.317 343.219 334.47 343.481 333.438 343.481C332.025 343.481 330.924 343.015 330.136 342.082C329.348 341.149 328.954 339.94 328.954 338.454C328.954 336.969 329.353 335.76 330.15 334.827C330.947 333.894 332.048 333.427 333.452 333.427C334.43 333.427 335.245 333.672 335.897 334.161C336.549 334.641 336.975 335.302 337.174 336.145H335.883C335.503 335.076 334.692 334.542 333.452 334.542C332.383 334.542 331.572 334.917 331.02 335.669C330.467 336.421 330.191 337.349 330.191 338.454C330.191 339.569 330.462 340.501 331.006 341.253C331.558 341.996 332.369 342.367 333.438 342.367C334.108 342.367 334.661 342.209 335.095 341.892C335.53 341.566 335.829 341.117 335.992 340.547ZM339.549 337.3C340.156 336.62 340.98 336.281 342.022 336.281C343.063 336.281 343.883 336.62 344.481 337.3C345.088 337.979 345.391 338.839 345.391 339.881C345.391 340.923 345.088 341.783 344.481 342.462C343.883 343.142 343.063 343.481 342.022 343.481C340.98 343.481 340.156 343.142 339.549 342.462C338.951 341.783 338.652 340.923 338.652 339.881C338.652 338.839 338.951 337.979 339.549 337.3ZM340.378 341.729C340.758 342.227 341.306 342.476 342.022 342.476C342.737 342.476 343.285 342.227 343.666 341.729C344.046 341.222 344.236 340.606 344.236 339.881C344.236 339.156 344.046 338.545 343.666 338.047C343.285 337.54 342.737 337.286 342.022 337.286C341.306 337.286 340.758 337.54 340.378 338.047C339.997 338.545 339.807 339.156 339.807 339.881C339.807 340.606 339.997 341.222 340.378 341.729ZM351.573 343.305L349.875 340.438H349.386L347.646 343.305H346.383L348.516 339.8L346.6 336.457H347.823L349.399 339.175H349.888L351.491 336.457H352.701L350.758 339.759L352.877 343.305H351.573ZM357.779 337.286C357.063 337.286 356.524 337.535 356.162 338.033C355.809 338.531 355.632 339.147 355.632 339.881C355.632 340.615 355.809 341.231 356.162 341.729C356.524 342.227 357.063 342.476 357.779 342.476C358.449 342.476 358.965 342.241 359.328 341.77C359.699 341.29 359.885 340.66 359.885 339.881C359.885 339.102 359.699 338.477 359.328 338.006C358.965 337.526 358.449 337.286 357.779 337.286ZM354.491 336.457H355.605V337.191H355.904C356.393 336.584 357.104 336.281 358.037 336.281C358.961 336.281 359.69 336.62 360.224 337.3C360.768 337.979 361.039 338.839 361.039 339.881C361.039 340.941 360.768 341.806 360.224 342.476C359.69 343.146 358.961 343.481 358.037 343.481C357.095 343.481 356.397 343.178 355.945 342.571H355.646V346.022H354.491V336.457ZM367.211 343.305V342.585H366.912C366.441 343.183 365.73 343.481 364.779 343.481C364.027 343.481 363.429 343.264 362.986 342.829C362.542 342.395 362.32 341.869 362.32 341.253C362.32 340.628 362.537 340.094 362.972 339.65C363.407 339.206 364.063 338.984 364.942 338.984H367.17V338.713C367.17 338.278 367.034 337.934 366.763 337.68C366.491 337.417 366.07 337.286 365.499 337.286C364.503 337.286 363.973 337.617 363.909 338.278H362.755C362.8 337.653 363.067 337.164 363.556 336.81C364.054 336.457 364.693 336.281 365.472 336.281C366.35 336.281 367.039 336.484 367.537 336.892C368.044 337.3 368.298 337.884 368.298 338.645V343.305H367.211ZM365.064 342.476C365.635 342.476 366.129 342.29 366.545 341.919C366.962 341.539 367.17 341.077 367.17 340.533V339.908H365.119C364.023 339.908 363.475 340.343 363.475 341.213C363.475 341.602 363.611 341.91 363.882 342.136C364.163 342.363 364.557 342.476 365.064 342.476ZM376.513 343.305H375.358V340.289H371.567V343.305H370.413V336.457H371.567V339.283H375.358V336.457H376.513V343.305ZM380.375 343.305H378.745V336.457H379.873V341.756H380.171L383.174 336.457H384.859V343.305H383.731V338.006H383.432L380.375 343.305ZM386.384 337.463V336.457H392.281V337.463H389.917V343.305H388.762V337.463H386.384ZM394.959 336.457V338.74H396.983C397.808 338.74 398.442 338.939 398.886 339.338C399.338 339.736 399.565 340.293 399.565 341.009C399.565 341.733 399.338 342.299 398.886 342.707C398.442 343.106 397.808 343.305 396.983 343.305H393.804V336.457H394.959ZM394.959 342.299H396.82C397.391 342.299 397.799 342.191 398.043 341.973C398.288 341.756 398.41 341.434 398.41 341.009C398.41 340.583 398.288 340.261 398.043 340.044C397.799 339.827 397.391 339.718 396.82 339.718H394.959V342.299Z" fill="white"/>
<rect x="279.989" y="320.067" width="168.322" height="35.476" rx="3.39663" stroke="#4563FF" stroke-width="0.754808"/>
<rect x="218.178" y="46.5" width="627" height="194" rx="3.27404" stroke="#ECEEF6"/>
<rect x="218.178" y="250.5" width="627" height="95" rx="3.27404" fill="white"/>
<path d="M248.701 278.79H249.293L252.78 271.477H255.379L248.151 286.567H245.573L247.729 282.044L242.149 271.477H244.854L248.701 278.79ZM265.879 286.567H263.491V277.839H258.376V286.567H255.988V275.81H265.879V286.567ZM274.481 277.564C273.495 277.564 272.748 277.909 272.241 278.6C271.748 279.29 271.501 280.149 271.501 281.178C271.501 282.221 271.748 283.087 272.241 283.777C272.748 284.468 273.495 284.813 274.481 284.813C275.425 284.813 276.151 284.482 276.658 283.82C277.165 283.143 277.419 282.263 277.419 281.178C277.419 280.093 277.165 279.219 276.658 278.557C276.151 277.895 275.425 277.564 274.481 277.564ZM269.176 275.81H271.48V276.845H271.987C272.692 275.972 273.749 275.535 275.158 275.535C276.581 275.535 277.708 276.063 278.539 277.12C279.384 278.177 279.807 279.529 279.807 281.178C279.807 282.841 279.384 284.2 278.539 285.257C277.708 286.314 276.581 286.842 275.158 286.842C273.763 286.842 272.734 286.405 272.072 285.532H271.565V290.794H269.176V275.81ZM289.189 286.567V285.574H288.682C288.005 286.419 286.949 286.842 285.512 286.842C284.328 286.842 283.391 286.504 282.701 285.828C282.01 285.137 281.665 284.299 281.665 283.313C281.665 282.34 282.017 281.495 282.722 280.776C283.426 280.058 284.497 279.699 285.934 279.699H289.104V279.381C289.104 278.071 288.351 277.416 286.843 277.416C285.504 277.416 284.786 277.874 284.687 278.79H282.32C282.377 277.789 282.806 277 283.609 276.423C284.427 275.831 285.476 275.535 286.758 275.535C288.21 275.535 289.344 275.859 290.161 276.507C290.992 277.155 291.408 278.128 291.408 279.424V286.567H289.189ZM286.251 284.898C287.054 284.898 287.731 284.637 288.28 284.116C288.83 283.594 289.104 282.96 289.104 282.214V281.389H286.357C284.835 281.389 284.074 281.981 284.074 283.165C284.074 283.714 284.265 284.144 284.645 284.454C285.025 284.75 285.561 284.898 286.251 284.898ZM302.509 280.628V281.115C303.045 281.255 303.474 281.544 303.799 281.981C304.137 282.404 304.306 282.946 304.306 283.608C304.306 284.581 303.975 285.32 303.312 285.828C302.664 286.321 301.727 286.567 300.502 286.567H294.563V275.81H300.311C301.396 275.81 302.235 276.049 302.826 276.528C303.418 277.007 303.714 277.677 303.714 278.536C303.714 279.015 303.594 279.445 303.355 279.825C303.129 280.192 302.847 280.459 302.509 280.628ZM296.909 284.75H300.058C301.284 284.75 301.896 284.278 301.896 283.334C301.896 282.376 301.284 281.897 300.058 281.897H296.909V284.75ZM296.909 277.627V280.163H299.804C300.325 280.163 300.706 280.044 300.945 279.804C301.199 279.565 301.326 279.262 301.326 278.895C301.326 278.05 300.819 277.627 299.804 277.627H296.909ZM305.805 286.567V284.306H306.185C306.932 284.306 307.46 284.01 307.77 283.418C308.08 282.826 308.235 281.742 308.235 280.163V275.81H316.942V286.567H314.554V277.839H310.433V280.227C310.433 282.552 310.095 284.193 309.419 285.151C308.756 286.095 307.678 286.567 306.185 286.567H305.805ZM329.918 280.586V281.389H321.971C322.041 283.672 323.049 284.813 324.993 284.813C326.219 284.813 327.001 284.355 327.339 283.439H329.77C329.558 284.482 329.044 285.313 328.227 285.933C327.41 286.539 326.325 286.842 324.972 286.842C323.31 286.842 321.999 286.314 321.041 285.257C320.083 284.2 319.604 282.819 319.604 281.115C319.604 279.424 320.076 278.071 321.02 277.057C321.978 276.042 323.274 275.535 324.909 275.535C326.459 275.535 327.67 276.014 328.544 276.972C329.432 277.916 329.889 279.121 329.918 280.586ZM324.888 277.437C323.338 277.437 322.401 278.163 322.077 279.614H327.466C327.381 278.98 327.121 278.459 326.684 278.05C326.247 277.641 325.648 277.437 324.888 277.437ZM342.535 286.567H340.147V282.066H334.948V286.567H332.56V275.81H334.948V280.037H340.147V275.81H342.535V286.567ZM348.536 286.567H345.831V275.81H348.155V282.911H348.663L353.08 275.81H355.848V286.567H353.524V279.466H353.016L348.536 286.567ZM368.823 280.586V281.389H360.876C360.947 283.672 361.954 284.813 363.898 284.813C365.124 284.813 365.906 284.355 366.244 283.439H368.675C368.463 284.482 367.949 285.313 367.132 285.933C366.315 286.539 365.23 286.842 363.877 286.842C362.215 286.842 360.904 286.314 359.946 285.257C358.988 284.2 358.509 282.819 358.509 281.115C358.509 279.424 358.981 278.071 359.925 277.057C360.883 276.042 362.179 275.535 363.814 275.535C365.364 275.535 366.575 276.014 367.449 276.972C368.337 277.916 368.794 279.121 368.823 280.586ZM363.793 277.437C362.243 277.437 361.306 278.163 360.982 279.614H366.371C366.287 278.98 366.026 278.459 365.589 278.05C365.152 277.641 364.553 277.437 363.793 277.437ZM387.238 286.567H384.85V277.839H379.735V286.567H377.347V275.81H387.238V286.567ZM391.36 277.12C392.346 276.063 393.67 275.535 395.333 275.535C396.995 275.535 398.313 276.063 399.285 277.12C400.271 278.163 400.764 279.515 400.764 281.178C400.764 282.855 400.271 284.221 399.285 285.278C398.313 286.321 396.995 286.842 395.333 286.842C393.67 286.842 392.346 286.321 391.36 285.278C390.387 284.221 389.901 282.855 389.901 281.178C389.901 279.515 390.387 278.163 391.36 277.12ZM393.071 283.777C393.593 284.468 394.347 284.813 395.333 284.813C396.319 284.813 397.073 284.468 397.594 283.777C398.116 283.073 398.376 282.206 398.376 281.178C398.376 280.163 398.116 279.311 397.594 278.621C397.073 277.916 396.319 277.564 395.333 277.564C394.347 277.564 393.593 277.916 393.071 278.621C392.55 279.311 392.29 280.163 392.29 281.178C392.29 282.206 392.55 283.073 393.071 283.777ZM413.41 284.538H415.355V289.59H413.072V286.567H404.449V289.59H402.167V284.538H403.689C404.435 282.749 404.809 280.847 404.809 278.832V275.81H413.41V284.538ZM411.022 284.538V277.839H406.986V278.853C406.986 281.037 406.661 282.932 406.013 284.538H411.022ZM427.443 286.567H425.055V277.839H419.94V286.567H417.552V275.81H427.443V286.567ZM433.446 286.567H430.741V275.81H433.065V282.911H433.573L437.99 275.81H440.758V286.567H438.434V279.466H437.926L433.446 286.567ZM451.112 283.122H453.479C453.31 284.249 452.796 285.151 451.936 285.828C451.091 286.504 450.027 286.842 448.745 286.842C447.096 286.842 445.793 286.321 444.835 285.278C443.891 284.221 443.419 282.855 443.419 281.178C443.419 279.501 443.891 278.142 444.835 277.099C445.793 276.056 447.096 275.535 448.745 275.535C450.041 275.535 451.098 275.859 451.915 276.507C452.746 277.155 453.239 278.015 453.394 279.086H451.027C450.675 278.071 449.921 277.564 448.766 277.564C447.766 277.564 447.019 277.902 446.526 278.578C446.047 279.255 445.807 280.114 445.807 281.157C445.807 282.228 446.047 283.108 446.526 283.799C447.019 284.475 447.766 284.813 448.766 284.813C450.09 284.813 450.872 284.249 451.112 283.122ZM463.504 286.567L461.222 282.066H458.453V286.567H456.065V275.81H458.453V280.037H461.264L463.42 275.81H465.871L463.23 280.988L466.019 286.567H463.504ZM475.169 286.567V285.574H474.662C473.986 286.419 472.929 286.842 471.492 286.842C470.308 286.842 469.371 286.504 468.681 285.828C467.991 285.137 467.645 284.299 467.645 283.313C467.645 282.34 467.998 281.495 468.702 280.776C469.407 280.058 470.478 279.699 471.915 279.699H475.085V279.381C475.085 278.071 474.331 277.416 472.823 277.416C471.485 277.416 470.766 277.874 470.668 278.79H468.301C468.357 277.789 468.787 277 469.59 276.423C470.407 275.831 471.457 275.535 472.739 275.535C474.19 275.535 475.324 275.859 476.142 276.507C476.973 277.155 477.389 278.128 477.389 279.424V286.567H475.169ZM472.232 284.898C473.035 284.898 473.711 284.637 474.261 284.116C474.81 283.594 475.085 282.96 475.085 282.214V281.389H472.337C470.816 281.389 470.055 281.981 470.055 283.165C470.055 283.714 470.245 284.144 470.625 284.454C471.006 284.75 471.541 284.898 472.232 284.898ZM480.543 286.567V275.81H483.946L486.355 280.523H486.862L489.251 275.81H492.632V286.567H490.307V278.832H489.8L487.708 282.869H485.468L483.375 278.832H482.868V286.567H480.543ZM498.625 286.567H495.919V275.81H498.244V282.911H498.752L503.169 275.81H505.937V286.567H503.612V279.466H503.105L498.625 286.567Z" fill="black"/>
<rect x="242.209" y="311.988" width="14.3413" height="14.3413" rx="1.88702" fill="#4563FF" stroke="#4563FF" stroke-width="0.754808"/>
<path d="M253.531 315.762L248.45 322.933C248.45 322.933 247.33 321.313 245.605 319.338" stroke="white" stroke-width="1.50962" stroke-linecap="round" stroke-linejoin="round"/>
<path d="M269.926 321.63L268.568 319.184H268.288L266.892 321.63H266.152L267.768 318.784L266.386 316.24H267.119L268.296 318.392H268.575L269.768 316.24H270.493L269.096 318.754L270.704 321.63H269.926ZM271.609 318.293C271.946 317.916 272.404 317.727 272.983 317.727C273.562 317.727 274.017 317.916 274.349 318.293C274.686 318.671 274.855 319.149 274.855 319.728C274.855 320.306 274.686 320.784 274.349 321.162C274.017 321.539 273.562 321.728 272.983 321.728C272.404 321.728 271.946 321.539 271.609 321.162C271.277 320.784 271.111 320.306 271.111 319.728C271.111 319.149 271.277 318.671 271.609 318.293ZM272.07 320.754C272.281 321.031 272.585 321.169 272.983 321.169C273.38 321.169 273.685 321.031 273.896 320.754C274.108 320.472 274.213 320.13 274.213 319.728C274.213 319.325 274.108 318.985 273.896 318.709C273.685 318.427 273.38 318.286 272.983 318.286C272.585 318.286 272.281 318.427 272.07 318.709C271.858 318.985 271.753 319.325 271.753 319.728C271.753 320.13 271.858 320.472 272.07 320.754ZM275.637 317.825H276.279V318.897C276.279 319.018 276.286 319.114 276.301 319.184C276.317 319.25 276.352 319.325 276.407 319.411C276.462 319.496 276.558 319.559 276.694 319.599C276.835 319.64 277.016 319.66 277.237 319.66C277.57 319.66 277.887 319.627 278.188 319.562V317.825H278.838V321.63H278.188V320.128C277.851 320.198 277.489 320.233 277.102 320.233C276.835 320.233 276.606 320.208 276.415 320.158C276.228 320.102 276.085 320.04 275.984 319.969C275.889 319.894 275.813 319.793 275.758 319.667C275.703 319.541 275.667 319.428 275.652 319.328C275.642 319.227 275.637 319.101 275.637 318.95V317.825ZM281.04 323.139H280.391L281.176 321.275L279.553 317.825H280.24L281.402 320.331H281.591L282.648 317.825H283.319L281.04 323.139ZM289.535 321.63H288.893V318.384H286.817V321.63H286.176V317.825H289.535V321.63ZM291.04 318.293C291.377 317.916 291.835 317.727 292.413 317.727C292.992 317.727 293.447 317.916 293.779 318.293C294.117 318.671 294.285 319.149 294.285 319.728C294.285 320.306 294.117 320.784 293.779 321.162C293.447 321.539 292.992 321.728 292.413 321.728C291.835 321.728 291.377 321.539 291.04 321.162C290.707 320.784 290.541 320.306 290.541 319.728C290.541 319.149 290.707 318.671 291.04 318.293ZM291.5 320.754C291.711 321.031 292.016 321.169 292.413 321.169C292.811 321.169 293.115 321.031 293.327 320.754C293.538 320.472 293.644 320.13 293.644 319.728C293.644 319.325 293.538 318.985 293.327 318.709C293.115 318.427 292.811 318.286 292.413 318.286C292.016 318.286 291.711 318.427 291.5 318.709C291.289 318.985 291.183 319.325 291.183 319.728C291.183 320.13 291.289 320.472 291.5 320.754ZM294.856 321.63V321.026H294.985C295.251 321.026 295.442 320.903 295.558 320.656C295.674 320.404 295.732 319.952 295.732 319.297V317.825H298.645V321.63H297.996V318.384H296.328V319.312C296.328 320.173 296.222 320.774 296.011 321.116C295.805 321.459 295.463 321.63 294.985 321.63H294.856ZM300.905 323.139H300.256L301.041 321.275L299.418 317.825H300.105L301.268 320.331H301.456L302.513 317.825H303.185L300.905 323.139ZM303.721 317.825H304.363V318.897C304.363 319.018 304.37 319.114 304.386 319.184C304.401 319.25 304.436 319.325 304.491 319.411C304.547 319.496 304.642 319.559 304.778 319.599C304.919 319.64 305.1 319.66 305.322 319.66C305.654 319.66 305.971 319.627 306.273 319.562V317.825H306.922V321.63H306.273V320.128C305.935 320.198 305.573 320.233 305.186 320.233C304.919 320.233 304.69 320.208 304.499 320.158C304.313 320.102 304.169 320.04 304.069 319.969C303.973 319.894 303.897 319.793 303.842 319.667C303.787 319.541 303.752 319.428 303.736 319.328C303.726 319.227 303.721 319.101 303.721 318.95V317.825ZM310.521 321.63V321.23H310.354C310.093 321.562 309.698 321.728 309.169 321.728C308.752 321.728 308.42 321.607 308.173 321.366C307.926 321.124 307.803 320.832 307.803 320.49C307.803 320.143 307.924 319.846 308.166 319.599C308.407 319.353 308.772 319.229 309.26 319.229H310.498V319.078C310.498 318.837 310.422 318.646 310.271 318.505C310.12 318.359 309.886 318.286 309.569 318.286C309.016 318.286 308.722 318.47 308.686 318.837H308.045C308.07 318.49 308.218 318.218 308.49 318.022C308.767 317.825 309.122 317.727 309.554 317.727C310.042 317.727 310.425 317.841 310.702 318.067C310.983 318.293 311.124 318.618 311.124 319.041V321.63H310.521ZM309.328 321.169C309.645 321.169 309.919 321.066 310.151 320.86C310.382 320.648 310.498 320.392 310.498 320.09V319.743H309.358C308.749 319.743 308.445 319.984 308.445 320.467C308.445 320.684 308.52 320.855 308.671 320.981C308.827 321.106 309.046 321.169 309.328 321.169ZM311.862 318.384V317.825H315.138V318.384H313.825V321.63H313.183V318.384H311.862ZM316.626 317.825V319.094H317.751C318.209 319.094 318.561 319.204 318.808 319.426C319.059 319.647 319.185 319.957 319.185 320.354C319.185 320.757 319.059 321.071 318.808 321.298C318.561 321.519 318.209 321.63 317.751 321.63H315.985V317.825H316.626ZM316.626 321.071H317.66C317.977 321.071 318.204 321.011 318.34 320.89C318.476 320.769 318.544 320.591 318.544 320.354C318.544 320.118 318.476 319.939 318.34 319.818C318.204 319.697 317.977 319.637 317.66 319.637H316.626V321.071ZM325.497 319.501V319.72H322.599C322.609 320.178 322.717 320.535 322.923 320.792C323.13 321.043 323.426 321.169 323.814 321.169C324.337 321.169 324.659 320.973 324.78 320.581H325.429C325.364 320.923 325.19 321.199 324.908 321.411C324.632 321.622 324.267 321.728 323.814 321.728C323.235 321.728 322.782 321.539 322.455 321.162C322.128 320.784 321.965 320.294 321.965 319.69C321.965 319.096 322.128 318.621 322.455 318.263C322.782 317.906 323.23 317.727 323.799 317.727C324.337 317.727 324.752 317.898 325.044 318.241C325.336 318.578 325.487 318.998 325.497 319.501ZM323.784 318.286C323.457 318.286 323.195 318.371 322.999 318.543C322.802 318.709 322.682 318.922 322.636 319.184H324.833C324.813 318.927 324.71 318.714 324.523 318.543C324.337 318.371 324.091 318.286 323.784 318.286ZM330.489 317.727C330.912 317.727 331.226 317.856 331.432 318.112C331.639 318.364 331.742 318.716 331.742 319.169V321.63H331.1V319.237C331.1 318.613 330.856 318.301 330.368 318.301C330.076 318.301 329.847 318.404 329.681 318.61C329.52 318.812 329.44 319.076 329.44 319.403V321.63H328.798V319.252C328.798 318.618 328.557 318.301 328.074 318.301C327.767 318.301 327.533 318.414 327.372 318.641C327.216 318.867 327.138 319.161 327.138 319.524V321.63H326.496V317.825H327.115V318.195H327.281C327.482 317.883 327.804 317.727 328.247 317.727C328.715 317.727 329.05 317.896 329.251 318.233H329.417C329.649 317.896 330.006 317.727 330.489 317.727ZM335.339 321.63V321.23H335.173C334.912 321.562 334.516 321.728 333.988 321.728C333.57 321.728 333.238 321.607 332.992 321.366C332.745 321.124 332.622 320.832 332.622 320.49C332.622 320.143 332.743 319.846 332.984 319.599C333.226 319.353 333.591 319.229 334.079 319.229H335.317V319.078C335.317 318.837 335.241 318.646 335.09 318.505C334.939 318.359 334.705 318.286 334.388 318.286C333.835 318.286 333.54 318.47 333.505 318.837H332.863C332.889 318.49 333.037 318.218 333.309 318.022C333.586 317.825 333.94 317.727 334.373 317.727C334.861 317.727 335.244 317.841 335.52 318.067C335.802 318.293 335.943 318.618 335.943 319.041V321.63H335.339ZM334.147 321.169C334.464 321.169 334.738 321.066 334.969 320.86C335.201 320.648 335.317 320.392 335.317 320.09V319.743H334.177C333.568 319.743 333.264 319.984 333.264 320.467C333.264 320.684 333.339 320.855 333.49 320.981C333.646 321.106 333.865 321.169 334.147 321.169ZM337.797 316.837H337.118V316.142H337.797V316.837ZM337.775 317.825V321.63H337.133V317.825H337.775ZM339.034 316.142H339.676V321.63H339.034V316.142ZM344.841 318.286C344.444 318.286 344.144 318.424 343.943 318.701C343.747 318.978 343.649 319.32 343.649 319.728C343.649 320.135 343.747 320.477 343.943 320.754C344.144 321.031 344.444 321.169 344.841 321.169C345.214 321.169 345.501 321.038 345.702 320.777C345.908 320.51 346.011 320.16 346.011 319.728C346.011 319.295 345.908 318.948 345.702 318.686C345.501 318.419 345.214 318.286 344.841 318.286ZM343.015 317.825H343.634V318.233H343.8C344.072 317.896 344.467 317.727 344.985 317.727C345.498 317.727 345.903 317.916 346.2 318.293C346.502 318.671 346.653 319.149 346.653 319.728C346.653 320.316 346.502 320.797 346.2 321.169C345.903 321.542 345.498 321.728 344.985 321.728C344.462 321.728 344.074 321.559 343.822 321.222H343.656V323.139H343.015V317.825ZM350.082 321.63V321.23H349.916C349.654 321.562 349.259 321.728 348.73 321.728C348.313 321.728 347.981 321.607 347.734 321.366C347.488 321.124 347.364 320.832 347.364 320.49C347.364 320.143 347.485 319.846 347.727 319.599C347.968 319.353 348.333 319.229 348.821 319.229H350.059V319.078C350.059 318.837 349.983 318.646 349.832 318.505C349.682 318.359 349.448 318.286 349.131 318.286C348.577 318.286 348.283 318.47 348.247 318.837H347.606C347.631 318.49 347.779 318.218 348.051 318.022C348.328 317.825 348.683 317.727 349.115 317.727C349.604 317.727 349.986 317.841 350.263 318.067C350.545 318.293 350.685 318.618 350.685 319.041V321.63H350.082ZM348.889 321.169C349.206 321.169 349.48 321.066 349.712 320.86C349.943 320.648 350.059 320.392 350.059 320.09V319.743H348.919C348.31 319.743 348.006 319.984 348.006 320.467C348.006 320.684 348.081 320.855 348.232 320.981C348.388 321.106 348.607 321.169 348.889 321.169ZM354.434 320.482H355.076C355 320.865 354.822 321.169 354.54 321.396C354.263 321.617 353.908 321.728 353.475 321.728C352.902 321.728 352.449 321.542 352.117 321.169C351.79 320.792 351.626 320.311 351.626 319.728C351.626 319.139 351.79 318.658 352.117 318.286C352.444 317.914 352.897 317.727 353.475 317.727C353.913 317.727 354.268 317.838 354.54 318.059C354.817 318.276 354.988 318.565 355.053 318.927H354.411C354.276 318.5 353.964 318.286 353.475 318.286C353.068 318.286 352.763 318.422 352.562 318.693C352.366 318.96 352.268 319.3 352.268 319.712C352.268 320.13 352.368 320.477 352.57 320.754C352.771 321.031 353.073 321.169 353.475 321.169C354.009 321.169 354.328 320.94 354.434 320.482ZM358.606 320.482H359.248C359.172 320.865 358.994 321.169 358.712 321.396C358.435 321.617 358.08 321.728 357.648 321.728C357.074 321.728 356.621 321.542 356.289 321.169C355.962 320.792 355.798 320.311 355.798 319.728C355.798 319.139 355.962 318.658 356.289 318.286C356.616 317.914 357.069 317.727 357.648 317.727C358.085 317.727 358.44 317.838 358.712 318.059C358.989 318.276 359.16 318.565 359.225 318.927H358.584C358.448 318.5 358.136 318.286 357.648 318.286C357.24 318.286 356.936 318.422 356.734 318.693C356.538 318.96 356.44 319.3 356.44 319.712C356.44 320.13 356.541 320.477 356.742 320.754C356.943 321.031 357.245 321.169 357.648 321.169C358.181 321.169 358.501 320.94 358.606 320.482ZM360.204 317.825H360.846V319.094H361.895C362.353 319.094 362.705 319.204 362.952 319.426C363.203 319.647 363.329 319.957 363.329 320.354C363.329 320.757 363.203 321.071 362.952 321.298C362.705 321.519 362.353 321.63 361.895 321.63H360.204V317.825ZM360.846 319.637V321.071H361.805C362.122 321.071 362.348 321.011 362.484 320.89C362.62 320.769 362.688 320.591 362.688 320.354C362.688 320.118 362.62 319.939 362.484 319.818C362.348 319.697 362.122 319.637 361.805 319.637H360.846ZM363.941 317.825H364.582V321.63H363.941V317.825ZM365.391 321.63V321.026H365.519C365.786 321.026 365.977 320.903 366.093 320.656C366.209 320.404 366.267 319.952 366.267 319.297V317.825H369.18V321.63H368.531V318.384H366.863V319.312C366.863 320.173 366.757 320.774 366.546 321.116C366.339 321.459 365.997 321.63 365.519 321.63H365.391ZM373.04 321.63L372.195 319.954H371.055V321.63H370.413V317.825H371.055V319.395H372.21L373.002 317.825H373.674L372.746 319.66L373.727 321.63H373.04ZM375.664 323.139H375.015L375.8 321.275L374.177 317.825H374.864L376.026 320.331H376.215L377.271 317.825H377.943L375.664 323.139Z" fill="black"/>
<rect x="218.178" y="250.5" width="627" height="95" rx="3.27404" stroke="#ECEEF6"/>
</g>
<defs>
<filter id="filter0_f_128_5772" x="184" y="-31" width="468" height="468" filterUnits="userSpaceOnUse" color-interpolation-filters="sRGB">
<feFlood flood-opacity="0" result="BackgroundImageFix"/>
<feBlend mode="normal" in="SourceGraphic" in2="BackgroundImageFix" result="shape"/>
<feGaussianBlur stdDeviation="32" result="effect1_foregroundBlur_128_5772"/>
</filter>
<filter id="filter1_i_128_5772" x="200.678" y="33" width="392" height="352" filterUnits="userSpaceOnUse" color-interpolation-filters="sRGB">
<feFlood flood-opacity="0" result="BackgroundImageFix"/>
<feBlend mode="normal" in="SourceGraphic" in2="BackgroundImageFix" result="shape"/>
<feColorMatrix in="SourceAlpha" type="matrix" values="0 0 0 0 0 0 0 0 0 0 0 0 0 0 0 0 0 0 127 0" result="hardAlpha"/>
<feOffset dx="-40"/>
<feGaussianBlur stdDeviation="20"/>
<feComposite in2="hardAlpha" operator="arithmetic" k2="-1" k3="1"/>
<feColorMatrix type="matrix" values="0 0 0 0 0.241875 0 0 0 0 0.311734 0 0 0 0 0.675 0 0 0 0.04 0"/>
<feBlend mode="normal" in2="shape" result="effect1_innerShadow_128_5772"/>
</filter>
</defs>
</svg>
