<svg width="468" height="445" viewBox="0 0 468 445" fill="none" xmlns="http://www.w3.org/2000/svg">
<circle cx="240" cy="208" r="176" fill="#ECEEF6"/>
<g filter="url(#filter0_f_20246_15911)">
<circle cx="240" cy="209" r="176" fill="#4563FF" fill-opacity="0.01"/>
</g>
<rect x="64.5" y="82.5" width="351" height="251" rx="4.5" fill="white"/>
<path d="M106.994 128.04C106.994 127.319 106.703 126.767 106.12 126.384C105.553 125.985 104.809 125.786 103.889 125.786C101.911 125.786 100.776 126.522 100.485 127.994H97.633C97.817 126.522 98.461 125.372 99.565 124.544C100.669 123.701 102.118 123.279 103.912 123.279C105.752 123.279 107.193 123.701 108.236 124.544C109.294 125.372 109.823 126.422 109.823 127.695C109.823 129.274 109.256 130.371 108.121 130.984V131.536C109.67 132.165 110.444 133.422 110.444 135.308C110.444 136.719 109.869 137.907 108.719 138.873C107.569 139.824 105.99 140.299 103.981 140.299C101.88 140.299 100.247 139.854 99.082 138.965C97.9167 138.076 97.219 136.834 96.989 135.239H99.887C100.316 136.941 101.689 137.792 104.004 137.792C105.093 137.792 105.959 137.57 106.603 137.125C107.247 136.665 107.569 136.029 107.569 135.216C107.569 133.56 106.473 132.732 104.28 132.732H101.75V130.271H104.28C105.231 130.271 105.921 130.064 106.35 129.65C106.779 129.236 106.994 128.699 106.994 128.04ZM120.696 140V138.919H120.144C119.408 139.839 118.258 140.299 116.694 140.299C115.406 140.299 114.386 139.931 113.635 139.195C112.884 138.444 112.508 137.531 112.508 136.458C112.508 135.4 112.891 134.48 113.658 133.698C114.425 132.916 115.59 132.525 117.154 132.525H120.604V132.18C120.604 130.754 119.784 130.041 118.143 130.041C116.686 130.041 115.904 130.539 115.797 131.536H113.221C113.282 130.447 113.75 129.589 114.624 128.96C115.513 128.316 116.656 127.994 118.051 127.994C119.63 127.994 120.865 128.347 121.754 129.052C122.659 129.757 123.111 130.815 123.111 132.226V140H120.696ZM117.499 138.183C118.373 138.183 119.109 137.899 119.707 137.332C120.305 136.765 120.604 136.075 120.604 135.262V134.365H117.614C115.958 134.365 115.13 135.009 115.13 136.297C115.13 136.895 115.337 137.363 115.751 137.7C116.165 138.022 116.748 138.183 117.499 138.183ZM139.631 128.293H142.161V137.792H144.277V143.289H141.793V140H126.544V128.293H129.074V137.792H133.099V128.293H135.606V137.792H139.631V128.293ZM149.613 140H146.669V128.293H149.199V136.021H149.751L154.558 128.293H157.571V140H155.041V132.272H154.489L149.613 140ZM160.052 130.501V128.293H170.54V130.501H166.607V140H164.008V130.501H160.052ZM180.33 140V138.919H179.778C179.042 139.839 177.892 140.299 176.328 140.299C175.04 140.299 174.02 139.931 173.269 139.195C172.517 138.444 172.142 137.531 172.142 136.458C172.142 135.4 172.525 134.48 173.292 133.698C174.058 132.916 175.224 132.525 176.788 132.525H180.238V132.18C180.238 130.754 179.417 130.041 177.777 130.041C176.32 130.041 175.538 130.539 175.431 131.536H172.855C172.916 130.447 173.384 129.589 174.258 128.96C175.147 128.316 176.289 127.994 177.685 127.994C179.264 127.994 180.498 128.347 181.388 129.052C182.292 129.757 182.745 130.815 182.745 132.226V140H180.33ZM177.133 138.183C178.007 138.183 178.743 137.899 179.341 137.332C179.939 136.765 180.238 136.075 180.238 135.262V134.365H177.248C175.592 134.365 174.764 135.009 174.764 136.297C174.764 136.895 174.971 137.363 175.385 137.7C175.799 138.022 176.381 138.183 177.133 138.183ZM193.476 129.719C194.549 128.569 195.991 127.994 197.8 127.994C199.609 127.994 201.043 128.569 202.101 129.719C203.174 130.854 203.711 132.326 203.711 134.135C203.711 135.96 203.174 137.447 202.101 138.597C201.043 139.732 199.609 140.299 197.8 140.299C195.991 140.299 194.549 139.732 193.476 138.597C192.418 137.447 191.889 135.96 191.889 134.135C191.889 132.326 192.418 130.854 193.476 129.719ZM195.339 136.964C195.906 137.715 196.727 138.091 197.8 138.091C198.873 138.091 199.694 137.715 200.261 136.964C200.828 136.197 201.112 135.254 201.112 134.135C201.112 133.031 200.828 132.103 200.261 131.352C199.694 130.585 198.873 130.202 197.8 130.202C196.727 130.202 195.906 130.585 195.339 131.352C194.772 132.103 194.488 133.031 194.488 134.135C194.488 135.254 194.772 136.197 195.339 136.964ZM205.289 130.501V128.293H215.777V130.501H211.844V140H209.245V130.501H205.289ZM97.794 168V156.293H101.497L104.119 161.422H104.671L107.27 156.293H110.95V168H108.42V159.582H107.868L105.591 163.975H103.153L100.876 159.582H100.324V168H97.794ZM115.424 157.719C116.498 156.569 117.939 155.994 119.748 155.994C121.558 155.994 122.991 156.569 124.049 157.719C125.123 158.854 125.659 160.326 125.659 162.135C125.659 163.96 125.123 165.447 124.049 166.597C122.991 167.732 121.558 168.299 119.748 168.299C117.939 168.299 116.498 167.732 115.424 166.597C114.366 165.447 113.837 163.96 113.837 162.135C113.837 160.326 114.366 158.854 115.424 157.719ZM117.287 164.964C117.855 165.715 118.675 166.091 119.748 166.091C120.822 166.091 121.642 165.715 122.209 164.964C122.777 164.197 123.06 163.254 123.06 162.135C123.06 161.031 122.777 160.103 122.209 159.352C121.642 158.585 120.822 158.202 119.748 158.202C118.675 158.202 117.855 158.585 117.287 159.352C116.72 160.103 116.436 161.031 116.436 162.135C116.436 163.254 116.72 164.197 117.287 164.964ZM141.652 156.293H144.182V168H128.565V156.293H131.095V165.792H135.12V156.293H137.627V165.792H141.652V156.293ZM158.304 161.491V162.365H149.656C149.732 164.849 150.829 166.091 152.945 166.091C154.279 166.091 155.13 165.593 155.498 164.596H158.143C157.913 165.731 157.353 166.635 156.464 167.31C155.574 167.969 154.394 168.299 152.922 168.299C151.112 168.299 149.686 167.724 148.644 166.574C147.601 165.424 147.08 163.921 147.08 162.066C147.08 160.226 147.593 158.754 148.621 157.65C149.663 156.546 151.074 155.994 152.853 155.994C154.539 155.994 155.858 156.515 156.809 157.558C157.775 158.585 158.273 159.896 158.304 161.491ZM152.83 158.064C151.143 158.064 150.123 158.854 149.771 160.433H155.636C155.544 159.743 155.26 159.176 154.785 158.731C154.309 158.286 153.658 158.064 152.83 158.064ZM172.035 168H169.436V163.101H163.778V168H161.179V156.293H163.778V160.893H169.436V156.293H172.035V168ZM186.477 168H183.878V163.101H178.22V168H175.621V156.293H178.22V160.893H183.878V156.293H186.477V168ZM193.008 168H190.064V156.293H192.594V164.021H193.146L197.953 156.293H200.966V168H198.436V160.272H197.884L193.008 168ZM203.884 156.293H206.483V159.674C206.483 159.996 206.498 160.249 206.529 160.433C206.575 160.617 206.675 160.824 206.828 161.054C206.981 161.269 207.242 161.43 207.61 161.537C207.978 161.644 208.461 161.698 209.059 161.698C209.887 161.698 210.738 161.606 211.612 161.422V156.293H214.234V168H211.612V163.584C210.585 163.799 209.488 163.906 208.323 163.906C207.342 163.906 206.537 163.806 205.908 163.607C205.279 163.392 204.827 163.078 204.551 162.664C204.275 162.25 204.091 161.851 203.999 161.468C203.922 161.085 203.884 160.602 203.884 160.019V156.293ZM228.359 161.491V162.365H219.711C219.788 164.849 220.884 166.091 223 166.091C224.334 166.091 225.185 165.593 225.553 164.596H228.198C227.968 165.731 227.409 166.635 226.519 167.31C225.63 167.969 224.449 168.299 222.977 168.299C221.168 168.299 219.742 167.724 218.699 166.574C217.657 165.424 217.135 163.921 217.135 162.066C217.135 160.226 217.649 158.754 218.676 157.65C219.719 156.546 221.13 155.994 222.908 155.994C224.595 155.994 225.914 156.515 226.864 157.558C227.83 158.585 228.329 159.896 228.359 161.491ZM222.885 158.064C221.199 158.064 220.179 158.854 219.826 160.433H225.691C225.599 159.743 225.316 159.176 224.84 158.731C224.365 158.286 223.713 158.064 222.885 158.064ZM238.916 164.251H241.492C241.308 165.478 240.749 166.459 239.813 167.195C238.893 167.931 237.736 168.299 236.34 168.299C234.546 168.299 233.128 167.732 232.085 166.597C231.058 165.447 230.544 163.96 230.544 162.135C230.544 160.31 231.058 158.831 232.085 157.696C233.128 156.561 234.546 155.994 236.34 155.994C237.751 155.994 238.901 156.347 239.79 157.052C240.695 157.757 241.232 158.693 241.4 159.858H238.824C238.441 158.754 237.621 158.202 236.363 158.202C235.275 158.202 234.462 158.57 233.925 159.306C233.404 160.042 233.143 160.977 233.143 162.112C233.143 163.277 233.404 164.236 233.925 164.987C234.462 165.723 235.275 166.091 236.363 166.091C237.805 166.091 238.656 165.478 238.916 164.251ZM243.203 158.501V156.293H253.691V158.501H249.758V168H247.159V158.501H243.203ZM264.814 161.537V162.066C265.397 162.219 265.864 162.534 266.217 163.009C266.585 163.469 266.769 164.059 266.769 164.78C266.769 165.838 266.409 166.643 265.688 167.195C264.983 167.732 263.963 168 262.629 168H256.166V156.293H262.422C263.603 156.293 264.515 156.554 265.159 157.075C265.803 157.596 266.125 158.325 266.125 159.26C266.125 159.781 265.995 160.249 265.734 160.663C265.489 161.062 265.182 161.353 264.814 161.537ZM258.719 166.022H262.146C263.48 166.022 264.147 165.508 264.147 164.481C264.147 163.438 263.48 162.917 262.146 162.917H258.719V166.022ZM258.719 158.271V161.031H261.87C262.437 161.031 262.851 160.901 263.112 160.64C263.388 160.379 263.526 160.05 263.526 159.651C263.526 158.731 262.974 158.271 261.87 158.271H258.719ZM276.979 168V166.919H276.427C275.691 167.839 274.541 168.299 272.977 168.299C271.689 168.299 270.669 167.931 269.918 167.195C269.167 166.444 268.791 165.531 268.791 164.458C268.791 163.4 269.174 162.48 269.941 161.698C270.708 160.916 271.873 160.525 273.437 160.525H276.887V160.18C276.887 158.754 276.067 158.041 274.426 158.041C272.969 158.041 272.187 158.539 272.08 159.536H269.504C269.565 158.447 270.033 157.589 270.907 156.96C271.796 156.316 272.939 155.994 274.334 155.994C275.913 155.994 277.148 156.347 278.037 157.052C278.942 157.757 279.394 158.815 279.394 160.226V168H276.979ZM273.782 166.183C274.656 166.183 275.392 165.899 275.99 165.332C276.588 164.765 276.887 164.075 276.887 163.262V162.365H273.897C272.241 162.365 271.413 163.009 271.413 164.297C271.413 164.895 271.62 165.363 272.034 165.7C272.448 166.022 273.031 166.183 273.782 166.183Z" fill="black"/>
<path d="M98.534 217.852H104.456V219H97.274V209.004H104.232V210.152H98.534V213.246H103.126V214.394H98.534V217.852ZM110.836 216.872H112.026C111.886 217.581 111.555 218.146 111.032 218.566C110.519 218.977 109.861 219.182 109.058 219.182C107.994 219.182 107.154 218.837 106.538 218.146C105.931 217.446 105.628 216.555 105.628 215.472C105.628 214.38 105.931 213.489 106.538 212.798C107.145 212.107 107.985 211.762 109.058 211.762C109.87 211.762 110.528 211.967 111.032 212.378C111.545 212.779 111.863 213.316 111.984 213.988H110.794C110.542 213.195 109.963 212.798 109.058 212.798C108.302 212.798 107.737 213.05 107.364 213.554C107 214.049 106.818 214.679 106.818 215.444C106.818 216.219 107.005 216.863 107.378 217.376C107.751 217.889 108.311 218.146 109.058 218.146C110.047 218.146 110.64 217.721 110.836 216.872ZM113.002 219V217.88H113.24C113.735 217.88 114.09 217.651 114.304 217.194C114.519 216.727 114.626 215.887 114.626 214.674V211.944H120.03V219H118.826V212.98H115.732V214.702C115.732 216.298 115.536 217.413 115.144 218.048C114.762 218.683 114.127 219 113.24 219H113.002ZM123.998 219H122.318V211.944H123.48V217.404H123.788L126.882 211.944H128.618V219H127.456V213.54H127.148L123.998 219ZM139.686 219L138.118 215.892H136.004V219H134.814V211.944H136.004V214.856H138.146L139.616 211.944H140.862L139.14 215.346L140.96 219H139.686ZM146.036 212.798C145.299 212.798 144.743 213.055 144.37 213.568C144.006 214.081 143.824 214.716 143.824 215.472C143.824 216.228 144.006 216.863 144.37 217.376C144.743 217.889 145.299 218.146 146.036 218.146C146.727 218.146 147.259 217.903 147.632 217.418C148.015 216.923 148.206 216.275 148.206 215.472C148.206 214.669 148.015 214.025 147.632 213.54C147.259 213.045 146.727 212.798 146.036 212.798ZM142.648 211.944H143.796V212.7H144.104C144.608 212.075 145.341 211.762 146.302 211.762C147.254 211.762 148.005 212.112 148.556 212.812C149.116 213.512 149.396 214.399 149.396 215.472C149.396 216.564 149.116 217.455 148.556 218.146C148.005 218.837 147.254 219.182 146.302 219.182C145.331 219.182 144.613 218.869 144.146 218.244H143.838V221.8H142.648V211.944ZM157.379 215.052V215.458H152.003C152.022 216.307 152.223 216.97 152.605 217.446C152.988 217.913 153.539 218.146 154.257 218.146C155.228 218.146 155.825 217.782 156.049 217.054H157.253C157.132 217.689 156.81 218.202 156.287 218.594C155.774 218.986 155.097 219.182 154.257 219.182C153.184 219.182 152.344 218.832 151.737 218.132C151.131 217.432 150.827 216.522 150.827 215.402C150.827 214.301 151.131 213.419 151.737 212.756C152.344 212.093 153.175 211.762 154.229 211.762C155.228 211.762 155.998 212.079 156.539 212.714C157.081 213.339 157.361 214.119 157.379 215.052ZM154.201 212.798C153.595 212.798 153.109 212.957 152.745 213.274C152.381 213.582 152.157 213.979 152.073 214.464H156.147C156.11 213.988 155.919 213.591 155.573 213.274C155.228 212.957 154.771 212.798 154.201 212.798ZM165.518 217.964H166.82V221.002H165.658V219H159.554V221.002H158.392V217.964H159.33C159.909 216.732 160.198 215.369 160.198 213.876V211.944H165.518V217.964ZM164.328 217.964V212.98H161.304V213.876C161.304 215.472 161.047 216.835 160.534 217.964H164.328ZM170.045 219H168.365V211.944H169.527V217.404H169.835L172.929 211.944H174.665V219H173.503V213.54H173.195L170.045 219ZM176.236 212.98V211.944H182.312V212.98H179.876V219H178.686V212.98H176.236ZM188.898 219H187.218V211.944H188.38V217.404H188.688L191.782 211.944H193.518V219H192.356V213.54H192.048L188.898 219ZM195.02 219V217.88H195.258C195.753 217.88 196.107 217.651 196.322 217.194C196.537 216.727 196.644 215.887 196.644 214.674V211.944H202.048V219H200.844V212.98H197.75V214.702C197.75 216.298 197.554 217.413 197.162 218.048C196.779 218.683 196.145 219 195.258 219H195.02ZM206.016 219H204.336V211.944H205.498V217.404H205.806L208.9 211.944H210.636V219H209.474V213.54H209.166L206.016 219ZM223.062 219H221.872V212.98H218.022V219H216.832V211.944H223.062V219ZM229.857 219V218.258H229.549C229.064 218.874 228.331 219.182 227.351 219.182C226.576 219.182 225.96 218.958 225.503 218.51C225.046 218.062 224.817 217.521 224.817 216.886C224.817 216.242 225.041 215.691 225.489 215.234C225.937 214.777 226.614 214.548 227.519 214.548H229.815V214.268C229.815 213.82 229.675 213.465 229.395 213.204C229.115 212.933 228.681 212.798 228.093 212.798C227.066 212.798 226.52 213.139 226.455 213.82H225.265C225.312 213.176 225.587 212.672 226.091 212.308C226.604 211.944 227.262 211.762 228.065 211.762C228.97 211.762 229.68 211.972 230.193 212.392C230.716 212.812 230.977 213.414 230.977 214.198V219H229.857ZM227.645 218.146C228.233 218.146 228.742 217.955 229.171 217.572C229.6 217.18 229.815 216.704 229.815 216.144V215.5H227.701C226.572 215.5 226.007 215.948 226.007 216.844C226.007 217.245 226.147 217.563 226.427 217.796C226.716 218.029 227.122 218.146 227.645 218.146ZM237.93 216.872H239.12C238.98 217.581 238.648 218.146 238.126 218.566C237.612 218.977 236.954 219.182 236.152 219.182C235.088 219.182 234.248 218.837 233.632 218.146C233.025 217.446 232.722 216.555 232.722 215.472C232.722 214.38 233.025 213.489 233.632 212.798C234.238 212.107 235.078 211.762 236.152 211.762C236.964 211.762 237.622 211.967 238.126 212.378C238.639 212.779 238.956 213.316 239.078 213.988H237.888C237.636 213.195 237.057 212.798 236.152 212.798C235.396 212.798 234.831 213.05 234.458 213.554C234.094 214.049 233.912 214.679 233.912 215.444C233.912 216.219 234.098 216.863 234.472 217.376C234.845 217.889 235.405 218.146 236.152 218.146C237.141 218.146 237.734 217.721 237.93 216.872ZM247.124 219H245.934V212.98H242.084V219H240.894V211.944H247.124V219ZM249.915 212.812C250.541 212.112 251.39 211.762 252.463 211.762C253.537 211.762 254.381 212.112 254.997 212.812C255.623 213.512 255.935 214.399 255.935 215.472C255.935 216.545 255.623 217.432 254.997 218.132C254.381 218.832 253.537 219.182 252.463 219.182C251.39 219.182 250.541 218.832 249.915 218.132C249.299 217.432 248.991 216.545 248.991 215.472C248.991 214.399 249.299 213.512 249.915 212.812ZM250.769 217.376C251.161 217.889 251.726 218.146 252.463 218.146C253.201 218.146 253.765 217.889 254.157 217.376C254.549 216.853 254.745 216.219 254.745 215.472C254.745 214.725 254.549 214.095 254.157 213.582C253.765 213.059 253.201 212.798 252.463 212.798C251.726 212.798 251.161 213.059 250.769 213.582C250.377 214.095 250.181 214.725 250.181 215.472C250.181 216.219 250.377 216.853 250.769 217.376ZM261.181 212.798C260.443 212.798 259.888 213.055 259.515 213.568C259.151 214.081 258.969 214.716 258.969 215.472C258.969 216.228 259.151 216.863 259.515 217.376C259.888 217.889 260.443 218.146 261.181 218.146C261.871 218.146 262.403 217.903 262.777 217.418C263.159 216.923 263.351 216.275 263.351 215.472C263.351 214.669 263.159 214.025 262.777 213.54C262.403 213.045 261.871 212.798 261.181 212.798ZM257.793 211.944H258.941V212.7H259.249C259.753 212.075 260.485 211.762 261.447 211.762C262.399 211.762 263.15 212.112 263.701 212.812C264.261 213.512 264.541 214.399 264.541 215.472C264.541 216.564 264.261 217.455 263.701 218.146C263.15 218.837 262.399 219.182 261.447 219.182C260.476 219.182 259.757 218.869 259.291 218.244H258.983V221.8H257.793V211.944ZM265.541 212.98V211.944H271.617V212.98H269.181V219H267.991V212.98H265.541ZM279.473 219H278.283V215.892H274.377V219H273.187V211.944H274.377V214.856H278.283V211.944H279.473V219ZM281.773 211.944H282.963V214.296H284.909C285.758 214.296 286.412 214.501 286.869 214.912C287.336 215.323 287.569 215.897 287.569 216.634C287.569 217.381 287.336 217.964 286.869 218.384C286.412 218.795 285.758 219 284.909 219H281.773V211.944ZM282.963 215.304V217.964H284.741C285.329 217.964 285.749 217.852 286.001 217.628C286.253 217.404 286.379 217.073 286.379 216.634C286.379 216.195 286.253 215.864 286.001 215.64C285.749 215.416 285.329 215.304 284.741 215.304H282.963ZM288.703 211.944H289.893V219H288.703V211.944ZM298.309 215.052V215.458H292.933C292.952 216.307 293.152 216.97 293.535 217.446C293.918 217.913 294.468 218.146 295.187 218.146C296.158 218.146 296.755 217.782 296.979 217.054H298.183C298.062 217.689 297.74 218.202 297.217 218.594C296.704 218.986 296.027 219.182 295.187 219.182C294.114 219.182 293.274 218.832 292.667 218.132C292.06 217.432 291.757 216.522 291.757 215.402C291.757 214.301 292.06 213.419 292.667 212.756C293.274 212.093 294.104 211.762 295.159 211.762C296.158 211.762 296.928 212.079 297.469 212.714C298.01 213.339 298.29 214.119 298.309 215.052ZM295.131 212.798C294.524 212.798 294.039 212.957 293.675 213.274C293.311 213.582 293.087 213.979 293.003 214.464H297.077C297.04 213.988 296.848 213.591 296.503 213.274C296.158 212.957 295.7 212.798 295.131 212.798ZM310.344 217.964H311.646V221.002H310.484V219H304.38V221.002H303.218V217.964H304.156C304.735 216.732 305.024 215.369 305.024 213.876V211.944H310.344V217.964ZM309.154 217.964V212.98H306.13V213.876C306.13 215.472 305.873 216.835 305.36 217.964H309.154ZM317.685 219V218.258H317.377C316.892 218.874 316.159 219.182 315.179 219.182C314.404 219.182 313.788 218.958 313.331 218.51C312.874 218.062 312.645 217.521 312.645 216.886C312.645 216.242 312.869 215.691 313.317 215.234C313.765 214.777 314.442 214.548 315.347 214.548H317.643V214.268C317.643 213.82 317.503 213.465 317.223 213.204C316.943 212.933 316.509 212.798 315.921 212.798C314.894 212.798 314.348 213.139 314.283 213.82H313.093C313.14 213.176 313.415 212.672 313.919 212.308C314.432 211.944 315.09 211.762 315.893 211.762C316.798 211.762 317.508 211.972 318.021 212.392C318.544 212.812 318.805 213.414 318.805 214.198V219H317.685ZM315.473 218.146C316.061 218.146 316.57 217.955 316.999 217.572C317.428 217.18 317.643 216.704 317.643 216.144V215.5H315.529C314.4 215.5 313.835 215.948 313.835 216.844C313.835 217.245 313.975 217.563 314.255 217.796C314.544 218.029 314.95 218.146 315.473 218.146ZM327.27 219H326.08V215.892H322.174V219H320.984V211.944H322.174V214.856H326.08V211.944H327.27V219ZM335.856 219H334.666V215.892H330.76V219H329.57V211.944H330.76V214.856H334.666V211.944H335.856V219ZM338.156 211.944H339.346V214.296H341.292C342.141 214.296 342.794 214.501 343.252 214.912C343.718 215.323 343.952 215.897 343.952 216.634C343.952 217.381 343.718 217.964 343.252 218.384C342.794 218.795 342.141 219 341.292 219H338.156V211.944ZM339.346 215.304V217.964H341.124C341.712 217.964 342.132 217.852 342.384 217.628C342.636 217.404 342.762 217.073 342.762 216.634C342.762 216.195 342.636 215.864 342.384 215.64C342.132 215.416 341.712 215.304 341.124 215.304H339.346ZM345.086 211.944H346.276V219H345.086V211.944ZM354.692 215.052V215.458H349.316C349.334 216.307 349.535 216.97 349.918 217.446C350.3 217.913 350.851 218.146 351.57 218.146C352.54 218.146 353.138 217.782 353.362 217.054H354.566C354.444 217.689 354.122 218.202 353.6 218.594C353.086 218.986 352.41 219.182 351.57 219.182C350.496 219.182 349.656 218.832 349.05 218.132C348.443 217.432 348.14 216.522 348.14 215.402C348.14 214.301 348.443 213.419 349.05 212.756C349.656 212.093 350.487 211.762 351.542 211.762C352.54 211.762 353.31 212.079 353.852 212.714C354.393 213.339 354.673 214.119 354.692 215.052ZM351.514 212.798C350.907 212.798 350.422 212.957 350.058 213.274C349.694 213.582 349.47 213.979 349.386 214.464H353.46C353.422 213.988 353.231 213.591 352.886 213.274C352.54 212.957 352.083 212.798 351.514 212.798ZM97.638 229.812C98.2633 229.112 99.1127 228.762 100.186 228.762C101.259 228.762 102.104 229.112 102.72 229.812C103.345 230.512 103.658 231.399 103.658 232.472C103.658 233.545 103.345 234.432 102.72 235.132C102.104 235.832 101.259 236.182 100.186 236.182C99.1127 236.182 98.2633 235.832 97.638 235.132C97.022 234.432 96.714 233.545 96.714 232.472C96.714 231.399 97.022 230.512 97.638 229.812ZM98.492 234.376C98.884 234.889 99.4487 235.146 100.186 235.146C100.923 235.146 101.488 234.889 101.88 234.376C102.272 233.853 102.468 233.219 102.468 232.472C102.468 231.725 102.272 231.095 101.88 230.582C101.488 230.059 100.923 229.798 100.186 229.798C99.4487 229.798 98.884 230.059 98.492 230.582C98.1 231.095 97.904 231.725 97.904 232.472C97.904 233.219 98.1 233.853 98.492 234.376ZM110.387 236L108.819 232.892H106.705V236H105.515V228.944H106.705V231.856H108.847L110.317 228.944H111.563L109.841 232.346L111.661 236H110.387ZM117.843 236V235.258H117.535C117.05 235.874 116.317 236.182 115.337 236.182C114.563 236.182 113.947 235.958 113.489 235.51C113.032 235.062 112.803 234.521 112.803 233.886C112.803 233.242 113.027 232.691 113.475 232.234C113.923 231.777 114.6 231.548 115.505 231.548H117.801V231.268C117.801 230.82 117.661 230.465 117.381 230.204C117.101 229.933 116.667 229.798 116.079 229.798C115.053 229.798 114.507 230.139 114.441 230.82H113.251C113.298 230.176 113.573 229.672 114.077 229.308C114.591 228.944 115.249 228.762 116.051 228.762C116.957 228.762 117.666 228.972 118.179 229.392C118.702 229.812 118.963 230.414 118.963 231.198V236H117.843ZM115.631 235.146C116.219 235.146 116.728 234.955 117.157 234.572C117.587 234.18 117.801 233.704 117.801 233.144V232.5H115.687C114.558 232.5 113.993 232.948 113.993 233.844C113.993 234.245 114.133 234.563 114.413 234.796C114.703 235.029 115.109 235.146 115.631 235.146ZM123.144 232.906L121.786 236H120.54L122.136 232.374L120.638 228.944H121.87L123.144 231.87H124.95V228.944H126.098V231.87H127.904L129.178 228.944H130.41L128.912 232.374L130.522 236H129.262L127.904 232.906H126.098V236H124.95V232.906H123.144ZM134.107 238.8H132.903L134.359 235.342L131.349 228.944H132.623L134.779 233.592H135.129L137.089 228.944H138.335L134.107 238.8ZM139.008 229.98V228.944H145.084V229.98H142.648V236H141.458V229.98H139.008ZM151.318 233.872H152.508C152.368 234.581 152.037 235.146 151.514 235.566C151.001 235.977 150.343 236.182 149.54 236.182C148.476 236.182 147.636 235.837 147.02 235.146C146.414 234.446 146.11 233.555 146.11 232.472C146.11 231.38 146.414 230.489 147.02 229.798C147.627 229.107 148.467 228.762 149.54 228.762C150.352 228.762 151.01 228.967 151.514 229.378C152.028 229.779 152.345 230.316 152.466 230.988H151.276C151.024 230.195 150.446 229.798 149.54 229.798C148.784 229.798 148.22 230.05 147.846 230.554C147.482 231.049 147.3 231.679 147.3 232.444C147.3 233.219 147.487 233.863 147.86 234.376C148.234 234.889 148.794 235.146 149.54 235.146C150.53 235.146 151.122 234.721 151.318 233.872ZM156.565 228.944H160.079V236H158.875V233.214H156.733C156.546 233.214 156.401 233.209 156.299 233.2L155.235 236H153.989L155.179 232.934C154.451 232.589 154.087 231.973 154.087 231.086C154.087 230.405 154.297 229.877 154.717 229.504C155.146 229.131 155.762 228.944 156.565 228.944ZM158.875 229.952H156.691C156.177 229.952 155.813 230.05 155.599 230.246C155.384 230.442 155.277 230.727 155.277 231.1C155.277 231.464 155.384 231.739 155.599 231.926C155.813 232.113 156.177 232.206 156.691 232.206H158.875V229.952ZM172.545 236H171.355V232.892H167.449V236H166.259V228.944H167.449V231.856H171.355V228.944H172.545V236ZM180.963 232.052V232.458H175.587C175.606 233.307 175.807 233.97 176.189 234.446C176.572 234.913 177.123 235.146 177.841 235.146C178.812 235.146 179.409 234.782 179.633 234.054H180.837C180.716 234.689 180.394 235.202 179.871 235.594C179.358 235.986 178.681 236.182 177.841 236.182C176.768 236.182 175.928 235.832 175.321 235.132C174.715 234.432 174.411 233.522 174.411 232.402C174.411 231.301 174.715 230.419 175.321 229.756C175.928 229.093 176.759 228.762 177.813 228.762C178.812 228.762 179.582 229.079 180.123 229.714C180.665 230.339 180.945 231.119 180.963 232.052ZM177.785 229.798C177.179 229.798 176.693 229.957 176.329 230.274C175.965 230.582 175.741 230.979 175.657 231.464H179.731C179.694 230.988 179.503 230.591 179.157 230.274C178.812 229.957 178.355 229.798 177.785 229.798ZM191.682 232.108V232.416C192.028 232.5 192.303 232.687 192.508 232.976C192.723 233.265 192.83 233.629 192.83 234.068C192.83 235.356 192 236 190.338 236H186.712V228.944H190.212C190.922 228.944 191.468 229.103 191.85 229.42C192.242 229.728 192.438 230.162 192.438 230.722C192.438 231.049 192.364 231.333 192.214 231.576C192.074 231.819 191.897 231.996 191.682 232.108ZM187.888 234.992H190.268C191.183 234.992 191.64 234.642 191.64 233.942C191.64 233.233 191.183 232.878 190.268 232.878H187.888V234.992ZM187.888 229.952V231.87H190.1C190.502 231.87 190.791 231.781 190.968 231.604C191.155 231.427 191.248 231.198 191.248 230.918C191.248 230.274 190.866 229.952 190.1 229.952H187.888ZM199.177 236V235.258H198.869C198.384 235.874 197.651 236.182 196.671 236.182C195.896 236.182 195.28 235.958 194.823 235.51C194.366 235.062 194.137 234.521 194.137 233.886C194.137 233.242 194.361 232.691 194.809 232.234C195.257 231.777 195.934 231.548 196.839 231.548H199.135V231.268C199.135 230.82 198.995 230.465 198.715 230.204C198.435 229.933 198.001 229.798 197.413 229.798C196.386 229.798 195.84 230.139 195.775 230.82H194.585C194.632 230.176 194.907 229.672 195.411 229.308C195.924 228.944 196.582 228.762 197.385 228.762C198.29 228.762 199 228.972 199.513 229.392C200.036 229.812 200.297 230.414 200.297 231.198V236H199.177ZM196.965 235.146C197.553 235.146 198.062 234.955 198.491 234.572C198.92 234.18 199.135 233.704 199.135 233.144V232.5H197.021C195.892 232.5 195.327 232.948 195.327 233.844C195.327 234.245 195.467 234.563 195.747 234.796C196.036 235.029 196.442 235.146 196.965 235.146ZM210.344 228.944H211.506V236H202.476V228.944H203.638V234.964H206.41V228.944H207.572V234.964H210.344V228.944ZM215.476 236H213.796V228.944H214.958V234.404H215.266L218.36 228.944H220.096V236H218.934V230.54H218.626L215.476 236ZM222.396 236V228.944H224.286L226.022 232.164H226.33L228.066 228.944H229.928V236H228.766V230.33H228.458L226.82 233.354H225.504L223.866 230.33H223.558V236H222.396ZM233.906 236H232.226V228.944H233.388V234.404H233.696L236.79 228.944H238.526V236H237.364V230.54H237.056L233.906 236ZM241.456 236H240.756V234.376H242.212V236.266L241.428 237.61H240.672L241.456 236.266V236ZM253.302 232.108V232.416C253.647 232.5 253.922 232.687 254.128 232.976C254.342 233.265 254.45 233.629 254.45 234.068C254.45 235.356 253.619 236 251.958 236H248.332V228.944H251.832C252.541 228.944 253.087 229.103 253.47 229.42C253.862 229.728 254.058 230.162 254.058 230.722C254.058 231.049 253.983 231.333 253.834 231.576C253.694 231.819 253.516 231.996 253.302 232.108ZM249.508 234.992H251.888C252.802 234.992 253.26 234.642 253.26 233.942C253.26 233.233 252.802 232.878 251.888 232.878H249.508V234.992ZM249.508 229.952V231.87H251.72C252.121 231.87 252.41 231.781 252.588 231.604C252.774 231.427 252.868 231.198 252.868 230.918C252.868 230.274 252.485 229.952 251.72 229.952H249.508ZM256.302 228.944H257.492V231.296H259.438C260.288 231.296 260.941 231.501 261.398 231.912C261.865 232.323 262.098 232.897 262.098 233.634C262.098 234.381 261.865 234.964 261.398 235.384C260.941 235.795 260.288 236 259.438 236H256.302V228.944ZM257.492 232.304V234.964H259.27C259.858 234.964 260.278 234.852 260.53 234.628C260.782 234.404 260.908 234.073 260.908 233.634C260.908 233.195 260.782 232.864 260.53 232.64C260.278 232.416 259.858 232.304 259.27 232.304H257.492ZM263.232 228.944H264.422V236H263.232V228.944ZM275.391 233.872H276.581C276.441 234.581 276.109 235.146 275.587 235.566C275.073 235.977 274.415 236.182 273.613 236.182C272.549 236.182 271.709 235.837 271.093 235.146C270.486 234.446 270.183 233.555 270.183 232.472C270.183 231.38 270.486 230.489 271.093 229.798C271.699 229.107 272.539 228.762 273.613 228.762C274.425 228.762 275.083 228.967 275.587 229.378C276.1 229.779 276.417 230.316 276.539 230.988H275.349C275.097 230.195 274.518 229.798 273.613 229.798C272.857 229.798 272.292 230.05 271.919 230.554C271.555 231.049 271.373 231.679 271.373 232.444C271.373 233.219 271.559 233.863 271.933 234.376C272.306 234.889 272.866 235.146 273.613 235.146C274.602 235.146 275.195 234.721 275.391 233.872ZM278.355 236V228.944H280.245L281.981 232.164H282.289L284.025 228.944H285.887V236H284.725V230.33H284.417L282.779 233.354H281.463L279.825 230.33H279.517V236H278.355ZM288.675 229.812C289.3 229.112 290.15 228.762 291.223 228.762C292.296 228.762 293.141 229.112 293.757 229.812C294.382 230.512 294.695 231.399 294.695 232.472C294.695 233.545 294.382 234.432 293.757 235.132C293.141 235.832 292.296 236.182 291.223 236.182C290.15 236.182 289.3 235.832 288.675 235.132C288.059 234.432 287.751 233.545 287.751 232.472C287.751 231.399 288.059 230.512 288.675 229.812ZM289.529 234.376C289.921 234.889 290.486 235.146 291.223 235.146C291.96 235.146 292.525 234.889 292.917 234.376C293.309 233.853 293.505 233.219 293.505 232.472C293.505 231.725 293.309 231.095 292.917 230.582C292.525 230.059 291.96 229.798 291.223 229.798C290.486 229.798 289.921 230.059 289.529 230.582C289.137 231.095 288.941 231.725 288.941 232.472C288.941 233.219 289.137 233.853 289.529 234.376ZM298.554 232.906L297.196 236H295.95L297.546 232.374L296.048 228.944H297.28L298.554 231.87H300.36V228.944H301.508V231.87H303.314L304.588 228.944H305.82L304.322 232.374L305.932 236H304.672L303.314 232.906H301.508V236H300.36V232.906H298.554ZM313.526 232.052V232.458H308.15C308.168 233.307 308.369 233.97 308.752 234.446C309.134 234.913 309.685 235.146 310.404 235.146C311.374 235.146 311.972 234.782 312.196 234.054H313.4C313.278 234.689 312.956 235.202 312.434 235.594C311.92 235.986 311.244 236.182 310.404 236.182C309.33 236.182 308.49 235.832 307.884 235.132C307.277 234.432 306.974 233.522 306.974 232.402C306.974 231.301 307.277 230.419 307.884 229.756C308.49 229.093 309.321 228.762 310.376 228.762C311.374 228.762 312.144 229.079 312.686 229.714C313.227 230.339 313.507 231.119 313.526 232.052ZM310.348 229.798C309.741 229.798 309.256 229.957 308.892 230.274C308.528 230.582 308.304 230.979 308.22 231.464H312.294C312.256 230.988 312.065 230.591 311.72 230.274C311.374 229.957 310.917 229.798 310.348 229.798ZM314.418 229.98V228.944H320.494V229.98H318.058V236H316.868V229.98H314.418ZM328.073 232.052V232.458H322.697C322.715 233.307 322.916 233.97 323.299 234.446C323.681 234.913 324.232 235.146 324.951 235.146C325.921 235.146 326.519 234.782 326.743 234.054H327.947C327.825 234.689 327.503 235.202 326.981 235.594C326.467 235.986 325.791 236.182 324.951 236.182C323.877 236.182 323.037 235.832 322.431 235.132C321.824 234.432 321.521 233.522 321.521 232.402C321.521 231.301 321.824 230.419 322.431 229.756C323.037 229.093 323.868 228.762 324.923 228.762C325.921 228.762 326.691 229.079 327.233 229.714C327.774 230.339 328.054 231.119 328.073 232.052ZM324.895 229.798C324.288 229.798 323.803 229.957 323.439 230.274C323.075 230.582 322.851 230.979 322.767 231.464H326.841C326.803 230.988 326.612 230.591 326.267 230.274C325.921 229.957 325.464 229.798 324.895 229.798ZM97.638 246.812C98.2633 246.112 99.1127 245.762 100.186 245.762C101.259 245.762 102.104 246.112 102.72 246.812C103.345 247.512 103.658 248.399 103.658 249.472C103.658 250.545 103.345 251.432 102.72 252.132C102.104 252.832 101.259 253.182 100.186 253.182C99.1127 253.182 98.2633 252.832 97.638 252.132C97.022 251.432 96.714 250.545 96.714 249.472C96.714 248.399 97.022 247.512 97.638 246.812ZM98.492 251.376C98.884 251.889 99.4487 252.146 100.186 252.146C100.923 252.146 101.488 251.889 101.88 251.376C102.272 250.853 102.468 250.219 102.468 249.472C102.468 248.725 102.272 248.095 101.88 247.582C101.488 247.059 100.923 246.798 100.186 246.798C99.4487 246.798 98.884 247.059 98.492 247.582C98.1 248.095 97.904 248.725 97.904 249.472C97.904 250.219 98.1 250.853 98.492 251.376ZM111.745 253H110.555V246.98H106.705V253H105.515V245.944H111.745V253ZM120.164 249.052V249.458H114.788C114.807 250.307 115.008 250.97 115.39 251.446C115.773 251.913 116.324 252.146 117.042 252.146C118.013 252.146 118.61 251.782 118.834 251.054H120.038C119.917 251.689 119.595 252.202 119.072 252.594C118.559 252.986 117.882 253.182 117.042 253.182C115.969 253.182 115.129 252.832 114.522 252.132C113.916 251.432 113.612 250.522 113.612 249.402C113.612 248.301 113.916 247.419 114.522 246.756C115.129 246.093 115.96 245.762 117.014 245.762C118.013 245.762 118.783 246.079 119.324 246.714C119.866 247.339 120.146 248.119 120.164 249.052ZM116.986 246.798C116.38 246.798 115.894 246.957 115.53 247.274C115.166 247.582 114.942 247.979 114.858 248.464H118.932C118.895 247.988 118.704 247.591 118.358 247.274C118.013 246.957 117.556 246.798 116.986 246.798ZM125.405 246.798C124.668 246.798 124.112 247.055 123.739 247.568C123.375 248.081 123.193 248.716 123.193 249.472C123.193 250.228 123.375 250.863 123.739 251.376C124.112 251.889 124.668 252.146 125.405 252.146C126.096 252.146 126.628 251.903 127.001 251.418C127.384 250.923 127.575 250.275 127.575 249.472C127.575 248.669 127.384 248.025 127.001 247.54C126.628 247.045 126.096 246.798 125.405 246.798ZM122.017 245.944H123.165V246.7H123.473C123.977 246.075 124.71 245.762 125.671 245.762C126.623 245.762 127.374 246.112 127.925 246.812C128.485 247.512 128.765 248.399 128.765 249.472C128.765 250.564 128.485 251.455 127.925 252.146C127.374 252.837 126.623 253.182 125.671 253.182C124.7 253.182 123.982 252.869 123.515 252.244H123.207V255.8H122.017V245.944ZM135.124 253V252.258H134.816C134.331 252.874 133.598 253.182 132.618 253.182C131.844 253.182 131.228 252.958 130.77 252.51C130.313 252.062 130.084 251.521 130.084 250.886C130.084 250.242 130.308 249.691 130.756 249.234C131.204 248.777 131.881 248.548 132.786 248.548H135.082V248.268C135.082 247.82 134.942 247.465 134.662 247.204C134.382 246.933 133.948 246.798 133.36 246.798C132.334 246.798 131.788 247.139 131.722 247.82H130.532C130.579 247.176 130.854 246.672 131.358 246.308C131.872 245.944 132.53 245.762 133.332 245.762C134.238 245.762 134.947 245.972 135.46 246.392C135.983 246.812 136.244 247.414 136.244 248.198V253H135.124ZM132.912 252.146C133.5 252.146 134.009 251.955 134.438 251.572C134.868 251.18 135.082 250.704 135.082 250.144V249.5H132.968C131.839 249.5 131.274 249.948 131.274 250.844C131.274 251.245 131.414 251.563 131.694 251.796C131.984 252.029 132.39 252.146 132.912 252.146ZM137.613 246.98V245.944H143.689V246.98H141.253V253H140.063V246.98H137.613ZM146.939 253H145.259V245.944H146.421V251.404H146.729L149.823 245.944H151.559V253H150.397V247.54H150.089L146.939 253ZM158.829 249.108V249.416C159.174 249.5 159.45 249.687 159.655 249.976C159.87 250.265 159.977 250.629 159.977 251.068C159.977 252.356 159.146 253 157.485 253H153.859V245.944H157.359C158.068 245.944 158.614 246.103 158.997 246.42C159.389 246.728 159.585 247.162 159.585 247.722C159.585 248.049 159.51 248.333 159.361 248.576C159.221 248.819 159.044 248.996 158.829 249.108ZM155.035 251.992H157.415C158.33 251.992 158.787 251.642 158.787 250.942C158.787 250.233 158.33 249.878 157.415 249.878H155.035V251.992ZM155.035 246.952V248.87H157.247C157.648 248.87 157.938 248.781 158.115 248.604C158.302 248.427 158.395 248.198 158.395 247.918C158.395 247.274 158.012 246.952 157.247 246.952H155.035ZM168.116 253H166.926V249.892H163.02V253H161.83V245.944H163.02V248.856H166.926V245.944H168.116V253ZM170.906 246.812C171.531 246.112 172.38 245.762 173.454 245.762C174.527 245.762 175.372 246.112 175.988 246.812C176.613 247.512 176.926 248.399 176.926 249.472C176.926 250.545 176.613 251.432 175.988 252.132C175.372 252.832 174.527 253.182 173.454 253.182C172.38 253.182 171.531 252.832 170.906 252.132C170.29 251.432 169.982 250.545 169.982 249.472C169.982 248.399 170.29 247.512 170.906 246.812ZM171.76 251.376C172.152 251.889 172.716 252.146 173.454 252.146C174.191 252.146 174.756 251.889 175.148 251.376C175.54 250.853 175.736 250.219 175.736 249.472C175.736 248.725 175.54 248.095 175.148 247.582C174.756 247.059 174.191 246.798 173.454 246.798C172.716 246.798 172.152 247.059 171.76 247.582C171.368 248.095 171.172 248.725 171.172 249.472C171.172 250.219 171.368 250.853 171.76 251.376ZM183.169 246.812C183.795 246.112 184.644 245.762 185.717 245.762C186.791 245.762 187.635 246.112 188.251 246.812C188.877 247.512 189.189 248.399 189.189 249.472C189.189 250.545 188.877 251.432 188.251 252.132C187.635 252.832 186.791 253.182 185.717 253.182C184.644 253.182 183.795 252.832 183.169 252.132C182.553 251.432 182.245 250.545 182.245 249.472C182.245 248.399 182.553 247.512 183.169 246.812ZM184.023 251.376C184.415 251.889 184.98 252.146 185.717 252.146C186.455 252.146 187.019 251.889 187.411 251.376C187.803 250.853 187.999 250.219 187.999 249.472C187.999 248.725 187.803 248.095 187.411 247.582C187.019 247.059 186.455 246.798 185.717 246.798C184.98 246.798 184.415 247.059 184.023 247.582C183.631 248.095 183.435 248.725 183.435 249.472C183.435 250.219 183.631 250.853 184.023 251.376ZM194.266 246.014C195.302 246.014 196.119 246.355 196.716 247.036C197.314 247.708 197.612 248.562 197.612 249.598C197.612 250.625 197.295 251.479 196.66 252.16C196.035 252.841 195.19 253.182 194.126 253.182C193.006 253.182 192.138 252.813 191.522 252.076C190.916 251.339 190.612 250.284 190.612 248.912C190.612 248.38 190.626 247.904 190.654 247.484C190.692 247.064 190.766 246.625 190.878 246.168C191 245.711 191.158 245.323 191.354 245.006C191.55 244.679 191.821 244.395 192.166 244.152C192.512 243.909 192.922 243.751 193.398 243.676L195.274 243.368C195.536 243.331 195.708 243.279 195.792 243.214C195.886 243.149 195.942 243.018 195.96 242.822H197.066C197.048 243.261 196.94 243.611 196.744 243.872C196.548 244.124 196.194 244.297 195.68 244.39L193.51 244.754C192.922 244.857 192.488 245.104 192.208 245.496C191.938 245.879 191.76 246.392 191.676 247.036H191.984C192.274 246.653 192.596 246.387 192.95 246.238C193.314 246.089 193.753 246.014 194.266 246.014ZM192.39 251.404C192.792 251.899 193.361 252.146 194.098 252.146C194.836 252.146 195.4 251.899 195.792 251.404C196.194 250.9 196.394 250.293 196.394 249.584C196.394 248.875 196.194 248.273 195.792 247.778C195.4 247.283 194.836 247.036 194.098 247.036C193.361 247.036 192.792 247.283 192.39 247.778C191.998 248.273 191.802 248.875 191.802 249.584C191.802 250.293 191.998 250.9 192.39 251.404ZM202.856 246.798C202.119 246.798 201.564 247.055 201.19 247.568C200.826 248.081 200.644 248.716 200.644 249.472C200.644 250.228 200.826 250.863 201.19 251.376C201.564 251.889 202.119 252.146 202.856 252.146C203.547 252.146 204.079 251.903 204.452 251.418C204.835 250.923 205.026 250.275 205.026 249.472C205.026 248.669 204.835 248.025 204.452 247.54C204.079 247.045 203.547 246.798 202.856 246.798ZM199.468 245.944H200.616V246.7H200.924C201.428 246.075 202.161 245.762 203.122 245.762C204.074 245.762 204.826 246.112 205.376 246.812C205.936 247.512 206.216 248.399 206.216 249.472C206.216 250.564 205.936 251.455 205.376 252.146C204.826 252.837 204.074 253.182 203.122 253.182C202.152 253.182 201.433 252.869 200.966 252.244H200.658V255.8H199.468V245.944ZM212.576 253V252.258H212.268C211.782 252.874 211.05 253.182 210.07 253.182C209.295 253.182 208.679 252.958 208.222 252.51C207.764 252.062 207.536 251.521 207.536 250.886C207.536 250.242 207.76 249.691 208.208 249.234C208.656 248.777 209.332 248.548 210.238 248.548H212.534V248.268C212.534 247.82 212.394 247.465 212.114 247.204C211.834 246.933 211.4 246.798 210.812 246.798C209.785 246.798 209.239 247.139 209.174 247.82H207.984C208.03 247.176 208.306 246.672 208.81 246.308C209.323 245.944 209.981 245.762 210.784 245.762C211.689 245.762 212.398 245.972 212.912 246.392C213.434 246.812 213.696 247.414 213.696 248.198V253H212.576ZM210.364 252.146C210.952 252.146 211.46 251.955 211.89 251.572C212.319 251.18 212.534 250.704 212.534 250.144V249.5H210.42C209.29 249.5 208.726 249.948 208.726 250.844C208.726 251.245 208.866 251.563 209.146 251.796C209.435 252.029 209.841 252.146 210.364 252.146ZM215.065 246.98V245.944H221.141V246.98H218.705V253H217.515V246.98H215.065ZM224.391 253H222.711V245.944H223.873V251.404H224.181L227.275 245.944H229.011V253H227.849V247.54H227.541L224.391 253ZM230.582 246.98V245.944H236.658V246.98H234.222V253H233.032V246.98H230.582ZM239.418 245.944V248.296H241.504C242.353 248.296 243.007 248.501 243.464 248.912C243.931 249.323 244.164 249.897 244.164 250.634C244.164 251.381 243.931 251.964 243.464 252.384C243.007 252.795 242.353 253 241.504 253H238.228V245.944H239.418ZM239.418 251.964H241.336C241.924 251.964 242.344 251.852 242.596 251.628C242.848 251.404 242.974 251.073 242.974 250.634C242.974 250.195 242.848 249.864 242.596 249.64C242.344 249.416 241.924 249.304 241.336 249.304H239.418V251.964ZM250.631 250.872H251.821C251.681 251.581 251.35 252.146 250.827 252.566C250.314 252.977 249.656 253.182 248.853 253.182C247.789 253.182 246.949 252.837 246.333 252.146C245.726 251.446 245.423 250.555 245.423 249.472C245.423 248.38 245.726 247.489 246.333 246.798C246.94 246.107 247.78 245.762 248.853 245.762C249.665 245.762 250.323 245.967 250.827 246.378C251.34 246.779 251.658 247.316 251.779 247.988H250.589C250.337 247.195 249.758 246.798 248.853 246.798C248.097 246.798 247.532 247.05 247.159 247.554C246.795 248.049 246.613 248.679 246.613 249.444C246.613 250.219 246.8 250.863 247.173 251.376C247.546 251.889 248.106 252.146 248.853 252.146C249.842 252.146 250.435 251.721 250.631 250.872ZM255.877 245.944H259.391V253H258.187V250.214H256.045C255.859 250.214 255.714 250.209 255.611 250.2L254.547 253H253.301L254.491 249.934C253.763 249.589 253.399 248.973 253.399 248.086C253.399 247.405 253.609 246.877 254.029 246.504C254.459 246.131 255.075 245.944 255.877 245.944ZM258.187 246.952H256.003C255.49 246.952 255.126 247.05 254.911 247.246C254.697 247.442 254.589 247.727 254.589 248.1C254.589 248.464 254.697 248.739 254.911 248.926C255.126 249.113 255.49 249.206 256.003 249.206H258.187V246.952ZM270.542 249.108V249.416C270.887 249.5 271.162 249.687 271.368 249.976C271.582 250.265 271.69 250.629 271.69 251.068C271.69 252.356 270.859 253 269.198 253H265.572V245.944H269.072C269.781 245.944 270.327 246.103 270.71 246.42C271.102 246.728 271.298 247.162 271.298 247.722C271.298 248.049 271.223 248.333 271.074 248.576C270.934 248.819 270.756 248.996 270.542 249.108ZM266.748 251.992H269.128C270.042 251.992 270.5 251.642 270.5 250.942C270.5 250.233 270.042 249.878 269.128 249.878H266.748V251.992ZM266.748 246.952V248.87H268.96C269.361 248.87 269.65 248.781 269.828 248.604C270.014 248.427 270.108 248.198 270.108 247.918C270.108 247.274 269.725 246.952 268.96 246.952H266.748ZM278.825 247.064H281.835C282.899 247.064 283.72 247.325 284.299 247.848C284.887 248.371 285.181 249.099 285.181 250.032C285.181 250.965 284.887 251.693 284.299 252.216C283.72 252.739 282.899 253 281.835 253H277.565V243.004H284.411V244.152H278.825V247.064ZM278.825 251.88H281.625C282.437 251.88 283.02 251.721 283.375 251.404C283.739 251.087 283.921 250.625 283.921 250.018C283.921 248.786 283.156 248.17 281.625 248.17H278.825V251.88ZM287.176 253V243.004H288.436V247.274H291.46L293.462 243.004H294.792L292.552 247.862L294.918 253H293.588L291.46 248.422H288.436V253H287.176ZM296.651 243.004H297.883V251.474H298.191L302.839 243.004H304.813V253H303.581V244.53H303.273L298.625 253H296.651V243.004ZM307.86 253H307.16V251.376H308.616V253.266L307.832 254.61H307.076L307.86 253.266V253ZM317.956 246.014C318.992 246.014 319.809 246.355 320.406 247.036C321.003 247.708 321.302 248.562 321.302 249.598C321.302 250.625 320.985 251.479 320.35 252.16C319.725 252.841 318.88 253.182 317.816 253.182C316.696 253.182 315.828 252.813 315.212 252.076C314.605 251.339 314.302 250.284 314.302 248.912C314.302 248.38 314.316 247.904 314.344 247.484C314.381 247.064 314.456 246.625 314.568 246.168C314.689 245.711 314.848 245.323 315.044 245.006C315.24 244.679 315.511 244.395 315.856 244.152C316.201 243.909 316.612 243.751 317.088 243.676L318.964 243.368C319.225 243.331 319.398 243.279 319.482 243.214C319.575 243.149 319.631 243.018 319.65 242.822H320.756C320.737 243.261 320.63 243.611 320.434 243.872C320.238 244.124 319.883 244.297 319.37 244.39L317.2 244.754C316.612 244.857 316.178 245.104 315.898 245.496C315.627 245.879 315.45 246.392 315.366 247.036H315.674C315.963 246.653 316.285 246.387 316.64 246.238C317.004 246.089 317.443 246.014 317.956 246.014ZM316.08 251.404C316.481 251.899 317.051 252.146 317.788 252.146C318.525 252.146 319.09 251.899 319.482 251.404C319.883 250.9 320.084 250.293 320.084 249.584C320.084 248.875 319.883 248.273 319.482 247.778C319.09 247.283 318.525 247.036 317.788 247.036C317.051 247.036 316.481 247.283 316.08 247.778C315.688 248.273 315.492 248.875 315.492 249.584C315.492 250.293 315.688 250.9 316.08 251.404ZM327.652 253V252.258H327.344C326.858 252.874 326.126 253.182 325.146 253.182C324.371 253.182 323.755 252.958 323.298 252.51C322.84 252.062 322.612 251.521 322.612 250.886C322.612 250.242 322.836 249.691 323.284 249.234C323.732 248.777 324.408 248.548 325.314 248.548H327.61V248.268C327.61 247.82 327.47 247.465 327.19 247.204C326.91 246.933 326.476 246.798 325.888 246.798C324.861 246.798 324.315 247.139 324.25 247.82H323.06C323.106 247.176 323.382 246.672 323.886 246.308C324.399 245.944 325.057 245.762 325.86 245.762C326.765 245.762 327.474 245.972 327.988 246.392C328.51 246.812 328.772 247.414 328.772 248.198V253H327.652ZM325.44 252.146C326.028 252.146 326.536 251.955 326.966 251.572C327.395 251.18 327.61 250.704 327.61 250.144V249.5H325.496C324.366 249.5 323.802 249.948 323.802 250.844C323.802 251.245 323.942 251.563 324.222 251.796C324.511 252.029 324.917 252.146 325.44 252.146ZM337.237 253H336.047V249.892H332.141V253H330.951V245.944H332.141V248.856H336.047V245.944H337.237V253ZM344.409 253L342.841 249.892H340.727V253H339.537V245.944H340.727V248.856H342.869L344.339 245.944H345.585L343.863 249.346L345.683 253H344.409ZM98.828 270H97.148V262.944H98.31V268.404H98.618L101.712 262.944H103.448V270H102.286V264.54H101.978L98.828 270ZM104.95 270V268.88H105.188C105.682 268.88 106.037 268.651 106.252 268.194C106.466 267.727 106.574 266.887 106.574 265.674V262.944H111.978V270H110.774V263.98H107.68V265.702C107.68 267.298 107.484 268.413 107.092 269.048C106.709 269.683 106.074 270 105.188 270H104.95ZM115.945 270H114.265V262.944H115.427V268.404H115.735L118.829 262.944H120.565V270H119.403V264.54H119.095L115.945 270ZM132.991 270H131.801V263.98H127.951V270H126.761V262.944H132.991V270ZM135.783 263.812C136.408 263.112 137.257 262.762 138.331 262.762C139.404 262.762 140.249 263.112 140.865 263.812C141.49 264.512 141.803 265.399 141.803 266.472C141.803 267.545 141.49 268.432 140.865 269.132C140.249 269.832 139.404 270.182 138.331 270.182C137.257 270.182 136.408 269.832 135.783 269.132C135.167 268.432 134.859 267.545 134.859 266.472C134.859 265.399 135.167 264.512 135.783 263.812ZM136.637 268.376C137.029 268.889 137.593 269.146 138.331 269.146C139.068 269.146 139.633 268.889 140.025 268.376C140.417 267.853 140.613 267.219 140.613 266.472C140.613 265.725 140.417 265.095 140.025 264.582C139.633 264.059 139.068 263.798 138.331 263.798C137.593 263.798 137.029 264.059 136.637 264.582C136.245 265.095 136.049 265.725 136.049 266.472C136.049 267.219 136.245 267.853 136.637 268.376ZM142.862 270V268.88H143.1C143.594 268.88 143.949 268.651 144.164 268.194C144.378 267.727 144.486 266.887 144.486 265.674V262.944H149.89V270H148.686V263.98H145.592V265.702C145.592 267.298 145.396 268.413 145.004 269.048C144.621 269.683 143.986 270 143.1 270H142.862ZM153.857 270H152.177V262.944H153.339V268.404H153.647L156.741 262.944H158.477V270H157.315V264.54H157.007L153.857 270ZM165.761 262.944H166.951V268.964H168.239V272.002H167.091V270H160.777V262.944H161.967V268.964H165.761V262.944ZM171.453 270H169.773V262.944H170.935V268.404H171.243L174.337 262.944H176.073V270H174.911V264.54H174.603L171.453 270ZM184.547 262.762C185.592 262.762 186.423 263.117 187.039 263.826C187.655 264.526 187.963 265.408 187.963 266.472C187.963 267.536 187.655 268.423 187.039 269.132C186.423 269.832 185.592 270.182 184.547 270.182C183.576 270.182 182.787 269.874 182.181 269.258C181.583 268.642 181.243 267.853 181.159 266.892H179.549V270H178.373V262.944H179.549V265.856H181.201C181.313 264.932 181.663 264.185 182.251 263.616C182.848 263.047 183.613 262.762 184.547 262.762ZM182.895 268.376C183.277 268.889 183.828 269.146 184.547 269.146C185.265 269.146 185.816 268.889 186.199 268.376C186.581 267.853 186.773 267.219 186.773 266.472C186.773 265.725 186.581 265.095 186.199 264.582C185.816 264.059 185.265 263.798 184.547 263.798C183.828 263.798 183.277 264.059 182.895 264.582C182.512 265.095 182.321 265.725 182.321 266.472C182.321 267.219 182.512 267.853 182.895 268.376ZM195.406 270H193.726V262.944H194.888V268.404H195.196L198.29 262.944H200.026V270H198.864V264.54H198.556L195.406 270ZM207.902 270H206.222V262.944H207.384V268.404H207.692L210.786 262.944H212.522V270H211.36V264.54H211.052L207.902 270ZM219.596 267.872H220.786C220.646 268.581 220.314 269.146 219.792 269.566C219.278 269.977 218.62 270.182 217.818 270.182C216.754 270.182 215.914 269.837 215.298 269.146C214.691 268.446 214.388 267.555 214.388 266.472C214.388 265.38 214.691 264.489 215.298 263.798C215.904 263.107 216.744 262.762 217.818 262.762C218.63 262.762 219.288 262.967 219.792 263.378C220.305 263.779 220.622 264.316 220.744 264.988H219.554C219.302 264.195 218.723 263.798 217.818 263.798C217.062 263.798 216.497 264.05 216.124 264.554C215.76 265.049 215.578 265.679 215.578 266.444C215.578 267.219 215.764 267.863 216.138 268.376C216.511 268.889 217.071 269.146 217.818 269.146C218.807 269.146 219.4 268.721 219.596 267.872ZM228.79 270H227.6V263.98H223.75V270H222.56V262.944H228.79V270ZM234.479 263.798C233.742 263.798 233.187 264.055 232.813 264.568C232.449 265.081 232.267 265.716 232.267 266.472C232.267 267.228 232.449 267.863 232.813 268.376C233.187 268.889 233.742 269.146 234.479 269.146C235.17 269.146 235.702 268.903 236.075 268.418C236.458 267.923 236.649 267.275 236.649 266.472C236.649 265.669 236.458 265.025 236.075 264.54C235.702 264.045 235.17 263.798 234.479 263.798ZM231.091 262.944H232.239V263.7H232.547C233.051 263.075 233.784 262.762 234.745 262.762C235.697 262.762 236.449 263.112 236.999 263.812C237.559 264.512 237.839 265.399 237.839 266.472C237.839 267.564 237.559 268.455 236.999 269.146C236.449 269.837 235.697 270.182 234.745 270.182C233.775 270.182 233.056 269.869 232.589 269.244H232.281V272.8H231.091V262.944ZM244.199 270V269.258H243.891C243.405 269.874 242.673 270.182 241.693 270.182C240.918 270.182 240.302 269.958 239.845 269.51C239.387 269.062 239.159 268.521 239.159 267.886C239.159 267.242 239.383 266.691 239.831 266.234C240.279 265.777 240.955 265.548 241.861 265.548H244.157V265.268C244.157 264.82 244.017 264.465 243.737 264.204C243.457 263.933 243.023 263.798 242.435 263.798C241.408 263.798 240.862 264.139 240.797 264.82H239.607C239.653 264.176 239.929 263.672 240.433 263.308C240.946 262.944 241.604 262.762 242.407 262.762C243.312 262.762 244.021 262.972 244.535 263.392C245.057 263.812 245.319 264.414 245.319 265.198V270H244.199ZM241.987 269.146C242.575 269.146 243.083 268.955 243.513 268.572C243.942 268.18 244.157 267.704 244.157 267.144V266.5H242.043C240.913 266.5 240.349 266.948 240.349 267.844C240.349 268.245 240.489 268.563 240.769 268.796C241.058 269.029 241.464 269.146 241.987 269.146ZM252.468 266.108V266.416C252.813 266.5 253.088 266.687 253.294 266.976C253.508 267.265 253.616 267.629 253.616 268.068C253.616 269.356 252.785 270 251.124 270H247.498V262.944H250.998C251.707 262.944 252.253 263.103 252.636 263.42C253.028 263.728 253.224 264.162 253.224 264.722C253.224 265.049 253.149 265.333 253 265.576C252.86 265.819 252.682 265.996 252.468 266.108ZM248.674 268.992H251.054C251.968 268.992 252.426 268.642 252.426 267.942C252.426 267.233 251.968 266.878 251.054 266.878H248.674V268.992ZM248.674 263.952V265.87H250.886C251.287 265.87 251.576 265.781 251.754 265.604C251.94 265.427 252.034 265.198 252.034 264.918C252.034 264.274 251.651 263.952 250.886 263.952H248.674ZM257.148 270H255.468V262.944H256.63V268.404H256.938L260.032 262.944H261.768V270H260.606V264.54H260.298L257.148 270ZM263.34 263.98V262.944H269.416V263.98H266.98V270H265.79V263.98H263.34ZM272.176 262.944V265.296H274.262C275.111 265.296 275.765 265.501 276.222 265.912C276.689 266.323 276.922 266.897 276.922 267.634C276.922 268.381 276.689 268.964 276.222 269.384C275.765 269.795 275.111 270 274.262 270H270.986V262.944H272.176ZM272.176 268.964H274.094C274.682 268.964 275.102 268.852 275.354 268.628C275.606 268.404 275.732 268.073 275.732 267.634C275.732 267.195 275.606 266.864 275.354 266.64C275.102 266.416 274.682 266.304 274.094 266.304H272.176V268.964ZM287.285 267.872H288.475C288.335 268.581 288.004 269.146 287.481 269.566C286.968 269.977 286.31 270.182 285.507 270.182C284.443 270.182 283.603 269.837 282.987 269.146C282.381 268.446 282.077 267.555 282.077 266.472C282.077 265.38 282.381 264.489 282.987 263.798C283.594 263.107 284.434 262.762 285.507 262.762C286.319 262.762 286.977 262.967 287.481 263.378C287.995 263.779 288.312 264.316 288.433 264.988H287.243C286.991 264.195 286.413 263.798 285.507 263.798C284.751 263.798 284.187 264.05 283.813 264.554C283.449 265.049 283.267 265.679 283.267 266.444C283.267 267.219 283.454 267.863 283.827 268.376C284.201 268.889 284.761 269.146 285.507 269.146C286.497 269.146 287.089 268.721 287.285 267.872ZM291.93 270H290.25V262.944H291.412V268.404H291.72L294.814 262.944H296.55V270H295.388V264.54H295.08L291.93 270ZM298.121 263.98V262.944H304.197V263.98H301.761V270H300.571V263.98H298.121ZM307.671 272.8H306.467L307.923 269.342L304.913 262.944H306.187L308.343 267.592H308.693L310.653 262.944H311.899L307.671 272.8ZM317.658 270V269.258H317.35C316.864 269.874 316.132 270.182 315.152 270.182C314.377 270.182 313.761 269.958 313.304 269.51C312.846 269.062 312.618 268.521 312.618 267.886C312.618 267.242 312.842 266.691 313.29 266.234C313.738 265.777 314.414 265.548 315.32 265.548H317.616V265.268C317.616 264.82 317.476 264.465 317.196 264.204C316.916 263.933 316.482 263.798 315.894 263.798C314.867 263.798 314.321 264.139 314.256 264.82H313.066C313.112 264.176 313.388 263.672 313.892 263.308C314.405 262.944 315.063 262.762 315.866 262.762C316.771 262.762 317.48 262.972 317.994 263.392C318.516 263.812 318.778 264.414 318.778 265.198V270H317.658ZM315.446 269.146C316.034 269.146 316.542 268.955 316.972 268.572C317.401 268.18 317.616 267.704 317.616 267.144V266.5H315.502C314.372 266.5 313.808 266.948 313.808 267.844C313.808 268.245 313.948 268.563 314.228 268.796C314.517 269.029 314.923 269.146 315.446 269.146ZM325.941 262.944H327.131V268.964H328.419V272.002H327.271V270H320.957V262.944H322.147V268.964H325.941V262.944ZM331.633 270H329.953V262.944H331.115V268.404H331.423L334.517 262.944H336.253V270H335.091V264.54H334.783L331.633 270ZM344.726 262.762C345.772 262.762 346.602 263.117 347.218 263.826C347.834 264.526 348.142 265.408 348.142 266.472C348.142 267.536 347.834 268.423 347.218 269.132C346.602 269.832 345.772 270.182 344.726 270.182C343.756 270.182 342.967 269.874 342.36 269.258C341.763 268.642 341.422 267.853 341.338 266.892H339.728V270H338.552V262.944H339.728V265.856H341.38C341.492 264.932 341.842 264.185 342.43 263.616C343.028 263.047 343.793 262.762 344.726 262.762ZM343.074 268.376C343.457 268.889 344.008 269.146 344.726 269.146C345.445 269.146 345.996 268.889 346.378 268.376C346.761 267.853 346.952 267.219 346.952 266.472C346.952 265.725 346.761 265.095 346.378 264.582C345.996 264.059 345.445 263.798 344.726 263.798C344.008 263.798 343.457 264.059 343.074 264.582C342.692 265.095 342.5 265.725 342.5 266.472C342.5 267.219 342.692 267.853 343.074 268.376Z" fill="#7B7794"/>
<g clip-path="url(#clip0_20246_15911)">
<rect width="72" height="72" transform="translate(316 107)" fill="white"/>
<path d="M336.433 116.937C332.935 116.937 329.986 119.337 329.137 122.586H343.729C342.88 119.332 339.982 116.937 336.433 116.937Z" fill="#4563FF"/>
<path d="M337.684 124.482C337.684 125.332 338.385 126.033 339.234 126.033C340.083 126.033 340.785 125.332 340.785 124.482C340.785 123.633 340.083 122.932 339.234 122.932C338.385 122.881 337.684 123.633 337.684 124.482Z" fill="#4563FF"/>
<path d="M376.316 139.324H347.777V132.628C347.777 131.229 346.678 130.131 345.28 130.131H341.431C342.53 129.13 343.379 127.833 343.73 126.384H329.137C329.539 127.884 330.337 129.18 331.435 130.131H327.637C326.239 130.131 325.141 131.229 325.141 132.628V154.419C325.141 155.818 326.239 156.916 327.637 156.916H331.385V145.97C331.385 143.773 333.184 141.973 335.381 141.973H372.167C374.363 141.973 376.163 143.773 376.163 145.97V164.36H376.362C377.76 164.36 378.858 163.262 378.858 161.863V141.825C378.817 140.422 377.714 139.324 376.316 139.324Z" fill="#4563FF"/>
<path d="M332.033 124.482C332.033 125.332 332.735 126.033 333.584 126.033C334.433 126.033 335.134 125.332 335.134 124.482C335.134 123.633 334.433 122.932 333.584 122.932C332.735 122.881 332.033 123.633 332.033 124.482Z" fill="#4563FF"/>
<path d="M372.168 169.063H335.383C333.735 169.063 332.383 167.715 332.383 166.063V145.97C332.383 144.322 333.73 142.97 335.383 142.97H372.168C373.816 142.97 375.168 144.317 375.168 145.97V166.058C375.168 167.711 373.82 169.063 372.168 169.063ZM335.387 143.971C334.289 143.971 333.389 144.871 333.389 145.97V166.058C333.389 167.157 334.289 168.057 335.387 168.057H372.173C373.271 168.057 374.171 167.157 374.171 166.058V145.97C374.171 144.871 373.271 143.971 372.173 143.971H335.387Z" fill="#4563FF"/>
<path d="M358.974 148.669C360.173 148.669 361.124 149.62 361.124 150.82C361.124 152.02 360.173 152.97 358.974 152.97C357.774 152.97 356.823 152.02 356.823 150.82C356.874 149.62 357.824 148.669 358.974 148.669ZM358.974 147.672C357.224 147.672 355.826 149.071 355.826 150.82C355.826 152.569 357.224 153.967 358.974 153.967C360.723 153.967 362.121 152.569 362.121 150.82C362.121 149.071 360.723 147.672 358.974 147.672Z" fill="#4563FF"/>
<path d="M367.372 153.967C369.112 153.967 370.519 152.56 370.519 150.82C370.519 149.08 369.112 147.672 367.372 147.672C365.632 147.672 364.225 149.08 364.225 150.82C364.225 152.56 365.632 153.967 367.372 153.967Z" fill="#FF0029"/>
</g>
<g filter="url(#filter1_d_20246_15911)">
<rect x="60" y="82" width="360" height="252" rx="10" fill="white" shape-rendering="crispEdges"/>
<path d="M93.914 125.292H106.872V141H104.232V127.69H96.554V141H93.914V125.292ZM111.332 131.166C112.358 130.066 113.737 129.516 115.468 129.516C117.198 129.516 118.57 130.066 119.582 131.166C120.608 132.251 121.122 133.659 121.122 135.39C121.122 137.135 120.608 138.558 119.582 139.658C118.57 140.743 117.198 141.286 115.468 141.286C113.737 141.286 112.358 140.743 111.332 139.658C110.32 138.558 109.814 137.135 109.814 135.39C109.814 133.659 110.32 132.251 111.332 131.166ZM113.114 138.096C113.656 138.815 114.441 139.174 115.468 139.174C116.494 139.174 117.279 138.815 117.822 138.096C118.364 137.363 118.636 136.461 118.636 135.39C118.636 134.334 118.364 133.447 117.822 132.728C117.279 131.995 116.494 131.628 115.468 131.628C114.441 131.628 113.656 131.995 113.114 132.728C112.571 133.447 112.3 134.334 112.3 135.39C112.3 136.461 112.571 137.363 113.114 138.096ZM134.286 138.888H136.31V144.146H133.934V141H124.958V144.146H122.582V138.888H124.166C124.943 137.025 125.332 135.045 125.332 132.948V129.802H134.286V138.888ZM131.8 138.888V131.914H127.598V132.97C127.598 135.243 127.26 137.216 126.586 138.888H131.8ZM148.893 141H146.407V131.914H141.083V141H138.597V129.802H148.893V141ZM155.141 141H152.325V129.802H154.745V137.194H155.273L159.871 129.802H162.753V141H160.333V133.608H159.805L155.141 141ZM173.531 137.414H175.995C175.819 138.587 175.283 139.526 174.389 140.23C173.509 140.934 172.401 141.286 171.067 141.286C169.351 141.286 167.994 140.743 166.997 139.658C166.014 138.558 165.523 137.135 165.523 135.39C165.523 133.645 166.014 132.229 166.997 131.144C167.994 130.059 169.351 129.516 171.067 129.516C172.416 129.516 173.516 129.853 174.367 130.528C175.232 131.203 175.745 132.097 175.907 133.212H173.443C173.076 132.156 172.291 131.628 171.089 131.628C170.047 131.628 169.27 131.98 168.757 132.684C168.258 133.388 168.009 134.283 168.009 135.368C168.009 136.483 168.258 137.399 168.757 138.118C169.27 138.822 170.047 139.174 171.089 139.174C172.467 139.174 173.281 138.587 173.531 137.414ZM186.431 141L184.055 136.314H181.173V141H178.687V129.802H181.173V134.202H184.099L186.343 129.802H188.895L186.145 135.192L189.049 141H186.431ZM198.573 141V139.966H198.045C197.341 140.846 196.241 141.286 194.745 141.286C193.513 141.286 192.538 140.934 191.819 140.23C191.101 139.511 190.741 138.639 190.741 137.612C190.741 136.6 191.108 135.72 191.841 134.972C192.575 134.224 193.689 133.85 195.185 133.85H198.485V133.52C198.485 132.156 197.701 131.474 196.131 131.474C194.738 131.474 193.99 131.951 193.887 132.904H191.423C191.482 131.863 191.929 131.041 192.765 130.44C193.616 129.824 194.709 129.516 196.043 129.516C197.554 129.516 198.735 129.853 199.585 130.528C200.451 131.203 200.883 132.215 200.883 133.564V141H198.573ZM195.515 139.262C196.351 139.262 197.055 138.991 197.627 138.448C198.199 137.905 198.485 137.245 198.485 136.468V135.61H195.625C194.041 135.61 193.249 136.226 193.249 137.458C193.249 138.03 193.447 138.477 193.843 138.8C194.239 139.108 194.797 139.262 195.515 139.262ZM104.1 167H101.614V162.314H96.202V167H93.716V155.802H96.202V160.202H101.614V155.802H104.1V167ZM114.526 167V165.966H113.998C113.294 166.846 112.194 167.286 110.698 167.286C109.466 167.286 108.491 166.934 107.772 166.23C107.054 165.511 106.694 164.639 106.694 163.612C106.694 162.6 107.061 161.72 107.794 160.972C108.528 160.224 109.642 159.85 111.138 159.85H114.438V159.52C114.438 158.156 113.654 157.474 112.084 157.474C110.691 157.474 109.943 157.951 109.84 158.904H107.376C107.435 157.863 107.882 157.041 108.718 156.44C109.569 155.824 110.662 155.516 111.996 155.516C113.507 155.516 114.688 155.853 115.538 156.528C116.404 157.203 116.836 158.215 116.836 159.564V167H114.526ZM111.468 165.262C112.304 165.262 113.008 164.991 113.58 164.448C114.152 163.905 114.438 163.245 114.438 162.468V161.61H111.578C109.994 161.61 109.202 162.226 109.202 163.458C109.202 164.03 109.4 164.477 109.796 164.8C110.192 165.108 110.75 165.262 111.468 165.262ZM133.987 167L131.611 162.314H128.729V167H126.243V155.802H128.729V160.202H131.655L133.899 155.802H136.451L133.701 161.192L136.605 167H133.987ZM144.656 157.628C143.629 157.628 142.852 157.987 142.324 158.706C141.811 159.425 141.554 160.319 141.554 161.39C141.554 162.475 141.811 163.377 142.324 164.096C142.852 164.815 143.629 165.174 144.656 165.174C145.639 165.174 146.394 164.829 146.922 164.14C147.45 163.436 147.714 162.519 147.714 161.39C147.714 160.261 147.45 159.351 146.922 158.662C146.394 157.973 145.639 157.628 144.656 157.628ZM139.134 155.802H141.532V156.88H142.06C142.793 155.971 143.893 155.516 145.36 155.516C146.841 155.516 148.015 156.066 148.88 157.166C149.76 158.266 150.2 159.674 150.2 161.39C150.2 163.121 149.76 164.536 148.88 165.636C148.015 166.736 146.841 167.286 145.36 167.286C143.908 167.286 142.837 166.831 142.148 165.922H141.62V171.4H139.134V155.802ZM163.046 160.774V161.61H154.774C154.847 163.986 155.896 165.174 157.92 165.174C159.196 165.174 160.01 164.697 160.362 163.744H162.892C162.672 164.829 162.137 165.695 161.286 166.34C160.435 166.971 159.306 167.286 157.898 167.286C156.167 167.286 154.803 166.736 153.806 165.636C152.809 164.536 152.31 163.099 152.31 161.324C152.31 159.564 152.801 158.156 153.784 157.1C154.781 156.044 156.131 155.516 157.832 155.516C159.445 155.516 160.707 156.015 161.616 157.012C162.54 157.995 163.017 159.249 163.046 160.774ZM157.81 157.496C156.197 157.496 155.221 158.251 154.884 159.762H160.494C160.406 159.102 160.135 158.559 159.68 158.134C159.225 157.709 158.602 157.496 157.81 157.496ZM176.18 164.888H178.204V170.146H175.828V167H166.852V170.146H164.476V164.888H166.06C166.837 163.025 167.226 161.045 167.226 158.948V155.802H176.18V164.888ZM173.694 164.888V157.914H169.492V158.97C169.492 161.243 169.155 163.216 168.48 164.888H173.694ZM183.307 167H180.491V155.802H182.911V163.194H183.439L188.037 155.802H190.919V167H188.499V159.608H187.971L183.307 167ZM193.293 157.914V155.802H203.325V157.914H199.563V167H197.077V157.914H193.293ZM216.077 167H213.591V162.314H208.179V167H205.693V155.802H208.179V160.202H213.591V155.802H216.077V167ZM223.159 171.4H220.629L222.939 165.9L218.187 155.802H220.805L223.929 162.556H224.501L227.339 155.802H229.891L223.159 171.4ZM242.198 155.516C243.87 155.516 245.219 156.073 246.246 157.188C247.273 158.288 247.786 159.689 247.786 161.39C247.786 163.091 247.273 164.499 246.246 165.614C245.219 166.729 243.87 167.286 242.198 167.286C240.673 167.286 239.419 166.824 238.436 165.9C237.453 164.976 236.874 163.773 236.698 162.292H234.41V167H231.968V155.802H234.41V160.18H236.764C236.984 158.787 237.578 157.665 238.546 156.814C239.514 155.949 240.731 155.516 242.198 155.516ZM242.198 165.174C243.21 165.174 243.98 164.815 244.508 164.096C245.036 163.363 245.3 162.461 245.3 161.39C245.3 160.334 245.036 159.447 244.508 158.728C243.98 157.995 243.21 157.628 242.198 157.628C241.186 157.628 240.409 157.995 239.866 158.728C239.338 159.447 239.074 160.334 239.074 161.39C239.074 162.475 239.338 163.377 239.866 164.096C240.394 164.815 241.171 165.174 242.198 165.174ZM96.532 193H93.716V181.802H96.136V189.194H96.664L101.262 181.802H104.144V193H101.724V185.608H101.196L96.532 193ZM114.921 189.414H117.385C117.209 190.587 116.674 191.526 115.779 192.23C114.899 192.934 113.792 193.286 112.457 193.286C110.741 193.286 109.385 192.743 108.387 191.658C107.405 190.558 106.913 189.135 106.913 187.39C106.913 185.645 107.405 184.229 108.387 183.144C109.385 182.059 110.741 181.516 112.457 181.516C113.807 181.516 114.907 181.853 115.757 182.528C116.623 183.203 117.136 184.097 117.297 185.212H114.833C114.467 184.156 113.682 183.628 112.479 183.628C111.438 183.628 110.661 183.98 110.147 184.684C109.649 185.388 109.399 186.283 109.399 187.368C109.399 188.483 109.649 189.399 110.147 190.118C110.661 190.822 111.438 191.174 112.479 191.174C113.858 191.174 114.672 190.587 114.921 189.414ZM119.021 183.914V181.802H129.053V183.914H125.291V193H122.805V183.914H119.021ZM132.172 183.166C133.198 182.066 134.577 181.516 136.308 181.516C138.038 181.516 139.41 182.066 140.422 183.166C141.448 184.251 141.962 185.659 141.962 187.39C141.962 189.135 141.448 190.558 140.422 191.658C139.41 192.743 138.038 193.286 136.308 193.286C134.577 193.286 133.198 192.743 132.172 191.658C131.16 190.558 130.654 189.135 130.654 187.39C130.654 185.659 131.16 184.251 132.172 183.166ZM133.954 190.096C134.496 190.815 135.281 191.174 136.308 191.174C137.334 191.174 138.119 190.815 138.662 190.096C139.204 189.363 139.476 188.461 139.476 187.39C139.476 186.334 139.204 185.447 138.662 184.728C138.119 183.995 137.334 183.628 136.308 183.628C135.281 183.628 134.496 183.995 133.954 184.728C133.411 185.447 133.14 186.334 133.14 187.39C133.14 188.461 133.411 189.363 133.954 190.096ZM150.263 183.628C149.237 183.628 148.459 183.987 147.931 184.706C147.418 185.425 147.161 186.319 147.161 187.39C147.161 188.475 147.418 189.377 147.931 190.096C148.459 190.815 149.237 191.174 150.263 191.174C151.246 191.174 152.001 190.829 152.529 190.14C153.057 189.436 153.321 188.519 153.321 187.39C153.321 186.261 153.057 185.351 152.529 184.662C152.001 183.973 151.246 183.628 150.263 183.628ZM144.741 181.802H147.139V182.88H147.667C148.401 181.971 149.501 181.516 150.967 181.516C152.449 181.516 153.622 182.066 154.487 183.166C155.367 184.266 155.807 185.674 155.807 187.39C155.807 189.121 155.367 190.536 154.487 191.636C153.622 192.736 152.449 193.286 150.967 193.286C149.515 193.286 148.445 192.831 147.755 191.922H147.227V197.4H144.741V181.802ZM161.393 193H158.577V181.802H160.997V189.194H161.525L166.123 181.802H169.005V193H166.585V185.608H166.057L161.393 193ZM182.665 181.516C184.337 181.516 185.686 182.073 186.713 183.188C187.739 184.288 188.253 185.689 188.253 187.39C188.253 189.091 187.739 190.499 186.713 191.614C185.686 192.729 184.337 193.286 182.665 193.286C181.139 193.286 179.885 192.824 178.903 191.9C177.92 190.976 177.341 189.773 177.165 188.292H174.877V193H172.435V181.802H174.877V186.18H177.231C177.451 184.787 178.045 183.665 179.013 182.814C179.981 181.949 181.198 181.516 182.665 181.516ZM182.665 191.174C183.677 191.174 184.447 190.815 184.975 190.096C185.503 189.363 185.767 188.461 185.767 187.39C185.767 186.334 185.503 185.447 184.975 184.728C184.447 183.995 183.677 183.628 182.665 183.628C181.653 183.628 180.875 183.995 180.333 184.728C179.805 185.447 179.541 186.334 179.541 187.39C179.541 188.475 179.805 189.377 180.333 190.096C180.861 190.815 181.638 191.174 182.665 191.174Z" fill="black"/>
<path d="M384.692 131.5H321.578C319.487 131.5 317.844 133.143 317.844 135.235V136.355H377.671C380.957 136.355 383.646 139.044 383.646 142.33V173.924H384.767C386.858 173.924 388.501 172.281 388.501 170.19V135.235C388.426 133.143 386.709 131.5 384.692 131.5Z" fill="#4563FF"/>
<path d="M377.595 181.693H314.481C312.017 181.693 310 179.676 310 177.211V142.256C310 139.791 312.017 137.774 314.481 137.774H377.595C380.06 137.774 382.077 139.791 382.077 142.256V177.136C382.077 179.676 380.06 181.693 377.595 181.693ZM314.481 139.268C312.838 139.268 311.494 140.613 311.494 142.256V177.136C311.494 178.78 312.838 180.124 314.481 180.124H377.595C379.238 180.124 380.583 178.78 380.583 177.136V142.256C380.583 140.613 379.238 139.268 377.595 139.268H314.481Z" fill="#4563FF"/>
<path d="M354.814 147.185C356.906 147.185 358.549 148.828 358.549 150.92C358.549 153.011 356.906 154.654 354.814 154.654C352.723 154.654 351.08 153.011 351.08 150.92C351.08 148.828 352.798 147.185 354.814 147.185ZM354.814 145.691C351.901 145.691 349.586 148.007 349.586 150.92C349.586 153.833 351.901 156.148 354.814 156.148C357.727 156.148 360.043 153.833 360.043 150.92C360.043 148.007 357.727 145.691 354.814 145.691Z" fill="#4563FF"/>
<path d="M369.006 156.148C371.893 156.148 374.234 153.807 374.234 150.92C374.234 148.032 371.893 145.691 369.006 145.691C366.118 145.691 363.777 148.032 363.777 150.92C363.777 153.807 366.118 156.148 369.006 156.148Z" fill="#FF0029"/>
<path d="M328.626 178.492C328.626 186.577 322.073 193.13 313.988 193.13C305.904 193.13 299.35 186.577 299.35 178.492C299.35 170.408 305.904 163.854 313.988 163.854C322.073 163.854 328.626 170.408 328.626 178.492Z" fill="white" stroke="#4563FF" stroke-width="1.7"/>
<path d="M321.798 173.525L311.2 184.124L305.398 178.323" stroke="#4563FF" stroke-width="1.7" stroke-linecap="round" stroke-linejoin="round"/>
<path d="M93.456 228.576H102.608V240H101.168V229.888H94.896V240H93.456V228.576ZM105.935 232.928C106.649 232.128 107.62 231.728 108.847 231.728C110.073 231.728 111.039 232.128 111.743 232.928C112.457 233.728 112.815 234.741 112.815 235.968C112.815 237.195 112.457 238.208 111.743 239.008C111.039 239.808 110.073 240.208 108.847 240.208C107.62 240.208 106.649 239.808 105.935 239.008C105.231 238.208 104.879 237.195 104.879 235.968C104.879 234.741 105.231 233.728 105.935 232.928ZM106.911 238.144C107.359 238.731 108.004 239.024 108.847 239.024C109.689 239.024 110.335 238.731 110.783 238.144C111.231 237.547 111.455 236.821 111.455 235.968C111.455 235.115 111.231 234.395 110.783 233.808C110.335 233.211 109.689 232.912 108.847 232.912C108.004 232.912 107.359 233.211 106.911 233.808C106.463 234.395 106.239 235.115 106.239 235.968C106.239 236.821 106.463 237.547 106.911 238.144ZM114.025 240V238.72H114.297C114.862 238.72 115.268 238.459 115.513 237.936C115.758 237.403 115.881 236.443 115.881 235.056V231.936H122.057V240H120.681V233.12H117.145V235.088C117.145 236.912 116.921 238.187 116.473 238.912C116.036 239.637 115.31 240 114.297 240H114.025ZM126.847 243.2H125.471L127.135 239.248L123.695 231.936H125.151L127.615 237.248H128.015L130.255 231.936H131.679L126.847 243.2ZM132.817 231.936H134.177V234.208C134.177 234.464 134.193 234.667 134.225 234.816C134.257 234.955 134.331 235.115 134.449 235.296C134.566 235.477 134.769 235.611 135.057 235.696C135.355 235.781 135.739 235.824 136.209 235.824C136.913 235.824 137.585 235.755 138.225 235.616V231.936H139.601V240H138.225V236.816C137.51 236.965 136.742 237.04 135.921 237.04C135.355 237.04 134.87 236.987 134.465 236.88C134.07 236.763 133.766 236.629 133.553 236.48C133.35 236.32 133.19 236.107 133.073 235.84C132.955 235.573 132.881 235.333 132.849 235.12C132.827 234.907 132.817 234.64 132.817 234.32V231.936ZM149.085 235.488V235.952H142.941C142.963 236.923 143.192 237.68 143.629 238.224C144.067 238.757 144.696 239.024 145.517 239.024C146.627 239.024 147.309 238.608 147.565 237.776H148.941C148.803 238.501 148.435 239.088 147.837 239.536C147.251 239.984 146.477 240.208 145.517 240.208C144.291 240.208 143.331 239.808 142.637 239.008C141.944 238.208 141.597 237.168 141.597 235.888C141.597 234.629 141.944 233.621 142.637 232.864C143.331 232.107 144.28 231.728 145.485 231.728C146.627 231.728 147.507 232.091 148.125 232.816C148.744 233.531 149.064 234.421 149.085 235.488ZM145.453 232.912C144.76 232.912 144.205 233.093 143.789 233.456C143.373 233.808 143.117 234.261 143.021 234.816H147.677C147.635 234.272 147.416 233.819 147.021 233.456C146.627 233.093 146.104 232.912 145.453 232.912ZM158.387 240H157.027V236.448H152.563V240H151.203V231.936H152.563V235.264H157.027V231.936H158.387V240ZM162.935 240H161.015V231.936H162.343V238.176H162.695L166.231 231.936H168.215V240H166.887V233.76H166.535L162.935 240ZM177.835 235.488V235.952H171.691C171.713 236.923 171.942 237.68 172.379 238.224C172.817 238.757 173.446 239.024 174.267 239.024C175.377 239.024 176.059 238.608 176.315 237.776H177.691C177.553 238.501 177.185 239.088 176.587 239.536C176.001 239.984 175.227 240.208 174.267 240.208C173.041 240.208 172.081 239.808 171.387 239.008C170.694 238.208 170.347 237.168 170.347 235.888C170.347 234.629 170.694 233.621 171.387 232.864C172.081 232.107 173.03 231.728 174.235 231.728C175.377 231.728 176.257 232.091 176.875 232.816C177.494 233.531 177.814 234.421 177.835 235.488ZM174.203 232.912C173.51 232.912 172.955 233.093 172.539 233.456C172.123 233.808 171.867 234.261 171.771 234.816H176.427C176.385 234.272 176.166 233.819 175.771 233.456C175.377 233.093 174.854 232.912 174.203 232.912ZM189.974 240L188.182 236.448H185.766V240H184.406V231.936H185.766V235.264H188.214L189.894 231.936H191.318L189.35 235.824L191.43 240H189.974ZM197.231 232.912C196.388 232.912 195.754 233.205 195.327 233.792C194.911 234.379 194.703 235.104 194.703 235.968C194.703 236.832 194.911 237.557 195.327 238.144C195.754 238.731 196.388 239.024 197.231 239.024C198.02 239.024 198.628 238.747 199.055 238.192C199.492 237.627 199.711 236.885 199.711 235.968C199.711 235.051 199.492 234.315 199.055 233.76C198.628 233.195 198.02 232.912 197.231 232.912ZM193.359 231.936H194.671V232.8H195.023C195.599 232.085 196.436 231.728 197.535 231.728C198.623 231.728 199.482 232.128 200.111 232.928C200.751 233.728 201.071 234.741 201.071 235.968C201.071 237.216 200.751 238.235 200.111 239.024C199.482 239.813 198.623 240.208 197.535 240.208C196.426 240.208 195.604 239.851 195.071 239.136H194.719V243.2H193.359V231.936ZM210.195 235.488V235.952H204.051C204.072 236.923 204.301 237.68 204.739 238.224C205.176 238.757 205.805 239.024 206.627 239.024C207.736 239.024 208.419 238.608 208.675 237.776H210.051C209.912 238.501 209.544 239.088 208.947 239.536C208.36 239.984 207.587 240.208 206.627 240.208C205.4 240.208 204.44 239.808 203.747 239.008C203.053 238.208 202.707 237.168 202.707 235.888C202.707 234.629 203.053 233.621 203.747 232.864C204.44 232.107 205.389 231.728 206.595 231.728C207.736 231.728 208.616 232.091 209.235 232.816C209.853 233.531 210.173 234.421 210.195 235.488ZM206.563 232.912C205.869 232.912 205.315 233.093 204.899 233.456C204.483 233.808 204.227 234.261 204.131 234.816H208.787C208.744 234.272 208.525 233.819 208.131 233.456C207.736 233.093 207.213 232.912 206.563 232.912ZM219.496 238.816H220.984V242.288H219.656V240H212.68V242.288H211.352V238.816H212.424C213.085 237.408 213.416 235.851 213.416 234.144V231.936H219.496V238.816ZM218.136 238.816V233.12H214.68V234.144C214.68 235.968 214.387 237.525 213.8 238.816H218.136ZM224.67 240H222.75V231.936H224.078V238.176H224.43L227.966 231.936H229.95V240H228.622V233.76H228.27L224.67 240ZM231.746 233.12V231.936H238.69V233.12H235.906V240H234.546V233.12H231.746ZM247.668 240H246.308V236.448H241.844V240H240.484V231.936H241.844V235.264H246.308V231.936H247.668V240ZM250.856 232.928C251.571 232.128 252.542 231.728 253.768 231.728C254.995 231.728 255.96 232.128 256.664 232.928C257.379 233.728 257.736 234.741 257.736 235.968C257.736 237.195 257.379 238.208 256.664 239.008C255.96 239.808 254.995 240.208 253.768 240.208C252.542 240.208 251.571 239.808 250.856 239.008C250.152 238.208 249.8 237.195 249.8 235.968C249.8 234.741 250.152 233.728 250.856 232.928ZM251.832 238.144C252.28 238.731 252.926 239.024 253.768 239.024C254.611 239.024 255.256 238.731 255.704 238.144C256.152 237.547 256.376 236.821 256.376 235.968C256.376 235.115 256.152 234.395 255.704 233.808C255.256 233.211 254.611 232.912 253.768 232.912C252.926 232.912 252.28 233.211 251.832 233.808C251.384 234.395 251.16 235.115 251.16 235.968C251.16 236.821 251.384 237.547 251.832 238.144ZM261.779 240H259.859V231.936H261.187V238.176H261.539L265.075 231.936H267.059V240H265.731V233.76H265.379L261.779 240ZM264.819 228.416H265.923C265.902 229.163 265.672 229.739 265.235 230.144C264.798 230.549 264.195 230.752 263.427 230.752C262.67 230.752 262.072 230.549 261.635 230.144C261.198 229.739 260.968 229.163 260.947 228.416H262.051C262.072 229.323 262.531 229.776 263.427 229.776C264.302 229.776 264.766 229.323 264.819 228.416ZM276.06 240H274.14V231.936H275.468V238.176H275.82L279.356 231.936H281.34V240H280.012V233.76H279.66L276.06 240ZM289.424 237.568H290.784C290.624 238.379 290.246 239.024 289.648 239.504C289.062 239.973 288.31 240.208 287.392 240.208C286.176 240.208 285.216 239.813 284.512 239.024C283.819 238.224 283.472 237.205 283.472 235.968C283.472 234.72 283.819 233.701 284.512 232.912C285.206 232.123 286.166 231.728 287.392 231.728C288.32 231.728 289.072 231.963 289.648 232.432C290.235 232.891 290.598 233.504 290.736 234.272H289.376C289.088 233.365 288.427 232.912 287.392 232.912C286.528 232.912 285.883 233.2 285.456 233.776C285.04 234.341 284.832 235.061 284.832 235.936C284.832 236.821 285.046 237.557 285.472 238.144C285.899 238.731 286.539 239.024 287.392 239.024C288.523 239.024 289.2 238.539 289.424 237.568ZM291.98 233.12V231.936H298.924V233.12H296.14V240H294.78V233.12H291.98ZM301.153 232.928C301.868 232.128 302.839 231.728 304.065 231.728C305.292 231.728 306.257 232.128 306.961 232.928C307.676 233.728 308.033 234.741 308.033 235.968C308.033 237.195 307.676 238.208 306.961 239.008C306.257 239.808 305.292 240.208 304.065 240.208C302.839 240.208 301.868 239.808 301.153 239.008C300.449 238.208 300.097 237.195 300.097 235.968C300.097 234.741 300.449 233.728 301.153 232.928ZM302.129 238.144C302.577 238.731 303.223 239.024 304.065 239.024C304.908 239.024 305.553 238.731 306.001 238.144C306.449 237.547 306.673 236.821 306.673 235.968C306.673 235.115 306.449 234.395 306.001 233.808C305.553 233.211 304.908 232.912 304.065 232.912C303.223 232.912 302.577 233.211 302.129 233.808C301.681 234.395 301.457 235.115 301.457 235.968C301.457 236.821 301.681 237.547 302.129 238.144ZM314.028 232.912C313.185 232.912 312.55 233.205 312.124 233.792C311.708 234.379 311.5 235.104 311.5 235.968C311.5 236.832 311.708 237.557 312.124 238.144C312.55 238.731 313.185 239.024 314.028 239.024C314.817 239.024 315.425 238.747 315.852 238.192C316.289 237.627 316.508 236.885 316.508 235.968C316.508 235.051 316.289 234.315 315.852 233.76C315.425 233.195 314.817 232.912 314.028 232.912ZM310.156 231.936H311.468V232.8H311.82C312.396 232.085 313.233 231.728 314.332 231.728C315.42 231.728 316.278 232.128 316.908 232.928C317.548 233.728 317.868 234.741 317.868 235.968C317.868 237.216 317.548 238.235 316.908 239.024C316.278 239.813 315.42 240.208 314.332 240.208C313.222 240.208 312.401 239.851 311.868 239.136H311.516V243.2H310.156V231.936ZM321.92 240H320V231.936H321.328V238.176H321.68L325.216 231.936H327.2V240H325.872V233.76H325.52L321.92 240ZM331.748 240H329.828V231.936H331.156V238.176H331.508L335.044 231.936H337.028V240H335.7V233.76H335.348L331.748 240ZM100.496 260H99.136V256.448H94.672V260H93.312V251.936H94.672V255.264H99.136V251.936H100.496V260ZM108.261 260V259.152H107.909C107.354 259.856 106.517 260.208 105.397 260.208C104.511 260.208 103.807 259.952 103.285 259.44C102.762 258.928 102.501 258.309 102.501 257.584C102.501 256.848 102.757 256.219 103.269 255.696C103.781 255.173 104.554 254.912 105.589 254.912H108.213V254.592C108.213 254.08 108.053 253.675 107.733 253.376C107.413 253.067 106.917 252.912 106.245 252.912C105.071 252.912 104.447 253.301 104.373 254.08H103.013C103.066 253.344 103.381 252.768 103.957 252.352C104.543 251.936 105.295 251.728 106.213 251.728C107.247 251.728 108.058 251.968 108.645 252.448C109.242 252.928 109.541 253.616 109.541 254.512V260H108.261ZM105.733 259.024C106.405 259.024 106.986 258.805 107.477 258.368C107.967 257.92 108.213 257.376 108.213 256.736V256H105.797C104.506 256 103.861 256.512 103.861 257.536C103.861 257.995 104.021 258.357 104.341 258.624C104.671 258.891 105.135 259.024 105.733 259.024ZM123.476 255.488V255.952H117.332C117.353 256.923 117.583 257.68 118.02 258.224C118.457 258.757 119.087 259.024 119.908 259.024C121.017 259.024 121.7 258.608 121.956 257.776H123.332C123.193 258.501 122.825 259.088 122.228 259.536C121.641 259.984 120.868 260.208 119.908 260.208C118.681 260.208 117.721 259.808 117.028 259.008C116.335 258.208 115.988 257.168 115.988 255.888C115.988 254.629 116.335 253.621 117.028 252.864C117.721 252.107 118.671 251.728 119.876 251.728C121.017 251.728 121.897 252.091 122.516 252.816C123.135 253.531 123.455 254.421 123.476 255.488ZM119.844 252.912C119.151 252.912 118.596 253.093 118.18 253.456C117.764 253.808 117.508 254.261 117.412 254.816H122.068C122.025 254.272 121.807 253.819 121.412 253.456C121.017 253.093 120.495 252.912 119.844 252.912ZM134.057 251.728C134.953 251.728 135.62 252 136.057 252.544C136.495 253.077 136.713 253.824 136.713 254.784V260H135.353V254.928C135.353 253.605 134.836 252.944 133.801 252.944C133.183 252.944 132.697 253.163 132.345 253.6C132.004 254.027 131.833 254.587 131.833 255.28V260H130.473V254.96C130.473 253.616 129.961 252.944 128.937 252.944C128.287 252.944 127.791 253.184 127.449 253.664C127.119 254.144 126.953 254.768 126.953 255.536V260H125.593V251.936H126.905V252.72H127.257C127.684 252.059 128.367 251.728 129.305 251.728C130.297 251.728 131.007 252.085 131.433 252.8H131.785C132.276 252.085 133.033 251.728 134.057 251.728ZM144.339 260V259.152H143.987C143.432 259.856 142.595 260.208 141.475 260.208C140.589 260.208 139.885 259.952 139.363 259.44C138.84 258.928 138.579 258.309 138.579 257.584C138.579 256.848 138.835 256.219 139.347 255.696C139.859 255.173 140.632 254.912 141.667 254.912H144.291V254.592C144.291 254.08 144.131 253.675 143.811 253.376C143.491 253.067 142.995 252.912 142.323 252.912C141.149 252.912 140.525 253.301 140.451 254.08H139.091C139.144 253.344 139.459 252.768 140.035 252.352C140.621 251.936 141.373 251.728 142.291 251.728C143.325 251.728 144.136 251.968 144.723 252.448C145.32 252.928 145.619 253.616 145.619 254.512V260H144.339ZM141.811 259.024C142.483 259.024 143.064 258.805 143.555 258.368C144.045 257.92 144.291 257.376 144.291 256.736V256H141.875C140.584 256 139.939 256.512 139.939 257.536C139.939 257.995 140.099 258.357 140.419 258.624C140.749 258.891 141.213 259.024 141.811 259.024ZM149.549 249.84H148.109V248.368H149.549V249.84ZM149.501 251.936V260H148.141V251.936H149.501ZM152.171 248.368H153.531V260H152.171V248.368ZM166.289 255.552V255.904C166.684 256 166.998 256.213 167.233 256.544C167.478 256.875 167.601 257.291 167.601 257.792C167.601 259.264 166.652 260 164.753 260H160.609V251.936H164.609C165.42 251.936 166.044 252.117 166.481 252.48C166.929 252.832 167.153 253.328 167.153 253.968C167.153 254.341 167.068 254.667 166.897 254.944C166.737 255.221 166.534 255.424 166.289 255.552ZM161.953 258.848H164.673C165.718 258.848 166.241 258.448 166.241 257.648C166.241 256.837 165.718 256.432 164.673 256.432H161.953V258.848ZM161.953 253.088V255.28H164.481C164.94 255.28 165.27 255.179 165.473 254.976C165.686 254.773 165.793 254.512 165.793 254.192C165.793 253.456 165.356 253.088 164.481 253.088H161.953ZM172.699 253.12V251.936H179.643V253.12H176.859V260H175.499V253.12H172.699ZM188.304 255.488V255.952H182.16C182.181 256.923 182.411 257.68 182.848 258.224C183.285 258.757 183.915 259.024 184.736 259.024C185.845 259.024 186.528 258.608 186.784 257.776H188.16C188.021 258.501 187.653 259.088 187.056 259.536C186.469 259.984 185.696 260.208 184.736 260.208C183.509 260.208 182.549 259.808 181.856 259.008C181.163 258.208 180.816 257.168 180.816 255.888C180.816 254.629 181.163 253.621 181.856 252.864C182.549 252.107 183.499 251.728 184.704 251.728C185.845 251.728 186.725 252.091 187.344 252.816C187.963 253.531 188.283 254.421 188.304 255.488ZM184.672 252.912C183.979 252.912 183.424 253.093 183.008 253.456C182.592 253.808 182.336 254.261 182.24 254.816H186.896C186.853 254.272 186.635 253.819 186.24 253.456C185.845 253.093 185.323 252.912 184.672 252.912ZM189.957 251.936H191.317V254.208C191.317 254.464 191.333 254.667 191.365 254.816C191.397 254.955 191.472 255.115 191.589 255.296C191.707 255.477 191.909 255.611 192.197 255.696C192.496 255.781 192.88 255.824 193.349 255.824C194.053 255.824 194.725 255.755 195.365 255.616V251.936H196.741V260H195.365V256.816C194.651 256.965 193.883 257.04 193.061 257.04C192.496 257.04 192.011 256.987 191.605 256.88C191.211 256.763 190.907 256.629 190.693 256.48C190.491 256.32 190.331 256.107 190.213 255.84C190.096 255.573 190.021 255.333 189.989 255.12C189.968 254.907 189.957 254.64 189.957 254.32V251.936ZM206.226 255.488V255.952H200.082C200.103 256.923 200.333 257.68 200.77 258.224C201.207 258.757 201.837 259.024 202.658 259.024C203.767 259.024 204.45 258.608 204.706 257.776H206.082C205.943 258.501 205.575 259.088 204.978 259.536C204.391 259.984 203.618 260.208 202.658 260.208C201.431 260.208 200.471 259.808 199.778 259.008C199.085 258.208 198.738 257.168 198.738 255.888C198.738 254.629 199.085 253.621 199.778 252.864C200.471 252.107 201.421 251.728 202.626 251.728C203.767 251.728 204.647 252.091 205.266 252.816C205.885 253.531 206.205 254.421 206.226 255.488ZM202.594 252.912C201.901 252.912 201.346 253.093 200.93 253.456C200.514 253.808 200.258 254.261 200.162 254.816H204.818C204.775 254.272 204.557 253.819 204.162 253.456C203.767 253.093 203.245 252.912 202.594 252.912ZM215.527 260H214.167V256.448H209.703V260H208.343V251.936H209.703V255.264H214.167V251.936H215.527V260ZM220.076 260H218.156V251.936H219.484V258.176H219.836L223.372 251.936H225.356V260H224.028V253.76H223.676L220.076 260ZM234.976 255.488V255.952H228.832C228.853 256.923 229.083 257.68 229.52 258.224C229.957 258.757 230.587 259.024 231.408 259.024C232.517 259.024 233.2 258.608 233.456 257.776H234.832C234.693 258.501 234.325 259.088 233.728 259.536C233.141 259.984 232.368 260.208 231.408 260.208C230.181 260.208 229.221 259.808 228.528 259.008C227.835 258.208 227.488 257.168 227.488 255.888C227.488 254.629 227.835 253.621 228.528 252.864C229.221 252.107 230.171 251.728 231.376 251.728C232.517 251.728 233.397 252.091 234.016 252.816C234.635 253.531 234.955 254.421 234.976 255.488ZM231.344 252.912C230.651 252.912 230.096 253.093 229.68 253.456C229.264 253.808 229.008 254.261 228.912 254.816H233.568C233.525 254.272 233.307 253.819 232.912 253.456C232.517 253.093 231.995 252.912 231.344 252.912ZM248.666 260H247.306V253.12H242.906V260H241.546V251.936H248.666V260ZM251.856 252.928C252.571 252.128 253.542 251.728 254.768 251.728C255.995 251.728 256.96 252.128 257.664 252.928C258.379 253.728 258.736 254.741 258.736 255.968C258.736 257.195 258.379 258.208 257.664 259.008C256.96 259.808 255.995 260.208 254.768 260.208C253.542 260.208 252.571 259.808 251.856 259.008C251.152 258.208 250.8 257.195 250.8 255.968C250.8 254.741 251.152 253.728 251.856 252.928ZM252.832 258.144C253.28 258.731 253.926 259.024 254.768 259.024C255.611 259.024 256.256 258.731 256.704 258.144C257.152 257.547 257.376 256.821 257.376 255.968C257.376 255.115 257.152 254.395 256.704 253.808C256.256 253.211 255.611 252.912 254.768 252.912C253.926 252.912 253.28 253.211 252.832 253.808C252.384 254.395 252.16 255.115 252.16 255.968C252.16 256.821 252.384 257.547 252.832 258.144ZM259.947 260V258.72H260.219C260.784 258.72 261.19 258.459 261.435 257.936C261.68 257.403 261.803 256.443 261.803 255.056V251.936H267.979V260H266.603V253.12H263.067V255.088C263.067 256.912 262.843 258.187 262.395 258.912C261.958 259.637 261.232 260 260.219 260H259.947ZM272.769 263.2H271.393L273.057 259.248L269.617 251.936H271.073L273.537 257.248H273.937L276.177 251.936H277.601L272.769 263.2ZM279.203 260V251.936H285.251V253.12H280.563V260H279.203ZM287.216 252.928C287.93 252.128 288.901 251.728 290.128 251.728C291.354 251.728 292.32 252.128 293.024 252.928C293.738 253.728 294.096 254.741 294.096 255.968C294.096 257.195 293.738 258.208 293.024 259.008C292.32 259.808 291.354 260.208 290.128 260.208C288.901 260.208 287.93 259.808 287.216 259.008C286.512 258.208 286.16 257.195 286.16 255.968C286.16 254.741 286.512 253.728 287.216 252.928ZM288.192 258.144C288.64 258.731 289.285 259.024 290.128 259.024C290.97 259.024 291.616 258.731 292.064 258.144C292.512 257.547 292.736 256.821 292.736 255.968C292.736 255.115 292.512 254.395 292.064 253.808C291.616 253.211 290.97 252.912 290.128 252.912C289.285 252.912 288.64 253.211 288.192 253.808C287.744 254.395 287.52 255.115 287.52 255.968C287.52 256.821 287.744 257.547 288.192 258.144ZM303.402 258.816H304.89V262.288H303.562V260H296.586V262.288H295.258V258.816H296.33C296.992 257.408 297.322 255.851 297.322 254.144V251.936H303.402V258.816ZM302.042 258.816V253.12H298.586V254.144C298.586 255.968 298.293 257.525 297.706 258.816H302.042ZM311.792 260V259.152H311.44C310.885 259.856 310.048 260.208 308.928 260.208C308.042 260.208 307.338 259.952 306.816 259.44C306.293 258.928 306.032 258.309 306.032 257.584C306.032 256.848 306.288 256.219 306.8 255.696C307.312 255.173 308.085 254.912 309.12 254.912H311.744V254.592C311.744 254.08 311.584 253.675 311.264 253.376C310.944 253.067 310.448 252.912 309.776 252.912C308.602 252.912 307.978 253.301 307.904 254.08H306.544C306.597 253.344 306.912 252.768 307.488 252.352C308.074 251.936 308.826 251.728 309.744 251.728C310.778 251.728 311.589 251.968 312.176 252.448C312.773 252.928 313.072 253.616 313.072 254.512V260H311.792ZM309.264 259.024C309.936 259.024 310.517 258.805 311.008 258.368C311.498 257.92 311.744 257.376 311.744 256.736V256H309.328C308.037 256 307.392 256.512 307.392 257.536C307.392 257.995 307.552 258.357 307.872 258.624C308.202 258.891 308.666 259.024 309.264 259.024Z" fill="#7B7794"/>
</g>
<rect x="64.5" y="82.5" width="351" height="251" rx="4.5" stroke="#ECEEF6"/>
<path fill-rule="evenodd" clip-rule="evenodd" d="M320.254 339.969V289L357.143 325.978H335.562L334.254 326.373L320.254 339.969Z" fill="white"/>
<path fill-rule="evenodd" clip-rule="evenodd" d="M349.165 342.115L337.692 347L322.791 311.709L334.522 306.766L349.165 342.115Z" fill="white"/>
<path fill-rule="evenodd" clip-rule="evenodd" d="M344.922 339.948L339.053 342.412L329.188 318.943L335.047 316.477L344.922 339.948Z" fill="black"/>
<path fill-rule="evenodd" clip-rule="evenodd" d="M323.436 296.66V332.267L332.885 323.146L334.247 322.703H349.421L323.436 296.66Z" fill="black"/>
<defs>
<filter id="filter0_f_20246_15911" x="0" y="-31" width="480" height="480" filterUnits="userSpaceOnUse" color-interpolation-filters="sRGB">
<feFlood flood-opacity="0" result="BackgroundImageFix"/>
<feBlend mode="normal" in="SourceGraphic" in2="BackgroundImageFix" result="shape"/>
<feGaussianBlur stdDeviation="32" result="effect1_foregroundBlur_20246_15911"/>
</filter>
<filter id="filter1_d_20246_15911" x="56" y="82" width="368" height="260" filterUnits="userSpaceOnUse" color-interpolation-filters="sRGB">
<feFlood flood-opacity="0" result="BackgroundImageFix"/>
<feColorMatrix in="SourceAlpha" type="matrix" values="0 0 0 0 0 0 0 0 0 0 0 0 0 0 0 0 0 0 127 0" result="hardAlpha"/>
<feOffset dy="4"/>
<feGaussianBlur stdDeviation="2"/>
<feComposite in2="hardAlpha" operator="out"/>
<feColorMatrix type="matrix" values="0 0 0 0 0.451454 0 0 0 0 0.390833 0 0 0 0 0.7 0 0 0 0.1 0"/>
<feBlend mode="normal" in2="BackgroundImageFix" result="effect1_dropShadow_20246_15911"/>
<feBlend mode="normal" in="SourceGraphic" in2="effect1_dropShadow_20246_15911" result="shape"/>
</filter>
<clipPath id="clip0_20246_15911">
<rect width="72" height="72" fill="white" transform="translate(316 107)"/>
</clipPath>
</defs>
</svg>
