<svg width="147" height="97" viewBox="0 0 147 97" fill="none" xmlns="http://www.w3.org/2000/svg">
<path d="M140.895 0.747009H45.33C42.1634 0.747009 39.6753 3.22195 39.6753 6.37189V8.05935H130.264C135.24 8.05935 139.312 12.1093 139.312 17.0591V64.6456H141.008C144.175 64.6456 146.663 62.1707 146.663 59.0207V6.37189C146.55 3.22195 143.948 0.747009 140.895 0.747009Z" fill="white"/>
<path d="M130.151 76.3452H34.586C30.8538 76.3452 27.8003 73.3078 27.8003 69.5953V16.9465C27.8003 13.2341 30.8538 10.1967 34.586 10.1967H130.151C133.883 10.1967 136.937 13.2341 136.937 16.9465V69.4828C136.937 73.3078 133.883 76.3452 130.151 76.3452ZM34.586 12.4466C32.0979 12.4466 30.0622 14.4716 30.0622 16.9465V69.4828C30.0622 71.9578 32.0979 73.9827 34.586 73.9827H130.151C132.639 73.9827 134.675 71.9578 134.675 69.4828V16.9465C134.675 14.4716 132.639 12.4466 130.151 12.4466H34.586Z" fill="white"/>
<path d="M95.6573 24.3715C98.824 24.3715 101.312 26.8464 101.312 29.9963C101.312 33.1463 98.824 35.6212 95.6573 35.6212C92.4907 35.6212 90.0026 33.1463 90.0026 29.9963C90.0026 26.8464 92.6038 24.3715 95.6573 24.3715ZM95.6573 22.1215C91.2467 22.1215 87.7407 25.6089 87.7407 29.9963C87.7407 34.3837 91.2467 37.8712 95.6573 37.8712C100.068 37.8712 103.574 34.3837 103.574 29.9963C103.574 25.6089 100.068 22.1215 95.6573 22.1215Z" fill="white"/>
<path d="M117.146 37.8711C121.518 37.8711 125.062 34.3455 125.062 29.9963C125.062 25.6472 121.518 22.1215 117.146 22.1215C112.773 22.1215 109.229 25.6472 109.229 29.9963C109.229 34.3455 112.773 37.8711 117.146 37.8711Z" fill="#FF0029"/>
<path d="M33.4554 96.2573C27.1221 96.2573 21.1281 93.7823 16.7174 89.2824C16.2651 88.8325 16.2651 88.1575 16.7174 87.7075C17.1698 87.2575 17.8483 87.2575 18.3007 87.7075C22.3721 91.7574 27.8007 94.0073 33.4554 94.0073C45.3304 94.0073 54.9434 84.4451 54.9434 72.6328C54.9434 60.8206 45.3304 51.2583 33.4554 51.2583C21.5805 51.2583 11.9675 60.8206 11.9675 72.6328V76.0077C11.9675 76.6827 11.5151 77.1327 10.8365 77.1327C10.1579 77.1327 9.70557 76.6827 9.70557 76.0077V72.6328C9.70557 59.5831 20.3365 49.0083 33.4554 49.0083C46.5744 49.0083 57.2053 59.5831 57.2053 72.6328C57.2053 85.6825 46.4613 96.2573 33.4554 96.2573Z" fill="white"/>
<path d="M10.8362 78.7076L0.996999 68.9203C0.54462 68.4703 0.54462 67.7954 0.996999 67.3454C1.44938 66.8954 2.12794 66.8954 2.58032 67.3454L10.8362 75.5577L19.0921 67.3454C19.5445 66.8954 20.2231 66.8954 20.6755 67.3454C21.1279 67.7954 21.1279 68.4703 20.6755 68.9203L10.8362 78.7076Z" fill="white"/>
</svg>
