<svg width="23" height="22" viewBox="0 0 23 22" fill="none" xmlns="http://www.w3.org/2000/svg">
<path d="M4.13825 16.8234C4.96784 16.8234 5.64318 17.4724 5.64318 18.2718C5.64318 19.0711 4.96784 19.7201 4.13825 19.7201C3.30866 19.7201 2.63332 19.0711 2.63332 18.2718C2.63332 17.4743 3.30866 16.8234 4.13825 16.8234ZM4.13825 16.0901C2.89104 16.0901 1.88086 17.0673 1.88086 18.2718C1.88086 19.4763 2.89104 20.4534 4.13825 20.4534C5.38546 20.4534 6.39565 19.4763 6.39565 18.2718C6.39565 17.0673 5.38546 16.0901 4.13825 16.0901Z" fill="#4563FF"/>
<path d="M7.71289 22H15.2375V0H7.71289V22ZM11.4752 20.5333C10.228 20.5333 9.21782 19.5488 9.21782 18.3333C9.21782 17.1178 10.228 16.1333 11.4752 16.1333C12.7224 16.1333 13.7326 17.1178 13.7326 18.3333C13.7326 19.5488 12.7224 20.5333 11.4752 20.5333Z" fill="#4563FF"/>
<path d="M20.8798 0H15.2363V22H20.8798C21.9182 22 22.761 21.1787 22.761 20.1667V1.83333C22.761 0.821333 21.9182 0 20.8798 0ZM18.9986 20.5333C17.7514 20.5333 16.7413 19.5488 16.7413 18.3333C16.7413 17.1178 17.7514 16.1333 18.9986 16.1333C20.2459 16.1333 21.256 17.1178 21.256 18.3333C21.256 19.5488 20.2459 20.5333 18.9986 20.5333Z" fill="#FF0029"/>
<path d="M8.08899 0.733333V21.2667H1.88116C1.2585 21.2667 0.752464 20.7735 0.752464 20.1667V1.83333C0.752464 1.2265 1.2585 0.733333 1.88116 0.733333H8.08899ZM8.84145 0H1.88116C0.84276 0 0 0.821333 0 1.83333V20.1667C0 21.1787 0.84276 22 1.88116 22H8.84145V0Z" fill="#4563FF"/>
</svg>
