<svg width="211" height="53" viewBox="0 0 211 53" fill="none" xmlns="http://www.w3.org/2000/svg">
<path d="M46.0074 0V52.9893H36.8082V29.8366H9.43744V52.9938H0.238281V0H9.43744V21.5226H36.8082V0H46.0074Z" fill="black"/>
<path d="M82.9651 20.8556C94.9254 20.8556 101.672 26.7929 101.672 36.8871C101.672 46.9814 94.9254 52.9938 82.9651 52.9938H58.3555V0H97.147V8.08866H67.5546V20.8556H82.9651ZM81.3556 45.1216C89.5573 45.1216 92.3955 42.0027 92.3955 36.6618C92.3955 31.3916 89.4077 28.2772 81.3556 28.2772H67.5546V45.126H81.3556V45.1216Z" fill="black"/>
<path d="M110.732 0H119.932V21.6728H134.73L145.235 0H154.742L142.474 25.7547L155.431 52.9938H145.924L134.73 29.7615H119.932V52.9893H110.732V0Z" fill="black"/>
<path d="M172.513 0V41.265H174.353L196.968 0H210.003V52.9894H201.262V11.7244H199.421L176.806 52.9894H163.771V0H172.513Z" fill="black"/>
</svg>
