<svg width="352" height="381" viewBox="0 0 352 381" fill="none" xmlns="http://www.w3.org/2000/svg">
<g filter="url(#filter0_i_20014_225105)">
<circle cx="176" cy="205" r="176" fill="#ECEEF6"/>
</g>
<mask id="mask0_20014_225105" style="mask-type:alpha" maskUnits="userSpaceOnUse" x="0" y="0" width="352" height="381">
<path d="M176 381C273.202 381 352 302.202 352 205V0H0V205C0 302.202 78.7979 381 176 381Z" fill="#4563FE"/>
</mask>
<g mask="url(#mask0_20014_225105)">
<rect x="48.3087" y="-0.691327" width="256.383" height="398.383" rx="4.14796" fill="white"/>
<path d="M87.7467 32.6776H83.6223V42.0561H85.1985V38.4965H87.7467C88.2196 38.4965 88.653 38.4439 89.0602 38.3257C89.4543 38.2206 89.8089 38.0367 90.0979 37.8003C90.3869 37.5639 90.6102 37.2486 90.7809 36.8808C90.9386 36.513 91.0305 36.0796 91.0305 35.5673C91.0305 35.0682 90.9386 34.6478 90.7809 34.28C90.6102 33.9123 90.3738 33.6102 90.0848 33.3737C89.7958 33.1373 89.4412 32.9665 89.0471 32.8483C88.653 32.7432 88.2196 32.6776 87.7467 32.6776ZM85.1985 34.0699H87.5103C87.773 34.0699 88.0225 34.0962 88.259 34.1356C88.4954 34.1881 88.6924 34.2669 88.8632 34.372C89.034 34.4902 89.1653 34.6478 89.2704 34.8317C89.3755 35.0288 89.428 35.2783 89.428 35.5804C89.428 35.8825 89.3755 36.1321 89.2704 36.3291C89.1653 36.5262 89.034 36.6838 88.8632 36.802C88.6924 36.9202 88.4954 36.999 88.259 37.0384C88.0225 37.091 87.773 37.1041 87.5103 37.1041H85.1985V34.0699ZM95.2193 35.1995C94.707 35.1995 94.2473 35.2915 93.8401 35.4491C93.4198 35.6198 93.0783 35.8563 92.8024 36.1584C92.5135 36.4605 92.3033 36.8283 92.1457 37.2486C91.988 37.6821 91.9224 38.1549 91.9224 38.6672C91.9224 39.1663 91.988 39.6392 92.1325 40.0727C92.277 40.5061 92.4872 40.8871 92.7762 41.2023C93.052 41.5175 93.3935 41.7671 93.8138 41.951C94.2342 42.1349 94.707 42.2268 95.2587 42.2268C95.6002 42.2268 95.9417 42.1874 96.2701 42.1086C96.5985 42.0298 96.9006 41.9116 97.1633 41.7408C97.426 41.5701 97.6625 41.3468 97.8463 41.0841C98.0302 40.8214 98.1616 40.493 98.2404 40.1252H96.7299C96.6116 40.4536 96.4146 40.6769 96.1519 40.7951C95.8761 40.9133 95.5871 40.9659 95.2718 40.9659C94.9435 40.9659 94.6676 40.9133 94.4312 40.8082C94.1948 40.7032 93.9977 40.5587 93.8532 40.3616C93.6956 40.1778 93.5905 39.9545 93.5117 39.6918C93.4329 39.4291 93.3935 39.1532 93.3935 38.838H98.3324V38.3388C98.3324 37.8791 98.2535 37.4588 98.1091 37.0778C97.9646 36.6969 97.7544 36.3685 97.4917 36.0796C97.2159 35.8037 96.8875 35.5936 96.5066 35.4359C96.1125 35.2783 95.6922 35.1995 95.2193 35.1995ZM93.4592 37.7346C93.5643 37.288 93.7744 36.9465 94.0634 36.7232C94.3524 36.4999 94.7333 36.3817 95.2062 36.3817C95.6265 36.3817 95.9943 36.4999 96.2964 36.7232C96.5854 36.9596 96.7561 37.288 96.8087 37.7346H93.4592ZM105.189 35.3703H99.9744V42.0561H101.459V36.6313H105.189V35.3703ZM106.606 42.0561H108.274L111.125 37.6689H111.387V42.0561H112.832V35.3703H111.125L108.314 39.7574H108.051V35.3703H106.606V42.0561ZM114.486 38.7066C114.486 39.2058 114.551 39.6786 114.696 40.0989C114.84 40.5324 115.05 40.9002 115.339 41.2154C115.615 41.5307 115.957 41.7803 116.377 41.9641C116.784 42.148 117.257 42.2268 117.796 42.2268C118.15 42.2268 118.492 42.1874 118.833 42.0824C119.162 41.9904 119.464 41.8459 119.727 41.6489C119.989 41.465 120.199 41.2154 120.383 40.9265C120.554 40.6375 120.672 40.3091 120.738 39.9151H119.267C119.188 40.3091 119.017 40.5718 118.755 40.7294C118.492 40.8871 118.177 40.9659 117.809 40.9659C117.481 40.9659 117.205 40.9133 116.968 40.782C116.732 40.6638 116.548 40.493 116.403 40.2828C116.246 40.0727 116.141 39.8362 116.075 39.5604C115.996 39.2846 115.97 38.9956 115.97 38.6935C115.97 38.4045 115.996 38.1287 116.062 37.866C116.128 37.6033 116.233 37.3537 116.377 37.1435C116.522 36.9334 116.719 36.7757 116.955 36.6444C117.192 36.5262 117.467 36.4605 117.809 36.4605C118.15 36.4605 118.453 36.5393 118.689 36.6838C118.925 36.8283 119.096 37.0647 119.214 37.4062H120.685C120.633 37.0384 120.515 36.7101 120.344 36.4342C120.16 36.1584 119.95 35.922 119.687 35.7381C119.425 35.5542 119.136 35.4228 118.82 35.3309C118.492 35.2521 118.15 35.1995 117.796 35.1995C117.27 35.1995 116.811 35.2915 116.403 35.4622C115.996 35.633 115.655 35.8694 115.366 36.1847C115.077 36.4999 114.867 36.8677 114.709 37.288C114.551 37.7215 114.486 38.1943 114.486 38.7066ZM121.715 35.3703V36.6313H123.974V42.0561H125.458V36.6313H127.704V35.3703H121.715ZM129.118 44.6831H130.602V41.3993H130.865C131.088 41.7146 131.364 41.9247 131.706 42.043C132.034 42.1743 132.389 42.2268 132.757 42.2268C133.243 42.2268 133.676 42.1349 134.044 41.9379C134.412 41.754 134.714 41.4913 134.963 41.176C135.213 40.8608 135.397 40.4799 135.528 40.0595C135.659 39.6392 135.725 39.1926 135.725 38.7197C135.725 38.2732 135.659 37.8397 135.541 37.4194C135.423 36.999 135.239 36.6181 135.003 36.2897C134.753 35.9614 134.438 35.6987 134.07 35.5016C133.702 35.3046 133.256 35.1995 132.757 35.1995C132.362 35.1995 131.995 35.2652 131.679 35.3834C131.364 35.5148 131.075 35.7249 130.826 36.027H130.563V35.3703H129.118V44.6831ZM130.563 38.7197C130.563 38.4308 130.589 38.1549 130.668 37.8791C130.734 37.6164 130.839 37.3668 130.996 37.1567C131.141 36.9465 131.325 36.7889 131.561 36.6575C131.798 36.5262 132.074 36.4605 132.415 36.4605C132.73 36.4605 133.006 36.5262 133.243 36.6444C133.479 36.7757 133.663 36.9334 133.807 37.1435C133.952 37.3537 134.057 37.6033 134.136 37.866C134.201 38.1418 134.241 38.4308 134.241 38.7197C134.241 39.0087 134.201 39.2977 134.136 39.5604C134.07 39.8231 133.965 40.0595 133.82 40.2697C133.676 40.4799 133.492 40.6506 133.256 40.782C133.019 40.9133 132.743 40.9659 132.415 40.9659C132.1 40.9659 131.824 40.9133 131.588 40.782C131.351 40.6638 131.154 40.5061 131.01 40.296C130.852 40.0858 130.747 39.8494 130.668 39.5735C130.589 39.3108 130.563 39.0219 130.563 38.7197ZM136.88 40.0333C136.88 40.3222 136.932 40.5981 137.037 40.8608C137.142 41.1235 137.3 41.3599 137.51 41.557C137.734 41.7934 138.009 41.9641 138.338 42.0692C138.653 42.1743 138.981 42.2268 139.297 42.2268C139.664 42.2268 140.032 42.1743 140.387 42.0561C140.728 41.9379 141.03 41.7277 141.28 41.4125H141.543V42.0561H142.935V37.6164C142.935 37.1829 142.856 36.8151 142.712 36.513C142.554 36.2109 142.357 35.9614 142.094 35.7643C141.832 35.5673 141.53 35.4228 141.188 35.3309C140.833 35.2521 140.453 35.1995 140.045 35.1995C139.73 35.1995 139.415 35.2389 139.1 35.3046C138.784 35.3834 138.495 35.4885 138.233 35.6461C137.97 35.8037 137.747 36.0139 137.576 36.2635C137.392 36.513 137.3 36.8151 137.287 37.1829H138.758C138.771 37.0253 138.824 36.8808 138.916 36.7757C138.995 36.6707 139.113 36.5918 139.244 36.5262C139.375 36.4736 139.507 36.4342 139.664 36.408C139.809 36.3817 139.953 36.3685 140.098 36.3685C140.518 36.3685 140.847 36.4605 141.109 36.6444C141.372 36.8283 141.503 37.1435 141.503 37.5901V37.7871H139.533C139.192 37.7871 138.85 37.8397 138.535 37.9185C138.22 38.0104 137.931 38.1418 137.694 38.3257C137.445 38.5096 137.248 38.746 137.103 39.035C136.945 39.324 136.88 39.6523 136.88 40.0333ZM138.377 39.9676C138.377 39.7574 138.417 39.5867 138.495 39.4422C138.574 39.3108 138.679 39.1926 138.811 39.1138C138.942 39.035 139.086 38.9825 139.257 38.943C139.428 38.9168 139.612 38.8905 139.796 38.8905H141.503V39.3896C141.503 39.6261 141.451 39.8494 141.359 40.0464C141.254 40.2566 141.122 40.4273 140.965 40.5718C140.794 40.7163 140.61 40.8214 140.4 40.9002C140.19 40.979 139.967 41.0184 139.73 41.0184C139.559 41.0184 139.389 41.0053 139.231 40.9659C139.06 40.9396 138.916 40.8739 138.798 40.7951C138.666 40.7163 138.574 40.5981 138.495 40.4667C138.417 40.3354 138.377 40.1646 138.377 39.9676ZM144.896 42.0561H150.78V43.9344H152.186V40.7951H150.99V35.3703H149.506V40.7951H146.38V35.3703H144.896V42.0561ZM153.554 42.0561H155.222L158.073 37.6689H158.335V42.0561H159.78V35.3703H158.073L155.262 39.7574H154.999V35.3703H153.554V42.0561ZM161.539 42.0561H163.063L164.258 39.6261H166.018V42.0561H167.502V35.3703H164.14C163.785 35.3703 163.457 35.4228 163.154 35.5016C162.839 35.5804 162.577 35.7118 162.353 35.8825C162.117 36.0533 161.933 36.2766 161.802 36.5393C161.67 36.8151 161.605 37.1435 161.605 37.5244C161.605 37.971 161.696 38.352 161.907 38.6803C162.104 39.0219 162.419 39.2583 162.839 39.4028L161.539 42.0561ZM163.076 37.5244C163.076 37.3406 163.102 37.1829 163.168 37.0516C163.22 36.9334 163.312 36.8414 163.417 36.7626C163.522 36.6969 163.654 36.6444 163.798 36.6181C163.943 36.5918 164.1 36.5787 164.271 36.5787H166.018V38.4702H164.271C164.1 38.4702 163.943 38.457 163.798 38.4308C163.654 38.4045 163.522 38.3651 163.417 38.2863C163.312 38.2206 163.22 38.1287 163.168 37.9973C163.102 37.8791 163.076 37.7215 163.076 37.5244Z" fill="black"/>
<g filter="url(#filter1_d_20014_225105)">
<rect x="82.4795" y="302.783" width="188.041" height="33.1837" rx="3.45663" fill="#4563FF"/>
<path d="M165.266 322.855H166.548V326.053H165.44V323.875H158.708V326.053H157.601V322.855H158.521C159.268 321.279 159.641 319.254 159.641 316.782V314.99H165.266V322.855ZM164.159 322.855V316.011H160.712V316.969C160.712 319.391 160.38 321.353 159.716 322.855H164.159ZM171.896 323.875V323.216H171.623C171.191 323.763 170.54 324.037 169.669 324.037C168.98 324.037 168.433 323.838 168.026 323.44C167.62 323.042 167.416 322.56 167.416 321.996C167.416 321.424 167.616 320.934 168.014 320.528C168.412 320.121 169.013 319.918 169.818 319.918H171.859V319.669C171.859 319.271 171.735 318.956 171.486 318.724C171.237 318.483 170.851 318.363 170.328 318.363C169.416 318.363 168.93 318.665 168.872 319.271H167.815C167.856 318.699 168.101 318.251 168.549 317.927C169.005 317.604 169.59 317.442 170.303 317.442C171.108 317.442 171.739 317.628 172.195 318.002C172.659 318.375 172.892 318.91 172.892 319.607V323.875H171.896ZM169.93 323.116C170.453 323.116 170.905 322.946 171.287 322.606C171.668 322.258 171.859 321.834 171.859 321.337V320.764H169.98C168.976 320.764 168.474 321.163 168.474 321.959C168.474 322.316 168.599 322.598 168.848 322.805C169.105 323.013 169.466 323.116 169.93 323.116ZM174.119 323.875V322.88H174.331C174.77 322.88 175.086 322.677 175.277 322.27C175.467 321.855 175.563 321.109 175.563 320.03V317.604H180.366V323.875H179.296V318.524H176.546V320.055C176.546 321.474 176.372 322.465 176.023 323.029C175.683 323.593 175.119 323.875 174.331 323.875H174.119ZM187.837 320.366V320.727H183.059C183.076 321.482 183.254 322.071 183.594 322.494C183.934 322.909 184.424 323.116 185.062 323.116C185.925 323.116 186.456 322.793 186.655 322.146H187.725C187.618 322.71 187.331 323.166 186.867 323.514C186.41 323.863 185.809 324.037 185.062 324.037C184.108 324.037 183.362 323.726 182.822 323.104C182.283 322.482 182.014 321.673 182.014 320.677C182.014 319.698 182.283 318.914 182.822 318.325C183.362 317.736 184.1 317.442 185.037 317.442C185.925 317.442 186.61 317.724 187.091 318.288C187.572 318.844 187.821 319.537 187.837 320.366ZM185.013 318.363C184.473 318.363 184.042 318.504 183.718 318.786C183.395 319.06 183.196 319.412 183.121 319.843H186.742C186.709 319.42 186.539 319.068 186.232 318.786C185.925 318.504 185.519 318.363 185.013 318.363ZM194.922 320.366V320.727H190.144C190.16 321.482 190.339 322.071 190.679 322.494C191.019 322.909 191.508 323.116 192.147 323.116C193.01 323.116 193.541 322.793 193.74 322.146H194.81C194.702 322.71 194.416 323.166 193.951 323.514C193.495 323.863 192.894 324.037 192.147 324.037C191.193 324.037 190.446 323.726 189.907 323.104C189.368 322.482 189.098 321.673 189.098 320.677C189.098 319.698 189.368 318.914 189.907 318.325C190.446 317.736 191.185 317.442 192.122 317.442C193.01 317.442 193.694 317.724 194.175 318.288C194.657 318.844 194.906 319.537 194.922 320.366ZM192.097 318.363C191.558 318.363 191.127 318.504 190.803 318.786C190.48 319.06 190.281 319.412 190.206 319.843H193.827C193.794 319.42 193.624 319.068 193.317 318.786C193.01 318.504 192.603 318.363 192.097 318.363Z" fill="white"/>
</g>
<path d="M110.865 237.827H113.05V242.763H112.428V240.696H110.99C110.852 240.696 110.718 240.689 110.589 240.675L109.849 242.763H109.206L109.994 240.53C109.492 240.309 109.241 239.887 109.241 239.265C109.241 238.808 109.381 238.456 109.663 238.207C109.944 237.953 110.345 237.827 110.865 237.827ZM110.955 240.143H112.428V238.38H110.955C110.573 238.38 110.296 238.456 110.126 238.608C109.955 238.755 109.87 238.974 109.87 239.265C109.87 239.85 110.232 240.143 110.955 240.143ZM119.246 242.763H118.658V239.79H116.757V242.763H116.169V239.279H119.246V242.763ZM120.624 239.707C120.933 239.361 121.352 239.189 121.882 239.189C122.412 239.189 122.829 239.361 123.134 239.707C123.442 240.053 123.597 240.491 123.597 241.021C123.597 241.551 123.442 241.989 123.134 242.334C122.829 242.68 122.412 242.853 121.882 242.853C121.352 242.853 120.933 242.68 120.624 242.334C120.32 241.989 120.168 241.551 120.168 241.021C120.168 240.491 120.32 240.053 120.624 239.707ZM121.046 241.961C121.239 242.214 121.518 242.341 121.882 242.341C122.246 242.341 122.525 242.214 122.719 241.961C122.912 241.703 123.009 241.389 123.009 241.021C123.009 240.652 122.912 240.341 122.719 240.087C122.525 239.829 122.246 239.7 121.882 239.7C121.518 239.7 121.239 239.829 121.046 240.087C120.852 240.341 120.755 240.652 120.755 241.021C120.755 241.389 120.852 241.703 121.046 241.961ZM127.618 242.251H128.261V243.751H127.687V242.763H124.673V243.751H124.099V242.251H124.562C124.848 241.643 124.991 240.97 124.991 240.233V239.279H127.618V242.251ZM127.03 242.251V239.79H125.537V240.233C125.537 241.021 125.41 241.694 125.157 242.251H127.03ZM128.664 239.79V239.279H131.665V239.79H130.462V242.763H129.874V239.79H128.664ZM134.894 240.841V240.993C135.065 241.035 135.201 241.127 135.302 241.27C135.408 241.412 135.461 241.592 135.461 241.809C135.461 242.445 135.051 242.763 134.23 242.763H132.44V239.279H134.168C134.518 239.279 134.788 239.357 134.977 239.514C135.171 239.666 135.267 239.88 135.267 240.157C135.267 240.318 135.231 240.458 135.157 240.578C135.088 240.698 135 240.786 134.894 240.841ZM133.021 242.265H134.196C134.648 242.265 134.873 242.092 134.873 241.747C134.873 241.396 134.648 241.221 134.196 241.221H133.021V242.265ZM133.021 239.776V240.723H134.113C134.311 240.723 134.454 240.68 134.542 240.592C134.634 240.504 134.68 240.392 134.68 240.253C134.68 239.935 134.491 239.776 134.113 239.776H133.021ZM139.397 240.813V241.014H136.742C136.751 241.433 136.851 241.76 137.04 241.995C137.228 242.226 137.5 242.341 137.855 242.341C138.335 242.341 138.63 242.161 138.74 241.802H139.335C139.275 242.115 139.116 242.369 138.858 242.562C138.604 242.756 138.27 242.853 137.855 242.853C137.325 242.853 136.91 242.68 136.611 242.334C136.311 241.989 136.162 241.539 136.162 240.986C136.162 240.442 136.311 240.007 136.611 239.68C136.91 239.352 137.321 239.189 137.841 239.189C138.335 239.189 138.715 239.345 138.982 239.659C139.249 239.968 139.388 240.352 139.397 240.813ZM137.828 239.7C137.528 239.7 137.288 239.779 137.109 239.935C136.929 240.087 136.818 240.283 136.777 240.523H138.789C138.77 240.288 138.676 240.092 138.505 239.935C138.335 239.779 138.109 239.7 137.828 239.7ZM141.985 239.7C141.621 239.7 141.346 239.827 141.162 240.08C140.982 240.334 140.893 240.647 140.893 241.021C140.893 241.394 140.982 241.707 141.162 241.961C141.346 242.214 141.621 242.341 141.985 242.341C142.326 242.341 142.589 242.221 142.773 241.982C142.962 241.737 143.056 241.417 143.056 241.021C143.056 240.624 142.962 240.306 142.773 240.067C142.589 239.822 142.326 239.7 141.985 239.7ZM140.312 239.279H140.879V239.652H141.031C141.28 239.343 141.641 239.189 142.116 239.189C142.586 239.189 142.957 239.361 143.229 239.707C143.506 240.053 143.644 240.491 143.644 241.021C143.644 241.56 143.506 242 143.229 242.341C142.957 242.682 142.586 242.853 142.116 242.853C141.637 242.853 141.282 242.698 141.052 242.39H140.899V244.145H140.312V239.279ZM145.554 241.235L144.883 242.763H144.268L145.056 240.972L144.316 239.279H144.925L145.554 240.723H146.445V239.279H147.012V240.723H147.904L148.533 239.279H149.142L148.402 240.972L149.197 242.763H148.575L147.904 241.235H147.012V242.763H146.445V241.235H145.554ZM153.131 242.251H153.774V243.751H153.2V242.763H150.186V243.751H149.612V242.251H150.075C150.361 241.643 150.504 240.97 150.504 240.233V239.279H153.131V242.251ZM152.543 242.251V239.79H151.05V240.233C151.05 241.021 150.923 241.694 150.67 242.251H152.543ZM156.756 242.763V242.396H156.604C156.364 242.701 156.002 242.853 155.518 242.853C155.136 242.853 154.832 242.742 154.606 242.521C154.38 242.3 154.267 242.032 154.267 241.719C154.267 241.401 154.378 241.129 154.599 240.903C154.82 240.677 155.154 240.564 155.601 240.564H156.735V240.426C156.735 240.205 156.666 240.03 156.528 239.901C156.389 239.767 156.175 239.7 155.885 239.7C155.378 239.7 155.108 239.868 155.076 240.205H154.488C154.511 239.887 154.647 239.638 154.896 239.458C155.15 239.279 155.475 239.189 155.871 239.189C156.318 239.189 156.668 239.292 156.922 239.5C157.18 239.707 157.309 240.004 157.309 240.392V242.763H156.756ZM155.664 242.341C155.954 242.341 156.205 242.247 156.417 242.058C156.629 241.864 156.735 241.629 156.735 241.353V241.035H155.691C155.134 241.035 154.855 241.256 154.855 241.698C154.855 241.896 154.924 242.053 155.062 242.168C155.205 242.283 155.405 242.341 155.664 242.341ZM161.434 239.189C161.95 239.189 162.36 239.364 162.664 239.714C162.968 240.06 163.12 240.495 163.12 241.021C163.12 241.546 162.968 241.984 162.664 242.334C162.36 242.68 161.95 242.853 161.434 242.853C160.954 242.853 160.565 242.701 160.265 242.396C159.97 242.092 159.802 241.703 159.761 241.228H158.966V242.763H158.385V239.279H158.966V240.716H159.781C159.837 240.26 160.009 239.892 160.3 239.61C160.595 239.329 160.973 239.189 161.434 239.189ZM160.618 241.961C160.807 242.214 161.079 242.341 161.434 242.341C161.789 242.341 162.06 242.214 162.249 241.961C162.438 241.703 162.533 241.389 162.533 241.021C162.533 240.652 162.438 240.341 162.249 240.087C162.06 239.829 161.789 239.7 161.434 239.7C161.079 239.7 160.807 239.829 160.618 240.087C160.429 240.341 160.334 240.652 160.334 241.021C160.334 241.389 160.429 241.703 160.618 241.961ZM166.208 239.707C166.517 239.361 166.937 239.189 167.467 239.189C167.997 239.189 168.414 239.361 168.718 239.707C169.027 240.053 169.181 240.491 169.181 241.021C169.181 241.551 169.027 241.989 168.718 242.334C168.414 242.68 167.997 242.853 167.467 242.853C166.937 242.853 166.517 242.68 166.208 242.334C165.904 241.989 165.752 241.551 165.752 241.021C165.752 240.491 165.904 240.053 166.208 239.707ZM166.63 241.961C166.824 242.214 167.103 242.341 167.467 242.341C167.831 242.341 168.11 242.214 168.303 241.961C168.497 241.703 168.594 241.389 168.594 241.021C168.594 240.652 168.497 240.341 168.303 240.087C168.11 239.829 167.831 239.7 167.467 239.7C167.103 239.7 166.824 239.829 166.63 240.087C166.437 240.341 166.34 240.652 166.34 241.021C166.34 241.389 166.437 241.703 166.63 241.961ZM172.096 240.233C172.096 240.062 172.025 239.931 171.882 239.839C171.744 239.746 171.559 239.7 171.329 239.7C171.08 239.7 170.886 239.744 170.748 239.832C170.614 239.915 170.527 240.051 170.485 240.239H169.925C169.958 239.908 170.101 239.65 170.354 239.465C170.608 239.281 170.937 239.189 171.343 239.189C171.757 239.189 172.082 239.281 172.317 239.465C172.557 239.65 172.677 239.88 172.677 240.157C172.677 240.341 172.64 240.495 172.566 240.62C172.497 240.74 172.41 240.82 172.304 240.862V241.014C172.446 241.055 172.564 241.143 172.656 241.276C172.753 241.406 172.801 241.581 172.801 241.802C172.801 242.101 172.672 242.353 172.414 242.555C172.161 242.754 171.808 242.853 171.356 242.853C170.891 242.853 170.527 242.758 170.264 242.569C170.001 242.38 169.842 242.115 169.787 241.774H170.354C170.469 242.152 170.803 242.341 171.356 242.341C171.615 242.341 171.822 242.295 171.979 242.203C172.135 242.106 172.214 241.965 172.214 241.781C172.214 241.601 172.154 241.468 172.034 241.38C171.919 241.288 171.723 241.242 171.446 241.242H170.831V240.73H171.419C171.654 240.73 171.824 240.684 171.93 240.592C172.041 240.5 172.096 240.38 172.096 240.233ZM176.848 242.763H176.26V241.228H174.332V242.763H173.744V239.279H174.332V240.716H176.26V239.279H176.848V242.763ZM180.203 242.763V242.396H180.051C179.811 242.701 179.449 242.853 178.965 242.853C178.583 242.853 178.279 242.742 178.053 242.521C177.827 242.3 177.714 242.032 177.714 241.719C177.714 241.401 177.825 241.129 178.046 240.903C178.267 240.677 178.601 240.564 179.048 240.564H180.182V240.426C180.182 240.205 180.113 240.03 179.975 239.901C179.836 239.767 179.622 239.7 179.332 239.7C178.825 239.7 178.555 239.868 178.523 240.205H177.935C177.958 239.887 178.094 239.638 178.343 239.458C178.597 239.279 178.922 239.189 179.318 239.189C179.765 239.189 180.115 239.292 180.369 239.5C180.627 239.707 180.756 240.004 180.756 240.392V242.763H180.203ZM179.111 242.341C179.401 242.341 179.652 242.247 179.864 242.058C180.076 241.864 180.182 241.629 180.182 241.353V241.035H179.138C178.581 241.035 178.302 241.256 178.302 241.698C178.302 241.896 178.371 242.053 178.509 242.168C178.652 242.283 178.852 242.341 179.111 242.341ZM184.238 242.763L183.463 241.228H182.42V242.763H181.832V239.279H182.42V240.716H183.477L184.203 239.279H184.818L183.968 240.958L184.867 242.763H184.238ZM185.841 239.707C186.15 239.361 186.569 239.189 187.099 239.189C187.629 239.189 188.046 239.361 188.351 239.707C188.659 240.053 188.814 240.491 188.814 241.021C188.814 241.551 188.659 241.989 188.351 242.334C188.046 242.68 187.629 242.853 187.099 242.853C186.569 242.853 186.15 242.68 185.841 242.334C185.537 241.989 185.385 241.551 185.385 241.021C185.385 240.491 185.537 240.053 185.841 239.707ZM186.263 241.961C186.456 242.214 186.735 242.341 187.099 242.341C187.463 242.341 187.742 242.214 187.936 241.961C188.129 241.703 188.226 241.389 188.226 241.021C188.226 240.652 188.129 240.341 187.936 240.087C187.742 239.829 187.463 239.7 187.099 239.7C186.735 239.7 186.456 239.829 186.263 240.087C186.069 240.341 185.972 240.652 185.972 241.021C185.972 241.389 186.069 241.703 186.263 241.961ZM189.731 242.763V239.279H190.664L191.521 240.869H191.673L192.531 239.279H193.45V242.763H192.876V239.963H192.724L191.915 241.456H191.266L190.457 239.963H190.305V242.763H189.731ZM194.191 242.763V242.21H194.308C194.553 242.21 194.728 242.097 194.834 241.871C194.94 241.641 194.993 241.226 194.993 240.627V239.279H197.661V242.763H197.067V239.79H195.539V240.64C195.539 241.429 195.442 241.979 195.249 242.293C195.06 242.606 194.746 242.763 194.308 242.763H194.191ZM201.812 240.813V241.014H199.157C199.167 241.433 199.266 241.76 199.455 241.995C199.644 242.226 199.916 242.341 200.27 242.341C200.75 242.341 201.045 242.161 201.155 241.802H201.75C201.69 242.115 201.531 242.369 201.273 242.562C201.019 242.756 200.685 242.853 200.27 242.853C199.74 242.853 199.326 242.68 199.026 242.334C198.726 241.989 198.577 241.539 198.577 240.986C198.577 240.442 198.726 240.007 199.026 239.68C199.326 239.352 199.736 239.189 200.257 239.189C200.75 239.189 201.13 239.345 201.397 239.659C201.665 239.968 201.803 240.352 201.812 240.813ZM200.243 239.7C199.943 239.7 199.704 239.779 199.524 239.935C199.344 240.087 199.233 240.283 199.192 240.523H201.204C201.185 240.288 201.091 240.092 200.92 239.935C200.75 239.779 200.524 239.7 200.243 239.7ZM205.831 242.763H205.243V241.228H203.315V242.763H202.727V239.279H203.315V240.716H205.243V239.279H205.831V242.763ZM207.796 242.763H206.967V239.279H207.541V241.975H207.693L209.22 239.279H210.078V242.763H209.504V240.067H209.352L207.796 242.763ZM214.234 240.813V241.014H211.58C211.589 241.433 211.688 241.76 211.877 241.995C212.066 242.226 212.338 242.341 212.693 242.341C213.172 242.341 213.467 242.161 213.578 241.802H214.172C214.112 242.115 213.953 242.369 213.695 242.562C213.442 242.756 213.108 242.853 212.693 242.853C212.163 242.853 211.748 242.68 211.448 242.334C211.149 241.989 210.999 241.539 210.999 240.986C210.999 240.442 211.149 240.007 211.448 239.68C211.748 239.352 212.158 239.189 212.679 239.189C213.172 239.189 213.552 239.345 213.82 239.659C214.087 239.968 214.225 240.352 214.234 240.813ZM212.665 239.7C212.366 239.7 212.126 239.779 211.946 239.935C211.766 240.087 211.656 240.283 211.614 240.523H213.626C213.608 240.288 213.513 240.092 213.343 239.935C213.172 239.779 212.946 239.7 212.665 239.7ZM219.431 241.712H220.018C219.949 242.062 219.786 242.341 219.528 242.549C219.274 242.751 218.949 242.853 218.553 242.853C218.027 242.853 217.613 242.682 217.308 242.341C217.009 241.995 216.859 241.555 216.859 241.021C216.859 240.481 217.009 240.041 217.308 239.7C217.608 239.359 218.023 239.189 218.553 239.189C218.954 239.189 219.279 239.29 219.528 239.493C219.781 239.691 219.938 239.956 219.998 240.288H219.41C219.286 239.896 219 239.7 218.553 239.7C218.179 239.7 217.901 239.825 217.716 240.074C217.537 240.318 217.447 240.629 217.447 241.007C217.447 241.389 217.539 241.707 217.723 241.961C217.908 242.214 218.184 242.341 218.553 242.341C219.041 242.341 219.334 242.131 219.431 241.712ZM228.583 250.763H227.754V247.279H228.328V249.975H228.48L230.008 247.279H230.865V250.763H230.291V248.067H230.139L228.583 250.763ZM237.029 250.251H237.671V251.751H237.098V250.763H234.083V251.751H233.51V250.251H233.973C234.259 249.643 234.401 248.97 234.401 248.233V247.279H237.029V250.251ZM236.441 250.251V247.79H234.948V248.233C234.948 249.021 234.821 249.694 234.567 250.251H236.441ZM240.653 250.763V250.396H240.501C240.262 250.701 239.9 250.853 239.416 250.853C239.033 250.853 238.729 250.742 238.503 250.521C238.278 250.3 238.165 250.032 238.165 249.719C238.165 249.401 238.275 249.129 238.496 248.903C238.718 248.677 239.052 248.564 239.499 248.564H240.633V248.426C240.633 248.205 240.564 248.03 240.425 247.901C240.287 247.767 240.073 247.7 239.782 247.7C239.275 247.7 239.006 247.868 238.974 248.205H238.386C238.409 247.887 238.545 247.638 238.794 247.458C239.047 247.279 239.372 247.189 239.769 247.189C240.216 247.189 240.566 247.292 240.819 247.5C241.077 247.707 241.206 248.004 241.206 248.392V250.763H240.653ZM239.561 250.341C239.851 250.341 240.103 250.247 240.315 250.058C240.527 249.864 240.633 249.629 240.633 249.353V249.035H239.589C239.031 249.035 238.752 249.256 238.752 249.698C238.752 249.896 238.821 250.053 238.96 250.168C239.103 250.283 239.303 250.341 239.561 250.341ZM245.331 247.189C245.847 247.189 246.258 247.364 246.562 247.714C246.866 248.06 247.018 248.495 247.018 249.021C247.018 249.546 246.866 249.984 246.562 250.334C246.258 250.68 245.847 250.853 245.331 250.853C244.852 250.853 244.462 250.701 244.163 250.396C243.868 250.092 243.7 249.703 243.658 249.228H242.863V250.763H242.282V247.279H242.863V248.716H243.679C243.734 248.26 243.907 247.892 244.197 247.61C244.492 247.329 244.87 247.189 245.331 247.189ZM244.515 249.961C244.704 250.214 244.976 250.341 245.331 250.341C245.686 250.341 245.958 250.214 246.147 249.961C246.336 249.703 246.43 249.389 246.43 249.021C246.43 248.652 246.336 248.341 246.147 248.087C245.958 247.829 245.686 247.7 245.331 247.7C244.976 247.7 244.704 247.829 244.515 248.087C244.327 248.341 244.232 248.652 244.232 249.021C244.232 249.389 244.327 249.703 244.515 249.961ZM252.222 249.712H252.809C252.74 250.062 252.576 250.341 252.318 250.549C252.065 250.751 251.74 250.853 251.344 250.853C250.818 250.853 250.403 250.682 250.099 250.341C249.8 249.995 249.65 249.555 249.65 249.021C249.65 248.481 249.8 248.041 250.099 247.7C250.399 247.359 250.814 247.189 251.344 247.189C251.745 247.189 252.069 247.29 252.318 247.493C252.572 247.691 252.729 247.956 252.788 248.288H252.201C252.076 247.896 251.791 247.7 251.344 247.7C250.97 247.7 250.691 247.825 250.507 248.074C250.327 248.318 250.237 248.629 250.237 249.007C250.237 249.389 250.33 249.707 250.514 249.961C250.698 250.214 250.975 250.341 251.344 250.341C251.832 250.341 252.125 250.131 252.222 249.712ZM256.14 248.841V248.993C256.31 249.035 256.446 249.127 256.547 249.27C256.653 249.412 256.706 249.592 256.706 249.809C256.706 250.445 256.296 250.763 255.476 250.763H253.685V247.279H255.414C255.764 247.279 256.034 247.357 256.222 247.514C256.416 247.666 256.513 247.88 256.513 248.157C256.513 248.318 256.476 248.458 256.402 248.578C256.333 248.698 256.246 248.786 256.14 248.841ZM254.266 250.265H255.441C255.893 250.265 256.119 250.092 256.119 249.747C256.119 249.396 255.893 249.221 255.441 249.221H254.266V250.265ZM254.266 247.776V248.723H255.358C255.557 248.723 255.699 248.68 255.787 248.592C255.879 248.504 255.925 248.392 255.925 248.253C255.925 247.935 255.736 247.776 255.358 247.776H254.266ZM257.863 247.707C258.172 247.361 258.591 247.189 259.121 247.189C259.651 247.189 260.069 247.361 260.373 247.707C260.682 248.053 260.836 248.491 260.836 249.021C260.836 249.551 260.682 249.989 260.373 250.334C260.069 250.68 259.651 250.853 259.121 250.853C258.591 250.853 258.172 250.68 257.863 250.334C257.559 249.989 257.407 249.551 257.407 249.021C257.407 248.491 257.559 248.053 257.863 247.707ZM258.285 249.961C258.479 250.214 258.757 250.341 259.121 250.341C259.486 250.341 259.764 250.214 259.958 249.961C260.152 249.703 260.248 249.389 260.248 249.021C260.248 248.652 260.152 248.341 259.958 248.087C259.764 247.829 259.486 247.7 259.121 247.7C258.757 247.7 258.479 247.829 258.285 248.087C258.091 248.341 257.995 248.652 257.995 249.021C257.995 249.389 258.091 249.703 258.285 249.961ZM264.774 248.813V249.014H262.119C262.129 249.433 262.228 249.76 262.417 249.995C262.606 250.226 262.878 250.341 263.232 250.341C263.712 250.341 264.007 250.161 264.117 249.802H264.712C264.652 250.115 264.493 250.369 264.235 250.562C263.981 250.756 263.647 250.853 263.232 250.853C262.702 250.853 262.288 250.68 261.988 250.334C261.689 249.989 261.539 249.539 261.539 248.986C261.539 248.442 261.689 248.007 261.988 247.68C262.288 247.352 262.698 247.189 263.219 247.189C263.712 247.189 264.092 247.345 264.359 247.659C264.627 247.968 264.765 248.352 264.774 248.813ZM263.205 247.7C262.905 247.7 262.666 247.779 262.486 247.935C262.306 248.087 262.195 248.283 262.154 248.523H264.166C264.147 248.288 264.053 248.092 263.882 247.935C263.712 247.779 263.486 247.7 263.205 247.7ZM269 258.763H268.281V257.961H269V258.763Z" fill="#7B7794"/>
<path d="M222.881 237.827H226.835V242.763H226.213V238.394H223.503V242.763H222.881V237.827ZM229.704 239.7C229.34 239.7 229.065 239.827 228.881 240.08C228.701 240.334 228.611 240.647 228.611 241.021C228.611 241.394 228.701 241.707 228.881 241.961C229.065 242.214 229.34 242.341 229.704 242.341C230.045 242.341 230.307 242.221 230.492 241.982C230.681 241.737 230.775 241.417 230.775 241.021C230.775 240.624 230.681 240.306 230.492 240.067C230.307 239.822 230.045 239.7 229.704 239.7ZM228.031 239.279H228.598V239.652H228.75C228.998 239.343 229.36 239.189 229.835 239.189C230.305 239.189 230.676 239.361 230.948 239.707C231.225 240.053 231.363 240.491 231.363 241.021C231.363 241.56 231.225 242 230.948 242.341C230.676 242.682 230.305 242.853 229.835 242.853C229.356 242.853 229.001 242.698 228.77 242.39H228.618V244.145H228.031V239.279ZM234.503 242.763V242.396H234.351C234.111 242.701 233.75 242.853 233.266 242.853C232.883 242.853 232.579 242.742 232.353 242.521C232.127 242.3 232.014 242.032 232.014 241.719C232.014 241.401 232.125 241.129 232.346 240.903C232.567 240.677 232.901 240.564 233.349 240.564H234.482V240.426C234.482 240.205 234.413 240.03 234.275 239.901C234.137 239.767 233.922 239.7 233.632 239.7C233.125 239.7 232.855 239.868 232.823 240.205H232.236C232.259 239.887 232.395 239.638 232.643 239.458C232.897 239.279 233.222 239.189 233.618 239.189C234.065 239.189 234.415 239.292 234.669 239.5C234.927 239.707 235.056 240.004 235.056 240.392V242.763H234.503ZM233.411 242.341C233.701 242.341 233.952 242.247 234.164 242.058C234.376 241.864 234.482 241.629 234.482 241.353V241.035H233.438C232.881 241.035 232.602 241.256 232.602 241.698C232.602 241.896 232.671 242.053 232.809 242.168C232.952 242.283 233.153 242.341 233.411 242.341ZM238.586 240.841V240.993C238.757 241.035 238.893 241.127 238.994 241.27C239.1 241.412 239.153 241.592 239.153 241.809C239.153 242.445 238.743 242.763 237.923 242.763H236.132V239.279H237.86C238.211 239.279 238.48 239.357 238.669 239.514C238.863 239.666 238.96 239.88 238.96 240.157C238.96 240.318 238.923 240.458 238.849 240.578C238.78 240.698 238.692 240.786 238.586 240.841ZM236.713 242.265H237.888C238.34 242.265 238.566 242.092 238.566 241.747C238.566 241.396 238.34 241.221 237.888 241.221H236.713V242.265ZM236.713 239.776V240.723H237.805C238.003 240.723 238.146 240.68 238.234 240.592C238.326 240.504 238.372 240.392 238.372 240.253C238.372 239.935 238.183 239.776 237.805 239.776H236.713ZM240.898 242.763H240.068V239.279H240.642V241.975H240.794L242.322 239.279H243.179V242.763H242.605V240.067H242.453L240.898 242.763ZM243.921 242.763V242.21H244.038C244.282 242.21 244.457 242.097 244.563 241.871C244.669 241.641 244.722 241.226 244.722 240.627V239.279H247.391V242.763H246.796V239.79H245.269V240.64C245.269 241.429 245.172 241.979 244.978 242.293C244.789 242.606 244.476 242.763 244.038 242.763H243.921ZM250.74 242.763V242.396H250.588C250.348 242.701 249.986 242.853 249.502 242.853C249.12 242.853 248.816 242.742 248.59 242.521C248.364 242.3 248.251 242.032 248.251 241.719C248.251 241.401 248.362 241.129 248.583 240.903C248.804 240.677 249.138 240.564 249.585 240.564H250.719V240.426C250.719 240.205 250.65 240.03 250.512 239.901C250.373 239.767 250.159 239.7 249.869 239.7C249.362 239.7 249.092 239.868 249.06 240.205H248.472C248.495 239.887 248.631 239.638 248.88 239.458C249.134 239.279 249.459 239.189 249.855 239.189C250.302 239.189 250.652 239.292 250.906 239.5C251.164 239.707 251.293 240.004 251.293 240.392V242.763H250.74ZM249.647 242.341C249.938 242.341 250.189 242.247 250.401 242.058C250.613 241.864 250.719 241.629 250.719 241.353V241.035H249.675C249.117 241.035 248.839 241.256 248.839 241.698C248.839 241.896 248.908 242.053 249.046 242.168C249.189 242.283 249.389 242.341 249.647 242.341ZM252.369 242.763V239.279H253.302L254.159 240.869H254.311L255.169 239.279H256.088V242.763H255.514V239.963H255.362L254.553 241.456H253.904L253.095 239.963H252.943V242.763H252.369ZM258.053 242.763H257.223V239.279H257.797V241.975H257.949L259.477 239.279H260.334V242.763H259.76V240.067H259.608L258.053 242.763ZM110.146 250.763H109.317V247.279H109.891V249.975H110.043L111.571 247.279H112.428V250.763H111.854V248.067H111.702L110.146 250.763ZM115.921 249.712H116.508C116.439 250.062 116.276 250.341 116.018 250.549C115.764 250.751 115.439 250.853 115.043 250.853C114.517 250.853 114.103 250.682 113.798 250.341C113.499 249.995 113.349 249.555 113.349 249.021C113.349 248.481 113.499 248.041 113.798 247.7C114.098 247.359 114.513 247.189 115.043 247.189C115.444 247.189 115.769 247.29 116.018 247.493C116.271 247.691 116.428 247.956 116.488 248.288H115.9C115.776 247.896 115.49 247.7 115.043 247.7C114.67 247.7 114.391 247.825 114.206 248.074C114.027 248.318 113.937 248.629 113.937 249.007C113.937 249.389 114.029 249.707 114.213 249.961C114.398 250.214 114.674 250.341 115.043 250.341C115.531 250.341 115.824 250.131 115.921 249.712ZM120.461 250.763H119.873V247.79H117.972V250.763H117.385V247.279H120.461V250.763ZM121.839 247.707C122.148 247.361 122.568 247.189 123.098 247.189C123.628 247.189 124.045 247.361 124.349 247.707C124.658 248.053 124.812 248.491 124.812 249.021C124.812 249.551 124.658 249.989 124.349 250.334C124.045 250.68 123.628 250.853 123.098 250.853C122.568 250.853 122.148 250.68 121.839 250.334C121.535 249.989 121.383 249.551 121.383 249.021C121.383 248.491 121.535 248.053 121.839 247.707ZM122.261 249.961C122.455 250.214 122.733 250.341 123.098 250.341C123.462 250.341 123.74 250.214 123.934 249.961C124.128 249.703 124.224 249.389 124.224 249.021C124.224 248.652 124.128 248.341 123.934 248.087C123.74 247.829 123.462 247.7 123.098 247.7C122.733 247.7 122.455 247.829 122.261 248.087C122.067 248.341 121.971 248.652 121.971 249.021C121.971 249.389 122.067 249.703 122.261 249.961ZM125.335 250.763V250.21H125.453C125.697 250.21 125.872 250.097 125.978 249.871C126.084 249.641 126.137 249.226 126.137 248.627V247.279H128.806V250.763H128.211V247.79H126.683V248.64C126.683 249.429 126.586 249.979 126.393 250.293C126.204 250.606 125.89 250.763 125.453 250.763H125.335ZM130.523 247.279V248.44H131.553C131.972 248.44 132.295 248.541 132.521 248.744C132.751 248.947 132.866 249.23 132.866 249.594C132.866 249.963 132.751 250.251 132.521 250.459C132.295 250.661 131.972 250.763 131.553 250.763H129.935V247.279H130.523ZM130.523 250.251H131.47C131.76 250.251 131.968 250.196 132.092 250.085C132.217 249.975 132.279 249.811 132.279 249.594C132.279 249.378 132.217 249.214 132.092 249.104C131.968 248.993 131.76 248.938 131.47 248.938H130.523V250.251ZM135.7 248.233C135.7 248.062 135.629 247.931 135.486 247.839C135.348 247.746 135.163 247.7 134.933 247.7C134.684 247.7 134.49 247.744 134.352 247.832C134.219 247.915 134.131 248.051 134.089 248.239H133.53C133.562 247.908 133.705 247.65 133.958 247.465C134.212 247.281 134.541 247.189 134.947 247.189C135.362 247.189 135.686 247.281 135.922 247.465C136.161 247.65 136.281 247.88 136.281 248.157C136.281 248.341 136.244 248.495 136.17 248.62C136.101 248.74 136.014 248.82 135.908 248.862V249.014C136.051 249.055 136.168 249.143 136.26 249.276C136.357 249.406 136.405 249.581 136.405 249.802C136.405 250.101 136.276 250.353 136.018 250.555C135.765 250.754 135.412 250.853 134.961 250.853C134.495 250.853 134.131 250.758 133.868 250.569C133.606 250.38 133.447 250.115 133.391 249.774H133.958C134.073 250.152 134.408 250.341 134.961 250.341C135.219 250.341 135.426 250.295 135.583 250.203C135.739 250.106 135.818 249.965 135.818 249.781C135.818 249.601 135.758 249.468 135.638 249.38C135.523 249.288 135.327 249.242 135.05 249.242H134.435V248.73H135.023C135.258 248.73 135.428 248.684 135.534 248.592C135.645 248.5 135.7 248.38 135.7 248.233ZM137.59 247.707C137.899 247.361 138.318 247.189 138.848 247.189C139.378 247.189 139.795 247.361 140.099 247.707C140.408 248.053 140.563 248.491 140.563 249.021C140.563 249.551 140.408 249.989 140.099 250.334C139.795 250.68 139.378 250.853 138.848 250.853C138.318 250.853 137.899 250.68 137.59 250.334C137.286 249.989 137.134 249.551 137.134 249.021C137.134 248.491 137.286 248.053 137.59 247.707ZM138.012 249.961C138.205 250.214 138.484 250.341 138.848 250.341C139.212 250.341 139.491 250.214 139.685 249.961C139.878 249.703 139.975 249.389 139.975 249.021C139.975 248.652 139.878 248.341 139.685 248.087C139.491 247.829 139.212 247.7 138.848 247.7C138.484 247.7 138.205 247.829 138.012 248.087C137.818 248.341 137.721 248.652 137.721 249.021C137.721 249.389 137.818 249.703 138.012 249.961ZM143.934 248.841V248.993C144.105 249.035 144.24 249.127 144.342 249.27C144.448 249.412 144.501 249.592 144.501 249.809C144.501 250.445 144.091 250.763 143.27 250.763H141.48V247.279H143.208C143.558 247.279 143.828 247.357 144.017 247.514C144.211 247.666 144.307 247.88 144.307 248.157C144.307 248.318 144.27 248.458 144.197 248.578C144.128 248.698 144.04 248.786 143.934 248.841ZM142.06 250.265H143.236C143.687 250.265 143.913 250.092 143.913 249.747C143.913 249.396 143.687 249.221 143.236 249.221H142.06V250.265ZM142.06 247.776V248.723H143.153C143.351 248.723 143.494 248.68 143.581 248.592C143.674 248.504 143.72 248.392 143.72 248.253C143.72 247.935 143.531 247.776 143.153 247.776H142.06ZM147.635 250.763V250.396H147.483C147.243 250.701 146.881 250.853 146.397 250.853C146.015 250.853 145.711 250.742 145.485 250.521C145.259 250.3 145.146 250.032 145.146 249.719C145.146 249.401 145.257 249.129 145.478 248.903C145.699 248.677 146.033 248.564 146.48 248.564H147.614V248.426C147.614 248.205 147.545 248.03 147.407 247.901C147.269 247.767 147.054 247.7 146.764 247.7C146.257 247.7 145.987 247.868 145.955 248.205H145.367C145.39 247.887 145.526 247.638 145.775 247.458C146.029 247.279 146.354 247.189 146.75 247.189C147.197 247.189 147.547 247.292 147.801 247.5C148.059 247.707 148.188 248.004 148.188 248.392V250.763H147.635ZM146.543 250.341C146.833 250.341 147.084 250.247 147.296 250.058C147.508 249.864 147.614 249.629 147.614 249.353V249.035H146.57C146.013 249.035 145.734 249.256 145.734 249.698C145.734 249.896 145.803 250.053 145.941 250.168C146.084 250.283 146.285 250.341 146.543 250.341ZM152.368 250.763H151.78V249.228H149.852V250.763H149.264V247.279H149.852V248.716H151.78V247.279H152.368V250.763ZM154.333 250.763H153.504V247.279H154.078V249.975H154.23L155.757 247.279H156.615V250.763H156.041V248.067H155.889L154.333 250.763ZM158.877 247.279H160.612V250.763H160.018V249.387H158.96C158.868 249.387 158.796 249.385 158.746 249.38L158.22 250.763H157.605L158.193 249.249C157.833 249.078 157.653 248.774 157.653 248.336C157.653 248 157.757 247.739 157.965 247.555C158.177 247.371 158.481 247.279 158.877 247.279ZM160.018 247.776H158.939C158.686 247.776 158.506 247.825 158.4 247.921C158.294 248.018 158.241 248.159 158.241 248.343C158.241 248.523 158.294 248.659 158.4 248.751C158.506 248.843 158.686 248.889 158.939 248.889H160.018V247.776ZM163.187 250.148H163.319C163.549 250.148 163.727 250.088 163.851 249.968C163.975 249.848 164.072 249.606 164.141 249.242C164.21 248.873 164.245 248.339 164.245 247.638V245.827H167.487V250.763H166.865V246.394H164.833V247.756C164.833 248.557 164.777 249.18 164.667 249.622C164.561 250.06 164.402 250.36 164.19 250.521C163.982 250.682 163.694 250.763 163.326 250.763H163.187V250.148ZM169.51 250.763H168.681V247.279H169.254V249.975H169.406L170.934 247.279H171.791V250.763H171.218V248.067H171.066L169.51 250.763ZM172.727 247.279H173.314V248.26C173.314 248.371 173.321 248.458 173.335 248.523C173.349 248.583 173.381 248.652 173.432 248.73C173.482 248.809 173.57 248.866 173.694 248.903C173.823 248.94 173.989 248.958 174.192 248.958C174.496 248.958 174.787 248.928 175.063 248.869V247.279H175.658V250.763H175.063V249.387C174.754 249.452 174.423 249.484 174.068 249.484C173.823 249.484 173.614 249.461 173.439 249.415C173.268 249.364 173.137 249.306 173.045 249.242C172.957 249.173 172.888 249.081 172.837 248.965C172.786 248.85 172.754 248.746 172.74 248.654C172.731 248.562 172.727 248.447 172.727 248.309V247.279ZM179.839 250.763H179.251V249.228H177.322V250.763H176.735V247.279H177.322V248.716H179.251V247.279H179.839V250.763ZM181.216 247.707C181.525 247.361 181.945 247.189 182.475 247.189C183.005 247.189 183.422 247.361 183.726 247.707C184.035 248.053 184.189 248.491 184.189 249.021C184.189 249.551 184.035 249.989 183.726 250.334C183.422 250.68 183.005 250.853 182.475 250.853C181.945 250.853 181.525 250.68 181.216 250.334C180.912 249.989 180.76 249.551 180.76 249.021C180.76 248.491 180.912 248.053 181.216 247.707ZM181.638 249.961C181.832 250.214 182.111 250.341 182.475 250.341C182.839 250.341 183.118 250.214 183.311 249.961C183.505 249.703 183.602 249.389 183.602 249.021C183.602 248.652 183.505 248.341 183.311 248.087C183.118 247.829 182.839 247.7 182.475 247.7C182.111 247.7 181.832 247.829 181.638 248.087C181.445 248.341 181.348 248.652 181.348 249.021C181.348 249.389 181.445 249.703 181.638 249.961ZM185.106 250.763V247.279H187.719V247.79H185.694V250.763H185.106ZM188.569 247.707C188.877 247.361 189.297 247.189 189.827 247.189C190.357 247.189 190.774 247.361 191.078 247.707C191.387 248.053 191.541 248.491 191.541 249.021C191.541 249.551 191.387 249.989 191.078 250.334C190.774 250.68 190.357 250.853 189.827 250.853C189.297 250.853 188.877 250.68 188.569 250.334C188.264 249.989 188.112 249.551 188.112 249.021C188.112 248.491 188.264 248.053 188.569 247.707ZM188.99 249.961C189.184 250.214 189.463 250.341 189.827 250.341C190.191 250.341 190.47 250.214 190.663 249.961C190.857 249.703 190.954 249.389 190.954 249.021C190.954 248.652 190.857 248.341 190.663 248.087C190.47 247.829 190.191 247.7 189.827 247.7C189.463 247.7 189.184 247.829 188.99 248.087C188.797 248.341 188.7 248.652 188.7 249.021C188.7 249.389 188.797 249.703 188.99 249.961ZM196.788 250.763L196.014 249.228H194.97V250.763H194.382V247.279H194.97V248.716H196.028L196.754 247.279H197.369L196.519 248.958L197.417 250.763H196.788ZM200.47 250.763V250.396H200.318C200.078 250.701 199.717 250.853 199.233 250.853C198.85 250.853 198.546 250.742 198.32 250.521C198.094 250.3 197.981 250.032 197.981 249.719C197.981 249.401 198.092 249.129 198.313 248.903C198.534 248.677 198.869 248.564 199.316 248.564H200.449V248.426C200.449 248.205 200.38 248.03 200.242 247.901C200.104 247.767 199.889 247.7 199.599 247.7C199.092 247.7 198.822 247.868 198.79 248.205H198.203C198.226 247.887 198.362 247.638 198.61 247.458C198.864 247.279 199.189 247.189 199.585 247.189C200.032 247.189 200.383 247.292 200.636 247.5C200.894 247.707 201.023 248.004 201.023 248.392V250.763H200.47ZM199.378 250.341C199.668 250.341 199.919 250.247 200.131 250.058C200.343 249.864 200.449 249.629 200.449 249.353V249.035H199.405C198.848 249.035 198.569 249.256 198.569 249.698C198.569 249.896 198.638 250.053 198.776 250.168C198.919 250.283 199.12 250.341 199.378 250.341ZM203.689 247.313C204.201 247.313 204.604 247.481 204.899 247.818C205.194 248.15 205.341 248.571 205.341 249.083C205.341 249.59 205.185 250.012 204.871 250.348C204.563 250.684 204.145 250.853 203.62 250.853C203.067 250.853 202.638 250.671 202.334 250.307C202.035 249.942 201.885 249.422 201.885 248.744C201.885 248.481 201.892 248.246 201.906 248.039C201.924 247.832 201.961 247.615 202.016 247.389C202.076 247.163 202.154 246.972 202.251 246.815C202.348 246.654 202.482 246.513 202.652 246.394C202.823 246.274 203.025 246.195 203.261 246.159L204.187 246.006C204.316 245.988 204.401 245.963 204.443 245.93C204.489 245.898 204.516 245.834 204.526 245.737H205.072C205.063 245.953 205.01 246.126 204.913 246.255C204.816 246.38 204.641 246.465 204.387 246.511L203.316 246.691C203.025 246.742 202.811 246.864 202.673 247.057C202.539 247.246 202.452 247.5 202.41 247.818H202.562C202.705 247.629 202.864 247.497 203.039 247.424C203.219 247.35 203.436 247.313 203.689 247.313ZM202.763 249.975C202.961 250.219 203.242 250.341 203.606 250.341C203.97 250.341 204.249 250.219 204.443 249.975C204.641 249.726 204.74 249.426 204.74 249.076C204.74 248.726 204.641 248.428 204.443 248.184C204.249 247.94 203.97 247.818 203.606 247.818C203.242 247.818 202.961 247.94 202.763 248.184C202.569 248.428 202.472 248.726 202.472 249.076C202.472 249.426 202.569 249.726 202.763 249.975ZM207.087 250.763H206.258V247.279H206.832V249.975H206.984L208.512 247.279H209.369V250.763H208.795V248.067H208.643L207.087 250.763ZM213.608 250.763H213.021V249.228H211.092V250.763H210.504V247.279H211.092V248.716H213.021V247.279H213.608V250.763ZM217.765 248.813V249.014H215.111C215.12 249.433 215.219 249.76 215.408 249.995C215.597 250.226 215.869 250.341 216.224 250.341C216.703 250.341 216.998 250.161 217.109 249.802H217.703C217.643 250.115 217.484 250.369 217.226 250.562C216.973 250.756 216.638 250.853 216.224 250.853C215.694 250.853 215.279 250.68 214.979 250.334C214.68 249.989 214.53 249.539 214.53 248.986C214.53 248.442 214.68 248.007 214.979 247.68C215.279 247.352 215.689 247.189 216.21 247.189C216.703 247.189 217.083 247.345 217.35 247.659C217.618 247.968 217.756 248.352 217.765 248.813ZM216.196 247.7C215.896 247.7 215.657 247.779 215.477 247.935C215.297 248.087 215.187 248.283 215.145 248.523H217.157C217.138 248.288 217.044 248.092 216.873 247.935C216.703 247.779 216.477 247.7 216.196 247.7ZM218.206 247.79V247.279H221.206V247.79H220.003V250.763H219.416V247.79H218.206ZM224.201 250.763V250.396H224.049C223.809 250.701 223.447 250.853 222.963 250.853C222.581 250.853 222.276 250.742 222.051 250.521C221.825 250.3 221.712 250.032 221.712 249.719C221.712 249.401 221.823 249.129 222.044 248.903C222.265 248.677 222.599 248.564 223.046 248.564H224.18V248.426C224.18 248.205 224.111 248.03 223.973 247.901C223.834 247.767 223.62 247.7 223.33 247.7C222.823 247.7 222.553 247.868 222.521 248.205H221.933C221.956 247.887 222.092 247.638 222.341 247.458C222.594 247.279 222.919 247.189 223.316 247.189C223.763 247.189 224.113 247.292 224.367 247.5C224.625 247.707 224.754 248.004 224.754 248.392V250.763H224.201ZM223.108 250.341C223.399 250.341 223.65 250.247 223.862 250.058C224.074 249.864 224.18 249.629 224.18 249.353V249.035H223.136C222.578 249.035 222.3 249.256 222.3 249.698C222.3 249.896 222.369 250.053 222.507 250.168C222.65 250.283 222.85 250.341 223.108 250.341ZM112.711 257.359H113.368C113.262 257.816 113.041 258.18 112.704 258.452C112.368 258.719 111.937 258.853 111.412 258.853C110.693 258.853 110.133 258.615 109.732 258.141C109.331 257.666 109.13 257.051 109.13 256.295C109.13 255.539 109.333 254.924 109.739 254.449C110.144 253.974 110.704 253.737 111.419 253.737C111.916 253.737 112.331 253.861 112.663 254.11C112.995 254.354 113.211 254.691 113.313 255.12H112.656C112.462 254.576 112.05 254.304 111.419 254.304C110.875 254.304 110.462 254.495 110.181 254.878C109.9 255.26 109.759 255.733 109.759 256.295C109.759 256.862 109.898 257.336 110.174 257.719C110.455 258.097 110.868 258.286 111.412 258.286C111.753 258.286 112.034 258.205 112.255 258.044C112.476 257.878 112.628 257.65 112.711 257.359ZM114.521 255.707C114.83 255.361 115.249 255.189 115.779 255.189C116.309 255.189 116.726 255.361 117.031 255.707C117.339 256.053 117.494 256.491 117.494 257.021C117.494 257.551 117.339 257.989 117.031 258.334C116.726 258.68 116.309 258.853 115.779 258.853C115.249 258.853 114.83 258.68 114.521 258.334C114.217 257.989 114.065 257.551 114.065 257.021C114.065 256.491 114.217 256.053 114.521 255.707ZM114.943 257.961C115.136 258.214 115.415 258.341 115.779 258.341C116.143 258.341 116.422 258.214 116.616 257.961C116.809 257.703 116.906 257.389 116.906 257.021C116.906 256.652 116.809 256.341 116.616 256.087C116.422 255.829 116.143 255.7 115.779 255.7C115.415 255.7 115.136 255.829 114.943 256.087C114.749 256.341 114.652 256.652 114.652 257.021C114.652 257.389 114.749 257.703 114.943 257.961ZM118.411 258.763V255.279H121.024V255.79H118.998V258.763H118.411ZM121.048 258.763V258.21H121.166C121.41 258.21 121.585 258.097 121.691 257.871C121.797 257.641 121.85 257.226 121.85 256.627V255.279H124.519V258.763H123.924V255.79H122.396V256.64C122.396 257.429 122.299 257.979 122.106 258.293C121.917 258.606 121.603 258.763 121.166 258.763H121.048ZM127.867 258.763V258.396H127.715C127.476 258.701 127.114 258.853 126.63 258.853C126.247 258.853 125.943 258.742 125.717 258.521C125.491 258.3 125.379 258.032 125.379 257.719C125.379 257.401 125.489 257.129 125.71 256.903C125.932 256.677 126.266 256.564 126.713 256.564H127.847V256.426C127.847 256.205 127.777 256.03 127.639 255.901C127.501 255.767 127.287 255.7 126.996 255.7C126.489 255.7 126.22 255.868 126.187 256.205H125.6C125.623 255.887 125.759 255.638 126.008 255.458C126.261 255.279 126.586 255.189 126.982 255.189C127.429 255.189 127.78 255.292 128.033 255.5C128.291 255.707 128.42 256.004 128.42 256.392V258.763H127.867ZM126.775 258.341C127.065 258.341 127.317 258.247 127.529 258.058C127.741 257.864 127.847 257.629 127.847 257.353V257.035H126.803C126.245 257.035 125.966 257.256 125.966 257.698C125.966 257.896 126.035 258.053 126.174 258.168C126.316 258.283 126.517 258.341 126.775 258.341ZM131.854 257.712H132.441C132.372 258.062 132.209 258.341 131.951 258.549C131.697 258.751 131.372 258.853 130.976 258.853C130.45 258.853 130.036 258.682 129.731 258.341C129.432 257.995 129.282 257.555 129.282 257.021C129.282 256.481 129.432 256.041 129.731 255.7C130.031 255.359 130.446 255.189 130.976 255.189C131.377 255.189 131.702 255.29 131.951 255.493C132.204 255.691 132.361 255.956 132.421 256.288H131.833C131.709 255.896 131.423 255.7 130.976 255.7C130.602 255.7 130.324 255.825 130.139 256.074C129.96 256.318 129.87 256.629 129.87 257.007C129.87 257.389 129.962 257.707 130.146 257.961C130.331 258.214 130.607 258.341 130.976 258.341C131.464 258.341 131.757 258.131 131.854 257.712ZM134.147 258.763H133.318V255.279H133.891V257.975H134.043L135.571 255.279H136.429V258.763H135.855V256.067H135.703L134.147 258.763ZM140.585 256.813V257.014H137.93C137.94 257.433 138.039 257.76 138.228 257.995C138.417 258.226 138.689 258.341 139.043 258.341C139.523 258.341 139.818 258.161 139.928 257.802H140.523C140.463 258.115 140.304 258.369 140.046 258.562C139.792 258.756 139.458 258.853 139.043 258.853C138.513 258.853 138.099 258.68 137.799 258.334C137.5 257.989 137.35 257.539 137.35 256.986C137.35 256.442 137.5 256.007 137.799 255.68C138.099 255.352 138.509 255.189 139.03 255.189C139.523 255.189 139.903 255.345 140.17 255.659C140.438 255.968 140.576 256.352 140.585 256.813ZM139.016 255.7C138.716 255.7 138.477 255.779 138.297 255.935C138.117 256.087 138.007 256.283 137.965 256.523H139.977C139.958 256.288 139.864 256.092 139.693 255.935C139.523 255.779 139.297 255.7 139.016 255.7ZM146.528 258.763H145.941V257.228H144.012V258.763H143.424V255.279H144.012V256.716H145.941V255.279H146.528V258.763ZM149.883 258.763V258.396H149.731C149.491 258.701 149.13 258.853 148.646 258.853C148.263 258.853 147.959 258.742 147.733 258.521C147.507 258.3 147.394 258.032 147.394 257.719C147.394 257.401 147.505 257.129 147.726 256.903C147.947 256.677 148.281 256.564 148.729 256.564H149.862V256.426C149.862 256.205 149.793 256.03 149.655 255.901C149.517 255.767 149.302 255.7 149.012 255.7C148.505 255.7 148.235 255.868 148.203 256.205H147.616C147.639 255.887 147.775 255.638 148.023 255.458C148.277 255.279 148.602 255.189 148.998 255.189C149.445 255.189 149.795 255.292 150.049 255.5C150.307 255.707 150.436 256.004 150.436 256.392V258.763H149.883ZM148.791 258.341C149.081 258.341 149.332 258.247 149.544 258.058C149.756 257.864 149.862 257.629 149.862 257.353V257.035H148.818C148.261 257.035 147.982 257.256 147.982 257.698C147.982 257.896 148.051 258.053 148.189 258.168C148.332 258.283 148.533 258.341 148.791 258.341ZM153.678 255.707C153.987 255.361 154.406 255.189 154.936 255.189C155.466 255.189 155.884 255.361 156.188 255.707C156.496 256.053 156.651 256.491 156.651 257.021C156.651 257.551 156.496 257.989 156.188 258.334C155.884 258.68 155.466 258.853 154.936 258.853C154.406 258.853 153.987 258.68 153.678 258.334C153.374 257.989 153.222 257.551 153.222 257.021C153.222 256.491 153.374 256.053 153.678 255.707ZM154.1 257.961C154.293 258.214 154.572 258.341 154.936 258.341C155.3 258.341 155.579 258.214 155.773 257.961C155.966 257.703 156.063 257.389 156.063 257.021C156.063 256.652 155.966 256.341 155.773 256.087C155.579 255.829 155.3 255.7 154.936 255.7C154.572 255.7 154.293 255.829 154.1 256.087C153.906 256.341 153.81 256.652 153.81 257.021C153.81 257.389 153.906 257.703 154.1 257.961ZM159.158 255.313C159.67 255.313 160.073 255.481 160.368 255.818C160.663 256.15 160.81 256.571 160.81 257.083C160.81 257.59 160.654 258.012 160.34 258.348C160.031 258.684 159.614 258.853 159.089 258.853C158.536 258.853 158.107 258.671 157.803 258.307C157.503 257.942 157.354 257.422 157.354 256.744C157.354 256.481 157.361 256.246 157.374 256.039C157.393 255.832 157.43 255.615 157.485 255.389C157.545 255.163 157.623 254.972 157.72 254.815C157.817 254.654 157.951 254.513 158.121 254.394C158.292 254.274 158.494 254.195 158.729 254.159L159.656 254.006C159.785 253.988 159.87 253.963 159.912 253.93C159.958 253.898 159.985 253.834 159.995 253.737H160.541C160.531 253.953 160.478 254.126 160.382 254.255C160.285 254.38 160.11 254.465 159.856 254.511L158.785 254.691C158.494 254.742 158.28 254.864 158.142 255.057C158.008 255.246 157.921 255.5 157.879 255.818H158.031C158.174 255.629 158.333 255.497 158.508 255.424C158.688 255.35 158.905 255.313 159.158 255.313ZM158.232 257.975C158.43 258.219 158.711 258.341 159.075 258.341C159.439 258.341 159.718 258.219 159.912 257.975C160.11 257.726 160.209 257.426 160.209 257.076C160.209 256.726 160.11 256.428 159.912 256.184C159.718 255.94 159.439 255.818 159.075 255.818C158.711 255.818 158.43 255.94 158.232 256.184C158.038 256.428 157.941 256.726 157.941 257.076C157.941 257.426 158.038 257.726 158.232 257.975ZM163.4 255.7C163.036 255.7 162.761 255.827 162.577 256.08C162.397 256.334 162.307 256.647 162.307 257.021C162.307 257.394 162.397 257.707 162.577 257.961C162.761 258.214 163.036 258.341 163.4 258.341C163.741 258.341 164.004 258.221 164.188 257.982C164.377 257.737 164.471 257.417 164.471 257.021C164.471 256.624 164.377 256.306 164.188 256.067C164.004 255.822 163.741 255.7 163.4 255.7ZM161.727 255.279H162.294V255.652H162.446C162.695 255.343 163.056 255.189 163.531 255.189C164.001 255.189 164.372 255.361 164.644 255.707C164.921 256.053 165.059 256.491 165.059 257.021C165.059 257.56 164.921 258 164.644 258.341C164.372 258.682 164.001 258.853 163.531 258.853C163.052 258.853 162.697 258.698 162.466 258.39H162.314V260.145H161.727V255.279ZM168.199 258.763V258.396H168.047C167.807 258.701 167.446 258.853 166.962 258.853C166.579 258.853 166.275 258.742 166.049 258.521C165.823 258.3 165.71 258.032 165.71 257.719C165.71 257.401 165.821 257.129 166.042 256.903C166.263 256.677 166.598 256.564 167.045 256.564H168.178V256.426C168.178 256.205 168.109 256.03 167.971 255.901C167.833 255.767 167.618 255.7 167.328 255.7C166.821 255.7 166.552 255.868 166.519 256.205H165.932C165.955 255.887 166.091 255.638 166.34 255.458C166.593 255.279 166.918 255.189 167.314 255.189C167.761 255.189 168.112 255.292 168.365 255.5C168.623 255.707 168.752 256.004 168.752 256.392V258.763H168.199ZM167.107 258.341C167.397 258.341 167.648 258.247 167.86 258.058C168.072 257.864 168.178 257.629 168.178 257.353V257.035H167.135C166.577 257.035 166.298 257.256 166.298 257.698C166.298 257.896 166.367 258.053 166.505 258.168C166.648 258.283 166.849 258.341 167.107 258.341ZM171.418 255.313C171.93 255.313 172.333 255.481 172.628 255.818C172.923 256.15 173.071 256.571 173.071 257.083C173.071 257.59 172.914 258.012 172.6 258.348C172.292 258.684 171.875 258.853 171.349 258.853C170.796 258.853 170.367 258.671 170.063 258.307C169.764 257.942 169.614 257.422 169.614 256.744C169.614 256.481 169.621 256.246 169.635 256.039C169.653 255.832 169.69 255.615 169.745 255.389C169.805 255.163 169.884 254.972 169.98 254.815C170.077 254.654 170.211 254.513 170.381 254.394C170.552 254.274 170.755 254.195 170.99 254.159L171.916 254.006C172.045 253.988 172.13 253.963 172.172 253.93C172.218 253.898 172.246 253.834 172.255 253.737H172.801C172.792 253.953 172.739 254.126 172.642 254.255C172.545 254.38 172.37 254.465 172.117 254.511L171.045 254.691C170.755 254.742 170.54 254.864 170.402 255.057C170.268 255.246 170.181 255.5 170.139 255.818H170.291C170.434 255.629 170.593 255.497 170.768 255.424C170.948 255.35 171.165 255.313 171.418 255.313ZM170.492 257.975C170.69 258.219 170.971 258.341 171.335 258.341C171.699 258.341 171.978 258.219 172.172 257.975C172.37 257.726 172.469 257.426 172.469 257.076C172.469 256.726 172.37 256.428 172.172 256.184C171.978 255.94 171.699 255.818 171.335 255.818C170.971 255.818 170.69 255.94 170.492 256.184C170.298 256.428 170.202 256.726 170.202 257.076C170.202 257.426 170.298 257.726 170.492 257.975ZM174.229 255.707C174.538 255.361 174.957 255.189 175.487 255.189C176.017 255.189 176.434 255.361 176.738 255.707C177.047 256.053 177.202 256.491 177.202 257.021C177.202 257.551 177.047 257.989 176.738 258.334C176.434 258.68 176.017 258.853 175.487 258.853C174.957 258.853 174.538 258.68 174.229 258.334C173.925 257.989 173.773 257.551 173.773 257.021C173.773 256.491 173.925 256.053 174.229 255.707ZM174.651 257.961C174.844 258.214 175.123 258.341 175.487 258.341C175.851 258.341 176.13 258.214 176.324 257.961C176.517 257.703 176.614 257.389 176.614 257.021C176.614 256.652 176.517 256.341 176.324 256.087C176.13 255.829 175.851 255.7 175.487 255.7C175.123 255.7 174.844 255.829 174.651 256.087C174.457 256.341 174.36 256.652 174.36 257.021C174.36 257.389 174.457 257.703 174.651 257.961ZM177.692 255.79V255.279H180.692V255.79H179.489V258.763H178.902V255.79H177.692ZM183.873 258.763L183.099 257.228H182.055V258.763H181.467V255.279H182.055V256.716H183.113L183.839 255.279H184.454L183.604 256.958L184.502 258.763H183.873ZM186.276 260.145H185.681L186.4 258.438L184.914 255.279H185.543L186.608 257.574H186.781L187.749 255.279H188.364L186.276 260.145ZM194.056 258.763H193.469V255.79H191.567V258.763H190.98V255.279H194.056V258.763ZM198.214 256.813V257.014H195.559C195.568 257.433 195.667 257.76 195.856 257.995C196.045 258.226 196.317 258.341 196.672 258.341C197.151 258.341 197.446 258.161 197.557 257.802H198.151C198.092 258.115 197.933 258.369 197.674 258.562C197.421 258.756 197.087 258.853 196.672 258.853C196.142 258.853 195.727 258.68 195.428 258.334C195.128 257.989 194.978 257.539 194.978 256.986C194.978 256.442 195.128 256.007 195.428 255.68C195.727 255.352 196.137 255.189 196.658 255.189C197.151 255.189 197.532 255.345 197.799 255.659C198.066 255.968 198.204 256.352 198.214 256.813ZM196.644 255.7C196.345 255.7 196.105 255.779 195.925 255.935C195.746 256.087 195.635 256.283 195.594 256.523H197.605C197.587 256.288 197.492 256.092 197.322 255.935C197.151 255.779 196.926 255.7 196.644 255.7ZM200.802 255.7C200.437 255.7 200.163 255.827 199.979 256.08C199.799 256.334 199.709 256.647 199.709 257.021C199.709 257.394 199.799 257.707 199.979 257.961C200.163 258.214 200.437 258.341 200.802 258.341C201.143 258.341 201.405 258.221 201.59 257.982C201.779 257.737 201.873 257.417 201.873 257.021C201.873 256.624 201.779 256.306 201.59 256.067C201.405 255.822 201.143 255.7 200.802 255.7ZM199.129 255.279H199.695V255.652H199.848C200.096 255.343 200.458 255.189 200.933 255.189C201.403 255.189 201.774 255.361 202.046 255.707C202.323 256.053 202.461 256.491 202.461 257.021C202.461 257.56 202.323 258 202.046 258.341C201.774 258.682 201.403 258.853 200.933 258.853C200.454 258.853 200.099 258.698 199.868 258.39H199.716V260.145H199.129V255.279ZM205.739 257.712H206.327C206.258 258.062 206.094 258.341 205.836 258.549C205.583 258.751 205.258 258.853 204.861 258.853C204.336 258.853 203.921 258.682 203.617 258.341C203.317 257.995 203.168 257.555 203.168 257.021C203.168 256.481 203.317 256.041 203.617 255.7C203.916 255.359 204.331 255.189 204.861 255.189C205.262 255.189 205.587 255.29 205.836 255.493C206.09 255.691 206.246 255.956 206.306 256.288H205.719C205.594 255.896 205.308 255.7 204.861 255.7C204.488 255.7 204.209 255.825 204.025 256.074C203.845 256.318 203.755 256.629 203.755 257.007C203.755 257.389 203.847 257.707 204.032 257.961C204.216 258.214 204.493 258.341 204.861 258.341C205.35 258.341 205.642 258.131 205.739 257.712ZM207.445 255.707C207.754 255.361 208.173 255.189 208.703 255.189C209.233 255.189 209.65 255.361 209.955 255.707C210.263 256.053 210.418 256.491 210.418 257.021C210.418 257.551 210.263 257.989 209.955 258.334C209.65 258.68 209.233 258.853 208.703 258.853C208.173 258.853 207.754 258.68 207.445 258.334C207.141 257.989 206.989 257.551 206.989 257.021C206.989 256.491 207.141 256.053 207.445 255.707ZM207.867 257.961C208.06 258.214 208.339 258.341 208.703 258.341C209.067 258.341 209.346 258.214 209.54 257.961C209.733 257.703 209.83 257.389 209.83 257.021C209.83 256.652 209.733 256.341 209.54 256.087C209.346 255.829 209.067 255.7 208.703 255.7C208.339 255.7 208.06 255.829 207.867 256.087C207.673 256.341 207.576 256.652 207.576 257.021C207.576 257.389 207.673 257.703 207.867 257.961ZM214.439 258.763H213.851V257.228H211.922V258.763H211.335V255.279H211.922V256.716H213.851V255.279H214.439V258.763ZM217.794 258.763V258.396H217.642C217.402 258.701 217.04 258.853 216.556 258.853C216.174 258.853 215.87 258.742 215.644 258.521C215.418 258.3 215.305 258.032 215.305 257.719C215.305 257.401 215.416 257.129 215.637 256.903C215.858 256.677 216.192 256.564 216.639 256.564H217.773V256.426C217.773 256.205 217.704 256.03 217.566 255.901C217.427 255.767 217.213 255.7 216.923 255.7C216.416 255.7 216.146 255.868 216.114 256.205H215.526C215.549 255.887 215.685 255.638 215.934 255.458C216.188 255.279 216.512 255.189 216.909 255.189C217.356 255.189 217.706 255.292 217.96 255.5C218.218 255.707 218.347 256.004 218.347 256.392V258.763H217.794ZM216.701 258.341C216.992 258.341 217.243 258.247 217.455 258.058C217.667 257.864 217.773 257.629 217.773 257.353V257.035H216.729C216.171 257.035 215.893 257.256 215.893 257.698C215.893 257.896 215.962 258.053 216.1 258.168C216.243 258.283 216.443 258.341 216.701 258.341ZM219.029 258.763V258.21H219.146C219.391 258.21 219.566 258.097 219.672 257.871C219.778 257.641 219.831 257.226 219.831 256.627V255.279H222.499V258.763H221.905V255.79H220.377V256.64C220.377 257.429 220.28 257.979 220.086 258.293C219.898 258.606 219.584 258.763 219.146 258.763H219.029ZM224.216 255.279V256.44H225.247C225.666 256.44 225.989 256.541 226.214 256.744C226.445 256.947 226.56 257.23 226.56 257.594C226.56 257.963 226.445 258.251 226.214 258.459C225.989 258.661 225.666 258.763 225.247 258.763H223.629V255.279H224.216ZM224.216 258.251H225.164C225.454 258.251 225.661 258.196 225.786 258.085C225.91 257.975 225.972 257.811 225.972 257.594C225.972 257.378 225.91 257.214 225.786 257.104C225.661 256.993 225.454 256.938 225.164 256.938H224.216V258.251ZM230.5 258.763H229.912V257.228H227.984V258.763H227.396V255.279H227.984V256.716H229.912V255.279H230.5V258.763ZM231.636 255.279H232.223V256.44H233.184C233.604 256.44 233.926 256.541 234.152 256.744C234.383 256.947 234.498 257.23 234.498 257.594C234.498 257.963 234.383 258.251 234.152 258.459C233.926 258.661 233.604 258.763 233.184 258.763H231.636V255.279ZM232.223 256.938V258.251H233.101C233.392 258.251 233.599 258.196 233.724 258.085C233.848 257.975 233.91 257.811 233.91 257.594C233.91 257.378 233.848 257.214 233.724 257.104C233.599 256.993 233.392 256.938 233.101 256.938H232.223ZM235.058 255.279H235.645V258.763H235.058V255.279ZM239.11 258.763L238.246 257.304H237.997L237.112 258.763H236.469L237.555 256.979L236.58 255.279H237.202L238.004 256.661H238.253L239.069 255.279H239.684L238.695 256.958L239.774 258.763H239.11ZM245.623 258.251H246.266V259.751H245.692V258.763H242.678V259.751H242.104V258.251H242.567C242.853 257.643 242.996 256.97 242.996 256.233V255.279H245.623V258.251ZM245.035 258.251V255.79H243.542V256.233C243.542 257.021 243.415 257.694 243.162 258.251H245.035ZM249.248 258.763V258.396H249.096C248.856 258.701 248.494 258.853 248.01 258.853C247.628 258.853 247.324 258.742 247.098 258.521C246.872 258.3 246.759 258.032 246.759 257.719C246.759 257.401 246.87 257.129 247.091 256.903C247.312 256.677 247.646 256.564 248.093 256.564H249.227V256.426C249.227 256.205 249.158 256.03 249.02 255.901C248.881 255.767 248.667 255.7 248.377 255.7C247.87 255.7 247.6 255.868 247.568 256.205H246.98C247.003 255.887 247.139 255.638 247.388 255.458C247.642 255.279 247.967 255.189 248.363 255.189C248.81 255.189 249.16 255.292 249.414 255.5C249.672 255.707 249.801 256.004 249.801 256.392V258.763H249.248ZM248.155 258.341C248.446 258.341 248.697 258.247 248.909 258.058C249.121 257.864 249.227 257.629 249.227 257.353V257.035H248.183C247.625 257.035 247.347 257.256 247.347 257.698C247.347 257.896 247.416 258.053 247.554 258.168C247.697 258.283 247.897 258.341 248.155 258.341ZM253.981 258.763H253.393V257.228H251.464V258.763H250.877V255.279H251.464V256.716H253.393V255.279H253.981V258.763ZM258.221 258.763H257.633V257.228H255.704V258.763H255.117V255.279H255.704V256.716H257.633V255.279H258.221V258.763ZM259.356 255.279H259.944V256.44H260.905C261.324 256.44 261.647 256.541 261.873 256.744C262.103 256.947 262.218 257.23 262.218 257.594C262.218 257.963 262.103 258.251 261.873 258.459C261.647 258.661 261.324 258.763 260.905 258.763H259.356V255.279ZM259.944 256.938V258.251H260.822C261.112 258.251 261.32 258.196 261.444 258.085C261.569 257.975 261.631 257.811 261.631 257.594C261.631 257.378 261.569 257.214 261.444 257.104C261.32 256.993 261.112 256.938 260.822 256.938H259.944ZM262.778 255.279H263.366V258.763H262.778V255.279ZM266.831 258.763L265.966 257.304H265.718L264.833 258.763H264.19L265.275 256.979L264.3 255.279H264.923L265.724 256.661H265.973L266.789 255.279H267.404L266.416 256.958L267.494 258.763H266.831Z" fill="#4563FF"/>
<rect x="81.4433" y="69.185" width="188.732" height="32.4924" rx="1.72832" fill="white"/>
<path d="M99.4472 89.2092L97.8309 84.3312H98.6826L100.047 88.4349H100.444L101.76 84.3312H102.622L100.986 89.2092H99.4472ZM103.629 82.1729H104.452V89.2092H103.629V82.1729ZM109.146 89.2092V88.6962H108.933C108.633 89.0737 108.11 89.335 107.413 89.335C106.291 89.335 105.662 88.5801 105.662 87.7477C105.662 86.9638 106.175 86.1314 107.53 86.1314H109.117V85.9378C109.117 85.3474 108.778 84.9216 107.926 84.9216C107.201 84.9216 106.833 85.2023 106.794 85.6281H105.971C106.039 84.728 106.813 84.2054 107.907 84.2054C109.136 84.2054 109.92 84.7958 109.92 85.8894V89.2092H109.146ZM107.617 88.6188C108.43 88.6188 109.117 88.0091 109.117 87.2348V86.7896H107.655C106.852 86.7896 106.484 87.138 106.484 87.7187C106.484 88.2704 106.891 88.6188 107.617 88.6188ZM114.969 82.1729H115.792V89.2092H114.998V88.6866H114.785C114.514 89.0253 114.04 89.335 113.266 89.335C111.92 89.335 111.127 88.2123 111.127 86.7702C111.127 85.2991 111.92 84.2054 113.266 84.2054C114.04 84.2054 114.485 84.5054 114.756 84.8538H114.969V82.1729ZM113.449 88.6188C114.533 88.6188 114.979 87.7284 114.979 86.7702C114.979 85.812 114.533 84.9216 113.449 84.9216C112.472 84.9216 111.949 85.6862 111.949 86.7702C111.949 87.8542 112.472 88.6188 113.449 88.6188ZM118.252 83.0633H117.381V82.1729H118.252V83.0633ZM118.223 84.3312V89.2092H117.401V84.3312H118.223ZM124.959 84.2054C126.081 84.2054 126.565 84.9313 126.565 86.054V89.2092H125.743V86.1411C125.743 85.3378 125.433 84.9409 124.804 84.9409C124.039 84.9409 123.613 85.5313 123.613 86.354V89.2092H122.791V86.1604C122.791 85.3571 122.471 84.9409 121.861 84.9409C121.048 84.9409 120.661 85.6281 120.661 86.5089V89.2092H119.839V84.3312H120.632V84.8054H120.845C121.087 84.428 121.465 84.2054 122.084 84.2054C122.674 84.2054 123.11 84.4183 123.371 84.8538H123.584C123.884 84.4183 124.349 84.2054 124.959 84.2054ZM128.942 83.0633H128.071V82.1729H128.942V83.0633ZM128.913 84.3312V89.2092H128.09V84.3312H128.913ZM133.316 84.3312V85.1055H132.909C131.942 85.1055 131.351 85.6959 131.351 86.7702V89.2092H130.529V84.3312H131.322V84.9119H131.535C131.777 84.6119 132.242 84.3312 132.948 84.3312H133.316ZM140.26 89.8286L140.54 90.3126C139.834 90.7771 139.011 91.0481 138.014 91.0481C135.643 91.0481 134.152 89.4802 134.152 87.1573C134.152 84.5248 135.982 82.4923 138.701 82.4923C140.743 82.4923 142.515 83.7505 142.515 85.9669C142.515 87.4477 141.76 88.8511 140.366 88.8511C139.814 88.8511 139.466 88.6672 139.301 88.2994H139.117C138.875 88.5607 138.517 88.8511 137.869 88.8511C136.901 88.8511 136.32 88.1929 136.32 87.0993C136.32 85.8217 137.124 84.7087 138.392 84.7087C138.924 84.7087 139.292 84.9603 139.417 85.1829H139.611L139.688 84.8442H140.376L139.969 87.3025C139.969 87.3316 139.921 87.6509 139.921 87.7961C139.921 88.1349 140.134 88.2994 140.472 88.2994C141.198 88.2994 141.895 87.4574 141.895 85.9378C141.895 84.2344 140.598 83.0439 138.614 83.0439C136.436 83.0439 134.772 84.6893 134.772 87.1477C134.772 88.8995 135.749 90.4964 138.053 90.4964C138.895 90.4964 139.611 90.2448 140.26 89.8286ZM138.014 88.222C138.779 88.222 139.34 87.4864 139.34 86.4508C139.34 85.4926 138.846 85.3378 138.401 85.3378C137.598 85.3378 137.095 86.2379 137.095 87.0896C137.095 87.7381 137.356 88.222 138.014 88.222ZM148.966 84.2054C150.089 84.2054 150.573 84.9313 150.573 86.054V89.2092H149.75V86.1411C149.75 85.3378 149.44 84.9409 148.811 84.9409C148.047 84.9409 147.621 85.5313 147.621 86.354V89.2092H146.798V86.1604C146.798 85.3571 146.479 84.9409 145.869 84.9409C145.056 84.9409 144.669 85.6281 144.669 86.5089V89.2092H143.846V84.3312H144.64V84.8054H144.853C145.095 84.428 145.472 84.2054 146.091 84.2054C146.682 84.2054 147.117 84.4183 147.379 84.8538H147.592C147.892 84.4183 148.356 84.2054 148.966 84.2054ZM155.185 89.2092V88.6962H154.972C154.672 89.0737 154.15 89.335 153.453 89.335C152.33 89.335 151.701 88.5801 151.701 87.7477C151.701 86.9638 152.214 86.1314 153.569 86.1314H155.156V85.9378C155.156 85.3474 154.818 84.9216 153.966 84.9216C153.24 84.9216 152.872 85.2023 152.833 85.6281H152.011C152.079 84.728 152.853 84.2054 153.946 84.2054C155.176 84.2054 155.96 84.7958 155.96 85.8894V89.2092H155.185ZM153.656 88.6188C154.469 88.6188 155.156 88.0091 155.156 87.2348V86.7896H153.695C152.892 86.7896 152.524 87.138 152.524 87.7187C152.524 88.2704 152.93 88.6188 153.656 88.6188ZM158.337 83.0633H157.466V82.1729H158.337V83.0633ZM158.308 84.3312V89.2092H157.485V84.3312H158.308ZM159.923 82.1729H160.746V89.2092H159.923V82.1729ZM163.292 89.2092H162.285V88.0865H163.292V89.2092ZM167.616 84.3312V85.1055H167.21C166.242 85.1055 165.652 85.6959 165.652 86.7702V89.2092H164.829V84.3312H165.623V84.9119H165.835C166.077 84.6119 166.542 84.3312 167.249 84.3312H167.616ZM168.617 84.3312H169.44V87.2541C169.44 88.1542 169.856 88.5994 170.679 88.5994C171.54 88.5994 172.131 87.8542 172.131 86.9734V84.3312H172.953V89.2092H172.16V88.6866H171.947C171.676 89.064 171.134 89.335 170.476 89.335C169.275 89.335 168.617 88.5994 168.617 87.4283V84.3312Z" fill="black"/>
<rect x="81.4433" y="69.185" width="188.732" height="32.4924" rx="1.72832" stroke="#4563FF" stroke-width="0.691327"/>
<rect width="72.5306" height="8.98725" transform="translate(94.9242 64)" fill="white"/>
<path d="M98.0144 70.1524H98.6712C98.8302 70.6848 99.2865 71.0235 99.9709 71.0235C101.049 71.0235 101.561 70.1939 101.596 69.233H99.2796V68.6799H101.589C101.499 67.7881 101.008 67.0277 99.9778 67.0277C99.2934 67.0277 98.9132 67.3111 98.7265 67.8089H98.0697C98.2841 66.9793 98.9823 66.4677 99.9709 66.4677C101.437 66.4677 102.245 67.5738 102.245 69.0256C102.245 70.4705 101.437 71.5835 99.9709 71.5835C98.9132 71.5835 98.2011 71.0028 98.0144 70.1524ZM102.716 71.4936V70.9406H102.834C103.304 70.9406 103.518 70.5949 103.518 69.3574V68.0093H106.187V71.4936H105.592V68.5209H104.065V69.3712C104.065 70.9751 103.691 71.4936 102.834 71.4936H102.716ZM110.338 69.5441V69.7446H107.683C107.704 70.5742 108.077 71.0719 108.796 71.0719C109.287 71.0719 109.577 70.8645 109.681 70.5327H110.275C110.165 71.1272 109.66 71.5835 108.796 71.5835C107.711 71.5835 107.102 70.7885 107.102 69.7169C107.102 68.6454 107.724 67.9195 108.782 67.9195C109.819 67.9195 110.317 68.6868 110.338 69.5441ZM108.768 68.431C108.139 68.431 107.794 68.8113 107.718 69.2537H109.729C109.695 68.8113 109.356 68.431 108.768 68.431ZM113.658 71.4936L112.884 69.9589H111.84V71.4936H111.253V68.0093H111.84V69.4473H112.898L113.624 68.0093H114.239L113.389 69.6893L114.287 71.4936H113.658ZM114.761 68.5209V68.0093H117.762V68.5209H116.559V71.4936H115.971V68.5209H114.761ZM120.21 68.431C119.436 68.431 119.118 69.0671 119.118 69.7515C119.118 70.4359 119.436 71.0719 120.21 71.0719C120.908 71.0719 121.282 70.5258 121.282 69.7515C121.282 68.9772 120.908 68.431 120.21 68.431ZM118.537 68.0093H119.104V68.3827H119.256C119.45 68.1407 119.788 67.9195 120.341 67.9195C121.302 67.9195 121.869 68.7214 121.869 69.7515C121.869 70.8023 121.302 71.5835 120.341 71.5835C119.788 71.5835 119.463 71.3692 119.277 71.1203H119.125V72.8763H118.537V68.0093ZM124.291 67.9195C125.376 67.9195 126.005 68.7214 126.005 69.7515C126.005 70.7816 125.376 71.5835 124.291 71.5835C123.198 71.5835 122.576 70.7816 122.576 69.7515C122.576 68.7214 123.198 67.9195 124.291 67.9195ZM124.291 71.0719C125.058 71.0719 125.417 70.4359 125.417 69.7515C125.417 69.0671 125.058 68.431 124.291 68.431C123.516 68.431 123.164 69.0671 123.164 69.7515C123.164 70.4359 123.516 71.0719 124.291 71.0719ZM130.026 71.4936H129.439V69.9589H127.51V71.4936H126.922V68.0093H127.51V69.4473H129.439V68.0093H130.026V71.4936ZM134.266 71.4936H133.678V69.9589H131.75V71.4936H131.162V68.0093H131.75V69.4473H133.678V68.0093H134.266V71.4936ZM137.621 71.4936V71.1272H137.469C137.254 71.3968 136.881 71.5835 136.383 71.5835C135.581 71.5835 135.132 71.0443 135.132 70.4497C135.132 69.8897 135.498 69.2952 136.466 69.2952H137.6V69.1569C137.6 68.7352 137.358 68.431 136.75 68.431C136.231 68.431 135.969 68.6315 135.941 68.9357H135.353C135.402 68.2928 135.955 67.9195 136.736 67.9195C137.614 67.9195 138.174 68.3412 138.174 69.1224V71.4936H137.621ZM136.529 71.0719C137.109 71.0719 137.6 70.6364 137.6 70.0833V69.7653H136.556C135.982 69.7653 135.72 70.0142 135.72 70.429C135.72 70.823 136.01 71.0719 136.529 71.0719ZM140.377 68.0093H142.112V71.4936H141.517V70.1179H140.46C140.384 70.1179 140.321 70.1179 140.245 70.111L139.72 71.4936H139.105L139.692 69.9796C139.333 69.8068 139.153 69.5026 139.153 69.0671C139.153 68.4034 139.582 68.0093 140.377 68.0093ZM141.517 68.5071H140.439C139.914 68.5071 139.741 68.7214 139.741 69.074C139.741 69.4127 139.914 69.6201 140.439 69.6201H141.517V68.5071ZM148.24 71.4936H147.653V68.5209H145.752V71.4936H145.164V68.0093H148.24V71.4936ZM150.877 67.9195C151.962 67.9195 152.591 68.7214 152.591 69.7515C152.591 70.7816 151.962 71.5835 150.877 71.5835C149.785 71.5835 149.162 70.7816 149.162 69.7515C149.162 68.7214 149.785 67.9195 150.877 67.9195ZM150.877 71.0719C151.644 71.0719 152.004 70.4359 152.004 69.7515C152.004 69.0671 151.644 68.431 150.877 68.431C150.103 68.431 149.75 69.0671 149.75 69.7515C149.75 70.4359 150.103 71.0719 150.877 71.0719ZM153.308 68.0093H153.896V68.991C153.896 69.3298 153.916 69.6893 154.774 69.6893C155.099 69.6893 155.389 69.6547 155.645 69.5994V68.0093H156.239V71.4936H155.645V70.1179C155.347 70.1801 154.946 70.2147 154.649 70.2147C153.384 70.2147 153.308 69.6132 153.308 69.0394V68.0093ZM156.957 68.5209V68.0093H159.957V68.5209H158.754V71.4936H158.167V68.5209H156.957ZM162.952 71.4936V71.1272H162.799C162.585 71.3968 162.212 71.5835 161.714 71.5835C160.912 71.5835 160.463 71.0443 160.463 70.4497C160.463 69.8897 160.829 69.2952 161.797 69.2952H162.931V69.1569C162.931 68.7352 162.689 68.431 162.08 68.431C161.562 68.431 161.299 68.6315 161.272 68.9357H160.684C160.732 68.2928 161.285 67.9195 162.067 67.9195C162.945 67.9195 163.505 68.3412 163.505 69.1224V71.4936H162.952ZM161.859 71.0719C162.44 71.0719 162.931 70.6364 162.931 70.0833V69.7653H161.887C161.313 69.7653 161.05 70.0142 161.05 70.429C161.05 70.823 161.341 71.0719 161.859 71.0719Z" fill="#4563FF"/>
<rect x="81.4433" y="124.491" width="188.732" height="32.4924" rx="1.72832" fill="white"/>
<path d="M95.5727 141.07C95.5727 140.286 96.2114 139.647 96.9954 139.647C97.7794 139.647 98.4182 140.286 98.4182 141.07C98.4182 141.854 97.7794 142.493 96.9954 142.493C96.2114 142.493 95.5727 141.854 95.5727 141.07ZM99.722 141.07C99.722 140.286 100.361 139.647 101.145 139.647C101.929 139.647 102.567 140.286 102.567 141.07C102.567 141.854 101.929 142.493 101.145 142.493C100.361 142.493 99.722 141.854 99.722 141.07ZM103.871 141.07C103.871 140.286 104.51 139.647 105.294 139.647C106.078 139.647 106.717 140.286 106.717 141.07C106.717 141.854 106.078 142.493 105.294 142.493C104.51 142.493 103.871 141.854 103.871 141.07ZM108.021 141.07C108.021 140.286 108.659 139.647 109.443 139.647C110.227 139.647 110.866 140.286 110.866 141.07C110.866 141.854 110.227 142.493 109.443 142.493C108.659 142.493 108.021 141.854 108.021 141.07ZM112.17 141.07C112.17 140.286 112.809 139.647 113.593 139.647C114.377 139.647 115.015 140.286 115.015 141.07C115.015 141.854 114.377 142.493 113.593 142.493C112.809 142.493 112.17 141.854 112.17 141.07ZM116.319 141.07C116.319 140.286 116.958 139.647 117.742 139.647C118.526 139.647 119.165 140.286 119.165 141.07C119.165 141.854 118.526 142.493 117.742 142.493C116.958 142.493 116.319 141.854 116.319 141.07Z" fill="black"/>
<rect x="81.4433" y="124.491" width="188.732" height="32.4924" rx="1.72832" stroke="#4563FF" stroke-width="0.691327"/>
<rect width="31.5306" height="8.98725" transform="translate(94.9242 119.306)" fill="white"/>
<path d="M98.3186 121.864H102.273V126.8H101.651V122.431H98.9408V126.8H98.3186V121.864ZM105.688 126.8V126.433H105.535C105.321 126.703 104.948 126.89 104.45 126.89C103.648 126.89 103.199 126.35 103.199 125.756C103.199 125.196 103.565 124.601 104.533 124.601H105.667V124.463C105.667 124.041 105.425 123.737 104.816 123.737C104.298 123.737 104.035 123.938 104.008 124.242H103.42C103.468 123.599 104.021 123.226 104.803 123.226C105.681 123.226 106.241 123.647 106.241 124.429V126.8H105.688ZM104.595 126.378C105.176 126.378 105.667 125.943 105.667 125.389V125.071H104.623C104.049 125.071 103.786 125.32 103.786 125.735C103.786 126.129 104.077 126.378 104.595 126.378ZM108.99 123.737C108.215 123.737 107.897 124.373 107.897 125.058C107.897 125.742 108.215 126.378 108.99 126.378C109.688 126.378 110.061 125.832 110.061 125.058C110.061 124.283 109.688 123.737 108.99 123.737ZM107.317 123.315H107.883V123.689H108.036C108.229 123.447 108.568 123.226 109.121 123.226C110.082 123.226 110.649 124.028 110.649 125.058C110.649 126.108 110.082 126.89 109.121 126.89C108.568 126.89 108.243 126.675 108.056 126.426H107.904V128.182H107.317V123.315ZM113.07 123.226C114.155 123.226 114.785 124.028 114.785 125.058C114.785 126.088 114.155 126.89 113.07 126.89C111.978 126.89 111.356 126.088 111.356 125.058C111.356 124.028 111.978 123.226 113.07 123.226ZM113.07 126.378C113.837 126.378 114.197 125.742 114.197 125.058C114.197 124.373 113.837 123.737 113.07 123.737C112.296 123.737 111.943 124.373 111.943 125.058C111.943 125.742 112.296 126.378 113.07 126.378ZM115.308 126.8V126.247H115.425C115.895 126.247 116.109 125.901 116.109 124.664V123.315H118.778V126.8H118.183V123.827H116.656V124.677C116.656 126.281 116.282 126.8 115.425 126.8H115.308ZM120.495 123.315V124.477H121.525C122.376 124.477 122.839 124.912 122.839 125.631C122.839 126.357 122.376 126.8 121.525 126.8H119.908V123.315H120.495ZM120.495 126.288H121.442C122.051 126.288 122.251 126.039 122.251 125.631C122.251 125.217 122.051 124.975 121.442 124.975H120.495V126.288Z" fill="#4563FF"/>
<rect x="81.4433" y="179.797" width="188.732" height="32.4924" rx="1.72832" fill="white"/>
<path d="M95.5727 196.376C95.5727 195.592 96.2114 194.953 96.9954 194.953C97.7794 194.953 98.4182 195.592 98.4182 196.376C98.4182 197.16 97.7794 197.798 96.9954 197.798C96.2114 197.798 95.5727 197.16 95.5727 196.376ZM99.722 196.376C99.722 195.592 100.361 194.953 101.145 194.953C101.929 194.953 102.567 195.592 102.567 196.376C102.567 197.16 101.929 197.798 101.145 197.798C100.361 197.798 99.722 197.16 99.722 196.376ZM103.871 196.376C103.871 195.592 104.51 194.953 105.294 194.953C106.078 194.953 106.717 195.592 106.717 196.376C106.717 197.16 106.078 197.798 105.294 197.798C104.51 197.798 103.871 197.16 103.871 196.376ZM108.021 196.376C108.021 195.592 108.659 194.953 109.443 194.953C110.227 194.953 110.866 195.592 110.866 196.376C110.866 197.16 110.227 197.798 109.443 197.798C108.659 197.798 108.021 197.16 108.021 196.376ZM112.17 196.376C112.17 195.592 112.809 194.953 113.593 194.953C114.377 194.953 115.015 195.592 115.015 196.376C115.015 197.16 114.377 197.798 113.593 197.798C112.809 197.798 112.17 197.16 112.17 196.376ZM116.319 196.376C116.319 195.592 116.958 194.953 117.742 194.953C118.526 194.953 119.165 195.592 119.165 196.376C119.165 197.16 118.526 197.798 117.742 197.798C116.958 197.798 116.319 197.16 116.319 196.376Z" fill="black"/>
<rect x="81.4433" y="179.797" width="188.732" height="32.4924" rx="1.72832" stroke="#4563FF" stroke-width="0.691327"/>
<rect width="68.5306" height="8.98725" transform="translate(94.9242 174.612)" fill="white"/>
<path d="M98.3186 177.17H102.273V182.106H101.651V177.736H98.9408V182.106H98.3186V177.17ZM104.969 178.532C106.054 178.532 106.683 179.333 106.683 180.364C106.683 181.394 106.054 182.196 104.969 182.196C103.876 182.196 103.254 181.394 103.254 180.364C103.254 179.333 103.876 178.532 104.969 178.532ZM104.969 181.684C105.736 181.684 106.095 181.048 106.095 180.364C106.095 179.679 105.736 179.043 104.969 179.043C104.194 179.043 103.842 179.679 103.842 180.364C103.842 181.048 104.194 181.684 104.969 181.684ZM110.054 180.184V180.336C110.379 180.419 110.621 180.702 110.621 181.152C110.621 181.788 110.186 182.106 109.391 182.106H107.6V178.621H109.328C110.027 178.621 110.428 178.946 110.428 179.499C110.428 179.838 110.248 180.08 110.054 180.184ZM108.181 181.608H109.356C109.861 181.608 110.034 181.387 110.034 181.089C110.034 180.792 109.861 180.564 109.356 180.564H108.181V181.608ZM108.181 179.119V180.066H109.273C109.695 180.066 109.84 179.845 109.84 179.596C109.84 179.327 109.695 179.119 109.273 179.119H108.181ZM111.015 179.133V178.621H114.015V179.133H112.812V182.106H112.224V179.133H111.015ZM116.236 178.532C117.322 178.532 117.951 179.333 117.951 180.364C117.951 181.394 117.322 182.196 116.236 182.196C115.144 182.196 114.522 181.394 114.522 180.364C114.522 179.333 115.144 178.532 116.236 178.532ZM116.236 181.684C117.004 181.684 117.363 181.048 117.363 180.364C117.363 179.679 117.004 179.043 116.236 179.043C115.462 179.043 115.109 179.679 115.109 180.364C115.109 181.048 115.462 181.684 116.236 181.684ZM120.541 179.043C119.767 179.043 119.449 179.679 119.449 180.364C119.449 181.048 119.767 181.684 120.541 181.684C121.239 181.684 121.612 181.138 121.612 180.364C121.612 179.589 121.239 179.043 120.541 179.043ZM118.868 178.621H119.435V178.995H119.587C119.78 178.753 120.119 178.532 120.672 178.532C121.633 178.532 122.2 179.333 122.2 180.364C122.2 181.414 121.633 182.196 120.672 182.196C120.119 182.196 119.794 181.981 119.608 181.732H119.456V183.488H118.868V178.621ZM123.951 182.106H123.121V178.621H123.695V181.318H123.847L125.375 178.621H126.232V182.106H125.658V179.41H125.506L123.951 182.106ZM127.008 179.133V178.621H130.009V179.133H128.806V182.106H128.218V179.133H127.008ZM133.751 180.156V180.357H131.096C131.117 181.186 131.49 181.684 132.209 181.684C132.7 181.684 132.99 181.477 133.094 181.145H133.689C133.578 181.739 133.073 182.196 132.209 182.196C131.124 182.196 130.516 181.401 130.516 180.329C130.516 179.257 131.138 178.532 132.195 178.532C133.232 178.532 133.73 179.299 133.751 180.156ZM132.182 179.043C131.553 179.043 131.207 179.423 131.131 179.866H133.143C133.108 179.423 132.769 179.043 132.182 179.043ZM139.666 182.106H139.079V179.133H137.178V182.106H136.59V178.621H139.666V182.106ZM143.022 182.106V181.739H142.87C142.655 182.009 142.282 182.196 141.784 182.196C140.982 182.196 140.533 181.656 140.533 181.062C140.533 180.502 140.899 179.907 141.867 179.907H143.001V179.769C143.001 179.347 142.759 179.043 142.151 179.043C141.632 179.043 141.37 179.244 141.342 179.548H140.754C140.803 178.905 141.356 178.532 142.137 178.532C143.015 178.532 143.575 178.953 143.575 179.734V182.106H143.022ZM141.93 181.684C142.51 181.684 143.001 181.248 143.001 180.695V180.377H141.957C141.383 180.377 141.121 180.626 141.121 181.041C141.121 181.435 141.411 181.684 141.93 181.684ZM146.324 179.043C145.55 179.043 145.232 179.679 145.232 180.364C145.232 181.048 145.55 181.684 146.324 181.684C147.022 181.684 147.395 181.138 147.395 180.364C147.395 179.589 147.022 179.043 146.324 179.043ZM144.651 178.621H145.218V178.995H145.37C145.563 178.753 145.902 178.532 146.455 178.532C147.416 178.532 147.983 179.333 147.983 180.364C147.983 181.414 147.416 182.196 146.455 182.196C145.902 182.196 145.577 181.981 145.391 181.732H145.239V183.488H144.651V178.621ZM150.404 178.532C151.49 178.532 152.119 179.333 152.119 180.364C152.119 181.394 151.49 182.196 150.404 182.196C149.312 182.196 148.69 181.394 148.69 180.364C148.69 179.333 149.312 178.532 150.404 178.532ZM150.404 181.684C151.172 181.684 151.531 181.048 151.531 180.364C151.531 179.679 151.172 179.043 150.404 179.043C149.63 179.043 149.277 179.679 149.277 180.364C149.277 181.048 149.63 181.684 150.404 181.684ZM152.642 182.106V181.553H152.759C153.23 181.553 153.444 181.207 153.444 179.969V178.621H156.112V182.106H155.518V179.133H153.99V179.983C153.99 181.587 153.617 182.106 152.759 182.106H152.642ZM157.83 178.621V179.783H158.86C159.71 179.783 160.173 180.218 160.173 180.937C160.173 181.663 159.71 182.106 158.86 182.106H157.242V178.621H157.83ZM157.83 181.594H158.777C159.385 181.594 159.586 181.345 159.586 180.937C159.586 180.523 159.385 180.281 158.777 180.281H157.83V181.594Z" fill="#4563FF"/>
<rect x="81.4433" y="237.491" width="13.1352" height="13.1352" rx="1.72832" fill="#4563FF" stroke="#4563FF" stroke-width="0.691327"/>
<path d="M91.8132 240.948L87.1593 247.515C87.1593 247.515 86.134 246.032 84.5543 244.223" stroke="white" stroke-width="1.38265" stroke-linecap="round" stroke-linejoin="round"/>
<rect x="48.3087" y="-0.691327" width="256.383" height="398.383" rx="4.14796" stroke="#E0E3F0" stroke-width="1.38265"/>
<g filter="url(#filter2_i_20014_225105)">
<circle cx="176" cy="204" r="176" fill="#4563FF" fill-opacity="0.01"/>
</g>
</g>
<defs>
<filter id="filter0_i_20014_225105" x="0" y="-11" width="352" height="392" filterUnits="userSpaceOnUse" color-interpolation-filters="sRGB">
<feFlood flood-opacity="0" result="BackgroundImageFix"/>
<feBlend mode="normal" in="SourceGraphic" in2="BackgroundImageFix" result="shape"/>
<feColorMatrix in="SourceAlpha" type="matrix" values="0 0 0 0 0 0 0 0 0 0 0 0 0 0 0 0 0 0 127 0" result="hardAlpha"/>
<feOffset dy="-40"/>
<feGaussianBlur stdDeviation="20"/>
<feComposite in2="hardAlpha" operator="arithmetic" k2="-1" k3="1"/>
<feColorMatrix type="matrix" values="0 0 0 0 0.241875 0 0 0 0 0.311734 0 0 0 0 0.675 0 0 0 0.04 0"/>
<feBlend mode="normal" in2="shape" result="effect1_innerShadow_20014_225105"/>
</filter>
<filter id="filter1_d_20014_225105" x="58.2831" y="278.587" width="257.173" height="102.316" filterUnits="userSpaceOnUse" color-interpolation-filters="sRGB">
<feFlood flood-opacity="0" result="BackgroundImageFix"/>
<feColorMatrix in="SourceAlpha" type="matrix" values="0 0 0 0 0 0 0 0 0 0 0 0 0 0 0 0 0 0 127 0" result="hardAlpha"/>
<feOffset dx="10.3699" dy="10.3699"/>
<feGaussianBlur stdDeviation="17.2832"/>
<feColorMatrix type="matrix" values="0 0 0 0 0.193333 0 0 0 0 0.205161 0 0 0 0 0.266667 0 0 0 0.1 0"/>
<feBlend mode="normal" in2="BackgroundImageFix" result="effect1_dropShadow_20014_225105"/>
<feBlend mode="normal" in="SourceGraphic" in2="effect1_dropShadow_20014_225105" result="shape"/>
</filter>
<filter id="filter2_i_20014_225105" x="0" y="-12" width="352" height="392" filterUnits="userSpaceOnUse" color-interpolation-filters="sRGB">
<feFlood flood-opacity="0" result="BackgroundImageFix"/>
<feBlend mode="normal" in="SourceGraphic" in2="BackgroundImageFix" result="shape"/>
<feColorMatrix in="SourceAlpha" type="matrix" values="0 0 0 0 0 0 0 0 0 0 0 0 0 0 0 0 0 0 127 0" result="hardAlpha"/>
<feOffset dy="-40"/>
<feGaussianBlur stdDeviation="20"/>
<feComposite in2="hardAlpha" operator="arithmetic" k2="-1" k3="1"/>
<feColorMatrix type="matrix" values="0 0 0 0 0.241875 0 0 0 0 0.311734 0 0 0 0 0.675 0 0 0 0.04 0"/>
<feBlend mode="normal" in2="shape" result="effect1_innerShadow_20014_225105"/>
</filter>
</defs>
</svg>
