<svg width="109" height="57" viewBox="0 0 109 57" fill="none" xmlns="http://www.w3.org/2000/svg">
<g filter="url(#filter0_i_20258_37366)">
<path d="M46.0893 35.2537L29.1963 6.13645C38.6038 1.27906 49.261 -0.770861 59.8573 0.259995C67.6997 1.02295 75.2397 3.44726 81.9781 7.32191L64.9012 36.2671C62.3501 34.7888 59.491 33.8643 56.5163 33.5749C52.9405 33.227 49.3463 33.8113 46.0893 35.2537Z" fill="white"/>
</g>
<path d="M34.0625 53.7122C34.0625 53.7961 34.0625 53.8801 34.0625 53.964H0C0 34.0737 10.9 16.5333 27.1648 7.21765L44.1961 36.3397C38.15 39.8645 34.0625 46.3268 34.0625 53.7122Z" fill="#FD2232"/>
<path d="M108.915 50.7748V51.1105C109 51.9497 109 52.8729 109 53.7121V53.9639H74.9373V52.5372C74.8521 52.3693 74.8521 52.1176 74.8521 51.9497C74.8521 51.8238 74.8309 51.7189 74.8096 51.614C74.7883 51.5091 74.767 51.4042 74.767 51.2783C74.767 51.1397 74.7412 51.0265 74.718 50.9248C74.699 50.8417 74.6818 50.7663 74.6818 50.6908C74.6818 50.4391 74.6818 50.1873 74.5967 49.9355C74.5541 49.8096 74.5328 49.6837 74.5115 49.5578C74.4902 49.432 74.4689 49.3061 74.4264 49.1802C74.3803 49.0893 74.3591 48.9738 74.3359 48.8471C74.3162 48.7397 74.2951 48.6242 74.2561 48.5088C74.2135 48.4249 74.1922 48.3409 74.1709 48.257C74.1496 48.1731 74.1283 48.0892 74.0857 48.0052C74.0432 47.9213 74.0219 47.8164 74.0006 47.7115C73.9793 47.6066 73.958 47.5017 73.9154 47.4178C73.8729 47.3338 73.8516 47.2499 73.8303 47.166C73.809 47.0821 73.7877 46.9981 73.7451 46.9142C73.7025 46.7883 73.66 46.6834 73.6174 46.5785C73.5748 46.4736 73.5322 46.3687 73.4897 46.2428C73.4897 46.2008 73.4684 46.1799 73.4471 46.1589C73.4258 46.1379 73.4045 46.1169 73.4045 46.075L59.8647 51.8658C59.524 54.4675 57.31 56.5656 54.4998 56.5656C51.5194 56.5656 49.135 54.2157 49.135 51.2783C49.135 48.3409 51.5194 45.991 54.4998 45.991C55.692 45.991 56.799 46.4107 57.7358 47.0821L95.4599 34.0737L95.1193 33.1505L70.0834 40.8716C70.0834 40.8296 70.0621 40.8087 70.0408 40.7877C70.0195 40.7667 69.9982 40.7457 69.9982 40.7037C69.9557 40.6198 69.8918 40.5569 69.8279 40.4939C69.7641 40.431 69.7002 40.368 69.6576 40.2841C69.4873 40.0324 69.317 39.8645 69.1467 39.6967L68.7209 39.277C68.6045 39.105 68.4484 38.9721 68.3068 38.8516C68.2412 38.7958 68.1787 38.7427 68.1248 38.6895C68.0654 38.5725 67.9647 38.4963 67.8802 38.4324C67.8436 38.4047 67.81 38.3793 67.7842 38.3538C67.5287 38.2699 67.3584 38.1021 67.1881 37.9342C67.1455 37.8923 67.0816 37.8503 67.0178 37.8083C66.9539 37.7664 66.89 37.7244 66.8475 37.6824C66.7197 37.5985 66.5707 37.4936 66.4217 37.3887C66.2726 37.2838 66.1236 37.1789 65.9959 37.095C65.9533 37.095 65.932 37.074 65.9107 37.053C65.8895 37.032 65.8682 37.011 65.8256 37.011C65.6553 36.9271 65.5063 36.8222 65.3572 36.7173C65.2082 36.6124 65.0592 36.5075 64.8889 36.4236C61.9084 34.5772 58.3319 33.5701 54.4998 33.5701C51.5394 33.5701 48.663 34.1497 46.1209 35.3089L45.2885 33.8743C48.0808 32.6343 51.2066 31.8916 54.4998 31.8916C58.5873 31.8916 62.3342 32.9826 65.6553 34.9129L80.9834 8.72827C73.2342 4.28024 64.1225 1.67856 54.4998 1.67856C45.6984 1.67856 37.3176 3.83366 30.0259 7.56724L29.1924 6.13054C36.7348 2.23543 45.3653 6.10352e-05 54.4998 6.10352e-05C64.4631 6.10352e-05 73.8303 2.68567 81.835 7.21762C81.9953 7.2703 82.1221 7.35605 82.2364 7.43336C82.3042 7.4792 82.3676 7.52208 82.431 7.55332C82.6014 7.72117 82.7717 7.8051 82.942 7.72117C83.5381 8.05687 84.2193 8.4765 84.8154 8.89612C84.9006 8.89612 84.9857 8.98005 85.0709 9.06397C85.3264 9.27379 85.6031 9.46262 85.8799 9.65146C86.1566 9.84029 86.4334 10.0291 86.6889 10.2389C86.774 10.2809 86.8592 10.3438 86.9443 10.4068C87.0295 10.4697 87.1146 10.5327 87.1998 10.5746C87.4978 10.8264 87.7959 11.0572 88.094 11.288C88.392 11.5188 88.69 11.7496 88.9881 12.0014L89.1584 12.1692C89.4139 12.421 89.6906 12.6518 89.9674 12.8826C90.2441 13.1134 90.5209 13.3442 90.7764 13.5959L91.117 13.9316C91.713 14.4352 92.2239 14.9387 92.82 15.5261L92.9053 15.6101C93.5014 16.1976 94.0123 16.7012 94.5232 17.2886C94.642 17.3472 94.7193 17.4465 94.7841 17.5297C94.8123 17.5658 94.8381 17.5989 94.8639 17.6243C95.9709 18.7993 96.9928 20.0582 97.9295 21.317C98.0146 21.4849 98.0998 21.5688 98.1849 21.6527C99.1217 22.9116 100.058 24.2544 100.91 25.5972C100.942 25.6613 100.963 25.7132 100.98 25.7575C101.008 25.8292 101.028 25.8811 101.08 25.9329C101.932 27.3597 102.783 28.7864 103.465 30.2131C103.497 30.2772 103.517 30.3291 103.534 30.3734C103.562 30.4451 103.582 30.4969 103.635 30.5488C104.401 32.0595 104.997 33.5701 105.594 35.0808C105.594 35.1791 105.623 35.2486 105.647 35.3062C105.664 35.3469 105.679 35.3817 105.679 35.4165C106.275 36.9271 106.786 38.5217 107.212 40.1163C107.212 40.1582 107.233 40.2212 107.254 40.2841C107.275 40.3471 107.297 40.41 107.297 40.452C107.722 42.1305 108.063 43.725 108.319 45.4036C108.404 45.4875 108.404 45.6553 108.404 45.7393C108.659 47.3338 108.829 49.0963 108.915 50.7748Z" fill="#6FE566"/>
<defs>
<filter id="filter0_i_20258_37366" x="29.1963" y="0" width="52.7822" height="36.2672" filterUnits="userSpaceOnUse" color-interpolation-filters="sRGB">
<feFlood flood-opacity="0" result="BackgroundImageFix"/>
<feBlend mode="normal" in="SourceGraphic" in2="BackgroundImageFix" result="shape"/>
<feColorMatrix in="SourceAlpha" type="matrix" values="0 0 0 0 0 0 0 0 0 0 0 0 0 0 0 0 0 0 127 0" result="hardAlpha"/>
<feOffset/>
<feGaussianBlur stdDeviation="7.5"/>
<feComposite in2="hardAlpha" operator="arithmetic" k2="-1" k3="1"/>
<feColorMatrix type="matrix" values="0 0 0 0 0.886275 0 0 0 0 0.894118 0 0 0 0 0.92549 0 0 0 1 0"/>
<feBlend mode="normal" in2="shape" result="effect1_innerShadow_20258_37366"/>
</filter>
</defs>
</svg>
