<svg width="468" height="445" viewBox="0 0 468 445" fill="none" xmlns="http://www.w3.org/2000/svg">
<circle cx="240" cy="208" r="176" fill="#ECEEF6"/>
<g filter="url(#filter0_f_20018_13069)">
<circle cx="240" cy="209" r="176" fill="#4563FF" fill-opacity="0.01"/>
</g>
<rect x="64.5" y="82.5" width="351" height="251" rx="4.5" fill="white"/>
<path d="M99.432 229.822C100.897 229.822 102.041 230.312 102.862 231.292C103.683 232.272 104.094 233.509 104.094 235.002C104.094 236.495 103.683 237.732 102.862 238.712C102.041 239.692 100.897 240.182 99.432 240.182C97.9573 240.182 96.8093 239.697 95.988 238.726C95.176 237.746 94.77 236.505 94.77 235.002C94.77 233.499 95.176 232.263 95.988 231.292C96.8093 230.312 97.9573 229.822 99.432 229.822ZM96.898 237.872C97.4673 238.647 98.312 239.034 99.432 239.034C100.552 239.034 101.397 238.647 101.966 237.872C102.535 237.097 102.82 236.141 102.82 235.002C102.82 233.863 102.535 232.907 101.966 232.132C101.397 231.357 100.552 230.97 99.432 230.97C98.312 230.97 97.4673 231.357 96.898 232.132C96.3287 232.907 96.044 233.863 96.044 235.002C96.044 236.141 96.3287 237.097 96.898 237.872ZM111.001 232.944H112.191V238.964H113.479V242.002H112.331V240H106.017V232.944H107.207V238.964H111.001V232.944ZM121.131 236.052V236.458H115.755C115.774 237.307 115.975 237.97 116.357 238.446C116.74 238.913 117.291 239.146 118.009 239.146C118.98 239.146 119.577 238.782 119.801 238.054H121.005C120.884 238.689 120.562 239.202 120.039 239.594C119.526 239.986 118.849 240.182 118.009 240.182C116.936 240.182 116.096 239.832 115.489 239.132C114.883 238.432 114.579 237.522 114.579 236.402C114.579 235.301 114.883 234.419 115.489 233.756C116.096 233.093 116.927 232.762 117.981 232.762C118.98 232.762 119.75 233.079 120.291 233.714C120.833 234.339 121.113 235.119 121.131 236.052ZM117.953 233.798C117.347 233.798 116.861 233.957 116.497 234.274C116.133 234.582 115.909 234.979 115.825 235.464H119.899C119.862 234.988 119.671 234.591 119.325 234.274C118.98 233.957 118.523 233.798 117.953 233.798ZM129.27 240H128.08V236.892H124.174V240H122.984V232.944H124.174V235.856H128.08V232.944H129.27V240ZM136.442 240L134.874 236.892H132.76V240H131.57V232.944H132.76V235.856H134.902L136.372 232.944H137.618L135.896 236.346L137.716 240H136.442ZM143.898 240V239.258H143.59C143.105 239.874 142.372 240.182 141.392 240.182C140.617 240.182 140.001 239.958 139.544 239.51C139.087 239.062 138.858 238.521 138.858 237.886C138.858 237.242 139.082 236.691 139.53 236.234C139.978 235.777 140.655 235.548 141.56 235.548H143.856V235.268C143.856 234.82 143.716 234.465 143.436 234.204C143.156 233.933 142.722 233.798 142.134 233.798C141.107 233.798 140.561 234.139 140.496 234.82H139.306C139.353 234.176 139.628 233.672 140.132 233.308C140.645 232.944 141.303 232.762 142.106 232.762C143.011 232.762 143.721 232.972 144.234 233.392C144.757 233.812 145.018 234.414 145.018 235.198V240H143.898ZM141.686 239.146C142.274 239.146 142.783 238.955 143.212 238.572C143.641 238.18 143.856 237.704 143.856 237.144V236.5H141.742C140.613 236.5 140.048 236.948 140.048 237.844C140.048 238.245 140.188 238.563 140.468 238.796C140.757 239.029 141.163 239.146 141.686 239.146ZM155.965 240L154.397 236.892H152.283V240H151.093V232.944H152.283V235.856H154.425L155.895 232.944H157.141L155.419 236.346L157.239 240H155.965ZM162.315 233.798C161.578 233.798 161.023 234.055 160.649 234.568C160.285 235.081 160.103 235.716 160.103 236.472C160.103 237.228 160.285 237.863 160.649 238.376C161.023 238.889 161.578 239.146 162.315 239.146C163.006 239.146 163.538 238.903 163.911 238.418C164.294 237.923 164.485 237.275 164.485 236.472C164.485 235.669 164.294 235.025 163.911 234.54C163.538 234.045 163.006 233.798 162.315 233.798ZM158.927 232.944H160.075V233.7H160.383C160.887 233.075 161.62 232.762 162.581 232.762C163.533 232.762 164.285 233.112 164.835 233.812C165.395 234.512 165.675 235.399 165.675 236.472C165.675 237.564 165.395 238.455 164.835 239.146C164.285 239.837 163.533 240.182 162.581 240.182C161.611 240.182 160.892 239.869 160.425 239.244H160.117V242.8H158.927V232.944ZM173.659 236.052V236.458H168.283C168.301 237.307 168.502 237.97 168.885 238.446C169.267 238.913 169.818 239.146 170.537 239.146C171.507 239.146 172.105 238.782 172.329 238.054H173.533C173.411 238.689 173.089 239.202 172.567 239.594C172.053 239.986 171.377 240.182 170.537 240.182C169.463 240.182 168.623 239.832 168.017 239.132C167.41 238.432 167.107 237.522 167.107 236.402C167.107 235.301 167.41 234.419 168.017 233.756C168.623 233.093 169.454 232.762 170.509 232.762C171.507 232.762 172.277 233.079 172.819 233.714C173.36 234.339 173.64 235.119 173.659 236.052ZM170.481 233.798C169.874 233.798 169.389 233.957 169.025 234.274C168.661 234.582 168.437 234.979 168.353 235.464H172.427C172.389 234.988 172.198 234.591 171.853 234.274C171.507 233.957 171.05 233.798 170.481 233.798ZM181.797 238.964H183.099V242.002H181.937V240H175.833V242.002H174.671V238.964H175.609C176.188 237.732 176.477 236.369 176.477 234.876V232.944H181.797V238.964ZM180.607 238.964V233.98H177.583V234.876C177.583 236.472 177.327 237.835 176.813 238.964H180.607ZM186.324 240H184.644V232.944H185.806V238.404H186.114L189.208 232.944H190.944V240H189.782V234.54H189.474L186.324 240ZM192.516 233.98V232.944H198.592V233.98H196.156V240H194.966V233.98H192.516ZM200.542 233.812C201.168 233.112 202.017 232.762 203.09 232.762C204.164 232.762 205.008 233.112 205.624 233.812C206.25 234.512 206.562 235.399 206.562 236.472C206.562 237.545 206.25 238.432 205.624 239.132C205.008 239.832 204.164 240.182 203.09 240.182C202.017 240.182 201.168 239.832 200.542 239.132C199.926 238.432 199.618 237.545 199.618 236.472C199.618 235.399 199.926 234.512 200.542 233.812ZM201.396 238.376C201.788 238.889 202.353 239.146 203.09 239.146C203.828 239.146 204.392 238.889 204.784 238.376C205.176 237.853 205.372 237.219 205.372 236.472C205.372 235.725 205.176 235.095 204.784 234.582C204.392 234.059 203.828 233.798 203.09 233.798C202.353 233.798 201.788 234.059 201.396 234.582C201.004 235.095 200.808 235.725 200.808 236.472C200.808 237.219 201.004 237.853 201.396 238.376ZM213.193 237.872H214.383C214.243 238.581 213.912 239.146 213.389 239.566C212.876 239.977 212.218 240.182 211.415 240.182C210.351 240.182 209.511 239.837 208.895 239.146C208.289 238.446 207.985 237.555 207.985 236.472C207.985 235.38 208.289 234.489 208.895 233.798C209.502 233.107 210.342 232.762 211.415 232.762C212.227 232.762 212.885 232.967 213.389 233.378C213.903 233.779 214.22 234.316 214.341 234.988H213.151C212.899 234.195 212.321 233.798 211.415 233.798C210.659 233.798 210.095 234.05 209.721 234.554C209.357 235.049 209.175 235.679 209.175 236.444C209.175 237.219 209.362 237.863 209.735 238.376C210.109 238.889 210.669 239.146 211.415 239.146C212.405 239.146 212.997 238.721 213.193 237.872ZM222.388 240H221.198V233.98H217.348V240H216.158V232.944H222.388V240ZM225.179 233.812C225.804 233.112 226.654 232.762 227.727 232.762C228.8 232.762 229.645 233.112 230.261 233.812C230.886 234.512 231.199 235.399 231.199 236.472C231.199 237.545 230.886 238.432 230.261 239.132C229.645 239.832 228.8 240.182 227.727 240.182C226.654 240.182 225.804 239.832 225.179 239.132C224.563 238.432 224.255 237.545 224.255 236.472C224.255 235.399 224.563 234.512 225.179 233.812ZM226.033 238.376C226.425 238.889 226.99 239.146 227.727 239.146C228.464 239.146 229.029 238.889 229.421 238.376C229.813 237.853 230.009 237.219 230.009 236.472C230.009 235.725 229.813 235.095 229.421 234.582C229.029 234.059 228.464 233.798 227.727 233.798C226.99 233.798 226.425 234.059 226.033 234.582C225.641 235.095 225.445 235.725 225.445 236.472C225.445 237.219 225.641 237.853 226.033 238.376ZM237.83 237.872H239.02C238.88 238.581 238.549 239.146 238.026 239.566C237.513 239.977 236.855 240.182 236.052 240.182C234.988 240.182 234.148 239.837 233.532 239.146C232.926 238.446 232.622 237.555 232.622 236.472C232.622 235.38 232.926 234.489 233.532 233.798C234.139 233.107 234.979 232.762 236.052 232.762C236.864 232.762 237.522 232.967 238.026 233.378C238.54 233.779 238.857 234.316 238.978 234.988H237.788C237.536 234.195 236.958 233.798 236.052 233.798C235.296 233.798 234.732 234.05 234.358 234.554C233.994 235.049 233.812 235.679 233.812 236.444C233.812 237.219 233.999 237.863 234.372 238.376C234.746 238.889 235.306 239.146 236.052 239.146C237.042 239.146 237.634 238.721 237.83 237.872ZM241.284 233.812C241.91 233.112 242.759 232.762 243.832 232.762C244.906 232.762 245.75 233.112 246.366 233.812C246.992 234.512 247.304 235.399 247.304 236.472C247.304 237.545 246.992 238.432 246.366 239.132C245.75 239.832 244.906 240.182 243.832 240.182C242.759 240.182 241.91 239.832 241.284 239.132C240.668 238.432 240.36 237.545 240.36 236.472C240.36 235.399 240.668 234.512 241.284 233.812ZM242.138 238.376C242.53 238.889 243.095 239.146 243.832 239.146C244.57 239.146 245.134 238.889 245.526 238.376C245.918 237.853 246.114 237.219 246.114 236.472C246.114 235.725 245.918 235.095 245.526 234.582C245.134 234.059 244.57 233.798 243.832 233.798C243.095 233.798 242.53 234.059 242.138 234.582C241.746 235.095 241.55 235.725 241.55 236.472C241.55 237.219 241.746 237.853 242.138 238.376ZM252.382 233.014C253.418 233.014 254.234 233.355 254.832 234.036C255.429 234.708 255.728 235.562 255.728 236.598C255.728 237.625 255.41 238.479 254.776 239.16C254.15 239.841 253.306 240.182 252.242 240.182C251.122 240.182 250.254 239.813 249.638 239.076C249.031 238.339 248.728 237.284 248.728 235.912C248.728 235.38 248.742 234.904 248.77 234.484C248.807 234.064 248.882 233.625 248.994 233.168C249.115 232.711 249.274 232.323 249.47 232.006C249.666 231.679 249.936 231.395 250.282 231.152C250.627 230.909 251.038 230.751 251.514 230.676L253.39 230.368C253.651 230.331 253.824 230.279 253.908 230.214C254.001 230.149 254.057 230.018 254.076 229.822H255.182C255.163 230.261 255.056 230.611 254.86 230.872C254.664 231.124 254.309 231.297 253.796 231.39L251.626 231.754C251.038 231.857 250.604 232.104 250.324 232.496C250.053 232.879 249.876 233.392 249.792 234.036H250.1C250.389 233.653 250.711 233.387 251.066 233.238C251.43 233.089 251.868 233.014 252.382 233.014ZM250.506 238.404C250.907 238.899 251.476 239.146 252.214 239.146C252.951 239.146 253.516 238.899 253.908 238.404C254.309 237.9 254.51 237.293 254.51 236.584C254.51 235.875 254.309 235.273 253.908 234.778C253.516 234.283 252.951 234.036 252.214 234.036C251.476 234.036 250.907 234.283 250.506 234.778C250.114 235.273 249.918 235.875 249.918 236.584C249.918 237.293 250.114 237.9 250.506 238.404ZM263.87 240H262.68V236.892H258.774V240H257.584V232.944H258.774V235.856H262.68V232.944H263.87V240ZM266.659 233.812C267.285 233.112 268.134 232.762 269.207 232.762C270.281 232.762 271.125 233.112 271.741 233.812C272.367 234.512 272.679 235.399 272.679 236.472C272.679 237.545 272.367 238.432 271.741 239.132C271.125 239.832 270.281 240.182 269.207 240.182C268.134 240.182 267.285 239.832 266.659 239.132C266.043 238.432 265.735 237.545 265.735 236.472C265.735 235.399 266.043 234.512 266.659 233.812ZM267.513 238.376C267.905 238.889 268.47 239.146 269.207 239.146C269.945 239.146 270.509 238.889 270.901 238.376C271.293 237.853 271.489 237.219 271.489 236.472C271.489 235.725 271.293 235.095 270.901 234.582C270.509 234.059 269.945 233.798 269.207 233.798C268.47 233.798 267.905 234.059 267.513 234.582C267.121 235.095 266.925 235.725 266.925 236.472C266.925 237.219 267.121 237.853 267.513 238.376ZM279.311 237.872H280.501C280.361 238.581 280.029 239.146 279.507 239.566C278.993 239.977 278.335 240.182 277.533 240.182C276.469 240.182 275.629 239.837 275.013 239.146C274.406 238.446 274.103 237.555 274.103 236.472C274.103 235.38 274.406 234.489 275.013 233.798C275.619 233.107 276.459 232.762 277.533 232.762C278.345 232.762 279.003 232.967 279.507 233.378C280.02 233.779 280.337 234.316 280.459 234.988H279.269C279.017 234.195 278.438 233.798 277.533 233.798C276.777 233.798 276.212 234.05 275.839 234.554C275.475 235.049 275.293 235.679 275.293 236.444C275.293 237.219 275.479 237.863 275.853 238.376C276.226 238.889 276.786 239.146 277.533 239.146C278.522 239.146 279.115 238.721 279.311 237.872ZM281.547 233.98V232.944H287.623V233.98H285.187V240H283.997V233.98H281.547ZM290.873 240H289.193V232.944H290.355V238.404H290.663L293.757 232.944H295.493V240H294.331V234.54H294.023L290.873 240ZM306.659 236.108V236.416C307.004 236.5 307.28 236.687 307.485 236.976C307.7 237.265 307.807 237.629 307.807 238.068C307.807 239.356 306.976 240 305.315 240H301.689V232.944H305.189C305.898 232.944 306.444 233.103 306.827 233.42C307.219 233.728 307.415 234.162 307.415 234.722C307.415 235.049 307.34 235.333 307.191 235.576C307.051 235.819 306.874 235.996 306.659 236.108ZM302.865 238.992H305.245C306.16 238.992 306.617 238.642 306.617 237.942C306.617 237.233 306.16 236.878 305.245 236.878H302.865V238.992ZM302.865 233.952V235.87H305.077C305.478 235.87 305.768 235.781 305.945 235.604C306.132 235.427 306.225 235.198 306.225 234.918C306.225 234.274 305.842 233.952 305.077 233.952H302.865ZM316.776 233.014C317.812 233.014 318.629 233.355 319.226 234.036C319.824 234.708 320.122 235.562 320.122 236.598C320.122 237.625 319.805 238.479 319.17 239.16C318.545 239.841 317.7 240.182 316.636 240.182C315.516 240.182 314.648 239.813 314.032 239.076C313.426 238.339 313.122 237.284 313.122 235.912C313.122 235.38 313.136 234.904 313.164 234.484C313.202 234.064 313.276 233.625 313.388 233.168C313.51 232.711 313.668 232.323 313.864 232.006C314.06 231.679 314.331 231.395 314.676 231.152C315.022 230.909 315.432 230.751 315.908 230.676L317.784 230.368C318.046 230.331 318.218 230.279 318.302 230.214C318.396 230.149 318.452 230.018 318.47 229.822H319.576C319.558 230.261 319.45 230.611 319.254 230.872C319.058 231.124 318.704 231.297 318.19 231.39L316.02 231.754C315.432 231.857 314.998 232.104 314.718 232.496C314.448 232.879 314.27 233.392 314.186 234.036H314.494C314.784 233.653 315.106 233.387 315.46 233.238C315.824 233.089 316.263 233.014 316.776 233.014ZM314.9 238.404C315.302 238.899 315.871 239.146 316.608 239.146C317.346 239.146 317.91 238.899 318.302 238.404C318.704 237.9 318.904 237.293 318.904 236.584C318.904 235.875 318.704 235.273 318.302 234.778C317.91 234.283 317.346 234.036 316.608 234.036C315.871 234.036 315.302 234.283 314.9 234.778C314.508 235.273 314.312 235.875 314.312 236.584C314.312 237.293 314.508 237.9 314.9 238.404ZM326.472 240V239.258H326.164C325.679 239.874 324.946 240.182 323.966 240.182C323.191 240.182 322.575 239.958 322.118 239.51C321.661 239.062 321.432 238.521 321.432 237.886C321.432 237.242 321.656 236.691 322.104 236.234C322.552 235.777 323.229 235.548 324.134 235.548H326.43V235.268C326.43 234.82 326.29 234.465 326.01 234.204C325.73 233.933 325.296 233.798 324.708 233.798C323.681 233.798 323.135 234.139 323.07 234.82H321.88C321.927 234.176 322.202 233.672 322.706 233.308C323.219 232.944 323.877 232.762 324.68 232.762C325.585 232.762 326.295 232.972 326.808 233.392C327.331 233.812 327.592 234.414 327.592 235.198V240H326.472ZM324.26 239.146C324.848 239.146 325.357 238.955 325.786 238.572C326.215 238.18 326.43 237.704 326.43 237.144V236.5H324.316C323.187 236.5 322.622 236.948 322.622 237.844C322.622 238.245 322.762 238.563 323.042 238.796C323.331 239.029 323.737 239.146 324.26 239.146ZM328.973 240V238.88H329.211C329.706 238.88 330.06 238.651 330.275 238.194C330.49 237.727 330.597 236.887 330.597 235.674V232.944H336.001V240H334.797V233.98H331.703V235.702C331.703 237.298 331.507 238.413 331.115 239.048C330.732 239.683 330.098 240 329.211 240H328.973ZM337.491 240V238.88H337.729C338.223 238.88 338.578 238.651 338.793 238.194C339.007 237.727 339.115 236.887 339.115 235.674V232.944H344.519V240H343.315V233.98H340.221V235.702C340.221 237.298 340.025 238.413 339.633 239.048C339.25 239.683 338.615 240 337.729 240H337.491ZM351.3 240V239.258H350.992C350.507 239.874 349.774 240.182 348.794 240.182C348.02 240.182 347.404 239.958 346.946 239.51C346.489 239.062 346.26 238.521 346.26 237.886C346.26 237.242 346.484 236.691 346.932 236.234C347.38 235.777 348.057 235.548 348.962 235.548H351.258V235.268C351.258 234.82 351.118 234.465 350.838 234.204C350.558 233.933 350.124 233.798 349.536 233.798C348.51 233.798 347.964 234.139 347.898 234.82H346.708C346.755 234.176 347.03 233.672 347.534 233.308C348.048 232.944 348.706 232.762 349.508 232.762C350.414 232.762 351.123 232.972 351.636 233.392C352.159 233.812 352.42 234.414 352.42 235.198V240H351.3ZM349.088 239.146C349.676 239.146 350.185 238.955 350.614 238.572C351.044 238.18 351.258 237.704 351.258 237.144V236.5H349.144C348.015 236.5 347.45 236.948 347.45 237.844C347.45 238.245 347.59 238.563 347.87 238.796C348.16 239.029 348.566 239.146 349.088 239.146ZM359.317 240L357.567 237.046H357.063L355.271 240H353.969L356.167 236.388L354.193 232.944H355.453L357.077 235.744H357.581L359.233 232.944H360.479L358.477 236.346L360.661 240H359.317ZM95.638 250.812C96.2633 250.112 97.1127 249.762 98.186 249.762C99.2593 249.762 100.104 250.112 100.72 250.812C101.345 251.512 101.658 252.399 101.658 253.472C101.658 254.545 101.345 255.432 100.72 256.132C100.104 256.832 99.2593 257.182 98.186 257.182C97.1127 257.182 96.2633 256.832 95.638 256.132C95.022 255.432 94.714 254.545 94.714 253.472C94.714 252.399 95.022 251.512 95.638 250.812ZM96.492 255.376C96.884 255.889 97.4487 256.146 98.186 256.146C98.9233 256.146 99.488 255.889 99.88 255.376C100.272 254.853 100.468 254.219 100.468 253.472C100.468 252.725 100.272 252.095 99.88 251.582C99.488 251.059 98.9233 250.798 98.186 250.798C97.4487 250.798 96.884 251.059 96.492 251.582C96.1 252.095 95.904 252.725 95.904 253.472C95.904 254.219 96.1 254.853 96.492 255.376ZM102.65 250.98V249.944H108.726V250.98H106.29V257H105.1V250.98H102.65ZM113.31 257V255.908H115.634V248.488H115.354L113.296 249.874V248.586L115.34 247.2H116.866V255.908H119.008V257H113.31ZM130.87 255.964H132.172V259.002H131.01V257H124.906V259.002H123.744V255.964H124.682C125.26 254.732 125.55 253.369 125.55 251.876V249.944H130.87V255.964ZM129.68 255.964V250.98H126.656V251.876C126.656 253.472 126.399 254.835 125.886 255.964H129.68ZM134.206 250.812C134.832 250.112 135.681 249.762 136.754 249.762C137.828 249.762 138.672 250.112 139.288 250.812C139.914 251.512 140.226 252.399 140.226 253.472C140.226 254.545 139.914 255.432 139.288 256.132C138.672 256.832 137.828 257.182 136.754 257.182C135.681 257.182 134.832 256.832 134.206 256.132C133.59 255.432 133.282 254.545 133.282 253.472C133.282 252.399 133.59 251.512 134.206 250.812ZM135.06 255.376C135.452 255.889 136.017 256.146 136.754 256.146C137.492 256.146 138.056 255.889 138.448 255.376C138.84 254.853 139.036 254.219 139.036 253.472C139.036 252.725 138.84 252.095 138.448 251.582C138.056 251.059 137.492 250.798 136.754 250.798C136.017 250.798 135.452 251.059 135.06 251.582C134.668 252.095 134.472 252.725 134.472 253.472C134.472 254.219 134.668 254.853 135.06 255.376ZM148.57 253.57C147.674 253.57 146.927 253.271 146.33 252.674C145.733 252.067 145.434 251.302 145.434 250.378C145.434 249.417 145.733 248.614 146.33 247.97C146.937 247.326 147.749 247.004 148.766 247.004C149.877 247.004 150.754 247.387 151.398 248.152C152.042 248.917 152.364 250.14 152.364 251.82C152.364 253.397 152.047 254.685 151.412 255.684C150.787 256.683 149.863 257.182 148.64 257.182C147.828 257.182 147.161 256.967 146.638 256.538C146.125 256.099 145.812 255.535 145.7 254.844H146.918C147.161 255.675 147.735 256.09 148.64 256.09C149.415 256.09 150.021 255.782 150.46 255.166C150.899 254.55 151.137 253.701 151.174 252.618H150.866C150.661 252.87 150.357 253.094 149.956 253.29C149.564 253.477 149.102 253.57 148.57 253.57ZM150.32 248.698C149.909 248.297 149.396 248.096 148.78 248.096C148.164 248.096 147.655 248.292 147.254 248.684C146.862 249.076 146.666 249.622 146.666 250.322C146.666 251.022 146.867 251.559 147.268 251.932C147.669 252.305 148.183 252.492 148.808 252.492C149.424 252.492 149.933 252.301 150.334 251.918C150.735 251.535 150.936 251.008 150.936 250.336C150.936 249.645 150.731 249.099 150.32 248.698ZM156.869 253.57C155.973 253.57 155.226 253.271 154.629 252.674C154.032 252.067 153.733 251.302 153.733 250.378C153.733 249.417 154.032 248.614 154.629 247.97C155.236 247.326 156.048 247.004 157.065 247.004C158.176 247.004 159.053 247.387 159.697 248.152C160.341 248.917 160.663 250.14 160.663 251.82C160.663 253.397 160.346 254.685 159.711 255.684C159.086 256.683 158.162 257.182 156.939 257.182C156.127 257.182 155.46 256.967 154.937 256.538C154.424 256.099 154.111 255.535 153.999 254.844H155.217C155.46 255.675 156.034 256.09 156.939 256.09C157.714 256.09 158.32 255.782 158.759 255.166C159.198 254.55 159.436 253.701 159.473 252.618H159.165C158.96 252.87 158.656 253.094 158.255 253.29C157.863 253.477 157.401 253.57 156.869 253.57ZM158.619 248.698C158.208 248.297 157.695 248.096 157.079 248.096C156.463 248.096 155.954 248.292 155.553 248.684C155.161 249.076 154.965 249.622 154.965 250.322C154.965 251.022 155.166 251.559 155.567 251.932C155.968 252.305 156.482 252.492 157.107 252.492C157.723 252.492 158.232 252.301 158.633 251.918C159.034 251.535 159.235 251.008 159.235 250.336C159.235 249.645 159.03 249.099 158.619 248.698ZM165.168 253.57C164.272 253.57 163.525 253.271 162.928 252.674C162.33 252.067 162.032 251.302 162.032 250.378C162.032 249.417 162.33 248.614 162.928 247.97C163.534 247.326 164.346 247.004 165.364 247.004C166.474 247.004 167.352 247.387 167.996 248.152C168.64 248.917 168.962 250.14 168.962 251.82C168.962 253.397 168.644 254.685 168.01 255.684C167.384 256.683 166.46 257.182 165.238 257.182C164.426 257.182 163.758 256.967 163.236 256.538C162.722 256.099 162.41 255.535 162.298 254.844H163.516C163.758 255.675 164.332 256.09 165.238 256.09C166.012 256.09 166.619 255.782 167.058 255.166C167.496 254.55 167.734 253.701 167.772 252.618H167.464C167.258 252.87 166.955 253.094 166.554 253.29C166.162 253.477 165.7 253.57 165.168 253.57ZM166.918 248.698C166.507 248.297 165.994 248.096 165.378 248.096C164.762 248.096 164.253 248.292 163.852 248.684C163.46 249.076 163.264 249.622 163.264 250.322C163.264 251.022 163.464 251.559 163.866 251.932C164.267 252.305 164.78 252.492 165.406 252.492C166.022 252.492 166.53 252.301 166.932 251.918C167.333 251.535 167.534 251.008 167.534 250.336C167.534 249.645 167.328 249.099 166.918 248.698ZM171.001 257H170.301V255.376H171.757V257.266L170.973 258.61H170.217L171.001 257.266V257ZM182.651 254.872H183.841C183.701 255.581 183.369 256.146 182.847 256.566C182.333 256.977 181.675 257.182 180.873 257.182C179.809 257.182 178.969 256.837 178.353 256.146C177.746 255.446 177.443 254.555 177.443 253.472C177.443 252.38 177.746 251.489 178.353 250.798C178.959 250.107 179.799 249.762 180.873 249.762C181.685 249.762 182.343 249.967 182.847 250.378C183.36 250.779 183.677 251.316 183.799 251.988H182.609C182.357 251.195 181.778 250.798 180.873 250.798C180.117 250.798 179.552 251.05 179.179 251.554C178.815 252.049 178.633 252.679 178.633 253.444C178.633 254.219 178.819 254.863 179.193 255.376C179.566 255.889 180.126 256.146 180.873 256.146C181.862 256.146 182.455 255.721 182.651 254.872ZM186.105 250.812C186.73 250.112 187.579 249.762 188.653 249.762C189.726 249.762 190.571 250.112 191.187 250.812C191.812 251.512 192.125 252.399 192.125 253.472C192.125 254.545 191.812 255.432 191.187 256.132C190.571 256.832 189.726 257.182 188.653 257.182C187.579 257.182 186.73 256.832 186.105 256.132C185.489 255.432 185.181 254.545 185.181 253.472C185.181 252.399 185.489 251.512 186.105 250.812ZM186.959 255.376C187.351 255.889 187.915 256.146 188.653 256.146C189.39 256.146 189.955 255.889 190.347 255.376C190.739 254.853 190.935 254.219 190.935 253.472C190.935 252.725 190.739 252.095 190.347 251.582C189.955 251.059 189.39 250.798 188.653 250.798C187.915 250.798 187.351 251.059 186.959 251.582C186.567 252.095 186.371 252.725 186.371 253.472C186.371 254.219 186.567 254.853 186.959 255.376ZM202.652 254.872H203.842C203.702 255.581 203.371 256.146 202.848 256.566C202.335 256.977 201.677 257.182 200.874 257.182C199.81 257.182 198.97 256.837 198.354 256.146C197.748 255.446 197.444 254.555 197.444 253.472C197.444 252.38 197.748 251.489 198.354 250.798C198.961 250.107 199.801 249.762 200.874 249.762C201.686 249.762 202.344 249.967 202.848 250.378C203.362 250.779 203.679 251.316 203.8 251.988H202.61C202.358 251.195 201.78 250.798 200.874 250.798C200.118 250.798 199.554 251.05 199.18 251.554C198.816 252.049 198.634 252.679 198.634 253.444C198.634 254.219 198.821 254.863 199.194 255.376C199.568 255.889 200.128 256.146 200.874 256.146C201.864 256.146 202.456 255.721 202.652 254.872ZM211.847 257H210.657V250.98H206.807V257H205.617V249.944H211.847V257ZM220.266 253.052V253.458H214.89C214.909 254.307 215.109 254.97 215.492 255.446C215.875 255.913 216.425 256.146 217.144 256.146C218.115 256.146 218.712 255.782 218.936 255.054H220.14C220.019 255.689 219.697 256.202 219.174 256.594C218.661 256.986 217.984 257.182 217.144 257.182C216.071 257.182 215.231 256.832 214.624 256.132C214.017 255.432 213.714 254.522 213.714 253.402C213.714 252.301 214.017 251.419 214.624 250.756C215.231 250.093 216.061 249.762 217.116 249.762C218.115 249.762 218.885 250.079 219.426 250.714C219.967 251.339 220.247 252.119 220.266 253.052ZM217.088 250.798C216.481 250.798 215.996 250.957 215.632 251.274C215.268 251.582 215.044 251.979 214.96 252.464H219.034C218.997 251.988 218.805 251.591 218.46 251.274C218.115 250.957 217.657 250.798 217.088 250.798ZM227.103 249.944H228.293V255.964H229.581V259.002H228.433V257H222.119V249.944H223.309V255.964H227.103V249.944ZM232.795 257H231.115V249.944H232.277V255.404H232.585L235.679 249.944H237.415V257H236.253V251.54H235.945L232.795 257ZM244.208 257V256.258H243.9C243.415 256.874 242.682 257.182 241.702 257.182C240.928 257.182 240.312 256.958 239.854 256.51C239.397 256.062 239.168 255.521 239.168 254.886C239.168 254.242 239.392 253.691 239.84 253.234C240.288 252.777 240.965 252.548 241.87 252.548H244.166V252.268C244.166 251.82 244.026 251.465 243.746 251.204C243.466 250.933 243.032 250.798 242.444 250.798C241.418 250.798 240.872 251.139 240.806 251.82H239.616C239.663 251.176 239.938 250.672 240.442 250.308C240.956 249.944 241.614 249.762 242.416 249.762C243.322 249.762 244.031 249.972 244.544 250.392C245.067 250.812 245.328 251.414 245.328 252.198V257H244.208ZM241.996 256.146C242.584 256.146 243.093 255.955 243.522 255.572C243.952 255.18 244.166 254.704 244.166 254.144V253.5H242.052C240.923 253.5 240.358 253.948 240.358 254.844C240.358 255.245 240.498 255.563 240.778 255.796C241.068 256.029 241.474 256.146 241.996 256.146ZM246.709 257V255.88H246.947C247.442 255.88 247.797 255.651 248.011 255.194C248.226 254.727 248.333 253.887 248.333 252.674V249.944H253.737V257H252.533V250.98H249.439V252.702C249.439 254.298 249.243 255.413 248.851 256.048C248.469 256.683 247.834 257 246.947 257H246.709ZM257.215 249.944V252.296H259.301C260.15 252.296 260.804 252.501 261.261 252.912C261.728 253.323 261.961 253.897 261.961 254.634C261.961 255.381 261.728 255.964 261.261 256.384C260.804 256.795 260.15 257 259.301 257H256.025V249.944H257.215ZM257.215 255.964H259.133C259.721 255.964 260.141 255.852 260.393 255.628C260.645 255.404 260.771 255.073 260.771 254.634C260.771 254.195 260.645 253.864 260.393 253.64C260.141 253.416 259.721 253.304 259.133 253.304H257.215V255.964ZM269.94 257H268.75V253.892H264.844V257H263.654V249.944H264.844V252.856H268.75V249.944H269.94V257ZM272.24 249.944H273.43V252.296H275.376C276.225 252.296 276.878 252.501 277.336 252.912C277.802 253.323 278.036 253.897 278.036 254.634C278.036 255.381 277.802 255.964 277.336 256.384C276.878 256.795 276.225 257 275.376 257H272.24V249.944ZM273.43 253.304V255.964H275.208C275.796 255.964 276.216 255.852 276.468 255.628C276.72 255.404 276.846 255.073 276.846 254.634C276.846 254.195 276.72 253.864 276.468 253.64C276.216 253.416 275.796 253.304 275.208 253.304H273.43ZM279.17 249.944H280.36V257H279.17V249.944ZM282.658 257V249.944H284.548L286.284 253.164H286.592L288.328 249.944H290.19V257H289.028V251.33H288.72L287.082 254.354H285.766L284.128 251.33H283.82V257H282.658ZM294.168 257H292.488V249.944H293.65V255.404H293.958L297.052 249.944H298.788V257H297.626V251.54H297.318L294.168 257ZM100.02 274L98.452 270.892H96.338V274H95.148V266.944H96.338V269.856H98.48L99.95 266.944H101.196L99.474 270.346L101.294 274H100.02ZM106.37 267.798C105.633 267.798 105.077 268.055 104.704 268.568C104.34 269.081 104.158 269.716 104.158 270.472C104.158 271.228 104.34 271.863 104.704 272.376C105.077 272.889 105.633 273.146 106.37 273.146C107.061 273.146 107.593 272.903 107.966 272.418C108.349 271.923 108.54 271.275 108.54 270.472C108.54 269.669 108.349 269.025 107.966 268.54C107.593 268.045 107.061 267.798 106.37 267.798ZM102.982 266.944H104.13V267.7H104.438C104.942 267.075 105.675 266.762 106.636 266.762C107.588 266.762 108.339 267.112 108.89 267.812C109.45 268.512 109.73 269.399 109.73 270.472C109.73 271.564 109.45 272.455 108.89 273.146C108.339 273.837 107.588 274.182 106.636 274.182C105.665 274.182 104.947 273.869 104.48 273.244H104.172V276.8H102.982V266.944ZM117.713 270.052V270.458H112.337C112.356 271.307 112.557 271.97 112.939 272.446C113.322 272.913 113.873 273.146 114.591 273.146C115.562 273.146 116.159 272.782 116.383 272.054H117.587C117.466 272.689 117.144 273.202 116.621 273.594C116.108 273.986 115.431 274.182 114.591 274.182C113.518 274.182 112.678 273.832 112.071 273.132C111.465 272.432 111.161 271.522 111.161 270.402C111.161 269.301 111.465 268.419 112.071 267.756C112.678 267.093 113.509 266.762 114.563 266.762C115.562 266.762 116.332 267.079 116.873 267.714C117.415 268.339 117.695 269.119 117.713 270.052ZM114.535 267.798C113.929 267.798 113.443 267.957 113.079 268.274C112.715 268.582 112.491 268.979 112.407 269.464H116.481C116.444 268.988 116.253 268.591 115.907 268.274C115.562 267.957 115.105 267.798 114.535 267.798ZM125.852 272.964H127.154V276.002H125.992V274H119.888V276.002H118.726V272.964H119.664C120.243 271.732 120.532 270.369 120.532 268.876V266.944H125.852V272.964ZM124.662 272.964V267.98H121.638V268.876C121.638 270.472 121.381 271.835 120.868 272.964H124.662ZM130.379 274H128.699V266.944H129.861V272.404H130.169L133.263 266.944H134.999V274H133.837V268.54H133.529L130.379 274ZM136.57 267.98V266.944H142.646V267.98H140.21V274H139.02V267.98H136.57ZM150.502 274H149.312V270.892H145.406V274H144.216V266.944H145.406V269.856H149.312V266.944H150.502V274ZM152.802 266.944H153.992V269.296H155.938C156.788 269.296 157.441 269.501 157.898 269.912C158.365 270.323 158.598 270.897 158.598 271.634C158.598 272.381 158.365 272.964 157.898 273.384C157.441 273.795 156.788 274 155.938 274H152.802V266.944ZM153.992 270.304V272.964H155.77C156.358 272.964 156.778 272.852 157.03 272.628C157.282 272.404 157.408 272.073 157.408 271.634C157.408 271.195 157.282 270.864 157.03 270.64C156.778 270.416 156.358 270.304 155.77 270.304H153.992ZM159.732 266.944H160.922V274H159.732V266.944ZM163.22 274V266.944H165.11L166.846 270.164H167.154L168.89 266.944H170.752V274H169.59V268.33H169.282L167.644 271.354H166.328L164.69 268.33H164.382V274H163.22ZM174.73 274H173.05V266.944H174.212V272.404H174.52L177.614 266.944H179.35V274H178.188V268.54H177.88L174.73 274ZM191.776 274H190.586V267.98H186.736V274H185.546V266.944H191.776V274ZM197.466 267.798C196.728 267.798 196.173 268.055 195.8 268.568C195.436 269.081 195.254 269.716 195.254 270.472C195.254 271.228 195.436 271.863 195.8 272.376C196.173 272.889 196.728 273.146 197.466 273.146C198.156 273.146 198.688 272.903 199.062 272.418C199.444 271.923 199.636 271.275 199.636 270.472C199.636 269.669 199.444 269.025 199.062 268.54C198.688 268.045 198.156 267.798 197.466 267.798ZM194.078 266.944H195.226V267.7H195.534C196.038 267.075 196.77 266.762 197.732 266.762C198.684 266.762 199.435 267.112 199.986 267.812C200.546 268.512 200.826 269.399 200.826 270.472C200.826 271.564 200.546 272.455 199.986 273.146C199.435 273.837 198.684 274.182 197.732 274.182C196.761 274.182 196.042 273.869 195.576 273.244H195.268V276.8H194.078V266.944ZM208.809 270.052V270.458H203.433C203.452 271.307 203.652 271.97 204.035 272.446C204.418 272.913 204.968 273.146 205.687 273.146C206.658 273.146 207.255 272.782 207.479 272.054H208.683C208.562 272.689 208.24 273.202 207.717 273.594C207.204 273.986 206.527 274.182 205.687 274.182C204.614 274.182 203.774 273.832 203.167 273.132C202.56 272.432 202.257 271.522 202.257 270.402C202.257 269.301 202.56 268.419 203.167 267.756C203.774 267.093 204.604 266.762 205.659 266.762C206.658 266.762 207.428 267.079 207.969 267.714C208.51 268.339 208.79 269.119 208.809 270.052ZM205.631 267.798C205.024 267.798 204.539 267.957 204.175 268.274C203.811 268.582 203.587 268.979 203.503 269.464H207.577C207.54 268.988 207.348 268.591 207.003 268.274C206.658 267.957 206.2 267.798 205.631 267.798ZM216.948 272.964H218.25V276.002H217.088V274H210.984V276.002H209.822V272.964H210.76C211.338 271.732 211.628 270.369 211.628 268.876V266.944H216.948V272.964ZM215.758 272.964V267.98H212.734V268.876C212.734 270.472 212.477 271.835 211.964 272.964H215.758ZM219.42 274V272.88H219.658C220.153 272.88 220.508 272.651 220.722 272.194C220.937 271.727 221.044 270.887 221.044 269.674V266.944H226.448V274H225.244V267.98H222.15V269.702C222.15 271.298 221.954 272.413 221.562 273.048C221.18 273.683 220.545 274 219.658 274H219.42ZM229.226 267.812C229.851 267.112 230.701 266.762 231.774 266.762C232.847 266.762 233.692 267.112 234.308 267.812C234.933 268.512 235.246 269.399 235.246 270.472C235.246 271.545 234.933 272.432 234.308 273.132C233.692 273.832 232.847 274.182 231.774 274.182C230.701 274.182 229.851 273.832 229.226 273.132C228.61 272.432 228.302 271.545 228.302 270.472C228.302 269.399 228.61 268.512 229.226 267.812ZM230.08 272.376C230.472 272.889 231.037 273.146 231.774 273.146C232.511 273.146 233.076 272.889 233.468 272.376C233.86 271.853 234.056 271.219 234.056 270.472C234.056 269.725 233.86 269.095 233.468 268.582C233.076 268.059 232.511 267.798 231.774 267.798C231.037 267.798 230.472 268.059 230.08 268.582C229.688 269.095 229.492 269.725 229.492 270.472C229.492 271.219 229.688 271.853 230.08 272.376ZM239.105 270.906L237.747 274H236.501L238.097 270.374L236.599 266.944H237.831L239.105 269.87H240.911V266.944H242.059V269.87H243.865L245.139 266.944H246.371L244.873 270.374L246.483 274H245.223L243.865 270.906H242.059V274H240.911V270.906H239.105ZM254.077 270.052V270.458H248.701C248.719 271.307 248.92 271.97 249.303 272.446C249.685 272.913 250.236 273.146 250.955 273.146C251.925 273.146 252.523 272.782 252.747 272.054H253.951C253.829 272.689 253.507 273.202 252.985 273.594C252.471 273.986 251.795 274.182 250.955 274.182C249.881 274.182 249.041 273.832 248.435 273.132C247.828 272.432 247.525 271.522 247.525 270.402C247.525 269.301 247.828 268.419 248.435 267.756C249.041 267.093 249.872 266.762 250.927 266.762C251.925 266.762 252.695 267.079 253.237 267.714C253.778 268.339 254.058 269.119 254.077 270.052ZM250.899 267.798C250.292 267.798 249.807 267.957 249.443 268.274C249.079 268.582 248.855 268.979 248.771 269.464H252.845C252.807 268.988 252.616 268.591 252.271 268.274C251.925 267.957 251.468 267.798 250.899 267.798ZM262.215 274H261.025V270.892H257.119V274H255.929V266.944H257.119V269.856H261.025V266.944H262.215V274ZM266.195 274H264.515V266.944H265.677V272.404H265.985L269.079 266.944H270.815V274H269.653V268.54H269.345L266.195 274ZM275.397 266.944H278.911V274H277.707V271.214H275.565C275.378 271.214 275.233 271.209 275.131 271.2L274.067 274H272.821L274.011 270.934C273.283 270.589 272.919 269.973 272.919 269.086C272.919 268.405 273.129 267.877 273.549 267.504C273.978 267.131 274.594 266.944 275.397 266.944ZM277.707 267.952H275.523C275.009 267.952 274.645 268.05 274.431 268.246C274.216 268.442 274.109 268.727 274.109 269.1C274.109 269.464 274.216 269.739 274.431 269.926C274.645 270.113 275.009 270.206 275.523 270.206H277.707V267.952ZM281.195 274V266.944H283.085L284.821 270.164H285.129L286.865 266.944H288.727V274H287.565V268.33H287.257L285.619 271.354H284.303L282.665 268.33H282.357V274H281.195ZM292.705 274H291.025V266.944H292.187V272.404H292.495L295.589 266.944H297.325V274H296.163V268.54H295.855L292.705 274Z" fill="#7B7794"/>
<path d="M95.914 123.292H108.872V139H106.232V125.69H98.554V139H95.914V123.292ZM122.55 132.774V133.61H114.278C114.351 135.986 115.4 137.174 117.424 137.174C118.7 137.174 119.514 136.697 119.866 135.744H122.396C122.176 136.829 121.64 137.695 120.79 138.34C119.939 138.971 118.81 139.286 117.402 139.286C115.671 139.286 114.307 138.736 113.31 137.636C112.312 136.536 111.814 135.099 111.814 133.324C111.814 131.564 112.305 130.156 113.288 129.1C114.285 128.044 115.634 127.516 117.336 127.516C118.949 127.516 120.21 128.015 121.12 129.012C122.044 129.995 122.52 131.249 122.55 132.774ZM117.314 129.496C115.7 129.496 114.725 130.251 114.388 131.762H119.998C119.91 131.102 119.638 130.559 119.184 130.134C118.729 129.709 118.106 129.496 117.314 129.496ZM130.822 129.628C129.795 129.628 129.018 129.987 128.49 130.706C127.977 131.425 127.72 132.319 127.72 133.39C127.72 134.475 127.977 135.377 128.49 136.096C129.018 136.815 129.795 137.174 130.822 137.174C131.805 137.174 132.56 136.829 133.088 136.14C133.616 135.436 133.88 134.519 133.88 133.39C133.88 132.261 133.616 131.351 133.088 130.662C132.56 129.973 131.805 129.628 130.822 129.628ZM125.3 127.802H127.698V128.88H128.226C128.959 127.971 130.059 127.516 131.526 127.516C133.007 127.516 134.181 128.066 135.046 129.166C135.926 130.266 136.366 131.674 136.366 133.39C136.366 135.121 135.926 136.536 135.046 137.636C134.181 138.736 133.007 139.286 131.526 139.286C130.074 139.286 129.003 138.831 128.314 137.922H127.786V143.4H125.3V127.802ZM146.484 135.414H148.948C148.772 136.587 148.237 137.526 147.342 138.23C146.462 138.934 145.355 139.286 144.02 139.286C142.304 139.286 140.947 138.743 139.95 137.658C138.967 136.558 138.476 135.135 138.476 133.39C138.476 131.645 138.967 130.229 139.95 129.144C140.947 128.059 142.304 127.516 144.02 127.516C145.369 127.516 146.469 127.853 147.32 128.528C148.185 129.203 148.699 130.097 148.86 131.212H146.396C146.029 130.156 145.245 129.628 144.042 129.628C143.001 129.628 142.223 129.98 141.71 130.684C141.211 131.388 140.962 132.283 140.962 133.368C140.962 134.483 141.211 135.399 141.71 136.118C142.223 136.822 143.001 137.174 144.042 137.174C145.421 137.174 146.235 136.587 146.484 135.414ZM152.498 129.166C153.524 128.066 154.903 127.516 156.634 127.516C158.364 127.516 159.736 128.066 160.748 129.166C161.774 130.251 162.288 131.659 162.288 133.39C162.288 135.135 161.774 136.558 160.748 137.658C159.736 138.743 158.364 139.286 156.634 139.286C154.903 139.286 153.524 138.743 152.498 137.658C151.486 136.558 150.98 135.135 150.98 133.39C150.98 131.659 151.486 130.251 152.498 129.166ZM154.28 136.096C154.822 136.815 155.607 137.174 156.634 137.174C157.66 137.174 158.445 136.815 158.988 136.096C159.53 135.363 159.802 134.461 159.802 133.39C159.802 132.334 159.53 131.447 158.988 130.728C158.445 129.995 157.66 129.628 156.634 129.628C155.607 129.628 154.822 129.995 154.28 130.728C153.737 131.447 153.466 132.334 153.466 133.39C153.466 134.461 153.737 135.363 154.28 136.096ZM175.452 139H172.966V134.314H167.554V139H165.068V127.802H167.554V132.202H172.966V127.802H175.452V139ZM185.878 139V137.966H185.35C184.646 138.846 183.546 139.286 182.05 139.286C180.818 139.286 179.843 138.934 179.124 138.23C178.405 137.511 178.046 136.639 178.046 135.612C178.046 134.6 178.413 133.72 179.146 132.972C179.879 132.224 180.994 131.85 182.49 131.85H185.79V131.52C185.79 130.156 185.005 129.474 183.436 129.474C182.043 129.474 181.295 129.951 181.192 130.904H178.728C178.787 129.863 179.234 129.041 180.07 128.44C180.921 127.824 182.013 127.516 183.348 127.516C184.859 127.516 186.039 127.853 186.89 128.528C187.755 129.203 188.188 130.215 188.188 131.564V139H185.878ZM182.82 137.262C183.656 137.262 184.36 136.991 184.932 136.448C185.504 135.905 185.79 135.245 185.79 134.468V133.61H182.93C181.346 133.61 180.554 134.226 180.554 135.458C180.554 136.03 180.752 136.477 181.148 136.8C181.544 137.108 182.101 137.262 182.82 137.262ZM190.262 139V136.646H190.658C191.435 136.646 191.985 136.338 192.308 135.722C192.631 135.106 192.792 133.977 192.792 132.334V127.802H201.856V139H199.37V129.914H195.08V132.4C195.08 134.82 194.728 136.529 194.024 137.526C193.335 138.509 192.213 139 190.658 139H190.262ZM207.772 127.802V131.278H210.786C212.194 131.278 213.272 131.615 214.02 132.29C214.768 132.95 215.142 133.881 215.142 135.084C215.142 136.301 214.761 137.262 213.998 137.966C213.25 138.655 212.18 139 210.786 139H205.286V127.802H207.772ZM207.772 136.888H210.434C211.241 136.888 211.813 136.741 212.15 136.448C212.488 136.14 212.656 135.685 212.656 135.084C212.656 134.483 212.488 134.035 212.15 133.742C211.813 133.434 211.241 133.28 210.434 133.28H207.772V136.888ZM228.088 139H225.602V134.314H220.19V139H217.704V127.802H220.19V132.202H225.602V127.802H228.088V139ZM231.519 127.802H234.005V131.278H236.799C238.207 131.278 239.285 131.615 240.033 132.29C240.781 132.95 241.155 133.881 241.155 135.084C241.155 136.301 240.773 137.262 240.011 137.966C239.263 138.655 238.192 139 236.799 139H231.519V127.802ZM234.005 133.28V136.888H236.447C237.253 136.888 237.825 136.741 238.163 136.448C238.5 136.14 238.669 135.685 238.669 135.084C238.669 134.483 238.5 134.035 238.163 133.742C237.825 133.434 237.253 133.28 236.447 133.28H234.005ZM242.893 127.802H245.379V139H242.893V127.802ZM251.63 139H248.814V127.802H251.234V135.194H251.762L256.36 127.802H259.242V139H256.822V131.608H256.294L251.63 139ZM255.766 123.138H257.724C257.665 124.165 257.313 124.964 256.668 125.536C256.022 126.108 255.135 126.394 254.006 126.394C252.876 126.394 251.989 126.108 251.344 125.536C250.698 124.964 250.346 124.165 250.288 123.138H252.246C252.319 124.194 252.906 124.722 254.006 124.722C255.106 124.722 255.692 124.194 255.766 123.138ZM103.46 165L101.084 160.314H98.202V165H95.716V153.802H98.202V158.202H101.128L103.372 153.802H105.924L103.174 159.192L106.078 165H103.46ZM114.129 155.628C113.102 155.628 112.325 155.987 111.797 156.706C111.283 157.425 111.027 158.319 111.027 159.39C111.027 160.475 111.283 161.377 111.797 162.096C112.325 162.815 113.102 163.174 114.129 163.174C115.111 163.174 115.867 162.829 116.395 162.14C116.923 161.436 117.187 160.519 117.187 159.39C117.187 158.261 116.923 157.351 116.395 156.662C115.867 155.973 115.111 155.628 114.129 155.628ZM108.607 153.802H111.005V154.88H111.533C112.266 153.971 113.366 153.516 114.833 153.516C116.314 153.516 117.487 154.066 118.353 155.166C119.233 156.266 119.673 157.674 119.673 159.39C119.673 161.121 119.233 162.536 118.353 163.636C117.487 164.736 116.314 165.286 114.833 165.286C113.381 165.286 112.31 164.831 111.621 163.922H111.093V169.4H108.607V153.802ZM132.519 158.774V159.61H124.247C124.32 161.986 125.369 163.174 127.393 163.174C128.669 163.174 129.483 162.697 129.835 161.744H132.365C132.145 162.829 131.609 163.695 130.759 164.34C129.908 164.971 128.779 165.286 127.371 165.286C125.64 165.286 124.276 164.736 123.279 163.636C122.281 162.536 121.783 161.099 121.783 159.324C121.783 157.564 122.274 156.156 123.257 155.1C124.254 154.044 125.603 153.516 127.305 153.516C128.918 153.516 130.179 154.015 131.089 155.012C132.013 155.995 132.489 157.249 132.519 158.774ZM127.283 155.496C125.669 155.496 124.694 156.251 124.357 157.762H129.967C129.879 157.102 129.607 156.559 129.153 156.134C128.698 155.709 128.075 155.496 127.283 155.496ZM145.653 162.888H147.677V168.146H145.301V165H136.325V168.146H133.949V162.888H135.533C136.31 161.025 136.699 159.045 136.699 156.948V153.802H145.653V162.888ZM143.167 162.888V155.914H138.965V156.97C138.965 159.243 138.627 161.216 137.953 162.888H143.167ZM152.78 165H149.964V153.802H152.384V161.194H152.912L157.51 153.802H160.392V165H157.972V157.608H157.444L152.78 165ZM162.765 155.914V153.802H172.797V155.914H169.035V165H166.549V155.914H162.765ZM185.549 165H183.063V160.314H177.651V165H175.165V153.802H177.651V158.202H183.063V153.802H185.549V165ZM188.98 153.802H191.466V157.278H194.26C195.668 157.278 196.746 157.615 197.494 158.29C198.242 158.95 198.616 159.881 198.616 161.084C198.616 162.301 198.234 163.262 197.472 163.966C196.724 164.655 195.653 165 194.26 165H188.98V153.802ZM191.466 159.28V162.888H193.908C194.714 162.888 195.286 162.741 195.624 162.448C195.961 162.14 196.13 161.685 196.13 161.084C196.13 160.483 195.961 160.035 195.624 159.742C195.286 159.434 194.714 159.28 193.908 159.28H191.466ZM200.354 153.802H202.84V165H200.354V153.802ZM209.091 165H206.275V153.802H208.695V161.194H209.223L213.821 153.802H216.703V165H214.283V157.608H213.755L209.091 165ZM213.227 149.138H215.185C215.126 150.165 214.774 150.964 214.129 151.536C213.483 152.108 212.596 152.394 211.467 152.394C210.337 152.394 209.45 152.108 208.805 151.536C208.159 150.964 207.807 150.165 207.749 149.138H209.707C209.78 150.194 210.367 150.722 211.467 150.722C212.567 150.722 213.153 150.194 213.227 149.138ZM101.238 181.628C100.211 181.628 99.434 181.987 98.906 182.706C98.3927 183.425 98.136 184.319 98.136 185.39C98.136 186.475 98.3927 187.377 98.906 188.096C99.434 188.815 100.211 189.174 101.238 189.174C102.221 189.174 102.976 188.829 103.504 188.14C104.032 187.436 104.296 186.519 104.296 185.39C104.296 184.261 104.032 183.351 103.504 182.662C102.976 181.973 102.221 181.628 101.238 181.628ZM95.716 179.802H98.114V180.88H98.642C99.3753 179.971 100.475 179.516 101.942 179.516C103.423 179.516 104.597 180.066 105.462 181.166C106.342 182.266 106.782 183.674 106.782 185.39C106.782 187.121 106.342 188.536 105.462 189.636C104.597 190.736 103.423 191.286 101.942 191.286C100.49 191.286 99.4193 190.831 98.73 189.922H98.202V195.4H95.716V179.802ZM119.628 184.774V185.61H111.356C111.429 187.986 112.478 189.174 114.502 189.174C115.778 189.174 116.592 188.697 116.944 187.744H119.474C119.254 188.829 118.719 189.695 117.868 190.34C117.017 190.971 115.888 191.286 114.48 191.286C112.749 191.286 111.385 190.736 110.388 189.636C109.391 188.536 108.892 187.099 108.892 185.324C108.892 183.564 109.383 182.156 110.366 181.1C111.363 180.044 112.713 179.516 114.414 179.516C116.027 179.516 117.289 180.015 118.198 181.012C119.122 181.995 119.599 183.249 119.628 184.774ZM114.392 181.496C112.779 181.496 111.803 182.251 111.466 183.762H117.076C116.988 183.102 116.717 182.559 116.262 182.134C115.807 181.709 115.184 181.496 114.392 181.496ZM125.194 191H122.378V179.802H124.798V187.194H125.326L129.924 179.802H132.806V191H130.386V183.608H129.858L125.194 191ZM129.33 175.138H131.288C131.229 176.165 130.877 176.964 130.232 177.536C129.587 178.108 128.699 178.394 127.57 178.394C126.441 178.394 125.553 178.108 124.908 177.536C124.263 176.964 123.911 176.165 123.852 175.138H125.81C125.883 176.194 126.47 176.722 127.57 176.722C128.67 176.722 129.257 176.194 129.33 175.138ZM135.18 181.914V179.802H145.212V181.914H141.45V191H138.964V181.914H135.18ZM150.395 191H147.579V179.802H149.999V187.194H150.527L155.125 179.802H158.007V191H155.587V183.608H155.059L150.395 191ZM171.821 191H169.335V186.314H163.923V191H161.437V179.802H163.923V184.202H169.335V179.802H171.821V191ZM175.251 191V179.802H183.985V181.914H177.737V191H175.251Z" fill="black"/>
<g filter="url(#filter1_i_20018_13069)">
<path d="M325.901 165.755L311.643 141.179C319.583 137.08 328.578 135.349 337.522 136.219C344.141 136.863 350.505 138.91 356.192 142.18L341.779 166.611C339.626 165.363 337.212 164.583 334.702 164.338C331.684 164.045 328.65 164.538 325.901 165.755Z" fill="white"/>
</g>
<path d="M315.75 181.335C315.75 181.406 315.75 181.477 315.75 181.548H287C287 164.759 296.2 149.955 309.928 142.092L324.303 166.672C319.2 169.647 315.75 175.101 315.75 181.335Z" fill="#FD2232"/>
<path d="M378.928 178.856V179.139C379 179.847 379 180.627 379 181.335V181.548H350.25V180.343C350.178 180.202 350.178 179.989 350.178 179.847C350.178 179.741 350.16 179.653 350.142 179.564C350.124 179.476 350.106 179.387 350.106 179.281C350.106 179.164 350.085 179.068 350.065 178.982C350.049 178.912 350.034 178.849 350.034 178.785C350.034 178.572 350.034 178.36 349.963 178.147C349.927 178.041 349.909 177.935 349.891 177.829C349.873 177.722 349.855 177.616 349.819 177.51C349.78 177.433 349.762 177.336 349.742 177.229C349.726 177.138 349.708 177.041 349.675 176.943C349.639 176.872 349.621 176.802 349.603 176.731C349.585 176.66 349.567 176.589 349.531 176.518C349.495 176.447 349.477 176.359 349.459 176.27C349.441 176.182 349.423 176.093 349.388 176.022C349.352 175.951 349.334 175.881 349.316 175.81C349.298 175.739 349.28 175.668 349.244 175.597C349.208 175.491 349.172 175.403 349.136 175.314C349.1 175.225 349.064 175.137 349.028 175.031C349.028 174.995 349.01 174.978 348.992 174.96C348.974 174.942 348.956 174.924 348.956 174.889L337.528 179.777C337.241 181.973 335.372 183.743 333 183.743C330.484 183.743 328.472 181.76 328.472 179.281C328.472 176.802 330.484 174.818 333 174.818C334.006 174.818 334.941 175.172 335.731 175.739L367.572 164.759L367.284 163.98L346.153 170.497C346.153 170.462 346.135 170.444 346.117 170.426C346.099 170.409 346.081 170.391 346.081 170.355C346.045 170.285 345.991 170.231 345.938 170.178C345.884 170.125 345.83 170.072 345.794 170.001C345.65 169.789 345.506 169.647 345.363 169.505L345.003 169.151C344.905 169.006 344.773 168.894 344.654 168.792C344.598 168.745 344.546 168.7 344.5 168.655C344.45 168.557 344.365 168.492 344.294 168.438C344.263 168.415 344.234 168.394 344.213 168.372C343.997 168.301 343.853 168.16 343.709 168.018C343.673 167.982 343.62 167.947 343.566 167.912C343.512 167.876 343.458 167.841 343.422 167.805C343.314 167.735 343.188 167.646 343.063 167.557C342.937 167.469 342.811 167.38 342.703 167.31C342.667 167.31 342.649 167.292 342.631 167.274C342.613 167.256 342.595 167.239 342.559 167.239C342.416 167.168 342.29 167.079 342.164 166.991C342.038 166.902 341.913 166.814 341.769 166.743C339.253 165.184 336.234 164.334 333 164.334C330.501 164.334 328.074 164.824 325.928 165.802L325.225 164.591C327.582 163.545 330.22 162.918 333 162.918C336.45 162.918 339.613 163.839 342.416 165.468L355.353 143.367C348.813 139.613 341.122 137.417 333 137.417C325.571 137.417 318.498 139.236 312.343 142.387L311.64 141.174C318.006 137.887 325.29 136 333 136C341.409 136 349.316 138.267 356.072 142.092C356.207 142.136 356.314 142.209 356.411 142.274C356.468 142.313 356.522 142.349 356.575 142.375C356.719 142.517 356.863 142.588 357.006 142.517C357.509 142.8 358.084 143.154 358.588 143.509C358.659 143.509 358.731 143.58 358.803 143.65C359.019 143.827 359.252 143.987 359.486 144.146C359.72 144.306 359.953 144.465 360.169 144.642C360.241 144.677 360.313 144.731 360.384 144.784C360.456 144.837 360.528 144.89 360.6 144.925C360.852 145.138 361.103 145.333 361.355 145.528C361.606 145.722 361.858 145.917 362.109 146.13L362.253 146.271C362.469 146.484 362.702 146.679 362.936 146.873C363.17 147.068 363.403 147.263 363.619 147.475L363.906 147.759C364.409 148.184 364.841 148.609 365.344 149.105L365.416 149.176C365.919 149.671 366.35 150.096 366.781 150.592C366.882 150.642 366.947 150.725 367.001 150.796C367.025 150.826 367.047 150.854 367.069 150.876C368.003 151.867 368.866 152.93 369.656 153.992C369.728 154.134 369.8 154.205 369.872 154.276C370.663 155.338 371.453 156.472 372.172 157.605C372.199 157.659 372.216 157.703 372.231 157.74C372.254 157.801 372.271 157.845 372.316 157.888C373.034 159.093 373.753 160.297 374.328 161.501C374.356 161.555 374.373 161.599 374.387 161.636C374.411 161.697 374.427 161.741 374.472 161.784C375.119 163.059 375.622 164.334 376.125 165.609C376.125 165.692 376.15 165.751 376.17 165.8C376.185 165.834 376.197 165.863 376.197 165.893C376.7 167.168 377.131 168.514 377.491 169.86C377.491 169.895 377.509 169.948 377.527 170.001C377.545 170.054 377.563 170.108 377.563 170.143C377.922 171.56 378.209 172.906 378.425 174.322C378.497 174.393 378.497 174.535 378.497 174.606C378.713 175.951 378.856 177.439 378.928 178.856Z" fill="#6FE566"/>
<rect x="64.5" y="82.5" width="351" height="251" rx="4.5" stroke="#ECEEF6"/>
<path fill-rule="evenodd" clip-rule="evenodd" d="M320.254 339.969V289L357.143 325.978H335.563L334.254 326.373L320.254 339.969Z" fill="white"/>
<path fill-rule="evenodd" clip-rule="evenodd" d="M349.166 342.115L337.693 347L322.792 311.709L334.523 306.766L349.166 342.115Z" fill="white"/>
<path fill-rule="evenodd" clip-rule="evenodd" d="M344.923 339.948L339.054 342.412L329.188 318.943L335.048 316.477L344.923 339.948Z" fill="black"/>
<path fill-rule="evenodd" clip-rule="evenodd" d="M323.437 296.66V332.267L332.886 323.146L334.248 322.703H349.423L323.437 296.66Z" fill="black"/>
<defs>
<filter id="filter0_f_20018_13069" x="0" y="-31" width="480" height="480" filterUnits="userSpaceOnUse" color-interpolation-filters="sRGB">
<feFlood flood-opacity="0" result="BackgroundImageFix"/>
<feBlend mode="normal" in="SourceGraphic" in2="BackgroundImageFix" result="shape"/>
<feGaussianBlur stdDeviation="32" result="effect1_foregroundBlur_20018_13069"/>
</filter>
<filter id="filter1_i_20018_13069" x="311.643" y="136" width="44.5498" height="30.6108" filterUnits="userSpaceOnUse" color-interpolation-filters="sRGB">
<feFlood flood-opacity="0" result="BackgroundImageFix"/>
<feBlend mode="normal" in="SourceGraphic" in2="BackgroundImageFix" result="shape"/>
<feColorMatrix in="SourceAlpha" type="matrix" values="0 0 0 0 0 0 0 0 0 0 0 0 0 0 0 0 0 0 127 0" result="hardAlpha"/>
<feOffset/>
<feGaussianBlur stdDeviation="7.5"/>
<feComposite in2="hardAlpha" operator="arithmetic" k2="-1" k3="1"/>
<feColorMatrix type="matrix" values="0 0 0 0 0.886275 0 0 0 0 0.894118 0 0 0 0 0.92549 0 0 0 1 0"/>
<feBlend mode="normal" in2="shape" result="effect1_innerShadow_20018_13069"/>
</filter>
</defs>
</svg>
