<svg width="465" height="413" viewBox="0 0 465 413" fill="none" xmlns="http://www.w3.org/2000/svg">
<circle cx="237" cy="176" r="176" fill="#ECEEF6"/>
<g filter="url(#filter0_f_73_5857)">
<ellipse cx="237" cy="245" rx="173" ry="118" fill="#4563FF" fill-opacity="0.01"/>
</g>
<mask id="mask0_73_5857" style="mask-type:alpha" maskUnits="userSpaceOnUse" x="61" y="0" width="352" height="517">
<path d="M237 1.51312e-05C139.798 6.63349e-06 61 78.7979 61 176L61 517L413 517L413 176C413 78.7979 334.202 2.36288e-05 237 1.51312e-05Z" fill="#C4C4C4"/>
</mask>
<g mask="url(#mask0_73_5857)">
<rect x="109" y="-48" width="256" height="401" rx="3.47826" fill="white"/>
<rect x="109.605" y="-125.89" width="255.791" height="479.089" rx="4.14796" fill="white"/>
<path d="M206.403 299.458H212.73V307.356H211.734V300.365H207.398V307.356H206.403V299.458ZM217.319 302.456C216.737 302.456 216.298 302.658 216.003 303.064C215.715 303.47 215.571 303.971 215.571 304.568C215.571 305.166 215.715 305.667 216.003 306.073C216.298 306.478 216.737 306.681 217.319 306.681C217.865 306.681 218.285 306.489 218.58 306.106C218.882 305.715 219.034 305.203 219.034 304.568C219.034 303.934 218.882 303.425 218.58 303.042C218.285 302.651 217.865 302.456 217.319 302.456ZM214.642 301.781H215.549V302.378H215.793C216.191 301.884 216.77 301.637 217.529 301.637C218.281 301.637 218.875 301.914 219.31 302.467C219.753 303.02 219.974 303.72 219.974 304.568C219.974 305.431 219.753 306.135 219.31 306.681C218.875 307.227 218.281 307.5 217.529 307.5C216.762 307.5 216.195 307.253 215.826 306.758H215.583V309.568H214.642V301.781ZM221.835 302.467C222.329 301.914 223 301.637 223.848 301.637C224.696 301.637 225.363 301.914 225.85 302.467C226.344 303.02 226.591 303.72 226.591 304.568C226.591 305.416 226.344 306.117 225.85 306.67C225.363 307.223 224.696 307.5 223.848 307.5C223 307.5 222.329 307.223 221.835 306.67C221.348 306.117 221.105 305.416 221.105 304.568C221.105 303.72 221.348 303.02 221.835 302.467ZM222.509 306.073C222.819 306.478 223.265 306.681 223.848 306.681C224.43 306.681 224.877 306.478 225.186 306.073C225.496 305.66 225.651 305.158 225.651 304.568C225.651 303.978 225.496 303.481 225.186 303.075C224.877 302.662 224.43 302.456 223.848 302.456C223.265 302.456 222.819 302.662 222.509 303.075C222.2 303.481 222.045 303.978 222.045 304.568C222.045 305.158 222.2 305.66 222.509 306.073ZM232.981 307.356H232.04V302.599H228.999V307.356H228.058V301.781H232.981V307.356ZM236.303 309.568H235.352L236.502 306.836L234.124 301.781H235.131L236.834 305.453H237.111L238.659 301.781H239.644L236.303 309.568ZM244.415 305.674H245.355C245.244 306.235 244.982 306.681 244.569 307.013C244.164 307.337 243.644 307.5 243.01 307.5C242.169 307.5 241.505 307.227 241.019 306.681C240.539 306.128 240.3 305.424 240.3 304.568C240.3 303.706 240.539 303.001 241.019 302.456C241.498 301.91 242.162 301.637 243.01 301.637C243.651 301.637 244.171 301.799 244.569 302.124C244.975 302.441 245.226 302.865 245.322 303.396H244.381C244.182 302.769 243.725 302.456 243.01 302.456C242.412 302.456 241.966 302.655 241.671 303.053C241.384 303.444 241.24 303.942 241.24 304.546C241.24 305.158 241.387 305.667 241.682 306.073C241.977 306.478 242.42 306.681 243.01 306.681C243.791 306.681 244.26 306.346 244.415 305.674ZM246.181 302.599V301.781H250.982V302.599H249.057V307.356H248.117V302.599H246.181ZM253.55 307.356H252.222V301.781H253.14V306.095H253.384L255.828 301.781H257.2V307.356H256.282V303.042H256.039L253.55 307.356ZM258.442 302.599V301.781H263.242V302.599H261.318V307.356H260.377V302.599H258.442ZM265.423 301.781V303.639H267.071C267.742 303.639 268.258 303.801 268.62 304.126C268.988 304.45 269.173 304.904 269.173 305.486C269.173 306.076 268.988 306.537 268.62 306.869C268.258 307.194 267.742 307.356 267.071 307.356H264.483V301.781H265.423ZM265.423 306.537H266.938C267.403 306.537 267.735 306.449 267.934 306.272C268.133 306.095 268.232 305.833 268.232 305.486C268.232 305.14 268.133 304.878 267.934 304.701C267.735 304.524 267.403 304.436 266.938 304.436H265.423V306.537Z" fill="black"/>
<rect x="144.171" y="287.455" width="186.658" height="31.801" rx="2.76531" stroke="#4563FF" stroke-width="1.38265"/>
<rect x="143.825" y="242.865" width="187.349" height="32.4923" rx="3.11097" fill="#4563FF"/>
<path d="M192.558 259.877H190.966C190.95 259.877 190.942 259.885 190.934 259.902C190.893 260.64 190.755 261.428 190.561 262.075C190.561 262.083 190.561 262.092 190.569 262.1C190.577 262.108 190.585 262.108 190.593 262.108H191.137C191.153 262.108 191.161 262.1 191.161 262.092C191.316 261.594 191.437 260.947 191.486 260.4H192.006V262.083C192.006 262.1 192.022 262.117 192.038 262.117H192.558C192.574 262.117 192.59 262.1 192.59 262.083V259.902C192.59 259.885 192.574 259.877 192.558 259.877V259.877ZM199.288 259.877H198.768C198.752 259.877 198.736 259.894 198.736 259.91V261.594C198.622 261.627 198.509 261.644 198.379 261.644C198.038 261.644 197.957 261.536 197.957 261.071V259.91C197.957 259.894 197.94 259.877 197.924 259.877H197.413C197.396 259.877 197.38 259.894 197.38 259.91V261.13C197.38 261.893 197.632 262.183 198.273 262.183C198.639 262.183 199.053 262.083 199.296 261.992C199.304 261.984 199.312 261.976 199.312 261.967V259.91C199.321 259.885 199.304 259.877 199.288 259.877V259.877ZM188.279 259.877H187.751C187.735 259.877 187.727 259.885 187.727 259.902C187.646 260.234 187.475 260.798 187.248 261.387L186.72 259.902C186.712 259.894 186.704 259.885 186.696 259.885H186.16C186.152 259.885 186.144 259.894 186.136 259.902C186.128 259.91 186.128 259.919 186.136 259.927L186.931 262.15C186.85 262.324 186.777 262.465 186.704 262.598C186.647 262.697 186.599 262.797 186.55 262.896C186.542 262.904 186.542 262.913 186.55 262.921C186.558 262.929 186.566 262.938 186.574 262.938H187.151C187.159 262.938 187.175 262.929 187.175 262.921C187.272 262.73 187.394 262.465 187.508 262.191C187.849 261.378 188.117 260.615 188.32 259.919C188.32 259.91 188.32 259.902 188.312 259.894C188.295 259.877 188.287 259.877 188.279 259.877V259.877ZM190.171 261.594C190.171 261.586 190.163 261.577 190.155 261.577H190.13C190 261.627 189.765 261.66 189.603 261.66C189.237 261.66 189.067 261.561 189.067 260.997C189.067 260.541 189.124 260.333 189.603 260.333C189.741 260.333 189.862 260.35 190.025 260.4C190.041 260.4 190.049 260.4 190.057 260.383C190.114 260.267 190.187 260.126 190.268 259.952V259.927C190.268 259.919 190.26 259.91 190.252 259.91C190.041 259.844 189.789 259.803 189.562 259.803C188.807 259.803 188.466 260.167 188.466 260.989C188.466 261.818 188.807 262.191 189.562 262.191C189.749 262.191 190.13 262.15 190.309 262.075C190.325 262.067 190.333 262.05 190.325 262.034L190.171 261.594V261.594ZM195.115 259.877H194.587C194.571 259.877 194.563 259.885 194.563 259.902C194.482 260.242 194.311 260.798 194.084 261.387L193.556 259.902C193.548 259.894 193.54 259.885 193.532 259.885H192.996C192.988 259.885 192.98 259.894 192.972 259.902C192.964 259.91 192.964 259.919 192.972 259.927L193.767 262.15C193.686 262.324 193.613 262.465 193.54 262.598C193.483 262.697 193.434 262.797 193.386 262.904C193.378 262.913 193.378 262.921 193.386 262.929C193.394 262.938 193.402 262.946 193.41 262.946H193.987C193.995 262.946 194.011 262.938 194.011 262.929C194.108 262.739 194.23 262.473 194.344 262.199C194.677 261.387 194.953 260.624 195.156 259.927C195.156 259.919 195.156 259.91 195.148 259.902C195.131 259.877 195.123 259.877 195.115 259.877V259.877ZM197.064 259.877H195.529C195.513 259.877 195.497 259.894 195.497 259.91V262.092C195.497 262.108 195.513 262.125 195.529 262.125H196.049C196.065 262.125 196.081 262.108 196.081 262.092V260.408H196.885C196.893 260.408 196.909 260.4 196.909 260.391C196.974 260.242 197.031 260.085 197.096 259.927V259.902C197.08 259.877 197.072 259.877 197.064 259.877" fill="white"/>
<path d="M188.898 256.675C188.151 256.675 187.859 256.995 187.859 257.804C187.859 258.628 188.151 258.948 188.898 258.948C189.654 258.948 189.946 258.628 189.946 257.804C189.946 256.987 189.654 256.675 188.898 256.675ZM188.898 258.476C188.557 258.476 188.452 258.388 188.452 257.812C188.452 257.203 188.566 257.147 188.898 257.147C189.239 257.147 189.353 257.203 189.353 257.812C189.353 258.388 189.248 258.476 188.898 258.476ZM192.024 258.388C192.024 258.38 192.016 258.372 192.008 258.372H191.984C191.854 258.42 191.618 258.452 191.456 258.452C191.091 258.452 190.92 258.356 190.92 257.812C190.92 257.371 190.977 257.171 191.456 257.171C191.594 257.171 191.716 257.187 191.878 257.235C191.894 257.235 191.903 257.235 191.911 257.219C191.968 257.107 192.041 256.971 192.122 256.803V256.779C192.122 256.771 192.114 256.763 192.106 256.763C191.894 256.699 191.643 256.659 191.415 256.659C190.66 256.659 190.319 257.011 190.319 257.804C190.319 258.604 190.66 258.964 191.415 258.964C191.602 258.964 191.984 258.924 192.162 258.852C192.179 258.844 192.187 258.828 192.179 258.812L192.024 258.388V258.388ZM187.697 256.731H186.162C186.146 256.731 186.13 256.747 186.13 256.763V258.868C186.13 258.884 186.146 258.9 186.162 258.9H186.682C186.698 258.9 186.714 258.884 186.714 258.868V257.235H187.51C187.518 257.235 187.534 257.227 187.534 257.219C187.599 257.075 187.656 256.923 187.721 256.771V256.747C187.713 256.739 187.705 256.731 187.697 256.731Z" fill="white"/>
<path d="M201.825 261.871V261.84C201.825 261.824 201.825 261.8 201.833 261.784C201.858 261.492 201.874 261.136 201.891 260.724V260.693C201.899 260.416 201.907 260.115 201.907 259.806C201.907 259.498 201.899 259.197 201.891 258.92V258.889C201.874 258.485 201.858 258.121 201.833 257.829C201.833 257.813 201.833 257.789 201.825 257.773V257.742C201.825 257.71 201.817 257.686 201.817 257.655V257.623C201.792 257.314 201.775 257.124 201.767 257.109C201.767 257.077 201.759 257.045 201.759 257.022V256.998C201.751 256.942 201.742 256.895 201.726 256.84C201.726 256.832 201.726 256.824 201.718 256.816C201.578 256.175 201.207 255.471 200.746 254.941C200.565 254.735 200.376 254.553 200.178 254.411C200.162 254.395 199.931 254.237 199.569 253.991C199.149 253.715 198.548 253.327 197.864 252.947C196.646 252.259 195.567 251.776 195.419 251.721C195.411 251.721 195.411 251.713 195.411 251.713C195.09 251.578 194.703 251.483 194.283 251.444C194.2 251.436 194.118 251.428 194.036 251.428C193.953 251.42 193.879 251.42 193.805 251.42H193.69C193.13 251.436 192.611 251.531 192.2 251.713C192.142 251.737 191.047 252.219 189.804 252.923L189.754 252.947C188.478 253.667 187.482 254.379 187.44 254.411C187.128 254.632 186.848 254.917 186.592 255.281C186.535 255.36 186.535 255.566 186.782 255.566H187.416C187.687 255.566 187.753 255.408 188.058 255.194C188.396 254.957 189.062 254.482 190.281 253.786C191.162 253.287 191.985 252.892 192.389 252.71C192.397 252.71 192.405 252.702 192.414 252.702C192.414 252.702 192.422 252.702 192.422 252.694C192.422 252.694 192.43 252.694 192.43 252.686C192.438 252.686 192.447 252.678 192.447 252.678C192.455 252.678 192.463 252.67 192.471 252.67C192.57 252.623 192.636 252.599 192.636 252.599C192.916 252.48 193.311 252.401 193.731 252.393H193.896C194.019 252.393 194.143 252.401 194.258 252.417C194.513 252.449 194.744 252.496 194.933 252.575C194.95 252.583 194.974 252.591 194.991 252.599C194.991 252.599 194.999 252.607 195.024 252.615C195.213 252.694 196.234 253.161 197.346 253.786C198.004 254.158 198.589 254.529 198.992 254.798C199.346 255.036 199.561 255.186 199.569 255.194C199.725 255.305 199.882 255.463 200.03 255.637C200.4 256.096 200.705 256.721 200.754 257.204C200.754 257.211 200.779 257.401 200.804 257.726C200.804 257.749 200.804 257.765 200.812 257.789V257.836C200.812 257.868 200.82 257.892 200.82 257.924V257.955C200.82 257.971 200.82 257.995 200.829 258.011C200.829 258.05 200.837 258.09 200.837 258.129C200.837 258.153 200.837 258.177 200.845 258.2V258.216C200.845 258.248 200.845 258.272 200.853 258.303V258.367C200.878 258.778 200.894 259.268 200.894 259.783C200.894 260.297 200.878 260.788 200.853 261.199V261.262C200.853 261.294 200.853 261.318 200.845 261.349V261.365C200.845 261.389 200.845 261.413 200.837 261.436C200.837 261.476 200.829 261.515 200.829 261.555C200.829 261.579 200.829 261.594 200.82 261.61V261.642C200.82 261.674 200.812 261.697 200.812 261.729V261.776C200.812 261.8 200.812 261.824 200.804 261.84C200.779 262.164 200.754 262.362 200.754 262.362C200.705 262.845 200.4 263.47 200.03 263.928C199.882 264.11 199.725 264.261 199.569 264.371C199.561 264.371 199.346 264.53 198.992 264.767C198.589 265.036 197.996 265.408 197.346 265.78C196.234 266.413 195.205 266.872 195.024 266.951L194.991 266.966C194.974 266.974 194.95 266.982 194.933 266.99C194.744 267.061 194.513 267.117 194.258 267.148C194.143 267.164 194.019 267.172 193.896 267.172H193.731C193.311 267.164 192.916 267.093 192.636 266.966C192.636 266.966 192.578 266.943 192.471 266.895C192.463 266.887 192.447 266.887 192.438 266.879C192.43 266.872 192.422 266.872 192.414 266.864C192.405 266.864 192.405 266.856 192.397 266.856C192.389 266.856 192.381 266.848 192.372 266.848C192.364 266.84 192.356 266.84 192.34 266.832H192.331C191.911 266.674 191.121 266.294 190.281 265.819C189.054 265.131 188.396 264.648 188.058 264.411C187.753 264.197 187.687 264.039 187.416 264.039H186.782C186.535 264.039 186.535 264.245 186.592 264.324C186.848 264.688 187.128 264.973 187.44 265.194C187.482 265.226 188.486 265.938 189.754 266.658C189.82 266.697 189.886 266.737 189.96 266.769C191.137 267.417 192.15 267.86 192.208 267.892C192.611 268.066 193.138 268.169 193.698 268.185H193.813C193.887 268.185 193.962 268.185 194.036 268.177C194.118 268.177 194.2 268.169 194.283 268.161C194.703 268.122 195.098 268.027 195.411 267.892C195.411 267.892 195.419 267.892 195.419 267.884C195.559 267.821 196.646 267.338 197.856 266.658C198.54 266.27 199.141 265.89 199.561 265.614C199.923 265.368 200.153 265.21 200.17 265.194C200.367 265.052 200.557 264.87 200.738 264.664C201.199 264.134 201.57 263.43 201.71 262.789C201.71 262.781 201.71 262.773 201.718 262.765C201.726 262.71 201.742 262.655 201.751 262.607V262.583C201.759 262.552 201.759 262.52 201.759 262.496C201.759 262.481 201.784 262.291 201.808 261.982V261.951C201.825 261.927 201.825 261.903 201.825 261.871" fill="white"/>
<path d="M209.583 254.726H216.701V263.611H215.581V255.747H210.703V263.611H209.583V254.726ZM219.289 258.111C219.844 257.489 220.599 257.178 221.553 257.178C222.507 257.178 223.258 257.489 223.806 258.111C224.362 258.733 224.639 259.521 224.639 260.475C224.639 261.429 224.362 262.217 223.806 262.84C223.258 263.462 222.507 263.773 221.553 263.773C220.599 263.773 219.844 263.462 219.289 262.84C218.741 262.217 218.467 261.429 218.467 260.475C218.467 259.521 218.741 258.733 219.289 258.111ZM220.048 262.168C220.396 262.624 220.898 262.852 221.553 262.852C222.209 262.852 222.711 262.624 223.059 262.168C223.407 261.703 223.582 261.139 223.582 260.475C223.582 259.812 223.407 259.252 223.059 258.795C222.711 258.331 222.209 258.098 221.553 258.098C220.898 258.098 220.396 258.331 220.048 258.795C219.699 259.252 219.525 259.812 219.525 260.475C219.525 261.139 219.699 261.703 220.048 262.168ZM231.877 262.69H233.035V265.391H232.002V263.611H226.576V265.391H225.544V262.69H226.377C226.892 261.595 227.149 260.384 227.149 259.057V257.339H231.877V262.69ZM230.82 262.69V258.26H228.132V259.057C228.132 260.475 227.904 261.686 227.447 262.69H230.82ZM233.761 258.26V257.339H239.161V258.26H236.996V263.611H235.938V258.26H233.761ZM244.974 260.152V260.425C245.281 260.5 245.526 260.666 245.709 260.923C245.899 261.18 245.995 261.504 245.995 261.894C245.995 263.039 245.257 263.611 243.78 263.611H240.557V257.339H243.668C244.298 257.339 244.784 257.48 245.124 257.762C245.472 258.036 245.646 258.422 245.646 258.92C245.646 259.21 245.58 259.463 245.447 259.679C245.323 259.895 245.165 260.052 244.974 260.152ZM241.602 262.715H243.718C244.531 262.715 244.937 262.404 244.937 261.782C244.937 261.151 244.531 260.836 243.718 260.836H241.602V262.715ZM241.602 258.235V259.94H243.568C243.925 259.94 244.182 259.861 244.34 259.704C244.506 259.546 244.589 259.343 244.589 259.094C244.589 258.522 244.249 258.235 243.568 258.235H241.602ZM253.08 260.102V260.463H248.301C248.318 261.218 248.496 261.807 248.836 262.23C249.176 262.645 249.666 262.852 250.305 262.852C251.167 262.852 251.698 262.528 251.897 261.881H252.968C252.86 262.446 252.574 262.902 252.109 263.25C251.653 263.599 251.051 263.773 250.305 263.773C249.351 263.773 248.604 263.462 248.065 262.84C247.525 262.217 247.256 261.409 247.256 260.413C247.256 259.434 247.525 258.65 248.065 258.061C248.604 257.472 249.342 257.178 250.28 257.178C251.167 257.178 251.852 257.46 252.333 258.024C252.814 258.58 253.063 259.272 253.08 260.102ZM250.255 258.098C249.716 258.098 249.284 258.239 248.961 258.522C248.637 258.795 248.438 259.148 248.363 259.579H251.985C251.951 259.156 251.781 258.804 251.474 258.522C251.167 258.239 250.761 258.098 250.255 258.098ZM257.738 258.098C257.082 258.098 256.589 258.327 256.257 258.783C255.933 259.239 255.772 259.803 255.772 260.475C255.772 261.147 255.933 261.711 256.257 262.168C256.589 262.624 257.082 262.852 257.738 262.852C258.352 262.852 258.825 262.636 259.156 262.205C259.497 261.765 259.667 261.189 259.667 260.475C259.667 259.762 259.497 259.189 259.156 258.758C258.825 258.318 258.352 258.098 257.738 258.098ZM254.726 257.339H255.747V258.011H256.021C256.469 257.456 257.12 257.178 257.974 257.178C258.82 257.178 259.488 257.489 259.978 258.111C260.475 258.733 260.724 259.521 260.724 260.475C260.724 261.446 260.475 262.238 259.978 262.852C259.488 263.466 258.82 263.773 257.974 263.773C257.111 263.773 256.473 263.495 256.058 262.939H255.784V266.1H254.726V257.339ZM267.97 262.69H269.127V265.391H268.094V263.611H262.668V265.391H261.636V262.69H262.469C262.984 261.595 263.241 260.384 263.241 259.057V257.339H267.97V262.69ZM266.912 262.69V258.26H264.224V259.057C264.224 260.475 263.996 261.686 263.54 262.69H266.912ZM271.993 263.611H270.5V257.339H271.533V262.192H271.807L274.557 257.339H276.1V263.611H275.067V258.758H274.793L271.993 263.611ZM277.497 258.26V257.339H282.897V258.26H280.732V263.611H279.674V258.26H277.497ZM285.35 257.339V259.43H287.205C287.96 259.43 288.54 259.612 288.947 259.977C289.362 260.342 289.569 260.853 289.569 261.508C289.569 262.172 289.362 262.69 288.947 263.064C288.54 263.429 287.96 263.611 287.205 263.611H284.293V257.339H285.35ZM285.35 262.69H287.055C287.578 262.69 287.951 262.591 288.175 262.392C288.399 262.192 288.511 261.898 288.511 261.508C288.511 261.118 288.399 260.824 288.175 260.625C287.951 260.425 287.578 260.326 287.055 260.326H285.35V262.69Z" fill="white"/>
<rect x="143.825" y="242.865" width="187.349" height="32.4923" rx="3.11097" stroke="#4563FF" stroke-width="0.691326"/>
<rect x="142.442" y="-0.883859" width="188.732" height="32.4923" rx="1.72832" fill="white"/>
<path d="M161.266 15.3851V15.598C161.847 15.869 162.234 16.4885 162.234 17.195C162.234 18.2983 161.469 19.1404 159.891 19.1404H156.804V12.2299H159.814C161.275 12.2299 162.021 13.0332 162.021 13.9817C162.021 14.6011 161.769 15.1141 161.266 15.3851ZM157.675 13.0042V15.1625H159.795C160.559 15.1625 161.14 14.9108 161.14 14.0591C161.14 13.2752 160.472 13.0042 159.775 13.0042H157.675ZM157.675 18.3661H159.833C160.617 18.3661 161.353 18.0854 161.353 17.1272C161.353 16.2368 160.656 15.9271 159.843 15.9271H157.675V18.3661ZM162.952 19.1404V18.3661H163.116C163.774 18.3661 164.074 17.8822 164.074 16.1497V14.2624H167.81V19.1404H166.978V14.9786H164.839V16.1691C164.839 18.4145 164.316 19.1404 163.116 19.1404H162.952ZM172.498 19.1404V18.6274H172.286C171.985 19.0049 171.463 19.2662 170.766 19.2662C169.643 19.2662 169.014 18.5113 169.014 17.6789C169.014 16.895 169.527 16.0626 170.882 16.0626H172.469V15.869C172.469 15.2786 172.131 14.8528 171.279 14.8528C170.553 14.8528 170.185 15.1335 170.147 15.5593H169.324C169.392 14.6592 170.166 14.1366 171.26 14.1366C172.489 14.1366 173.273 14.727 173.273 15.8206V19.1404H172.498ZM170.969 18.55C171.782 18.55 172.469 17.9402 172.469 17.166V16.7207H171.008C170.205 16.7207 169.837 17.0692 169.837 17.6499C169.837 18.2016 170.243 18.55 170.969 18.55ZM179.125 18.4242H180.025V20.5244H179.222V19.1404H175.002V20.5244H174.198V18.4242H174.847C175.157 17.766 175.447 16.8078 175.447 15.598V14.2624H179.125V18.4242ZM178.302 18.4242V14.9786H176.212V15.598C176.212 16.8272 175.979 17.766 175.679 18.4242H178.302ZM182.254 19.1404H181.093V14.2624H181.896V18.037H182.109L184.248 14.2624H185.448V19.1404H184.645V15.3657H184.432L182.254 19.1404ZM187.038 19.1404V14.2624H188.345L189.545 16.4885H189.758L190.958 14.2624H192.245V19.1404H191.442V15.2206H191.229L190.096 17.3111H189.187L188.054 15.2206H187.841V19.1404H187.038ZM194.995 19.1404H193.834V14.2624H194.637V18.037H194.85L196.989 14.2624H198.189V19.1404H197.386V15.3657H197.173L194.995 19.1404ZM202.121 14.8528C201.037 14.8528 200.592 15.7432 200.592 16.7014C200.592 17.6596 201.037 18.55 202.121 18.55C203.099 18.55 203.621 17.7854 203.621 16.7014C203.621 15.6174 203.099 14.8528 202.121 14.8528ZM199.779 14.2624H200.573V14.785H200.786C201.057 14.4463 201.531 14.1366 202.305 14.1366C203.65 14.1366 204.444 15.2593 204.444 16.7014C204.444 18.1725 203.65 19.2662 202.305 19.2662C201.531 19.2662 201.076 18.9662 200.815 18.6177H200.602V21.0761H199.779V14.2624Z" fill="black"/>
<rect x="142.442" y="-0.883859" width="188.732" height="32.4923" rx="1.72832" stroke="#4563FF" stroke-width="0.691326"/>
<rect width="41.5306" height="8.98724" transform="translate(155.923 -6.06882)" fill="white"/>
<path d="M162.505 -1.25754V-1.10545C162.919 -0.911879 163.196 -0.46943 163.196 0.0352383C163.196 0.823351 162.65 1.4248 161.523 1.4248H159.318V-3.51127H161.468C162.512 -3.51127 163.044 -2.93747 163.044 -2.25997C163.044 -1.81752 162.864 -1.45111 162.505 -1.25754ZM159.94 -2.95821V-1.41655H161.454C162 -1.41655 162.415 -1.59629 162.415 -2.20466C162.415 -2.76463 161.938 -2.95821 161.44 -2.95821H159.94ZM159.94 0.871743H161.481C162.041 0.871743 162.567 0.671259 162.567 -0.0131545C162.567 -0.649175 162.069 -0.870399 161.488 -0.870399H159.94V0.871743ZM163.709 1.4248V0.871743H163.826C164.296 0.871743 164.511 0.52608 164.511 -0.711394V-2.05948H167.179V1.4248H166.585V-1.5479H165.057V-0.697568C165.057 0.90631 164.683 1.4248 163.826 1.4248H163.709ZM170.528 1.4248V1.0584H170.376C170.162 1.32802 169.788 1.51468 169.29 1.51468C168.489 1.51468 168.039 0.975442 168.039 0.380902C168.039 -0.179073 168.406 -0.773614 169.373 -0.773614H170.507V-0.911879C170.507 -1.33359 170.265 -1.63777 169.657 -1.63777C169.138 -1.63777 168.876 -1.43729 168.848 -1.1331H168.26C168.309 -1.77604 168.862 -2.14935 169.643 -2.14935C170.521 -2.14935 171.081 -1.72764 171.081 -0.946445V1.4248H170.528ZM169.436 1.0031C170.016 1.0031 170.507 0.56756 170.507 0.0144985V-0.303512H169.463C168.889 -0.303512 168.627 -0.0546342 168.627 0.360162C168.627 0.754218 168.917 1.0031 169.436 1.0031ZM175.261 0.913223H175.904V2.4134H175.33V1.4248H172.316V2.4134H171.742V0.913223H172.205C172.427 0.443121 172.634 -0.241292 172.634 -1.10545V-2.05948H175.261V0.913223ZM174.673 0.913223V-1.5479H173.18V-1.10545C173.18 -0.227466 173.014 0.443121 172.8 0.913223H174.673ZM177.496 1.4248H176.667V-2.05948H177.241V0.636692H177.393L178.921 -2.05948H179.778V1.4248H179.204V-1.27137H179.052L177.496 1.4248ZM180.913 1.4248V-2.05948H181.847L182.704 -0.46943H182.856L183.713 -2.05948H184.633V1.4248H184.059V-1.37507H183.907L183.098 0.118197H182.448L181.639 -1.37507H181.487V1.4248H180.913ZM186.597 1.4248H185.767V-2.05948H186.341V0.636692H186.493L188.021 -2.05948H188.878V1.4248H188.305V-1.27137H188.153L186.597 1.4248ZM191.687 -1.63777C190.913 -1.63777 190.595 -1.00175 190.595 -0.317338C190.595 0.367075 190.913 1.0031 191.687 1.0031C192.385 1.0031 192.759 0.456948 192.759 -0.317338C192.759 -1.09162 192.385 -1.63777 191.687 -1.63777ZM190.014 -2.05948H190.581V-1.68616H190.733C190.927 -1.92813 191.265 -2.14935 191.818 -2.14935C192.779 -2.14935 193.346 -1.34741 193.346 -0.317338C193.346 0.733478 192.779 1.51468 191.818 1.51468C191.265 1.51468 190.94 1.30037 190.754 1.05149H190.602V2.80746H190.014V-2.05948Z" fill="#4563FF"/>
<rect x="142.442" y="54.4223" width="188.732" height="32.4923" rx="1.72832" fill="white"/>
<path d="M156.804 67.536H162.34V74.4465H161.469V68.3297H157.675V74.4465H156.804V67.536ZM168.243 71.7172V71.9979H164.527C164.556 73.1593 165.078 73.8561 166.085 73.8561C166.772 73.8561 167.178 73.5658 167.324 73.1012H168.156C168.001 73.9336 167.295 74.5724 166.085 74.5724C164.565 74.5724 163.714 73.4593 163.714 71.9591C163.714 70.459 164.585 69.4427 166.065 69.4427C167.517 69.4427 168.214 70.517 168.243 71.7172ZM166.046 70.1589C165.165 70.1589 164.681 70.6912 164.575 71.3107H167.391C167.343 70.6912 166.869 70.1589 166.046 70.1589ZM168.86 70.2847V69.5685H173.06V70.2847H171.376V74.4465H170.554V70.2847H168.86ZM176.488 70.1589C175.404 70.1589 174.959 71.0494 174.959 72.0075C174.959 72.9657 175.404 73.8561 176.488 73.8561C177.466 73.8561 177.988 73.0915 177.988 72.0075C177.988 70.9235 177.466 70.1589 176.488 70.1589ZM174.146 69.5685H174.939V70.0912H175.152C175.423 69.7524 175.898 69.4427 176.672 69.4427C178.017 69.4427 178.811 70.5654 178.811 72.0075C178.811 73.4787 178.017 74.5724 176.672 74.5724C175.898 74.5724 175.443 74.2723 175.181 73.9239H174.969V76.3822H174.146V69.5685ZM182.201 69.4427C183.72 69.4427 184.601 70.5654 184.601 72.0075C184.601 73.4496 183.72 74.5724 182.201 74.5724C180.671 74.5724 179.8 73.4496 179.8 72.0075C179.8 70.5654 180.671 69.4427 182.201 69.4427ZM182.201 73.8561C183.275 73.8561 183.778 72.9657 183.778 72.0075C183.778 71.0494 183.275 70.1589 182.201 70.1589C181.117 70.1589 180.623 71.0494 180.623 72.0075C180.623 72.9657 181.117 73.8561 182.201 73.8561ZM189.321 71.7559V71.9688C189.776 72.085 190.114 72.4818 190.114 73.1109C190.114 74.0013 189.505 74.4465 188.392 74.4465H185.885V69.5685H188.305C189.282 69.5685 189.843 70.0234 189.843 70.7977C189.843 71.272 189.592 71.6107 189.321 71.7559ZM186.698 73.7497H188.343C189.05 73.7497 189.292 73.44 189.292 73.0238C189.292 72.6076 189.05 72.2882 188.343 72.2882H186.698V73.7497ZM186.698 70.2654V71.5914H188.227C188.818 71.5914 189.021 71.2816 189.021 70.9332C189.021 70.5557 188.818 70.2654 188.227 70.2654H186.698ZM192.557 74.4465H191.395V69.5685H192.199V73.3432H192.412L194.55 69.5685H195.751V74.4465H194.947V70.6719H194.734L192.557 74.4465ZM197.06 69.5685H197.882V70.9429C197.882 71.4171 197.911 71.9204 199.112 71.9204C199.566 71.9204 199.973 71.872 200.331 71.7946V69.5685H201.163V74.4465H200.331V72.5205C199.915 72.6076 199.354 72.656 198.937 72.656C197.166 72.656 197.06 71.814 197.06 71.0106V69.5685Z" fill="black"/>
<rect x="142.442" y="54.4223" width="188.732" height="32.4923" rx="1.72832" stroke="#4563FF" stroke-width="0.691326"/>
<rect width="37.5306" height="8.98724" transform="translate(155.923 49.2373)" fill="white"/>
<path d="M161.371 51.705C162.871 51.705 163.673 52.8457 163.673 54.2629C163.673 55.6801 162.871 56.8208 161.371 56.8208C159.864 56.8208 159.069 55.6801 159.069 54.2629C159.069 52.8457 159.864 51.705 161.371 51.705ZM161.371 56.2539C162.546 56.2539 163.044 55.293 163.044 54.2629C163.044 53.2328 162.546 52.2719 161.371 52.2719C160.196 52.2719 159.698 53.2328 159.698 54.2629C159.698 55.293 160.196 56.2539 161.371 56.2539ZM164.263 53.7583V53.2467H167.263V53.7583H166.061V56.731H165.473V53.7583H164.263ZM167.838 53.2467H168.426V54.2284C168.426 54.5671 168.447 54.9266 169.304 54.9266C169.629 54.9266 169.919 54.892 170.175 54.8367V53.2467H170.769V56.731H170.175V55.3552C169.878 55.4174 169.477 55.452 169.179 55.452C167.914 55.452 167.838 54.8505 167.838 54.2767V53.2467ZM174.868 54.7814V54.9819H172.213C172.234 55.8115 172.607 56.3092 173.326 56.3092C173.817 56.3092 174.107 56.1018 174.211 55.77H174.805C174.695 56.3646 174.19 56.8208 173.326 56.8208C172.24 56.8208 171.632 56.0258 171.632 54.9542C171.632 53.8827 172.254 53.1568 173.312 53.1568C174.349 53.1568 174.847 53.9242 174.868 54.7814ZM173.298 53.6684C172.669 53.6684 172.323 54.0486 172.247 54.4911H174.259C174.225 54.0486 173.886 53.6684 173.298 53.6684ZM178.14 55.6801H178.727C178.596 56.3646 178.071 56.8208 177.262 56.8208C176.176 56.8208 175.568 56.0189 175.568 54.9888C175.568 53.938 176.176 53.1568 177.262 53.1568C178.091 53.1568 178.589 53.6131 178.707 54.256H178.119C178.008 53.9034 177.739 53.6684 177.262 53.6684C176.474 53.6684 176.156 54.2837 176.156 54.975C176.156 55.6732 176.481 56.3092 177.262 56.3092C177.76 56.3092 178.05 56.0673 178.14 55.6801ZM179.244 53.7583V53.2467H182.244V53.7583H181.042V56.731H180.454V53.7583H179.244ZM185.474 54.8091V54.9612C185.799 55.0441 186.041 55.3276 186.041 55.7769C186.041 56.4129 185.605 56.731 184.81 56.731H183.02V53.2467H184.748C185.446 53.2467 185.847 53.5716 185.847 54.1247C185.847 54.4634 185.667 54.7054 185.474 54.8091ZM183.6 56.2332H184.776C185.28 56.2332 185.453 56.012 185.453 55.7147C185.453 55.4174 185.28 55.1893 184.776 55.1893H183.6V56.2332ZM183.6 53.7444V54.6915H184.693C185.114 54.6915 185.26 54.4703 185.26 54.2214C185.26 53.9518 185.114 53.7444 184.693 53.7444H183.6ZM188.456 53.1568C189.541 53.1568 190.17 53.9587 190.17 54.9888C190.17 56.0189 189.541 56.8208 188.456 56.8208C187.364 56.8208 186.741 56.0189 186.741 54.9888C186.741 53.9587 187.364 53.1568 188.456 53.1568ZM188.456 56.3092C189.223 56.3092 189.583 55.6732 189.583 54.9888C189.583 54.3044 189.223 53.6684 188.456 53.6684C187.682 53.6684 187.329 54.3044 187.329 54.9888C187.329 55.6732 187.682 56.3092 188.456 56.3092Z" fill="#4563FF"/>
<rect x="142.442" y="109.728" width="188.732" height="32.4923" rx="1.72832" fill="white"/>
<path d="M160.714 123.926L157.782 129.753H156.891L159.833 123.926V123.713H156.397V122.978H160.714V123.926ZM166.813 124.749C168.333 124.749 169.214 125.872 169.214 127.314C169.214 128.756 168.333 129.878 166.813 129.878C165.284 129.878 164.413 128.756 164.413 127.314C164.413 125.872 165.284 124.749 166.813 124.749ZM166.813 129.162C167.888 129.162 168.391 128.272 168.391 127.314C168.391 126.355 167.888 125.465 166.813 125.465C165.729 125.465 165.236 126.355 165.236 127.314C165.236 128.272 165.729 129.162 166.813 129.162ZM173.866 129.753L172.782 127.604H171.32V129.753H170.497V124.875H171.32V126.888H172.801L173.817 124.875H174.679L173.488 127.227L174.746 129.753H173.866ZM175.41 125.591V124.875H179.611V125.591H177.926V129.753H177.104V125.591H175.41ZM182.78 129.753V128.998H184.386V123.868H184.193L182.77 124.826V123.936L184.183 122.978H185.238V128.998H186.719V129.753H182.78ZM189.67 127.381C188.431 127.381 187.502 126.462 187.502 125.175C187.502 123.887 188.363 122.842 189.805 122.842C191.247 122.842 192.293 123.733 192.293 126.172C192.293 128.233 191.489 129.878 189.718 129.878C188.566 129.878 187.84 129.191 187.686 128.262H188.528C188.692 128.833 189.06 129.124 189.718 129.124C190.802 129.124 191.422 128.204 191.47 126.723H191.257C191.025 127.004 190.483 127.381 189.67 127.381ZM189.815 123.597C188.992 123.597 188.353 124.129 188.353 125.136C188.353 126.143 189.012 126.636 189.834 126.636C190.647 126.636 191.305 126.114 191.305 125.146C191.305 124.158 190.638 123.597 189.815 123.597ZM195.407 127.381C194.168 127.381 193.239 126.462 193.239 125.175C193.239 123.887 194.1 122.842 195.542 122.842C196.985 122.842 198.03 123.733 198.03 126.172C198.03 128.233 197.227 129.878 195.455 129.878C194.304 129.878 193.578 129.191 193.423 128.262H194.265C194.429 128.833 194.797 129.124 195.455 129.124C196.539 129.124 197.159 128.204 197.207 126.723H196.994C196.762 127.004 196.22 127.381 195.407 127.381ZM195.552 123.597C194.729 123.597 194.091 124.129 194.091 125.136C194.091 126.143 194.749 126.636 195.571 126.636C196.384 126.636 197.043 126.114 197.043 125.146C197.043 124.158 196.375 123.597 195.552 123.597ZM201.58 122.842C203.012 122.842 204.077 123.926 204.077 126.365C204.077 128.804 203.012 129.878 201.58 129.878C200.147 129.878 199.092 128.804 199.092 126.365C199.092 123.926 200.147 122.842 201.58 122.842ZM201.58 129.124C202.712 129.124 203.225 128.04 203.225 126.365C203.225 124.681 202.712 123.597 201.58 123.597C200.457 123.597 199.944 124.681 199.944 126.365C199.944 128.04 200.457 129.124 201.58 129.124Z" fill="black"/>
<rect x="142.442" y="109.728" width="188.732" height="32.4923" rx="1.72832" stroke="#4563FF" stroke-width="0.691326"/>
<rect width="59.5306" height="8.98724" transform="translate(155.923 104.543)" fill="white"/>
<path d="M163.03 111.47H163.742V113.247H163.127V112.037H159.387V113.247H158.771V111.47H159.283C159.601 110.8 159.905 109.742 159.905 108.097V107.101H163.03V111.47ZM162.415 111.47V107.668H160.5V108.2C160.5 109.728 160.23 110.827 159.947 111.47H162.415ZM166.713 112.037V111.671H166.561C166.347 111.94 165.974 112.127 165.476 112.127C164.674 112.127 164.225 111.588 164.225 110.993C164.225 110.433 164.591 109.839 165.559 109.839H166.693V109.7C166.693 109.279 166.451 108.975 165.842 108.975C165.324 108.975 165.061 109.175 165.034 109.479H164.446C164.494 108.836 165.047 108.463 165.829 108.463C166.707 108.463 167.267 108.885 167.267 109.666V112.037H166.713ZM165.621 111.615C166.202 111.615 166.693 111.18 166.693 110.627V110.309H165.649C165.075 110.309 164.812 110.558 164.812 110.972C164.812 111.367 165.103 111.615 165.621 111.615ZM167.943 109.064V108.553H170.943V109.064H169.74V112.037H169.152V109.064H167.943ZM173.937 112.037V111.671H173.785C173.571 111.94 173.198 112.127 172.7 112.127C171.898 112.127 171.449 111.588 171.449 110.993C171.449 110.433 171.815 109.839 172.783 109.839H173.917V109.7C173.917 109.279 173.675 108.975 173.066 108.975C172.548 108.975 172.285 109.175 172.257 109.479H171.67C171.718 108.836 172.271 108.463 173.052 108.463C173.93 108.463 174.49 108.885 174.49 109.666V112.037H173.937ZM172.845 111.615C173.426 111.615 173.917 111.18 173.917 110.627V110.309H172.873C172.299 110.309 172.036 110.558 172.036 110.972C172.036 111.367 172.327 111.615 172.845 111.615ZM179.163 108.975C178.389 108.975 178.071 109.611 178.071 110.295C178.071 110.979 178.389 111.615 179.163 111.615C179.862 111.615 180.235 111.069 180.235 110.295C180.235 109.521 179.862 108.975 179.163 108.975ZM177.49 108.553H178.057V108.926H178.209C178.403 108.684 178.742 108.463 179.295 108.463C180.256 108.463 180.823 109.265 180.823 110.295C180.823 111.346 180.256 112.127 179.295 112.127C178.742 112.127 178.417 111.913 178.23 111.664H178.078V113.42H177.49V108.553ZM183.244 108.463C184.329 108.463 184.958 109.265 184.958 110.295C184.958 111.325 184.329 112.127 183.244 112.127C182.152 112.127 181.529 111.325 181.529 110.295C181.529 109.265 182.152 108.463 183.244 108.463ZM183.244 111.615C184.011 111.615 184.371 110.979 184.371 110.295C184.371 109.611 184.011 108.975 183.244 108.975C182.47 108.975 182.117 109.611 182.117 110.295C182.117 110.979 182.47 111.615 183.244 111.615ZM186.864 110.509L186.193 112.037H185.578L186.366 110.247L185.627 108.553H186.235L186.864 109.998H187.756V108.553H188.323V109.998H189.215L189.844 108.553H190.452L189.712 110.247L190.507 112.037H189.885L189.215 110.509H188.323V112.037H187.756V110.509H186.864ZM194.441 111.526H195.084V113.026H194.51V112.037H191.496V113.026H190.922V111.526H191.386C191.607 111.055 191.814 110.371 191.814 109.507V108.553H194.441V111.526ZM193.854 111.526V109.064H192.36V109.507C192.36 110.385 192.194 111.055 191.98 111.526H193.854ZM198.868 110.088V110.288H196.213C196.234 111.118 196.608 111.615 197.327 111.615C197.817 111.615 198.108 111.408 198.211 111.076H198.806C198.695 111.671 198.191 112.127 197.327 112.127C196.241 112.127 195.633 111.332 195.633 110.26C195.633 109.189 196.255 108.463 197.313 108.463C198.35 108.463 198.847 109.23 198.868 110.088ZM197.299 108.975C196.67 108.975 196.324 109.355 196.248 109.797H198.26C198.225 109.355 197.886 108.975 197.299 108.975ZM202.887 112.037H202.299V110.502H200.371V112.037H199.783V108.553H200.371V109.991H202.299V108.553H202.887V112.037ZM204.852 112.037H204.023V108.553H204.597V111.249H204.749L206.277 108.553H207.134V112.037H206.56V109.341H206.408L204.852 112.037ZM209.396 108.553H211.131V112.037H210.537V110.661H209.479C209.403 110.661 209.341 110.661 209.265 110.654L208.739 112.037H208.124L208.712 110.523C208.352 110.35 208.173 110.046 208.173 109.611C208.173 108.947 208.601 108.553 209.396 108.553ZM210.537 109.051H209.458C208.933 109.051 208.76 109.265 208.76 109.617C208.76 109.956 208.933 110.164 209.458 110.164H210.537V109.051Z" fill="#4563FF"/>
<rect x="142.442" y="165.035" width="188.732" height="32.4923" rx="1.72832" fill="white"/>
<path d="M156.494 185.059V184.304H158.101V179.174H157.907L156.485 180.132V179.242L157.898 178.284H158.953V184.304H160.433V185.059H156.494ZM162.165 180.152H161.313C161.391 178.797 162.368 178.148 163.568 178.148C164.836 178.148 165.765 178.855 165.765 180.21C165.765 181.129 165.069 181.991 164.265 182.659L162.562 184.091V184.304H165.978V185.059H161.323V184.101L162.32 183.288C162.862 182.852 163.501 182.31 163.859 181.981C164.323 181.565 164.914 181.013 164.914 180.21C164.914 179.358 164.372 178.903 163.549 178.903C162.784 178.903 162.252 179.3 162.165 180.152ZM167.198 178.284H171.157V179.232L169.463 180.684V180.887C170.624 180.916 171.476 181.642 171.476 182.949C171.476 184.352 170.47 185.185 169.085 185.185C167.711 185.185 166.792 184.314 166.714 183.162H167.566C167.643 183.936 168.272 184.43 169.085 184.43C170.015 184.43 170.624 183.878 170.624 182.949C170.624 182.058 170.092 181.507 169.095 181.507C168.853 181.507 168.66 181.526 168.505 181.565V180.665L170.16 179.232V179.019H167.198V178.284ZM176.503 182.717H177.432V183.472H176.503V185.059H175.67V183.472H172.321V182.504L175.312 178.284H176.503V182.717ZM173.212 182.717H175.68V179.242H175.467L173.212 182.504V182.717ZM183.632 180.5C184.987 180.5 185.81 181.507 185.81 182.765C185.81 184.236 184.861 185.185 183.487 185.185C181.996 185.185 181.203 184.304 181.125 183.162H181.967C182.074 184.004 182.625 184.43 183.448 184.43C184.348 184.43 184.958 183.81 184.958 182.804C184.958 181.875 184.387 181.216 183.477 181.216C182.867 181.216 182.422 181.429 182.132 181.855H181.28L181.58 178.284H185.452V179.019H182.267L182.112 180.974H182.325C182.635 180.694 183.003 180.5 183.632 180.5ZM189.475 180.645C190.714 180.645 191.643 181.565 191.643 182.852C191.643 184.139 190.782 185.185 189.34 185.185C187.898 185.185 186.852 184.294 186.852 181.855C186.852 179.794 187.656 178.148 189.427 178.148C190.579 178.148 191.304 178.836 191.459 179.765H190.617C190.453 179.194 190.085 178.903 189.427 178.903C188.343 178.903 187.723 179.823 187.675 181.304H187.888C188.12 181.023 188.662 180.645 189.475 180.645ZM189.33 184.43C190.153 184.43 190.791 183.897 190.791 182.891C190.791 181.884 190.133 181.391 189.311 181.391C188.498 181.391 187.84 181.913 187.84 182.881C187.84 183.868 188.507 184.43 189.33 184.43ZM196.848 179.232L193.915 185.059H193.025L195.967 179.232V179.019H192.531V178.284H196.848V179.232ZM201.705 181.381V181.594C202.15 181.749 202.76 182.31 202.76 183.21C202.76 184.333 201.802 185.185 200.312 185.185C198.821 185.185 197.863 184.333 197.863 183.21C197.863 182.32 198.463 181.749 198.918 181.594V181.381C198.56 181.226 198.066 180.733 198.066 179.958C198.066 178.884 198.995 178.148 200.312 178.148C201.628 178.148 202.557 178.884 202.557 179.958C202.557 180.713 202.054 181.226 201.705 181.381ZM200.312 178.884C199.537 178.884 198.898 179.271 198.898 179.997C198.898 180.723 199.537 181.12 200.312 181.12C201.086 181.12 201.725 180.723 201.725 179.997C201.725 179.271 201.086 178.884 200.312 178.884ZM200.312 184.43C201.308 184.43 201.918 183.917 201.918 183.133C201.918 182.329 201.308 181.855 200.312 181.855C199.315 181.855 198.705 182.329 198.705 183.133C198.705 183.917 199.315 184.43 200.312 184.43ZM205.861 182.688C204.622 182.688 203.693 181.768 203.693 180.481C203.693 179.194 204.554 178.148 205.996 178.148C207.438 178.148 208.483 179.039 208.483 181.478C208.483 183.539 207.68 185.185 205.909 185.185C204.757 185.185 204.031 184.497 203.876 183.568H204.718C204.883 184.139 205.251 184.43 205.909 184.43C206.993 184.43 207.612 183.51 207.661 182.029H207.448C207.216 182.31 206.674 182.688 205.861 182.688ZM206.006 178.903C205.183 178.903 204.544 179.436 204.544 180.442C204.544 181.449 205.202 181.942 206.025 181.942C206.838 181.942 207.496 181.42 207.496 180.452C207.496 179.465 206.828 178.903 206.006 178.903ZM209.585 185.059V184.304H211.191V179.174H210.998L209.575 180.132V179.242L210.988 178.284H212.043V184.304H213.524V185.059H209.585Z" fill="black"/>
<rect x="142.442" y="165.035" width="188.732" height="32.4923" rx="1.72832" stroke="#4563FF" stroke-width="0.691326"/>
<rect width="90.5306" height="8.98724" transform="translate(155.923 159.85)" fill="white"/>
<path d="M162.65 165.94H163.307C163.106 166.818 162.435 167.433 161.35 167.433C159.878 167.433 159.069 166.341 159.069 164.875C159.069 163.41 159.891 162.317 161.357 162.317C162.359 162.317 163.051 162.85 163.251 163.7H162.594C162.408 163.175 162.041 162.884 161.357 162.884C160.209 162.884 159.698 163.831 159.698 164.875C159.698 165.926 160.202 166.866 161.35 166.866C162.041 166.866 162.491 166.514 162.65 165.94ZM167.239 165.394V165.594H164.584C164.605 166.424 164.978 166.922 165.697 166.922C166.188 166.922 166.478 166.714 166.582 166.382H167.176C167.066 166.977 166.561 167.433 165.697 167.433C164.612 167.433 164.003 166.638 164.003 165.567C164.003 164.495 164.625 163.769 165.683 163.769C166.72 163.769 167.218 164.536 167.239 165.394ZM165.669 164.281C165.04 164.281 164.695 164.661 164.618 165.103H166.63C166.596 164.661 166.257 164.281 165.669 164.281ZM169.827 164.281C169.052 164.281 168.734 164.917 168.734 165.601C168.734 166.286 169.052 166.922 169.827 166.922C170.525 166.922 170.898 166.375 170.898 165.601C170.898 164.827 170.525 164.281 169.827 164.281ZM168.153 163.859H168.72V164.232H168.872C169.066 163.99 169.405 163.769 169.958 163.769C170.919 163.769 171.486 164.571 171.486 165.601C171.486 166.652 170.919 167.433 169.958 167.433C169.405 167.433 169.08 167.219 168.893 166.97H168.741V168.726H168.153V163.859ZM173.236 167.343H172.407V163.859H172.981V166.555H173.133L174.66 163.859H175.518V167.343H174.944V164.647H174.792L173.236 167.343ZM177.78 163.859H179.515V167.343H178.921V165.968H177.863C177.787 165.968 177.725 165.968 177.649 165.961L177.123 167.343H176.508L177.096 165.829C176.736 165.656 176.557 165.352 176.557 164.917C176.557 164.253 176.985 163.859 177.78 163.859ZM178.921 164.357H177.842C177.317 164.357 177.144 164.571 177.144 164.924C177.144 165.262 177.317 165.47 177.842 165.47H178.921V164.357ZM183.397 167.343H182.567V163.859H183.141V166.555H183.293L184.821 163.859H185.678V167.343H185.105V164.647H184.952L183.397 167.343ZM191.842 167.343H191.254V165.809H189.326V167.343H188.738V163.859H189.326V165.297H191.254V163.859H191.842V167.343ZM194.478 163.769C195.563 163.769 196.192 164.571 196.192 165.601C196.192 166.631 195.563 167.433 194.478 167.433C193.386 167.433 192.763 166.631 192.763 165.601C192.763 164.571 193.386 163.769 194.478 163.769ZM194.478 166.922C195.245 166.922 195.605 166.286 195.605 165.601C195.605 164.917 195.245 164.281 194.478 164.281C193.704 164.281 193.351 164.917 193.351 165.601C193.351 166.286 193.704 166.922 194.478 166.922ZM197.11 167.343V163.859H198.043L198.9 165.449H199.052L199.909 163.859H200.829V167.343H200.255V164.543H200.103L199.294 166.037H198.644L197.835 164.543H197.683V167.343H197.11ZM204.985 165.394V165.594H202.33C202.351 166.424 202.724 166.922 203.443 166.922C203.934 166.922 204.224 166.714 204.328 166.382H204.923C204.812 166.977 204.307 167.433 203.443 167.433C202.358 167.433 201.749 166.638 201.749 165.567C201.749 164.495 202.372 163.769 203.429 163.769C204.466 163.769 204.964 164.536 204.985 165.394ZM203.415 164.281C202.786 164.281 202.441 164.661 202.365 165.103H204.376C204.342 164.661 204.003 164.281 203.415 164.281ZM207.573 164.281C206.798 164.281 206.48 164.917 206.48 165.601C206.48 166.286 206.798 166.922 207.573 166.922C208.271 166.922 208.644 166.375 208.644 165.601C208.644 164.827 208.271 164.281 207.573 164.281ZM205.9 163.859H206.467V164.232H206.619C206.812 163.99 207.151 163.769 207.704 163.769C208.665 163.769 209.232 164.571 209.232 165.601C209.232 166.652 208.665 167.433 207.704 167.433C207.151 167.433 206.826 167.219 206.639 166.97H206.487V168.726H205.9V163.859ZM215.153 167.343H214.566V164.371H212.665V167.343H212.077V163.859H215.153V167.343ZM218.509 167.343V166.977H218.357C218.143 167.246 217.769 167.433 217.271 167.433C216.47 167.433 216.02 166.894 216.02 166.299C216.02 165.739 216.387 165.145 217.354 165.145H218.488V165.007C218.488 164.585 218.246 164.281 217.638 164.281C217.119 164.281 216.857 164.481 216.829 164.785H216.241C216.29 164.142 216.843 163.769 217.624 163.769C218.502 163.769 219.062 164.191 219.062 164.972V167.343H218.509ZM217.417 166.922C217.997 166.922 218.488 166.486 218.488 165.933V165.615H217.444C216.871 165.615 216.608 165.864 216.608 166.279C216.608 166.673 216.898 166.922 217.417 166.922ZM222.495 166.292H223.083C222.952 166.977 222.426 167.433 221.617 167.433C220.532 167.433 219.924 166.631 219.924 165.601C219.924 164.55 220.532 163.769 221.617 163.769C222.447 163.769 222.945 164.225 223.062 164.868H222.475C222.364 164.516 222.094 164.281 221.617 164.281C220.829 164.281 220.511 164.896 220.511 165.587C220.511 166.286 220.836 166.922 221.617 166.922C222.115 166.922 222.406 166.68 222.495 166.292ZM227.036 167.343H226.448V164.371H224.547V167.343H223.959V163.859H227.036V167.343ZM229.672 163.769C230.758 163.769 231.387 164.571 231.387 165.601C231.387 166.631 230.758 167.433 229.672 167.433C228.58 167.433 227.958 166.631 227.958 165.601C227.958 164.571 228.58 163.769 229.672 163.769ZM229.672 166.922C230.44 166.922 230.799 166.286 230.799 165.601C230.799 164.917 230.44 164.281 229.672 164.281C228.898 164.281 228.545 164.917 228.545 165.601C228.545 166.286 228.898 166.922 229.672 166.922ZM233.977 164.281C233.202 164.281 232.884 164.917 232.884 165.601C232.884 166.286 233.202 166.922 233.977 166.922C234.675 166.922 235.048 166.375 235.048 165.601C235.048 164.827 234.675 164.281 233.977 164.281ZM232.304 163.859H232.871V164.232H233.023C233.216 163.99 233.555 163.769 234.108 163.769C235.069 163.769 235.636 164.571 235.636 165.601C235.636 166.652 235.069 167.433 234.108 167.433C233.555 167.433 233.23 167.219 233.043 166.97H232.891V168.726H232.304V163.859ZM236.13 164.371V163.859H239.13V164.371H237.927V167.343H237.34V164.371H236.13ZM242.125 167.343V166.977H241.973C241.758 167.246 241.385 167.433 240.887 167.433C240.085 167.433 239.636 166.894 239.636 166.299C239.636 165.739 240.002 165.145 240.97 165.145H242.104V165.007C242.104 164.585 241.862 164.281 241.254 164.281C240.735 164.281 240.473 164.481 240.445 164.785H239.857C239.906 164.142 240.459 163.769 241.24 163.769C242.118 163.769 242.678 164.191 242.678 164.972V167.343H242.125ZM241.032 166.922C241.613 166.922 242.104 166.486 242.104 165.933V165.615H241.06C240.486 165.615 240.224 165.864 240.224 166.279C240.224 166.673 240.514 166.922 241.032 166.922Z" fill="#4563FF"/>
<rect x="109.605" y="-125.89" width="255.791" height="479.089" rx="4.14796" stroke="#E0E3F0" stroke-width="1.38265"/>
<g filter="url(#filter1_i_73_5857)">
<circle cx="238" cy="176" r="176" fill="#4563FF" fill-opacity="0.01"/>
</g>
</g>
<defs>
<filter id="filter0_f_73_5857" x="0" y="63" width="474" height="364" filterUnits="userSpaceOnUse" color-interpolation-filters="sRGB">
<feFlood flood-opacity="0" result="BackgroundImageFix"/>
<feBlend mode="normal" in="SourceGraphic" in2="BackgroundImageFix" result="shape"/>
<feGaussianBlur stdDeviation="32" result="effect1_foregroundBlur_73_5857"/>
</filter>
<filter id="filter1_i_73_5857" x="62" y="3.05176e-05" width="352" height="392" filterUnits="userSpaceOnUse" color-interpolation-filters="sRGB">
<feFlood flood-opacity="0" result="BackgroundImageFix"/>
<feBlend mode="normal" in="SourceGraphic" in2="BackgroundImageFix" result="shape"/>
<feColorMatrix in="SourceAlpha" type="matrix" values="0 0 0 0 0 0 0 0 0 0 0 0 0 0 0 0 0 0 127 0" result="hardAlpha"/>
<feOffset dy="40"/>
<feGaussianBlur stdDeviation="20"/>
<feComposite in2="hardAlpha" operator="arithmetic" k2="-1" k3="1"/>
<feColorMatrix type="matrix" values="0 0 0 0 0.241875 0 0 0 0 0.311734 0 0 0 0 0.675 0 0 0 0.04 0"/>
<feBlend mode="normal" in2="shape" result="effect1_innerShadow_73_5857"/>
</filter>
</defs>
</svg>
