<svg width="130" height="90" viewBox="0 0 130 90" fill="none" xmlns="http://www.w3.org/2000/svg">
<path d="M124.401 0H33.6762C30.6699 0 28.3079 2.3538 28.3079 5.34955V6.95442H114.308C119.032 6.95442 122.898 10.8061 122.898 15.5137V60.7709H124.508C127.514 60.7709 129.876 58.4171 129.876 55.4213V5.34955C129.769 2.3538 127.3 0 124.401 0Z" fill="#4563FF"/>
<path d="M114.199 71.8985H23.4747C19.9316 71.8985 17.0327 69.0097 17.0327 65.479V15.4073C17.0327 11.8765 19.9316 8.98779 23.4747 8.98779H114.199C117.742 8.98779 120.641 11.8765 120.641 15.4073V65.372C120.641 69.0097 117.742 71.8985 114.199 71.8985ZM23.4747 11.1276C21.1126 11.1276 19.18 13.0535 19.18 15.4073V65.372C19.18 67.7258 21.1126 69.6517 23.4747 69.6517H114.199C116.561 69.6517 118.494 67.7258 118.494 65.372V15.4073C118.494 13.0535 116.561 11.1276 114.199 11.1276H23.4747Z" fill="#4563FF"/>
<path d="M81.4524 22.4684C84.4587 22.4684 86.8207 24.8222 86.8207 27.818C86.8207 30.8137 84.4587 33.1675 81.4524 33.1675C78.4462 33.1675 76.0841 30.8137 76.0841 27.818C76.0841 24.8222 78.5535 22.4684 81.4524 22.4684ZM81.4524 20.3286C77.2651 20.3286 73.9368 23.6453 73.9368 27.818C73.9368 31.9906 77.2651 35.3074 81.4524 35.3074C85.6397 35.3074 88.9681 31.9906 88.9681 27.818C88.9681 23.6453 85.6397 20.3286 81.4524 20.3286Z" fill="#4563FF"/>
<path d="M101.852 35.3074C106.003 35.3074 109.368 31.9542 109.368 27.818C109.368 23.6817 106.003 20.3286 101.852 20.3286C97.7013 20.3286 94.3364 23.6817 94.3364 27.818C94.3364 31.9542 97.7013 35.3074 101.852 35.3074Z" fill="#FF0029"/>
<path d="M44.1795 67.314C44.1795 79.0948 34.595 88.6501 22.7656 88.6501C10.9362 88.6501 1.35171 79.0948 1.35171 67.314C1.35171 55.5332 10.9362 45.9779 22.7656 45.9779C34.595 45.9779 44.1795 55.5332 44.1795 67.314Z" fill="white" stroke="#4563FF" stroke-width="1.7"/>
<path d="M33.9924 60.1992L18.7576 75.3807L10.418 67.0709" stroke="#4563FF" stroke-width="1.7" stroke-linecap="round" stroke-linejoin="round"/>
</svg>
