<svg width="24" height="23" viewBox="0 0 24 23" fill="none" xmlns="http://www.w3.org/2000/svg">
<path d="M1.31836 18.5278V18.5278C1.31836 20.1156 2.60554 21.4028 4.19336 21.4028H17.61C18.4921 21.4028 19.2072 20.6877 19.2072 19.8056V17.25" stroke="#7B7794" stroke-width="0.638889"/>
<path d="M1.31836 18.5277H0.998915V18.8471H1.31836V18.5277ZM2.27669 0.63878H17.61V-0.00010851H2.27669V0.63878ZM17.61 18.2082H1.31836V18.8471H17.61V18.2082ZM1.6378 18.5277V1.27767H0.998915V18.5277H1.6378ZM19.5267 16.9304V1.91656H18.8878V16.9304H19.5267ZM17.61 18.8471C18.6686 18.8471 19.5267 17.989 19.5267 16.9304H18.8878C18.8878 17.6361 18.3157 18.2082 17.61 18.2082V18.8471ZM17.61 0.63878C18.3157 0.63878 18.8878 1.21086 18.8878 1.91656H19.5267C19.5267 0.858014 18.6686 -0.00010851 17.61 -0.00010851V0.63878ZM2.27669 -0.00010851C1.57099 -0.00010851 0.998915 0.571975 0.998915 1.27767H1.6378C1.6378 0.924822 1.92384 0.63878 2.27669 0.63878V-0.00010851Z" fill="#7B7794"/>
<line x1="16.6513" y1="5.11144" x2="5.15126" y2="5.11144" stroke="#7B7794" stroke-width="0.638889" stroke-linecap="round"/>
<line x1="16.6513" y1="7.6671" x2="5.15126" y2="7.6671" stroke="#7B7794" stroke-width="0.638889" stroke-linecap="round"/>
<line x1="2.59657" y1="18.2079" x2="2.59657" y2="0.31901" stroke="#7B7794" stroke-width="0.638889" stroke-linecap="round"/>
<path d="M3.55469 19.8057H6.74913V22.0418C6.74913 22.571 6.32007 23.0001 5.7908 23.0001H4.51302C3.98375 23.0001 3.55469 22.571 3.55469 22.0418V19.8057Z" fill="#7B7794"/>
</svg>
