<svg width="215" height="274" viewBox="0 0 215 274" fill="none" xmlns="http://www.w3.org/2000/svg">
<path d="M210 15H55C52.2386 15 50 17.2386 50 20V209C50 211.761 52.2386 214 55 214H210C212.761 214 215 211.761 215 209V20C215 17.2386 212.761 15 210 15Z" fill="#4563FF"/>
<path d="M196 28H43C39.6863 28 37 30.6863 37 34V221C37 224.314 39.6863 227 43 227H196C199.314 227 202 224.314 202 221V34C202 30.6863 199.314 28 196 28Z" fill="#4563FF" stroke="white" stroke-width="4"/>
<path d="M195 31H40C37.2386 31 35 33.2386 35 36V225C35 227.761 37.2386 230 40 230H195C197.761 230 200 227.761 200 225V36C200 33.2386 197.761 31 195 31Z" fill="white" stroke="#4563FF" stroke-width="4"/>
<line x1="58" y1="111" x2="179" y2="111" stroke="#4563FF" stroke-width="4" stroke-linecap="round"/>
<line x1="58" y1="85" x2="179" y2="85" stroke="#4563FF" stroke-width="4" stroke-linecap="round"/>
<line x1="58" y1="60" x2="179" y2="60" stroke="#4563FF" stroke-width="4" stroke-linecap="round"/>
<line x1="58" y1="137" x2="132" y2="137" stroke="#4563FF" stroke-width="4" stroke-linecap="round"/>
<path d="M90 227.5C90 252.097 70.2802 272 46 272C21.7198 272 2 252.097 2 227.5C2 202.903 21.7198 183 46 183C70.2802 183 90 202.903 90 227.5Z" fill="white" stroke="#4563FF" stroke-width="4"/>
<path d="M67 210.5L41.8 244.5L25 227.5" stroke="#4563FF" stroke-width="4" stroke-linecap="round" stroke-linejoin="round"/>
<circle cx="176.5" cy="207.5" r="6.5" fill="#FF0029"/>
<circle cx="155.5" cy="207.5" r="6.5" fill="#4563FF"/>
</svg>
