<svg width="160" height="46" viewBox="0 0 160 46" fill="none" xmlns="http://www.w3.org/2000/svg">
<path d="M158.347 40.6972C158.347 43.1486 156.319 45.1343 153.812 45.1343H5.42524C2.91918 45.1343 0.88501 43.1486 0.88501 40.6972V5.31298C0.88501 2.86275 2.91918 0.870117 5.42524 0.870117H153.811C156.32 0.870117 158.345 2.86275 158.345 5.31298L158.347 40.6972Z" fill="black"/>
<path d="M153.333 0.921437C156.064 0.921437 158.286 3.08775 158.286 5.75V40.25C158.286 42.9123 156.064 45.0786 153.333 45.0786H5.89744C3.16692 45.0786 0.945064 42.9123 0.945064 40.25V5.75C0.945064 3.08775 3.16692 0.921437 5.89744 0.921437H153.333ZM153.333 2.43107e-06H5.89744C2.65532 2.43107e-06 0 2.58894 0 5.75V40.25C0 43.4111 2.65532 46 5.89744 46H153.333C156.575 46 159.231 43.4111 159.231 40.25V5.75C159.231 2.58894 156.575 2.43107e-06 153.333 2.43107e-06Z" fill="#A6A6A6"/>
<path d="M35.5377 22.7515C35.5035 19.045 38.6503 17.2418 38.7942 17.1579C37.012 14.6244 34.2497 14.2783 33.2789 14.2507C30.9589 14.0126 28.7084 15.6042 27.5266 15.6042C26.3212 15.6042 24.5012 14.2737 22.5397 14.3128C20.0156 14.3507 17.6543 15.7756 16.3592 17.9882C13.6865 22.4996 15.6798 29.1294 18.2405 32.776C19.5214 34.562 21.0182 36.5561 22.9773 36.4859C24.894 36.4089 25.6099 35.2945 27.9229 35.2945C30.2146 35.2945 30.887 36.4859 32.885 36.4411C34.942 36.4089 36.2371 34.6471 37.4732 32.845C38.9535 30.798 39.5479 28.7821 39.5715 28.6786C39.5232 28.6625 35.5766 27.1939 35.5377 22.7515Z" fill="white"/>
<path d="M31.7633 11.8518C32.7942 10.5948 33.4995 8.88476 33.3037 7.14941C31.8117 7.21381 29.9457 8.15566 28.8712 9.38501C27.9205 10.4683 27.0713 12.2439 27.2907 13.9137C28.9667 14.0356 30.6876 13.0892 31.7633 11.8518Z" fill="white"/>
<path d="M63.2689 36.2285H60.5903L59.123 31.7332H54.0229L52.6252 36.2285H50.0173L55.0703 20.9243H58.1912L63.2689 36.2285ZM58.6807 29.8472L57.3537 25.8509C57.2134 25.4427 56.9504 24.4813 56.5623 22.9679H56.5151C56.3606 23.6188 56.1117 24.5802 55.7697 25.8509L54.4664 29.8472H58.6807Z" fill="white"/>
<path d="M76.263 30.5758C76.263 32.4526 75.7429 33.9361 74.7026 35.0252C73.7708 35.9946 72.6137 36.4788 71.2325 36.4788C69.7417 36.4788 68.6707 35.9567 68.0184 34.9125H67.9712V40.7257H65.4566V28.8267C65.4566 27.6468 65.4247 26.4358 65.3634 25.1938H67.5749L67.7153 26.943H67.7625C68.6011 25.6251 69.8738 24.9673 71.5817 24.9673C72.9168 24.9673 74.0315 25.4813 74.9231 26.5106C75.8172 27.541 76.263 28.8957 76.263 30.5758ZM73.7012 30.6655C73.7012 29.5914 73.4535 28.7059 72.9558 28.009C72.412 27.2822 71.6819 26.9188 70.7666 26.9188C70.1462 26.9188 69.5824 27.1212 69.0788 27.5203C68.574 27.9228 68.2437 28.4483 68.0892 29.0992C68.0113 29.4028 67.9724 29.6512 67.9724 29.8467V31.6867C67.9724 32.4894 68.2248 33.1668 68.7297 33.7199C69.2345 34.2731 69.8903 34.5491 70.697 34.5491C71.6442 34.5491 72.3814 34.1926 72.9086 33.4819C73.437 32.77 73.7012 31.8316 73.7012 30.6655Z" fill="white"/>
<path d="M89.2797 30.5758C89.2797 32.4526 88.7595 33.9361 87.718 35.0252C86.7874 35.9946 85.6304 36.4788 84.2492 36.4788C82.7583 36.4788 81.6873 35.9567 81.0363 34.9125H80.9891V40.7257H78.4744V28.8267C78.4744 27.6468 78.4426 26.4358 78.3812 25.1938H80.5928L80.7331 26.943H80.7803C81.6177 25.6251 82.8904 24.9673 84.5995 24.9673C85.9335 24.9673 87.0481 25.4813 87.9422 26.5106C88.8327 27.541 89.2797 28.8957 89.2797 30.5758ZM86.7178 30.6655C86.7178 29.5914 86.469 28.7059 85.9712 28.009C85.4275 27.2822 84.6997 26.9188 83.7833 26.9188C83.1617 26.9188 82.5991 27.1212 82.0943 27.5203C81.5894 27.9228 81.2604 28.4483 81.1058 29.0992C81.0292 29.4028 80.9891 29.6512 80.9891 29.8467V31.6867C80.9891 32.4894 81.2415 33.1668 81.7439 33.7199C82.2488 34.2719 82.9046 34.5491 83.7137 34.5491C84.6608 34.5491 85.398 34.1926 85.9252 33.4819C86.4536 32.77 86.7178 31.8316 86.7178 30.6655Z" fill="white"/>
<path d="M103.836 31.9373C103.836 33.2391 103.372 34.2983 102.442 35.1159C101.419 36.0095 99.9956 36.4557 98.1662 36.4557C96.4772 36.4557 95.1231 36.1383 94.0981 35.5023L94.6808 33.4588C95.7848 34.1097 96.9961 34.4363 98.316 34.4363C99.2631 34.4363 100 34.227 100.53 33.8107C101.057 33.3944 101.32 32.8355 101.32 32.1386C101.32 31.5176 101.103 30.9943 100.668 30.57C100.235 30.1456 99.512 29.7512 98.5023 29.3866C95.7541 28.3873 94.3812 26.9233 94.3812 24.9982C94.3812 23.7401 94.8625 22.7086 95.8261 21.9059C96.7862 21.102 98.0671 20.7007 99.6689 20.7007C101.097 20.7007 102.284 20.9433 103.231 21.4275L102.602 23.4262C101.718 22.957 100.717 22.7224 99.5981 22.7224C98.7135 22.7224 98.0223 22.9351 97.5269 23.3583C97.1082 23.7367 96.8982 24.1978 96.8982 24.7441C96.8982 25.349 97.1377 25.8492 97.6189 26.2425C98.0376 26.6059 98.7984 26.9992 99.9024 27.4236C101.253 27.9537 102.245 28.5736 102.883 29.2843C103.519 29.9927 103.836 30.8793 103.836 31.9373Z" fill="white"/>
<path d="M112.149 27.0355H109.377V32.3933C109.377 33.7561 109.865 34.4369 110.844 34.4369C111.294 34.4369 111.666 34.3989 111.961 34.323L112.031 36.1849C111.536 36.3654 110.883 36.4563 110.075 36.4563C109.082 36.4563 108.306 36.1607 107.746 35.5708C107.188 34.9797 106.907 33.9884 106.907 32.5957V27.0332H105.256V25.1932H106.907V23.1726L109.377 22.4458V25.1932H112.149V27.0355Z" fill="white"/>
<path d="M124.655 30.6195C124.655 32.3158 124.158 33.7084 123.164 34.7975C122.123 35.9187 120.741 36.4776 119.017 36.4776C117.357 36.4776 116.034 35.9406 115.048 34.8665C114.062 33.7924 113.569 32.4365 113.569 30.8024C113.569 29.0923 114.077 27.6916 115.094 26.6026C116.11 25.5124 117.481 24.9673 119.204 24.9673C120.864 24.9673 122.201 25.5043 123.209 26.5796C124.174 27.6226 124.655 28.9693 124.655 30.6195ZM122.046 30.6989C122.046 29.6811 121.823 28.8083 121.372 28.0803C120.844 27.1994 120.091 26.7601 119.114 26.7601C118.103 26.7601 117.335 27.2006 116.808 28.0803C116.356 28.8094 116.134 29.6961 116.134 30.7449C116.134 31.7626 116.356 32.6355 116.808 33.3623C117.352 34.2432 118.112 34.6825 119.092 34.6825C120.052 34.6825 120.805 34.234 121.349 33.3393C121.813 32.5975 122.046 31.7155 122.046 30.6989Z" fill="white"/>
<path d="M132.834 27.3501C132.585 27.3052 132.32 27.2822 132.041 27.2822C131.157 27.2822 130.472 27.6077 129.991 28.2597C129.573 28.8347 129.363 29.5615 129.363 30.439V36.2292H126.849L126.873 28.6691C126.873 27.3972 126.841 26.2392 126.778 25.195H128.969L129.061 27.3064H129.13C129.396 26.5807 129.814 25.9965 130.388 25.5584C130.948 25.1639 131.553 24.9673 132.205 24.9673C132.438 24.9673 132.647 24.9834 132.834 25.0121V27.3501Z" fill="white"/>
<path d="M144.076 30.1891C144.076 30.6284 144.047 30.9987 143.984 31.3012H136.44C136.47 32.3914 136.834 33.2251 137.535 33.8001C138.17 34.3142 138.993 34.5718 140.002 34.5718C141.119 34.5718 142.138 34.3981 143.055 34.0497L143.449 35.7517C142.378 36.2071 141.113 36.4336 139.654 36.4336C137.899 36.4336 136.522 35.9299 135.519 34.9237C134.519 33.9174 134.017 32.5662 134.017 30.8711C134.017 29.207 134.483 27.8213 135.416 26.7161C136.393 25.5362 137.713 24.9463 139.374 24.9463C141.005 24.9463 142.24 25.5362 143.078 26.7161C143.742 27.6534 144.076 28.8126 144.076 30.1891ZM141.678 29.5532C141.695 28.8264 141.531 28.1985 141.19 27.6683C140.755 26.9864 140.086 26.646 139.186 26.646C138.364 26.646 137.695 26.9783 137.184 27.6453C136.766 28.1755 136.517 28.8114 136.44 29.552H141.678V29.5532Z" fill="white"/>
<path d="M55.8587 10.4788C55.8587 11.1427 55.4824 11.7403 54.3648 11.7403H53.0922V12.6477H54.3537C55.6816 12.6477 56.1575 13.2231 56.1575 14.0642C56.1575 14.9937 55.3718 15.547 54.2099 15.547C53.0258 15.547 52.2401 15.0822 51.9856 14.1416H50.9454C51.1778 15.547 52.2512 16.4544 54.1988 16.4544C56.1464 16.4544 57.1755 15.3367 57.1755 14.0863C57.1755 12.9908 56.6665 12.4707 56.0357 12.2051V11.9616C56.4895 11.7071 56.8657 11.2423 56.8657 10.357C56.8657 9.22832 55.9472 8.26558 54.1435 8.26558C52.5057 8.26558 51.4544 9.09553 51.2774 10.4124H52.2954C52.4725 9.62669 53.0369 9.17299 54.1435 9.17299C55.1173 9.17299 55.8587 9.62669 55.8587 10.4788ZM62.1794 16.3105H63.0646V12.5149C63.0646 11.2645 62.1683 10.5894 60.7629 10.5894C59.5125 10.5894 58.6272 11.187 58.5497 12.2161H59.4903C59.5346 11.7292 59.9551 11.4083 60.785 11.4083C61.7588 11.4083 62.1462 11.8952 62.1462 12.5702V12.7916H60.3313C58.7821 12.7916 58.1956 13.7432 58.1956 14.6396C58.1956 15.5913 58.9149 16.4544 60.1985 16.4544C60.9953 16.4544 61.5929 16.1556 61.9359 15.724H62.1794V16.3105ZM60.4309 15.6355C59.601 15.6355 59.1362 15.2371 59.1362 14.6064C59.1362 13.9424 59.5567 13.5441 60.4752 13.5441H62.1462V14.0531C62.1462 14.9384 61.3605 15.6355 60.4309 15.6355ZM64.7869 16.3105H65.7276V11.5522H68.9699V10.7333H64.7869V16.3105ZM72.9006 11.4083C74.0183 11.4083 74.6159 12.2825 74.6159 13.5219C74.6159 14.7613 74.0183 15.6355 72.9006 15.6355C71.6613 15.6355 71.1522 14.6175 71.1522 13.5219C71.1522 12.4264 71.6613 11.4083 72.9006 11.4083ZM70.2227 10.7333V18.5237H71.1633V15.713H71.4067C71.7055 16.1114 72.2256 16.4544 73.1109 16.4544C74.6491 16.4544 75.5565 15.2039 75.5565 13.5219C75.5565 11.8731 74.6491 10.5894 73.1109 10.5894C72.2256 10.5894 71.6834 10.9435 71.3735 11.3309H71.1301V10.7333H70.2227ZM78.4061 18.5237L81.7481 10.7333H80.7632L79.214 14.4072H78.9373L77.2332 10.7333H76.2261L78.6053 15.7904L77.4545 18.5237H78.4061ZM85.8916 12.2604C85.8916 12.692 85.6039 13.0571 84.8071 13.0571H83.8665V13.876H84.8514C85.7699 13.876 86.0797 14.1969 86.0797 14.7392C86.0797 15.3478 85.5043 15.6355 84.7075 15.6355C83.944 15.6355 83.3132 15.4253 83.103 14.7281H82.1956C82.3615 15.7794 83.1694 16.4544 84.7075 16.4544C86.2125 16.4544 87.0203 15.6909 87.0203 14.7724C87.0203 14.0088 86.633 13.6326 86.2236 13.5109V13.2674C86.5445 13.1457 86.8211 12.7584 86.8211 12.1387C86.8211 11.2977 86.0686 10.5894 84.6854 10.5894C83.3907 10.5894 82.5165 11.2091 82.4169 12.2715H83.3132C83.446 11.6628 83.8665 11.4083 84.6633 11.4083C85.3826 11.4083 85.8916 11.696 85.8916 12.2604ZM89.857 16.3105L92.3469 11.9948H92.5903V16.3105H93.5088V10.7333H92.1366L89.691 15.049H89.4476V10.7333H88.5291V16.3105H89.857ZM94.751 11.5522H96.6876V16.3105H97.6282V11.5522H99.5537V10.7333H94.751V11.5522ZM105.544 13.1899C105.511 11.8178 104.714 10.5894 103.054 10.5894C101.361 10.5894 100.365 11.7514 100.365 13.4666C100.365 15.1818 101.339 16.4544 103.076 16.4544C104.46 16.4544 105.267 15.724 105.444 14.7724H104.493C104.327 15.3035 103.862 15.6355 103.076 15.6355C101.925 15.6355 101.328 14.8388 101.295 13.5109H105.544V13.1899ZM103.032 11.4083C103.973 11.4083 104.515 12.0169 104.57 12.7252H101.35C101.472 12.0169 102.025 11.4083 103.032 11.4083ZM114.017 13.2342C114.327 13.0682 114.614 12.6809 114.614 12.1387C114.614 11.2534 113.972 10.7333 112.855 10.7333H110.088V16.3105H112.954C114.227 16.3105 114.924 15.8015 114.924 14.7834C114.924 14.0642 114.537 13.6104 114.017 13.4777V13.2342ZM111.018 15.5138V13.8428H112.899C113.707 13.8428 113.984 14.208 113.984 14.6838C113.984 15.1597 113.707 15.5138 112.899 15.5138H111.018ZM111.018 11.53H112.766C113.441 11.53 113.674 11.862 113.674 12.2936C113.674 12.692 113.441 13.0461 112.766 13.0461H111.018V11.53Z" fill="white"/>
</svg>
