<svg width="160" height="46" viewBox="0 0 160 46" fill="none" xmlns="http://www.w3.org/2000/svg">
<path d="M153.353 46H6.12004C2.88238 46 0.230713 43.4111 0.230713 40.25V5.75001C0.230713 2.58895 2.88238 1.66036e-05 6.12004 1.66036e-05H153.353C156.591 1.66036e-05 159.243 2.58895 159.243 5.75001V40.25C159.243 43.4111 156.591 46 153.353 46Z" fill="black"/>
<path d="M153.353 0.921451C156.08 0.921451 158.299 3.08777 158.299 5.75001V40.25C158.299 42.9123 156.08 45.0786 153.353 45.0786H6.12004C3.39328 45.0786 1.17448 42.9123 1.17448 40.25V5.75001C1.17448 3.08777 3.39328 0.921451 6.12004 0.921451H153.353ZM153.353 1.66036e-05H6.12004C2.88238 1.66036e-05 0.230713 2.58895 0.230713 5.75001V40.25C0.230713 43.4111 2.88238 46 6.12004 46H153.353C156.591 46 159.243 43.4111 159.243 40.25V5.75001C159.243 2.58895 156.591 1.66036e-05 153.353 1.66036e-05Z" fill="#A6A6A6"/>
<path d="M80.4845 25.0152C77.7179 25.0152 75.4579 27.0708 75.4579 29.907C75.4579 32.7202 77.7179 34.7974 80.4845 34.7974C83.2569 34.7974 85.5169 32.7202 85.5169 29.907C85.5169 27.0708 83.2569 25.0152 80.4845 25.0152ZM80.4845 32.8712C78.9665 32.8712 77.6605 31.6478 77.6605 29.907C77.6605 28.1432 78.9665 26.9415 80.4845 26.9415C82.0024 26.9415 83.3143 28.1432 83.3143 29.907C83.3143 31.6478 82.0024 32.8712 80.4845 32.8712ZM69.5171 25.0152C66.7447 25.0152 64.4905 27.0708 64.4905 29.907C64.4905 32.7202 66.7447 34.7974 69.5171 34.7974C72.288 34.7974 74.5436 32.7202 74.5436 29.907C74.5436 27.0708 72.288 25.0152 69.5171 25.0152ZM69.5171 32.8712C67.9976 32.8712 66.6872 31.6478 66.6872 29.907C66.6872 28.1432 67.9976 26.9415 69.5171 26.9415C71.035 26.9415 72.341 28.1432 72.341 29.907C72.341 31.6478 71.035 32.8712 69.5171 32.8712ZM56.4663 26.5145V28.5932H61.5503C61.4016 29.7547 61.004 30.6085 60.3945 31.2037C59.6524 31.9224 58.4967 32.7202 56.4663 32.7202C53.3376 32.7202 50.8876 30.2549 50.8876 27.2002C50.8876 24.1455 53.3376 21.6802 56.4663 21.6802C58.158 21.6802 59.3889 22.3257 60.2973 23.1623L61.7976 21.6975C60.527 20.513 58.8368 19.603 56.4663 19.603C52.1759 19.603 48.5702 23.0113 48.5702 27.2002C48.5702 31.3891 52.1759 34.7974 56.4663 34.7974C58.7852 34.7974 60.527 34.0557 61.8963 32.6642C63.2994 31.2942 63.7367 29.368 63.7367 27.8126C63.7367 27.3296 63.6955 26.8854 63.6218 26.5145H56.4663ZM109.832 28.126C109.419 27.032 108.142 25.0152 105.542 25.0152C102.965 25.0152 100.82 26.9975 100.82 29.907C100.82 32.6469 102.943 34.7974 105.789 34.7974C108.091 34.7974 109.419 33.4275 109.965 32.6297L108.257 31.5185C107.687 32.3321 106.911 32.8712 105.789 32.8712C104.675 32.8712 103.875 32.3723 103.363 31.3891L110.064 28.6823L109.832 28.126ZM103.001 29.7547C102.943 27.8687 104.501 26.9027 105.617 26.9027C106.492 26.9027 107.234 27.3296 107.481 27.9405L103.001 29.7547ZM97.5547 34.4998H99.7573V20.1249H97.5547V34.4998ZM93.9475 26.1048H93.8738C93.3791 25.5327 92.4354 25.0152 91.2398 25.0152C88.731 25.0152 86.4371 27.1657 86.4371 29.9228C86.4371 32.6642 88.731 34.7974 91.2398 34.7974C92.4354 34.7974 93.3791 34.2756 93.8738 33.6862H93.9475V34.3877C93.9475 36.2579 92.9242 37.2627 91.2737 37.2627C89.928 37.2627 89.0932 36.314 88.7487 35.5162L86.8331 36.2967C87.3853 37.5933 88.8473 39.189 91.2737 39.189C93.8562 39.189 96.0352 37.7055 96.0352 34.0959V25.3128H93.9475V26.1048ZM91.4283 32.8712C89.9103 32.8712 88.6397 31.6306 88.6397 29.9228C88.6397 28.1993 89.9103 26.9415 91.4283 26.9415C92.9242 26.9415 94.1035 28.1993 94.1035 29.9228C94.1035 31.6306 92.9242 32.8712 91.4283 32.8712ZM120.145 20.1249H114.877V34.4998H117.073V29.0532H120.145C122.584 29.0532 124.977 27.3296 124.977 24.5883C124.977 21.8484 122.578 20.1249 120.145 20.1249ZM120.202 27.0536H117.073V22.1244H120.202C121.842 22.1244 122.779 23.4541 122.779 24.5883C122.779 25.7009 121.842 27.0536 120.202 27.0536ZM133.781 24.9879C132.194 24.9879 130.544 25.6722 129.865 27.1887L131.814 27.9865C132.234 27.1887 133.005 26.93 133.821 26.93C134.961 26.93 136.117 27.5984 136.134 28.7786V28.9295C135.737 28.7053 134.886 28.3732 133.839 28.3732C131.739 28.3732 129.6 29.5017 129.6 31.6076C129.6 33.5338 131.32 34.7744 133.253 34.7744C134.731 34.7744 135.547 34.1232 136.059 33.3657H136.134V34.4768H138.256V28.9626C138.256 26.4139 136.306 24.9879 133.781 24.9879ZM133.516 32.8654C132.798 32.8654 131.797 32.5175 131.797 31.6478C131.797 30.5352 133.045 30.1083 134.126 30.1083C135.093 30.1083 135.547 30.3167 136.134 30.5913C135.962 31.9224 134.788 32.8654 133.516 32.8654ZM145.986 25.3027L143.461 31.5343H143.385L140.775 25.3027H138.406L142.328 34.0111L140.09 38.8569H142.386L148.43 25.3027H145.986ZM126.184 34.4998H128.387V20.1249H126.184V34.4998Z" fill="white"/>
<path d="M12.5213 8.66883C12.1753 9.02245 11.9751 9.57301 11.9751 10.286V35.7183C11.9751 36.4313 12.1753 36.9818 12.5213 37.3355L12.6067 37.4131L27.2034 23.1675V22.8311L12.6067 8.58545L12.5213 8.66883Z" fill="url(#paint0_linear_10133_111061)"/>
<path d="M32.0685 27.9165L27.2084 23.1656V22.8292L32.0744 18.0783L32.1834 18.1401L37.9461 21.3414C39.5907 22.2499 39.5907 23.7449 37.9461 24.6591L32.1834 27.8547L32.0685 27.9165Z" fill="url(#paint1_linear_10133_111061)"/>
<path d="M32.177 27.8569L27.202 22.9995L12.5199 37.3357C13.0661 37.8964 13.9569 37.9639 14.9699 37.4033L32.177 27.8569Z" fill="url(#paint2_linear_10133_111061)"/>
<path d="M32.177 18.1407L14.9699 8.5943C13.9569 8.03943 13.0661 8.10699 12.5199 8.66761L27.202 22.998L32.177 18.1407Z" fill="url(#paint3_linear_10133_111061)"/>
<path d="M55.564 13.5544V7.72629H51.3958V9.05421C51.3958 11.249 50.9901 12.6599 50.5659 13.5544H49.8835V15.9243H50.7042V14.3105H55.6931V15.9243H56.5139V13.5544H55.564ZM54.7433 13.5544H51.4512C51.8293 12.6968 52.1889 11.2305 52.1889 9.19253V8.48246H54.7433V13.5544ZM60.8002 7.60641C58.7899 7.60641 57.7294 9.12798 57.7294 11.0184C57.7294 12.9089 58.7899 14.4304 60.8002 14.4304C62.8013 14.4304 63.871 12.9089 63.871 11.0184C63.871 9.12798 62.8013 7.60641 60.8002 7.60641ZM60.8002 13.6743C59.2325 13.6743 58.5686 12.3924 58.5686 11.0184C58.5686 9.64439 59.2325 8.36258 60.8002 8.36258C62.3679 8.36258 63.0318 9.64439 63.0318 11.0184C63.0318 12.3924 62.3679 13.6743 60.8002 13.6743ZM70.1267 12.4386C69.9146 13.2039 69.3152 13.6743 68.393 13.6743C66.8622 13.6743 66.189 12.4201 66.189 11.0184C66.189 9.62595 66.8714 8.36258 68.4022 8.36258C69.3152 8.36258 69.8039 8.74989 70.0529 9.45074H70.929C70.6615 8.31647 69.7394 7.60641 68.4022 7.60641C66.4472 7.60641 65.3499 9.06343 65.3499 11.0184C65.3499 12.9734 66.4288 14.4304 68.393 14.4304C69.8408 14.4304 70.7353 13.6097 71.0027 12.4386H70.1267ZM77.2529 7.72629H72.0888V8.46402H74.2651V14.3105H75.095V8.46402H77.2529V7.72629ZM80.7726 11.1844L78.9467 7.72629H78.0522L80.4868 12.3371L79.5461 14.3105H80.4038L83.5483 7.72629H82.6815L81.0308 11.1844H80.7726ZM85.0581 7.72629V14.3105H85.8881V8.48246H89.5029V14.3105H90.3329V7.72629H85.0581ZM96.9808 7.72629V10.5297H93.3014V7.72629H92.4714V14.3105H93.3014V11.3043H96.9808V14.3105H97.8108V7.72629H96.9808ZM102.687 7.60641C100.676 7.60641 99.6158 9.12798 99.6158 11.0184C99.6158 12.9089 100.676 14.4304 102.687 14.4304C104.688 14.4304 105.757 12.9089 105.757 11.0184C105.757 9.12798 104.688 7.60641 102.687 7.60641ZM102.687 13.6743C101.119 13.6743 100.455 12.3924 100.455 11.0184C100.455 9.64439 101.119 8.36258 102.687 8.36258C104.254 8.36258 104.918 9.64439 104.918 11.0184C104.918 12.3924 104.254 13.6743 102.687 13.6743ZM114.847 10.7325C115.327 10.4743 115.566 9.98559 115.566 9.39541C115.566 8.49169 114.856 7.72629 113.464 7.72629H110.596V14.3105H113.538C115.041 14.3105 115.769 13.5083 115.769 12.457C115.769 11.7838 115.4 11.1936 114.847 10.9354V10.7325ZM111.426 8.46402H113.427C114.091 8.46402 114.727 8.72223 114.727 9.46918C114.727 10.2807 114.174 10.5204 113.445 10.5204H111.426V8.46402ZM111.426 13.5728V11.249H113.492C114.266 11.249 114.93 11.5441 114.93 12.3924C114.93 13.3054 114.229 13.5728 113.482 13.5728H111.426Z" fill="white"/>
<defs>
<linearGradient id="paint0_linear_10133_111061" x1="25.9074" y1="35.9831" x2="6.61318" y2="16.2214" gradientUnits="userSpaceOnUse">
<stop stop-color="#00A0FF"/>
<stop offset="0.0066" stop-color="#00A1FF"/>
<stop offset="0.2601" stop-color="#00BEFF"/>
<stop offset="0.5122" stop-color="#00D2FF"/>
<stop offset="0.7604" stop-color="#00DFFF"/>
<stop offset="1" stop-color="#00E3FF"/>
</linearGradient>
<linearGradient id="paint1_linear_10133_111061" x1="40.0876" y1="22.9958" x2="11.5869" y2="22.9958" gradientUnits="userSpaceOnUse">
<stop stop-color="#FFE000"/>
<stop offset="0.4087" stop-color="#FFBD00"/>
<stop offset="0.7754" stop-color="#FFA500"/>
<stop offset="1" stop-color="#FF9C00"/>
</linearGradient>
<linearGradient id="paint2_linear_10133_111061" x1="29.4717" y1="20.359" x2="3.3072" y2="-6.43951" gradientUnits="userSpaceOnUse">
<stop stop-color="#FF3A44"/>
<stop offset="1" stop-color="#C31162"/>
</linearGradient>
<linearGradient id="paint3_linear_10133_111061" x1="8.82411" y1="45.7954" x2="20.5077" y2="33.8288" gradientUnits="userSpaceOnUse">
<stop stop-color="#32A071"/>
<stop offset="0.0685" stop-color="#2DA771"/>
<stop offset="0.4762" stop-color="#15CF74"/>
<stop offset="0.8009" stop-color="#06E775"/>
<stop offset="1" stop-color="#00F076"/>
</linearGradient>
</defs>
</svg>
