<svg width="14" height="17" viewBox="0 0 14 17" fill="none" xmlns="http://www.w3.org/2000/svg">
<path d="M0.375 6.5C0.15625 6.5 0 6.6875 0 6.875V15C0 15.8438 0.65625 16.5 1.5 16.5H12.5C13.3125 16.5 14 15.8438 14 15V6.875C14 6.6875 13.8125 6.5 13.625 6.5H0.375ZM14 5.125V4C14 3.1875 13.3125 2.5 12.5 2.5H11V0.875C11 0.6875 10.8125 0.5 10.625 0.5H9.375C9.15625 0.5 9 0.6875 9 0.875V2.5H5V0.875C5 0.6875 4.8125 0.5 4.625 0.5H3.375C3.15625 0.5 3 0.6875 3 0.875V2.5H1.5C0.65625 2.5 0 3.1875 0 4V5.125C0 5.34375 0.15625 5.5 0.375 5.5H13.625C13.8125 5.5 14 5.34375 14 5.125Z" fill="#AEB5D1"/>
</svg>
