<svg width="129" height="128" viewBox="0 0 129 128" fill="none" xmlns="http://www.w3.org/2000/svg">
<path d="M120.199 36.0996H35.6992C32.8992 36.0996 30.6992 38.2996 30.6992 41.0996V42.5996H110.799C115.199 42.5996 118.799 46.1996 118.799 50.5996V92.8996H120.299C123.099 92.8996 125.299 90.6996 125.299 87.8996V41.0996C125.199 38.2996 122.899 36.0996 120.199 36.0996Z" fill="#4563FF"/>
<path d="M80.3984 57.0996C83.1984 57.0996 85.3984 59.2996 85.3984 62.0996C85.3984 64.8996 83.1984 67.0996 80.3984 67.0996C77.5984 67.0996 75.3984 64.8996 75.3984 62.0996C75.3984 59.2996 77.5984 57.0996 80.3984 57.0996ZM80.3984 55.0996C76.4984 55.0996 73.3984 58.1996 73.3984 62.0996C73.3984 65.9996 76.4984 69.0996 80.3984 69.0996C84.2984 69.0996 87.3984 65.9996 87.3984 62.0996C87.3984 58.1996 84.1984 55.0996 80.3984 55.0996Z" fill="#4563FF"/>
<path d="M99 69.0996C102.866 69.0996 106 65.9656 106 62.0996C106 58.2336 102.866 55.0996 99 55.0996C95.134 55.0996 92 58.2336 92 62.0996C92 65.9656 95.134 69.0996 99 69.0996Z" fill="#FF0029"/>
<path d="M110.699 44.4996H26.1992C22.8992 44.4996 20.1992 47.1996 20.1992 50.4996V79.5996C10.9992 81.8996 4.19922 90.0996 4.19922 99.9996C4.19922 111.6 13.5992 121 25.1992 121C35.6992 121 44.2992 113.3 45.8992 103.3H110.699C113.999 103.3 116.699 100.6 116.699 97.2996V50.4996C116.699 47.1996 113.999 44.4996 110.699 44.4996ZM25.1992 119C14.6992 119 6.19922 110.5 6.19922 99.9996C6.19922 89.4996 14.6992 80.9996 25.1992 80.9996C35.6992 80.9996 44.1992 89.4996 44.1992 99.9996C44.1992 110.5 35.5992 119 25.1992 119ZM114.699 97.2996C114.699 99.4996 112.899 101.3 110.699 101.3H46.0992C46.0992 100.9 46.1992 100.5 46.1992 99.9996C46.1992 88.3996 36.7992 78.9996 25.1992 78.9996C24.1992 78.9996 23.1992 79.0996 22.1992 79.1996V50.4996C22.1992 48.2996 23.9992 46.4996 26.1992 46.4996H110.699C112.899 46.4996 114.699 48.2996 114.699 50.4996V97.2996Z" fill="#4563FF"/>
<path d="M26.5821 98.1971V90.838H24.3369V98.1971L24.7361 103.935H26.158L26.5821 98.1971ZM24.1623 105.756V108.649H26.7567V105.756H24.1623Z" fill="#4563FF"/>
</svg>
