<svg width="129" height="128" viewBox="0 0 129 128" fill="none" xmlns="http://www.w3.org/2000/svg">
<path d="M54.0001 25.7008L36.4002 22.0008C35.4002 21.8008 34.3002 22.0008 33.4002 22.6008C32.5002 23.2008 31.9001 24.1008 31.7001 25.1008L16.4002 97.5008C15.9002 99.7008 17.3002 101.801 19.5002 102.201L37.1001 105.901C37.4001 106.001 37.7002 106.001 37.9002 106.001C38.7002 106.001 39.4001 105.801 40.1001 105.301C41.0001 104.701 41.6002 103.801 41.8002 102.801L57.1001 30.4008C57.5001 28.3008 56.1001 26.2008 54.0001 25.7008ZM39.0002 103.701C38.6002 104.001 38.0002 104.101 37.5002 104.001L19.9002 100.301C18.8002 100.101 18.1001 99.0008 18.3001 97.9008L33.6001 25.5008C33.7001 25.0008 34.0002 24.5008 34.5002 24.2008C34.8001 24.0008 35.2001 23.9008 35.6001 23.9008C35.7001 23.9008 35.9002 23.9008 36.0002 23.9008L53.6001 27.6008C54.7001 27.8008 55.4001 28.9008 55.2001 30.0008L39.9002 102.401C39.7002 103.001 39.4002 103.401 39.0002 103.701Z" fill="#4563FF"/>
<path d="M32.7001 83.1008C30.6001 82.7008 28.5001 83.1008 26.7001 84.2008C24.9001 85.4008 23.7001 87.2008 23.2001 89.3008C22.3001 93.6008 25.1002 97.9008 29.4002 98.8008C30.0002 98.9008 30.5001 99.0008 31.1001 99.0008C34.8001 99.0008 38.1002 96.4008 38.9002 92.7008C39.3002 90.6008 38.9002 88.5008 37.8002 86.7008C36.6002 84.8008 34.8001 83.5008 32.7001 83.1008ZM36.9002 92.1008C36.2002 95.3008 33.0002 97.4008 29.8002 96.7008C26.6002 96.0008 24.5001 92.8008 25.2001 89.6008C25.5001 88.0008 26.5002 86.7008 27.8002 85.8008C28.8002 85.2008 29.9001 84.8008 31.1001 84.8008C31.5001 84.8008 31.9002 84.8008 32.4002 84.9008C34.0002 85.2008 35.3001 86.2008 36.2001 87.5008C36.8001 88.5008 37.2001 89.6008 37.2001 90.8008C37.0001 91.3008 37.0002 91.7008 36.9002 92.1008Z" fill="#4563FF"/>
<path d="M81.2001 23.0007H63.2001C61.0001 23.0007 59.2001 24.8007 59.2001 27.0007V101.001C59.2001 103.201 61.0001 105.001 63.2001 105.001H81.2001C83.4001 105.001 85.2001 103.201 85.2001 101.001V27.0007C85.2001 24.8007 83.4001 23.0007 81.2001 23.0007ZM72.2001 99.5007C67.8001 99.5007 64.2001 95.9007 64.2001 91.5007C64.2001 87.1007 67.8001 83.5007 72.2001 83.5007C76.6001 83.5007 80.2001 87.1007 80.2001 91.5007C80.2001 95.9007 76.6001 99.5007 72.2001 99.5007Z" fill="#4563FF"/>
<path d="M109.2 23.0007H91.2002C89.0002 23.0007 87.2002 24.8007 87.2002 27.0007V101.001C87.2002 103.201 89.0002 105.001 91.2002 105.001H109.2C111.4 105.001 113.2 103.201 113.2 101.001V27.0007C113.2 24.8007 111.4 23.0007 109.2 23.0007ZM100.2 99.5007C95.8002 99.5007 92.2002 95.9007 92.2002 91.5007C92.2002 87.1007 95.8002 83.5007 100.2 83.5007C104.6 83.5007 108.2 87.1007 108.2 91.5007C108.2 95.9007 104.6 99.5007 100.2 99.5007Z" fill="#FF0029"/>
</svg>
