<svg width="129" height="128" viewBox="0 0 129 128" fill="none" xmlns="http://www.w3.org/2000/svg">
<path d="M40.6001 62.4008C36.2001 62.4008 32.6001 58.8008 32.6001 54.4008C32.6001 50.0008 36.2001 46.4008 40.6001 46.4008C45.0001 46.4008 48.6001 50.0008 48.6001 54.4008C48.6001 58.8008 45.0001 62.4008 40.6001 62.4008ZM40.6001 48.4008C37.3001 48.4008 34.6001 51.1008 34.6001 54.4008C34.6001 57.7008 37.3001 60.4008 40.6001 60.4008C43.9001 60.4008 46.6001 57.7008 46.6001 54.4008C46.6001 51.1008 43.9001 48.4008 40.6001 48.4008Z" fill="#4563FF"/>
<path d="M63.9004 62.9004C68.5948 62.9004 72.4004 59.0948 72.4004 54.4004C72.4004 49.706 68.5948 45.9004 63.9004 45.9004C59.206 45.9004 55.4004 49.706 55.4004 54.4004C55.4004 59.0948 59.206 62.9004 63.9004 62.9004Z" fill="#4563FF"/>
<path d="M87.2002 62.9004C91.8946 62.9004 95.7002 59.0948 95.7002 54.4004C95.7002 49.706 91.8946 45.9004 87.2002 45.9004C82.5058 45.9004 78.7002 49.706 78.7002 54.4004C78.7002 59.0948 82.5058 62.9004 87.2002 62.9004Z" fill="#FF0029"/>
<path d="M107.2 27.8008H21.2002C17.9002 27.8008 15.2002 30.5008 15.2002 33.8008V75.0008C15.2002 78.3008 17.9002 81.0008 21.2002 81.0008H32.5002C30.1002 83.0008 27.8003 85.3008 25.8003 87.8008C24.0003 90.1008 24.0003 93.4008 25.8003 95.7008C35.2003 107.401 49.2002 114.001 64.1002 114.001C79.0002 114.001 93.0003 107.301 102.4 95.7008C104.2 93.4008 104.2 90.1008 102.4 87.8008C100.4 85.3008 98.1002 83.0008 95.7002 81.0008H107C110.3 81.0008 113 78.3008 113 75.0008V33.8008C113.2 30.5008 110.5 27.8008 107.2 27.8008ZM100.9 89.1008C102.2 90.7008 102.2 92.9008 100.9 94.5008C91.9003 105.701 78.5002 112.101 64.1002 112.101C49.7002 112.101 36.3003 105.701 27.3003 94.5008C26.0003 92.9008 26.0003 90.7008 27.3003 89.1008C36.3003 77.9008 49.7002 71.5008 64.1002 71.5008C78.5002 71.5008 91.9003 77.9008 100.9 89.1008ZM111.2 75.0008C111.2 77.2008 109.4 79.0008 107.2 79.0008H93.3003C84.9003 72.9008 74.8002 69.5008 64.2002 69.5008C53.6002 69.5008 43.4002 72.9008 35.1002 79.0008H21.2002C19.0002 79.0008 17.2002 77.2008 17.2002 75.0008V33.8008C17.2002 31.6008 19.0002 29.8008 21.2002 29.8008H107.2C109.4 29.8008 111.2 31.6008 111.2 33.8008V75.0008Z" fill="#4563FF"/>
<path d="M64.2002 77.2008C62.4002 77.2008 60.7002 77.5008 59.1002 78.1008C61.8002 79.1008 63.7002 81.6008 63.7002 84.7008C63.7002 88.6008 60.6002 91.7008 56.7002 91.7008C53.8002 91.7008 51.4003 90.0008 50.3003 87.5008C49.9003 88.8008 49.7002 90.2008 49.7002 91.7008C49.7002 99.7008 56.2002 106.201 64.2002 106.201C72.2002 106.201 78.7002 99.7008 78.7002 91.7008C78.7002 83.7008 72.2002 77.2008 64.2002 77.2008Z" fill="#4563FF"/>
</svg>
