<svg width="100" height="90" viewBox="0 0 100 90" fill="none" xmlns="http://www.w3.org/2000/svg">
<path d="M26.636 5.45996C21.329 5.45996 16.8551 9.10065 15.5669 14.0296H37.7051C36.4168 9.09365 32.02 5.45996 26.636 5.45996Z" fill="white"/>
<path d="M28.5346 16.9072C28.5346 18.1954 29.5988 19.2596 30.887 19.2596C32.1753 19.2596 33.2395 18.1954 33.2395 16.9072C33.2395 15.6189 32.1753 14.5547 30.887 14.5547C29.5988 14.4777 28.5346 15.6189 28.5346 16.9072Z" fill="white"/>
<path d="M87.1425 39.4236H43.8464V29.2647C43.8464 27.1433 42.18 25.4769 40.0586 25.4769H34.2195C35.8859 23.9577 37.1741 21.9903 37.7062 19.7919H15.568C16.1771 22.0673 17.3883 24.0347 19.0547 25.4769H13.2926C11.1712 25.4769 9.50488 27.1433 9.50488 29.2647V62.3249C9.50488 64.4463 11.1712 66.1126 13.2926 66.1126H18.9776V49.5055C18.9776 46.1729 21.7082 43.4423 25.0408 43.4423H80.8483C84.181 43.4423 86.9115 46.1729 86.9115 49.5055V77.4057H87.2125C89.3339 77.4057 91.0002 75.7394 91.0002 73.618V43.2183C90.9372 41.0899 89.2639 39.4236 87.1425 39.4236Z" fill="white"/>
<path d="M19.9634 16.9072C19.9634 18.1954 21.0276 19.2596 22.3159 19.2596C23.6041 19.2596 24.6683 18.1954 24.6683 16.9072C24.6683 15.6189 23.6041 14.5547 22.3159 14.5547C21.0276 14.4777 19.9634 15.6189 19.9634 16.9072Z" fill="white"/>
<path d="M80.8491 84.5401H25.0416C22.5421 84.5401 20.4907 82.4957 20.4907 79.9892V49.5054C20.4907 47.006 22.5351 44.9546 25.0416 44.9546H80.8491C83.3486 44.9546 85.4 46.999 85.4 49.5054V79.9822C85.4 82.4887 83.3556 84.5401 80.8491 84.5401ZM25.0485 46.4739C23.3822 46.4739 22.017 47.8391 22.017 49.5054V79.9822C22.017 81.6485 23.3822 83.0138 25.0485 83.0138H80.8561C82.5224 83.0138 83.8877 81.6485 83.8877 79.9822V49.5054C83.8877 47.8391 82.5224 46.4739 80.8561 46.4739H25.0485Z" fill="white"/>
<path d="M60.8325 53.6011C62.6529 53.6011 64.0951 55.0434 64.0951 56.8638C64.0951 58.6841 62.6529 60.1264 60.8325 60.1264C59.0122 60.1264 57.5699 58.6841 57.5699 56.8638C57.6469 55.0434 59.0892 53.6011 60.8325 53.6011ZM60.8325 52.0889C58.179 52.0889 56.0576 54.2103 56.0576 56.8638C56.0576 59.5173 58.179 61.6387 60.8325 61.6387C63.486 61.6387 65.6074 59.5173 65.6074 56.8638C65.6074 54.2103 63.486 52.0889 60.8325 52.0889Z" fill="white"/>
<path d="M73.5742 61.6387C76.2137 61.6387 78.3491 59.5033 78.3491 56.8638C78.3491 54.2243 76.2137 52.0889 73.5742 52.0889C70.9347 52.0889 68.7993 54.2243 68.7993 56.8638C68.7993 59.5033 70.9347 61.6387 73.5742 61.6387Z" fill="#FF0029"/>
</svg>
