<svg width="349" height="339" viewBox="0 0 349 339" fill="none" xmlns="http://www.w3.org/2000/svg">
<path d="M120.82 61.3748C118.69 69.5651 114.497 76.9232 108.831 82.8601H128.178C138.5 82.8601 146.875 91.2315 146.875 101.556V240.828C146.875 251.155 138.5 259.525 128.178 259.525H18.6964C8.36833 259.525 0 251.155 0 240.828V101.556C0 91.2315 8.36833 82.8601 18.6964 82.8601H37.9222C32.2561 76.9232 28.0628 69.5651 25.9327 61.3748H120.82Z" fill="#344CCC"/>
<path d="M120.833 36.6989C115.367 15.5909 96.1901 0 73.3796 0C50.5629 0 31.3858 15.5909 25.9205 36.6989H120.833Z" fill="#344CCC"/>
<path d="M81.7114 48.7532C81.7114 54.27 86.2687 58.8274 91.7855 58.8274C97.3023 58.8274 101.86 54.27 101.86 48.7532C101.86 43.2363 97.3023 38.679 91.7855 38.679C86.2687 38.3492 81.7114 43.2363 81.7114 48.7532Z" fill="#344CCC"/>
<path d="M45.0185 48.7532C45.0185 54.27 49.5759 58.8274 55.0927 58.8274C60.6095 58.8274 65.1668 54.27 65.1668 48.7532C65.1668 43.2363 60.6095 38.679 55.0927 38.679C49.5759 38.3492 45.0185 43.2363 45.0185 48.7532Z" fill="#344CCC"/>
<rect x="71.0303" y="138.579" width="277.97" height="169.523" rx="18.2737" fill="#344CCC"/>
<rect x="47.0452" y="169.133" width="277.97" height="169.523" rx="18.2737" fill="white"/>
<path d="M274.377 240.32C285.68 240.32 294.825 231.175 294.825 219.871C294.825 208.568 285.68 199.423 274.377 199.423C263.073 199.423 253.928 208.568 253.928 219.871C253.928 231.175 263.073 240.32 274.377 240.32Z" fill="#FF0029"/>
<path d="M219.803 240.32C231.106 240.32 240.251 231.175 240.251 219.871C240.251 208.568 231.106 199.423 219.803 199.423C208.499 199.423 199.355 208.568 199.355 219.871C199.355 231.175 208.499 240.32 219.803 240.32Z" fill="#4C6AFF"/>
</svg>
