<svg width="100" height="100" viewBox="0 0 100 100" fill="none" xmlns="http://www.w3.org/2000/svg">
<rect width="100" height="100" rx="5" fill="white"/>
<path d="M9.04116 5.47949H5.47949V9.04116H9.04116V5.47949Z" fill="black"/>
<path d="M12.6022 5.47949H9.04116V9.04116H12.6022V5.47949Z" fill="black"/>
<path d="M16.1646 5.47949H12.6022V9.04116H16.1646V5.47949Z" fill="black"/>
<path d="M19.7256 5.47949H16.1646V9.04116H19.7256V5.47949Z" fill="black"/>
<path d="M23.288 5.47949H19.7256V9.04116H23.288V5.47949Z" fill="black"/>
<path d="M26.849 5.47949H23.288V9.04116H26.849V5.47949Z" fill="black"/>
<path d="M30.4113 5.47949H26.849V9.04116H30.4113V5.47949Z" fill="black"/>
<path d="M37.5347 5.47949H33.9731V9.04116H37.5347V5.47949Z" fill="black"/>
<path d="M41.0958 5.47949H37.5347V9.04116H41.0958V5.47949Z" fill="black"/>
<path d="M44.6569 5.47949H41.0958V9.04116H44.6569V5.47949Z" fill="black"/>
<path d="M48.2192 5.47949H44.6569V9.04116H48.2192V5.47949Z" fill="black"/>
<path d="M58.9036 5.47949H55.342V9.04116H58.9036V5.47949Z" fill="black"/>
<path d="M66.027 5.47949H62.4653V9.04116H66.027V5.47949Z" fill="black"/>
<path d="M73.1504 5.47949H69.5887V9.04116H73.1504V5.47949Z" fill="black"/>
<path d="M76.7115 5.47949H73.1504V9.04116H76.7115V5.47949Z" fill="black"/>
<path d="M80.2738 5.47949H76.7115V9.04116H80.2738V5.47949Z" fill="black"/>
<path d="M83.8349 5.47949H80.2738V9.04116H83.8349V5.47949Z" fill="black"/>
<path d="M87.3972 5.47949H83.8349V9.04116H87.3972V5.47949Z" fill="black"/>
<path d="M90.9583 5.47949H87.3972V9.04116H90.9583V5.47949Z" fill="black"/>
<path d="M94.5206 5.47949H90.9583V9.04116H94.5206V5.47949Z" fill="black"/>
<path d="M9.04116 9.04116H5.47949V12.6022H9.04116V9.04116Z" fill="black"/>
<path d="M30.4113 9.04116L26.8497 9.0405V12.6022H30.4113V9.04116Z" fill="black"/>
<path d="M48.2192 9.04116L44.6575 9.0405V12.6022H48.2192V9.04116Z" fill="black"/>
<path d="M51.7802 9.0405L48.2192 9.04116V12.6022H51.7802V9.0405Z" fill="black"/>
<path d="M66.027 9.04116H62.4653V12.6022H66.027V9.04116Z" fill="black"/>
<path d="M73.1504 9.04116H69.5887V12.6022H73.1504V9.04116Z" fill="black"/>
<path d="M94.5206 9.04116L90.9589 9.0405V12.6022H94.5206V9.04116Z" fill="black"/>
<path d="M9.04116 12.6022H5.47949V16.1644H9.04116V12.6022Z" fill="black"/>
<path d="M16.1646 12.6028H12.6029V16.1644H16.1646V12.6028Z" fill="black"/>
<path d="M19.7256 12.6028H16.1646V16.1644H19.7256V12.6028Z" fill="black"/>
<path d="M23.288 12.6028H19.7256V16.1644H23.288V12.6028Z" fill="black"/>
<path d="M30.4113 12.6022H26.8497V16.1644H30.4113V12.6022Z" fill="black"/>
<path d="M41.0958 12.6028H37.5341V16.1644H41.0958V12.6028Z" fill="black"/>
<path d="M48.2192 12.6022H44.6575V16.1644H48.2192V12.6022Z" fill="black"/>
<path d="M55.3426 12.6028H51.7809V16.1644H55.3426V12.6028Z" fill="black"/>
<path d="M58.9036 12.6028H55.3426V16.1644H58.9036V12.6028Z" fill="black"/>
<path d="M73.1504 12.6022H69.5887V16.1644H73.1504V12.6022Z" fill="black"/>
<path d="M80.2738 12.6028H76.7121V16.1644H80.2738V12.6028Z" fill="black"/>
<path d="M83.8349 12.6028H80.2738V16.1644H83.8349V12.6028Z" fill="black"/>
<path d="M87.3972 12.6028H83.8349V16.1644H87.3972V12.6028Z" fill="black"/>
<path d="M94.5206 12.6022H90.9589V16.1644H94.5206V12.6022Z" fill="black"/>
<path d="M9.04116 16.1644H5.47949V19.7258H9.04116V16.1644Z" fill="black"/>
<path d="M16.1646 16.1644H12.6029V19.7258H16.1646V16.1644Z" fill="black"/>
<path d="M19.7256 16.1644H16.1646V19.7258H19.7256V16.1644Z" fill="black"/>
<path d="M23.288 16.1644H19.7256V19.7258H23.288V16.1644Z" fill="black"/>
<path d="M30.4113 16.1644H26.8497V19.7258H30.4113V16.1644Z" fill="black"/>
<path d="M44.6575 16.1644H41.0958L41.0952 19.7258H44.6569L44.6575 16.1644Z" fill="black"/>
<path d="M48.2192 16.1644H44.6575L44.6569 19.7258H48.2192V16.1644Z" fill="black"/>
<path d="M55.3426 16.1644H51.7809V19.7258H55.3426V16.1644Z" fill="black"/>
<path d="M62.466 16.1641L58.9036 16.1644L58.9043 19.7258H62.466V16.1641Z" fill="black"/>
<path d="M66.027 16.1641H62.466V19.7258H66.027V16.1641Z" fill="black"/>
<path d="M73.1504 16.1644H69.5887V19.7258H73.1504V16.1644Z" fill="black"/>
<path d="M80.2738 16.1644H76.7121V19.7258H80.2738V16.1644Z" fill="black"/>
<path d="M83.8349 16.1644H80.2738V19.7258H83.8349V16.1644Z" fill="black"/>
<path d="M87.3972 16.1644H83.8349V19.7258H87.3972V16.1644Z" fill="black"/>
<path d="M94.5206 16.1644H90.9589V19.7258H94.5206V16.1644Z" fill="black"/>
<path d="M9.04116 19.7258H5.47949V23.288H9.04116V19.7258Z" fill="black"/>
<path d="M16.1646 19.7258H12.6029V23.288H16.1646V19.7258Z" fill="black"/>
<path d="M19.7256 19.7258H16.1646V23.288H19.7256V19.7258Z" fill="black"/>
<path d="M23.288 19.7258H19.7256V23.288H23.288V19.7258Z" fill="black"/>
<path d="M30.4113 19.7258H26.8497V23.288H30.4113V19.7258Z" fill="black"/>
<path d="M44.6569 19.7258H41.0952V23.288H44.6569V19.7258Z" fill="black"/>
<path d="M48.2192 19.7258L44.6575 19.7264L44.6569 23.288H48.2192V19.7258Z" fill="black"/>
<path d="M51.7802 19.7264L48.2192 19.7258V23.288H51.7802V19.7264Z" fill="black"/>
<path d="M66.027 19.7258H62.466L62.4653 23.288H66.027V19.7258Z" fill="black"/>
<path d="M73.1504 19.7258H69.5887V23.288H73.1504V19.7258Z" fill="black"/>
<path d="M80.2738 19.7258H76.7121V23.288H80.2738V19.7258Z" fill="black"/>
<path d="M83.8349 19.7258H80.2738V23.288H83.8349V19.7258Z" fill="black"/>
<path d="M87.3972 19.7258L83.8355 19.7264L83.8349 23.288H87.3972V19.7258Z" fill="black"/>
<path d="M94.5206 19.7258H90.9589V23.288H94.5206V19.7258Z" fill="black"/>
<path d="M9.04116 23.288H5.47949V26.8491H9.04116V23.288Z" fill="black"/>
<path d="M30.4113 23.288H26.8497V26.8491H30.4113V23.288Z" fill="black"/>
<path d="M41.0958 23.2874H37.5341V26.8491H41.0958V23.2874Z" fill="black"/>
<path d="M48.2192 23.288L44.6575 23.2874V26.8491H48.2192V23.288Z" fill="black"/>
<path d="M66.027 23.288H62.4653V26.8491H66.027V23.288Z" fill="black"/>
<path d="M73.1504 23.288H69.5887V26.8491H73.1504V23.288Z" fill="black"/>
<path d="M94.5206 23.288H90.9589V26.8491H94.5206V23.288Z" fill="black"/>
<path d="M9.04116 26.8491H5.47949V30.4113H9.04116V26.8491Z" fill="black"/>
<path d="M12.6022 26.8497L9.04116 26.8491V30.4113H12.6022V26.8497Z" fill="black"/>
<path d="M16.1646 26.8497H12.6022V30.4113H16.1646V26.8497Z" fill="black"/>
<path d="M19.7256 26.8497H16.1646V30.4113H19.7256V26.8497Z" fill="black"/>
<path d="M23.288 26.8497H19.7256V30.4113H23.288V26.8497Z" fill="black"/>
<path d="M26.849 26.8497H23.288V30.4113H26.849V26.8497Z" fill="black"/>
<path d="M30.4113 26.8491H26.8497L26.849 30.4113H30.4113V26.8491Z" fill="black"/>
<path d="M37.5341 26.8491L33.9731 26.8497V30.4113H37.5347L37.5341 26.8491Z" fill="black"/>
<path d="M44.6569 26.8497L41.0958 26.8491L41.0952 30.4113H44.6569V26.8497Z" fill="black"/>
<path d="M51.7802 26.8497L48.2192 26.8491L48.2186 30.4113H51.7802V26.8497Z" fill="black"/>
<path d="M58.9036 26.8497H55.342V30.4113H58.9036V26.8497Z" fill="black"/>
<path d="M66.027 26.8491H62.4653V30.4113H66.027V26.8491Z" fill="black"/>
<path d="M73.1504 26.8491H69.5887V30.4113H73.1504V26.8491Z" fill="black"/>
<path d="M76.7115 26.8497L73.1504 26.8491V30.4113H76.7115V26.8497Z" fill="black"/>
<path d="M80.2738 26.8497H76.7115V30.4113H80.2738V26.8497Z" fill="black"/>
<path d="M83.8349 26.8497H80.2738V30.4113H83.8349V26.8497Z" fill="black"/>
<path d="M87.3972 26.8497H83.8349V30.4113H87.3972V26.8497Z" fill="black"/>
<path d="M90.9583 26.8497H87.3972V30.4113H90.9583V26.8497Z" fill="black"/>
<path d="M94.5206 26.8491H90.9589L90.9583 30.4113H94.5206V26.8491Z" fill="black"/>
<path d="M37.5347 30.4113H33.9731V33.9723H37.5347V30.4113Z" fill="black"/>
<path d="M41.0958 30.4107L37.5347 30.4113V33.9723H41.0958V30.4107Z" fill="black"/>
<path d="M51.7802 30.4113H48.2186V33.9723H51.7802V30.4113Z" fill="black"/>
<path d="M55.3426 30.4107H51.7809L51.7802 33.9723H55.3426V30.4107Z" fill="black"/>
<path d="M66.027 30.4113H62.4653V33.9723H66.027V30.4113Z" fill="black"/>
<path d="M9.04116 33.973H5.47949V37.5346H9.04116V33.973Z" fill="black"/>
<path d="M12.6022 33.973H9.04116V37.5346H12.6022V33.973Z" fill="black"/>
<path d="M19.7256 33.973H16.1639V37.5346H19.7256V33.973Z" fill="black"/>
<path d="M23.288 33.973H19.7256V37.5346H23.288V33.973Z" fill="black"/>
<path d="M30.4113 33.973H26.8497V37.5346H30.4113V33.973Z" fill="black"/>
<path d="M41.0958 33.9723H37.5347L37.5341 37.5346H41.0958V33.9723Z" fill="black"/>
<path d="M51.7802 33.9723H48.2186V37.5346H51.7802V33.9723Z" fill="black"/>
<path d="M58.9036 33.973L55.3426 33.9723L55.342 37.5346H58.9036V33.973Z" fill="black"/>
<path d="M62.4653 33.9723L58.9036 33.973V37.5346H62.466L62.4653 33.9723Z" fill="black"/>
<path d="M73.1504 33.973H69.5887V37.5346H73.1504V33.973Z" fill="black"/>
<path d="M94.5206 33.973H90.9589V37.5346H94.5206V33.973Z" fill="black"/>
<path d="M9.04116 37.5346H5.47949V41.0956H9.04116V37.5346Z" fill="black"/>
<path d="M12.6022 37.5346H9.04116V41.0956H12.6022V37.5346Z" fill="black"/>
<path d="M16.1646 37.534H12.6029L12.6022 41.0956H16.1646V37.534Z" fill="black"/>
<path d="M23.288 37.5346L19.7263 37.534V41.0956H23.288V37.5346Z" fill="black"/>
<path d="M26.849 37.534L23.288 37.5346V41.0956H26.849V37.534Z" fill="black"/>
<path d="M37.5341 37.5346L33.9731 37.534V41.0956H37.5347L37.5341 37.5346Z" fill="black"/>
<path d="M44.6569 37.534H41.0952V41.0956H44.6569V37.534Z" fill="black"/>
<path d="M62.466 37.5346L58.9043 37.534V41.0956H62.466V37.5346Z" fill="black"/>
<path d="M76.7115 37.534L73.1504 37.5346L73.1498 41.0956H76.7115V37.534Z" fill="black"/>
<path d="M80.2738 37.534H76.7115V41.0956H80.2738V37.534Z" fill="black"/>
<path d="M83.8349 37.534H80.2738V41.0956H83.8349V37.534Z" fill="black"/>
<path d="M87.3972 37.534H83.8349V41.0956H87.3972V37.534Z" fill="black"/>
<path d="M90.9583 37.534H87.3972V41.0956H90.9583V37.534Z" fill="black"/>
<path d="M12.6022 41.0956H9.04116L9.04057 44.657H12.6022V41.0956Z" fill="black"/>
<path d="M16.1646 41.0956H12.6022V44.657H16.1646V41.0956Z" fill="black"/>
<path d="M19.7263 41.0956H16.1646V44.657H19.7256L19.7263 41.0956Z" fill="black"/>
<path d="M30.4113 41.0953L26.849 41.0956L26.8497 44.657H30.4113V41.0953Z" fill="black"/>
<path d="M33.9731 41.0956L30.4113 41.0953V44.657H33.9724L33.9731 41.0956Z" fill="black"/>
<path d="M37.5347 41.0956H33.9731L33.9724 44.657H37.5347V41.0956Z" fill="black"/>
<path d="M41.0952 41.0956H37.5347V44.657H41.0958L41.0952 41.0956Z" fill="black"/>
<path d="M51.7802 41.0953H48.2186V44.657H51.7802V41.0953Z" fill="black"/>
<path d="M62.466 41.0956H58.9043V44.657H62.466V41.0956Z" fill="black"/>
<path d="M73.1498 41.0956L69.5887 41.0953V44.657H73.1504L73.1498 41.0956Z" fill="black"/>
<path d="M83.8349 41.0956H80.2738L80.2732 44.657H83.8349V41.0956Z" fill="black"/>
<path d="M94.5206 41.0953L90.9583 41.0956L90.9589 44.657H94.5206V41.0953Z" fill="black"/>
<path d="M23.288 44.6576H19.7263V48.2192H23.288V44.6576Z" fill="black"/>
<path d="M26.849 44.6576H23.288V48.2192H26.849V44.6576Z" fill="black"/>
<path d="M58.9036 44.6576H55.342V48.2192H58.9036V44.6576Z" fill="black"/>
<path d="M62.466 44.657H58.9043L58.9036 48.2192H62.466V44.657Z" fill="black"/>
<path d="M73.1504 44.657H69.5887V48.2192H73.1504V44.657Z" fill="black"/>
<path d="M76.7115 44.6576L73.1504 44.657V48.2192H76.7115V44.6576Z" fill="black"/>
<path d="M80.2732 44.657L76.7115 44.6576V48.2192H80.2738L80.2732 44.657Z" fill="black"/>
<path d="M83.8349 44.657H80.2732L80.2738 48.2192H83.8349V44.657Z" fill="black"/>
<path d="M87.3972 44.6576H83.8355L83.8349 48.2192H87.3972V44.6576Z" fill="black"/>
<path d="M90.9583 44.6576H87.3972V48.2192H90.9583V44.6576Z" fill="black"/>
<path d="M94.5206 44.657H90.9589L90.9583 48.2192H94.5206V44.657Z" fill="black"/>
<path d="M9.04116 48.2186H5.47949V51.7802H9.04116V48.2186Z" fill="black"/>
<path d="M16.1646 48.2186H12.6029V51.7802H16.1646V48.2186Z" fill="black"/>
<path d="M19.7256 48.2186H16.1646V51.7802H19.7256V48.2186Z" fill="black"/>
<path d="M26.849 48.2192L23.2873 48.2186V51.7802H26.849V48.2192Z" fill="black"/>
<path d="M30.4113 48.2186H26.8497L26.849 51.7802H30.4113V48.2186Z" fill="black"/>
<path d="M37.5347 48.2186H33.9731V51.7802H37.5347V48.2186Z" fill="black"/>
<path d="M41.0958 48.2186H37.5347V51.7802H41.0958V48.2186Z" fill="black"/>
<path d="M44.6569 48.2186H41.0958V51.7802H44.6569V48.2186Z" fill="black"/>
<path d="M58.9036 48.2192H55.342V51.7802H58.9036V48.2192Z" fill="black"/>
<path d="M66.027 48.2186H62.4653V51.7802H66.027V48.2186Z" fill="black"/>
<path d="M73.1504 48.2192H69.5887V51.7802H73.1504V48.2192Z" fill="black"/>
<path d="M76.7115 48.2192H73.1504V51.7802H76.7115V48.2192Z" fill="black"/>
<path d="M94.5206 48.2192L90.9589 48.2186V51.7802H94.5206V48.2192Z" fill="black"/>
<path d="M9.04116 51.7802H5.47949V55.3425H9.04116V51.7802Z" fill="black"/>
<path d="M12.6022 51.7808L9.04116 51.7802V55.3425H12.6022V51.7808Z" fill="black"/>
<path d="M16.1646 51.7802H12.6029L12.6022 55.3425H16.1646V51.7802Z" fill="black"/>
<path d="M37.5347 51.7802H33.9731V55.3425H37.5347V51.7802Z" fill="black"/>
<path d="M44.6569 51.7802H41.0958L41.0952 55.3425H44.6569V51.7802Z" fill="black"/>
<path d="M51.7802 51.7808H48.2186V55.3425H51.7802V51.7808Z" fill="black"/>
<path d="M55.342 51.7802L51.7802 51.7808V55.3425H55.3426L55.342 51.7802Z" fill="black"/>
<path d="M62.4653 51.7802L58.9043 51.7808V55.3425H62.466L62.4653 51.7802Z" fill="black"/>
<path d="M80.2738 51.7808H76.7121V55.3425H80.2738V51.7808Z" fill="black"/>
<path d="M90.9583 51.7808H87.3966V55.3425H90.9583V51.7808Z" fill="black"/>
<path d="M9.04116 55.3425H5.47949V58.9035H9.04116V55.3425Z" fill="black"/>
<path d="M12.6022 55.3425H9.04116V58.9035H12.6022V55.3425Z" fill="black"/>
<path d="M16.1646 55.3425L12.6029 55.3419L12.6022 58.9035H16.1646V55.3425Z" fill="black"/>
<path d="M26.849 55.3419H23.2873V58.9035H26.849V55.3419Z" fill="black"/>
<path d="M30.4113 55.3419H26.849V58.9035H30.4113V55.3419Z" fill="black"/>
<path d="M33.9724 55.3419H30.4113V58.9035H33.9724V55.3419Z" fill="black"/>
<path d="M37.5347 55.3425L33.9724 55.3419V58.9035H37.5347V55.3425Z" fill="black"/>
<path d="M44.6569 55.3425H41.0952V58.9035H44.6569V55.3425Z" fill="black"/>
<path d="M55.3426 55.3425L51.7809 55.3419V58.9035H55.3426V55.3425Z" fill="black"/>
<path d="M58.9036 55.3419L55.3426 55.3425V58.9035H58.9036V55.3419Z" fill="black"/>
<path d="M62.466 55.3425L58.9036 55.3419V58.9035H62.466V55.3425Z" fill="black"/>
<path d="M69.5881 55.3419H66.0264V58.9035H69.5881V55.3419Z" fill="black"/>
<path d="M80.2738 55.3425H76.7121V58.9035H80.2738V55.3425Z" fill="black"/>
<path d="M83.8349 55.3419L80.2738 55.3425V58.9035H83.8349V55.3419Z" fill="black"/>
<path d="M87.3972 55.3419H83.8349V58.9035H87.3972V55.3419Z" fill="black"/>
<path d="M90.9583 55.3425L87.3972 55.3419V58.9035H90.9583V55.3425Z" fill="black"/>
<path d="M94.5206 55.3419H90.9589L90.9583 58.9035H94.5206V55.3419Z" fill="black"/>
<path d="M9.04116 58.9035H5.47949V62.4658H9.04116V58.9035Z" fill="black"/>
<path d="M41.0952 58.9035H37.5347L37.5341 62.4658H41.0958L41.0952 58.9035Z" fill="black"/>
<path d="M51.7802 58.9041H48.2186V62.4658H51.7802V58.9041Z" fill="black"/>
<path d="M62.466 58.9035L58.9043 58.9041V62.4658H62.466V58.9035Z" fill="black"/>
<path d="M66.0264 58.9035H62.466V62.4658H66.027L66.0264 58.9035Z" fill="black"/>
<path d="M73.1504 58.9041H69.5887V62.4658H73.1504V58.9041Z" fill="black"/>
<path d="M76.7115 58.9041H73.1504V62.4658H76.7115V58.9041Z" fill="black"/>
<path d="M87.3972 58.9035L83.8355 58.9041V62.4658H87.3972V58.9035Z" fill="black"/>
<path d="M94.5206 58.9035H90.9583L90.9589 62.4658H94.5206V58.9035Z" fill="black"/>
<path d="M9.04116 62.4658H5.47949V66.0271H9.04116V62.4658Z" fill="black"/>
<path d="M26.849 62.4655H23.2873V66.0271H26.849V62.4655Z" fill="black"/>
<path d="M30.4113 62.4655H26.849V66.0271H30.4113V62.4655Z" fill="black"/>
<path d="M33.9724 62.4655H30.4113V66.0271H33.9724V62.4655Z" fill="black"/>
<path d="M37.5341 62.4658L33.9724 62.4655V66.0271H37.5347L37.5341 62.4658Z" fill="black"/>
<path d="M44.6569 62.4655L41.0958 62.4658L41.0952 66.0271H44.6569V62.4655Z" fill="black"/>
<path d="M48.2186 62.4658L44.6569 62.4655V66.0271H48.2192L48.2186 62.4658Z" fill="black"/>
<path d="M51.7802 62.4658H48.2186L48.2192 66.0271H51.7802V62.4658Z" fill="black"/>
<path d="M55.3426 62.4655L51.7802 62.4658V66.0271H55.3426V62.4655Z" fill="black"/>
<path d="M66.027 62.4658H62.466L62.4653 66.0271H66.027V62.4658Z" fill="black"/>
<path d="M69.5887 62.4658H66.027V66.0271H69.5881L69.5887 62.4658Z" fill="black"/>
<path d="M73.1504 62.4658H69.5887L69.5881 66.0271H73.1504V62.4658Z" fill="black"/>
<path d="M76.7115 62.4658H73.1504V66.0271H76.7115V62.4658Z" fill="black"/>
<path d="M80.2738 62.4655L76.7115 62.4658V66.0271H80.2738V62.4655Z" fill="black"/>
<path d="M87.3972 62.4658H83.8355V66.0271H87.3972V62.4658Z" fill="black"/>
<path d="M90.9589 62.4658H87.3972V66.0271H90.9583L90.9589 62.4658Z" fill="black"/>
<path d="M37.5347 66.0271L33.9731 66.0265V69.5881H37.5347V66.0271Z" fill="black"/>
<path d="M41.0958 66.0265L37.5347 66.0271V69.5881H41.0958V66.0265Z" fill="black"/>
<path d="M48.2192 66.0271L44.6575 66.0265V69.5881H48.2192V66.0271Z" fill="black"/>
<path d="M58.9036 66.0265H55.342V69.5881H58.9036V66.0265Z" fill="black"/>
<path d="M66.027 66.0271H62.4653V69.5881H66.027V66.0271Z" fill="black"/>
<path d="M80.2738 66.0271L76.7121 66.0265V69.5881H80.2738V66.0271Z" fill="black"/>
<path d="M90.9583 66.0271H87.3972L87.3966 69.5881H90.9583V66.0271Z" fill="black"/>
<path d="M9.04116 69.5887H5.47949V73.1504H9.04116V69.5887Z" fill="black"/>
<path d="M12.6022 69.5887H9.04116V73.1504H12.6022V69.5887Z" fill="black"/>
<path d="M16.1646 69.5887H12.6022V73.1504H16.1646V69.5887Z" fill="black"/>
<path d="M19.7256 69.5887H16.1646V73.1504H19.7256V69.5887Z" fill="black"/>
<path d="M23.288 69.5887H19.7256V73.1504H23.288V69.5887Z" fill="black"/>
<path d="M26.849 69.5887H23.288V73.1504H26.849V69.5887Z" fill="black"/>
<path d="M30.4113 69.5887H26.849V73.1504H30.4113V69.5887Z" fill="black"/>
<path d="M41.0958 69.5881H37.5347L37.5341 73.1504H41.0958V69.5881Z" fill="black"/>
<path d="M44.6569 69.5887L41.0958 69.5881V73.1504H44.6569V69.5887Z" fill="black"/>
<path d="M51.7802 69.5887L48.2192 69.5881L48.2186 73.1504H51.7802V69.5887Z" fill="black"/>
<path d="M55.342 69.5881L51.7802 69.5887V73.1504H55.3426L55.342 69.5881Z" fill="black"/>
<path d="M66.027 69.5881H62.4653V73.1504H66.027V69.5881Z" fill="black"/>
<path d="M73.1504 69.5887H69.5887V73.1504H73.1504V69.5887Z" fill="black"/>
<path d="M80.2738 69.5881H76.7121V73.1504H80.2738V69.5881Z" fill="black"/>
<path d="M83.8349 69.5887L80.2738 69.5881V73.1504H83.8349V69.5887Z" fill="black"/>
<path d="M94.5206 69.5887H90.9589V73.1504H94.5206V69.5887Z" fill="black"/>
<path d="M9.04116 73.1504H5.47949V76.7114H9.04116V73.1504Z" fill="black"/>
<path d="M30.4113 73.1504L26.8497 73.1497V76.7114H30.4113V73.1504Z" fill="black"/>
<path d="M41.0958 73.1504H37.5341V76.7114H41.0958V73.1504Z" fill="black"/>
<path d="M48.2192 73.1497H44.6575V76.7114H48.2192V73.1497Z" fill="black"/>
<path d="M55.3426 73.1504L51.7809 73.1497V76.7114H55.3426V73.1504Z" fill="black"/>
<path d="M58.9036 73.1497L55.3426 73.1504V76.7114H58.9036V73.1497Z" fill="black"/>
<path d="M62.466 73.1497H58.9036V76.7114H62.466V73.1497Z" fill="black"/>
<path d="M66.027 73.1504L62.466 73.1497V76.7114H66.027V73.1504Z" fill="black"/>
<path d="M80.2738 73.1504H76.7121V76.7114H80.2738V73.1504Z" fill="black"/>
<path d="M94.5206 73.1504H90.9589V76.7114H94.5206V73.1504Z" fill="black"/>
<path d="M9.04116 76.7114H5.47949V80.2737H9.04116V76.7114Z" fill="black"/>
<path d="M16.1646 76.712H12.6029V80.2737H16.1646V76.712Z" fill="black"/>
<path d="M19.7256 76.712H16.1646V80.2737H19.7256V76.712Z" fill="black"/>
<path d="M23.288 76.712H19.7256V80.2737H23.288V76.712Z" fill="black"/>
<path d="M30.4113 76.7114H26.8497V80.2737H30.4113V76.7114Z" fill="black"/>
<path d="M37.5341 76.7114L33.9731 76.712V80.2737H37.5347L37.5341 76.7114Z" fill="black"/>
<path d="M48.2192 76.7114H44.6575V80.2737H48.2192V76.7114Z" fill="black"/>
<path d="M51.7802 76.712L48.2192 76.7114V80.2737H51.7802V76.712Z" fill="black"/>
<path d="M58.9036 76.7114H55.3426L55.342 80.2737H58.9036V76.7114Z" fill="black"/>
<path d="M62.466 76.7114L58.9043 76.712L58.9036 80.2737H62.466V76.7114Z" fill="black"/>
<path d="M66.027 76.7114H62.466V80.2737H66.027V76.7114Z" fill="black"/>
<path d="M69.5881 76.712L66.027 76.7114V80.2737H69.5881V76.712Z" fill="black"/>
<path d="M73.1504 76.712H69.5881V80.2737H73.1504V76.712Z" fill="black"/>
<path d="M76.7115 76.712H73.1504V80.2737H76.7115V76.712Z" fill="black"/>
<path d="M80.2738 76.7114H76.7121L76.7115 80.2737H80.2738V76.7114Z" fill="black"/>
<path d="M83.8349 76.712L80.2738 76.7114V80.2737H83.8349V76.712Z" fill="black"/>
<path d="M9.04116 80.2737H5.47949V83.8347H9.04116V80.2737Z" fill="black"/>
<path d="M16.1646 80.2737H12.6029V83.8347H16.1646V80.2737Z" fill="black"/>
<path d="M19.7256 80.2737H16.1646V83.8347H19.7256V80.2737Z" fill="black"/>
<path d="M23.288 80.2737L19.7263 80.273L19.7256 83.8347H23.288V80.2737Z" fill="black"/>
<path d="M30.4113 80.2737H26.8497V83.8347H30.4113V80.2737Z" fill="black"/>
<path d="M37.5347 80.2737H33.9731V83.8347H37.5347V80.2737Z" fill="black"/>
<path d="M44.6569 80.273H41.0952V83.8347H44.6569V80.273Z" fill="black"/>
<path d="M51.7802 80.2737L48.2186 80.273V83.8347H51.7802V80.2737Z" fill="black"/>
<path d="M69.5881 80.2737H66.027L66.0264 83.8347H69.5881V80.2737Z" fill="black"/>
<path d="M80.8515 80.5386H77.2898V84.1003H80.8515V80.5386Z" fill="black"/>
<path d="M83.8349 80.2737L80.2732 80.273V83.8347H83.8349V80.2737Z" fill="black"/>
<path d="M90.9583 80.273H87.3966V83.8347H90.9583V80.273Z" fill="black"/>
<path d="M94.5206 80.273H90.9583V83.8347H94.5206V80.273Z" fill="black"/>
<path d="M9.04116 83.8347H5.47949V87.397H9.04116V83.8347Z" fill="black"/>
<path d="M16.1646 83.8347H12.6029V87.397H16.1646V83.8347Z" fill="black"/>
<path d="M19.7256 83.8347H16.1646V87.397H19.7256V83.8347Z" fill="black"/>
<path d="M23.288 83.8347H19.7256V87.397H23.288V83.8347Z" fill="black"/>
<path d="M30.4113 83.8347H26.8497V87.397H30.4113V83.8347Z" fill="black"/>
<path d="M48.2186 83.8347H44.6569L44.6575 87.397H48.2192L48.2186 83.8347Z" fill="black"/>
<path d="M66.0264 83.8347L62.4653 83.8353V87.397H66.027L66.0264 83.8347Z" fill="black"/>
<path d="M69.5881 83.8347H66.0264L66.027 87.397H69.5881V83.8347Z" fill="black"/>
<path d="M76.7115 83.8353H73.1498V87.397H76.7115V83.8353Z" fill="black"/>
<path d="M80.2732 83.8347L76.7115 83.8353V87.397H80.2738L80.2732 83.8347Z" fill="black"/>
<path d="M87.3966 83.8347H83.8349L83.8355 87.397H87.3972L87.3966 83.8347Z" fill="black"/>
<path d="M90.9583 83.8347H87.3966L87.3972 87.397H90.9583V83.8347Z" fill="black"/>
<path d="M94.5206 83.8347H90.9583V87.397H94.5206V83.8347Z" fill="black"/>
<path d="M9.04116 87.397H5.47949V90.9583H9.04116V87.397Z" fill="black"/>
<path d="M30.4113 87.397H26.8497V90.9583H30.4113V87.397Z" fill="black"/>
<path d="M37.5347 87.3966H33.9731V90.9583H37.5347V87.3966Z" fill="black"/>
<path d="M51.7802 87.3966L48.2192 87.397L48.2186 90.9583H51.7802V87.3966Z" fill="black"/>
<path d="M69.5881 87.397H66.027L66.0264 90.9583H69.5881V87.397Z" fill="black"/>
<path d="M76.7115 87.397H73.1498V90.9583H76.7115V87.397Z" fill="black"/>
<path d="M80.2738 87.397H76.7115V90.9583H80.2738V87.397Z" fill="black"/>
<path d="M87.3972 87.397H83.8355V90.9583H87.3972V87.397Z" fill="black"/>
<path d="M90.9583 87.397H87.3972V90.9583H90.9583V87.397Z" fill="black"/>
<path d="M94.5206 87.397H90.9583V90.9583H94.5206V87.397Z" fill="black"/>
<path d="M9.04116 90.9583H5.47949V94.5206H9.04116V90.9583Z" fill="black"/>
<path d="M12.6022 90.9589L9.04116 90.9583V94.5206H12.6022V90.9589Z" fill="black"/>
<path d="M16.1646 90.9589H12.6022V94.5206H16.1646V90.9589Z" fill="black"/>
<path d="M19.7256 90.9589H16.1646V94.5206H19.7256V90.9589Z" fill="black"/>
<path d="M23.288 90.9589H19.7256V94.5206H23.288V90.9589Z" fill="black"/>
<path d="M26.849 90.9589H23.288V94.5206H26.849V90.9589Z" fill="black"/>
<path d="M30.4113 90.9583H26.8497L26.849 94.5206H30.4113V90.9583Z" fill="black"/>
<path d="M37.5347 90.9583H33.9731V94.5206H37.5347V90.9583Z" fill="black"/>
<path d="M41.0958 90.9589L37.5347 90.9583V94.5206H41.0958V90.9589Z" fill="black"/>
<path d="M48.2186 90.9583L44.6575 90.9589V94.5206H48.2192L48.2186 90.9583Z" fill="black"/>
<path d="M66.0264 90.9583L62.4653 90.9589V94.5206H66.027L66.0264 90.9583Z" fill="black"/>
<path d="M73.1498 90.9583L69.5887 90.9589V94.5206H73.1504L73.1498 90.9583Z" fill="black"/>
<path d="M83.8349 90.9589L80.2738 90.9583L80.2732 94.5206H83.8349V90.9589Z" fill="black"/>
<path d="M94.5206 90.9583H90.9583L90.9589 94.5206H94.5206V90.9583Z" fill="black"/>
</svg>
