<svg width="101" height="90" viewBox="0 0 101 90" fill="none" xmlns="http://www.w3.org/2000/svg">
<path d="M97.1908 17.5H34.0771C31.9857 17.5 30.3425 19.1432 30.3425 21.2345V22.3549H90.1698C93.4562 22.3549 96.1451 25.0438 96.1451 28.3302V59.9244H97.2654C99.3568 59.9244 101 58.2812 101 56.1898V21.2345C100.925 19.1432 99.2074 17.5 97.1908 17.5Z" fill="#4563FF"/>
<path d="M90.0954 67.6922H26.9817C24.5169 67.6922 22.5002 65.6756 22.5002 63.2108V28.2555C22.5002 25.7907 24.5169 23.774 26.9817 23.774H90.0954C92.5602 23.774 94.5768 25.7907 94.5768 28.2555V63.1361C94.5768 65.6756 92.5602 67.6922 90.0954 67.6922ZM26.9817 25.2679C25.3385 25.2679 23.9941 26.6123 23.9941 28.2555V63.1361C23.9941 64.7793 25.3385 66.1237 26.9817 66.1237H90.0954C91.7386 66.1237 93.083 64.7793 93.083 63.1361V28.2555C93.083 26.6123 91.7386 25.2679 90.0954 25.2679H26.9817Z" fill="#4563FF"/>
<path d="M67.3131 33.1851C69.4044 33.1851 71.0476 34.8283 71.0476 36.9196C71.0476 39.011 69.4044 40.6542 67.3131 40.6542C65.2217 40.6542 63.5785 39.011 63.5785 36.9196C63.5785 34.8283 65.2964 33.1851 67.3131 33.1851ZM67.3131 31.6913C64.4001 31.6913 62.0847 34.0067 62.0847 36.9196C62.0847 39.8326 64.4001 42.148 67.3131 42.148C70.226 42.148 72.5414 39.8326 72.5414 36.9196C72.5414 34.0067 70.226 31.6913 67.3131 31.6913Z" fill="#4563FF"/>
<path d="M81.505 42.148C84.3925 42.148 86.7333 39.8072 86.7333 36.9196C86.7333 34.0321 84.3925 31.6913 81.505 31.6913C78.6174 31.6913 76.2766 34.0321 76.2766 36.9196C76.2766 39.8072 78.6174 42.148 81.505 42.148Z" fill="#FF0029"/>
<path d="M41.1263 64.4917C41.1263 72.5761 34.5726 79.1299 26.4882 79.1299C18.4037 79.1299 11.85 72.5761 11.85 64.4917C11.85 56.4073 18.4037 49.8535 26.4882 49.8535C34.5726 49.8535 41.1263 56.4073 41.1263 64.4917Z" fill="white" stroke="#4563FF" stroke-width="1.7"/>
<path d="M34.3002 59.5255L23.702 70.1237L17.9004 64.3226" stroke="#4563FF" stroke-width="1.7" stroke-linecap="round" stroke-linejoin="round"/>
</svg>
