<svg width="101" height="90" viewBox="0 0 101 90" fill="none" xmlns="http://www.w3.org/2000/svg">
<g filter="url(#filter0_i_10133_110846)">
<path d="M47.7702 52.554L33.8218 28.1443C41.5894 24.0723 50.389 22.3538 59.1382 23.218C65.6136 23.8576 71.8393 25.8899 77.4031 29.1381L63.3029 53.4036C61.1965 52.1643 58.8358 51.3892 56.3796 51.1466C53.4271 50.855 50.4595 51.3448 47.7702 52.554Z" fill="white"/>
</g>
<path d="M37.8401 68.0282C37.8401 68.0986 37.8401 68.1689 37.8401 68.2393H9.71509C9.71509 51.5648 18.7151 36.8603 32.1448 29.0507L46.2073 53.4644C41.2151 56.4194 37.8401 61.8368 37.8401 68.0282Z" fill="#FD2232"/>
<path d="M99.6449 65.5657V65.8472C99.7152 66.5507 99.7152 67.3246 99.7152 68.0282V68.2393H71.5902V67.0432C71.5199 66.9025 71.5199 66.6914 71.5199 66.5507C71.5199 66.4452 71.5023 66.3572 71.4847 66.2693C71.4671 66.1813 71.4495 66.0934 71.4495 65.9879C71.4495 65.8717 71.4282 65.7768 71.4091 65.6915C71.3934 65.6219 71.3792 65.5586 71.3792 65.4954C71.3792 65.2843 71.3792 65.0732 71.3089 64.8622C71.2738 64.7566 71.2562 64.6511 71.2386 64.5455C71.221 64.44 71.2034 64.3345 71.1683 64.2289C71.1302 64.1528 71.1128 64.056 71.0936 63.9497C71.0774 63.8597 71.0599 63.7629 71.0277 63.6661C70.9925 63.5957 70.9749 63.5254 70.9573 63.455C70.9398 63.3847 70.9222 63.3143 70.887 63.244C70.8519 63.1736 70.8343 63.0857 70.8167 62.9977C70.7991 62.9098 70.7816 62.8218 70.7464 62.7515C70.7113 62.6811 70.6937 62.6108 70.6761 62.5404C70.6585 62.47 70.6409 62.3997 70.6058 62.3293C70.5706 62.2238 70.5355 62.1359 70.5003 62.0479C70.4652 61.96 70.43 61.872 70.3949 61.7665C70.3949 61.7313 70.3773 61.7137 70.3597 61.6961C70.3421 61.6785 70.3245 61.6609 70.3245 61.6258L59.1449 66.4804C58.8636 68.6614 57.0355 70.4203 54.7152 70.4203C52.2542 70.4203 50.2855 68.4503 50.2855 65.9879C50.2855 63.5254 52.2542 61.5554 54.7152 61.5554C55.6995 61.5554 56.6136 61.9072 57.387 62.47L88.5355 51.5648L88.2542 50.7909L67.5824 57.2637C67.5824 57.2285 67.5648 57.2109 67.5472 57.1933C67.5296 57.1757 67.512 57.1581 67.512 57.1229C67.4769 57.0526 67.4241 56.9998 67.3714 56.9471C67.3187 56.8943 67.2659 56.8415 67.2308 56.7712C67.0902 56.5601 66.9496 56.4194 66.8089 56.2787L66.4573 55.9269C66.3612 55.7826 66.2323 55.6713 66.1154 55.5703C66.0613 55.5235 66.0097 55.4789 65.9652 55.4344C65.9161 55.3363 65.8329 55.2724 65.7632 55.2188C65.7329 55.1956 65.7052 55.1743 65.6839 55.153C65.473 55.0826 65.3323 54.9419 65.1917 54.8012C65.1566 54.766 65.1038 54.7308 65.0511 54.6957C64.9984 54.6605 64.9456 54.6253 64.9105 54.5901C64.805 54.5198 64.6819 54.4318 64.5589 54.3439C64.4359 54.2559 64.3128 54.168 64.2074 54.0976C64.1722 54.0976 64.1546 54.08 64.137 54.0624C64.1195 54.0448 64.1019 54.0273 64.0667 54.0273C63.9261 53.9569 63.8031 53.869 63.68 53.781C63.557 53.6931 63.4339 53.6051 63.2933 53.5348C60.8323 51.9869 57.8792 51.1426 54.7152 51.1426C52.2708 51.1426 49.8957 51.6285 47.7968 52.6003L47.1095 51.3976C49.415 50.3582 51.996 49.7355 54.7152 49.7355C58.0902 49.7355 61.1839 50.6502 63.9261 52.2683L76.5824 30.3171C70.1839 26.5882 62.6605 24.4072 54.7152 24.4072C47.448 24.4072 40.528 26.2139 34.5073 29.3438L33.8191 28.1394C40.0468 24.874 47.1729 23.0001 54.7152 23.0001C62.9417 23.0001 70.6761 25.2515 77.2855 29.0507C77.4179 29.0949 77.5226 29.1668 77.617 29.2316C77.673 29.27 77.7253 29.306 77.7777 29.3321C77.9183 29.4729 78.0589 29.5432 78.1995 29.4729C78.6917 29.7543 79.2542 30.1061 79.7464 30.4578C79.8167 30.4578 79.887 30.5282 79.9574 30.5986C80.1683 30.7745 80.3968 30.9328 80.6253 31.0911C80.8538 31.2494 81.0824 31.4077 81.2933 31.5836C81.3636 31.6187 81.4339 31.6715 81.5042 31.7243C81.5745 31.777 81.6449 31.8298 81.7152 31.865C81.9613 32.0761 82.2074 32.2695 82.4535 32.463C82.6996 32.6565 82.9456 32.85 83.1917 33.061L83.3324 33.2017C83.5433 33.4128 83.7718 33.6063 84.0003 33.7998C84.2288 33.9933 84.4574 34.1867 84.6683 34.3978L84.9495 34.6792C85.4417 35.1013 85.8635 35.5235 86.3557 36.0159L86.4261 36.0864C86.9183 36.5789 87.3402 37.001 87.762 37.4935C87.8601 37.5425 87.924 37.6258 87.9775 37.6956C88.0007 37.7259 88.022 37.7536 88.0433 37.7749C88.9574 38.7599 89.8011 39.8153 90.5745 40.8706C90.6449 41.0113 90.7152 41.0817 90.7855 41.152C91.5589 42.2074 92.3324 43.3331 93.0355 44.4588C93.0623 44.5125 93.0789 44.556 93.0931 44.5932C93.1161 44.6532 93.1326 44.6967 93.1761 44.7402C93.8792 45.9363 94.5824 47.1323 95.1449 48.3284C95.1717 48.3821 95.1883 48.4256 95.2025 48.4628C95.2254 48.5228 95.242 48.5663 95.2855 48.6098C95.9183 49.8762 96.4105 51.1426 96.9027 52.4091C96.9027 52.4915 96.9268 52.5498 96.9468 52.5981C96.9609 52.6322 96.973 52.6613 96.973 52.6905C97.4652 53.9569 97.887 55.2937 98.2386 56.6305C98.2386 56.6656 98.2562 56.7184 98.2738 56.7712C98.2913 56.8239 98.3089 56.8767 98.3089 56.9119C98.6605 58.319 98.9417 59.6558 99.1527 61.0629C99.223 61.1333 99.223 61.274 99.223 61.3443C99.4339 62.6811 99.5745 64.1586 99.6449 65.5657Z" fill="#6FE566"/>
<defs>
<filter id="filter0_i_10133_110846" x="33.8218" y="23" width="43.5813" height="30.4036" filterUnits="userSpaceOnUse" color-interpolation-filters="sRGB">
<feFlood flood-opacity="0" result="BackgroundImageFix"/>
<feBlend mode="normal" in="SourceGraphic" in2="BackgroundImageFix" result="shape"/>
<feColorMatrix in="SourceAlpha" type="matrix" values="0 0 0 0 0 0 0 0 0 0 0 0 0 0 0 0 0 0 127 0" result="hardAlpha"/>
<feOffset/>
<feGaussianBlur stdDeviation="2.5"/>
<feComposite in2="hardAlpha" operator="arithmetic" k2="-1" k3="1"/>
<feColorMatrix type="matrix" values="0 0 0 0 0.886275 0 0 0 0 0.894118 0 0 0 0 0.92549 0 0 0 1 0"/>
<feBlend mode="normal" in2="shape" result="effect1_innerShadow_10133_110846"/>
</filter>
</defs>
</svg>
