<svg width="101" height="90" viewBox="0 0 101 90" fill="none" xmlns="http://www.w3.org/2000/svg">
<path d="M96.874 17H32.9034C30.7837 17 29.1182 18.6655 29.1182 20.7852V21.9208H89.7577C93.0888 21.9208 95.8141 24.6462 95.8141 27.9772V60.0004H96.9497C99.0694 60.0004 100.735 58.3349 100.735 56.2151V20.7852C100.659 18.6655 98.9181 17 96.874 17Z" fill="#4563FF"/>
<path d="M89.6821 67.8736H25.7115C23.2132 67.8736 21.1692 65.8296 21.1692 63.3313V27.9014C21.1692 25.4032 23.2132 23.3591 25.7115 23.3591H89.6821C92.1804 23.3591 94.2244 25.4032 94.2244 27.9014V63.2556C94.2244 65.8296 92.1804 67.8736 89.6821 67.8736ZM25.7115 24.8732C24.046 24.8732 22.6833 26.2359 22.6833 27.9014V63.2556C22.6833 64.9211 24.046 66.2838 25.7115 66.2838H89.6821C91.3476 66.2838 92.7103 64.9211 92.7103 63.2556V27.9014C92.7103 26.2359 91.3476 24.8732 89.6821 24.8732H25.7115Z" fill="#4563FF"/>
<path d="M66.5921 32.8981C68.7118 32.8981 70.3773 34.5636 70.3773 36.6833C70.3773 38.803 68.7118 40.4686 66.5921 40.4686C64.4723 40.4686 62.8068 38.803 62.8068 36.6833C62.8068 34.5636 64.548 32.8981 66.5921 32.8981ZM66.5921 31.384C63.6396 31.384 61.2927 33.7308 61.2927 36.6833C61.2927 39.6358 63.6396 41.9827 66.5921 41.9827C69.5446 41.9827 71.8914 39.6358 71.8914 36.6833C71.8914 33.7308 69.5446 31.384 66.5921 31.384Z" fill="#4563FF"/>
<path d="M80.976 41.9827C83.9027 41.9827 86.2753 39.6101 86.2753 36.6833C86.2753 33.7566 83.9027 31.384 80.976 31.384C78.0492 31.384 75.6766 33.7566 75.6766 36.6833C75.6766 39.6101 78.0492 41.9827 80.976 41.9827Z" fill="#FF0029"/>
<path d="M24.9544 81.2734C20.7149 81.2734 16.7026 79.6079 13.7501 76.5797C13.4473 76.2769 13.4473 75.8227 13.7501 75.5198C14.0529 75.217 14.5071 75.217 14.8099 75.5198C17.5353 78.2452 21.1692 79.7593 24.9544 79.7593C32.9034 79.7593 39.3383 73.3244 39.3383 65.3754C39.3383 57.4264 32.9034 50.9915 24.9544 50.9915C17.0054 50.9915 10.5705 57.4264 10.5705 65.3754V67.6465C10.5705 68.1008 10.2677 68.4036 9.81345 68.4036C9.35922 68.4036 9.0564 68.1008 9.0564 67.6465V65.3754C9.0564 56.5936 16.1727 49.4774 24.9544 49.4774C33.7362 49.4774 40.8524 56.5936 40.8524 65.3754C40.8524 74.1571 33.6605 81.2734 24.9544 81.2734Z" fill="#4563FF"/>
<path d="M9.81345 69.4635L3.22711 62.8771C2.9243 62.5743 2.9243 62.1201 3.22711 61.8173C3.52993 61.5144 3.98416 61.5144 4.28698 61.8173L9.81345 67.3437L15.3399 61.8173C15.6427 61.5144 16.097 61.5144 16.3998 61.8173C16.7026 62.1201 16.7026 62.5743 16.3998 62.8771L9.81345 69.4635Z" fill="#4563FF"/>
</svg>
