<svg width="425" height="396" viewBox="0 0 425 396" fill="none" xmlns="http://www.w3.org/2000/svg">
<g filter="url(#filter0_i_8836_91508)">
<path d="M171.428 201.927L125.088 121.046C150.894 107.553 180.128 101.859 209.195 104.722C230.708 106.842 251.391 113.576 269.875 124.339L223.031 204.742C216.033 200.635 208.19 198.067 200.03 197.263C190.222 196.297 180.362 197.92 171.428 201.927Z" fill="white"/>
</g>
<path d="M138.437 253.201C138.437 253.434 138.437 253.667 138.437 253.9H45C45 198.649 74.9 149.926 119.516 124.049L166.235 204.944C149.65 214.735 138.437 232.685 138.437 253.201Z" fill="#FD2232"/>
<path d="M343.766 245.041V245.974C344 248.305 344 250.869 344 253.2V253.9H250.562V249.937C250.329 249.47 250.329 248.771 250.329 248.305C250.329 247.955 250.27 247.664 250.212 247.372C250.154 247.081 250.095 246.789 250.095 246.44C250.095 246.055 250.024 245.74 249.961 245.458C249.909 245.227 249.862 245.017 249.862 244.808C249.862 244.109 249.862 243.409 249.628 242.71C249.511 242.36 249.453 242.01 249.394 241.661C249.336 241.311 249.278 240.961 249.161 240.612C249.034 240.359 248.976 240.038 248.913 239.686C248.859 239.388 248.801 239.067 248.694 238.747C248.577 238.514 248.518 238.28 248.46 238.047C248.402 237.814 248.343 237.581 248.226 237.348C248.11 237.115 248.051 236.823 247.993 236.532C247.934 236.241 247.876 235.949 247.759 235.716C247.642 235.483 247.584 235.25 247.526 235.017C247.467 234.784 247.409 234.55 247.292 234.317C247.175 233.968 247.058 233.676 246.942 233.385C246.825 233.093 246.708 232.802 246.591 232.452C246.591 232.336 246.533 232.277 246.475 232.219C246.416 232.161 246.358 232.103 246.358 231.986L209.216 248.072C208.282 255.299 202.209 261.127 194.5 261.127C186.324 261.127 179.784 254.599 179.784 246.44C179.784 238.28 186.324 231.753 194.5 231.753C197.77 231.753 200.807 232.919 203.376 234.784L306.858 198.649L305.924 196.085L237.248 217.532C237.248 217.416 237.189 217.357 237.131 217.299C237.072 217.241 237.014 217.183 237.014 217.066C236.897 216.833 236.722 216.658 236.547 216.483C236.372 216.308 236.196 216.133 236.08 215.9C235.612 215.201 235.145 214.735 234.678 214.269L233.51 213.103C233.191 212.625 232.762 212.256 232.374 211.921C232.194 211.766 232.023 211.619 231.875 211.471C231.712 211.146 231.436 210.934 231.204 210.757C231.103 210.68 231.011 210.609 230.941 210.538C230.24 210.305 229.773 209.839 229.305 209.373C229.189 209.256 229.013 209.14 228.838 209.023C228.663 208.907 228.488 208.79 228.371 208.673C228.021 208.44 227.612 208.149 227.203 207.857C226.794 207.566 226.385 207.275 226.035 207.042C225.918 207.042 225.86 206.983 225.801 206.925C225.743 206.867 225.685 206.808 225.568 206.808C225.101 206.575 224.692 206.284 224.283 205.993C223.874 205.701 223.466 205.41 222.998 205.177C214.823 200.048 205.012 197.25 194.5 197.25C186.379 197.25 178.489 198.86 171.516 202.08L169.232 198.095C176.892 194.651 185.466 192.588 194.5 192.588C205.712 192.588 215.991 195.618 225.101 200.98L267.148 128.245C245.891 115.89 220.896 108.663 194.5 108.663C170.357 108.663 147.367 114.649 127.365 125.02L125.079 121.029C145.768 110.21 169.443 104 194.5 104C221.83 104 247.526 111.46 269.483 124.049C269.923 124.195 270.271 124.433 270.585 124.648C270.771 124.776 270.945 124.895 271.119 124.981C271.586 125.448 272.053 125.681 272.52 125.448C274.155 126.38 276.024 127.546 277.659 128.711C277.893 128.711 278.126 128.945 278.36 129.178C279.061 129.761 279.82 130.285 280.579 130.81C281.338 131.334 282.098 131.859 282.798 132.441C283.032 132.558 283.266 132.733 283.499 132.908C283.733 133.083 283.966 133.257 284.2 133.374C285.017 134.073 285.835 134.714 286.653 135.356C287.47 135.997 288.288 136.638 289.105 137.337L289.573 137.803C290.273 138.503 291.032 139.144 291.792 139.785C292.551 140.426 293.31 141.067 294.011 141.766L294.945 142.699C296.58 144.098 297.982 145.496 299.617 147.128L299.851 147.362C301.486 148.993 302.887 150.392 304.289 152.024C304.615 152.187 304.827 152.462 305.005 152.694C305.082 152.794 305.153 152.886 305.223 152.957C308.26 156.22 311.063 159.717 313.633 163.214C313.866 163.68 314.1 163.913 314.333 164.147C316.903 167.643 319.473 171.373 321.808 175.103C321.898 175.282 321.953 175.426 322 175.549C322.076 175.748 322.131 175.892 322.276 176.036C324.612 179.999 326.947 183.962 328.816 187.925C328.905 188.103 328.961 188.247 329.008 188.371C329.084 188.57 329.139 188.714 329.283 188.858C331.386 193.054 333.021 197.25 334.656 201.447C334.656 201.72 334.736 201.913 334.803 202.073C334.85 202.186 334.89 202.283 334.89 202.379C336.525 206.575 337.926 211.005 339.094 215.434C339.094 215.551 339.153 215.726 339.211 215.9C339.27 216.075 339.328 216.25 339.328 216.367C340.496 221.029 341.43 225.458 342.131 230.121C342.365 230.354 342.365 230.82 342.365 231.053C343.065 235.483 343.533 240.379 343.766 245.041Z" fill="#6FE566"/>
<defs>
<filter id="filter0_i_8836_91508" x="125.088" y="104" width="144.787" height="100.742" filterUnits="userSpaceOnUse" color-interpolation-filters="sRGB">
<feFlood flood-opacity="0" result="BackgroundImageFix"/>
<feBlend mode="normal" in="SourceGraphic" in2="BackgroundImageFix" result="shape"/>
<feColorMatrix in="SourceAlpha" type="matrix" values="0 0 0 0 0 0 0 0 0 0 0 0 0 0 0 0 0 0 127 0" result="hardAlpha"/>
<feOffset/>
<feGaussianBlur stdDeviation="7.5"/>
<feComposite in2="hardAlpha" operator="arithmetic" k2="-1" k3="1"/>
<feColorMatrix type="matrix" values="0 0 0 0 0.886275 0 0 0 0 0.894118 0 0 0 0 0.92549 0 0 0 1 0"/>
<feBlend mode="normal" in2="shape" result="effect1_innerShadow_8836_91508"/>
</filter>
</defs>
</svg>
