<svg width="101" height="90" viewBox="0 0 101 90" fill="none" xmlns="http://www.w3.org/2000/svg">
<path d="M96.873 17H32.9024C30.7827 17 29.1172 18.6655 29.1172 20.7852V21.9208H89.7568C93.0878 21.9208 95.8132 24.6462 95.8132 27.9772V60.0004H96.9487C99.0685 60.0004 100.734 58.3349 100.734 56.2151V20.7852C100.658 18.6655 98.9171 17 96.873 17Z" fill="#4563FF"/>
<path d="M89.6848 67.8738H25.7142C23.2159 67.8738 21.1719 65.8298 21.1719 63.3315V27.9017C21.1719 25.4034 23.2159 23.3594 25.7142 23.3594H89.6848C92.1831 23.3594 94.2271 25.4034 94.2271 27.9017V63.2558C94.2271 65.8298 92.1831 67.8738 89.6848 67.8738ZM25.7142 24.8735C24.0487 24.8735 22.686 26.2362 22.686 27.9017V63.2558C22.686 64.9213 24.0487 66.284 25.7142 66.284H89.6848C91.3503 66.284 92.713 64.9213 92.713 63.2558V27.9017C92.713 26.2362 91.3503 24.8735 89.6848 24.8735H25.7142Z" fill="#4563FF"/>
<path d="M66.5884 32.8979C68.7081 32.8979 70.3736 34.5634 70.3736 36.6831C70.3736 38.8029 68.7081 40.4684 66.5884 40.4684C64.4687 40.4684 62.8032 38.8029 62.8032 36.6831C62.8032 34.5634 64.5444 32.8979 66.5884 32.8979ZM66.5884 31.3838C63.6359 31.3838 61.2891 33.7306 61.2891 36.6831C61.2891 39.6356 63.6359 41.9825 66.5884 41.9825C69.5409 41.9825 71.8877 39.6356 71.8877 36.6831C71.8877 33.7306 69.5409 31.3838 66.5884 31.3838Z" fill="#4563FF"/>
<path d="M80.979 41.9825C83.9058 41.9825 86.2784 39.6099 86.2784 36.6831C86.2784 33.7564 83.9058 31.3838 80.979 31.3838C78.0523 31.3838 75.6797 33.7564 75.6797 36.6831C75.6797 39.6099 78.0523 41.9825 80.979 41.9825Z" fill="#FF0029"/>
<path d="M24.9527 81.2736C20.7132 81.2736 16.7009 79.6081 13.7484 76.5799C13.4456 76.2771 13.4456 75.8228 13.7484 75.52C14.0512 75.2172 14.5054 75.2172 14.8082 75.52C17.5336 78.2454 21.1675 79.7595 24.9527 79.7595C32.9017 79.7595 39.3366 73.3246 39.3366 65.3756C39.3366 57.4266 32.9017 50.9916 24.9527 50.9916C17.0037 50.9916 10.5688 57.4266 10.5688 65.3756V67.6467C10.5688 68.1009 10.266 68.4038 9.81174 68.4038C9.35751 68.4038 9.05469 68.1009 9.05469 67.6467V65.3756C9.05469 56.5938 16.1709 49.4775 24.9527 49.4775C33.7345 49.4775 40.8507 56.5938 40.8507 65.3756C40.8507 74.1573 33.6588 81.2736 24.9527 81.2736Z" fill="#4563FF"/>
<path d="M9.81345 69.4631L3.22711 62.8768C2.9243 62.574 2.9243 62.1198 3.22711 61.817C3.52993 61.5141 3.98416 61.5141 4.28698 61.817L9.81345 67.3434L15.3399 61.817C15.6427 61.5141 16.097 61.5141 16.3998 61.817C16.7026 62.1198 16.7026 62.574 16.3998 62.8768L9.81345 69.4631Z" fill="#4563FF"/>
</svg>
