<svg width="101" height="90" viewBox="0 0 101 90" fill="none" xmlns="http://www.w3.org/2000/svg">
<g filter="url(#filter0_i_15140_151842)">
<path d="M47.7687 52.554L33.8203 28.1443C41.588 24.0723 50.3875 22.3538 59.1367 23.218C65.6122 23.8576 71.8378 25.8899 77.4017 29.1381L63.3015 53.4036C61.195 52.1643 58.8343 51.3892 56.3781 51.1466C53.4257 50.855 50.458 51.3448 47.7687 52.554Z" fill="white"/>
</g>
<path d="M37.8398 68.0283C37.8398 68.0986 37.8398 68.169 37.8398 68.2393H9.71484C9.71484 51.5649 18.7148 36.8604 32.1445 29.0508L46.207 53.4645C41.2148 56.4195 37.8398 61.8369 37.8398 68.0283Z" fill="#FD2232"/>
<path d="M99.6461 65.5657V65.8471C99.7164 66.5507 99.7164 67.3246 99.7164 68.0281V68.2392H71.5914V67.0431C71.5211 66.9024 71.5211 66.6914 71.5211 66.5507C71.5211 66.4451 71.5035 66.3572 71.4859 66.2692C71.4683 66.1813 71.4508 66.0933 71.4508 65.9878C71.4508 65.8716 71.4295 65.7767 71.4103 65.6914C71.3947 65.6218 71.3804 65.5586 71.3804 65.4953C71.3804 65.2842 71.3804 65.0732 71.3101 64.8621C71.275 64.7566 71.2574 64.651 71.2398 64.5455C71.2222 64.44 71.2047 64.3344 71.1695 64.2289C71.1314 64.1527 71.114 64.0559 71.0948 63.9496C71.0786 63.8596 71.0611 63.7628 71.0289 63.666C70.9937 63.5957 70.9761 63.5253 70.9586 63.455C70.941 63.3846 70.9234 63.3143 70.8883 63.2439C70.8531 63.1735 70.8355 63.0856 70.8179 62.9977C70.8004 62.9097 70.7828 62.8218 70.7476 62.7514C70.7125 62.681 70.6949 62.6107 70.6773 62.5403C70.6597 62.47 70.6422 62.3996 70.607 62.3293C70.5719 62.2237 70.5367 62.1358 70.5015 62.0479C70.4664 61.9599 70.4312 61.872 70.3961 61.7664C70.3961 61.7312 70.3785 61.7136 70.3609 61.6961C70.3433 61.6785 70.3258 61.6609 70.3258 61.6257L59.1461 66.4803C58.8648 68.6613 57.0367 70.4203 54.7164 70.4203C52.2554 70.4203 50.2867 68.4503 50.2867 65.9878C50.2867 63.5253 52.2554 61.5553 54.7164 61.5553C55.7008 61.5553 56.6148 61.9071 57.3883 62.47L88.5367 51.5647L88.2555 50.7908L67.5836 57.2636C67.5836 57.2284 67.566 57.2108 67.5484 57.1932C67.5308 57.1757 67.5133 57.1581 67.5133 57.1229C67.4781 57.0525 67.4254 56.9998 67.3726 56.947C67.3199 56.8942 67.2672 56.8415 67.232 56.7711C67.0914 56.5601 66.9508 56.4193 66.8102 56.2786L66.4586 55.9268C66.3625 55.7826 66.2335 55.6712 66.1166 55.5702C66.0625 55.5234 66.0109 55.4789 65.9664 55.4343C65.9174 55.3362 65.8342 55.2723 65.7644 55.2188C65.7342 55.1955 65.7064 55.1742 65.6851 55.1529C65.4742 55.0826 65.3336 54.9418 65.1929 54.8011C65.1578 54.7659 65.1051 54.7308 65.0523 54.6956C64.9996 54.6604 64.9469 54.6252 64.9117 54.5901C64.8062 54.5197 64.6832 54.4317 64.5601 54.3438C64.4371 54.2559 64.314 54.1679 64.2086 54.0976C64.1734 54.0976 64.1558 54.08 64.1383 54.0624C64.1207 54.0448 64.1031 54.0272 64.0679 54.0272C63.9273 53.9568 63.8043 53.8689 63.6812 53.781C63.5582 53.693 63.4351 53.6051 63.2945 53.5347C60.8336 51.9869 57.8804 51.1426 54.7164 51.1426C52.272 51.1426 49.8969 51.6285 47.798 52.6003L47.1107 51.3976C49.4163 50.3581 51.9972 49.7355 54.7164 49.7355C58.0914 49.7355 61.1851 50.6501 63.9273 52.2683L76.5836 30.3171C70.1851 26.5882 62.6617 24.4071 54.7164 24.4071C47.4492 24.4071 40.5292 26.2138 34.5086 29.3438L33.8203 28.1393C40.048 24.874 47.1741 23 54.7164 23C62.9429 23 70.6773 25.2514 77.2867 29.0507C77.4191 29.0948 77.5238 29.1667 77.6182 29.2315C77.6742 29.2699 77.7265 29.3059 77.7789 29.3321C77.9195 29.4728 78.0601 29.5432 78.2008 29.4728C78.693 29.7542 79.2554 30.106 79.7476 30.4578C79.8179 30.4578 79.8883 30.5281 79.9586 30.5985C80.1695 30.7744 80.398 30.9327 80.6266 31.091C80.8551 31.2493 81.0836 31.4076 81.2945 31.5835C81.3648 31.6187 81.4351 31.6714 81.5055 31.7242C81.5758 31.777 81.6461 31.8297 81.7164 31.8649C81.9625 32.076 82.2086 32.2695 82.4547 32.463C82.7008 32.6564 82.9469 32.8499 83.193 33.061L83.3336 33.2017C83.5445 33.4128 83.773 33.6062 84.0016 33.7997C84.2301 33.9932 84.4586 34.1867 84.6695 34.3977L84.9508 34.6792C85.4429 35.1013 85.8648 35.5234 86.3569 36.0159L86.4273 36.0863C86.9195 36.5788 87.3414 37.0009 87.7633 37.4934C87.8613 37.5425 87.9252 37.6257 87.9787 37.6955C88.0019 37.7258 88.0232 37.7536 88.0445 37.7749C88.9586 38.7598 89.8023 39.8152 90.5758 40.8705C90.6461 41.0113 90.7164 41.0816 90.7867 41.152C91.5601 42.2073 92.3336 43.333 93.0367 44.4587C93.0636 44.5125 93.0802 44.556 93.0943 44.5931C93.1173 44.6532 93.1339 44.6967 93.1773 44.7401C93.8805 45.9362 94.5836 47.1323 95.1461 48.3283C95.1729 48.3821 95.1895 48.4256 95.2037 48.4627C95.2266 48.5228 95.2432 48.5663 95.2867 48.6098C95.9195 49.8762 96.4117 51.1426 96.9039 52.409C96.9039 52.4914 96.928 52.5497 96.948 52.598C96.9621 52.6321 96.9742 52.6613 96.9742 52.6904C97.4664 53.9568 97.8883 55.2936 98.2398 56.6304C98.2398 56.6656 98.2574 56.7183 98.275 56.7711C98.2926 56.8239 98.3101 56.8766 98.3101 56.9118C98.6617 58.3189 98.943 59.6557 99.1539 61.0628C99.2242 61.1332 99.2242 61.2739 99.2242 61.3443C99.4351 62.681 99.5758 64.1585 99.6461 65.5657Z" fill="#4563FF"/>
<defs>
<filter id="filter0_i_15140_151842" x="33.8203" y="23" width="43.5813" height="30.4036" filterUnits="userSpaceOnUse" color-interpolation-filters="sRGB">
<feFlood flood-opacity="0" result="BackgroundImageFix"/>
<feBlend mode="normal" in="SourceGraphic" in2="BackgroundImageFix" result="shape"/>
<feColorMatrix in="SourceAlpha" type="matrix" values="0 0 0 0 0 0 0 0 0 0 0 0 0 0 0 0 0 0 127 0" result="hardAlpha"/>
<feOffset/>
<feGaussianBlur stdDeviation="2.5"/>
<feComposite in2="hardAlpha" operator="arithmetic" k2="-1" k3="1"/>
<feColorMatrix type="matrix" values="0 0 0 0 0.886275 0 0 0 0 0.894118 0 0 0 0 0.92549 0 0 0 1 0"/>
<feBlend mode="normal" in2="shape" result="effect1_innerShadow_15140_151842"/>
</filter>
</defs>
</svg>
