<svg width="30" height="62" viewBox="0 0 30 62" fill="none" xmlns="http://www.w3.org/2000/svg">
<circle cx="15" cy="15" r="14.75" fill="white" stroke="#AEB5D1" stroke-width="0.5"/>
<g clip-path="url(#clip0_20258_37512)">
<path d="M10.0099 19.2069C10.6132 19.2069 11.1044 19.6778 11.1044 20.2578C11.1044 20.8378 10.6132 21.3087 10.0099 21.3087C9.40656 21.3087 8.91541 20.8378 8.91541 20.2578C8.91541 19.6791 9.40656 19.2069 10.0099 19.2069ZM10.0099 18.6748C9.10284 18.6748 8.36816 19.3838 8.36816 20.2578C8.36816 21.1317 9.10284 21.8408 10.0099 21.8408C10.917 21.8408 11.6516 21.1317 11.6516 20.2578C11.6516 19.3838 10.917 18.6748 10.0099 18.6748Z" fill="#4563FF"/>
<path d="M12.6094 22.9628H18.0818V7H12.6094V22.9628ZM15.3456 21.8986C14.4385 21.8986 13.7039 21.1842 13.7039 20.3023C13.7039 19.4204 14.4385 18.706 15.3456 18.706C16.2527 18.706 16.9873 19.4204 16.9873 20.3023C16.9873 21.1842 16.2527 21.8986 15.3456 21.8986Z" fill="#4563FF"/>
<path d="M22.1864 7H18.082V22.9628H22.1864C22.9416 22.9628 23.5545 22.3668 23.5545 21.6325V8.33023C23.5545 7.59594 22.9416 7 22.1864 7ZM20.8183 21.8986C19.9112 21.8986 19.1765 21.1842 19.1765 20.3023C19.1765 19.4204 19.9112 18.706 20.8183 18.706C21.7253 18.706 22.46 19.4204 22.46 20.3023C22.46 21.1842 21.7253 21.8986 20.8183 21.8986Z" fill="#FF0029"/>
<path d="M12.8829 7.53209V22.4307H8.36812C7.91527 22.4307 7.54725 22.0728 7.54725 21.6325V8.33023C7.54725 7.88992 7.91527 7.53209 8.36812 7.53209H12.8829ZM13.4301 7H8.36812C7.61292 7 7 7.59594 7 8.33023V21.6325C7 22.3668 7.61292 22.9628 8.36812 22.9628H13.4301V7Z" fill="#4563FF"/>
</g>
<path d="M2.41 36.93H1.53C1.57 36.2567 1.80333 35.7433 2.23 35.39C2.66333 35.0367 3.20667 34.86 3.86 34.86C4.54 34.86 5.08667 35.0467 5.5 35.42C5.92 35.7867 6.13 36.31 6.13 36.99C6.13 37.8167 5.61333 38.66 4.58 39.52L2.82 41V41.22H6.35V42H1.54V41.01L2.57 40.17C3.21 39.6567 3.74 39.2067 4.16 38.82C4.32 38.68 4.44667 38.56 4.54 38.46C4.64 38.36 4.75 38.23 4.87 38.07C4.99667 37.9033 5.09 37.73 5.15 37.55C5.21667 37.37 5.25 37.1833 5.25 36.99C5.25 36.5567 5.12333 36.2233 4.87 35.99C4.61667 35.7567 4.27333 35.64 3.84 35.64C3.43333 35.64 3.10333 35.75 2.85 35.97C2.60333 36.1833 2.45667 36.5033 2.41 36.93ZM8.07031 35.77C8.53698 35.1633 9.16031 34.86 9.94031 34.86C10.7203 34.86 11.3436 35.1667 11.8103 35.78C12.2836 36.3867 12.5203 37.2933 12.5203 38.5C12.5203 39.7067 12.2836 40.6133 11.8103 41.22C11.3436 41.8267 10.7203 42.13 9.94031 42.13C9.16031 42.13 8.53698 41.8267 8.07031 41.22C7.60365 40.6133 7.37031 39.7067 7.37031 38.5C7.37031 37.2867 7.60365 36.3767 8.07031 35.77ZM8.67031 40.6C8.95031 41.1 9.37365 41.35 9.94031 41.35C10.507 41.35 10.9303 41.1 11.2103 40.6C11.497 40.0933 11.6403 39.3933 11.6403 38.5C11.6403 37.6 11.497 36.9 11.2103 36.4C10.9303 35.8933 10.507 35.64 9.94031 35.64C9.37365 35.64 8.95031 35.8933 8.67031 36.4C8.39031 36.9 8.25031 37.6 8.25031 38.5C8.25031 39.3933 8.39031 40.0933 8.67031 40.6ZM14.8803 42H13.8403V40.84H14.8803V42ZM14.8803 38.12H13.8403V36.96H14.8803V38.12ZM16.8984 35.77C17.3651 35.1633 17.9884 34.86 18.7684 34.86C19.5484 34.86 20.1718 35.1667 20.6384 35.78C21.1118 36.3867 21.3484 37.2933 21.3484 38.5C21.3484 39.7067 21.1118 40.6133 20.6384 41.22C20.1718 41.8267 19.5484 42.13 18.7684 42.13C17.9884 42.13 17.3651 41.8267 16.8984 41.22C16.4318 40.6133 16.1984 39.7067 16.1984 38.5C16.1984 37.2867 16.4318 36.3767 16.8984 35.77ZM17.4984 40.6C17.7784 41.1 18.2018 41.35 18.7684 41.35C19.3351 41.35 19.7584 41.1 20.0384 40.6C20.3251 40.0933 20.4684 39.3933 20.4684 38.5C20.4684 37.6 20.3251 36.9 20.0384 36.4C19.7584 35.8933 19.3351 35.64 18.7684 35.64C18.2018 35.64 17.7784 35.8933 17.4984 36.4C17.2184 36.9 17.0784 37.6 17.0784 38.5C17.0784 39.3933 17.2184 40.0933 17.4984 40.6ZM26.3884 38.2V38.42C26.6618 38.5133 26.9118 38.71 27.1384 39.01C27.3651 39.3033 27.4784 39.6633 27.4784 40.09C27.4784 40.6767 27.2451 41.1633 26.7784 41.55C26.3184 41.9367 25.7084 42.13 24.9484 42.13C24.1884 42.13 23.5751 41.9367 23.1084 41.55C22.6484 41.1633 22.4184 40.6767 22.4184 40.09C22.4184 39.67 22.5318 39.31 22.7584 39.01C22.9851 38.71 23.2351 38.5133 23.5084 38.42V38.2C23.2884 38.1067 23.0851 37.93 22.8984 37.67C22.7184 37.41 22.6284 37.0967 22.6284 36.73C22.6284 36.1767 22.8451 35.7267 23.2784 35.38C23.7118 35.0333 24.2684 34.86 24.9484 34.86C25.6284 34.86 26.1851 35.0333 26.6184 35.38C27.0518 35.7267 27.2684 36.1767 27.2684 36.73C27.2684 37.0833 27.1751 37.3933 26.9884 37.66C26.8018 37.9267 26.6018 38.1067 26.3884 38.2ZM25.9884 35.93C25.7151 35.7233 25.3684 35.62 24.9484 35.62C24.5284 35.62 24.1784 35.7233 23.8984 35.93C23.6251 36.13 23.4884 36.41 23.4884 36.77C23.4884 37.13 23.6251 37.4133 23.8984 37.62C24.1784 37.8267 24.5284 37.93 24.9484 37.93C25.3684 37.93 25.7151 37.8267 25.9884 37.62C26.2684 37.4133 26.4084 37.13 26.4084 36.77C26.4084 36.41 26.2684 36.13 25.9884 35.93ZM23.7284 40.99C24.0284 41.23 24.4351 41.35 24.9484 41.35C25.4618 41.35 25.8651 41.23 26.1584 40.99C26.4584 40.7433 26.6084 40.4167 26.6084 40.01C26.6084 39.5967 26.4618 39.2733 26.1684 39.04C25.8751 38.8067 25.4684 38.69 24.9484 38.69C24.4284 38.69 24.0218 38.8067 23.7284 39.04C23.4351 39.2733 23.2884 39.5967 23.2884 40.01C23.2884 40.4167 23.4351 40.7433 23.7284 40.99Z" fill="#AEB5D1"/>
<defs>
<clipPath id="clip0_20258_37512">
<rect width="16.7273" height="16" fill="white" transform="translate(7 7)"/>
</clipPath>
</defs>
</svg>
