<svg width="30" height="62" viewBox="0 0 30 62" fill="none" xmlns="http://www.w3.org/2000/svg">
<circle cx="15" cy="15" r="14.75" fill="white" stroke="#AEB5D1" stroke-width="0.5"/>
<g clip-path="url(#clip0_20258_37458)">
<path d="M10.0099 19.2069C10.6132 19.2069 11.1044 19.6778 11.1044 20.2578C11.1044 20.8378 10.6132 21.3087 10.0099 21.3087C9.40656 21.3087 8.91541 20.8378 8.91541 20.2578C8.91541 19.6791 9.40656 19.2069 10.0099 19.2069ZM10.0099 18.6748C9.10284 18.6748 8.36816 19.3838 8.36816 20.2578C8.36816 21.1317 9.10284 21.8408 10.0099 21.8408C10.917 21.8408 11.6516 21.1317 11.6516 20.2578C11.6516 19.3838 10.917 18.6748 10.0099 18.6748Z" fill="#4563FF"/>
<path d="M12.6094 22.9628H18.0818V7H12.6094V22.9628ZM15.3456 21.8986C14.4385 21.8986 13.7039 21.1842 13.7039 20.3023C13.7039 19.4204 14.4385 18.706 15.3456 18.706C16.2527 18.706 16.9873 19.4204 16.9873 20.3023C16.9873 21.1842 16.2527 21.8986 15.3456 21.8986Z" fill="#4563FF"/>
<path d="M22.1864 7H18.082V22.9628H22.1864C22.9416 22.9628 23.5545 22.3668 23.5545 21.6325V8.33023C23.5545 7.59594 22.9416 7 22.1864 7ZM20.8183 21.8986C19.9112 21.8986 19.1765 21.1842 19.1765 20.3023C19.1765 19.4204 19.9112 18.706 20.8183 18.706C21.7253 18.706 22.46 19.4204 22.46 20.3023C22.46 21.1842 21.7253 21.8986 20.8183 21.8986Z" fill="#FF0029"/>
<path d="M12.8829 7.53209V22.4307H8.36812C7.91527 22.4307 7.54725 22.0728 7.54725 21.6325V8.33023C7.54725 7.88992 7.91527 7.53209 8.36812 7.53209H12.8829ZM13.4301 7H8.36812C7.61292 7 7 7.59594 7 8.33023V21.6325C7 22.3668 7.61292 22.9628 8.36812 22.9628H13.4301V7Z" fill="#4563FF"/>
</g>
<path d="M2.59 42V41.22H4.25V35.92H4.05L2.58 36.91V35.99L4.04 35H5.13V41.22H6.66V42H2.59ZM11.5291 38.2V38.42C11.8024 38.5133 12.0524 38.71 12.2791 39.01C12.5057 39.3033 12.6191 39.6633 12.6191 40.09C12.6191 40.6767 12.3857 41.1633 11.9191 41.55C11.4591 41.9367 10.8491 42.13 10.0891 42.13C9.32906 42.13 8.71573 41.9367 8.24906 41.55C7.78906 41.1633 7.55906 40.6767 7.55906 40.09C7.55906 39.67 7.6724 39.31 7.89906 39.01C8.12573 38.71 8.37573 38.5133 8.64906 38.42V38.2C8.42906 38.1067 8.22573 37.93 8.03906 37.67C7.85906 37.41 7.76906 37.0967 7.76906 36.73C7.76906 36.1767 7.98573 35.7267 8.41906 35.38C8.8524 35.0333 9.40906 34.86 10.0891 34.86C10.7691 34.86 11.3257 35.0333 11.7591 35.38C12.1924 35.7267 12.4091 36.1767 12.4091 36.73C12.4091 37.0833 12.3157 37.3933 12.1291 37.66C11.9424 37.9267 11.7424 38.1067 11.5291 38.2ZM11.1291 35.93C10.8557 35.7233 10.5091 35.62 10.0891 35.62C9.66906 35.62 9.31906 35.7233 9.03906 35.93C8.76573 36.13 8.62906 36.41 8.62906 36.77C8.62906 37.13 8.76573 37.4133 9.03906 37.62C9.31906 37.8267 9.66906 37.93 10.0891 37.93C10.5091 37.93 10.8557 37.8267 11.1291 37.62C11.4091 37.4133 11.5491 37.13 11.5491 36.77C11.5491 36.41 11.4091 36.13 11.1291 35.93ZM8.86906 40.99C9.16906 41.23 9.57573 41.35 10.0891 41.35C10.6024 41.35 11.0057 41.23 11.2991 40.99C11.5991 40.7433 11.7491 40.4167 11.7491 40.01C11.7491 39.5967 11.6024 39.2733 11.3091 39.04C11.0157 38.8067 10.6091 38.69 10.0891 38.69C9.56906 38.69 9.1624 38.8067 8.86906 39.04C8.57573 39.2733 8.42906 39.5967 8.42906 40.01C8.42906 40.4167 8.57573 40.7433 8.86906 40.99ZM14.9623 42H13.9223V40.84H14.9623V42ZM14.9623 38.12H13.9223V36.96H14.9623V38.12ZM20.4405 39.58H21.4005V40.36H20.4405V42H19.5805V40.36H16.1205V39.36L19.2105 35H20.4405V39.58ZM17.0405 39.58H19.5905V35.99H19.3705L17.0405 39.36V39.58ZM25.1135 37.44C25.7535 37.44 26.2868 37.6567 26.7135 38.09C27.1402 38.5167 27.3535 39.06 27.3535 39.72C27.3535 40.4067 27.1368 40.98 26.7035 41.44C26.2768 41.9 25.7002 42.13 24.9735 42.13C24.1802 42.13 23.5535 41.8567 23.0935 41.31C22.6335 40.7633 22.4035 39.89 22.4035 38.69C22.4035 37.5633 22.6268 36.6433 23.0735 35.93C23.5268 35.2167 24.1902 34.86 25.0635 34.86C25.6435 34.86 26.1168 35.0167 26.4835 35.33C26.8568 35.6367 27.0835 36.0367 27.1635 36.53H26.2935C26.1202 35.9367 25.7102 35.64 25.0635 35.64C24.5102 35.64 24.0768 35.86 23.7635 36.3C23.4502 36.74 23.2802 37.3467 23.2535 38.12H23.4735C23.6202 37.94 23.8335 37.7833 24.1135 37.65C24.4002 37.51 24.7335 37.44 25.1135 37.44ZM23.8635 40.92C24.1568 41.2067 24.5235 41.35 24.9635 41.35C25.4035 41.35 25.7635 41.21 26.0435 40.93C26.3302 40.65 26.4735 40.26 26.4735 39.76C26.4735 39.26 26.3302 38.8767 26.0435 38.61C25.7568 38.3433 25.3902 38.21 24.9435 38.21C24.5035 38.21 24.1402 38.3467 23.8535 38.62C23.5668 38.8933 23.4235 39.27 23.4235 39.75C23.4235 40.2433 23.5702 40.6333 23.8635 40.92Z" fill="#AEB5D1"/>
<defs>
<clipPath id="clip0_20258_37458">
<rect width="16.7273" height="16" fill="white" transform="translate(7 7)"/>
</clipPath>
</defs>
</svg>
