<svg width="30" height="62" viewBox="0 0 30 62" fill="none" xmlns="http://www.w3.org/2000/svg">
<circle cx="15" cy="15" r="14.75" fill="white" stroke="#AEB5D1" stroke-width="0.5"/>
<g clip-path="url(#clip0_20258_37485)">
<path d="M10.0099 19.2069C10.6132 19.2069 11.1044 19.6778 11.1044 20.2578C11.1044 20.8378 10.6132 21.3087 10.0099 21.3087C9.40656 21.3087 8.91541 20.8378 8.91541 20.2578C8.91541 19.6791 9.40656 19.2069 10.0099 19.2069ZM10.0099 18.6748C9.10284 18.6748 8.36816 19.3838 8.36816 20.2578C8.36816 21.1317 9.10284 21.8408 10.0099 21.8408C10.917 21.8408 11.6516 21.1317 11.6516 20.2578C11.6516 19.3838 10.917 18.6748 10.0099 18.6748Z" fill="#4563FF"/>
<path d="M12.6094 22.9628H18.0818V7H12.6094V22.9628ZM15.3456 21.8986C14.4385 21.8986 13.7039 21.1842 13.7039 20.3023C13.7039 19.4204 14.4385 18.706 15.3456 18.706C16.2527 18.706 16.9873 19.4204 16.9873 20.3023C16.9873 21.1842 16.2527 21.8986 15.3456 21.8986Z" fill="#4563FF"/>
<path d="M22.1864 7H18.082V22.9628H22.1864C22.9416 22.9628 23.5545 22.3668 23.5545 21.6325V8.33023C23.5545 7.59594 22.9416 7 22.1864 7ZM20.8183 21.8986C19.9112 21.8986 19.1765 21.1842 19.1765 20.3023C19.1765 19.4204 19.9112 18.706 20.8183 18.706C21.7253 18.706 22.46 19.4204 22.46 20.3023C22.46 21.1842 21.7253 21.8986 20.8183 21.8986Z" fill="#FF0029"/>
<path d="M12.8829 7.53209V22.4307H8.36812C7.91527 22.4307 7.54725 22.0728 7.54725 21.6325V8.33023C7.54725 7.88992 7.91527 7.53209 8.36812 7.53209H12.8829ZM13.4301 7H8.36812C7.61292 7 7 7.59594 7 8.33023V21.6325C7 22.3668 7.61292 22.9628 8.36812 22.9628H13.4301V7Z" fill="#4563FF"/>
</g>
<path d="M3.59 42V41.22H5.25V35.92H5.05L3.58 36.91V35.99L5.04 35H6.13V41.22H7.66V42H3.59ZM10.7091 39.55C10.0691 39.55 9.53573 39.3367 9.10906 38.91C8.6824 38.4767 8.46906 37.93 8.46906 37.27C8.46906 36.5833 8.6824 36.01 9.10906 35.55C9.5424 35.09 10.1224 34.86 10.8491 34.86C11.6424 34.86 12.2691 35.1333 12.7291 35.68C13.1891 36.2267 13.4191 37.1 13.4191 38.3C13.4191 39.4267 13.1924 40.3467 12.7391 41.06C12.2924 41.7733 11.6324 42.13 10.7591 42.13C10.1791 42.13 9.7024 41.9767 9.32906 41.67C8.9624 41.3567 8.73906 40.9533 8.65906 40.46H9.52906C9.7024 41.0533 10.1124 41.35 10.7591 41.35C11.3124 41.35 11.7457 41.13 12.0591 40.69C12.3724 40.25 12.5424 39.6433 12.5691 38.87H12.3491C12.2024 39.05 11.9857 39.21 11.6991 39.35C11.4191 39.4833 11.0891 39.55 10.7091 39.55ZM11.9591 36.07C11.6657 35.7833 11.2991 35.64 10.8591 35.64C10.4191 35.64 10.0557 35.78 9.76906 36.06C9.48906 36.34 9.34906 36.73 9.34906 37.23C9.34906 37.73 9.4924 38.1133 9.77906 38.38C10.0657 38.6467 10.4324 38.78 10.8791 38.78C11.3191 38.78 11.6824 38.6433 11.9691 38.37C12.2557 38.0967 12.3991 37.72 12.3991 37.24C12.3991 36.7467 12.2524 36.3567 11.9591 36.07ZM15.7768 42H14.7368V40.84H15.7768V42ZM15.7768 38.12H14.7368V36.96H15.7768V38.12ZM17.1349 42V41.22H18.7949V35.92H18.5949L17.1249 36.91V35.99L18.5849 35H19.6749V41.22H21.2049V42H17.1349ZM22.374 35H26.464V35.98L24.714 37.48V37.69C25.334 37.7033 25.834 37.8967 26.214 38.27C26.6007 38.6433 26.794 39.16 26.794 39.82C26.794 40.5333 26.564 41.0967 26.104 41.51C25.644 41.9233 25.0507 42.13 24.324 42.13C23.624 42.13 23.0507 41.9333 22.604 41.54C22.1573 41.1467 21.914 40.6467 21.874 40.04H22.754C22.794 40.4333 22.9573 40.75 23.244 40.99C23.5373 41.23 23.8973 41.35 24.324 41.35C24.8107 41.35 25.1973 41.2133 25.484 40.94C25.7707 40.6667 25.914 40.2933 25.914 39.82C25.914 39.3533 25.7773 38.99 25.504 38.73C25.2307 38.4633 24.8407 38.33 24.334 38.33C24.0873 38.33 23.884 38.35 23.724 38.39V37.46L25.434 35.98V35.76H22.374V35Z" fill="#AEB5D1"/>
<defs>
<clipPath id="clip0_20258_37485">
<rect width="16.7273" height="16" fill="white" transform="translate(7 7)"/>
</clipPath>
</defs>
</svg>
