<?xml version="1.0" encoding="utf-8"?>
<!-- Generator: Adobe Illustrator 24.1.2, SVG Export Plug-In . SVG Version: 6.00 Build 0)  -->
<svg version="1.1" id="Слой_1" xmlns="http://www.w3.org/2000/svg" xmlns:xlink="http://www.w3.org/1999/xlink" x="0px" y="0px"
	 viewBox="0 0 205.51 205.51" style="enable-background:new 0 0 205.51 205.51;" xml:space="preserve">
<style type="text/css">
	.st0{fill:#AEB5D1;}
	.st1{fill:#4563FF;}
	.st2{fill:none;stroke:#AEB5D1;stroke-width:23;stroke-miterlimit:10;}
	.st3{clip-path:url(#SVGID_2_);fill:none;stroke:#AEB5D1;stroke-width:23;stroke-miterlimit:10;}
	.st4{clip-path:url(#SVGID_2_);fill:#AEB5D1;}
</style>
<g>
	<path class="st0" d="M102.76,23c43.98,0,79.76,35.78,79.76,79.76c0,43.98-35.78,79.76-79.76,79.76S23,146.73,23,102.76
		C23,58.78,58.78,23,102.76,23 M102.76,0C46.01,0,0,46.01,0,102.76c0,56.75,46.01,102.76,102.76,102.76s102.76-46.01,102.76-102.76
		C205.51,46.01,159.51,0,102.76,0L102.76,0z"/>
</g>
<path class="st1" d="M33.65,95.92"/>
<path class="st1" d="M37.12,99.58"/>
<g>
	<path class="st2" d="M70.97,116.66l-18.84-11.54c-2.28-1.29-2.14-4.61,0.24-5.7l80.64-37.05c2.39-1.1,5.02,1,4.47,3.58l-15.68,73.7
		c-0.45,2.12-2.82,3.19-4.71,2.12l-28.23-16.75"/>
	<path class="st2" d="M55.58,107.23l15.39,9.43c0,0,1.25,17.69,1.98,24.9c0.12,1.19,1.76,1.69,2.66,0.81l25.7-17.82"/>
	<path class="st2" d="M75.6,142.37"/>
</g>
<g>
	<defs>
		<path id="SVGID_1_" d="M191.48,231.9c-7.71-7.71-18.16-12.04-29.06-12.04H39.1c-10.9,0-21.36,4.33-29.06,12.04
			C2.33,239.6-2,250.06-2,260.96v123.31c0,10.9,4.33,21.36,12.04,29.06c7.71,7.71,18.16,12.04,29.06,12.04h123.31
			c10.9,0,21.36-4.33,29.06-12.04c7.71-7.71,12.04-18.16,12.04-29.06V260.96C203.51,250.06,199.18,239.6,191.48,231.9z"/>
	</defs>
	<clipPath id="SVGID_2_">
		<use xlink:href="#SVGID_1_"  style="overflow:visible;"/>
	</clipPath>
	<path class="st3" d="M101.98,219.92c6.43,0,12.85,0,19.28,0c0.64,0.05,1.27,0.13,1.91,0.14c11.23,0.16,22.45,0.44,33.6,1.92
		c7.02,0.93,13.91,2.35,20.5,5.05c8,3.28,14.36,8.39,18.34,16.22c2.39,4.7,4.04,9.65,5.19,14.77c2.29,10.13,3.11,20.45,3.39,30.79
		c0.3,10.88,0.32,21.78,0.46,32.67c0,0.36,0,0.72,0,1.13c-0.38,0-0.61,0.01-0.84,0c-8.04-0.33-16.08-0.53-24.11-1.02
		c-7.17-0.44-14.33-1.11-21.48-1.84c-5.53-0.57-10.97-1.75-16.27-3.46c-15.64-5.07-26.62-15.15-32.57-30.54
		c-3.15-8.15-4.47-16.71-5.33-25.34c-0.53-5.37-0.95-10.77-1.2-16.16C102.47,236.14,102.26,228.03,101.98,219.92z"/>
	<path class="st3" d="M-3.15,344.14c0-6.36,0-12.72,0-19.08c8.54,0.33,17.1,0.54,25.63,1.04c7,0.41,13.99,1.1,20.97,1.83
		c5.7,0.6,11.3,1.84,16.75,3.66c11.95,3.99,21.43,11.13,27.93,22.03c4.77,7.99,7.02,16.81,8.32,25.9c0.64,4.5,1.1,9.04,1.47,13.58
		c0.43,5.29,0.71,10.58,0.98,15.88c0.25,4.9,0.4,9.8,0.57,14.69c0.05,1.34,0.01,2.67,0.01,4.07c-0.35,0-0.61,0-0.88,0
		c-6.26-0.03-12.51-0.02-18.77-0.1c-11.7-0.14-23.39-0.39-35.02-1.93c-7.01-0.93-13.92-2.32-20.49-5.05
		c-5.24-2.17-10.02-5.05-13.78-9.39c-3.37-3.88-5.66-8.38-7.38-13.19c-3.3-9.22-4.6-18.83-5.22-28.52
		c-0.52-8.06-0.65-16.15-0.95-24.22C-3.04,344.94-3.11,344.54-3.15,344.14z"/>
	<path class="st3" d="M80.26,219.92c6.43,0,12.85,0,19.28,0c-0.33,8.47-0.54,16.96-1.04,25.42c-0.42,7.07-1.1,14.13-1.84,21.17
		c-0.6,5.7-1.82,11.3-3.65,16.74c-4.9,14.6-14.26,25.15-28.49,31.21c-8.78,3.74-18.1,5.17-27.51,6.09
		c-5.31,0.52-10.63,0.93-15.95,1.19c-8.07,0.39-16.14,0.6-24.21,0.88c0-6.36,0-12.72,0-19.08c0.05-0.6,0.13-1.2,0.14-1.81
		c0.17-11.63,0.48-23.25,2.11-34.79c0.94-6.67,2.31-13.24,4.89-19.5c2.37-5.76,5.55-10.96,10.57-14.86c4.24-3.3,9.01-5.55,14.1-7.17
		c9.34-2.98,19-4.08,28.72-4.64c6.81-0.39,13.64-0.49,20.47-0.72C78.65,220.04,79.46,219.97,80.26,219.92z"/>
	<path class="st3" d="M204.65,325.07c0,0.5,0,0.87,0,1.24c-0.07,8.86-0.07,17.72-0.25,26.58c-0.19,9.4-0.66,18.79-2.01,28.11
		c-1.02,7-2.57,13.86-5.34,20.42c-3.89,9.23-10.56,15.51-19.79,19.24c-6.6,2.67-13.48,4.15-20.5,5.04
		c-17.33,2.2-34.75,1.94-52.16,2.03c-0.84,0-1.67,0-2.61,0c0-0.46-0.01-0.83,0-1.19c0.25-6.69,0.49-13.38,0.78-20.06
		c0.17-3.98,0.36-7.97,0.66-11.94c0.8-10.5,1.85-20.98,5.38-30.99c6-17.03,17.93-27.78,35.17-32.79c5.64-1.64,11.41-2.69,17.25-3.25
		c6.08-0.57,12.17-1.11,18.27-1.44c8.06-0.44,16.14-0.68,24.21-1C203.98,325.06,204.24,325.07,204.65,325.07z"/>
	<path class="st4" d="M191.48,231.9c-7.71-7.71-18.16-12.04-29.06-12.04H39.1c-10.9,0-21.36,4.33-29.06,12.04
		C2.33,239.6-2,250.06-2,260.96v123.31c0,10.9,4.33,21.36,12.04,29.06c7.71,7.71,18.16,12.04,29.06,12.04h123.31
		c10.9,0,21.36-4.33,29.06-12.04c7.71-7.71,12.04-18.16,12.04-29.06V260.96C203.51,250.06,199.18,239.6,191.48,231.9z
		 M182.96,385.48c0,5.45-2.17,10.68-6.02,14.53c-3.85,3.85-9.08,6.02-14.53,6.02H39.1c-5.45,0-10.68-2.17-14.53-6.02
		s-6.02-9.08-6.02-14.53V262.17c0-5.45,2.17-10.68,6.02-14.53s9.08-6.02,14.53-6.02h123.31c5.45,0,10.68,2.17,14.53,6.02
		c3.85,3.85,6.02,9.08,6.02,14.53V385.48z"/>
</g>
</svg>
