<svg width="89" height="89" viewBox="0 0 89 89" fill="none" xmlns="http://www.w3.org/2000/svg">
<path d="M89 44.5C89 69.0767 69.0767 89 44.5 89C19.9233 89 0 69.0767 0 44.5C0 19.9233 19.9233 0 44.5 0C69.0767 0 89 19.9233 89 44.5Z" fill="#4664FF"/>
<path d="M32.5 43C32.5 43.8284 33.1716 44.5 34 44.5C34.8284 44.5 35.5 43.8284 35.5 43H32.5ZM35.0607 19.9393C34.4749 19.3536 33.5251 19.3536 32.9393 19.9393L23.3934 29.4853C22.8076 30.0711 22.8076 31.0208 23.3934 31.6066C23.9792 32.1924 24.9289 32.1924 25.5147 31.6066L34 23.1213L42.4853 31.6066C43.0711 32.1924 44.0208 32.1924 44.6066 31.6066C45.1924 31.0208 45.1924 30.0711 44.6066 29.4853L35.0607 19.9393ZM35.5 43V21H32.5V43H35.5Z" fill="white"/>
</svg>
