<svg width="100" height="90" viewBox="0 0 100 90" fill="none" xmlns="http://www.w3.org/2000/svg">
<path d="M33.598 4C28.1467 4 23.5513 7.73964 22.228 12.8025H44.9679C43.6447 7.73245 39.1283 4 33.598 4Z" fill="#4563FF"/>
<path d="M35.5479 15.7581C35.5479 17.0813 36.641 18.1744 37.9642 18.1744C39.2875 18.1744 40.3806 17.0813 40.3806 15.7581C40.3806 14.4348 39.2875 13.3417 37.9642 13.3417C36.641 13.2626 35.5479 14.4348 35.5479 15.7581Z" fill="#4563FF"/>
<path d="M95.7478 38.887H51.2749V28.4519C51.2749 26.2729 49.5632 24.5613 47.3842 24.5613H41.3864C43.098 23.0007 44.4212 20.9798 44.9678 18.7217H22.2279C22.8536 21.059 24.0977 23.0798 25.8093 24.5613H19.8906C17.7116 24.5613 16 26.2729 16 28.4519V62.4108C16 64.5898 17.7116 66.3014 19.8906 66.3014H25.7302V49.2429C25.7302 45.8197 28.535 43.015 31.9582 43.015H89.2825C92.7057 43.015 95.5105 45.8197 95.5105 49.2429V77.9015H95.8197C97.9988 77.9015 99.7104 76.1899 99.7104 74.0108V42.7848C99.6457 40.5986 97.9269 38.887 95.7478 38.887Z" fill="#4563FF"/>
<path d="M26.7413 15.7581C26.7413 17.0813 27.8344 18.1744 29.1577 18.1744C30.481 18.1744 31.5741 17.0813 31.5741 15.7581C31.5741 14.4348 30.481 13.3417 29.1577 13.3417C27.8344 13.2626 26.7413 14.4348 26.7413 15.7581Z" fill="#4563FF"/>
<path d="M89.2844 85.2298H31.9601C29.3927 85.2298 27.2855 83.1298 27.2855 80.5552V49.2429C27.2855 46.6755 29.3855 44.5684 31.9601 44.5684H89.2844C91.8518 44.5684 93.959 46.6683 93.959 49.2429V80.548C93.959 83.1226 91.859 85.2298 89.2844 85.2298ZM31.9672 46.1289C30.2556 46.1289 28.8533 47.5313 28.8533 49.2429V80.548C28.8533 82.2596 30.2556 83.662 31.9672 83.662H89.2916C91.0032 83.662 92.4056 82.2596 92.4056 80.548V49.2429C92.4056 47.5313 91.0032 46.1289 89.2916 46.1289H31.9672Z" fill="#4563FF"/>
<path d="M68.7204 53.4499C70.5902 53.4499 72.0716 54.9313 72.0716 56.8012C72.0716 58.671 70.5902 60.1525 68.7204 60.1525C66.8505 60.1525 65.369 58.671 65.369 56.8012C65.4482 54.9313 66.9296 53.4499 68.7204 53.4499ZM68.7204 51.8965C65.9947 51.8965 63.8157 54.0755 63.8157 56.8012C63.8157 59.5268 65.9947 61.7058 68.7204 61.7058C71.446 61.7058 73.6251 59.5268 73.6251 56.8012C73.6251 54.0755 71.446 51.8965 68.7204 51.8965Z" fill="#4563FF"/>
<path d="M81.8113 61.7058C84.5225 61.7058 86.7159 59.5124 86.7159 56.8012C86.7159 54.0899 84.5225 51.8965 81.8113 51.8965C79.1 51.8965 76.9066 54.0899 76.9066 56.8012C76.9066 59.5124 79.1 61.7058 81.8113 61.7058Z" fill="#FF0029"/>
</svg>
